<?xml version="1.0" encoding="UTF-8" standalone="no"?>
<!DOCTYPE svg PUBLIC "-//W3C//DTD SVG 1.1//EN"
 "http://www.w3.org/Graphics/SVG/1.1/DTD/svg11.dtd">
<!-- Generated by graphviz version 2.36.0 (20140111.2315)
 -->
<!-- Title: backend.Line.toString Pages: 1 -->
<svg width="500pt" height="66pt"
 viewBox="0.00 0.00 500.00 66.00" xmlns="http://www.w3.org/2000/svg" xmlns:xlink="http://www.w3.org/1999/xlink">
<g id="graph0" class="graph" transform="scale(1 1) rotate(0) translate(4 62)">
<title>backend.Line.toString</title>
<polygon fill="white" stroke="none" points="-4,4 -4,-62 496,-62 496,4 -4,4"/>
<!-- Node1 -->
<g id="node1" class="node"><title>Node1</title>
<polygon fill="#bfbfbf" stroke="black" points="0.5,-19.5 0.5,-38.5 121.5,-38.5 121.5,-19.5 0.5,-19.5"/>
<text text-anchor="middle" x="61" y="-26.5" font-family="Helvetica,sans-Serif" font-size="10.00">backend.Line.toString</text>
</g>
<!-- Node2 -->
<g id="node2" class="node"><title>Node2</title>
<g id="a_node2"><a xlink:href="../../dd/daf/classbackend_1_1_line.html#a4273bee0cc41d1a84ee16fc5fb650dd2" target="_top" xlink:title="backend.Line.getEndPoint">
<polygon fill="white" stroke="black" points="161,-38.5 161,-57.5 301,-57.5 301,-38.5 161,-38.5"/>
<text text-anchor="middle" x="231" y="-45.5" font-family="Helvetica,sans-Serif" font-size="10.00">backend.Line.getEndPoint</text>
</a>
</g>
</g>
<!-- Node1&#45;&gt;Node2 -->
<g id="edge1" class="edge"><title>Node1&#45;&gt;Node2</title>
<path fill="none" stroke="midnightblue" d="M121.704,-35.7522C131.083,-36.813 140.905,-37.9238 150.644,-39.0252"/>
<polygon fill="midnightblue" stroke="midnightblue" points="150.41,-42.5209 160.74,-40.167 151.196,-35.5653 150.41,-42.5209"/>
</g>
<!-- Node4 -->
<g id="node4" class="node"><title>Node4</title>
<g id="a_node4"><a xlink:href="../../dd/daf/classbackend_1_1_line.html#ab6248223d5980c0734315b28a989249b" target="_top" xlink:title="backend.Line.getStartPoint">
<polygon fill="white" stroke="black" points="158,-0.5 158,-19.5 304,-19.5 304,-0.5 158,-0.5"/>
<text text-anchor="middle" x="231" y="-7.5" font-family="Helvetica,sans-Serif" font-size="10.00">backend.Line.getStartPoint</text>
</a>
</g>
</g>
<!-- Node1&#45;&gt;Node4 -->
<g id="edge3" class="edge"><title>Node1&#45;&gt;Node4</title>
<path fill="none" stroke="midnightblue" d="M121.704,-22.2478C130.201,-21.2868 139.06,-20.2848 147.892,-19.286"/>
<polygon fill="midnightblue" stroke="midnightblue" points="148.288,-22.7636 157.831,-18.1619 147.501,-15.808 148.288,-22.7636"/>
</g>
<!-- Node3 -->
<g id="node3" class="node"><title>Node3</title>
<g id="a_node3"><a xlink:href="../../dd/daf/classbackend_1_1_line.html#a69b3c955183e8a73ee8a0170b92f011b" target="_top" xlink:title="backend.Line.convertDouble\lPoint">
<polygon fill="white" stroke="black" points="340,-14 340,-44 492,-44 492,-14 340,-14"/>
<text text-anchor="start" x="348" y="-32" font-family="Helvetica,sans-Serif" font-size="10.00">backend.Line.convertDouble</text>
<text text-anchor="middle" x="416" y="-21" font-family="Helvetica,sans-Serif" font-size="10.00">Point</text>
</a>
</g>
</g>
<!-- Node2&#45;&gt;Node3 -->
<g id="edge2" class="edge"><title>Node2&#45;&gt;Node3</title>
<path fill="none" stroke="midnightblue" d="M301.184,-40.8169C310.575,-39.842 320.299,-38.8324 329.927,-37.8327"/>
<polygon fill="midnightblue" stroke="midnightblue" points="330.324,-41.3104 339.909,-36.7963 329.601,-34.3479 330.324,-41.3104"/>
</g>
<!-- Node4&#45;&gt;Node3 -->
<g id="edge4" class="edge"><title>Node4&#45;&gt;Node3</title>
<path fill="none" stroke="midnightblue" d="M304.064,-17.482C312.547,-18.3628 321.263,-19.2678 329.903,-20.1648"/>
<polygon fill="midnightblue" stroke="midnightblue" points="329.684,-23.6608 339.992,-21.2123 330.407,-16.6983 329.684,-23.6608"/>
</g>
</g>
</svg>
