<?xml version="1.0" encoding="UTF-8" standalone="no"?>
<!DOCTYPE svg PUBLIC "-//W3C//DTD SVG 1.1//EN"
 "http://www.w3.org/Graphics/SVG/1.1/DTD/svg11.dtd">
<!-- Generated by graphviz version 2.36.0 (20140111.2315)
 -->
<!-- Title: backend.Line.convertDoublePoint Pages: 1 -->
<svg width="500pt" height="66pt"
 viewBox="0.00 0.00 500.00 66.00" xmlns="http://www.w3.org/2000/svg" xmlns:xlink="http://www.w3.org/1999/xlink">
<g id="graph0" class="graph" transform="scale(1 1) rotate(0) translate(4 62)">
<title>backend.Line.convertDoublePoint</title>
<polygon fill="white" stroke="none" points="-4,4 -4,-62 496,-62 496,4 -4,4"/>
<!-- Node1 -->
<g id="node1" class="node"><title>Node1</title>
<polygon fill="#bfbfbf" stroke="black" points="0,-14 0,-44 152,-44 152,-14 0,-14"/>
<text text-anchor="start" x="8" y="-32" font-family="Helvetica,sans-Serif" font-size="10.00">backend.Line.convertDouble</text>
<text text-anchor="middle" x="76" y="-21" font-family="Helvetica,sans-Serif" font-size="10.00">Point</text>
</g>
<!-- Node2 -->
<g id="node2" class="node"><title>Node2</title>
<g id="a_node2"><a xlink:href="../../dd/daf/classbackend_1_1_line.html#a4273bee0cc41d1a84ee16fc5fb650dd2" target="_top" xlink:title="backend.Line.getEndPoint">
<polygon fill="white" stroke="black" points="191,-38.5 191,-57.5 331,-57.5 331,-38.5 191,-38.5"/>
<text text-anchor="middle" x="261" y="-45.5" font-family="Helvetica,sans-Serif" font-size="10.00">backend.Line.getEndPoint</text>
</a>
</g>
</g>
<!-- Node1&#45;&gt;Node2 -->
<g id="edge1" class="edge"><title>Node1&#45;&gt;Node2</title>
<path fill="none" stroke="midnightblue" d="M162.207,-37.8466C171.835,-38.8463 181.557,-39.8557 190.943,-40.8301"/>
<polygon fill="midnightblue" stroke="midnightblue" points="162.533,-34.3618 152.225,-36.8103 161.81,-41.3244 162.533,-34.3618"/>
</g>
<!-- Node4 -->
<g id="node4" class="node"><title>Node4</title>
<g id="a_node4"><a xlink:href="../../dd/daf/classbackend_1_1_line.html#ab6248223d5980c0734315b28a989249b" target="_top" xlink:title="backend.Line.getStartPoint">
<polygon fill="white" stroke="black" points="188,-0.5 188,-19.5 334,-19.5 334,-0.5 188,-0.5"/>
<text text-anchor="middle" x="261" y="-7.5" font-family="Helvetica,sans-Serif" font-size="10.00">backend.Line.getStartPoint</text>
</a>
</g>
</g>
<!-- Node1&#45;&gt;Node4 -->
<g id="edge3" class="edge"><title>Node1&#45;&gt;Node4</title>
<path fill="none" stroke="midnightblue" d="M162.193,-20.1548C170.728,-19.2686 179.337,-18.3748 187.72,-17.5045"/>
<polygon fill="midnightblue" stroke="midnightblue" points="161.81,-16.6756 152.225,-21.1897 162.533,-23.6382 161.81,-16.6756"/>
</g>
<!-- Node3 -->
<g id="node3" class="node"><title>Node3</title>
<g id="a_node3"><a xlink:href="../../dd/daf/classbackend_1_1_line.html#a54be7646b78a7c830a9d194beaac41c8" target="_top" xlink:title="backend.Line.toString">
<polygon fill="white" stroke="black" points="370.5,-19.5 370.5,-38.5 491.5,-38.5 491.5,-19.5 370.5,-19.5"/>
<text text-anchor="middle" x="431" y="-26.5" font-family="Helvetica,sans-Serif" font-size="10.00">backend.Line.toString</text>
</a>
</g>
</g>
<!-- Node2&#45;&gt;Node3 -->
<g id="edge2" class="edge"><title>Node2&#45;&gt;Node3</title>
<path fill="none" stroke="midnightblue" d="M341.372,-39.0234C351.086,-37.9248 360.882,-36.8169 370.239,-35.7587"/>
<polygon fill="midnightblue" stroke="midnightblue" points="340.845,-35.5606 331.302,-40.1623 341.632,-42.5162 340.845,-35.5606"/>
</g>
<!-- Node4&#45;&gt;Node3 -->
<g id="edge4" class="edge"><title>Node4&#45;&gt;Node3</title>
<path fill="none" stroke="midnightblue" d="M344.197,-19.2961C353.061,-20.2986 361.952,-21.304 370.474,-22.2679"/>
<polygon fill="midnightblue" stroke="midnightblue" points="344.552,-15.814 334.222,-18.168 343.765,-22.7697 344.552,-15.814"/>
</g>
</g>
</svg>
