<?xml version="1.0" encoding="UTF-8" standalone="no"?>
<!DOCTYPE svg PUBLIC "-//W3C//DTD SVG 1.1//EN"
 "http://www.w3.org/Graphics/SVG/1.1/DTD/svg11.dtd">
<!-- Generated by graphviz version 2.36.0 (20140111.2315)
 -->
<!-- Title: backend.command.Command.toString Pages: 1 -->
<svg width="1092pt" height="160pt"
 viewBox="0.00 0.00 1092.00 160.00" xmlns="http://www.w3.org/2000/svg" xmlns:xlink="http://www.w3.org/1999/xlink">
<g id="graph0" class="graph" transform="scale(1 1) rotate(0) translate(4 156)">
<title>backend.command.Command.toString</title>
<polygon fill="white" stroke="none" points="-4,4 -4,-156 1088,-156 1088,4 -4,4"/>
<!-- Node1 -->
<g id="node1" class="node"><title>Node1</title>
<polygon fill="#bfbfbf" stroke="black" points="0.5,-73 0.5,-103 175.5,-103 175.5,-73 0.5,-73"/>
<text text-anchor="start" x="8.5" y="-91" font-family="Helvetica,sans-Serif" font-size="10.00">backend.command.Command.to</text>
<text text-anchor="middle" x="88" y="-80" font-family="Helvetica,sans-Serif" font-size="10.00">String</text>
</g>
<!-- Node2 -->
<g id="node2" class="node"><title>Node2</title>
<g id="a_node2"><a xlink:href="../../dc/d83/classbackend_1_1command_1_1_command.html#adef74f459d3bbcfa50bf4425f5edd45e" target="_top" xlink:title="backend.command.Command.inter\lParamFormatString">
<polygon fill="white" stroke="black" points="212.5,-122 212.5,-152 399.5,-152 399.5,-122 212.5,-122"/>
<text text-anchor="start" x="220.5" y="-140" font-family="Helvetica,sans-Serif" font-size="10.00">backend.command.Command.inter</text>
<text text-anchor="middle" x="306" y="-129" font-family="Helvetica,sans-Serif" font-size="10.00">ParamFormatString</text>
</a>
</g>
</g>
<!-- Node1&#45;&gt;Node2 -->
<g id="edge1" class="edge"><title>Node1&#45;&gt;Node2</title>
<path fill="none" stroke="midnightblue" d="M155.275,-103.035C178.6,-108.326 204.993,-114.313 229.053,-119.771"/>
<polygon fill="midnightblue" stroke="midnightblue" points="228.324,-123.195 238.85,-121.994 229.872,-116.368 228.324,-123.195"/>
</g>
<!-- Node3 -->
<g id="node3" class="node"><title>Node3</title>
<g id="a_node3"><a xlink:href="../../dc/d83/classbackend_1_1command_1_1_command.html#a937549f239caf83cdbbee36b74d29981" target="_top" xlink:title="backend.command.Command.post\lParamsFormatString">
<polygon fill="white" stroke="black" points="213,-73 213,-103 399,-103 399,-73 213,-73"/>
<text text-anchor="start" x="221" y="-91" font-family="Helvetica,sans-Serif" font-size="10.00">backend.command.Command.post</text>
<text text-anchor="middle" x="306" y="-80" font-family="Helvetica,sans-Serif" font-size="10.00">ParamsFormatString</text>
</a>
</g>
</g>
<!-- Node1&#45;&gt;Node3 -->
<g id="edge2" class="edge"><title>Node1&#45;&gt;Node3</title>
<path fill="none" stroke="midnightblue" d="M175.611,-88C184.48,-88 193.549,-88 202.566,-88"/>
<polygon fill="midnightblue" stroke="midnightblue" points="202.711,-91.5001 212.711,-88 202.711,-84.5001 202.711,-91.5001"/>
</g>
<!-- Node4 -->
<g id="node4" class="node"><title>Node4</title>
<g id="a_node4"><a xlink:href="../../dc/d83/classbackend_1_1command_1_1_command.html#a76e855bf634004f877b68a2cdadc256f" target="_top" xlink:title="backend.command.Command.pre\lParamsFormatString">
<polygon fill="white" stroke="black" points="215.5,-24 215.5,-54 396.5,-54 396.5,-24 215.5,-24"/>
<text text-anchor="start" x="223.5" y="-42" font-family="Helvetica,sans-Serif" font-size="10.00">backend.command.Command.pre</text>
<text text-anchor="middle" x="306" y="-31" font-family="Helvetica,sans-Serif" font-size="10.00">ParamsFormatString</text>
</a>
</g>
</g>
<!-- Node1&#45;&gt;Node4 -->
<g id="edge3" class="edge"><title>Node1&#45;&gt;Node4</title>
<path fill="none" stroke="midnightblue" d="M155.275,-72.9654C178.6,-67.6741 204.993,-61.6867 229.053,-56.2288"/>
<polygon fill="midnightblue" stroke="midnightblue" points="229.872,-59.6318 238.85,-54.0062 228.324,-52.8053 229.872,-59.6318"/>
</g>
<!-- Node5 -->
<g id="node5" class="node"><title>Node5</title>
<g id="a_node5"><a xlink:href="../../dc/d83/classbackend_1_1command_1_1_command.html#a30ab16925e876eb02790426a494a0516" target="_top" xlink:title="backend.command.Command.get\lTypedString">
<polygon fill="white" stroke="black" points="443.5,-49 443.5,-79 624.5,-79 624.5,-49 443.5,-49"/>
<text text-anchor="start" x="451.5" y="-67" font-family="Helvetica,sans-Serif" font-size="10.00">backend.command.Command.get</text>
<text text-anchor="middle" x="534" y="-56" font-family="Helvetica,sans-Serif" font-size="10.00">TypedString</text>
</a>
</g>
</g>
<!-- Node4&#45;&gt;Node5 -->
<g id="edge4" class="edge"><title>Node4&#45;&gt;Node5</title>
<path fill="none" stroke="midnightblue" d="M396.646,-48.9166C408.681,-50.2479 421.085,-51.6201 433.281,-52.9691"/>
<polygon fill="midnightblue" stroke="midnightblue" points="433.138,-56.4746 443.463,-54.0954 433.908,-49.5171 433.138,-56.4746"/>
</g>
<!-- Node7 -->
<g id="node7" class="node"><title>Node7</title>
<g id="a_node7"><a xlink:href="../../dc/d83/classbackend_1_1command_1_1_command.html#ae6daac55e32c39adcf91e40d0ae80d19" target="_top" xlink:title="backend.command.Command.indent\lString">
<polygon fill="white" stroke="black" points="436.5,-0 436.5,-30 631.5,-30 631.5,-0 436.5,-0"/>
<text text-anchor="start" x="444.5" y="-18" font-family="Helvetica,sans-Serif" font-size="10.00">backend.command.Command.indent</text>
<text text-anchor="middle" x="534" y="-7" font-family="Helvetica,sans-Serif" font-size="10.00">String</text>
</a>
</g>
</g>
<!-- Node4&#45;&gt;Node7 -->
<g id="edge6" class="edge"><title>Node4&#45;&gt;Node7</title>
<path fill="none" stroke="midnightblue" d="M396.646,-29.4801C406.341,-28.4505 416.276,-27.3954 426.149,-26.347"/>
<polygon fill="midnightblue" stroke="midnightblue" points="426.827,-29.7948 436.401,-25.2582 426.088,-22.8339 426.827,-29.7948"/>
</g>
<!-- Node6 -->
<g id="node6" class="node"><title>Node6</title>
<g id="a_node6"><a xlink:href="../../d0/d6a/classbackend_1_1_string_pair.html#a453e5442c32c1bd7df15dc48f2da4624" target="_top" xlink:title="backend.StringPair.getValue">
<polygon fill="white" stroke="black" points="692,-54.5 692,-73.5 842,-73.5 842,-54.5 692,-54.5"/>
<text text-anchor="middle" x="767" y="-61.5" font-family="Helvetica,sans-Serif" font-size="10.00">backend.StringPair.getValue</text>
</a>
</g>
</g>
<!-- Node5&#45;&gt;Node6 -->
<g id="edge5" class="edge"><title>Node5&#45;&gt;Node6</title>
<path fill="none" stroke="midnightblue" d="M624.641,-64C643.367,-64 663.049,-64 681.578,-64"/>
<polygon fill="midnightblue" stroke="midnightblue" points="681.74,-67.5001 691.74,-64 681.74,-60.5001 681.74,-67.5001"/>
</g>
<!-- Node8 -->
<g id="node8" class="node"><title>Node8</title>
<g id="a_node8"><a xlink:href="../../dc/d83/classbackend_1_1command_1_1_command.html#ae4958d8f2f7acc24eba656f35be19a84" target="_top" xlink:title="backend.command.Command.parent\lIsList">
<polygon fill="white" stroke="black" points="668.5,-0 668.5,-30 865.5,-30 865.5,-0 668.5,-0"/>
<text text-anchor="start" x="676.5" y="-18" font-family="Helvetica,sans-Serif" font-size="10.00">backend.command.Command.parent</text>
<text text-anchor="middle" x="767" y="-7" font-family="Helvetica,sans-Serif" font-size="10.00">IsList</text>
</a>
</g>
</g>
<!-- Node7&#45;&gt;Node8 -->
<g id="edge7" class="edge"><title>Node7&#45;&gt;Node8</title>
<path fill="none" stroke="midnightblue" d="M631.626,-15C640.429,-15 649.383,-15 658.274,-15"/>
<polygon fill="midnightblue" stroke="midnightblue" points="658.276,-18.5001 668.276,-15 658.276,-11.5001 658.276,-18.5001"/>
</g>
<!-- Node9 -->
<g id="node9" class="node"><title>Node9</title>
<g id="a_node9"><a xlink:href="../../dc/d83/classbackend_1_1command_1_1_command.html#ac25177ccf23f2721bbe77b69a31c1bf7" target="_top" xlink:title="backend.command.Command.has\lParent">
<polygon fill="white" stroke="black" points="902,-0 902,-30 1084,-30 1084,-0 902,-0"/>
<text text-anchor="start" x="910" y="-18" font-family="Helvetica,sans-Serif" font-size="10.00">backend.command.Command.has</text>
<text text-anchor="middle" x="993" y="-7" font-family="Helvetica,sans-Serif" font-size="10.00">Parent</text>
</a>
</g>
</g>
<!-- Node8&#45;&gt;Node9 -->
<g id="edge8" class="edge"><title>Node8&#45;&gt;Node9</title>
<path fill="none" stroke="midnightblue" d="M865.598,-15C874.241,-15 883.001,-15 891.667,-15"/>
<polygon fill="midnightblue" stroke="midnightblue" points="891.783,-18.5001 901.783,-15 891.783,-11.5001 891.783,-18.5001"/>
</g>
</g>
</svg>
