<?xml version="1.0" encoding="UTF-8" standalone="no"?>
<!DOCTYPE svg PUBLIC "-//W3C//DTD SVG 1.1//EN"
 "http://www.w3.org/Graphics/SVG/1.1/DTD/svg11.dtd">
<!-- Generated by graphviz version 2.36.0 (20140111.2315)
 -->
<!-- Title: backend.command.Command.getParam Pages: 1 -->
<!--zoomable 521 -->
<svg id="main" version="1.1" xmlns="http://www.w3.org/2000/svg" xmlns:xlink="http://www.w3.org/1999/xlink" xml:space="preserve" onload="init(evt)">
<style type="text/css"><![CDATA[
.edge:hover path { stroke: red; }
.edge:hover polygon { stroke: red; fill: red; }
]]></style>
<script type="text/javascript"><![CDATA[
var edges = document.getElementsByTagName('g');
if (edges && edges.length) {
  for (var i=0;i<edges.length;i++) {
    if (edges[i].id.substr(0,4)=='edge') {
      edges[i].setAttribute('class','edge');
    }
  }
}
]]></script>
        <defs>
                <circle id="rim" cx="0" cy="0" r="7"/>
                <circle id="rim2" cx="0" cy="0" r="3.5"/>
                <g id="zoomPlus">
                        <use xlink:href="#rim" fill="#404040">
                                <set attributeName="fill" to="#808080" begin="zoomplus.mouseover" end="zoomplus.mouseout"/>
                        </use>
                        <path d="M-4,0h8M0,-4v8" fill="none" stroke="white" stroke-width="1.5" pointer-events="none"/>
                </g>
                <g id="zoomMin">
                        <use xlink:href="#rim" fill="#404040">
                                <set attributeName="fill" to="#808080" begin="zoomminus.mouseover" end="zoomminus.mouseout"/>
                        </use>
                        <path d="M-4,0h8" fill="none" stroke="white" stroke-width="1.5" pointer-events="none"/>
                </g>
                <g id="dirArrow">
                        <path fill="none" stroke="white" stroke-width="1.5" d="M0,-3.0v7 M-2.5,-0.5L0,-3.0L2.5,-0.5"/>
                </g>
               <g id="resetDef">
                       <use xlink:href="#rim2" fill="#404040">
                               <set attributeName="fill" to="#808080" begin="reset.mouseover" end="reset.mouseout"/>
                       </use>
               </g>
        </defs>

<script type="text/javascript">
var viewWidth = 1104;
var viewHeight = 521;
var sectionId = 'dynsection-6';
</script>
<script xlink:href="../../svgpan.js"/>
<svg id="graph" class="graph">
<g id="viewport">
<title>backend.command.Command.getParam</title>
<polygon fill="white" stroke="none" points="-4,4 -4,-517 1100,-517 1100,4 -4,4"/>
<!-- Node1 -->
<g id="node1" class="node"><title>Node1</title>
<polygon fill="#bfbfbf" stroke="black" points="0.5,-249 0.5,-279 181.5,-279 181.5,-249 0.5,-249"/>
<text text-anchor="start" x="8.5" y="-267" font-family="Helvetica,sans-Serif" font-size="10.00">backend.command.Command.get</text>
<text text-anchor="middle" x="91" y="-256" font-family="Helvetica,sans-Serif" font-size="10.00">Param</text>
</g>
<!-- Node2 -->
<g id="node2" class="node"><title>Node2</title>
<g id="a_node2"><a xlink:href="../../d0/d1f/classbackend_1_1command_1_1_make_user_instruction.html#a7e3e6ee2e96187d9bbbcef435311b39c" target="_top" xlink:title="backend.command.MakeUser\lInstruction.addToInstrList">
<polygon fill="white" stroke="black" points="231,-483 231,-513 391,-513 391,-483 231,-483"/>
<text text-anchor="start" x="239" y="-501" font-family="Helvetica,sans-Serif" font-size="10.00">backend.command.MakeUser</text>
<text text-anchor="middle" x="311" y="-490" font-family="Helvetica,sans-Serif" font-size="10.00">Instruction.addToInstrList</text>
</a>
</g>
</g>
<!-- Node1&#45;&gt;Node2 -->
<g id="edge1" class="edge"><title>Node1&#45;&gt;Node2</title>
<path fill="none" stroke="midnightblue" d="M100.685,-288.665C116.982,-331.424 156.18,-419.388 218,-468 225.792,-474.127 234.878,-479.023 244.25,-482.931"/>
<polygon fill="midnightblue" stroke="midnightblue" points="103.881,-287.216 97.1216,-279.057 97.3181,-289.65 103.881,-287.216"/>
</g>
<!-- Node4 -->
<g id="node4" class="node"><title>Node4</title>
<g id="a_node4"><a xlink:href="../../de/d1a/classbackend_1_1command_1_1_for.html#ad30392f9d7ec36ad35d6306ea4eba72f" target="_top" xlink:title="backend.command.For.countVar">
<polygon fill="white" stroke="black" points="468,-254.5 468,-273.5 640,-273.5 640,-254.5 468,-254.5"/>
<text text-anchor="middle" x="554" y="-261.5" font-family="Helvetica,sans-Serif" font-size="10.00">backend.command.For.countVar</text>
</a>
</g>
</g>
<!-- Node1&#45;&gt;Node4 -->
<g id="edge3" class="edge"><title>Node1&#45;&gt;Node4</title>
<path fill="none" stroke="midnightblue" d="M140.608,-282.294C163.695,-290.038 191.893,-298.149 218,-302 299.782,-314.064 323.758,-321.876 404,-302 421.561,-297.65 422.862,-288.796 440,-283 451.495,-279.113 463.929,-275.999 476.2,-273.511"/>
<polygon fill="midnightblue" stroke="midnightblue" points="141.642,-278.949 131.047,-279.012 139.369,-285.569 141.642,-278.949"/>
</g>
<!-- Node6 -->
<g id="node6" class="node"><title>Node6</title>
<g id="a_node6"><a xlink:href="../../d4/d8c/classbackend_1_1command_1_1_if.html#a5feaa2d45b60bb72385674a56001c13d" target="_top" xlink:title="backend.command.If.execute">
<polygon fill="white" stroke="black" points="232,-273.5 232,-292.5 390,-292.5 390,-273.5 232,-273.5"/>
<text text-anchor="middle" x="311" y="-280.5" font-family="Helvetica,sans-Serif" font-size="10.00">backend.command.If.execute</text>
</a>
</g>
</g>
<!-- Node1&#45;&gt;Node6 -->
<g id="edge5" class="edge"><title>Node1&#45;&gt;Node6</title>
<path fill="none" stroke="midnightblue" d="M191.838,-272.702C205.276,-273.873 218.901,-275.06 231.888,-276.192"/>
<polygon fill="midnightblue" stroke="midnightblue" points="191.879,-269.192 181.613,-271.81 191.271,-276.165 191.879,-269.192"/>
</g>
<!-- Node7 -->
<g id="node7" class="node"><title>Node7</title>
<g id="a_node7"><a xlink:href="../../d9/d0a/classbackend_1_1command_1_1_if_else.html#a3f8e3050441159f5f319f70c0feece20" target="_top" xlink:title="backend.command.IfElse.execute">
<polygon fill="white" stroke="black" points="222,-235.5 222,-254.5 400,-254.5 400,-235.5 222,-235.5"/>
<text text-anchor="middle" x="311" y="-242.5" font-family="Helvetica,sans-Serif" font-size="10.00">backend.command.IfElse.execute</text>
</a>
</g>
</g>
<!-- Node1&#45;&gt;Node7 -->
<g id="edge6" class="edge"><title>Node1&#45;&gt;Node7</title>
<path fill="none" stroke="midnightblue" d="M191.627,-255.317C201.69,-254.44 211.86,-253.554 221.791,-252.688"/>
<polygon fill="midnightblue" stroke="midnightblue" points="191.271,-251.835 181.613,-256.19 191.879,-258.808 191.271,-251.835"/>
</g>
<!-- Node8 -->
<g id="node8" class="node"><title>Node8</title>
<g id="a_node8"><a xlink:href="../../de/d1a/classbackend_1_1command_1_1_for.html#ab76f75506018a6dc4787ded9ba77212a" target="_top" xlink:title="backend.command.For.forLoop">
<polygon fill="white" stroke="black" points="706.5,-444.5 706.5,-463.5 871.5,-463.5 871.5,-444.5 706.5,-444.5"/>
<text text-anchor="middle" x="789" y="-451.5" font-family="Helvetica,sans-Serif" font-size="10.00">backend.command.For.forLoop</text>
</a>
</g>
</g>
<!-- Node1&#45;&gt;Node8 -->
<g id="edge7" class="edge"><title>Node1&#45;&gt;Node8</title>
<path fill="none" stroke="midnightblue" d="M111.024,-286.906C133.807,-312.849 174.394,-354.551 218,-378 374.95,-462.399 590.151,-466.051 706.064,-460.526"/>
<polygon fill="midnightblue" stroke="midnightblue" points="113.454,-284.365 104.271,-279.08 108.154,-288.938 113.454,-284.365"/>
</g>
<!-- Node10 -->
<g id="node10" class="node"><title>Node10</title>
<g id="a_node10"><a xlink:href="../../de/d1a/classbackend_1_1command_1_1_for.html#abf257ca6f2249bf7a47998beec1ac0cc" target="_top" xlink:title="backend.command.For.forVarList">
<polygon fill="white" stroke="black" points="224,-349.5 224,-368.5 398,-368.5 398,-349.5 224,-349.5"/>
<text text-anchor="middle" x="311" y="-356.5" font-family="Helvetica,sans-Serif" font-size="10.00">backend.command.For.forVarList</text>
</a>
</g>
</g>
<!-- Node1&#45;&gt;Node10 -->
<g id="edge10" class="edge"><title>Node1&#45;&gt;Node10</title>
<path fill="none" stroke="midnightblue" d="M123.397,-284.718C148.221,-300.34 184.206,-321.339 218,-335 232.538,-340.877 248.956,-345.697 263.856,-349.436"/>
<polygon fill="midnightblue" stroke="midnightblue" points="125.096,-281.65 114.781,-279.229 121.335,-287.554 125.096,-281.65"/>
</g>
<!-- Node15 -->
<g id="node15" class="node"><title>Node15</title>
<g id="a_node15"><a xlink:href="../../d4/d4b/classbackend_1_1command_1_1_user_instruction_retriever.html#ab3f52c78c36f90b0e945239a316d6ecb" target="_top" xlink:title="backend.command.UserInstruction\lRetriever.genVariables">
<polygon fill="white" stroke="black" points="218.5,-186 218.5,-216 403.5,-216 403.5,-186 218.5,-186"/>
<text text-anchor="start" x="226.5" y="-204" font-family="Helvetica,sans-Serif" font-size="10.00">backend.command.UserInstruction</text>
<text text-anchor="middle" x="311" y="-193" font-family="Helvetica,sans-Serif" font-size="10.00">Retriever.genVariables</text>
</a>
</g>
</g>
<!-- Node1&#45;&gt;Node15 -->
<g id="edge21" class="edge"><title>Node1&#45;&gt;Node15</title>
<path fill="none" stroke="midnightblue" d="M150.512,-245.988C171.73,-239.552 195.91,-232.331 218,-226 229.456,-222.717 241.745,-219.303 253.493,-216.091"/>
<polygon fill="midnightblue" stroke="midnightblue" points="149.222,-242.721 140.673,-248.979 151.259,-249.419 149.222,-242.721"/>
</g>
<!-- Node17 -->
<g id="node17" class="node"><title>Node17</title>
<g id="a_node17"><a xlink:href="../../dc/d83/classbackend_1_1command_1_1_command.html#ac343ff42d0802c4f446068031119106d" target="_top" xlink:title="backend.command.Command.get\lParam">
<polygon fill="white" stroke="black" points="220.5,-137 220.5,-167 401.5,-167 401.5,-137 220.5,-137"/>
<text text-anchor="start" x="228.5" y="-155" font-family="Helvetica,sans-Serif" font-size="10.00">backend.command.Command.get</text>
<text text-anchor="middle" x="311" y="-144" font-family="Helvetica,sans-Serif" font-size="10.00">Param</text>
</a>
</g>
</g>
<!-- Node1&#45;&gt;Node17 -->
<g id="edge23" class="edge"><title>Node1&#45;&gt;Node17</title>
<path fill="none" stroke="midnightblue" d="M117.523,-242.058C141.86,-222.175 180.293,-193.404 218,-176 225.344,-172.61 233.247,-169.639 241.226,-167.05"/>
<polygon fill="midnightblue" stroke="midnightblue" points="114.991,-239.61 109.526,-248.686 119.459,-244.999 114.991,-239.61"/>
</g>
<!-- Node18 -->
<g id="node18" class="node"><title>Node18</title>
<g id="a_node18"><a xlink:href="../../dc/d83/classbackend_1_1command_1_1_command.html#a7e08258fd275e150b04b6a7745f5d6c9" target="_top" xlink:title="backend.command.Command.get\lParamReturnVal">
<polygon fill="white" stroke="black" points="220.5,-88 220.5,-118 401.5,-118 401.5,-88 220.5,-88"/>
<text text-anchor="start" x="228.5" y="-106" font-family="Helvetica,sans-Serif" font-size="10.00">backend.command.Command.get</text>
<text text-anchor="middle" x="311" y="-95" font-family="Helvetica,sans-Serif" font-size="10.00">ParamReturnVal</text>
</a>
</g>
</g>
<!-- Node1&#45;&gt;Node18 -->
<g id="edge24" class="edge"><title>Node1&#45;&gt;Node18</title>
<path fill="none" stroke="midnightblue" d="M107.394,-240.15C128.566,-209.303 169.6,-156.091 218,-127 223.659,-123.599 229.796,-120.674 236.123,-118.161"/>
<polygon fill="midnightblue" stroke="midnightblue" points="104.396,-238.336 101.717,-248.587 110.203,-242.244 104.396,-238.336"/>
</g>
<!-- Node22 -->
<g id="node22" class="node"><title>Node22</title>
<g id="a_node22"><a xlink:href="../../d4/d68/classbackend_1_1command_1_1_specified_turtle_command.html#ab25fb774fe75fbb22c36d33876d0abeb" target="_top" xlink:title="backend.command.Specified\lTurtleCommand.paramTurtleIds">
<polygon fill="white" stroke="black" points="228,-27 228,-57 394,-57 394,-27 228,-27"/>
<text text-anchor="start" x="236" y="-45" font-family="Helvetica,sans-Serif" font-size="10.00">backend.command.Specified</text>
<text text-anchor="middle" x="311" y="-34" font-family="Helvetica,sans-Serif" font-size="10.00">TurtleCommand.paramTurtleIds</text>
</a>
</g>
</g>
<!-- Node1&#45;&gt;Node22 -->
<g id="edge28" class="edge"><title>Node1&#45;&gt;Node22</title>
<path fill="none" stroke="midnightblue" d="M102.584,-239.641C120.771,-200.424 161.519,-123.133 218,-78 228.987,-69.2202 242.375,-62.3714 255.498,-57.1173"/>
<polygon fill="midnightblue" stroke="midnightblue" points="99.2961,-238.418 98.3524,-248.97 105.671,-241.309 99.2961,-238.418"/>
</g>
<!-- Node3 -->
<g id="node3" class="node"><title>Node3</title>
<g id="a_node3"><a xlink:href="../../d0/d1f/classbackend_1_1command_1_1_make_user_instruction.html#a1e05c622cac9efddd5628bef0a9c6de9" target="_top" xlink:title="backend.command.MakeUser\lInstruction.setParam">
<polygon fill="white" stroke="black" points="474,-483 474,-513 634,-513 634,-483 474,-483"/>
<text text-anchor="start" x="482" y="-501" font-family="Helvetica,sans-Serif" font-size="10.00">backend.command.MakeUser</text>
<text text-anchor="middle" x="554" y="-490" font-family="Helvetica,sans-Serif" font-size="10.00">Instruction.setParam</text>
</a>
</g>
</g>
<!-- Node2&#45;&gt;Node3 -->
<g id="edge2" class="edge"><title>Node2&#45;&gt;Node3</title>
<path fill="none" stroke="midnightblue" d="M401.305,-498C425.052,-498 450.535,-498 473.706,-498"/>
<polygon fill="midnightblue" stroke="midnightblue" points="401.246,-494.5 391.246,-498 401.246,-501.5 401.246,-494.5"/>
</g>
<!-- Node5 -->
<g id="node5" class="node"><title>Node5</title>
<g id="a_node5"><a xlink:href="../../de/d1a/classbackend_1_1command_1_1_for.html#a49269498727ff3b774f81d3203262ea7" target="_top" xlink:title="backend.command.For.execute">
<polygon fill="white" stroke="black" points="919.5,-368.5 919.5,-387.5 1086.5,-387.5 1086.5,-368.5 919.5,-368.5"/>
<text text-anchor="middle" x="1003" y="-375.5" font-family="Helvetica,sans-Serif" font-size="10.00">backend.command.For.execute</text>
</a>
</g>
</g>
<!-- Node4&#45;&gt;Node5 -->
<g id="edge4" class="edge"><title>Node4&#45;&gt;Node5</title>
<path fill="none" stroke="midnightblue" d="M622.944,-275.245C637.8,-277.754 653.435,-280.432 668,-283 759.686,-299.164 785.077,-293.426 874,-321 914.893,-333.68 960.058,-355.867 984.293,-368.495"/>
<polygon fill="midnightblue" stroke="midnightblue" points="623.249,-271.747 612.807,-273.539 622.087,-278.65 623.249,-271.747"/>
</g>
<!-- Node8&#45;&gt;Node5 -->
<g id="edge8" class="edge"><title>Node8&#45;&gt;Node5</title>
<path fill="none" stroke="midnightblue" d="M836.304,-441.735C848.637,-438.206 861.894,-434.175 874,-430 912.095,-416.863 955.315,-398.573 980.528,-387.552"/>
<polygon fill="midnightblue" stroke="midnightblue" points="835.33,-438.373 826.652,-444.45 837.226,-445.112 835.33,-438.373"/>
</g>
<!-- Node9 -->
<g id="node9" class="node"><title>Node9</title>
<g id="a_node9"><a xlink:href="../../d0/dca/classbackend_1_1command_1_1_repeat.html#a3dc2bb1a70043d7405283e7263e158ab" target="_top" xlink:title="backend.command.Repeat.execute">
<polygon fill="white" stroke="black" points="910,-444.5 910,-463.5 1096,-463.5 1096,-444.5 910,-444.5"/>
<text text-anchor="middle" x="1003" y="-451.5" font-family="Helvetica,sans-Serif" font-size="10.00">backend.command.Repeat.execute</text>
</a>
</g>
</g>
<!-- Node8&#45;&gt;Node9 -->
<g id="edge9" class="edge"><title>Node8&#45;&gt;Node9</title>
<path fill="none" stroke="midnightblue" d="M881.694,-454C891.007,-454 900.469,-454 909.788,-454"/>
<polygon fill="midnightblue" stroke="midnightblue" points="881.662,-450.5 871.661,-454 881.661,-457.5 881.662,-450.5"/>
</g>
<!-- Node10&#45;&gt;Node4 -->
<g id="edge12" class="edge"><title>Node10&#45;&gt;Node4</title>
<path fill="none" stroke="midnightblue" d="M383.071,-346.04C390.484,-343.085 397.627,-339.456 404,-335 427.036,-318.892 416.273,-298.072 440,-283 448.48,-277.613 458.012,-273.613 467.85,-270.66"/>
<polygon fill="midnightblue" stroke="midnightblue" points="381.812,-342.773 373.573,-349.434 384.168,-349.365 381.812,-342.773"/>
</g>
<!-- Node11 -->
<g id="node11" class="node"><title>Node11</title>
<g id="a_node11"><a xlink:href="../../db/d27/classbackend_1_1command_1_1_do_times.html#a8d10f828a5eaf6cac481123bb93d1946" target="_top" xlink:title="backend.command.DoTimes.end">
<polygon fill="white" stroke="black" points="466.5,-292.5 466.5,-311.5 641.5,-311.5 641.5,-292.5 466.5,-292.5"/>
<text text-anchor="middle" x="554" y="-299.5" font-family="Helvetica,sans-Serif" font-size="10.00">backend.command.DoTimes.end</text>
</a>
</g>
</g>
<!-- Node10&#45;&gt;Node11 -->
<g id="edge11" class="edge"><title>Node10&#45;&gt;Node11</title>
<path fill="none" stroke="midnightblue" d="M358.165,-346.876C388.172,-339.038 424.495,-329.643 440,-326 461.574,-320.93 485.577,-315.766 505.892,-311.533"/>
<polygon fill="midnightblue" stroke="midnightblue" points="357.059,-343.547 348.27,-349.463 358.83,-350.319 357.059,-343.547"/>
</g>
<!-- Node12 -->
<g id="node12" class="node"><title>Node12</title>
<g id="a_node12"><a xlink:href="../../de/d1a/classbackend_1_1command_1_1_for.html#a659c098aec0f5968be646f0fed371577" target="_top" xlink:title="backend.command.For.start">
<polygon fill="white" stroke="black" points="713,-330.5 713,-349.5 865,-349.5 865,-330.5 713,-330.5"/>
<text text-anchor="middle" x="789" y="-337.5" font-family="Helvetica,sans-Serif" font-size="10.00">backend.command.For.start</text>
</a>
</g>
</g>
<!-- Node10&#45;&gt;Node12 -->
<g id="edge13" class="edge"><title>Node10&#45;&gt;Node12</title>
<path fill="none" stroke="midnightblue" d="M408.391,-355.152C498.206,-351.567 630.302,-346.295 712.632,-343.008"/>
<polygon fill="midnightblue" stroke="midnightblue" points="408.052,-351.663 398.2,-355.559 408.332,-358.658 408.052,-351.663"/>
</g>
<!-- Node13 -->
<g id="node13" class="node"><title>Node13</title>
<g id="a_node13"><a xlink:href="../../de/d1a/classbackend_1_1command_1_1_for.html#af670f94af1ef47bb0bf1128faa43b8bd" target="_top" xlink:title="backend.command.For.end">
<polygon fill="white" stroke="black" points="480.5,-406.5 480.5,-425.5 627.5,-425.5 627.5,-406.5 480.5,-406.5"/>
<text text-anchor="middle" x="554" y="-413.5" font-family="Helvetica,sans-Serif" font-size="10.00">backend.command.For.end</text>
</a>
</g>
</g>
<!-- Node10&#45;&gt;Node13 -->
<g id="edge15" class="edge"><title>Node10&#45;&gt;Node13</title>
<path fill="none" stroke="midnightblue" d="M350.035,-371.619C375.327,-379.681 409.397,-389.912 440,-397 455.504,-400.591 472.354,-403.793 488.193,-406.498"/>
<polygon fill="midnightblue" stroke="midnightblue" points="351.048,-368.268 340.456,-368.536 348.903,-374.932 351.048,-368.268"/>
</g>
<!-- Node14 -->
<g id="node14" class="node"><title>Node14</title>
<g id="a_node14"><a xlink:href="../../de/d1a/classbackend_1_1command_1_1_for.html#a1ef90c6eeba84aa760be374aff817eea" target="_top" xlink:title="backend.command.For.increment">
<polygon fill="white" stroke="black" points="465,-368.5 465,-387.5 643,-387.5 643,-368.5 465,-368.5"/>
<text text-anchor="middle" x="554" y="-375.5" font-family="Helvetica,sans-Serif" font-size="10.00">backend.command.For.increment</text>
</a>
</g>
</g>
<!-- Node10&#45;&gt;Node14 -->
<g id="edge18" class="edge"><title>Node10&#45;&gt;Node14</title>
<path fill="none" stroke="midnightblue" d="M408.303,-366.592C426.972,-368.064 446.45,-369.6 464.842,-371.05"/>
<polygon fill="midnightblue" stroke="midnightblue" points="408.57,-363.103 398.326,-365.806 408.02,-370.081 408.57,-363.103"/>
</g>
<!-- Node12&#45;&gt;Node5 -->
<g id="edge14" class="edge"><title>Node12&#45;&gt;Node5</title>
<path fill="none" stroke="midnightblue" d="M853.304,-351.347C883.721,-356.799 919.77,-363.261 948.755,-368.456"/>
<polygon fill="midnightblue" stroke="midnightblue" points="853.684,-347.859 843.223,-349.54 852.448,-354.749 853.684,-347.859"/>
</g>
<!-- Node13&#45;&gt;Node5 -->
<g id="edge16" class="edge"><title>Node13&#45;&gt;Node5</title>
<path fill="none" stroke="midnightblue" d="M637.693,-410.55C702.128,-406.116 793.814,-399.399 874,-392 888.692,-390.644 904.316,-389.057 919.415,-387.448"/>
<polygon fill="midnightblue" stroke="midnightblue" points="637.328,-407.066 627.591,-411.241 637.807,-414.05 637.328,-407.066"/>
</g>
<!-- Node13&#45;&gt;Node8 -->
<g id="edge17" class="edge"><title>Node13&#45;&gt;Node8</title>
<path fill="none" stroke="midnightblue" d="M623.704,-427.205C657.315,-432.687 697.348,-439.215 729.481,-444.456"/>
<polygon fill="midnightblue" stroke="midnightblue" points="623.928,-423.695 613.495,-425.54 622.801,-430.604 623.928,-423.695"/>
</g>
<!-- Node14&#45;&gt;Node5 -->
<g id="edge19" class="edge"><title>Node14&#45;&gt;Node5</title>
<path fill="none" stroke="midnightblue" d="M653.103,-378C732.877,-378 844.16,-378 919.427,-378"/>
<polygon fill="midnightblue" stroke="midnightblue" points="653.046,-374.5 643.046,-378 653.046,-381.5 653.046,-374.5"/>
</g>
<!-- Node14&#45;&gt;Node8 -->
<g id="edge20" class="edge"><title>Node14&#45;&gt;Node8</title>
<path fill="none" stroke="midnightblue" d="M639.612,-389.584C649.279,-391.685 658.916,-394.14 668,-397 706.719,-409.19 748.918,-431.56 771.511,-444.351"/>
<polygon fill="midnightblue" stroke="midnightblue" points="640.048,-386.101 629.549,-387.521 638.642,-392.958 640.048,-386.101"/>
</g>
<!-- Node16 -->
<g id="node16" class="node"><title>Node16</title>
<g id="a_node16"><a xlink:href="../../d4/d4b/classbackend_1_1command_1_1_user_instruction_retriever.html#ad63b2a8c91a5c60e4157a89830a3e6ef" target="_top" xlink:title="backend.command.UserInstruction\lRetriever.execute">
<polygon fill="white" stroke="black" points="461.5,-186 461.5,-216 646.5,-216 646.5,-186 461.5,-186"/>
<text text-anchor="start" x="469.5" y="-204" font-family="Helvetica,sans-Serif" font-size="10.00">backend.command.UserInstruction</text>
<text text-anchor="middle" x="554" y="-193" font-family="Helvetica,sans-Serif" font-size="10.00">Retriever.execute</text>
</a>
</g>
</g>
<!-- Node15&#45;&gt;Node16 -->
<g id="edge22" class="edge"><title>Node15&#45;&gt;Node16</title>
<path fill="none" stroke="midnightblue" d="M414.067,-201C429.803,-201 445.969,-201 461.456,-201"/>
<polygon fill="midnightblue" stroke="midnightblue" points="413.799,-197.5 403.799,-201 413.799,-204.5 413.799,-197.5"/>
</g>
<!-- Node19 -->
<g id="node19" class="node"><title>Node19</title>
<g id="a_node19"><a xlink:href="../../de/d47/classbackend_1_1command_1_1_set_background.html#a32cf6de8fa8a7b154fa1124e2efb6c5c" target="_top" xlink:title="backend.command.SetBackground.execute">
<polygon fill="white" stroke="black" points="440.5,-139.5 440.5,-158.5 667.5,-158.5 667.5,-139.5 440.5,-139.5"/>
<text text-anchor="middle" x="554" y="-146.5" font-family="Helvetica,sans-Serif" font-size="10.00">backend.command.SetBackground.execute</text>
</a>
</g>
</g>
<!-- Node18&#45;&gt;Node19 -->
<g id="edge25" class="edge"><title>Node18&#45;&gt;Node19</title>
<path fill="none" stroke="midnightblue" d="M390.671,-120.129C406.955,-123.524 424.016,-126.972 440,-130 457.298,-133.277 476.141,-136.559 493.393,-139.451"/>
<polygon fill="midnightblue" stroke="midnightblue" points="391.155,-116.654 380.649,-118.026 389.717,-123.505 391.155,-116.654"/>
</g>
<!-- Node20 -->
<g id="node20" class="node"><title>Node20</title>
<g id="a_node20"><a xlink:href="../../df/df8/classbackend_1_1command_1_1_set_pen_color.html#ae59f12abe2013dd21d4090d7c94c669d" target="_top" xlink:title="backend.command.SetPenColor.execute">
<polygon fill="white" stroke="black" points="448,-101.5 448,-120.5 660,-120.5 660,-101.5 448,-101.5"/>
<text text-anchor="middle" x="554" y="-108.5" font-family="Helvetica,sans-Serif" font-size="10.00">backend.command.SetPenColor.execute</text>
</a>
</g>
</g>
<!-- Node18&#45;&gt;Node20 -->
<g id="edge26" class="edge"><title>Node18&#45;&gt;Node20</title>
<path fill="none" stroke="midnightblue" d="M412.02,-106.32C423.811,-106.712 435.872,-107.112 447.732,-107.506"/>
<polygon fill="midnightblue" stroke="midnightblue" points="411.85,-102.813 401.74,-105.979 411.618,-109.809 411.85,-102.813"/>
</g>
<!-- Node21 -->
<g id="node21" class="node"><title>Node21</title>
<g id="a_node21"><a xlink:href="../../d5/dfe/classbackend_1_1command_1_1_set_shape.html#a45d3d7dfe3b3b7853d1818c84bf29be2" target="_top" xlink:title="backend.command.SetShape.execute">
<polygon fill="white" stroke="black" points="454,-63.5 454,-82.5 654,-82.5 654,-63.5 454,-63.5"/>
<text text-anchor="middle" x="554" y="-70.5" font-family="Helvetica,sans-Serif" font-size="10.00">backend.command.SetShape.execute</text>
</a>
</g>
</g>
<!-- Node18&#45;&gt;Node21 -->
<g id="edge27" class="edge"><title>Node18&#45;&gt;Node21</title>
<path fill="none" stroke="midnightblue" d="M411.931,-90.5605C433.549,-87.8694 456.078,-85.0649 476.622,-82.5076"/>
<polygon fill="midnightblue" stroke="midnightblue" points="411.231,-87.1205 401.74,-91.8291 412.095,-94.0669 411.231,-87.1205"/>
</g>
<!-- Node23 -->
<g id="node23" class="node"><title>Node23</title>
<g id="a_node23"><a xlink:href="../../d4/d68/classbackend_1_1command_1_1_specified_turtle_command.html#abd0266fe718a56aae9fd137321772c0c" target="_top" xlink:title="backend.command.Specified\lTurtleCommand.specifiedTurtles">
<polygon fill="white" stroke="black" points="470,-14 470,-44 638,-44 638,-14 470,-14"/>
<text text-anchor="start" x="478" y="-32" font-family="Helvetica,sans-Serif" font-size="10.00">backend.command.Specified</text>
<text text-anchor="middle" x="554" y="-21" font-family="Helvetica,sans-Serif" font-size="10.00">TurtleCommand.specifiedTurtles</text>
</a>
</g>
</g>
<!-- Node22&#45;&gt;Node23 -->
<g id="edge29" class="edge"><title>Node22&#45;&gt;Node23</title>
<path fill="none" stroke="midnightblue" d="M404.395,-37.016C425.943,-35.8537 448.76,-34.6229 469.878,-33.4837"/>
<polygon fill="midnightblue" stroke="midnightblue" points="404.061,-33.5288 394.264,-37.5625 404.439,-40.5187 404.061,-33.5288"/>
</g>
<!-- Node24 -->
<g id="node24" class="node"><title>Node24</title>
<g id="a_node24"><a xlink:href="../../d4/d75/classbackend_1_1command_1_1_ask.html#a453b95a58b91a82a2cca53f444a31ff6" target="_top" xlink:title="backend.command.Ask.execute">
<polygon fill="white" stroke="black" points="704,-0.5 704,-19.5 874,-19.5 874,-0.5 704,-0.5"/>
<text text-anchor="middle" x="789" y="-7.5" font-family="Helvetica,sans-Serif" font-size="10.00">backend.command.Ask.execute</text>
</a>
</g>
</g>
<!-- Node23&#45;&gt;Node24 -->
<g id="edge30" class="edge"><title>Node23&#45;&gt;Node24</title>
<path fill="none" stroke="midnightblue" d="M648.224,-21.398C666.561,-19.9027 685.7,-18.342 703.723,-16.8724"/>
<polygon fill="midnightblue" stroke="midnightblue" points="647.814,-17.9198 638.132,-22.221 648.383,-24.8966 647.814,-17.9198"/>
</g>
<!-- Node25 -->
<g id="node25" class="node"><title>Node25</title>
<g id="a_node25"><a xlink:href="../../de/dcc/classbackend_1_1command_1_1_tell.html#a9efd790cb410947936aed1289e7fc246" target="_top" xlink:title="backend.command.Tell.execute">
<polygon fill="white" stroke="black" points="705.5,-38.5 705.5,-57.5 872.5,-57.5 872.5,-38.5 705.5,-38.5"/>
<text text-anchor="middle" x="789" y="-45.5" font-family="Helvetica,sans-Serif" font-size="10.00">backend.command.Tell.execute</text>
</a>
</g>
</g>
<!-- Node23&#45;&gt;Node25 -->
<g id="edge31" class="edge"><title>Node23&#45;&gt;Node25</title>
<path fill="none" stroke="midnightblue" d="M648.213,-36.6011C667.087,-38.1401 686.811,-39.7485 705.292,-41.2556"/>
<polygon fill="midnightblue" stroke="midnightblue" points="648.383,-33.1034 638.132,-35.779 647.814,-40.0802 648.383,-33.1034"/>
</g>
</g>
</svg>
        <g id="navigator" transform="translate(0 0)" fill="#404254">
                <rect fill="#f2f5e9" fill-opacity="0.5" stroke="#606060" stroke-width=".5" x="0" y="0" width="60" height="60"/>
                <use id="zoomplus" xlink:href="#zoomPlus" x="17" y="9" onmousedown="handleZoom(evt,'in')"/>
                <use id="zoomminus" xlink:href="#zoomMin" x="42" y="9" onmousedown="handleZoom(evt,'out')"/>
                <use id="reset" xlink:href="#resetDef" x="30" y="36" onmousedown="handleReset()"/>
                <g id="arrowUp" xlink:href="#dirArrow" transform="translate(30 24)" onmousedown="handlePan(0,-1)">
                  <use xlink:href="#rim" fill="#404040">
                        <set attributeName="fill" to="#808080" begin="arrowUp.mouseover" end="arrowUp.mouseout"/>
                  </use>
                  <path fill="none" stroke="white" stroke-width="1.5" d="M0,-3.0v7 M-2.5,-0.5L0,-3.0L2.5,-0.5"/>
                </g>
                <g id="arrowRight" xlink:href="#dirArrow" transform="rotate(90) translate(36 -43)" onmousedown="handlePan(1,0)">
                  <use xlink:href="#rim" fill="#404040">
                        <set attributeName="fill" to="#808080" begin="arrowRight.mouseover" end="arrowRight.mouseout"/>
                  </use>
                  <path fill="none" stroke="white" stroke-width="1.5" d="M0,-3.0v7 M-2.5,-0.5L0,-3.0L2.5,-0.5"/>
                </g>
                <g id="arrowDown" xlink:href="#dirArrow" transform="rotate(180) translate(-30 -48)" onmousedown="handlePan(0,1)">
                  <use xlink:href="#rim" fill="#404040">
                        <set attributeName="fill" to="#808080" begin="arrowDown.mouseover" end="arrowDown.mouseout"/>
                  </use>
                  <path fill="none" stroke="white" stroke-width="1.5" d="M0,-3.0v7 M-2.5,-0.5L0,-3.0L2.5,-0.5"/>
                </g>
                <g id="arrowLeft" xlink:href="#dirArrow" transform="rotate(270) translate(-36 17)" onmousedown="handlePan(-1,0)">
                  <use xlink:href="#rim" fill="#404040">
                        <set attributeName="fill" to="#808080" begin="arrowLeft.mouseover" end="arrowLeft.mouseout"/>
                  </use>
                  <path fill="none" stroke="white" stroke-width="1.5" d="M0,-3.0v7 M-2.5,-0.5L0,-3.0L2.5,-0.5"/>
                </g>
        </g>
        <svg viewBox="0 0 15 15" width="100%" height="30px" preserveAspectRatio="xMaxYMin meet">
         <g id="arrow_out" transform="scale(0.3 0.3)">
          <a xlink:href="classbackend_1_1command_1_1_command_a606032e5ef26d465113f65e6e3c09bef_icgraph_org.svg" target="_base">
           <rect id="button" ry="5" rx="5" y="6" x="6" height="38" width="38"
                fill="#f2f5e9" fill-opacity="0.5" stroke="#606060" stroke-width="1.0"/>
           <path id="arrow"
             d="M 11.500037,31.436501 C 11.940474,20.09759 22.043105,11.32322 32.158766,21.979434 L 37.068811,17.246167 C 37.068811,17.246167 37.088388,32 37.088388,32 L 22.160133,31.978069 C 22.160133,31.978069 26.997745,27.140456 26.997745,27.140456 C 18.528582,18.264221 13.291696,25.230495 11.500037,31.436501 z"
             style="fill:#404040;"/>
          </a>
         </g>
        </svg>
</svg>
