<?xml version="1.0" encoding="UTF-8" standalone="no"?>
<!DOCTYPE svg PUBLIC "-//W3C//DTD SVG 1.1//EN"
 "http://www.w3.org/Graphics/SVG/1.1/DTD/svg11.dtd">
<!-- Generated by graphviz version 2.36.0 (20140111.2315)
 -->
<!-- Title: backend.command.Command.indentString Pages: 1 -->
<svg width="656pt" height="38pt"
 viewBox="0.00 0.00 656.00 38.00" xmlns="http://www.w3.org/2000/svg" xmlns:xlink="http://www.w3.org/1999/xlink">
<g id="graph0" class="graph" transform="scale(1 1) rotate(0) translate(4 34)">
<title>backend.command.Command.indentString</title>
<polygon fill="white" stroke="none" points="-4,4 -4,-34 652,-34 652,4 -4,4"/>
<!-- Node1 -->
<g id="node1" class="node"><title>Node1</title>
<polygon fill="#bfbfbf" stroke="black" points="0.5,-0 0.5,-30 195.5,-30 195.5,-0 0.5,-0"/>
<text text-anchor="start" x="8.5" y="-18" font-family="Helvetica,sans-Serif" font-size="10.00">backend.command.Command.indent</text>
<text text-anchor="middle" x="98" y="-7" font-family="Helvetica,sans-Serif" font-size="10.00">String</text>
</g>
<!-- Node2 -->
<g id="node2" class="node"><title>Node2</title>
<g id="a_node2"><a xlink:href="../../dc/d83/classbackend_1_1command_1_1_command.html#ae4958d8f2f7acc24eba656f35be19a84" target="_top" xlink:title="backend.command.Command.parent\lIsList">
<polygon fill="white" stroke="black" points="232.5,-0 232.5,-30 429.5,-30 429.5,-0 232.5,-0"/>
<text text-anchor="start" x="240.5" y="-18" font-family="Helvetica,sans-Serif" font-size="10.00">backend.command.Command.parent</text>
<text text-anchor="middle" x="331" y="-7" font-family="Helvetica,sans-Serif" font-size="10.00">IsList</text>
</a>
</g>
</g>
<!-- Node1&#45;&gt;Node2 -->
<g id="edge1" class="edge"><title>Node1&#45;&gt;Node2</title>
<path fill="none" stroke="midnightblue" d="M195.626,-15C204.429,-15 213.383,-15 222.274,-15"/>
<polygon fill="midnightblue" stroke="midnightblue" points="222.276,-18.5001 232.276,-15 222.276,-11.5001 222.276,-18.5001"/>
</g>
<!-- Node3 -->
<g id="node3" class="node"><title>Node3</title>
<g id="a_node3"><a xlink:href="../../dc/d83/classbackend_1_1command_1_1_command.html#ac25177ccf23f2721bbe77b69a31c1bf7" target="_top" xlink:title="backend.command.Command.has\lParent">
<polygon fill="white" stroke="black" points="466,-0 466,-30 648,-30 648,-0 466,-0"/>
<text text-anchor="start" x="474" y="-18" font-family="Helvetica,sans-Serif" font-size="10.00">backend.command.Command.has</text>
<text text-anchor="middle" x="557" y="-7" font-family="Helvetica,sans-Serif" font-size="10.00">Parent</text>
</a>
</g>
</g>
<!-- Node2&#45;&gt;Node3 -->
<g id="edge2" class="edge"><title>Node2&#45;&gt;Node3</title>
<path fill="none" stroke="midnightblue" d="M429.598,-15C438.241,-15 447.001,-15 455.667,-15"/>
<polygon fill="midnightblue" stroke="midnightblue" points="455.783,-18.5001 465.783,-15 455.783,-11.5001 455.783,-18.5001"/>
</g>
</g>
</svg>
