<?xml version="1.0" encoding="UTF-8" standalone="no"?>
<!DOCTYPE svg PUBLIC "-//W3C//DTD SVG 1.1//EN"
 "http://www.w3.org/Graphics/SVG/1.1/DTD/svg11.dtd">
<!-- Generated by graphviz version 2.36.0 (20140111.2315)
 -->
<!-- Title: backend.command.Command.getParamReturnVal Pages: 1 -->
<svg width="454pt" height="104pt"
 viewBox="0.00 0.00 454.00 104.00" xmlns="http://www.w3.org/2000/svg" xmlns:xlink="http://www.w3.org/1999/xlink">
<g id="graph0" class="graph" transform="scale(1 1) rotate(0) translate(4 100)">
<title>backend.command.Command.getParamReturnVal</title>
<polygon fill="white" stroke="none" points="-4,4 -4,-100 450,-100 450,4 -4,4"/>
<!-- Node1 -->
<g id="node1" class="node"><title>Node1</title>
<polygon fill="#bfbfbf" stroke="black" points="0.5,-33 0.5,-63 181.5,-63 181.5,-33 0.5,-33"/>
<text text-anchor="start" x="8.5" y="-51" font-family="Helvetica,sans-Serif" font-size="10.00">backend.command.Command.get</text>
<text text-anchor="middle" x="91" y="-40" font-family="Helvetica,sans-Serif" font-size="10.00">ParamReturnVal</text>
</g>
<!-- Node2 -->
<g id="node2" class="node"><title>Node2</title>
<g id="a_node2"><a xlink:href="../../d5/dfe/classbackend_1_1command_1_1_set_shape.html#a45d3d7dfe3b3b7853d1818c84bf29be2" target="_top" xlink:title="backend.command.SetShape.execute">
<polygon fill="white" stroke="black" points="232,-76.5 232,-95.5 432,-95.5 432,-76.5 232,-76.5"/>
<text text-anchor="middle" x="332" y="-83.5" font-family="Helvetica,sans-Serif" font-size="10.00">backend.command.SetShape.execute</text>
</a>
</g>
</g>
<!-- Node1&#45;&gt;Node2 -->
<g id="edge1" class="edge"><title>Node1&#45;&gt;Node2</title>
<path fill="none" stroke="midnightblue" d="M191.893,-63.8826C218.759,-68.1541 246.984,-72.6417 270.935,-76.4499"/>
<polygon fill="midnightblue" stroke="midnightblue" points="192.1,-60.3716 181.675,-62.2579 191.001,-67.2848 192.1,-60.3716"/>
</g>
<!-- Node3 -->
<g id="node3" class="node"><title>Node3</title>
<g id="a_node3"><a xlink:href="../../de/d47/classbackend_1_1command_1_1_set_background.html#a32cf6de8fa8a7b154fa1124e2efb6c5c" target="_top" xlink:title="backend.command.SetBackground.execute">
<polygon fill="white" stroke="black" points="218.5,-38.5 218.5,-57.5 445.5,-57.5 445.5,-38.5 218.5,-38.5"/>
<text text-anchor="middle" x="332" y="-45.5" font-family="Helvetica,sans-Serif" font-size="10.00">backend.command.SetBackground.execute</text>
</a>
</g>
</g>
<!-- Node1&#45;&gt;Node3 -->
<g id="edge2" class="edge"><title>Node1&#45;&gt;Node3</title>
<path fill="none" stroke="midnightblue" d="M191.822,-48C200.532,-48 209.385,-48 218.19,-48"/>
<polygon fill="midnightblue" stroke="midnightblue" points="191.675,-44.5001 181.675,-48 191.675,-51.5001 191.675,-44.5001"/>
</g>
<!-- Node4 -->
<g id="node4" class="node"><title>Node4</title>
<g id="a_node4"><a xlink:href="../../df/df8/classbackend_1_1command_1_1_set_pen_color.html#ae59f12abe2013dd21d4090d7c94c669d" target="_top" xlink:title="backend.command.SetPenColor.execute">
<polygon fill="white" stroke="black" points="226,-0.5 226,-19.5 438,-19.5 438,-0.5 226,-0.5"/>
<text text-anchor="middle" x="332" y="-7.5" font-family="Helvetica,sans-Serif" font-size="10.00">backend.command.SetPenColor.execute</text>
</a>
</g>
</g>
<!-- Node1&#45;&gt;Node4 -->
<g id="edge3" class="edge"><title>Node1&#45;&gt;Node4</title>
<path fill="none" stroke="midnightblue" d="M191.893,-32.1174C218.759,-27.8459 246.984,-23.3583 270.935,-19.5501"/>
<polygon fill="midnightblue" stroke="midnightblue" points="191.001,-28.7152 181.675,-33.7421 192.1,-35.6284 191.001,-28.7152"/>
</g>
</g>
</svg>
