<?xml version="1.0" encoding="UTF-8" standalone="no"?>
<!DOCTYPE svg PUBLIC "-//W3C//DTD SVG 1.1//EN"
 "http://www.w3.org/Graphics/SVG/1.1/DTD/svg11.dtd">
<!-- Generated by graphviz version 2.36.0 (20140111.2315)
 -->
<!-- Title: backend.command.Command.executeParam Pages: 1 -->
<svg width="960pt" height="604pt"
 viewBox="0.00 0.00 960.00 604.00" xmlns="http://www.w3.org/2000/svg" xmlns:xlink="http://www.w3.org/1999/xlink">
<g id="graph0" class="graph" transform="scale(1 1) rotate(0) translate(4 600)">
<title>backend.command.Command.executeParam</title>
<polygon fill="white" stroke="none" points="-4,4 -4,-600 956,-600 956,4 -4,4"/>
<!-- Node1 -->
<g id="node1" class="node"><title>Node1</title>
<polygon fill="#bfbfbf" stroke="black" points="0.5,-305 0.5,-335 203.5,-335 203.5,-305 0.5,-305"/>
<text text-anchor="start" x="8.5" y="-323" font-family="Helvetica,sans-Serif" font-size="10.00">backend.command.Command.execute</text>
<text text-anchor="middle" x="102" y="-312" font-family="Helvetica,sans-Serif" font-size="10.00">Param</text>
</g>
<!-- Node2 -->
<g id="node2" class="node"><title>Node2</title>
<g id="a_node2"><a xlink:href="../../dd/d3e/classbackend_1_1command_1_1_degrees_turtle_command.html#acd59c2f8fc9e6584311ad0a046a6a6ca" target="_top" xlink:title="backend.command.DegreesTurtle\lCommand.degrees">
<polygon fill="white" stroke="black" points="264,-517 264,-547 442,-547 442,-517 264,-517"/>
<text text-anchor="start" x="272" y="-535" font-family="Helvetica,sans-Serif" font-size="10.00">backend.command.DegreesTurtle</text>
<text text-anchor="middle" x="353" y="-524" font-family="Helvetica,sans-Serif" font-size="10.00">Command.degrees</text>
</a>
</g>
</g>
<!-- Node1&#45;&gt;Node2 -->
<g id="edge1" class="edge"><title>Node1&#45;&gt;Node2</title>
<path fill="none" stroke="midnightblue" d="M116.391,-344.069C137.915,-380.697 183.57,-450.447 240,-491 255.638,-502.238 274.695,-510.722 292.623,-516.969"/>
<polygon fill="midnightblue" stroke="midnightblue" points="119.238,-341.999 111.208,-335.087 113.175,-345.498 119.238,-341.999"/>
</g>
<!-- Node6 -->
<g id="node6" class="node"><title>Node6</title>
<g id="a_node6"><a xlink:href="../../db/d27/classbackend_1_1command_1_1_do_times.html#a8d10f828a5eaf6cac481123bb93d1946" target="_top" xlink:title="backend.command.DoTimes.end">
<polygon fill="white" stroke="black" points="265.5,-462.5 265.5,-481.5 440.5,-481.5 440.5,-462.5 265.5,-462.5"/>
<text text-anchor="middle" x="353" y="-469.5" font-family="Helvetica,sans-Serif" font-size="10.00">backend.command.DoTimes.end</text>
</a>
</g>
</g>
<!-- Node1&#45;&gt;Node6 -->
<g id="edge5" class="edge"><title>Node1&#45;&gt;Node6</title>
<path fill="none" stroke="midnightblue" d="M120.028,-343.77C143.367,-374.396 188.335,-426.8 240,-453 247.915,-457.014 256.509,-460.204 265.297,-462.735"/>
<polygon fill="midnightblue" stroke="midnightblue" points="122.552,-341.301 113.763,-335.384 116.944,-345.49 122.552,-341.301"/>
</g>
<!-- Node7 -->
<g id="node7" class="node"><title>Node7</title>
<g id="a_node7"><a xlink:href="../../de/d1a/classbackend_1_1command_1_1_for.html#af670f94af1ef47bb0bf1128faa43b8bd" target="_top" xlink:title="backend.command.For.end">
<polygon fill="white" stroke="black" points="279.5,-386.5 279.5,-405.5 426.5,-405.5 426.5,-386.5 279.5,-386.5"/>
<text text-anchor="middle" x="353" y="-393.5" font-family="Helvetica,sans-Serif" font-size="10.00">backend.command.For.end</text>
</a>
</g>
</g>
<!-- Node1&#45;&gt;Node7 -->
<g id="edge6" class="edge"><title>Node1&#45;&gt;Node7</title>
<path fill="none" stroke="midnightblue" d="M142.652,-339.31C169.555,-351.705 206.237,-367.249 240,-377 253.169,-380.803 267.442,-383.942 281.25,-386.496"/>
<polygon fill="midnightblue" stroke="midnightblue" points="144.107,-336.127 133.565,-335.072 141.149,-342.471 144.107,-336.127"/>
</g>
<!-- Node10 -->
<g id="node10" class="node"><title>Node10</title>
<g id="a_node10"><a xlink:href="../../d0/dca/classbackend_1_1command_1_1_repeat.html#a3dc2bb1a70043d7405283e7263e158ab" target="_top" xlink:title="backend.command.Repeat.execute">
<polygon fill="white" stroke="black" points="766,-329.5 766,-348.5 952,-348.5 952,-329.5 766,-329.5"/>
<text text-anchor="middle" x="859" y="-336.5" font-family="Helvetica,sans-Serif" font-size="10.00">backend.command.Repeat.execute</text>
</a>
</g>
</g>
<!-- Node1&#45;&gt;Node10 -->
<g id="edge11" class="edge"><title>Node1&#45;&gt;Node10</title>
<path fill="none" stroke="midnightblue" d="M213.763,-322.787C363.156,-326.547 626.506,-333.174 765.733,-336.678"/>
<polygon fill="midnightblue" stroke="midnightblue" points="213.733,-319.286 203.648,-322.533 213.557,-326.283 213.733,-319.286"/>
</g>
<!-- Node11 -->
<g id="node11" class="node"><title>Node11</title>
<g id="a_node11"><a xlink:href="../../d6/db5/classbackend_1_1command_1_1_set_palette.html#af4a93cf60d2c74b3de7c350e690f0911" target="_top" xlink:title="backend.command.SetPalette.execute">
<polygon fill="white" stroke="black" points="251.5,-272.5 251.5,-291.5 454.5,-291.5 454.5,-272.5 251.5,-272.5"/>
<text text-anchor="middle" x="353" y="-279.5" font-family="Helvetica,sans-Serif" font-size="10.00">backend.command.SetPalette.execute</text>
</a>
</g>
</g>
<!-- Node1&#45;&gt;Node11 -->
<g id="edge12" class="edge"><title>Node1&#45;&gt;Node11</title>
<path fill="none" stroke="midnightblue" d="M211.598,-303.427C238.332,-299.347 266.061,-295.115 289.744,-291.501"/>
<polygon fill="midnightblue" stroke="midnightblue" points="210.769,-300.013 201.411,-304.981 211.825,-306.933 210.769,-300.013"/>
</g>
<!-- Node12 -->
<g id="node12" class="node"><title>Node12</title>
<g id="a_node12"><a xlink:href="../../de/d1a/classbackend_1_1command_1_1_for.html#a1ef90c6eeba84aa760be374aff817eea" target="_top" xlink:title="backend.command.For.increment">
<polygon fill="white" stroke="black" points="264,-348.5 264,-367.5 442,-367.5 442,-348.5 264,-348.5"/>
<text text-anchor="middle" x="353" y="-355.5" font-family="Helvetica,sans-Serif" font-size="10.00">backend.command.For.increment</text>
</a>
</g>
</g>
<!-- Node1&#45;&gt;Node12 -->
<g id="edge13" class="edge"><title>Node1&#45;&gt;Node12</title>
<path fill="none" stroke="midnightblue" d="M211.598,-336.573C238.332,-340.653 266.061,-344.885 289.744,-348.499"/>
<polygon fill="midnightblue" stroke="midnightblue" points="211.825,-333.067 201.411,-335.019 210.769,-339.987 211.825,-333.067"/>
</g>
<!-- Node13 -->
<g id="node13" class="node"><title>Node13</title>
<g id="a_node13"><a xlink:href="../../dc/d67/classbackend_1_1command_1_1_model_command.html#ab1aeefecd317fb74afe685c140d17c55" target="_top" xlink:title="backend.command.ModelCommand.param\lToColor">
<polygon fill="white" stroke="black" points="240.5,-223 240.5,-253 465.5,-253 465.5,-223 240.5,-223"/>
<text text-anchor="start" x="248.5" y="-241" font-family="Helvetica,sans-Serif" font-size="10.00">backend.command.ModelCommand.param</text>
<text text-anchor="middle" x="353" y="-230" font-family="Helvetica,sans-Serif" font-size="10.00">ToColor</text>
</a>
</g>
</g>
<!-- Node1&#45;&gt;Node13 -->
<g id="edge16" class="edge"><title>Node1&#45;&gt;Node13</title>
<path fill="none" stroke="midnightblue" d="M144.243,-300.619C171.079,-288.567 207.084,-273.433 240,-263 251.585,-259.328 264.008,-255.987 276.212,-253.026"/>
<polygon fill="midnightblue" stroke="midnightblue" points="142.455,-297.587 134.794,-304.906 145.347,-303.962 142.455,-297.587"/>
</g>
<!-- Node16 -->
<g id="node16" class="node"><title>Node16</title>
<g id="a_node16"><a xlink:href="../../dc/d67/classbackend_1_1command_1_1_model_command.html#a539e1c4b7488f1f4833db3a5e2883723" target="_top" xlink:title="backend.command.ModelCommand.param\lToImage">
<polygon fill="white" stroke="black" points="240.5,-174 240.5,-204 465.5,-204 465.5,-174 240.5,-174"/>
<text text-anchor="start" x="248.5" y="-192" font-family="Helvetica,sans-Serif" font-size="10.00">backend.command.ModelCommand.param</text>
<text text-anchor="middle" x="353" y="-181" font-family="Helvetica,sans-Serif" font-size="10.00">ToImage</text>
</a>
</g>
</g>
<!-- Node1&#45;&gt;Node16 -->
<g id="edge19" class="edge"><title>Node1&#45;&gt;Node16</title>
<path fill="none" stroke="midnightblue" d="M124.719,-297.82C150.083,-273.251 194.407,-234.302 240,-213 247.387,-209.549 255.28,-206.587 263.329,-204.048"/>
<polygon fill="midnightblue" stroke="midnightblue" points="122.149,-295.439 117.476,-304.947 127.059,-300.428 122.149,-295.439"/>
</g>
<!-- Node18 -->
<g id="node18" class="node"><title>Node18</title>
<g id="a_node18"><a xlink:href="../../df/d09/classbackend_1_1command_1_1_pixels_turtle_command.html#af33732612b4329d162ffab3c28f41274" target="_top" xlink:title="backend.command.PixelsTurtle\lCommand.pixels">
<polygon fill="white" stroke="black" points="271,-117 271,-147 435,-147 435,-117 271,-117"/>
<text text-anchor="start" x="279" y="-135" font-family="Helvetica,sans-Serif" font-size="10.00">backend.command.PixelsTurtle</text>
<text text-anchor="middle" x="353" y="-124" font-family="Helvetica,sans-Serif" font-size="10.00">Command.pixels</text>
</a>
</g>
</g>
<!-- Node1&#45;&gt;Node18 -->
<g id="edge21" class="edge"><title>Node1&#45;&gt;Node18</title>
<path fill="none" stroke="midnightblue" d="M117.587,-296.045C139.757,-261.67 185.2,-198.681 240,-164 251.193,-156.917 263.99,-151.363 276.838,-147.02"/>
<polygon fill="midnightblue" stroke="midnightblue" points="114.604,-294.214 112.211,-304.535 120.518,-297.959 114.604,-294.214"/>
</g>
<!-- Node22 -->
<g id="node22" class="node"><title>Node22</title>
<g id="a_node22"><a xlink:href="../../d5/dcb/classbackend_1_1command_1_1_point_turtle_command.html#aa0619a24fc2c3157992c0b6e41ded4a8" target="_top" xlink:title="backend.command.PointTurtle\lCommand.point">
<polygon fill="white" stroke="black" points="272.5,-33 272.5,-63 433.5,-63 433.5,-33 272.5,-33"/>
<text text-anchor="start" x="280.5" y="-51" font-family="Helvetica,sans-Serif" font-size="10.00">backend.command.PointTurtle</text>
<text text-anchor="middle" x="353" y="-40" font-family="Helvetica,sans-Serif" font-size="10.00">Command.point</text>
</a>
</g>
</g>
<!-- Node1&#45;&gt;Node22 -->
<g id="edge25" class="edge"><title>Node1&#45;&gt;Node22</title>
<path fill="none" stroke="midnightblue" d="M113.553,-295.626C133.11,-252.797 178.643,-163.253 240,-107 260.897,-87.8408 289.173,-73.0091 312.085,-63.0086"/>
<polygon fill="midnightblue" stroke="midnightblue" points="110.255,-294.428 109.356,-304.985 116.642,-297.293 110.255,-294.428"/>
</g>
<!-- Node25 -->
<g id="node25" class="node"><title>Node25</title>
<g id="a_node25"><a xlink:href="../../de/d1a/classbackend_1_1command_1_1_for.html#a659c098aec0f5968be646f0fed371577" target="_top" xlink:title="backend.command.For.start">
<polygon fill="white" stroke="black" points="277,-424.5 277,-443.5 429,-443.5 429,-424.5 277,-424.5"/>
<text text-anchor="middle" x="353" y="-431.5" font-family="Helvetica,sans-Serif" font-size="10.00">backend.command.For.start</text>
</a>
</g>
</g>
<!-- Node1&#45;&gt;Node25 -->
<g id="edge28" class="edge"><title>Node1&#45;&gt;Node25</title>
<path fill="none" stroke="midnightblue" d="M127.519,-342.055C153.51,-364.153 196.711,-397.349 240,-415 251.597,-419.729 264.331,-423.28 276.926,-425.948"/>
<polygon fill="midnightblue" stroke="midnightblue" points="129.561,-339.195 119.706,-335.304 124.984,-344.491 129.561,-339.195"/>
</g>
<!-- Node3 -->
<g id="node3" class="node"><title>Node3</title>
<g id="a_node3"><a xlink:href="../../d1/d93/classbackend_1_1command_1_1_left.html#a06ab89eec275560592d65c8eaf3fc61c" target="_top" xlink:title="backend.command.Left.execute">
<polygon fill="white" stroke="black" points="530.5,-576.5 530.5,-595.5 701.5,-595.5 701.5,-576.5 530.5,-576.5"/>
<text text-anchor="middle" x="616" y="-583.5" font-family="Helvetica,sans-Serif" font-size="10.00">backend.command.Left.execute</text>
</a>
</g>
</g>
<!-- Node2&#45;&gt;Node3 -->
<g id="edge2" class="edge"><title>Node2&#45;&gt;Node3</title>
<path fill="none" stroke="midnightblue" d="M423.573,-549.447C448.262,-555.374 476.297,-561.806 502,-567 518.769,-570.389 537.024,-573.645 553.874,-576.475"/>
<polygon fill="midnightblue" stroke="midnightblue" points="424.116,-545.977 413.573,-547.03 422.471,-552.781 424.116,-545.977"/>
</g>
<!-- Node4 -->
<g id="node4" class="node"><title>Node4</title>
<g id="a_node4"><a xlink:href="../../d6/dcb/classbackend_1_1command_1_1_right.html#acdc2fa5040cde9b0ffabb1013a7dda38" target="_top" xlink:title="backend.command.Right.execute">
<polygon fill="white" stroke="black" points="527.5,-538.5 527.5,-557.5 704.5,-557.5 704.5,-538.5 527.5,-538.5"/>
<text text-anchor="middle" x="616" y="-545.5" font-family="Helvetica,sans-Serif" font-size="10.00">backend.command.Right.execute</text>
</a>
</g>
</g>
<!-- Node2&#45;&gt;Node4 -->
<g id="edge3" class="edge"><title>Node2&#45;&gt;Node4</title>
<path fill="none" stroke="midnightblue" d="M452.414,-538.033C476.977,-539.539 503.157,-541.144 527.172,-542.616"/>
<polygon fill="midnightblue" stroke="midnightblue" points="452.558,-534.535 442.363,-537.417 452.13,-541.522 452.558,-534.535"/>
</g>
<!-- Node5 -->
<g id="node5" class="node"><title>Node5</title>
<g id="a_node5"><a xlink:href="../../d8/d92/classbackend_1_1command_1_1_set_heading.html#aae201c4671003d1ad516dfd4886db55d" target="_top" xlink:title="backend.command.SetHeading.execute">
<polygon fill="white" stroke="black" points="511.5,-500.5 511.5,-519.5 720.5,-519.5 720.5,-500.5 511.5,-500.5"/>
<text text-anchor="middle" x="616" y="-507.5" font-family="Helvetica,sans-Serif" font-size="10.00">backend.command.SetHeading.execute</text>
</a>
</g>
</g>
<!-- Node2&#45;&gt;Node5 -->
<g id="edge4" class="edge"><title>Node2&#45;&gt;Node5</title>
<path fill="none" stroke="midnightblue" d="M452.352,-523.71C471.646,-522.083 491.941,-520.373 511.401,-518.733"/>
<polygon fill="midnightblue" stroke="midnightblue" points="452.033,-520.224 442.363,-524.552 452.621,-527.199 452.033,-520.224"/>
</g>
<!-- Node8 -->
<g id="node8" class="node"><title>Node8</title>
<g id="a_node8"><a xlink:href="../../de/d1a/classbackend_1_1command_1_1_for.html#a49269498727ff3b774f81d3203262ea7" target="_top" xlink:title="backend.command.For.execute">
<polygon fill="white" stroke="black" points="775.5,-405.5 775.5,-424.5 942.5,-424.5 942.5,-405.5 775.5,-405.5"/>
<text text-anchor="middle" x="859" y="-412.5" font-family="Helvetica,sans-Serif" font-size="10.00">backend.command.For.execute</text>
</a>
</g>
</g>
<!-- Node7&#45;&gt;Node8 -->
<g id="edge7" class="edge"><title>Node7&#45;&gt;Node8</title>
<path fill="none" stroke="midnightblue" d="M424.26,-406.884C448.791,-410.188 476.551,-413.373 502,-415 595.445,-420.974 702.968,-419.877 775.181,-417.986"/>
<polygon fill="midnightblue" stroke="midnightblue" points="424.702,-403.412 414.318,-405.515 423.747,-410.346 424.702,-403.412"/>
</g>
<!-- Node9 -->
<g id="node9" class="node"><title>Node9</title>
<g id="a_node9"><a xlink:href="../../de/d1a/classbackend_1_1command_1_1_for.html#ab76f75506018a6dc4787ded9ba77212a" target="_top" xlink:title="backend.command.For.forLoop">
<polygon fill="white" stroke="black" points="533.5,-386.5 533.5,-405.5 698.5,-405.5 698.5,-386.5 533.5,-386.5"/>
<text text-anchor="middle" x="616" y="-393.5" font-family="Helvetica,sans-Serif" font-size="10.00">backend.command.For.forLoop</text>
</a>
</g>
</g>
<!-- Node7&#45;&gt;Node9 -->
<g id="edge8" class="edge"><title>Node7&#45;&gt;Node9</title>
<path fill="none" stroke="midnightblue" d="M436.948,-396C467.65,-396 502.421,-396 533.036,-396"/>
<polygon fill="midnightblue" stroke="midnightblue" points="436.703,-392.5 426.703,-396 436.703,-399.5 436.703,-392.5"/>
</g>
<!-- Node9&#45;&gt;Node8 -->
<g id="edge9" class="edge"><title>Node9&#45;&gt;Node8</title>
<path fill="none" stroke="midnightblue" d="M708.854,-403.242C730.691,-404.963 753.86,-406.79 775.262,-408.477"/>
<polygon fill="midnightblue" stroke="midnightblue" points="708.836,-399.729 698.592,-402.433 708.286,-406.708 708.836,-399.729"/>
</g>
<!-- Node9&#45;&gt;Node10 -->
<g id="edge10" class="edge"><title>Node9&#45;&gt;Node10</title>
<path fill="none" stroke="midnightblue" d="M667.099,-384.151C711.701,-373.602 776.122,-358.365 817.53,-348.572"/>
<polygon fill="midnightblue" stroke="midnightblue" points="666.264,-380.752 657.338,-386.459 667.875,-387.564 666.264,-380.752"/>
</g>
<!-- Node12&#45;&gt;Node8 -->
<g id="edge14" class="edge"><title>Node12&#45;&gt;Node8</title>
<path fill="none" stroke="midnightblue" d="M452.096,-356.6C528.38,-357.038 636.592,-361.01 730,-377 766.329,-383.219 806.908,-396.372 832.443,-405.446"/>
<polygon fill="midnightblue" stroke="midnightblue" points="452.031,-353.099 442.018,-356.561 452.004,-360.099 452.031,-353.099"/>
</g>
<!-- Node12&#45;&gt;Node9 -->
<g id="edge15" class="edge"><title>Node12&#45;&gt;Node9</title>
<path fill="none" stroke="midnightblue" d="M429.503,-368.993C467.449,-374.518 512.988,-381.148 549.449,-386.456"/>
<polygon fill="midnightblue" stroke="midnightblue" points="429.924,-365.517 419.524,-367.54 428.916,-372.444 429.924,-365.517"/>
</g>
<!-- Node14 -->
<g id="node14" class="node"><title>Node14</title>
<g id="a_node14"><a xlink:href="../../de/d47/classbackend_1_1command_1_1_set_background.html#a32cf6de8fa8a7b154fa1124e2efb6c5c" target="_top" xlink:title="backend.command.SetBackground.execute">
<polygon fill="white" stroke="black" points="502.5,-266.5 502.5,-285.5 729.5,-285.5 729.5,-266.5 502.5,-266.5"/>
<text text-anchor="middle" x="616" y="-273.5" font-family="Helvetica,sans-Serif" font-size="10.00">backend.command.SetBackground.execute</text>
</a>
</g>
</g>
<!-- Node13&#45;&gt;Node14 -->
<g id="edge17" class="edge"><title>Node13&#45;&gt;Node14</title>
<path fill="none" stroke="midnightblue" d="M467.092,-254.465C495.342,-258.579 524.701,-262.853 549.744,-266.499"/>
<polygon fill="midnightblue" stroke="midnightblue" points="467.554,-250.996 457.154,-253.019 466.545,-257.923 467.554,-250.996"/>
</g>
<!-- Node15 -->
<g id="node15" class="node"><title>Node15</title>
<g id="a_node15"><a xlink:href="../../df/df8/classbackend_1_1command_1_1_set_pen_color.html#ae59f12abe2013dd21d4090d7c94c669d" target="_top" xlink:title="backend.command.SetPenColor.execute">
<polygon fill="white" stroke="black" points="510,-228.5 510,-247.5 722,-247.5 722,-228.5 510,-228.5"/>
<text text-anchor="middle" x="616" y="-235.5" font-family="Helvetica,sans-Serif" font-size="10.00">backend.command.SetPenColor.execute</text>
</a>
</g>
</g>
<!-- Node13&#45;&gt;Node15 -->
<g id="edge18" class="edge"><title>Node13&#45;&gt;Node15</title>
<path fill="none" stroke="midnightblue" d="M476.081,-238C487.285,-238 498.573,-238 509.612,-238"/>
<polygon fill="midnightblue" stroke="midnightblue" points="475.823,-234.5 465.823,-238 475.823,-241.5 475.823,-234.5"/>
</g>
<!-- Node17 -->
<g id="node17" class="node"><title>Node17</title>
<g id="a_node17"><a xlink:href="../../d5/dfe/classbackend_1_1command_1_1_set_shape.html#a45d3d7dfe3b3b7853d1818c84bf29be2" target="_top" xlink:title="backend.command.SetShape.execute">
<polygon fill="white" stroke="black" points="516,-190.5 516,-209.5 716,-209.5 716,-190.5 516,-190.5"/>
<text text-anchor="middle" x="616" y="-197.5" font-family="Helvetica,sans-Serif" font-size="10.00">backend.command.SetShape.execute</text>
</a>
</g>
</g>
<!-- Node16&#45;&gt;Node17 -->
<g id="edge20" class="edge"><title>Node16&#45;&gt;Node17</title>
<path fill="none" stroke="midnightblue" d="M475.983,-194.141C489.31,-194.703 502.757,-195.269 515.763,-195.818"/>
<polygon fill="midnightblue" stroke="midnightblue" points="475.962,-190.637 465.823,-193.713 475.667,-197.631 475.962,-190.637"/>
</g>
<!-- Node19 -->
<g id="node19" class="node"><title>Node19</title>
<g id="a_node19"><a xlink:href="../../dc/d25/classbackend_1_1command_1_1_backward.html#a8555647247f244625e7e60bc10753202" target="_top" xlink:title="backend.command.Backward.execute">
<polygon fill="white" stroke="black" points="516.5,-152.5 516.5,-171.5 715.5,-171.5 715.5,-152.5 516.5,-152.5"/>
<text text-anchor="middle" x="616" y="-159.5" font-family="Helvetica,sans-Serif" font-size="10.00">backend.command.Backward.execute</text>
</a>
</g>
</g>
<!-- Node18&#45;&gt;Node19 -->
<g id="edge22" class="edge"><title>Node18&#45;&gt;Node19</title>
<path fill="none" stroke="midnightblue" d="M445.41,-142.507C473.614,-145.749 504.502,-149.299 532.099,-152.471"/>
<polygon fill="midnightblue" stroke="midnightblue" points="445.486,-138.993 435.151,-141.328 444.686,-145.947 445.486,-138.993"/>
</g>
<!-- Node20 -->
<g id="node20" class="node"><title>Node20</title>
<g id="a_node20"><a xlink:href="../../d8/d49/classbackend_1_1command_1_1_forward.html#a007c0c9940ad2e960dfd044388fcee0f" target="_top" xlink:title="backend.command.Forward.execute">
<polygon fill="white" stroke="black" points="520.5,-114.5 520.5,-133.5 711.5,-133.5 711.5,-114.5 520.5,-114.5"/>
<text text-anchor="middle" x="616" y="-121.5" font-family="Helvetica,sans-Serif" font-size="10.00">backend.command.Forward.execute</text>
</a>
</g>
</g>
<!-- Node18&#45;&gt;Node20 -->
<g id="edge23" class="edge"><title>Node18&#45;&gt;Node20</title>
<path fill="none" stroke="midnightblue" d="M445.395,-129.199C469.607,-128.457 495.796,-127.654 520.185,-126.906"/>
<polygon fill="midnightblue" stroke="midnightblue" points="445.039,-125.708 435.151,-129.513 445.254,-132.704 445.039,-125.708"/>
</g>
<!-- Node21 -->
<g id="node21" class="node"><title>Node21</title>
<g id="a_node21"><a xlink:href="../../d8/d3e/classbackend_1_1command_1_1_set_pen_size.html#abeaea63d9ee389a2f90055b25c8cd7ad" target="_top" xlink:title="backend.command.SetPenSize.execute">
<polygon fill="white" stroke="black" points="512,-76.5 512,-95.5 720,-95.5 720,-76.5 512,-76.5"/>
<text text-anchor="middle" x="616" y="-83.5" font-family="Helvetica,sans-Serif" font-size="10.00">backend.command.SetPenSize.execute</text>
</a>
</g>
</g>
<!-- Node18&#45;&gt;Node21 -->
<g id="edge24" class="edge"><title>Node18&#45;&gt;Node21</title>
<path fill="none" stroke="midnightblue" d="M445.051,-115.184C463.871,-111.766 483.573,-108.23 502,-105 520.027,-101.84 539.691,-98.4977 557.488,-95.5118"/>
<polygon fill="midnightblue" stroke="midnightblue" points="444.213,-111.779 435.002,-117.013 445.467,-118.666 444.213,-111.779"/>
</g>
<!-- Node23 -->
<g id="node23" class="node"><title>Node23</title>
<g id="a_node23"><a xlink:href="../../d5/db7/classbackend_1_1command_1_1_set_position.html#ad352a4e88e36db0d2360299d1d0f54ec" target="_top" xlink:title="backend.command.SetPosition.execute">
<polygon fill="white" stroke="black" points="512.5,-38.5 512.5,-57.5 719.5,-57.5 719.5,-38.5 512.5,-38.5"/>
<text text-anchor="middle" x="616" y="-45.5" font-family="Helvetica,sans-Serif" font-size="10.00">backend.command.SetPosition.execute</text>
</a>
</g>
</g>
<!-- Node22&#45;&gt;Node23 -->
<g id="edge26" class="edge"><title>Node22&#45;&gt;Node23</title>
<path fill="none" stroke="midnightblue" d="M444.023,-48C465.986,-48 489.646,-48 512.156,-48"/>
<polygon fill="midnightblue" stroke="midnightblue" points="443.727,-44.5001 433.727,-48 443.727,-51.5001 443.727,-44.5001"/>
</g>
<!-- Node24 -->
<g id="node24" class="node"><title>Node24</title>
<g id="a_node24"><a xlink:href="../../d7/d1a/classbackend_1_1command_1_1_set_towards.html#ae10f8bb4a72bf22814c7ecd1fe14459d" target="_top" xlink:title="backend.command.SetTowards.execute">
<polygon fill="white" stroke="black" points="512.5,-0.5 512.5,-19.5 719.5,-19.5 719.5,-0.5 512.5,-0.5"/>
<text text-anchor="middle" x="616" y="-7.5" font-family="Helvetica,sans-Serif" font-size="10.00">backend.command.SetTowards.execute</text>
</a>
</g>
</g>
<!-- Node22&#45;&gt;Node24 -->
<g id="edge27" class="edge"><title>Node22&#45;&gt;Node24</title>
<path fill="none" stroke="midnightblue" d="M443.853,-34.918C478.502,-29.8733 517.398,-24.2102 549.344,-19.5591"/>
<polygon fill="midnightblue" stroke="midnightblue" points="443.118,-31.488 433.727,-36.3923 444.127,-38.4149 443.118,-31.488"/>
</g>
<!-- Node25&#45;&gt;Node8 -->
<g id="edge29" class="edge"><title>Node25&#45;&gt;Node8</title>
<path fill="none" stroke="midnightblue" d="M439.046,-436.614C515.328,-438.229 630.278,-438.86 730,-432 752.365,-430.462 776.788,-427.531 798.249,-424.531"/>
<polygon fill="midnightblue" stroke="midnightblue" points="439.085,-433.114 429.01,-436.391 438.929,-440.112 439.085,-433.114"/>
</g>
</g>
</svg>
