<?xml version="1.0" encoding="UTF-8" standalone="no"?>
<!DOCTYPE svg PUBLIC "-//W3C//DTD SVG 1.1//EN"
 "http://www.w3.org/Graphics/SVG/1.1/DTD/svg11.dtd">
<!-- Generated by graphviz version 2.36.0 (20140111.2315)
 -->
<!-- Title: backend.command.Command.parentIsList Pages: 1 -->
<svg width="890pt" height="136pt"
 viewBox="0.00 0.00 890.00 136.00" xmlns="http://www.w3.org/2000/svg" xmlns:xlink="http://www.w3.org/1999/xlink">
<g id="graph0" class="graph" transform="scale(1 1) rotate(0) translate(4 132)">
<title>backend.command.Command.parentIsList</title>
<polygon fill="white" stroke="none" points="-4,4 -4,-132 886,-132 886,4 -4,4"/>
<!-- Node1 -->
<g id="node1" class="node"><title>Node1</title>
<polygon fill="#bfbfbf" stroke="black" points="0.5,-73 0.5,-103 197.5,-103 197.5,-73 0.5,-73"/>
<text text-anchor="start" x="8.5" y="-91" font-family="Helvetica,sans-Serif" font-size="10.00">backend.command.Command.parent</text>
<text text-anchor="middle" x="99" y="-80" font-family="Helvetica,sans-Serif" font-size="10.00">IsList</text>
</g>
<!-- Node2 -->
<g id="node2" class="node"><title>Node2</title>
<g id="a_node2"><a xlink:href="../../dc/d83/classbackend_1_1command_1_1_command.html#ab12778aa04c91f6f26c3d7b98884bc12" target="_top" xlink:title="backend.command.Command.\lCommand">
<polygon fill="white" stroke="black" points="249.5,-98 249.5,-128 414.5,-128 414.5,-98 249.5,-98"/>
<text text-anchor="start" x="257.5" y="-116" font-family="Helvetica,sans-Serif" font-size="10.00">backend.command.Command.</text>
<text text-anchor="middle" x="332" y="-105" font-family="Helvetica,sans-Serif" font-size="10.00">Command</text>
</a>
</g>
</g>
<!-- Node1&#45;&gt;Node2 -->
<g id="edge1" class="edge"><title>Node1&#45;&gt;Node2</title>
<path fill="none" stroke="midnightblue" d="M207.781,-99.6647C221.776,-101.179 235.922,-102.71 249.393,-104.168"/>
<polygon fill="midnightblue" stroke="midnightblue" points="207.949,-96.1624 197.63,-98.566 207.195,-103.122 207.949,-96.1624"/>
</g>
<!-- Node3 -->
<g id="node3" class="node"><title>Node3</title>
<g id="a_node3"><a xlink:href="../../dc/d83/classbackend_1_1command_1_1_command.html#ae6daac55e32c39adcf91e40d0ae80d19" target="_top" xlink:title="backend.command.Command.indent\lString">
<polygon fill="white" stroke="black" points="234.5,-49 234.5,-79 429.5,-79 429.5,-49 234.5,-49"/>
<text text-anchor="start" x="242.5" y="-67" font-family="Helvetica,sans-Serif" font-size="10.00">backend.command.Command.indent</text>
<text text-anchor="middle" x="332" y="-56" font-family="Helvetica,sans-Serif" font-size="10.00">String</text>
</a>
</g>
</g>
<!-- Node1&#45;&gt;Node3 -->
<g id="edge2" class="edge"><title>Node1&#45;&gt;Node3</title>
<path fill="none" stroke="midnightblue" d="M207.679,-76.8125C216.614,-75.8842 225.612,-74.9494 234.457,-74.0305"/>
<polygon fill="midnightblue" stroke="midnightblue" points="207.215,-73.3419 197.63,-77.8566 207.938,-80.3044 207.215,-73.3419"/>
</g>
<!-- Node4 -->
<g id="node4" class="node"><title>Node4</title>
<g id="a_node4"><a xlink:href="../../d5/d3e/classbackend_1_1command_1_1_command_list.html#af427a74a7bc458045e15a395460d2a5a" target="_top" xlink:title="backend.command.CommandList.post\lParamsFormatString">
<polygon fill="white" stroke="black" points="466.5,-98 466.5,-128 669.5,-128 669.5,-98 466.5,-98"/>
<text text-anchor="start" x="474.5" y="-116" font-family="Helvetica,sans-Serif" font-size="10.00">backend.command.CommandList.post</text>
<text text-anchor="middle" x="568" y="-105" font-family="Helvetica,sans-Serif" font-size="10.00">ParamsFormatString</text>
</a>
</g>
</g>
<!-- Node3&#45;&gt;Node4 -->
<g id="edge3" class="edge"><title>Node3&#45;&gt;Node4</title>
<path fill="none" stroke="midnightblue" d="M414.722,-81.1127C440.981,-86.6115 469.857,-92.658 495.338,-97.9938"/>
<polygon fill="midnightblue" stroke="midnightblue" points="415.303,-77.6586 404.798,-79.0346 413.868,-84.51 415.303,-77.6586"/>
</g>
<!-- Node5 -->
<g id="node5" class="node"><title>Node5</title>
<g id="a_node5"><a xlink:href="../../d5/d3e/classbackend_1_1command_1_1_command_list.html#aaab71298167606e84682b5f456ea3475" target="_top" xlink:title="backend.command.CommandList.pre\lParamsFormatString">
<polygon fill="white" stroke="black" points="469.5,-49 469.5,-79 666.5,-79 666.5,-49 469.5,-49"/>
<text text-anchor="start" x="477.5" y="-67" font-family="Helvetica,sans-Serif" font-size="10.00">backend.command.CommandList.pre</text>
<text text-anchor="middle" x="568" y="-56" font-family="Helvetica,sans-Serif" font-size="10.00">ParamsFormatString</text>
</a>
</g>
</g>
<!-- Node3&#45;&gt;Node5 -->
<g id="edge4" class="edge"><title>Node3&#45;&gt;Node5</title>
<path fill="none" stroke="midnightblue" d="M439.713,-64C449.532,-64 459.448,-64 469.182,-64"/>
<polygon fill="midnightblue" stroke="midnightblue" points="439.528,-60.5001 429.528,-64 439.528,-67.5001 439.528,-60.5001"/>
</g>
<!-- Node6 -->
<g id="node6" class="node"><title>Node6</title>
<g id="a_node6"><a xlink:href="../../dc/d83/classbackend_1_1command_1_1_command.html#a76e855bf634004f877b68a2cdadc256f" target="_top" xlink:title="backend.command.Command.pre\lParamsFormatString">
<polygon fill="white" stroke="black" points="477.5,-0 477.5,-30 658.5,-30 658.5,-0 477.5,-0"/>
<text text-anchor="start" x="485.5" y="-18" font-family="Helvetica,sans-Serif" font-size="10.00">backend.command.Command.pre</text>
<text text-anchor="middle" x="568" y="-7" font-family="Helvetica,sans-Serif" font-size="10.00">ParamsFormatString</text>
</a>
</g>
</g>
<!-- Node3&#45;&gt;Node6 -->
<g id="edge5" class="edge"><title>Node3&#45;&gt;Node6</title>
<path fill="none" stroke="midnightblue" d="M414.722,-46.8873C440.981,-41.3885 469.857,-35.342 495.338,-30.0062"/>
<polygon fill="midnightblue" stroke="midnightblue" points="413.868,-43.49 404.798,-48.9654 415.303,-50.3414 413.868,-43.49"/>
</g>
<!-- Node7 -->
<g id="node7" class="node"><title>Node7</title>
<g id="a_node7"><a xlink:href="../../dc/d83/classbackend_1_1command_1_1_command.html#ade2d360ddca8d9edca2ebcd424a8745b" target="_top" xlink:title="backend.command.Command.to\lString">
<polygon fill="white" stroke="black" points="706.5,-0 706.5,-30 881.5,-30 881.5,-0 706.5,-0"/>
<text text-anchor="start" x="714.5" y="-18" font-family="Helvetica,sans-Serif" font-size="10.00">backend.command.Command.to</text>
<text text-anchor="middle" x="794" y="-7" font-family="Helvetica,sans-Serif" font-size="10.00">String</text>
</a>
</g>
</g>
<!-- Node6&#45;&gt;Node7 -->
<g id="edge6" class="edge"><title>Node6&#45;&gt;Node7</title>
<path fill="none" stroke="midnightblue" d="M668.823,-15C681.369,-15 694.12,-15 706.438,-15"/>
<polygon fill="midnightblue" stroke="midnightblue" points="668.819,-11.5001 658.819,-15 668.819,-18.5001 668.819,-11.5001"/>
</g>
</g>
</svg>
