<?xml version="1.0" encoding="UTF-8" standalone="no"?>
<!DOCTYPE svg PUBLIC "-//W3C//DTD SVG 1.1//EN"
 "http://www.w3.org/Graphics/SVG/1.1/DTD/svg11.dtd">
<!-- Generated by graphviz version 2.36.0 (20140111.2315)
 -->
<!-- Title: backend.command.Command.indentString Pages: 1 -->
<svg width="656pt" height="136pt"
 viewBox="0.00 0.00 656.00 136.00" xmlns="http://www.w3.org/2000/svg" xmlns:xlink="http://www.w3.org/1999/xlink">
<g id="graph0" class="graph" transform="scale(1 1) rotate(0) translate(4 132)">
<title>backend.command.Command.indentString</title>
<polygon fill="white" stroke="none" points="-4,4 -4,-132 652,-132 652,4 -4,4"/>
<!-- Node1 -->
<g id="node1" class="node"><title>Node1</title>
<polygon fill="#bfbfbf" stroke="black" points="0.5,-49 0.5,-79 195.5,-79 195.5,-49 0.5,-49"/>
<text text-anchor="start" x="8.5" y="-67" font-family="Helvetica,sans-Serif" font-size="10.00">backend.command.Command.indent</text>
<text text-anchor="middle" x="98" y="-56" font-family="Helvetica,sans-Serif" font-size="10.00">String</text>
</g>
<!-- Node2 -->
<g id="node2" class="node"><title>Node2</title>
<g id="a_node2"><a xlink:href="../../d5/d3e/classbackend_1_1command_1_1_command_list.html#af427a74a7bc458045e15a395460d2a5a" target="_top" xlink:title="backend.command.CommandList.post\lParamsFormatString">
<polygon fill="white" stroke="black" points="232.5,-98 232.5,-128 435.5,-128 435.5,-98 232.5,-98"/>
<text text-anchor="start" x="240.5" y="-116" font-family="Helvetica,sans-Serif" font-size="10.00">backend.command.CommandList.post</text>
<text text-anchor="middle" x="334" y="-105" font-family="Helvetica,sans-Serif" font-size="10.00">ParamsFormatString</text>
</a>
</g>
</g>
<!-- Node1&#45;&gt;Node2 -->
<g id="edge1" class="edge"><title>Node1&#45;&gt;Node2</title>
<path fill="none" stroke="midnightblue" d="M180.722,-81.1127C206.981,-86.6115 235.857,-92.658 261.338,-97.9938"/>
<polygon fill="midnightblue" stroke="midnightblue" points="181.303,-77.6586 170.798,-79.0346 179.868,-84.51 181.303,-77.6586"/>
</g>
<!-- Node3 -->
<g id="node3" class="node"><title>Node3</title>
<g id="a_node3"><a xlink:href="../../d5/d3e/classbackend_1_1command_1_1_command_list.html#aaab71298167606e84682b5f456ea3475" target="_top" xlink:title="backend.command.CommandList.pre\lParamsFormatString">
<polygon fill="white" stroke="black" points="235.5,-49 235.5,-79 432.5,-79 432.5,-49 235.5,-49"/>
<text text-anchor="start" x="243.5" y="-67" font-family="Helvetica,sans-Serif" font-size="10.00">backend.command.CommandList.pre</text>
<text text-anchor="middle" x="334" y="-56" font-family="Helvetica,sans-Serif" font-size="10.00">ParamsFormatString</text>
</a>
</g>
</g>
<!-- Node1&#45;&gt;Node3 -->
<g id="edge2" class="edge"><title>Node1&#45;&gt;Node3</title>
<path fill="none" stroke="midnightblue" d="M205.713,-64C215.532,-64 225.448,-64 235.182,-64"/>
<polygon fill="midnightblue" stroke="midnightblue" points="205.528,-60.5001 195.528,-64 205.528,-67.5001 205.528,-60.5001"/>
</g>
<!-- Node4 -->
<g id="node4" class="node"><title>Node4</title>
<g id="a_node4"><a xlink:href="../../dc/d83/classbackend_1_1command_1_1_command.html#a76e855bf634004f877b68a2cdadc256f" target="_top" xlink:title="backend.command.Command.pre\lParamsFormatString">
<polygon fill="white" stroke="black" points="243.5,-0 243.5,-30 424.5,-30 424.5,-0 243.5,-0"/>
<text text-anchor="start" x="251.5" y="-18" font-family="Helvetica,sans-Serif" font-size="10.00">backend.command.Command.pre</text>
<text text-anchor="middle" x="334" y="-7" font-family="Helvetica,sans-Serif" font-size="10.00">ParamsFormatString</text>
</a>
</g>
</g>
<!-- Node1&#45;&gt;Node4 -->
<g id="edge3" class="edge"><title>Node1&#45;&gt;Node4</title>
<path fill="none" stroke="midnightblue" d="M180.722,-46.8873C206.981,-41.3885 235.857,-35.342 261.338,-30.0062"/>
<polygon fill="midnightblue" stroke="midnightblue" points="179.868,-43.49 170.798,-48.9654 181.303,-50.3414 179.868,-43.49"/>
</g>
<!-- Node5 -->
<g id="node5" class="node"><title>Node5</title>
<g id="a_node5"><a xlink:href="../../dc/d83/classbackend_1_1command_1_1_command.html#ade2d360ddca8d9edca2ebcd424a8745b" target="_top" xlink:title="backend.command.Command.to\lString">
<polygon fill="white" stroke="black" points="472.5,-0 472.5,-30 647.5,-30 647.5,-0 472.5,-0"/>
<text text-anchor="start" x="480.5" y="-18" font-family="Helvetica,sans-Serif" font-size="10.00">backend.command.Command.to</text>
<text text-anchor="middle" x="560" y="-7" font-family="Helvetica,sans-Serif" font-size="10.00">String</text>
</a>
</g>
</g>
<!-- Node4&#45;&gt;Node5 -->
<g id="edge4" class="edge"><title>Node4&#45;&gt;Node5</title>
<path fill="none" stroke="midnightblue" d="M434.823,-15C447.369,-15 460.12,-15 472.438,-15"/>
<polygon fill="midnightblue" stroke="midnightblue" points="434.819,-11.5001 424.819,-15 434.819,-18.5001 434.819,-11.5001"/>
</g>
</g>
</svg>
