<?xml version="1.0" encoding="UTF-8" standalone="no"?>
<!DOCTYPE svg PUBLIC "-//W3C//DTD SVG 1.1//EN"
 "http://www.w3.org/Graphics/SVG/1.1/DTD/svg11.dtd">
<!-- Generated by graphviz version 2.36.0 (20140111.2315)
 -->
<!-- Title: backend.command.Command.preParamsFormatString Pages: 1 -->
<svg width="402pt" height="38pt"
 viewBox="0.00 0.00 402.00 38.00" xmlns="http://www.w3.org/2000/svg" xmlns:xlink="http://www.w3.org/1999/xlink">
<g id="graph0" class="graph" transform="scale(1 1) rotate(0) translate(4 34)">
<title>backend.command.Command.preParamsFormatString</title>
<polygon fill="white" stroke="none" points="-4,4 -4,-34 398,-34 398,4 -4,4"/>
<!-- Node1 -->
<g id="node1" class="node"><title>Node1</title>
<polygon fill="#bfbfbf" stroke="black" points="0.5,-0 0.5,-30 181.5,-30 181.5,-0 0.5,-0"/>
<text text-anchor="start" x="8.5" y="-18" font-family="Helvetica,sans-Serif" font-size="10.00">backend.command.Command.pre</text>
<text text-anchor="middle" x="91" y="-7" font-family="Helvetica,sans-Serif" font-size="10.00">ParamsFormatString</text>
</g>
<!-- Node2 -->
<g id="node2" class="node"><title>Node2</title>
<g id="a_node2"><a xlink:href="../../dc/d83/classbackend_1_1command_1_1_command.html#ade2d360ddca8d9edca2ebcd424a8745b" target="_top" xlink:title="backend.command.Command.to\lString">
<polygon fill="white" stroke="black" points="218.5,-0 218.5,-30 393.5,-30 393.5,-0 218.5,-0"/>
<text text-anchor="start" x="226.5" y="-18" font-family="Helvetica,sans-Serif" font-size="10.00">backend.command.Command.to</text>
<text text-anchor="middle" x="306" y="-7" font-family="Helvetica,sans-Serif" font-size="10.00">String</text>
</a>
</g>
</g>
<!-- Node1&#45;&gt;Node2 -->
<g id="edge1" class="edge"><title>Node1&#45;&gt;Node2</title>
<path fill="none" stroke="midnightblue" d="M191.747,-15C200.669,-15 209.655,-15 218.452,-15"/>
<polygon fill="midnightblue" stroke="midnightblue" points="191.714,-11.5001 181.714,-15 191.714,-18.5001 191.714,-11.5001"/>
</g>
</g>
</svg>
