<?xml version="1.0" encoding="UTF-8" standalone="no"?>
<!DOCTYPE svg PUBLIC "-//W3C//DTD SVG 1.1//EN"
 "http://www.w3.org/Graphics/SVG/1.1/DTD/svg11.dtd">
<!-- Generated by graphviz version 2.36.0 (20140111.2315)
 -->
<!-- Title: backend.command.Command.getTypedString Pages: 1 -->
<!--zoomable 263 -->
<svg id="main" version="1.1" xmlns="http://www.w3.org/2000/svg" xmlns:xlink="http://www.w3.org/1999/xlink" xml:space="preserve" onload="init(evt)">
<style type="text/css"><![CDATA[
.edge:hover path { stroke: red; }
.edge:hover polygon { stroke: red; fill: red; }
]]></style>
<script type="text/javascript"><![CDATA[
var edges = document.getElementsByTagName('g');
if (edges && edges.length) {
  for (var i=0;i<edges.length;i++) {
    if (edges[i].id.substr(0,4)=='edge') {
      edges[i].setAttribute('class','edge');
    }
  }
}
]]></script>
        <defs>
                <circle id="rim" cx="0" cy="0" r="7"/>
                <circle id="rim2" cx="0" cy="0" r="3.5"/>
                <g id="zoomPlus">
                        <use xlink:href="#rim" fill="#404040">
                                <set attributeName="fill" to="#808080" begin="zoomplus.mouseover" end="zoomplus.mouseout"/>
                        </use>
                        <path d="M-4,0h8M0,-4v8" fill="none" stroke="white" stroke-width="1.5" pointer-events="none"/>
                </g>
                <g id="zoomMin">
                        <use xlink:href="#rim" fill="#404040">
                                <set attributeName="fill" to="#808080" begin="zoomminus.mouseover" end="zoomminus.mouseout"/>
                        </use>
                        <path d="M-4,0h8" fill="none" stroke="white" stroke-width="1.5" pointer-events="none"/>
                </g>
                <g id="dirArrow">
                        <path fill="none" stroke="white" stroke-width="1.5" d="M0,-3.0v7 M-2.5,-0.5L0,-3.0L2.5,-0.5"/>
                </g>
               <g id="resetDef">
                       <use xlink:href="#rim2" fill="#404040">
                               <set attributeName="fill" to="#808080" begin="reset.mouseover" end="reset.mouseout"/>
                       </use>
               </g>
        </defs>

<script type="text/javascript">
var viewWidth = 868;
var viewHeight = 263;
var sectionId = 'dynsection-15';
</script>
<script xlink:href="../../svgpan.js"/>
<svg id="graph" class="graph">
<g id="viewport">
<title>backend.command.Command.getTypedString</title>
<polygon fill="white" stroke="none" points="-4,4 -4,-259 864,-259 864,4 -4,4"/>
<!-- Node1 -->
<g id="node1" class="node"><title>Node1</title>
<polygon fill="#bfbfbf" stroke="black" points="0.5,-151 0.5,-181 181.5,-181 181.5,-151 0.5,-151"/>
<text text-anchor="start" x="8.5" y="-169" font-family="Helvetica,sans-Serif" font-size="10.00">backend.command.Command.get</text>
<text text-anchor="middle" x="91" y="-158" font-family="Helvetica,sans-Serif" font-size="10.00">TypedString</text>
</g>
<!-- Node2 -->
<g id="node2" class="node"><title>Node2</title>
<g id="a_node2"><a xlink:href="../../de/dc9/classbackend_1_1command_1_1_variable_retriever.html#a8a0e1a59be79d1e08cd4d1d44227fc27" target="_top" xlink:title="backend.command.Variable\lRetriever.execute">
<polygon fill="white" stroke="black" points="242,-225 242,-255 392,-255 392,-225 242,-225"/>
<text text-anchor="start" x="250" y="-243" font-family="Helvetica,sans-Serif" font-size="10.00">backend.command.Variable</text>
<text text-anchor="middle" x="317" y="-232" font-family="Helvetica,sans-Serif" font-size="10.00">Retriever.execute</text>
</a>
</g>
</g>
<!-- Node1&#45;&gt;Node2 -->
<g id="edge1" class="edge"><title>Node1&#45;&gt;Node2</title>
<path fill="none" stroke="midnightblue" d="M136.916,-184.994C160.757,-194.686 190.696,-206.244 218,-215 229.035,-218.539 240.894,-221.915 252.419,-224.976"/>
<polygon fill="midnightblue" stroke="midnightblue" points="138.012,-181.661 127.432,-181.107 135.357,-188.138 138.012,-181.661"/>
</g>
<!-- Node3 -->
<g id="node3" class="node"><title>Node3</title>
<g id="a_node3"><a xlink:href="../../d5/d3e/classbackend_1_1command_1_1_command_list.html#aaab71298167606e84682b5f456ea3475" target="_top" xlink:title="backend.command.CommandList.pre\lParamsFormatString">
<polygon fill="white" stroke="black" points="218.5,-176 218.5,-206 415.5,-206 415.5,-176 218.5,-176"/>
<text text-anchor="start" x="226.5" y="-194" font-family="Helvetica,sans-Serif" font-size="10.00">backend.command.CommandList.pre</text>
<text text-anchor="middle" x="317" y="-183" font-family="Helvetica,sans-Serif" font-size="10.00">ParamsFormatString</text>
</a>
</g>
</g>
<!-- Node1&#45;&gt;Node3 -->
<g id="edge2" class="edge"><title>Node1&#45;&gt;Node3</title>
<path fill="none" stroke="midnightblue" d="M191.771,-177.135C200.636,-178.125 209.604,-179.125 218.45,-180.113"/>
<polygon fill="midnightblue" stroke="midnightblue" points="192.145,-173.655 181.819,-176.024 191.369,-180.612 192.145,-173.655"/>
</g>
<!-- Node4 -->
<g id="node4" class="node"><title>Node4</title>
<g id="a_node4"><a xlink:href="../../dc/d83/classbackend_1_1command_1_1_command.html#a76e855bf634004f877b68a2cdadc256f" target="_top" xlink:title="backend.command.Command.pre\lParamsFormatString">
<polygon fill="white" stroke="black" points="226.5,-127 226.5,-157 407.5,-157 407.5,-127 226.5,-127"/>
<text text-anchor="start" x="234.5" y="-145" font-family="Helvetica,sans-Serif" font-size="10.00">backend.command.Command.pre</text>
<text text-anchor="middle" x="317" y="-134" font-family="Helvetica,sans-Serif" font-size="10.00">ParamsFormatString</text>
</a>
</g>
</g>
<!-- Node1&#45;&gt;Node4 -->
<g id="edge3" class="edge"><title>Node1&#45;&gt;Node4</title>
<path fill="none" stroke="midnightblue" d="M191.815,-155.306C203.254,-154.08 214.864,-152.836 226.161,-151.626"/>
<polygon fill="midnightblue" stroke="midnightblue" points="191.389,-151.831 181.819,-156.377 192.135,-158.791 191.389,-151.831"/>
</g>
<!-- Node6 -->
<g id="node6" class="node"><title>Node6</title>
<g id="a_node6"><a xlink:href="../../d4/d4b/classbackend_1_1command_1_1_user_instruction_retriever.html#a0c307c83fd2ddbf0ad044af5e903daa9" target="_top" xlink:title="backend.command.UserInstruction\lRetriever.uic">
<polygon fill="white" stroke="black" points="224.5,-59 224.5,-89 409.5,-89 409.5,-59 224.5,-59"/>
<text text-anchor="start" x="232.5" y="-77" font-family="Helvetica,sans-Serif" font-size="10.00">backend.command.UserInstruction</text>
<text text-anchor="middle" x="317" y="-66" font-family="Helvetica,sans-Serif" font-size="10.00">Retriever.uic</text>
</a>
</g>
</g>
<!-- Node1&#45;&gt;Node6 -->
<g id="edge5" class="edge"><title>Node1&#45;&gt;Node6</title>
<path fill="none" stroke="midnightblue" d="M138.395,-146.945C180.197,-129.776 240.83,-104.873 279.328,-89.0616"/>
<polygon fill="midnightblue" stroke="midnightblue" points="136.91,-143.771 128.989,-150.808 139.569,-150.246 136.91,-143.771"/>
</g>
<!-- Node5 -->
<g id="node5" class="node"><title>Node5</title>
<g id="a_node5"><a xlink:href="../../dc/d83/classbackend_1_1command_1_1_command.html#ade2d360ddca8d9edca2ebcd424a8745b" target="_top" xlink:title="backend.command.Command.to\lString">
<polygon fill="white" stroke="black" points="457.5,-137 457.5,-167 632.5,-167 632.5,-137 457.5,-137"/>
<text text-anchor="start" x="465.5" y="-155" font-family="Helvetica,sans-Serif" font-size="10.00">backend.command.Command.to</text>
<text text-anchor="middle" x="545" y="-144" font-family="Helvetica,sans-Serif" font-size="10.00">String</text>
</a>
</g>
</g>
<!-- Node4&#45;&gt;Node5 -->
<g id="edge4" class="edge"><title>Node4&#45;&gt;Node5</title>
<path fill="none" stroke="midnightblue" d="M417.706,-146.412C430.942,-146.997 444.423,-147.594 457.412,-148.169"/>
<polygon fill="midnightblue" stroke="midnightblue" points="417.791,-142.912 407.646,-145.967 417.481,-149.905 417.791,-142.912"/>
</g>
<!-- Node7 -->
<g id="node7" class="node"><title>Node7</title>
<g id="a_node7"><a xlink:href="../../d4/d4b/classbackend_1_1command_1_1_user_instruction_retriever.html#a19a54335927c20b9d9121db5c8b2aea2" target="_top" xlink:title="backend.command.UserInstruction\lRetriever.UserInstructionRetriever">
<polygon fill="white" stroke="black" points="674.5,-71 674.5,-101 859.5,-101 859.5,-71 674.5,-71"/>
<text text-anchor="start" x="682.5" y="-89" font-family="Helvetica,sans-Serif" font-size="10.00">backend.command.UserInstruction</text>
<text text-anchor="middle" x="767" y="-78" font-family="Helvetica,sans-Serif" font-size="10.00">Retriever.UserInstructionRetriever</text>
</a>
</g>
</g>
<!-- Node6&#45;&gt;Node7 -->
<g id="edge6" class="edge"><title>Node6&#45;&gt;Node7</title>
<path fill="none" stroke="midnightblue" d="M420.098,-85.7794C430.857,-86.688 441.645,-87.4605 452,-88 534.555,-92.3009 555.336,-88.6458 638,-88 649.779,-87.908 662.167,-87.7683 674.407,-87.6047"/>
<polygon fill="midnightblue" stroke="midnightblue" points="420.076,-82.2639 409.806,-84.8698 419.459,-89.2367 420.076,-82.2639"/>
</g>
<!-- Node8 -->
<g id="node8" class="node"><title>Node8</title>
<g id="a_node8"><a xlink:href="../../d4/d4b/classbackend_1_1command_1_1_user_instruction_retriever.html#a6684b5a57a7bccaf574babfb865c2a9b" target="_top" xlink:title="backend.command.UserInstruction\lRetriever.getNumParams">
<polygon fill="white" stroke="black" points="452.5,-49 452.5,-79 637.5,-79 637.5,-49 452.5,-49"/>
<text text-anchor="start" x="460.5" y="-67" font-family="Helvetica,sans-Serif" font-size="10.00">backend.command.UserInstruction</text>
<text text-anchor="middle" x="545" y="-56" font-family="Helvetica,sans-Serif" font-size="10.00">Retriever.getNumParams</text>
</a>
</g>
</g>
<!-- Node6&#45;&gt;Node8 -->
<g id="edge7" class="edge"><title>Node6&#45;&gt;Node8</title>
<path fill="none" stroke="midnightblue" d="M419.888,-69.4917C430.68,-69.0142 441.607,-68.5307 452.273,-68.0587"/>
<polygon fill="midnightblue" stroke="midnightblue" points="419.433,-66.0083 409.597,-69.947 419.742,-73.0015 419.433,-66.0083"/>
</g>
<!-- Node9 -->
<g id="node9" class="node"><title>Node9</title>
<g id="a_node9"><a xlink:href="../../d4/d4b/classbackend_1_1command_1_1_user_instruction_retriever.html#ad63b2a8c91a5c60e4157a89830a3e6ef" target="_top" xlink:title="backend.command.UserInstruction\lRetriever.execute">
<polygon fill="white" stroke="black" points="452.5,-0 452.5,-30 637.5,-30 637.5,-0 452.5,-0"/>
<text text-anchor="start" x="460.5" y="-18" font-family="Helvetica,sans-Serif" font-size="10.00">backend.command.UserInstruction</text>
<text text-anchor="middle" x="545" y="-7" font-family="Helvetica,sans-Serif" font-size="10.00">Retriever.execute</text>
</a>
</g>
</g>
<!-- Node6&#45;&gt;Node9 -->
<g id="edge9" class="edge"><title>Node6&#45;&gt;Node9</title>
<path fill="none" stroke="midnightblue" d="M385.616,-56.3348C406.863,-50.785 430.41,-44.6358 452,-39 463.02,-36.1233 474.784,-33.0538 486.089,-30.1044"/>
<polygon fill="midnightblue" stroke="midnightblue" points="384.502,-53.0082 375.712,-58.922 386.271,-59.781 384.502,-53.0082"/>
</g>
<!-- Node8&#45;&gt;Node7 -->
<g id="edge8" class="edge"><title>Node8&#45;&gt;Node7</title>
<path fill="none" stroke="midnightblue" d="M647.725,-74.1725C656.636,-75.0636 665.62,-75.962 674.442,-76.8442"/>
<polygon fill="midnightblue" stroke="midnightblue" points="648.005,-70.6832 637.707,-73.1707 647.309,-77.6484 648.005,-70.6832"/>
</g>
</g>
</svg>
        <g id="navigator" transform="translate(0 0)" fill="#404254">
                <rect fill="#f2f5e9" fill-opacity="0.5" stroke="#606060" stroke-width=".5" x="0" y="0" width="60" height="60"/>
                <use id="zoomplus" xlink:href="#zoomPlus" x="17" y="9" onmousedown="handleZoom(evt,'in')"/>
                <use id="zoomminus" xlink:href="#zoomMin" x="42" y="9" onmousedown="handleZoom(evt,'out')"/>
                <use id="reset" xlink:href="#resetDef" x="30" y="36" onmousedown="handleReset()"/>
                <g id="arrowUp" xlink:href="#dirArrow" transform="translate(30 24)" onmousedown="handlePan(0,-1)">
                  <use xlink:href="#rim" fill="#404040">
                        <set attributeName="fill" to="#808080" begin="arrowUp.mouseover" end="arrowUp.mouseout"/>
                  </use>
                  <path fill="none" stroke="white" stroke-width="1.5" d="M0,-3.0v7 M-2.5,-0.5L0,-3.0L2.5,-0.5"/>
                </g>
                <g id="arrowRight" xlink:href="#dirArrow" transform="rotate(90) translate(36 -43)" onmousedown="handlePan(1,0)">
                  <use xlink:href="#rim" fill="#404040">
                        <set attributeName="fill" to="#808080" begin="arrowRight.mouseover" end="arrowRight.mouseout"/>
                  </use>
                  <path fill="none" stroke="white" stroke-width="1.5" d="M0,-3.0v7 M-2.5,-0.5L0,-3.0L2.5,-0.5"/>
                </g>
                <g id="arrowDown" xlink:href="#dirArrow" transform="rotate(180) translate(-30 -48)" onmousedown="handlePan(0,1)">
                  <use xlink:href="#rim" fill="#404040">
                        <set attributeName="fill" to="#808080" begin="arrowDown.mouseover" end="arrowDown.mouseout"/>
                  </use>
                  <path fill="none" stroke="white" stroke-width="1.5" d="M0,-3.0v7 M-2.5,-0.5L0,-3.0L2.5,-0.5"/>
                </g>
                <g id="arrowLeft" xlink:href="#dirArrow" transform="rotate(270) translate(-36 17)" onmousedown="handlePan(-1,0)">
                  <use xlink:href="#rim" fill="#404040">
                        <set attributeName="fill" to="#808080" begin="arrowLeft.mouseover" end="arrowLeft.mouseout"/>
                  </use>
                  <path fill="none" stroke="white" stroke-width="1.5" d="M0,-3.0v7 M-2.5,-0.5L0,-3.0L2.5,-0.5"/>
                </g>
        </g>
        <svg viewBox="0 0 15 15" width="100%" height="30px" preserveAspectRatio="xMaxYMin meet">
         <g id="arrow_out" transform="scale(0.3 0.3)">
          <a xlink:href="classbackend_1_1command_1_1_command_a30ab16925e876eb02790426a494a0516_icgraph_org.svg" target="_base">
           <rect id="button" ry="5" rx="5" y="6" x="6" height="38" width="38"
                fill="#f2f5e9" fill-opacity="0.5" stroke="#606060" stroke-width="1.0"/>
           <path id="arrow"
             d="M 11.500037,31.436501 C 11.940474,20.09759 22.043105,11.32322 32.158766,21.979434 L 37.068811,17.246167 C 37.068811,17.246167 37.088388,32 37.088388,32 L 22.160133,31.978069 C 22.160133,31.978069 26.997745,27.140456 26.997745,27.140456 C 18.528582,18.264221 13.291696,25.230495 11.500037,31.436501 z"
             style="fill:#404040;"/>
          </a>
         </g>
        </svg>
</svg>
