<?xml version="1.0" encoding="UTF-8" standalone="no"?>
<!DOCTYPE svg PUBLIC "-//W3C//DTD SVG 1.1//EN"
 "http://www.w3.org/Graphics/SVG/1.1/DTD/svg11.dtd">
<!-- Generated by graphviz version 2.36.0 (20140111.2315)
 -->
<!-- Title: backend.command.Command.needsParams Pages: 1 -->
<svg width="1144pt" height="53pt"
 viewBox="0.00 0.00 1144.00 53.00" xmlns="http://www.w3.org/2000/svg" xmlns:xlink="http://www.w3.org/1999/xlink">
<g id="graph0" class="graph" transform="scale(1 1) rotate(0) translate(4 49)">
<title>backend.command.Command.needsParams</title>
<polygon fill="white" stroke="none" points="-4,4 -4,-49 1140,-49 1140,4 -4,4"/>
<!-- Node1 -->
<g id="node1" class="node"><title>Node1</title>
<polygon fill="#bfbfbf" stroke="black" points="0,-1 0,-31 194,-31 194,-1 0,-1"/>
<text text-anchor="start" x="8" y="-19" font-family="Helvetica,sans-Serif" font-size="10.00">backend.command.Command.needs</text>
<text text-anchor="middle" x="97" y="-8" font-family="Helvetica,sans-Serif" font-size="10.00">Params</text>
</g>
<!-- Node2 -->
<g id="node2" class="node"><title>Node2</title>
<g id="a_node2"><a xlink:href="../../da/d26/classbackend_1_1_s_logo_parser.html#abf912baf814309e272be917bb52deb44" target="_top" xlink:title="backend.SLogoParser.bubbleUp">
<polygon fill="white" stroke="black" points="230,-25.5 230,-44.5 398,-44.5 398,-25.5 230,-25.5"/>
<text text-anchor="middle" x="314" y="-32.5" font-family="Helvetica,sans-Serif" font-size="10.00">backend.SLogoParser.bubbleUp</text>
</a>
</g>
</g>
<!-- Node1&#45;&gt;Node2 -->
<g id="edge1" class="edge"><title>Node1&#45;&gt;Node2</title>
<path fill="none" stroke="midnightblue" d="M204.212,-25.3861C212.772,-26.1426 221.342,-26.9 229.707,-27.6392"/>
<polygon fill="midnightblue" stroke="midnightblue" points="204.45,-21.8937 194.181,-24.4997 203.834,-28.8665 204.45,-21.8937"/>
</g>
<!-- Node3 -->
<g id="node3" class="node"><title>Node3</title>
<g id="a_node3"><a xlink:href="../../da/d26/classbackend_1_1_s_logo_parser.html#a86664390860bb0e249880e3116024485" target="_top" xlink:title="backend.SLogoParser.parse\lProgram">
<polygon fill="white" stroke="black" points="434.5,-1 434.5,-31 583.5,-31 583.5,-1 434.5,-1"/>
<text text-anchor="start" x="442.5" y="-19" font-family="Helvetica,sans-Serif" font-size="10.00">backend.SLogoParser.parse</text>
<text text-anchor="middle" x="509" y="-8" font-family="Helvetica,sans-Serif" font-size="10.00">Program</text>
</a>
</g>
</g>
<!-- Node1&#45;&gt;Node3 -->
<g id="edge6" class="edge"><title>Node1&#45;&gt;Node3</title>
<path fill="none" stroke="midnightblue" d="M204.168,-16C276.381,-16 370.103,-16 434.245,-16"/>
<polygon fill="midnightblue" stroke="midnightblue" points="204.127,-12.5001 194.127,-16 204.127,-19.5001 204.127,-12.5001"/>
</g>
<!-- Node2&#45;&gt;Node3 -->
<g id="edge2" class="edge"><title>Node2&#45;&gt;Node3</title>
<path fill="none" stroke="midnightblue" d="M408.457,-25.7996C417.179,-24.9409 425.935,-24.079 434.438,-23.2418"/>
<polygon fill="midnightblue" stroke="midnightblue" points="407.859,-22.3415 398.25,-26.8044 408.545,-29.3078 407.859,-22.3415"/>
</g>
<!-- Node4 -->
<g id="node4" class="node"><title>Node4</title>
<g id="a_node4"><a xlink:href="../../d3/dac/classbackend_1_1_model.html#adbef0c902e277446afa17a84278c15ba" target="_top" xlink:title="backend.Model.parseProgram">
<polygon fill="white" stroke="black" points="620,-6.5 620,-25.5 780,-25.5 780,-6.5 620,-6.5"/>
<text text-anchor="middle" x="700" y="-13.5" font-family="Helvetica,sans-Serif" font-size="10.00">backend.Model.parseProgram</text>
</a>
</g>
</g>
<!-- Node3&#45;&gt;Node4 -->
<g id="edge3" class="edge"><title>Node3&#45;&gt;Node4</title>
<path fill="none" stroke="midnightblue" d="M593.763,-16C602.473,-16 611.306,-16 619.961,-16"/>
<polygon fill="midnightblue" stroke="midnightblue" points="593.614,-12.5001 583.614,-16 593.613,-19.5001 593.614,-12.5001"/>
</g>
<!-- Node5 -->
<g id="node5" class="node"><title>Node5</title>
<g id="a_node5"><a xlink:href="../../d5/d8a/classgui_1_1_slogo_tab.html#a2a016875b2ea48fa761cd4408a78dd21" target="_top" xlink:title="gui.SlogoTab.setButtonActions">
<polygon fill="white" stroke="black" points="816,-6.5 816,-25.5 978,-25.5 978,-6.5 816,-6.5"/>
<text text-anchor="middle" x="897" y="-13.5" font-family="Helvetica,sans-Serif" font-size="10.00">gui.SlogoTab.setButtonActions</text>
</a>
</g>
</g>
<!-- Node4&#45;&gt;Node5 -->
<g id="edge4" class="edge"><title>Node4&#45;&gt;Node5</title>
<path fill="none" stroke="midnightblue" d="M790.083,-16C798.692,-16 807.389,-16 815.903,-16"/>
<polygon fill="midnightblue" stroke="midnightblue" points="790.033,-12.5001 780.033,-16 790.033,-19.5001 790.033,-12.5001"/>
</g>
<!-- Node6 -->
<g id="node6" class="node"><title>Node6</title>
<g id="a_node6"><a xlink:href="../../d5/d8a/classgui_1_1_slogo_tab.html#adaa134bc95e1dcf4eb30b3a185c75175" target="_top" xlink:title="gui.SlogoTab.SlogoTab">
<polygon fill="white" stroke="black" points="1014,-6.5 1014,-25.5 1136,-25.5 1136,-6.5 1014,-6.5"/>
<text text-anchor="middle" x="1075" y="-13.5" font-family="Helvetica,sans-Serif" font-size="10.00">gui.SlogoTab.SlogoTab</text>
</a>
</g>
</g>
<!-- Node5&#45;&gt;Node6 -->
<g id="edge5" class="edge"><title>Node5&#45;&gt;Node6</title>
<path fill="none" stroke="midnightblue" d="M988.235,-16C996.945,-16 1005.63,-16 1013.94,-16"/>
<polygon fill="midnightblue" stroke="midnightblue" points="988.018,-12.5001 978.018,-16 988.018,-19.5001 988.018,-12.5001"/>
</g>
</g>
</svg>
