<?xml version="1.0" encoding="UTF-8" standalone="no"?>
<!DOCTYPE svg PUBLIC "-//W3C//DTD SVG 1.1//EN"
 "http://www.w3.org/Graphics/SVG/1.1/DTD/svg11.dtd">
<!-- Generated by graphviz version 2.36.0 (20140111.2315)
 -->
<!-- Title: backend.command.Command.parentIsList Pages: 1 -->
<svg width="424pt" height="38pt"
 viewBox="0.00 0.00 424.00 38.00" xmlns="http://www.w3.org/2000/svg" xmlns:xlink="http://www.w3.org/1999/xlink">
<g id="graph0" class="graph" transform="scale(1 1) rotate(0) translate(4 34)">
<title>backend.command.Command.parentIsList</title>
<polygon fill="white" stroke="none" points="-4,4 -4,-34 420,-34 420,4 -4,4"/>
<!-- Node1 -->
<g id="node1" class="node"><title>Node1</title>
<polygon fill="#bfbfbf" stroke="black" points="0.5,-0 0.5,-30 197.5,-30 197.5,-0 0.5,-0"/>
<text text-anchor="start" x="8.5" y="-18" font-family="Helvetica,sans-Serif" font-size="10.00">backend.command.Command.parent</text>
<text text-anchor="middle" x="99" y="-7" font-family="Helvetica,sans-Serif" font-size="10.00">IsList</text>
</g>
<!-- Node2 -->
<g id="node2" class="node"><title>Node2</title>
<g id="a_node2"><a xlink:href="../../dc/d83/classbackend_1_1command_1_1_command.html#ac25177ccf23f2721bbe77b69a31c1bf7" target="_top" xlink:title="backend.command.Command.has\lParent">
<polygon fill="white" stroke="black" points="234,-0 234,-30 416,-30 416,-0 234,-0"/>
<text text-anchor="start" x="242" y="-18" font-family="Helvetica,sans-Serif" font-size="10.00">backend.command.Command.has</text>
<text text-anchor="middle" x="325" y="-7" font-family="Helvetica,sans-Serif" font-size="10.00">Parent</text>
</a>
</g>
</g>
<!-- Node1&#45;&gt;Node2 -->
<g id="edge1" class="edge"><title>Node1&#45;&gt;Node2</title>
<path fill="none" stroke="midnightblue" d="M197.598,-15C206.241,-15 215.001,-15 223.667,-15"/>
<polygon fill="midnightblue" stroke="midnightblue" points="223.783,-18.5001 233.783,-15 223.783,-11.5001 223.783,-18.5001"/>
</g>
</g>
</svg>
