<?xml version="1.0" encoding="UTF-8" standalone="no"?>
<!DOCTYPE svg PUBLIC "-//W3C//DTD SVG 1.1//EN"
 "http://www.w3.org/Graphics/SVG/1.1/DTD/svg11.dtd">
<!-- Generated by graphviz version 2.36.0 (20140111.2315)
 -->
<!-- Title: backend.command.Command.Command Pages: 1 -->
<svg width="626pt" height="126pt"
 viewBox="0.00 0.00 626.00 126.00" xmlns="http://www.w3.org/2000/svg" xmlns:xlink="http://www.w3.org/1999/xlink">
<g id="graph0" class="graph" transform="scale(1 1) rotate(0) translate(4 122)">
<title>backend.command.Command.Command</title>
<polygon fill="white" stroke="none" points="-4,4 -4,-122 622,-122 622,4 -4,4"/>
<!-- Node1 -->
<g id="node1" class="node"><title>Node1</title>
<polygon fill="#bfbfbf" stroke="black" points="0.5,-44 0.5,-74 165.5,-74 165.5,-44 0.5,-44"/>
<text text-anchor="start" x="8.5" y="-62" font-family="Helvetica,sans-Serif" font-size="10.00">backend.command.Command.</text>
<text text-anchor="middle" x="83" y="-51" font-family="Helvetica,sans-Serif" font-size="10.00">Command</text>
</g>
<!-- Node2 -->
<g id="node2" class="node"><title>Node2</title>
<g id="a_node2"><a xlink:href="../../dc/d83/classbackend_1_1command_1_1_command.html#ac19ee6bf2c5ad93f14686c449a6e6b5f" target="_top" xlink:title="backend.command.Command.get\lIndentLevel">
<polygon fill="white" stroke="black" points="210.5,-88 210.5,-118 391.5,-118 391.5,-88 210.5,-88"/>
<text text-anchor="start" x="218.5" y="-106" font-family="Helvetica,sans-Serif" font-size="10.00">backend.command.Command.get</text>
<text text-anchor="middle" x="301" y="-95" font-family="Helvetica,sans-Serif" font-size="10.00">IndentLevel</text>
</a>
</g>
</g>
<!-- Node1&#45;&gt;Node2 -->
<g id="edge1" class="edge"><title>Node1&#45;&gt;Node2</title>
<path fill="none" stroke="midnightblue" d="M157.731,-74.0192C176.568,-77.8564 196.957,-82.0097 216.256,-85.9411"/>
<polygon fill="midnightblue" stroke="midnightblue" points="215.738,-89.4072 226.235,-87.9738 217.135,-82.5481 215.738,-89.4072"/>
</g>
<!-- Node3 -->
<g id="node3" class="node"><title>Node3</title>
<g id="a_node3"><a xlink:href="../../dc/d83/classbackend_1_1command_1_1_command.html#ac25177ccf23f2721bbe77b69a31c1bf7" target="_top" xlink:title="backend.command.Command.has\lParent">
<polygon fill="white" stroke="black" points="436,-22 436,-52 618,-52 618,-22 436,-22"/>
<text text-anchor="start" x="444" y="-40" font-family="Helvetica,sans-Serif" font-size="10.00">backend.command.Command.has</text>
<text text-anchor="middle" x="527" y="-29" font-family="Helvetica,sans-Serif" font-size="10.00">Parent</text>
</a>
</g>
</g>
<!-- Node1&#45;&gt;Node3 -->
<g id="edge2" class="edge"><title>Node1&#45;&gt;Node3</title>
<path fill="none" stroke="midnightblue" d="M165.585,-54.9392C238.872,-51.2914 346.733,-45.9228 425.353,-42.0096"/>
<polygon fill="midnightblue" stroke="midnightblue" points="425.947,-45.4845 435.76,-41.4916 425.599,-38.4931 425.947,-45.4845"/>
</g>
<!-- Node4 -->
<g id="node4" class="node"><title>Node4</title>
<g id="a_node4"><a xlink:href="../../dc/d83/classbackend_1_1command_1_1_command.html#ae4958d8f2f7acc24eba656f35be19a84" target="_top" xlink:title="backend.command.Command.parent\lIsList">
<polygon fill="white" stroke="black" points="202.5,-0 202.5,-30 399.5,-30 399.5,-0 202.5,-0"/>
<text text-anchor="start" x="210.5" y="-18" font-family="Helvetica,sans-Serif" font-size="10.00">backend.command.Command.parent</text>
<text text-anchor="middle" x="301" y="-7" font-family="Helvetica,sans-Serif" font-size="10.00">IsList</text>
</a>
</g>
</g>
<!-- Node1&#45;&gt;Node4 -->
<g id="edge3" class="edge"><title>Node1&#45;&gt;Node4</title>
<path fill="none" stroke="midnightblue" d="M157.731,-43.9808C176.568,-40.1436 196.957,-35.9903 216.256,-32.0589"/>
<polygon fill="midnightblue" stroke="midnightblue" points="217.135,-35.4519 226.235,-30.0262 215.738,-28.5928 217.135,-35.4519"/>
</g>
<!-- Node4&#45;&gt;Node3 -->
<g id="edge4" class="edge"><title>Node4&#45;&gt;Node3</title>
<path fill="none" stroke="midnightblue" d="M399.598,-24.5855C408.241,-25.4344 417.001,-26.2947 425.667,-27.1458"/>
<polygon fill="midnightblue" stroke="midnightblue" points="425.489,-30.6451 435.783,-28.1394 426.173,-23.6787 425.489,-30.6451"/>
</g>
</g>
</svg>
