<?xml version="1.0" encoding="UTF-8" standalone="no"?>
<!DOCTYPE svg PUBLIC "-//W3C//DTD SVG 1.1//EN"
 "http://www.w3.org/Graphics/SVG/1.1/DTD/svg11.dtd">
<!-- Generated by graphviz version 2.36.0 (20140111.2315)
 -->
<!-- Title: backend.command.Command.getProperty Pages: 1 -->
<svg width="412pt" height="38pt"
 viewBox="0.00 0.00 412.00 38.00" xmlns="http://www.w3.org/2000/svg" xmlns:xlink="http://www.w3.org/1999/xlink">
<g id="graph0" class="graph" transform="scale(1 1) rotate(0) translate(4 34)">
<title>backend.command.Command.getProperty</title>
<polygon fill="white" stroke="none" points="-4,4 -4,-34 408,-34 408,4 -4,4"/>
<!-- Node1 -->
<g id="node1" class="node"><title>Node1</title>
<polygon fill="#bfbfbf" stroke="black" points="0.5,-0 0.5,-30 181.5,-30 181.5,-0 0.5,-0"/>
<text text-anchor="start" x="8.5" y="-18" font-family="Helvetica,sans-Serif" font-size="10.00">backend.command.Command.get</text>
<text text-anchor="middle" x="91" y="-7" font-family="Helvetica,sans-Serif" font-size="10.00">Property</text>
</g>
<!-- Node2 -->
<g id="node2" class="node"><title>Node2</title>
<g id="a_node2"><a xlink:href="../../d4/d4b/classbackend_1_1command_1_1_user_instruction_retriever.html#a19a54335927c20b9d9121db5c8b2aea2" target="_top" xlink:title="backend.command.UserInstruction\lRetriever.UserInstructionRetriever">
<polygon fill="white" stroke="black" points="218.5,-0 218.5,-30 403.5,-30 403.5,-0 218.5,-0"/>
<text text-anchor="start" x="226.5" y="-18" font-family="Helvetica,sans-Serif" font-size="10.00">backend.command.UserInstruction</text>
<text text-anchor="middle" x="311" y="-7" font-family="Helvetica,sans-Serif" font-size="10.00">Retriever.UserInstructionRetriever</text>
</a>
</g>
</g>
<!-- Node1&#45;&gt;Node2 -->
<g id="edge1" class="edge"><title>Node1&#45;&gt;Node2</title>
<path fill="none" stroke="midnightblue" d="M191.883,-15C200.675,-15 209.546,-15 218.266,-15"/>
<polygon fill="midnightblue" stroke="midnightblue" points="191.613,-11.5001 181.613,-15 191.613,-18.5001 191.613,-11.5001"/>
</g>
</g>
</svg>
