<?xml version="1.0" encoding="UTF-8" standalone="no"?>
<!DOCTYPE svg PUBLIC "-//W3C//DTD SVG 1.1//EN"
 "http://www.w3.org/Graphics/SVG/1.1/DTD/svg11.dtd">
<!-- Generated by graphviz version 2.36.0 (20140111.2315)
 -->
<!-- Title: backend.command.Command.execute Pages: 1 -->
<!--zoomable 153 -->
<svg id="main" version="1.1" xmlns="http://www.w3.org/2000/svg" xmlns:xlink="http://www.w3.org/1999/xlink" xml:space="preserve" onload="init(evt)">
<style type="text/css"><![CDATA[
.edge:hover path { stroke: red; }
.edge:hover polygon { stroke: red; fill: red; }
]]></style>
<script type="text/javascript"><![CDATA[
var edges = document.getElementsByTagName('g');
if (edges && edges.length) {
  for (var i=0;i<edges.length;i++) {
    if (edges[i].id.substr(0,4)=='edge') {
      edges[i].setAttribute('class','edge');
    }
  }
}
]]></script>
        <defs>
                <circle id="rim" cx="0" cy="0" r="7"/>
                <circle id="rim2" cx="0" cy="0" r="3.5"/>
                <g id="zoomPlus">
                        <use xlink:href="#rim" fill="#404040">
                                <set attributeName="fill" to="#808080" begin="zoomplus.mouseover" end="zoomplus.mouseout"/>
                        </use>
                        <path d="M-4,0h8M0,-4v8" fill="none" stroke="white" stroke-width="1.5" pointer-events="none"/>
                </g>
                <g id="zoomMin">
                        <use xlink:href="#rim" fill="#404040">
                                <set attributeName="fill" to="#808080" begin="zoomminus.mouseover" end="zoomminus.mouseout"/>
                        </use>
                        <path d="M-4,0h8" fill="none" stroke="white" stroke-width="1.5" pointer-events="none"/>
                </g>
                <g id="dirArrow">
                        <path fill="none" stroke="white" stroke-width="1.5" d="M0,-3.0v7 M-2.5,-0.5L0,-3.0L2.5,-0.5"/>
                </g>
               <g id="resetDef">
                       <use xlink:href="#rim2" fill="#404040">
                               <set attributeName="fill" to="#808080" begin="reset.mouseover" end="reset.mouseout"/>
                       </use>
               </g>
        </defs>

<script type="text/javascript">
var viewWidth = 964;
var viewHeight = 153;
var sectionId = 'dynsection-3';
</script>
<script xlink:href="../../svgpan.js"/>
<svg id="graph" class="graph">
<g id="viewport">
<title>backend.command.Command.execute</title>
<polygon fill="white" stroke="none" points="-4,4 -4,-149 960,-149 960,4 -4,4"/>
<!-- Node1 -->
<g id="node1" class="node"><title>Node1</title>
<polygon fill="#bfbfbf" stroke="black" points="0.5,-87.5 0.5,-106.5 203.5,-106.5 203.5,-87.5 0.5,-87.5"/>
<text text-anchor="middle" x="102" y="-94.5" font-family="Helvetica,sans-Serif" font-size="10.00">backend.command.Command.execute</text>
</g>
<!-- Node2 -->
<g id="node2" class="node"><title>Node2</title>
<g id="a_node2"><a xlink:href="../../d4/d75/classbackend_1_1command_1_1_ask.html#a453b95a58b91a82a2cca53f444a31ff6" target="_top" xlink:title="backend.command.Ask.execute">
<polygon fill="white" stroke="black" points="245,-125.5 245,-144.5 415,-144.5 415,-125.5 245,-125.5"/>
<text text-anchor="middle" x="330" y="-132.5" font-family="Helvetica,sans-Serif" font-size="10.00">backend.command.Ask.execute</text>
</a>
</g>
</g>
<!-- Node1&#45;&gt;Node2 -->
<g id="edge1" class="edge"><title>Node1&#45;&gt;Node2</title>
<path fill="none" stroke="midnightblue" d="M169.64,-108.205C202.241,-113.687 241.071,-120.215 272.239,-125.456"/>
<polygon fill="midnightblue" stroke="midnightblue" points="170.18,-104.747 159.738,-106.54 169.019,-111.65 170.18,-104.747"/>
</g>
<!-- Node3 -->
<g id="node3" class="node"><title>Node3</title>
<g id="a_node3"><a xlink:href="../../d3/dac/classbackend_1_1_model.html#a4ad1ab45a05d4bc905bd82c0cad71c2a" target="_top" xlink:title="backend.Model.executeCommand">
<polygon fill="white" stroke="black" points="240,-87.5 240,-106.5 420,-106.5 420,-87.5 240,-87.5"/>
<text text-anchor="middle" x="330" y="-94.5" font-family="Helvetica,sans-Serif" font-size="10.00">backend.Model.executeCommand</text>
</a>
</g>
</g>
<!-- Node1&#45;&gt;Node3 -->
<g id="edge2" class="edge"><title>Node1&#45;&gt;Node3</title>
<path fill="none" stroke="midnightblue" d="M213.935,-97C222.608,-97 231.298,-97 239.799,-97"/>
<polygon fill="midnightblue" stroke="midnightblue" points="213.772,-93.5001 203.772,-97 213.772,-100.5 213.772,-93.5001"/>
</g>
<!-- Node7 -->
<g id="node7" class="node"><title>Node7</title>
<g id="a_node7"><a xlink:href="../../d3/dac/classbackend_1_1_model.html#a35eb5f238db8bb7d76ebf7f820643a2b" target="_top" xlink:title="backend.Model.executeNext\lCommand">
<polygon fill="white" stroke="black" points="254,-38 254,-68 406,-68 406,-38 254,-38"/>
<text text-anchor="start" x="262" y="-56" font-family="Helvetica,sans-Serif" font-size="10.00">backend.Model.executeNext</text>
<text text-anchor="middle" x="330" y="-45" font-family="Helvetica,sans-Serif" font-size="10.00">Command</text>
</a>
</g>
</g>
<!-- Node1&#45;&gt;Node7 -->
<g id="edge6" class="edge"><title>Node1&#45;&gt;Node7</title>
<path fill="none" stroke="midnightblue" d="M162.091,-85.4955C190.137,-80.0352 223.97,-73.4484 253.821,-67.6366"/>
<polygon fill="midnightblue" stroke="midnightblue" points="161.185,-82.1061 152.039,-87.4527 162.523,-88.9771 161.185,-82.1061"/>
</g>
<!-- Node4 -->
<g id="node4" class="node"><title>Node4</title>
<g id="a_node4"><a xlink:href="../../d5/d8a/classgui_1_1_slogo_tab.html#a9ccb322bec15528476c85f84e53f14d9" target="_top" xlink:title="gui.SlogoTab.updatePanels">
<polygon fill="white" stroke="black" points="456,-87.5 456,-106.5 600,-106.5 600,-87.5 456,-87.5"/>
<text text-anchor="middle" x="528" y="-94.5" font-family="Helvetica,sans-Serif" font-size="10.00">gui.SlogoTab.updatePanels</text>
</a>
</g>
</g>
<!-- Node3&#45;&gt;Node4 -->
<g id="edge3" class="edge"><title>Node3&#45;&gt;Node4</title>
<path fill="none" stroke="midnightblue" d="M430.205,-97C438.813,-97 447.408,-97 455.725,-97"/>
<polygon fill="midnightblue" stroke="midnightblue" points="430.111,-93.5001 420.11,-97 430.11,-100.5 430.111,-93.5001"/>
</g>
<!-- Node5 -->
<g id="node5" class="node"><title>Node5</title>
<g id="a_node5"><a xlink:href="../../d5/d8a/classgui_1_1_slogo_tab.html#a2a016875b2ea48fa761cd4408a78dd21" target="_top" xlink:title="gui.SlogoTab.setButtonActions">
<polygon fill="white" stroke="black" points="636,-49.5 636,-68.5 798,-68.5 798,-49.5 636,-49.5"/>
<text text-anchor="middle" x="717" y="-56.5" font-family="Helvetica,sans-Serif" font-size="10.00">gui.SlogoTab.setButtonActions</text>
</a>
</g>
</g>
<!-- Node4&#45;&gt;Node5 -->
<g id="edge4" class="edge"><title>Node4&#45;&gt;Node5</title>
<path fill="none" stroke="midnightblue" d="M586.131,-85.3905C612.727,-79.986 643.973,-73.6365 669.151,-68.5201"/>
<polygon fill="midnightblue" stroke="midnightblue" points="585.291,-81.9896 576.188,-87.411 586.685,-88.8494 585.291,-81.9896"/>
</g>
<!-- Node6 -->
<g id="node6" class="node"><title>Node6</title>
<g id="a_node6"><a xlink:href="../../d5/d8a/classgui_1_1_slogo_tab.html#adaa134bc95e1dcf4eb30b3a185c75175" target="_top" xlink:title="gui.SlogoTab.SlogoTab">
<polygon fill="white" stroke="black" points="834,-49.5 834,-68.5 956,-68.5 956,-49.5 834,-49.5"/>
<text text-anchor="middle" x="895" y="-56.5" font-family="Helvetica,sans-Serif" font-size="10.00">gui.SlogoTab.SlogoTab</text>
</a>
</g>
</g>
<!-- Node5&#45;&gt;Node6 -->
<g id="edge5" class="edge"><title>Node5&#45;&gt;Node6</title>
<path fill="none" stroke="midnightblue" d="M808.235,-59C816.945,-59 825.626,-59 833.936,-59"/>
<polygon fill="midnightblue" stroke="midnightblue" points="808.018,-55.5001 798.018,-59 808.018,-62.5001 808.018,-55.5001"/>
</g>
<!-- Node7&#45;&gt;Node5 -->
<g id="edge9" class="edge"><title>Node7&#45;&gt;Node5</title>
<path fill="none" stroke="midnightblue" d="M416.437,-54.3315C481.903,-55.3517 571.593,-56.7495 635.734,-57.7491"/>
<polygon fill="midnightblue" stroke="midnightblue" points="416.199,-50.8274 406.146,-54.1711 416.09,-57.8266 416.199,-50.8274"/>
</g>
<!-- Node8 -->
<g id="node8" class="node"><title>Node8</title>
<g id="a_node8"><a xlink:href="../../d3/dac/classbackend_1_1_model.html#a6f4aa1ad8c07ad86d249671d525fbea3" target="_top" xlink:title="backend.Model.executeAll\lCommands">
<polygon fill="white" stroke="black" points="457.5,-0 457.5,-30 598.5,-30 598.5,-0 457.5,-0"/>
<text text-anchor="start" x="465.5" y="-18" font-family="Helvetica,sans-Serif" font-size="10.00">backend.Model.executeAll</text>
<text text-anchor="middle" x="528" y="-7" font-family="Helvetica,sans-Serif" font-size="10.00">Commands</text>
</a>
</g>
</g>
<!-- Node7&#45;&gt;Node8 -->
<g id="edge7" class="edge"><title>Node7&#45;&gt;Node8</title>
<path fill="none" stroke="midnightblue" d="M416.179,-36.4858C429.963,-33.8132 444.092,-31.0739 457.449,-28.4843"/>
<polygon fill="midnightblue" stroke="midnightblue" points="415.369,-33.0775 406.218,-38.4169 416.702,-39.9495 415.369,-33.0775"/>
</g>
<!-- Node8&#45;&gt;Node5 -->
<g id="edge8" class="edge"><title>Node8&#45;&gt;Node5</title>
<path fill="none" stroke="midnightblue" d="M602.605,-32.3187C627.45,-38.1648 654.261,-44.4732 675.572,-49.4876"/>
<polygon fill="midnightblue" stroke="midnightblue" points="603.368,-28.9027 592.832,-30.0192 601.764,-35.7167 603.368,-28.9027"/>
</g>
</g>
</svg>
        <g id="navigator" transform="translate(0 0)" fill="#404254">
                <rect fill="#f2f5e9" fill-opacity="0.5" stroke="#606060" stroke-width=".5" x="0" y="0" width="60" height="60"/>
                <use id="zoomplus" xlink:href="#zoomPlus" x="17" y="9" onmousedown="handleZoom(evt,'in')"/>
                <use id="zoomminus" xlink:href="#zoomMin" x="42" y="9" onmousedown="handleZoom(evt,'out')"/>
                <use id="reset" xlink:href="#resetDef" x="30" y="36" onmousedown="handleReset()"/>
                <g id="arrowUp" xlink:href="#dirArrow" transform="translate(30 24)" onmousedown="handlePan(0,-1)">
                  <use xlink:href="#rim" fill="#404040">
                        <set attributeName="fill" to="#808080" begin="arrowUp.mouseover" end="arrowUp.mouseout"/>
                  </use>
                  <path fill="none" stroke="white" stroke-width="1.5" d="M0,-3.0v7 M-2.5,-0.5L0,-3.0L2.5,-0.5"/>
                </g>
                <g id="arrowRight" xlink:href="#dirArrow" transform="rotate(90) translate(36 -43)" onmousedown="handlePan(1,0)">
                  <use xlink:href="#rim" fill="#404040">
                        <set attributeName="fill" to="#808080" begin="arrowRight.mouseover" end="arrowRight.mouseout"/>
                  </use>
                  <path fill="none" stroke="white" stroke-width="1.5" d="M0,-3.0v7 M-2.5,-0.5L0,-3.0L2.5,-0.5"/>
                </g>
                <g id="arrowDown" xlink:href="#dirArrow" transform="rotate(180) translate(-30 -48)" onmousedown="handlePan(0,1)">
                  <use xlink:href="#rim" fill="#404040">
                        <set attributeName="fill" to="#808080" begin="arrowDown.mouseover" end="arrowDown.mouseout"/>
                  </use>
                  <path fill="none" stroke="white" stroke-width="1.5" d="M0,-3.0v7 M-2.5,-0.5L0,-3.0L2.5,-0.5"/>
                </g>
                <g id="arrowLeft" xlink:href="#dirArrow" transform="rotate(270) translate(-36 17)" onmousedown="handlePan(-1,0)">
                  <use xlink:href="#rim" fill="#404040">
                        <set attributeName="fill" to="#808080" begin="arrowLeft.mouseover" end="arrowLeft.mouseout"/>
                  </use>
                  <path fill="none" stroke="white" stroke-width="1.5" d="M0,-3.0v7 M-2.5,-0.5L0,-3.0L2.5,-0.5"/>
                </g>
        </g>
        <svg viewBox="0 0 15 15" width="100%" height="30px" preserveAspectRatio="xMaxYMin meet">
         <g id="arrow_out" transform="scale(0.3 0.3)">
          <a xlink:href="classbackend_1_1command_1_1_command_af87287df30654e3519de27f646d0684d_icgraph_org.svg" target="_base">
           <rect id="button" ry="5" rx="5" y="6" x="6" height="38" width="38"
                fill="#f2f5e9" fill-opacity="0.5" stroke="#606060" stroke-width="1.0"/>
           <path id="arrow"
             d="M 11.500037,31.436501 C 11.940474,20.09759 22.043105,11.32322 32.158766,21.979434 L 37.068811,17.246167 C 37.068811,17.246167 37.088388,32 37.088388,32 L 22.160133,31.978069 C 22.160133,31.978069 26.997745,27.140456 26.997745,27.140456 C 18.528582,18.264221 13.291696,25.230495 11.500037,31.436501 z"
             style="fill:#404040;"/>
          </a>
         </g>
        </svg>
</svg>
