<?xml version="1.0" encoding="UTF-8" standalone="no"?>
<!DOCTYPE svg PUBLIC "-//W3C//DTD SVG 1.1//EN"
 "http://www.w3.org/Graphics/SVG/1.1/DTD/svg11.dtd">
<!-- Generated by graphviz version 2.36.0 (20140111.2315)
 -->
<!-- Title: backend.command.Repeat.execute Pages: 1 -->
<svg width="1106pt" height="165pt"
 viewBox="0.00 0.00 1106.00 164.64" xmlns="http://www.w3.org/2000/svg" xmlns:xlink="http://www.w3.org/1999/xlink">
<g id="graph0" class="graph" transform="scale(1 1) rotate(0) translate(4 160.64)">
<title>backend.command.Repeat.execute</title>
<polygon fill="white" stroke="none" points="-4,4 -4,-160.64 1102,-160.64 1102,4 -4,4"/>
<!-- Node1 -->
<g id="node1" class="node"><title>Node1</title>
<polygon fill="#bfbfbf" stroke="black" points="0,-125.5 0,-144.5 186,-144.5 186,-125.5 0,-125.5"/>
<text text-anchor="middle" x="93" y="-132.5" font-family="Helvetica,sans-Serif" font-size="10.00">backend.command.Repeat.execute</text>
</g>
<!-- Node2 -->
<g id="node2" class="node"><title>Node2</title>
<g id="a_node2"><a xlink:href="../../dc/d83/classbackend_1_1command_1_1_command.html#ae218516ae55b1b0d4820d55c901793ea" target="_top" xlink:title="backend.command.Command.execute\lParam">
<polygon fill="white" stroke="black" points="676.5,-126 676.5,-156 879.5,-156 879.5,-126 676.5,-126"/>
<text text-anchor="start" x="684.5" y="-144" font-family="Helvetica,sans-Serif" font-size="10.00">backend.command.Command.execute</text>
<text text-anchor="middle" x="778" y="-133" font-family="Helvetica,sans-Serif" font-size="10.00">Param</text>
</a>
</g>
</g>
<!-- Node1&#45;&gt;Node2 -->
<g id="edge1" class="edge"><title>Node1&#45;&gt;Node2</title>
<path fill="none" stroke="midnightblue" d="M186.288,-142.827C294.877,-150.966 480.595,-161.546 640,-154 648.583,-153.594 657.458,-153.045 666.374,-152.402"/>
<polygon fill="midnightblue" stroke="midnightblue" points="666.738,-155.884 676.445,-151.638 666.209,-148.904 666.738,-155.884"/>
</g>
<!-- Node3 -->
<g id="node3" class="node"><title>Node3</title>
<g id="a_node3"><a xlink:href="../../de/d1a/classbackend_1_1command_1_1_for.html#ab76f75506018a6dc4787ded9ba77212a" target="_top" xlink:title="backend.command.For.forLoop">
<polygon fill="white" stroke="black" points="222.5,-87.5 222.5,-106.5 387.5,-106.5 387.5,-87.5 222.5,-87.5"/>
<text text-anchor="middle" x="305" y="-94.5" font-family="Helvetica,sans-Serif" font-size="10.00">backend.command.For.forLoop</text>
</a>
</g>
</g>
<!-- Node1&#45;&gt;Node3 -->
<g id="edge2" class="edge"><title>Node1&#45;&gt;Node3</title>
<path fill="none" stroke="midnightblue" d="M146.721,-125.46C175.429,-120.265 211.137,-113.804 241.27,-108.351"/>
<polygon fill="midnightblue" stroke="midnightblue" points="242.041,-111.769 251.258,-106.544 240.794,-104.88 242.041,-111.769"/>
</g>
<!-- Node4 -->
<g id="node4" class="node"><title>Node4</title>
<g id="a_node4"><a xlink:href="../../de/d1a/classbackend_1_1command_1_1_for.html#af670f94af1ef47bb0bf1128faa43b8bd" target="_top" xlink:title="backend.command.For.end">
<polygon fill="white" stroke="black" points="458.5,-125.5 458.5,-144.5 605.5,-144.5 605.5,-125.5 458.5,-125.5"/>
<text text-anchor="middle" x="532" y="-132.5" font-family="Helvetica,sans-Serif" font-size="10.00">backend.command.For.end</text>
</a>
</g>
</g>
<!-- Node3&#45;&gt;Node4 -->
<g id="edge3" class="edge"><title>Node3&#45;&gt;Node4</title>
<path fill="none" stroke="midnightblue" d="M362.487,-106.54C393.379,-111.757 431.837,-118.253 464.21,-123.72"/>
<polygon fill="midnightblue" stroke="midnightblue" points="464.047,-127.242 474.49,-125.456 465.213,-120.34 464.047,-127.242"/>
</g>
<!-- Node6 -->
<g id="node6" class="node"><title>Node6</title>
<g id="a_node6"><a xlink:href="../../dc/d83/classbackend_1_1command_1_1_command.html#a606032e5ef26d465113f65e6e3c09bef" target="_top" xlink:title="backend.command.Command.get\lParam">
<polygon fill="white" stroke="black" points="916.5,-63 916.5,-93 1097.5,-93 1097.5,-63 916.5,-63"/>
<text text-anchor="start" x="924.5" y="-81" font-family="Helvetica,sans-Serif" font-size="10.00">backend.command.Command.get</text>
<text text-anchor="middle" x="1007" y="-70" font-family="Helvetica,sans-Serif" font-size="10.00">Param</text>
</a>
</g>
</g>
<!-- Node3&#45;&gt;Node6 -->
<g id="edge7" class="edge"><title>Node3&#45;&gt;Node6</title>
<path fill="none" stroke="midnightblue" d="M354.015,-87.487C375.352,-83.7215 400.834,-79.8531 424,-78 592.652,-64.509 789.675,-68.6666 905.8,-73.1572"/>
<polygon fill="midnightblue" stroke="midnightblue" points="905.96,-76.6661 916.09,-73.5642 906.237,-69.6716 905.96,-76.6661"/>
</g>
<!-- Node7 -->
<g id="node7" class="node"><title>Node7</title>
<g id="a_node7"><a xlink:href="../../de/d1a/classbackend_1_1command_1_1_for.html#a1ef90c6eeba84aa760be374aff817eea" target="_top" xlink:title="backend.command.For.increment">
<polygon fill="white" stroke="black" points="443,-87.5 443,-106.5 621,-106.5 621,-87.5 443,-87.5"/>
<text text-anchor="middle" x="532" y="-94.5" font-family="Helvetica,sans-Serif" font-size="10.00">backend.command.For.increment</text>
</a>
</g>
</g>
<!-- Node3&#45;&gt;Node7 -->
<g id="edge8" class="edge"><title>Node3&#45;&gt;Node7</title>
<path fill="none" stroke="midnightblue" d="M387.548,-97C402.16,-97 417.528,-97 432.556,-97"/>
<polygon fill="midnightblue" stroke="midnightblue" points="432.892,-100.5 442.892,-97 432.892,-93.5001 432.892,-100.5"/>
</g>
<!-- Node8 -->
<g id="node8" class="node"><title>Node8</title>
<g id="a_node8"><a xlink:href="../../dc/d67/classbackend_1_1command_1_1_model_command.html#a1900a3c4024fdcd4f3b82e1916a4bb3e" target="_top" xlink:title="backend.command.ModelCommand.user\lVariables">
<polygon fill="white" stroke="black" points="424.5,-0 424.5,-30 639.5,-30 639.5,-0 424.5,-0"/>
<text text-anchor="start" x="432.5" y="-18" font-family="Helvetica,sans-Serif" font-size="10.00">backend.command.ModelCommand.user</text>
<text text-anchor="middle" x="532" y="-7" font-family="Helvetica,sans-Serif" font-size="10.00">Variables</text>
</a>
</g>
</g>
<!-- Node3&#45;&gt;Node8 -->
<g id="edge11" class="edge"><title>Node3&#45;&gt;Node8</title>
<path fill="none" stroke="midnightblue" d="M325.282,-87.4886C348.368,-76.3398 388.385,-57.7674 424,-45 436.157,-40.642 449.271,-36.512 462.012,-32.7887"/>
<polygon fill="midnightblue" stroke="midnightblue" points="463.011,-36.1433 471.66,-30.0236 461.083,-29.4142 463.011,-36.1433"/>
</g>
<!-- Node4&#45;&gt;Node2 -->
<g id="edge4" class="edge"><title>Node4&#45;&gt;Node2</title>
<path fill="none" stroke="midnightblue" d="M605.547,-136.784C624.622,-137.253 645.637,-137.77 666.223,-138.276"/>
<polygon fill="midnightblue" stroke="midnightblue" points="666.201,-141.776 676.284,-138.523 666.373,-134.779 666.201,-141.776"/>
</g>
<!-- Node5 -->
<g id="node5" class="node"><title>Node5</title>
<g id="a_node5"><a xlink:href="../../de/d1a/classbackend_1_1command_1_1_for.html#abf257ca6f2249bf7a47998beec1ac0cc" target="_top" xlink:title="backend.command.For.forVarList">
<polygon fill="white" stroke="black" points="691,-87.5 691,-106.5 865,-106.5 865,-87.5 691,-87.5"/>
<text text-anchor="middle" x="778" y="-94.5" font-family="Helvetica,sans-Serif" font-size="10.00">backend.command.For.forVarList</text>
</a>
</g>
</g>
<!-- Node4&#45;&gt;Node5 -->
<g id="edge5" class="edge"><title>Node4&#45;&gt;Node5</title>
<path fill="none" stroke="midnightblue" d="M594.257,-125.46C628.048,-120.197 670.186,-113.635 705.481,-108.138"/>
<polygon fill="midnightblue" stroke="midnightblue" points="706.376,-111.541 715.718,-106.544 705.299,-104.624 706.376,-111.541"/>
</g>
<!-- Node5&#45;&gt;Node6 -->
<g id="edge6" class="edge"><title>Node5&#45;&gt;Node6</title>
<path fill="none" stroke="midnightblue" d="M865.143,-89.7898C878.436,-88.6772 892.261,-87.52 905.828,-86.3844"/>
<polygon fill="midnightblue" stroke="midnightblue" points="906.467,-89.8433 916.14,-85.5213 905.883,-82.8677 906.467,-89.8433"/>
</g>
<!-- Node7&#45;&gt;Node2 -->
<g id="edge9" class="edge"><title>Node7&#45;&gt;Node2</title>
<path fill="none" stroke="midnightblue" d="M586.894,-106.518C603.888,-109.534 622.731,-112.891 640,-116 654.639,-118.635 670.155,-121.448 685.28,-124.201"/>
<polygon fill="midnightblue" stroke="midnightblue" points="684.685,-127.65 695.15,-125.998 685.939,-120.763 684.685,-127.65"/>
</g>
<!-- Node7&#45;&gt;Node5 -->
<g id="edge10" class="edge"><title>Node7&#45;&gt;Node5</title>
<path fill="none" stroke="midnightblue" d="M621.09,-97C640.386,-97 660.912,-97 680.517,-97"/>
<polygon fill="midnightblue" stroke="midnightblue" points="680.674,-100.5 690.674,-97 680.674,-93.5001 680.674,-100.5"/>
</g>
<!-- Node9 -->
<g id="node9" class="node"><title>Node9</title>
<g id="a_node9"><a xlink:href="../../d3/dac/classbackend_1_1_model.html#a834151b5a74c7a2a136f51ed6a1a709f" target="_top" xlink:title="backend.Model.getUserVariables">
<polygon fill="white" stroke="black" points="691.5,-5.5 691.5,-24.5 864.5,-24.5 864.5,-5.5 691.5,-5.5"/>
<text text-anchor="middle" x="778" y="-12.5" font-family="Helvetica,sans-Serif" font-size="10.00">backend.Model.getUserVariables</text>
</a>
</g>
</g>
<!-- Node8&#45;&gt;Node9 -->
<g id="edge12" class="edge"><title>Node8&#45;&gt;Node9</title>
<path fill="none" stroke="midnightblue" d="M639.667,-15C653.462,-15 667.523,-15 681.13,-15"/>
<polygon fill="midnightblue" stroke="midnightblue" points="681.434,-18.5001 691.434,-15 681.434,-11.5001 681.434,-18.5001"/>
</g>
</g>
</svg>
