<?xml version="1.0" encoding="UTF-8" standalone="no"?>
<!DOCTYPE svg PUBLIC "-//W3C//DTD SVG 1.1//EN"
 "http://www.w3.org/Graphics/SVG/1.1/DTD/svg11.dtd">
<!-- Generated by graphviz version 2.36.0 (20140111.2315)
 -->
<!-- Title: backend.command.UserInstructionRetriever.uic Pages: 1 -->
<svg width="638pt" height="110pt"
 viewBox="0.00 0.00 638.00 110.00" xmlns="http://www.w3.org/2000/svg" xmlns:xlink="http://www.w3.org/1999/xlink">
<g id="graph0" class="graph" transform="scale(1 1) rotate(0) translate(4 106)">
<title>backend.command.UserInstructionRetriever.uic</title>
<polygon fill="white" stroke="none" points="-4,4 -4,-106 634,-106 634,4 -4,4"/>
<!-- Node1 -->
<g id="node1" class="node"><title>Node1</title>
<polygon fill="#bfbfbf" stroke="black" points="0.5,-23 0.5,-53 185.5,-53 185.5,-23 0.5,-23"/>
<text text-anchor="start" x="8.5" y="-41" font-family="Helvetica,sans-Serif" font-size="10.00">backend.command.UserInstruction</text>
<text text-anchor="middle" x="93" y="-30" font-family="Helvetica,sans-Serif" font-size="10.00">Retriever.uic</text>
</g>
<!-- Node2 -->
<g id="node2" class="node"><title>Node2</title>
<g id="a_node2"><a xlink:href="../../d4/d4b/classbackend_1_1command_1_1_user_instruction_retriever.html#ad63b2a8c91a5c60e4157a89830a3e6ef" target="_top" xlink:title="backend.command.UserInstruction\lRetriever.execute">
<polygon fill="white" stroke="black" points="222.5,-72 222.5,-102 407.5,-102 407.5,-72 222.5,-72"/>
<text text-anchor="start" x="230.5" y="-90" font-family="Helvetica,sans-Serif" font-size="10.00">backend.command.UserInstruction</text>
<text text-anchor="middle" x="315" y="-79" font-family="Helvetica,sans-Serif" font-size="10.00">Retriever.execute</text>
</a>
</g>
</g>
<!-- Node1&#45;&gt;Node2 -->
<g id="edge1" class="edge"><title>Node1&#45;&gt;Node2</title>
<path fill="none" stroke="midnightblue" d="M171.485,-55.2581C195.999,-60.718 222.88,-66.705 246.625,-71.9938"/>
<polygon fill="midnightblue" stroke="midnightblue" points="172.024,-51.7924 161.502,-53.0346 170.502,-58.625 172.024,-51.7924"/>
</g>
<!-- Node3 -->
<g id="node3" class="node"><title>Node3</title>
<g id="a_node3"><a xlink:href="../../d4/d4b/classbackend_1_1command_1_1_user_instruction_retriever.html#a6684b5a57a7bccaf574babfb865c2a9b" target="_top" xlink:title="backend.command.UserInstruction\lRetriever.getNumParams">
<polygon fill="white" stroke="black" points="222.5,-23 222.5,-53 407.5,-53 407.5,-23 222.5,-23"/>
<text text-anchor="start" x="230.5" y="-41" font-family="Helvetica,sans-Serif" font-size="10.00">backend.command.UserInstruction</text>
<text text-anchor="middle" x="315" y="-30" font-family="Helvetica,sans-Serif" font-size="10.00">Retriever.getNumParams</text>
</a>
</g>
</g>
<!-- Node1&#45;&gt;Node3 -->
<g id="edge2" class="edge"><title>Node1&#45;&gt;Node3</title>
<path fill="none" stroke="midnightblue" d="M195.725,-38C204.636,-38 213.62,-38 222.442,-38"/>
<polygon fill="midnightblue" stroke="midnightblue" points="195.707,-34.5001 185.707,-38 195.707,-41.5001 195.707,-34.5001"/>
</g>
<!-- Node4 -->
<g id="node4" class="node"><title>Node4</title>
<g id="a_node4"><a xlink:href="../../d4/d4b/classbackend_1_1command_1_1_user_instruction_retriever.html#a19a54335927c20b9d9121db5c8b2aea2" target="_top" xlink:title="backend.command.UserInstruction\lRetriever.UserInstructionRetriever">
<polygon fill="white" stroke="black" points="444.5,-1 444.5,-31 629.5,-31 629.5,-1 444.5,-1"/>
<text text-anchor="start" x="452.5" y="-19" font-family="Helvetica,sans-Serif" font-size="10.00">backend.command.UserInstruction</text>
<text text-anchor="middle" x="537" y="-8" font-family="Helvetica,sans-Serif" font-size="10.00">Retriever.UserInstructionRetriever</text>
</a>
</g>
</g>
<!-- Node1&#45;&gt;Node4 -->
<g id="edge4" class="edge"><title>Node1&#45;&gt;Node4</title>
<path fill="none" stroke="midnightblue" d="M171.321,-21.1182C187.958,-18.1559 205.501,-15.5334 222,-14 296.636,-7.06327 381.682,-8.15508 444.423,-10.6522"/>
<polygon fill="midnightblue" stroke="midnightblue" points="170.298,-17.7476 161.097,-22.9998 171.565,-24.6319 170.298,-17.7476"/>
</g>
<!-- Node3&#45;&gt;Node4 -->
<g id="edge3" class="edge"><title>Node3&#45;&gt;Node4</title>
<path fill="none" stroke="midnightblue" d="M417.725,-27.8275C426.636,-26.9364 435.62,-26.038 444.442,-25.1558"/>
<polygon fill="midnightblue" stroke="midnightblue" points="417.309,-24.3516 407.707,-28.8293 418.005,-31.3168 417.309,-24.3516"/>
</g>
</g>
</svg>
