<?xml version="1.0" encoding="UTF-8" standalone="no"?>
<!DOCTYPE svg PUBLIC "-//W3C//DTD SVG 1.1//EN"
 "http://www.w3.org/Graphics/SVG/1.1/DTD/svg11.dtd">
<!-- Generated by graphviz version 2.36.0 (20140111.2315)
 -->
<!-- Title: backend.command.UserInstructionRetriever.genVariables Pages: 1 -->
<svg width="656pt" height="126pt"
 viewBox="0.00 0.00 656.00 126.00" xmlns="http://www.w3.org/2000/svg" xmlns:xlink="http://www.w3.org/1999/xlink">
<g id="graph0" class="graph" transform="scale(1 1) rotate(0) translate(4 122)">
<title>backend.command.UserInstructionRetriever.genVariables</title>
<polygon fill="white" stroke="none" points="-4,4 -4,-122 652,-122 652,4 -4,4"/>
<!-- Node1 -->
<g id="node1" class="node"><title>Node1</title>
<polygon fill="#bfbfbf" stroke="black" points="0.5,-44 0.5,-74 185.5,-74 185.5,-44 0.5,-44"/>
<text text-anchor="start" x="8.5" y="-62" font-family="Helvetica,sans-Serif" font-size="10.00">backend.command.UserInstruction</text>
<text text-anchor="middle" x="93" y="-51" font-family="Helvetica,sans-Serif" font-size="10.00">Retriever.genVariables</text>
</g>
<!-- Node2 -->
<g id="node2" class="node"><title>Node2</title>
<g id="a_node2"><a xlink:href="../../dc/d83/classbackend_1_1command_1_1_command.html#a606032e5ef26d465113f65e6e3c09bef" target="_top" xlink:title="backend.command.Command.get\lParam">
<polygon fill="white" stroke="black" points="239.5,-88 239.5,-118 420.5,-118 420.5,-88 239.5,-88"/>
<text text-anchor="start" x="247.5" y="-106" font-family="Helvetica,sans-Serif" font-size="10.00">backend.command.Command.get</text>
<text text-anchor="middle" x="330" y="-95" font-family="Helvetica,sans-Serif" font-size="10.00">Param</text>
</a>
</g>
</g>
<!-- Node1&#45;&gt;Node2 -->
<g id="edge1" class="edge"><title>Node1&#45;&gt;Node2</title>
<path fill="none" stroke="midnightblue" d="M174.216,-74.0192C194.993,-77.9092 217.504,-82.1241 238.756,-86.1032"/>
<polygon fill="midnightblue" stroke="midnightblue" points="238.273,-89.5736 248.746,-87.9738 239.561,-82.6931 238.273,-89.5736"/>
</g>
<!-- Node3 -->
<g id="node3" class="node"><title>Node3</title>
<g id="a_node3"><a xlink:href="../../d5/d3e/classbackend_1_1command_1_1_command_list.html#a81522f7b7fd90b061859c19e891d738b" target="_top" xlink:title="backend.command.CommandList.size">
<polygon fill="white" stroke="black" points="230,-49.5 230,-68.5 430,-68.5 430,-49.5 230,-49.5"/>
<text text-anchor="middle" x="330" y="-56.5" font-family="Helvetica,sans-Serif" font-size="10.00">backend.command.CommandList.size</text>
</a>
</g>
</g>
<!-- Node1&#45;&gt;Node3 -->
<g id="edge2" class="edge"><title>Node1&#45;&gt;Node3</title>
<path fill="none" stroke="midnightblue" d="M185.53,-59C196.794,-59 208.392,-59 219.883,-59"/>
<polygon fill="midnightblue" stroke="midnightblue" points="219.943,-62.5001 229.943,-59 219.943,-55.5001 219.943,-62.5001"/>
</g>
<!-- Node4 -->
<g id="node4" class="node"><title>Node4</title>
<g id="a_node4"><a xlink:href="../../dc/d67/classbackend_1_1command_1_1_model_command.html#a1900a3c4024fdcd4f3b82e1916a4bb3e" target="_top" xlink:title="backend.command.ModelCommand.user\lVariables">
<polygon fill="white" stroke="black" points="222.5,-0 222.5,-30 437.5,-30 437.5,-0 222.5,-0"/>
<text text-anchor="start" x="230.5" y="-18" font-family="Helvetica,sans-Serif" font-size="10.00">backend.command.ModelCommand.user</text>
<text text-anchor="middle" x="330" y="-7" font-family="Helvetica,sans-Serif" font-size="10.00">Variables</text>
</a>
</g>
</g>
<!-- Node1&#45;&gt;Node4 -->
<g id="edge3" class="edge"><title>Node1&#45;&gt;Node4</title>
<path fill="none" stroke="midnightblue" d="M174.216,-43.9808C194.993,-40.0908 217.504,-35.8759 238.756,-31.8968"/>
<polygon fill="midnightblue" stroke="midnightblue" points="239.561,-35.3069 248.746,-30.0262 238.273,-28.4264 239.561,-35.3069"/>
</g>
<!-- Node5 -->
<g id="node5" class="node"><title>Node5</title>
<g id="a_node5"><a xlink:href="../../d3/dac/classbackend_1_1_model.html#a834151b5a74c7a2a136f51ed6a1a709f" target="_top" xlink:title="backend.Model.getUserVariables">
<polygon fill="white" stroke="black" points="474.5,-5.5 474.5,-24.5 647.5,-24.5 647.5,-5.5 474.5,-5.5"/>
<text text-anchor="middle" x="561" y="-12.5" font-family="Helvetica,sans-Serif" font-size="10.00">backend.Model.getUserVariables</text>
</a>
</g>
</g>
<!-- Node4&#45;&gt;Node5 -->
<g id="edge4" class="edge"><title>Node4&#45;&gt;Node5</title>
<path fill="none" stroke="midnightblue" d="M437.79,-15C446.59,-15 455.451,-15 464.163,-15"/>
<polygon fill="midnightblue" stroke="midnightblue" points="464.311,-18.5001 474.311,-15 464.311,-11.5001 464.311,-18.5001"/>
</g>
</g>
</svg>
