<?xml version="1.0" encoding="UTF-8" standalone="no"?>
<!DOCTYPE svg PUBLIC "-//W3C//DTD SVG 1.1//EN"
 "http://www.w3.org/Graphics/SVG/1.1/DTD/svg11.dtd">
<!-- Generated by graphviz version 2.36.0 (20140111.2315)
 -->
<!-- Title: backend.command.UserInstructionRetriever.execute Pages: 1 -->
<svg width="934pt" height="262pt"
 viewBox="0.00 0.00 934.00 262.00" xmlns="http://www.w3.org/2000/svg" xmlns:xlink="http://www.w3.org/1999/xlink">
<g id="graph0" class="graph" transform="scale(1 1) rotate(0) translate(4 258)">
<title>backend.command.UserInstructionRetriever.execute</title>
<polygon fill="white" stroke="none" points="-4,4 -4,-258 930,-258 930,4 -4,4"/>
<!-- Node1 -->
<g id="node1" class="node"><title>Node1</title>
<polygon fill="#bfbfbf" stroke="black" points="0.5,-107 0.5,-137 185.5,-137 185.5,-107 0.5,-107"/>
<text text-anchor="start" x="8.5" y="-125" font-family="Helvetica,sans-Serif" font-size="10.00">backend.command.UserInstruction</text>
<text text-anchor="middle" x="93" y="-114" font-family="Helvetica,sans-Serif" font-size="10.00">Retriever.execute</text>
</g>
<!-- Node2 -->
<g id="node2" class="node"><title>Node2</title>
<g id="a_node2"><a xlink:href="../../d5/d3e/classbackend_1_1command_1_1_command_list.html#ae5beded9a63a3c832a596cee8177a6d1" target="_top" xlink:title="backend.command.CommandList.execute">
<polygon fill="white" stroke="black" points="222,-224.5 222,-243.5 442,-243.5 442,-224.5 222,-224.5"/>
<text text-anchor="middle" x="332" y="-231.5" font-family="Helvetica,sans-Serif" font-size="10.00">backend.command.CommandList.execute</text>
</a>
</g>
</g>
<!-- Node1&#45;&gt;Node2 -->
<g id="edge1" class="edge"><title>Node1&#45;&gt;Node2</title>
<path fill="none" stroke="midnightblue" d="M117.404,-137.006C142.581,-152.749 184.114,-177.581 222,-195 243.97,-205.101 269.365,-214.322 290.112,-221.259"/>
<polygon fill="midnightblue" stroke="midnightblue" points="289.296,-224.675 299.889,-224.474 291.483,-218.025 289.296,-224.675"/>
</g>
<!-- Node4 -->
<g id="node4" class="node"><title>Node4</title>
<g id="a_node4"><a xlink:href="../../d4/d4b/classbackend_1_1command_1_1_user_instruction_retriever.html#ab3f52c78c36f90b0e945239a316d6ecb" target="_top" xlink:title="backend.command.UserInstruction\lRetriever.genVariables">
<polygon fill="white" stroke="black" points="239.5,-156 239.5,-186 424.5,-186 424.5,-156 239.5,-156"/>
<text text-anchor="start" x="247.5" y="-174" font-family="Helvetica,sans-Serif" font-size="10.00">backend.command.UserInstruction</text>
<text text-anchor="middle" x="332" y="-163" font-family="Helvetica,sans-Serif" font-size="10.00">Retriever.genVariables</text>
</a>
</g>
</g>
<!-- Node1&#45;&gt;Node4 -->
<g id="edge3" class="edge"><title>Node1&#45;&gt;Node4</title>
<path fill="none" stroke="midnightblue" d="M166.718,-137.035C192.539,-142.373 221.785,-148.42 248.372,-153.917"/>
<polygon fill="midnightblue" stroke="midnightblue" points="247.918,-157.397 258.419,-155.994 249.335,-150.542 247.918,-157.397"/>
</g>
<!-- Node9 -->
<g id="node9" class="node"><title>Node9</title>
<g id="a_node9"><a xlink:href="../../de/dfb/classbackend_1_1_user_instruction_container.html#a319e6581125e10f4fa2c18096ac31bb0" target="_top" xlink:title="backend.UserInstructionContainer.get\lCommands">
<polygon fill="white" stroke="black" points="233.5,-107 233.5,-137 430.5,-137 430.5,-107 233.5,-107"/>
<text text-anchor="start" x="241.5" y="-125" font-family="Helvetica,sans-Serif" font-size="10.00">backend.UserInstructionContainer.get</text>
<text text-anchor="middle" x="332" y="-114" font-family="Helvetica,sans-Serif" font-size="10.00">Commands</text>
</a>
</g>
</g>
<!-- Node1&#45;&gt;Node9 -->
<g id="edge8" class="edge"><title>Node1&#45;&gt;Node9</title>
<path fill="none" stroke="midnightblue" d="M185.63,-122C197.964,-122 210.708,-122 223.288,-122"/>
<polygon fill="midnightblue" stroke="midnightblue" points="223.331,-125.5 233.331,-122 223.331,-118.5 223.331,-125.5"/>
</g>
<!-- Node10 -->
<g id="node10" class="node"><title>Node10</title>
<g id="a_node10"><a xlink:href="../../de/dfb/classbackend_1_1_user_instruction_container.html#a6e5e63dbdcca20b622f83054e7886546" target="_top" xlink:title="backend.UserInstructionContainer.get\lVarNames">
<polygon fill="white" stroke="black" points="233.5,-58 233.5,-88 430.5,-88 430.5,-58 233.5,-58"/>
<text text-anchor="start" x="241.5" y="-76" font-family="Helvetica,sans-Serif" font-size="10.00">backend.UserInstructionContainer.get</text>
<text text-anchor="middle" x="332" y="-65" font-family="Helvetica,sans-Serif" font-size="10.00">VarNames</text>
</a>
</g>
</g>
<!-- Node1&#45;&gt;Node10 -->
<g id="edge9" class="edge"><title>Node1&#45;&gt;Node10</title>
<path fill="none" stroke="midnightblue" d="M166.718,-106.965C192.539,-101.627 221.785,-95.5802 248.372,-90.0834"/>
<polygon fill="midnightblue" stroke="midnightblue" points="249.335,-93.4585 258.419,-88.0062 247.918,-86.6034 249.335,-93.4585"/>
</g>
<!-- Node11 -->
<g id="node11" class="node"><title>Node11</title>
<g id="a_node11"><a xlink:href="../../d4/d4b/classbackend_1_1command_1_1_user_instruction_retriever.html#a0c307c83fd2ddbf0ad044af5e903daa9" target="_top" xlink:title="backend.command.UserInstruction\lRetriever.uic">
<polygon fill="white" stroke="black" points="239.5,-9 239.5,-39 424.5,-39 424.5,-9 239.5,-9"/>
<text text-anchor="start" x="247.5" y="-27" font-family="Helvetica,sans-Serif" font-size="10.00">backend.command.UserInstruction</text>
<text text-anchor="middle" x="332" y="-16" font-family="Helvetica,sans-Serif" font-size="10.00">Retriever.uic</text>
</a>
</g>
</g>
<!-- Node1&#45;&gt;Node11 -->
<g id="edge10" class="edge"><title>Node1&#45;&gt;Node11</title>
<path fill="none" stroke="midnightblue" d="M115.61,-106.712C140.252,-89.9615 182.281,-63.4264 222,-48 227.749,-45.7672 233.753,-43.7186 239.861,-41.843"/>
<polygon fill="midnightblue" stroke="midnightblue" points="240.894,-45.1874 249.521,-39.0362 238.941,-38.4654 240.894,-45.1874"/>
</g>
<!-- Node3 -->
<g id="node3" class="node"><title>Node3</title>
<g id="a_node3"><a xlink:href="../../d5/d3e/classbackend_1_1command_1_1_command_list.html#aa44d828a10cdb92269df06f9cd5cdeff" target="_top" xlink:title="backend.command.CommandList.executeList">
<polygon fill="white" stroke="black" points="478,-234.5 478,-253.5 714,-253.5 714,-234.5 478,-234.5"/>
<text text-anchor="middle" x="596" y="-241.5" font-family="Helvetica,sans-Serif" font-size="10.00">backend.command.CommandList.executeList</text>
</a>
</g>
</g>
<!-- Node2&#45;&gt;Node3 -->
<g id="edge2" class="edge"><title>Node2&#45;&gt;Node3</title>
<path fill="none" stroke="midnightblue" d="M442.214,-238.168C450.692,-238.492 459.294,-238.82 467.874,-239.148"/>
<polygon fill="midnightblue" stroke="midnightblue" points="467.802,-242.648 477.928,-239.532 468.069,-235.653 467.802,-242.648"/>
</g>
<!-- Node5 -->
<g id="node5" class="node"><title>Node5</title>
<g id="a_node5"><a xlink:href="../../d5/d3e/classbackend_1_1command_1_1_command_list.html#a81522f7b7fd90b061859c19e891d738b" target="_top" xlink:title="backend.command.CommandList.size">
<polygon fill="white" stroke="black" points="496,-196.5 496,-215.5 696,-215.5 696,-196.5 496,-196.5"/>
<text text-anchor="middle" x="596" y="-203.5" font-family="Helvetica,sans-Serif" font-size="10.00">backend.command.CommandList.size</text>
</a>
</g>
</g>
<!-- Node4&#45;&gt;Node5 -->
<g id="edge4" class="edge"><title>Node4&#45;&gt;Node5</title>
<path fill="none" stroke="midnightblue" d="M424.635,-183.241C453.548,-187.104 485.282,-191.343 513.444,-195.105"/>
<polygon fill="midnightblue" stroke="midnightblue" points="513.27,-198.613 523.645,-196.468 514.197,-191.675 513.27,-198.613"/>
</g>
<!-- Node6 -->
<g id="node6" class="node"><title>Node6</title>
<g id="a_node6"><a xlink:href="../../dc/d83/classbackend_1_1command_1_1_command.html#a606032e5ef26d465113f65e6e3c09bef" target="_top" xlink:title="backend.command.Command.get\lParam">
<polygon fill="white" stroke="black" points="505.5,-147 505.5,-177 686.5,-177 686.5,-147 505.5,-147"/>
<text text-anchor="start" x="513.5" y="-165" font-family="Helvetica,sans-Serif" font-size="10.00">backend.command.Command.get</text>
<text text-anchor="middle" x="596" y="-154" font-family="Helvetica,sans-Serif" font-size="10.00">Param</text>
</a>
</g>
</g>
<!-- Node4&#45;&gt;Node6 -->
<g id="edge5" class="edge"><title>Node4&#45;&gt;Node6</title>
<path fill="none" stroke="midnightblue" d="M424.635,-167.852C447.387,-167.071 471.886,-166.229 495.015,-165.435"/>
<polygon fill="midnightblue" stroke="midnightblue" points="495.31,-168.927 505.184,-165.085 495.07,-161.931 495.31,-168.927"/>
</g>
<!-- Node7 -->
<g id="node7" class="node"><title>Node7</title>
<g id="a_node7"><a xlink:href="../../dc/d67/classbackend_1_1command_1_1_model_command.html#a1900a3c4024fdcd4f3b82e1916a4bb3e" target="_top" xlink:title="backend.command.ModelCommand.user\lVariables">
<polygon fill="white" stroke="black" points="488.5,-98 488.5,-128 703.5,-128 703.5,-98 488.5,-98"/>
<text text-anchor="start" x="496.5" y="-116" font-family="Helvetica,sans-Serif" font-size="10.00">backend.command.ModelCommand.user</text>
<text text-anchor="middle" x="596" y="-105" font-family="Helvetica,sans-Serif" font-size="10.00">Variables</text>
</a>
</g>
</g>
<!-- Node4&#45;&gt;Node7 -->
<g id="edge6" class="edge"><title>Node4&#45;&gt;Node7</title>
<path fill="none" stroke="midnightblue" d="M399.626,-155.936C413.634,-152.708 428.312,-149.28 442,-146 458.038,-142.156 461.918,-140.658 478,-137 488.113,-134.7 498.74,-132.382 509.294,-130.142"/>
<polygon fill="midnightblue" stroke="midnightblue" points="510.308,-133.506 519.372,-128.021 508.866,-126.656 510.308,-133.506"/>
</g>
<!-- Node8 -->
<g id="node8" class="node"><title>Node8</title>
<g id="a_node8"><a xlink:href="../../d3/dac/classbackend_1_1_model.html#a834151b5a74c7a2a136f51ed6a1a709f" target="_top" xlink:title="backend.Model.getUserVariables">
<polygon fill="white" stroke="black" points="751.5,-103.5 751.5,-122.5 924.5,-122.5 924.5,-103.5 751.5,-103.5"/>
<text text-anchor="middle" x="838" y="-110.5" font-family="Helvetica,sans-Serif" font-size="10.00">backend.Model.getUserVariables</text>
</a>
</g>
</g>
<!-- Node7&#45;&gt;Node8 -->
<g id="edge7" class="edge"><title>Node7&#45;&gt;Node8</title>
<path fill="none" stroke="midnightblue" d="M703.665,-113C716.087,-113 728.701,-113 740.967,-113"/>
<polygon fill="midnightblue" stroke="midnightblue" points="741.177,-116.5 751.177,-113 741.177,-109.5 741.177,-116.5"/>
</g>
<!-- Node12 -->
<g id="node12" class="node"><title>Node12</title>
<g id="a_node12"><a xlink:href="../../dc/d67/classbackend_1_1command_1_1_model_command.html#a73e8a709d97712856afafc9b8557d0cf" target="_top" xlink:title="backend.command.ModelCommand.user\lInstructions">
<polygon fill="white" stroke="black" points="488.5,-49 488.5,-79 703.5,-79 703.5,-49 488.5,-49"/>
<text text-anchor="start" x="496.5" y="-67" font-family="Helvetica,sans-Serif" font-size="10.00">backend.command.ModelCommand.user</text>
<text text-anchor="middle" x="596" y="-56" font-family="Helvetica,sans-Serif" font-size="10.00">Instructions</text>
</a>
</g>
</g>
<!-- Node11&#45;&gt;Node12 -->
<g id="edge11" class="edge"><title>Node11&#45;&gt;Node12</title>
<path fill="none" stroke="midnightblue" d="M424.635,-37.9901C444.671,-41.0491 466.062,-44.3149 486.68,-47.4626"/>
<polygon fill="midnightblue" stroke="midnightblue" points="486.317,-50.9476 496.73,-48.997 487.373,-44.0278 486.317,-50.9476"/>
</g>
<!-- Node14 -->
<g id="node14" class="node"><title>Node14</title>
<g id="a_node14"><a xlink:href="../../dc/d83/classbackend_1_1command_1_1_command.html#a30ab16925e876eb02790426a494a0516" target="_top" xlink:title="backend.command.Command.get\lTypedString">
<polygon fill="white" stroke="black" points="505.5,-0 505.5,-30 686.5,-30 686.5,-0 505.5,-0"/>
<text text-anchor="start" x="513.5" y="-18" font-family="Helvetica,sans-Serif" font-size="10.00">backend.command.Command.get</text>
<text text-anchor="middle" x="596" y="-7" font-family="Helvetica,sans-Serif" font-size="10.00">TypedString</text>
</a>
</g>
</g>
<!-- Node11&#45;&gt;Node14 -->
<g id="edge13" class="edge"><title>Node11&#45;&gt;Node14</title>
<path fill="none" stroke="midnightblue" d="M424.635,-20.8522C447.387,-20.0707 471.886,-19.2291 495.015,-18.4346"/>
<polygon fill="midnightblue" stroke="midnightblue" points="495.31,-21.9266 505.184,-18.0853 495.07,-14.9308 495.31,-21.9266"/>
</g>
<!-- Node13 -->
<g id="node13" class="node"><title>Node13</title>
<g id="a_node13"><a xlink:href="../../d3/dac/classbackend_1_1_model.html#aed0f0ffe97b8ccaf1394797941f8e54c" target="_top" xlink:title="backend.Model.getUserFunctions">
<polygon fill="white" stroke="black" points="750.5,-54.5 750.5,-73.5 925.5,-73.5 925.5,-54.5 750.5,-54.5"/>
<text text-anchor="middle" x="838" y="-61.5" font-family="Helvetica,sans-Serif" font-size="10.00">backend.Model.getUserFunctions</text>
</a>
</g>
</g>
<!-- Node12&#45;&gt;Node13 -->
<g id="edge12" class="edge"><title>Node12&#45;&gt;Node13</title>
<path fill="none" stroke="midnightblue" d="M703.665,-64C715.891,-64 728.304,-64 740.387,-64"/>
<polygon fill="midnightblue" stroke="midnightblue" points="740.449,-67.5001 750.449,-64 740.449,-60.5001 740.449,-67.5001"/>
</g>
<!-- Node15 -->
<g id="node15" class="node"><title>Node15</title>
<g id="a_node15"><a xlink:href="../../d0/d6a/classbackend_1_1_string_pair.html#a453e5442c32c1bd7df15dc48f2da4624" target="_top" xlink:title="backend.StringPair.getValue">
<polygon fill="white" stroke="black" points="763,-5.5 763,-24.5 913,-24.5 913,-5.5 763,-5.5"/>
<text text-anchor="middle" x="838" y="-12.5" font-family="Helvetica,sans-Serif" font-size="10.00">backend.StringPair.getValue</text>
</a>
</g>
</g>
<!-- Node14&#45;&gt;Node15 -->
<g id="edge14" class="edge"><title>Node14&#45;&gt;Node15</title>
<path fill="none" stroke="midnightblue" d="M686.708,-15C708.317,-15 731.328,-15 752.68,-15"/>
<polygon fill="midnightblue" stroke="midnightblue" points="752.688,-18.5001 762.688,-15 752.688,-11.5001 752.688,-18.5001"/>
</g>
</g>
</svg>
