<?xml version="1.0" encoding="UTF-8" standalone="no"?>
<!DOCTYPE svg PUBLIC "-//W3C//DTD SVG 1.1//EN"
 "http://www.w3.org/Graphics/SVG/1.1/DTD/svg11.dtd">
<!-- Generated by graphviz version 2.36.0 (20140111.2315)
 -->
<!-- Title: backend.command.Not Pages: 1 -->
<svg width="186pt" height="220pt"
 viewBox="0.00 0.00 186.00 220.00" xmlns="http://www.w3.org/2000/svg" xmlns:xlink="http://www.w3.org/1999/xlink">
<g id="graph0" class="graph" transform="scale(1 1) rotate(0) translate(4 216)">
<title>backend.command.Not</title>
<polygon fill="white" stroke="none" points="-4,4 -4,-216 182,-216 182,4 -4,4"/>
<!-- Node1 -->
<g id="node1" class="node"><title>Node1</title>
<polygon fill="#bfbfbf" stroke="black" points="24.5,-0.5 24.5,-19.5 153.5,-19.5 153.5,-0.5 24.5,-0.5"/>
<text text-anchor="middle" x="89" y="-7.5" font-family="Helvetica,sans-Serif" font-size="10.00">backend.command.Not</text>
</g>
<!-- Node2 -->
<g id="node2" class="node"><title>Node2</title>
<g id="a_node2"><a xlink:href="../../dc/d24/classbackend_1_1command_1_1_unary_boolean_operation.html" target="_top" xlink:title="backend.command.UnaryBoolean\lOperation">
<polygon fill="white" stroke="black" points="-0.5,-57 -0.5,-87 178.5,-87 178.5,-57 -0.5,-57"/>
<text text-anchor="start" x="7.5" y="-75" font-family="Helvetica,sans-Serif" font-size="10.00">backend.command.UnaryBoolean</text>
<text text-anchor="middle" x="89" y="-64" font-family="Helvetica,sans-Serif" font-size="10.00">Operation</text>
</a>
</g>
</g>
<!-- Node2&#45;&gt;Node1 -->
<g id="edge1" class="edge"><title>Node2&#45;&gt;Node1</title>
<path fill="none" stroke="midnightblue" d="M89,-46.5858C89,-37.0743 89,-26.7864 89,-19.7305"/>
<polygon fill="midnightblue" stroke="midnightblue" points="85.5001,-46.7808 89,-56.7808 92.5001,-46.7809 85.5001,-46.7808"/>
</g>
<!-- Node3 -->
<g id="node3" class="node"><title>Node3</title>
<g id="a_node3"><a xlink:href="../../d3/d64/classbackend_1_1command_1_1_unary_math_operation.html" target="_top" xlink:title="backend.command.UnaryMath\lOperation">
<polygon fill="white" stroke="black" points="7,-125 7,-155 171,-155 171,-125 7,-125"/>
<text text-anchor="start" x="15" y="-143" font-family="Helvetica,sans-Serif" font-size="10.00">backend.command.UnaryMath</text>
<text text-anchor="middle" x="89" y="-132" font-family="Helvetica,sans-Serif" font-size="10.00">Operation</text>
</a>
</g>
</g>
<!-- Node3&#45;&gt;Node2 -->
<g id="edge2" class="edge"><title>Node3&#45;&gt;Node2</title>
<path fill="none" stroke="midnightblue" d="M89,-114.532C89,-105.361 89,-95.2449 89,-87.2931"/>
<polygon fill="midnightblue" stroke="midnightblue" points="85.5001,-114.679 89,-124.679 92.5001,-114.679 85.5001,-114.679"/>
</g>
<!-- Node4 -->
<g id="node4" class="node"><title>Node4</title>
<g id="a_node4"><a xlink:href="../../dc/d83/classbackend_1_1command_1_1_command.html" target="_top" xlink:title="backend.command.Command">
<polygon fill="white" stroke="black" points="8,-192.5 8,-211.5 170,-211.5 170,-192.5 8,-192.5"/>
<text text-anchor="middle" x="89" y="-199.5" font-family="Helvetica,sans-Serif" font-size="10.00">backend.command.Command</text>
</a>
</g>
</g>
<!-- Node4&#45;&gt;Node3 -->
<g id="edge3" class="edge"><title>Node4&#45;&gt;Node3</title>
<path fill="none" stroke="midnightblue" d="M89,-182.371C89,-173.585 89,-163.272 89,-155.141"/>
<polygon fill="midnightblue" stroke="midnightblue" points="85.5001,-182.403 89,-192.403 92.5001,-182.403 85.5001,-182.403"/>
</g>
</g>
</svg>
