<?xml version="1.0" encoding="UTF-8" standalone="no"?>
<!DOCTYPE svg PUBLIC "-//W3C//DTD SVG 1.1//EN"
 "http://www.w3.org/Graphics/SVG/1.1/DTD/svg11.dtd">
<!-- Generated by graphviz version 2.36.0 (20140111.2315)
 -->
<!-- Title: backend.command.PointTurtleCommand.point Pages: 1 -->
<svg width="414pt" height="66pt"
 viewBox="0.00 0.00 414.00 66.00" xmlns="http://www.w3.org/2000/svg" xmlns:xlink="http://www.w3.org/1999/xlink">
<g id="graph0" class="graph" transform="scale(1 1) rotate(0) translate(4 62)">
<title>backend.command.PointTurtleCommand.point</title>
<polygon fill="white" stroke="none" points="-4,4 -4,-62 410,-62 410,4 -4,4"/>
<!-- Node1 -->
<g id="node1" class="node"><title>Node1</title>
<polygon fill="#bfbfbf" stroke="black" points="0.5,-14 0.5,-44 161.5,-44 161.5,-14 0.5,-14"/>
<text text-anchor="start" x="8.5" y="-32" font-family="Helvetica,sans-Serif" font-size="10.00">backend.command.PointTurtle</text>
<text text-anchor="middle" x="81" y="-21" font-family="Helvetica,sans-Serif" font-size="10.00">Command.point</text>
</g>
<!-- Node2 -->
<g id="node2" class="node"><title>Node2</title>
<g id="a_node2"><a xlink:href="../../d5/db7/classbackend_1_1command_1_1_set_position.html#ad352a4e88e36db0d2360299d1d0f54ec" target="_top" xlink:title="backend.command.SetPosition.execute">
<polygon fill="white" stroke="black" points="198.5,-38.5 198.5,-57.5 405.5,-57.5 405.5,-38.5 198.5,-38.5"/>
<text text-anchor="middle" x="302" y="-45.5" font-family="Helvetica,sans-Serif" font-size="10.00">backend.command.SetPosition.execute</text>
</a>
</g>
</g>
<!-- Node1&#45;&gt;Node2 -->
<g id="edge1" class="edge"><title>Node1&#45;&gt;Node2</title>
<path fill="none" stroke="midnightblue" d="M171.799,-36.7908C180.495,-37.5452 189.362,-38.3145 198.172,-39.0788"/>
<polygon fill="midnightblue" stroke="midnightblue" points="171.949,-33.2907 161.684,-35.9132 171.344,-40.2645 171.949,-33.2907"/>
</g>
<!-- Node3 -->
<g id="node3" class="node"><title>Node3</title>
<g id="a_node3"><a xlink:href="../../d7/d1a/classbackend_1_1command_1_1_set_towards.html#ae10f8bb4a72bf22814c7ecd1fe14459d" target="_top" xlink:title="backend.command.SetTowards.execute">
<polygon fill="white" stroke="black" points="198.5,-0.5 198.5,-19.5 405.5,-19.5 405.5,-0.5 198.5,-0.5"/>
<text text-anchor="middle" x="302" y="-7.5" font-family="Helvetica,sans-Serif" font-size="10.00">backend.command.SetTowards.execute</text>
</a>
</g>
</g>
<!-- Node1&#45;&gt;Node3 -->
<g id="edge2" class="edge"><title>Node1&#45;&gt;Node3</title>
<path fill="none" stroke="midnightblue" d="M171.799,-21.2092C180.495,-20.4548 189.362,-19.6855 198.172,-18.9212"/>
<polygon fill="midnightblue" stroke="midnightblue" points="171.344,-17.7355 161.684,-22.0868 171.949,-24.7093 171.344,-17.7355"/>
</g>
</g>
</svg>
