<?xml version="1.0" encoding="UTF-8" standalone="no"?>
<!DOCTYPE svg PUBLIC "-//W3C//DTD SVG 1.1//EN"
 "http://www.w3.org/Graphics/SVG/1.1/DTD/svg11.dtd">
<!-- Generated by graphviz version 2.36.0 (20140111.2315)
 -->
<!-- Title: backend.command.For Pages: 1 -->
<svg width="325pt" height="196pt"
 viewBox="0.00 0.00 325.00 196.00" xmlns="http://www.w3.org/2000/svg" xmlns:xlink="http://www.w3.org/1999/xlink">
<g id="graph0" class="graph" transform="scale(1 1) rotate(0) translate(4 192)">
<title>backend.command.For</title>
<polygon fill="white" stroke="none" points="-4,4 -4,-192 321,-192 321,4 -4,4"/>
<!-- Node1 -->
<g id="node1" class="node"><title>Node1</title>
<polygon fill="#bfbfbf" stroke="black" points="97.5,-56.5 97.5,-75.5 224.5,-75.5 224.5,-56.5 97.5,-56.5"/>
<text text-anchor="middle" x="161" y="-63.5" font-family="Helvetica,sans-Serif" font-size="10.00">backend.command.For</text>
</g>
<!-- Node4 -->
<g id="node4" class="node"><title>Node4</title>
<g id="a_node4"><a xlink:href="../../db/d27/classbackend_1_1command_1_1_do_times.html" target="_top" xlink:title="backend.command.DoTimes">
<polygon fill="white" stroke="black" points="0,-0.5 0,-19.5 154,-19.5 154,-0.5 0,-0.5"/>
<text text-anchor="middle" x="77" y="-7.5" font-family="Helvetica,sans-Serif" font-size="10.00">backend.command.DoTimes</text>
</a>
</g>
</g>
<!-- Node1&#45;&gt;Node4 -->
<g id="edge3" class="edge"><title>Node1&#45;&gt;Node4</title>
<path fill="none" stroke="midnightblue" d="M139.068,-50.9005C123.665,-40.9986 103.554,-28.0705 90.4626,-19.6545"/>
<polygon fill="midnightblue" stroke="midnightblue" points="137.199,-53.8605 147.504,-56.324 140.985,-47.9722 137.199,-53.8605"/>
</g>
<!-- Node5 -->
<g id="node5" class="node"><title>Node5</title>
<g id="a_node5"><a xlink:href="../../d0/dca/classbackend_1_1command_1_1_repeat.html" target="_top" xlink:title="backend.command.Repeat">
<polygon fill="white" stroke="black" points="172.5,-0.5 172.5,-19.5 317.5,-19.5 317.5,-0.5 172.5,-0.5"/>
<text text-anchor="middle" x="245" y="-7.5" font-family="Helvetica,sans-Serif" font-size="10.00">backend.command.Repeat</text>
</a>
</g>
</g>
<!-- Node1&#45;&gt;Node5 -->
<g id="edge4" class="edge"><title>Node1&#45;&gt;Node5</title>
<path fill="none" stroke="midnightblue" d="M182.932,-50.9005C198.335,-40.9986 218.446,-28.0705 231.537,-19.6545"/>
<polygon fill="midnightblue" stroke="midnightblue" points="181.015,-47.9722 174.496,-56.324 184.801,-53.8605 181.015,-47.9722"/>
</g>
<!-- Node2 -->
<g id="node2" class="node"><title>Node2</title>
<g id="a_node2"><a xlink:href="../../dc/d67/classbackend_1_1command_1_1_model_command.html" target="_top" xlink:title="backend.command.ModelCommand">
<polygon fill="white" stroke="black" points="65.5,-112.5 65.5,-131.5 256.5,-131.5 256.5,-112.5 65.5,-112.5"/>
<text text-anchor="middle" x="161" y="-119.5" font-family="Helvetica,sans-Serif" font-size="10.00">backend.command.ModelCommand</text>
</a>
</g>
</g>
<!-- Node2&#45;&gt;Node1 -->
<g id="edge1" class="edge"><title>Node2&#45;&gt;Node1</title>
<path fill="none" stroke="midnightblue" d="M161,-101.805C161,-92.9102 161,-82.7798 161,-75.7511"/>
<polygon fill="midnightblue" stroke="midnightblue" points="157.5,-102.083 161,-112.083 164.5,-102.083 157.5,-102.083"/>
</g>
<!-- Node3 -->
<g id="node3" class="node"><title>Node3</title>
<g id="a_node3"><a xlink:href="../../dc/d83/classbackend_1_1command_1_1_command.html" target="_top" xlink:title="backend.command.Command">
<polygon fill="white" stroke="black" points="80,-168.5 80,-187.5 242,-187.5 242,-168.5 80,-168.5"/>
<text text-anchor="middle" x="161" y="-175.5" font-family="Helvetica,sans-Serif" font-size="10.00">backend.command.Command</text>
</a>
</g>
</g>
<!-- Node3&#45;&gt;Node2 -->
<g id="edge2" class="edge"><title>Node3&#45;&gt;Node2</title>
<path fill="none" stroke="midnightblue" d="M161,-157.805C161,-148.91 161,-138.78 161,-131.751"/>
<polygon fill="midnightblue" stroke="midnightblue" points="157.5,-158.083 161,-168.083 164.5,-158.083 157.5,-158.083"/>
</g>
</g>
</svg>
