<?xml version="1.0" encoding="UTF-8" standalone="no"?>
<!DOCTYPE svg PUBLIC "-//W3C//DTD SVG 1.1//EN"
 "http://www.w3.org/Graphics/SVG/1.1/DTD/svg11.dtd">
<!-- Generated by graphviz version 2.36.0 (20140111.2315)
 -->
<!-- Title: gui.textAreas.AbstractEditableTextBox Pages: 1 -->
<svg width="192pt" height="108pt"
 viewBox="0.00 0.00 192.00 108.00" xmlns="http://www.w3.org/2000/svg" xmlns:xlink="http://www.w3.org/1999/xlink">
<g id="graph0" class="graph" transform="scale(1 1) rotate(0) translate(4 104)">
<title>gui.textAreas.AbstractEditableTextBox</title>
<polygon fill="white" stroke="none" points="-4,4 -4,-104 188,-104 188,4 -4,4"/>
<!-- Node1 -->
<g id="node1" class="node"><title>Node1</title>
<polygon fill="#bfbfbf" stroke="black" points="6,-1 6,-31 168,-31 168,-1 6,-1"/>
<text text-anchor="start" x="14" y="-19" font-family="Helvetica,sans-Serif" font-size="10.00">gui.textAreas.AbstractEditable</text>
<text text-anchor="middle" x="87" y="-8" font-family="Helvetica,sans-Serif" font-size="10.00">TextBox</text>
</g>
<!-- Node2 -->
<g id="node2" class="node"><title>Node2</title>
<polygon fill="white" stroke="#bfbfbf" points="0,-80.5 0,-99.5 48,-99.5 48,-80.5 0,-80.5"/>
<text text-anchor="middle" x="24" y="-87.5" font-family="Helvetica,sans-Serif" font-size="10.00">Region</text>
</g>
<!-- Node2&#45;&gt;Node1 -->
<g id="edge1" class="edge"><title>Node2&#45;&gt;Node1</title>
<path fill="none" stroke="midnightblue" d="M38.2945,-72.6634C49.2141,-60.1839 64.1131,-43.1565 74.5473,-31.2316"/>
<polygon fill="midnightblue" stroke="midnightblue" points="35.4254,-70.6273 31.4743,-80.4579 40.6934,-75.2369 35.4254,-70.6273"/>
</g>
<!-- Node3 -->
<g id="node3" class="node"><title>Node3</title>
<polygon fill="white" stroke="#bfbfbf" points="66,-80.5 66,-99.5 108,-99.5 108,-80.5 66,-80.5"/>
<text text-anchor="middle" x="87" y="-87.5" font-family="Helvetica,sans-Serif" font-size="10.00">Label</text>
</g>
<!-- Node3&#45;&gt;Node1 -->
<g id="edge2" class="edge"><title>Node3&#45;&gt;Node1</title>
<path fill="none" stroke="#9a32cd" stroke-dasharray="5,2" d="M87,-70.0846C87,-57.9148 87,-42.3538 87,-31.2316"/>
<polygon fill="#9a32cd" stroke="#9a32cd" points="83.5001,-70.4579 87,-80.4579 90.5001,-70.4579 83.5001,-70.4579"/>
<text text-anchor="middle" x="100" y="-53.5" font-family="Helvetica,sans-Serif" font-size="10.00"> label</text>
</g>
<!-- Node4 -->
<g id="node4" class="node"><title>Node4</title>
<polygon fill="white" stroke="#bfbfbf" points="126,-80.5 126,-99.5 184,-99.5 184,-80.5 126,-80.5"/>
<text text-anchor="middle" x="155" y="-87.5" font-family="Helvetica,sans-Serif" font-size="10.00">TextArea</text>
</g>
<!-- Node4&#45;&gt;Node1 -->
<g id="edge3" class="edge"><title>Node4&#45;&gt;Node1</title>
<path fill="none" stroke="#9a32cd" stroke-dasharray="5,2" d="M139.91,-73.0221C128.094,-60.5118 111.812,-43.2711 100.441,-31.2316"/>
<polygon fill="#9a32cd" stroke="#9a32cd" points="137.522,-75.591 146.932,-80.4579 142.611,-70.7846 137.522,-75.591"/>
<text text-anchor="middle" x="151.5" y="-53.5" font-family="Helvetica,sans-Serif" font-size="10.00"> textArea</text>
</g>
</g>
</svg>
