<?xml version="1.0" encoding="UTF-8" standalone="no"?>
<!DOCTYPE svg PUBLIC "-//W3C//DTD SVG 1.1//EN"
 "http://www.w3.org/Graphics/SVG/1.1/DTD/svg11.dtd">
<!-- Generated by graphviz version 2.36.0 (20140111.2315)
 -->
<!-- Title: gui.textAreas.PreviousCommandsBox Pages: 1 -->
<svg width="204pt" height="152pt"
 viewBox="0.00 0.00 204.00 152.00" xmlns="http://www.w3.org/2000/svg" xmlns:xlink="http://www.w3.org/1999/xlink">
<g id="graph0" class="graph" transform="scale(1 1) rotate(0) translate(4 148)">
<title>gui.textAreas.PreviousCommandsBox</title>
<polygon fill="white" stroke="none" points="-4,4 -4,-148 200,-148 200,4 -4,4"/>
<!-- Node1 -->
<g id="node1" class="node"><title>Node1</title>
<polygon fill="#bfbfbf" stroke="black" points="-0.5,-0.5 -0.5,-19.5 196.5,-19.5 196.5,-0.5 -0.5,-0.5"/>
<text text-anchor="middle" x="98" y="-7.5" font-family="Helvetica,sans-Serif" font-size="10.00">gui.textAreas.PreviousCommandsBox</text>
</g>
<!-- Node2 -->
<g id="node2" class="node"><title>Node2</title>
<g id="a_node2"><a xlink:href="../../d8/d85/classgui_1_1text_areas_1_1_abstract_editable_text_box.html" target="_top" xlink:title="gui.textAreas.AbstractEditable\lTextBox">
<polygon fill="white" stroke="black" points="17,-57 17,-87 179,-87 179,-57 17,-57"/>
<text text-anchor="start" x="25" y="-75" font-family="Helvetica,sans-Serif" font-size="10.00">gui.textAreas.AbstractEditable</text>
<text text-anchor="middle" x="98" y="-64" font-family="Helvetica,sans-Serif" font-size="10.00">TextBox</text>
</a>
</g>
</g>
<!-- Node2&#45;&gt;Node1 -->
<g id="edge1" class="edge"><title>Node2&#45;&gt;Node1</title>
<path fill="none" stroke="midnightblue" d="M98,-46.5858C98,-37.0743 98,-26.7864 98,-19.7305"/>
<polygon fill="midnightblue" stroke="midnightblue" points="94.5001,-46.7808 98,-56.7808 101.5,-46.7809 94.5001,-46.7808"/>
</g>
<!-- Node3 -->
<g id="node3" class="node"><title>Node3</title>
<polygon fill="white" stroke="#bfbfbf" points="74,-124.5 74,-143.5 122,-143.5 122,-124.5 74,-124.5"/>
<text text-anchor="middle" x="98" y="-131.5" font-family="Helvetica,sans-Serif" font-size="10.00">Region</text>
</g>
<!-- Node3&#45;&gt;Node2 -->
<g id="edge2" class="edge"><title>Node3&#45;&gt;Node2</title>
<path fill="none" stroke="midnightblue" d="M98,-114.371C98,-105.585 98,-95.2721 98,-87.1408"/>
<polygon fill="midnightblue" stroke="midnightblue" points="94.5001,-114.403 98,-124.403 101.5,-114.403 94.5001,-114.403"/>
</g>
</g>
</svg>
