<?xml version="1.0" encoding="UTF-8" standalone="no"?>
<!DOCTYPE svg PUBLIC "-//W3C//DTD SVG 1.1//EN"
 "http://www.w3.org/Graphics/SVG/1.1/DTD/svg11.dtd">
<!-- Generated by graphviz version 2.36.0 (20140111.2315)
 -->
<!-- Title: backend.command.PixelsTurtleCommand Pages: 1 -->
<svg width="517pt" height="332pt"
 viewBox="0.00 0.00 517.00 332.00" xmlns="http://www.w3.org/2000/svg" xmlns:xlink="http://www.w3.org/1999/xlink">
<g id="graph0" class="graph" transform="scale(1 1) rotate(0) translate(4 328)">
<title>backend.command.PixelsTurtleCommand</title>
<polygon fill="white" stroke="none" points="-4,4 -4,-328 513,-328 513,4 -4,4"/>
<!-- Node1 -->
<g id="node1" class="node"><title>Node1</title>
<polygon fill="#bfbfbf" stroke="black" points="168,-57 168,-87 332,-87 332,-57 168,-57"/>
<text text-anchor="start" x="176" y="-75" font-family="Helvetica,sans-Serif" font-size="10.00">backend.command.PixelsTurtle</text>
<text text-anchor="middle" x="250" y="-64" font-family="Helvetica,sans-Serif" font-size="10.00">Command</text>
</g>
<!-- Node6 -->
<g id="node6" class="node"><title>Node6</title>
<g id="a_node6"><a xlink:href="../../dc/d25/classbackend_1_1command_1_1_backward.html" target="_top" xlink:title="backend.command.Backward">
<polygon fill="white" stroke="black" points="0,-0.5 0,-19.5 158,-19.5 158,-0.5 0,-0.5"/>
<text text-anchor="middle" x="79" y="-7.5" font-family="Helvetica,sans-Serif" font-size="10.00">backend.command.Backward</text>
</a>
</g>
</g>
<!-- Node1&#45;&gt;Node6 -->
<g id="edge5" class="edge"><title>Node1&#45;&gt;Node6</title>
<path fill="none" stroke="midnightblue" d="M200.296,-53.56C168.403,-42.3694 128.4,-28.3335 103.261,-19.5127"/>
<polygon fill="midnightblue" stroke="midnightblue" points="199.313,-56.9243 209.908,-56.9327 201.631,-50.3191 199.313,-56.9243"/>
</g>
<!-- Node7 -->
<g id="node7" class="node"><title>Node7</title>
<g id="a_node7"><a xlink:href="../../d8/d49/classbackend_1_1command_1_1_forward.html" target="_top" xlink:title="backend.command.Forward">
<polygon fill="white" stroke="black" points="175.5,-0.5 175.5,-19.5 324.5,-19.5 324.5,-0.5 175.5,-0.5"/>
<text text-anchor="middle" x="250" y="-7.5" font-family="Helvetica,sans-Serif" font-size="10.00">backend.command.Forward</text>
</a>
</g>
</g>
<!-- Node1&#45;&gt;Node7 -->
<g id="edge6" class="edge"><title>Node1&#45;&gt;Node7</title>
<path fill="none" stroke="midnightblue" d="M250,-46.5858C250,-37.0743 250,-26.7864 250,-19.7305"/>
<polygon fill="midnightblue" stroke="midnightblue" points="246.5,-46.7808 250,-56.7808 253.5,-46.7809 246.5,-46.7808"/>
</g>
<!-- Node8 -->
<g id="node8" class="node"><title>Node8</title>
<g id="a_node8"><a xlink:href="../../d8/d3e/classbackend_1_1command_1_1_set_pen_size.html" target="_top" xlink:title="backend.command.SetPenSize">
<polygon fill="white" stroke="black" points="342.5,-0.5 342.5,-19.5 509.5,-19.5 509.5,-0.5 342.5,-0.5"/>
<text text-anchor="middle" x="426" y="-7.5" font-family="Helvetica,sans-Serif" font-size="10.00">backend.command.SetPenSize</text>
</a>
</g>
</g>
<!-- Node1&#45;&gt;Node8 -->
<g id="edge7" class="edge"><title>Node1&#45;&gt;Node8</title>
<path fill="none" stroke="midnightblue" d="M300.733,-53.7046C333.628,-42.4905 375.044,-28.3715 401.029,-19.5127"/>
<polygon fill="midnightblue" stroke="midnightblue" points="299.6,-50.3931 291.264,-56.9327 301.859,-57.0186 299.6,-50.3931"/>
</g>
<!-- Node2 -->
<g id="node2" class="node"><title>Node2</title>
<g id="a_node2"><a xlink:href="../../d8/db4/classbackend_1_1command_1_1_active_turtle_command.html" target="_top" xlink:title="backend.command.ActiveTurtle\lCommand">
<polygon fill="white" stroke="black" points="166.5,-125 166.5,-155 333.5,-155 333.5,-125 166.5,-125"/>
<text text-anchor="start" x="174.5" y="-143" font-family="Helvetica,sans-Serif" font-size="10.00">backend.command.ActiveTurtle</text>
<text text-anchor="middle" x="250" y="-132" font-family="Helvetica,sans-Serif" font-size="10.00">Command</text>
</a>
</g>
</g>
<!-- Node2&#45;&gt;Node1 -->
<g id="edge1" class="edge"><title>Node2&#45;&gt;Node1</title>
<path fill="none" stroke="midnightblue" d="M250,-114.532C250,-105.361 250,-95.2449 250,-87.2931"/>
<polygon fill="midnightblue" stroke="midnightblue" points="246.5,-114.679 250,-124.679 253.5,-114.679 246.5,-114.679"/>
</g>
<!-- Node3 -->
<g id="node3" class="node"><title>Node3</title>
<g id="a_node3"><a xlink:href="../../d5/dfc/classbackend_1_1command_1_1_turtle_command.html" target="_top" xlink:title="backend.command.TurtleCommand">
<polygon fill="white" stroke="black" points="156,-192.5 156,-211.5 344,-211.5 344,-192.5 156,-192.5"/>
<text text-anchor="middle" x="250" y="-199.5" font-family="Helvetica,sans-Serif" font-size="10.00">backend.command.TurtleCommand</text>
</a>
</g>
</g>
<!-- Node3&#45;&gt;Node2 -->
<g id="edge2" class="edge"><title>Node3&#45;&gt;Node2</title>
<path fill="none" stroke="midnightblue" d="M250,-182.371C250,-173.585 250,-163.272 250,-155.141"/>
<polygon fill="midnightblue" stroke="midnightblue" points="246.5,-182.403 250,-192.403 253.5,-182.403 246.5,-182.403"/>
</g>
<!-- Node4 -->
<g id="node4" class="node"><title>Node4</title>
<g id="a_node4"><a xlink:href="../../dc/d67/classbackend_1_1command_1_1_model_command.html" target="_top" xlink:title="backend.command.ModelCommand">
<polygon fill="white" stroke="black" points="154.5,-248.5 154.5,-267.5 345.5,-267.5 345.5,-248.5 154.5,-248.5"/>
<text text-anchor="middle" x="250" y="-255.5" font-family="Helvetica,sans-Serif" font-size="10.00">backend.command.ModelCommand</text>
</a>
</g>
</g>
<!-- Node4&#45;&gt;Node3 -->
<g id="edge3" class="edge"><title>Node4&#45;&gt;Node3</title>
<path fill="none" stroke="midnightblue" d="M250,-237.805C250,-228.91 250,-218.78 250,-211.751"/>
<polygon fill="midnightblue" stroke="midnightblue" points="246.5,-238.083 250,-248.083 253.5,-238.083 246.5,-238.083"/>
</g>
<!-- Node5 -->
<g id="node5" class="node"><title>Node5</title>
<g id="a_node5"><a xlink:href="../../dc/d83/classbackend_1_1command_1_1_command.html" target="_top" xlink:title="backend.command.Command">
<polygon fill="white" stroke="black" points="169,-304.5 169,-323.5 331,-323.5 331,-304.5 169,-304.5"/>
<text text-anchor="middle" x="250" y="-311.5" font-family="Helvetica,sans-Serif" font-size="10.00">backend.command.Command</text>
</a>
</g>
</g>
<!-- Node5&#45;&gt;Node4 -->
<g id="edge4" class="edge"><title>Node5&#45;&gt;Node4</title>
<path fill="none" stroke="midnightblue" d="M250,-293.805C250,-284.91 250,-274.78 250,-267.751"/>
<polygon fill="midnightblue" stroke="midnightblue" points="246.5,-294.083 250,-304.083 253.5,-294.083 246.5,-294.083"/>
</g>
</g>
</svg>
