<?xml version="1.0" encoding="UTF-8" standalone="no"?>
<!DOCTYPE svg PUBLIC "-//W3C//DTD SVG 1.1//EN"
 "http://www.w3.org/Graphics/SVG/1.1/DTD/svg11.dtd">
<!-- Generated by graphviz version 2.36.0 (20140111.2315)
 -->
<!-- Title: backend.BiMap&lt; K, V &gt; Pages: 1 -->
<svg width="231pt" height="96pt"
 viewBox="0.00 0.00 231.00 96.00" xmlns="http://www.w3.org/2000/svg" xmlns:xlink="http://www.w3.org/1999/xlink">
<g id="graph0" class="graph" transform="scale(1 1) rotate(0) translate(4 92)">
<title>backend.BiMap&lt; K, V &gt;</title>
<polygon fill="white" stroke="none" points="-4,4 -4,-92 227,-92 227,4 -4,4"/>
<!-- Node1 -->
<g id="node1" class="node"><title>Node1</title>
<polygon fill="#bfbfbf" stroke="black" points="45.5,-0.5 45.5,-19.5 176.5,-19.5 176.5,-0.5 45.5,-0.5"/>
<text text-anchor="middle" x="111" y="-7.5" font-family="Helvetica,sans-Serif" font-size="10.00">backend.BiMap&lt; K, V &gt;</text>
</g>
<!-- Node2 -->
<g id="node2" class="node"><title>Node2</title>
<polygon fill="white" stroke="#bfbfbf" points="-0.5,-68.5 -0.5,-87.5 102.5,-87.5 102.5,-68.5 -0.5,-68.5"/>
<text text-anchor="middle" x="51" y="-75.5" font-family="Helvetica,sans-Serif" font-size="10.00">HashMap&lt; V, K &gt;</text>
</g>
<!-- Node2&#45;&gt;Node1 -->
<g id="edge1" class="edge"><title>Node2&#45;&gt;Node1</title>
<path fill="none" stroke="#9a32cd" stroke-dasharray="5,2" d="M65.8364,-60.68C77.5666,-47.7768 93.4932,-30.2575 102.963,-19.8411"/>
<polygon fill="#9a32cd" stroke="#9a32cd" points="62.9809,-58.6179 58.844,-68.3717 68.1605,-63.3266 62.9809,-58.6179"/>
<text text-anchor="middle" x="116" y="-41.5" font-family="Helvetica,sans-Serif" font-size="10.00"> inverseMap</text>
</g>
<!-- Node3 -->
<g id="node3" class="node"><title>Node3</title>
<polygon fill="white" stroke="#bfbfbf" points="120.5,-68.5 120.5,-87.5 223.5,-87.5 223.5,-68.5 120.5,-68.5"/>
<text text-anchor="middle" x="172" y="-75.5" font-family="Helvetica,sans-Serif" font-size="10.00">HashMap&lt; K, V &gt;</text>
</g>
<!-- Node3&#45;&gt;Node1 -->
<g id="edge2" class="edge"><title>Node3&#45;&gt;Node1</title>
<path fill="none" stroke="#9a32cd" stroke-dasharray="5,2" d="M163.387,-58.8734C159.563,-51.9005 154.645,-44.1456 149,-38 142.431,-30.8476 133.67,-24.468 126.217,-19.7082"/>
<polygon fill="#9a32cd" stroke="#9a32cd" points="160.505,-60.9287 168.163,-68.2512 166.743,-57.7519 160.505,-60.9287"/>
<text text-anchor="middle" x="182.5" y="-41.5" font-family="Helvetica,sans-Serif" font-size="10.00"> directMap</text>
</g>
</g>
</svg>
