<?xml version="1.0" encoding="UTF-8" standalone="no"?>
<!DOCTYPE svg PUBLIC "-//W3C//DTD SVG 1.1//EN"
 "http://www.w3.org/Graphics/SVG/1.1/DTD/svg11.dtd">
<!-- Generated by graphviz version 2.36.0 (20140111.2315)
 -->
<!-- Title: backend.command.UnaryMathOperation Pages: 1 -->
<!--zoomable 305 -->
<svg id="main" version="1.1" xmlns="http://www.w3.org/2000/svg" xmlns:xlink="http://www.w3.org/1999/xlink" xml:space="preserve" onload="init(evt)">
<style type="text/css"><![CDATA[
.edge:hover path { stroke: red; }
.edge:hover polygon { stroke: red; fill: red; }
]]></style>
<script type="text/javascript"><![CDATA[
var edges = document.getElementsByTagName('g');
if (edges && edges.length) {
  for (var i=0;i<edges.length;i++) {
    if (edges[i].id.substr(0,4)=='edge') {
      edges[i].setAttribute('class','edge');
    }
  }
}
]]></script>
        <defs>
                <circle id="rim" cx="0" cy="0" r="7"/>
                <circle id="rim2" cx="0" cy="0" r="3.5"/>
                <g id="zoomPlus">
                        <use xlink:href="#rim" fill="#404040">
                                <set attributeName="fill" to="#808080" begin="zoomplus.mouseover" end="zoomplus.mouseout"/>
                        </use>
                        <path d="M-4,0h8M0,-4v8" fill="none" stroke="white" stroke-width="1.5" pointer-events="none"/>
                </g>
                <g id="zoomMin">
                        <use xlink:href="#rim" fill="#404040">
                                <set attributeName="fill" to="#808080" begin="zoomminus.mouseover" end="zoomminus.mouseout"/>
                        </use>
                        <path d="M-4,0h8" fill="none" stroke="white" stroke-width="1.5" pointer-events="none"/>
                </g>
                <g id="dirArrow">
                        <path fill="none" stroke="white" stroke-width="1.5" d="M0,-3.0v7 M-2.5,-0.5L0,-3.0L2.5,-0.5"/>
                </g>
               <g id="resetDef">
                       <use xlink:href="#rim2" fill="#404040">
                               <set attributeName="fill" to="#808080" begin="reset.mouseover" end="reset.mouseout"/>
                       </use>
               </g>
        </defs>

<script type="text/javascript">
var viewWidth = 752;
var viewHeight = 305;
var sectionId = 'dynsection-0';
</script>
<script xlink:href="../../svgpan.js"/>
<svg id="graph" class="graph">
<g id="viewport">
<title>backend.command.UnaryMathOperation</title>
<polygon fill="white" stroke="none" points="-4,4 -4,-301 748,-301 748,4 -4,4"/>
<!-- Node1 -->
<g id="node1" class="node"><title>Node1</title>
<polygon fill="#bfbfbf" stroke="black" points="198,-139 198,-169 362,-169 362,-139 198,-139"/>
<text text-anchor="start" x="206" y="-157" font-family="Helvetica,sans-Serif" font-size="10.00">backend.command.UnaryMath</text>
<text text-anchor="middle" x="280" y="-146" font-family="Helvetica,sans-Serif" font-size="10.00">Operation</text>
</g>
<!-- Node3 -->
<g id="node3" class="node"><title>Node3</title>
<g id="a_node3"><a xlink:href="../../da/db6/classbackend_1_1command_1_1_arc_tangent.html" target="_top" xlink:title="backend.command.ArcTangent">
<polygon fill="white" stroke="black" points="405.5,-277.5 405.5,-296.5 570.5,-296.5 570.5,-277.5 405.5,-277.5"/>
<text text-anchor="middle" x="488" y="-284.5" font-family="Helvetica,sans-Serif" font-size="10.00">backend.command.ArcTangent</text>
</a>
</g>
</g>
<!-- Node1&#45;&gt;Node3 -->
<g id="edge2" class="edge"><title>Node1&#45;&gt;Node3</title>
<path fill="none" stroke="midnightblue" d="M298.14,-177.259C318.804,-203.531 356.033,-245.541 398,-268 405.244,-271.876 413.217,-274.962 421.324,-277.418"/>
<polygon fill="midnightblue" stroke="midnightblue" points="300.904,-175.111 292.027,-169.327 295.359,-179.384 300.904,-175.111"/>
</g>
<!-- Node4 -->
<g id="node4" class="node"><title>Node4</title>
<g id="a_node4"><a xlink:href="../../d7/d30/classbackend_1_1command_1_1_cosine.html" target="_top" xlink:title="backend.command.Cosine">
<polygon fill="white" stroke="black" points="416,-239.5 416,-258.5 560,-258.5 560,-239.5 416,-239.5"/>
<text text-anchor="middle" x="488" y="-246.5" font-family="Helvetica,sans-Serif" font-size="10.00">backend.command.Cosine</text>
</a>
</g>
</g>
<!-- Node1&#45;&gt;Node4 -->
<g id="edge3" class="edge"><title>Node1&#45;&gt;Node4</title>
<path fill="none" stroke="midnightblue" d="M307.776,-175.496C330.512,-192.705 364.671,-216.175 398,-230 407.194,-233.814 417.253,-236.901 427.194,-239.389"/>
<polygon fill="midnightblue" stroke="midnightblue" points="309.706,-172.565 299.646,-169.24 305.437,-178.113 309.706,-172.565"/>
</g>
<!-- Node5 -->
<g id="node5" class="node"><title>Node5</title>
<g id="a_node5"><a xlink:href="../../d7/dcf/classbackend_1_1command_1_1_minus.html" target="_top" xlink:title="backend.command.Minus">
<polygon fill="white" stroke="black" points="418,-201.5 418,-220.5 558,-220.5 558,-201.5 418,-201.5"/>
<text text-anchor="middle" x="488" y="-208.5" font-family="Helvetica,sans-Serif" font-size="10.00">backend.command.Minus</text>
</a>
</g>
</g>
<!-- Node1&#45;&gt;Node5 -->
<g id="edge4" class="edge"><title>Node1&#45;&gt;Node5</title>
<path fill="none" stroke="midnightblue" d="M333.331,-172.279C353.416,-178.955 376.64,-186.268 398,-192 410.818,-195.44 424.807,-198.668 437.817,-201.453"/>
<polygon fill="midnightblue" stroke="midnightblue" points="334.339,-168.925 323.745,-169.062 332.112,-175.562 334.339,-168.925"/>
</g>
<!-- Node6 -->
<g id="node6" class="node"><title>Node6</title>
<g id="a_node6"><a xlink:href="../../d5/d18/classbackend_1_1command_1_1_natural_log.html" target="_top" xlink:title="backend.command.NaturalLog">
<polygon fill="white" stroke="black" points="406,-163.5 406,-182.5 570,-182.5 570,-163.5 406,-163.5"/>
<text text-anchor="middle" x="488" y="-170.5" font-family="Helvetica,sans-Serif" font-size="10.00">backend.command.NaturalLog</text>
</a>
</g>
</g>
<!-- Node1&#45;&gt;Node6 -->
<g id="edge5" class="edge"><title>Node1&#45;&gt;Node6</title>
<path fill="none" stroke="midnightblue" d="M372.337,-162.424C383.536,-163.457 394.921,-164.507 405.953,-165.525"/>
<polygon fill="midnightblue" stroke="midnightblue" points="372.4,-158.915 362.121,-161.482 371.757,-165.886 372.4,-158.915"/>
</g>
<!-- Node7 -->
<g id="node7" class="node"><title>Node7</title>
<g id="a_node7"><a xlink:href="../../de/d39/classbackend_1_1command_1_1_random.html" target="_top" xlink:title="backend.command.Random">
<polygon fill="white" stroke="black" points="412,-125.5 412,-144.5 564,-144.5 564,-125.5 412,-125.5"/>
<text text-anchor="middle" x="488" y="-132.5" font-family="Helvetica,sans-Serif" font-size="10.00">backend.command.Random</text>
</a>
</g>
</g>
<!-- Node1&#45;&gt;Node7 -->
<g id="edge6" class="edge"><title>Node1&#45;&gt;Node7</title>
<path fill="none" stroke="midnightblue" d="M372.22,-145.587C385.513,-144.36 399.071,-143.11 411.993,-141.918"/>
<polygon fill="midnightblue" stroke="midnightblue" points="371.757,-142.114 362.121,-146.518 372.4,-149.085 371.757,-142.114"/>
</g>
<!-- Node8 -->
<g id="node8" class="node"><title>Node8</title>
<g id="a_node8"><a xlink:href="../../db/dcc/classbackend_1_1command_1_1_sine.html" target="_top" xlink:title="backend.command.Sine">
<polygon fill="white" stroke="black" points="421.5,-87.5 421.5,-106.5 554.5,-106.5 554.5,-87.5 421.5,-87.5"/>
<text text-anchor="middle" x="488" y="-94.5" font-family="Helvetica,sans-Serif" font-size="10.00">backend.command.Sine</text>
</a>
</g>
</g>
<!-- Node1&#45;&gt;Node8 -->
<g id="edge7" class="edge"><title>Node1&#45;&gt;Node8</title>
<path fill="none" stroke="midnightblue" d="M333.331,-135.721C353.416,-129.045 376.64,-121.732 398,-116 410.818,-112.56 424.807,-109.332 437.817,-106.547"/>
<polygon fill="midnightblue" stroke="midnightblue" points="332.112,-132.438 323.745,-138.938 334.339,-139.075 332.112,-132.438"/>
</g>
<!-- Node9 -->
<g id="node9" class="node"><title>Node9</title>
<g id="a_node9"><a xlink:href="../../dd/d1a/classbackend_1_1command_1_1_tangent.html" target="_top" xlink:title="backend.command.Tangent">
<polygon fill="white" stroke="black" points="413.5,-49.5 413.5,-68.5 562.5,-68.5 562.5,-49.5 413.5,-49.5"/>
<text text-anchor="middle" x="488" y="-56.5" font-family="Helvetica,sans-Serif" font-size="10.00">backend.command.Tangent</text>
</a>
</g>
</g>
<!-- Node1&#45;&gt;Node9 -->
<g id="edge8" class="edge"><title>Node1&#45;&gt;Node9</title>
<path fill="none" stroke="midnightblue" d="M307.776,-132.504C330.512,-115.295 364.671,-91.825 398,-78 407.194,-74.1863 417.253,-71.0989 427.194,-68.6114"/>
<polygon fill="midnightblue" stroke="midnightblue" points="305.437,-129.887 299.646,-138.76 309.706,-135.435 305.437,-129.887"/>
</g>
<!-- Node10 -->
<g id="node10" class="node"><title>Node10</title>
<g id="a_node10"><a xlink:href="../../dc/d24/classbackend_1_1command_1_1_unary_boolean_operation.html" target="_top" xlink:title="backend.command.UnaryBoolean\lOperation">
<polygon fill="white" stroke="black" points="398.5,-0 398.5,-30 577.5,-30 577.5,-0 398.5,-0"/>
<text text-anchor="start" x="406.5" y="-18" font-family="Helvetica,sans-Serif" font-size="10.00">backend.command.UnaryBoolean</text>
<text text-anchor="middle" x="488" y="-7" font-family="Helvetica,sans-Serif" font-size="10.00">Operation</text>
</a>
</g>
</g>
<!-- Node1&#45;&gt;Node10 -->
<g id="edge9" class="edge"><title>Node1&#45;&gt;Node10</title>
<path fill="none" stroke="midnightblue" d="M299.013,-130.457C320.036,-104.575 357.166,-63.5497 398,-40 404.673,-36.1513 411.973,-32.8669 419.43,-30.0706"/>
<polygon fill="midnightblue" stroke="midnightblue" points="296.014,-128.604 292.519,-138.606 301.488,-132.967 296.014,-128.604"/>
</g>
<!-- Node2 -->
<g id="node2" class="node"><title>Node2</title>
<g id="a_node2"><a xlink:href="../../dc/d83/classbackend_1_1command_1_1_command.html" target="_top" xlink:title="backend.command.Command">
<polygon fill="white" stroke="black" points="0,-144.5 0,-163.5 162,-163.5 162,-144.5 0,-144.5"/>
<text text-anchor="middle" x="81" y="-151.5" font-family="Helvetica,sans-Serif" font-size="10.00">backend.command.Command</text>
</a>
</g>
</g>
<!-- Node2&#45;&gt;Node1 -->
<g id="edge1" class="edge"><title>Node2&#45;&gt;Node1</title>
<path fill="none" stroke="midnightblue" d="M172.175,-154C180.781,-154 189.473,-154 197.984,-154"/>
<polygon fill="midnightblue" stroke="midnightblue" points="172.127,-150.5 162.127,-154 172.127,-157.5 172.127,-150.5"/>
</g>
<!-- Node11 -->
<g id="node11" class="node"><title>Node11</title>
<g id="a_node11"><a xlink:href="../../d0/d61/classbackend_1_1command_1_1_not.html" target="_top" xlink:title="backend.command.Not">
<polygon fill="white" stroke="black" points="614.5,-5.5 614.5,-24.5 743.5,-24.5 743.5,-5.5 614.5,-5.5"/>
<text text-anchor="middle" x="679" y="-12.5" font-family="Helvetica,sans-Serif" font-size="10.00">backend.command.Not</text>
</a>
</g>
</g>
<!-- Node10&#45;&gt;Node11 -->
<g id="edge10" class="edge"><title>Node10&#45;&gt;Node11</title>
<path fill="none" stroke="midnightblue" d="M587.851,-15C596.847,-15 605.79,-15 614.353,-15"/>
<polygon fill="midnightblue" stroke="midnightblue" points="587.689,-11.5001 577.689,-15 587.689,-18.5001 587.689,-11.5001"/>
</g>
</g>
</svg>
        <g id="navigator" transform="translate(0 0)" fill="#404254">
                <rect fill="#f2f5e9" fill-opacity="0.5" stroke="#606060" stroke-width=".5" x="0" y="0" width="60" height="60"/>
                <use id="zoomplus" xlink:href="#zoomPlus" x="17" y="9" onmousedown="handleZoom(evt,'in')"/>
                <use id="zoomminus" xlink:href="#zoomMin" x="42" y="9" onmousedown="handleZoom(evt,'out')"/>
                <use id="reset" xlink:href="#resetDef" x="30" y="36" onmousedown="handleReset()"/>
                <g id="arrowUp" xlink:href="#dirArrow" transform="translate(30 24)" onmousedown="handlePan(0,-1)">
                  <use xlink:href="#rim" fill="#404040">
                        <set attributeName="fill" to="#808080" begin="arrowUp.mouseover" end="arrowUp.mouseout"/>
                  </use>
                  <path fill="none" stroke="white" stroke-width="1.5" d="M0,-3.0v7 M-2.5,-0.5L0,-3.0L2.5,-0.5"/>
                </g>
                <g id="arrowRight" xlink:href="#dirArrow" transform="rotate(90) translate(36 -43)" onmousedown="handlePan(1,0)">
                  <use xlink:href="#rim" fill="#404040">
                        <set attributeName="fill" to="#808080" begin="arrowRight.mouseover" end="arrowRight.mouseout"/>
                  </use>
                  <path fill="none" stroke="white" stroke-width="1.5" d="M0,-3.0v7 M-2.5,-0.5L0,-3.0L2.5,-0.5"/>
                </g>
                <g id="arrowDown" xlink:href="#dirArrow" transform="rotate(180) translate(-30 -48)" onmousedown="handlePan(0,1)">
                  <use xlink:href="#rim" fill="#404040">
                        <set attributeName="fill" to="#808080" begin="arrowDown.mouseover" end="arrowDown.mouseout"/>
                  </use>
                  <path fill="none" stroke="white" stroke-width="1.5" d="M0,-3.0v7 M-2.5,-0.5L0,-3.0L2.5,-0.5"/>
                </g>
                <g id="arrowLeft" xlink:href="#dirArrow" transform="rotate(270) translate(-36 17)" onmousedown="handlePan(-1,0)">
                  <use xlink:href="#rim" fill="#404040">
                        <set attributeName="fill" to="#808080" begin="arrowLeft.mouseover" end="arrowLeft.mouseout"/>
                  </use>
                  <path fill="none" stroke="white" stroke-width="1.5" d="M0,-3.0v7 M-2.5,-0.5L0,-3.0L2.5,-0.5"/>
                </g>
        </g>
        <svg viewBox="0 0 15 15" width="100%" height="30px" preserveAspectRatio="xMaxYMin meet">
         <g id="arrow_out" transform="scale(0.3 0.3)">
          <a xlink:href="classbackend_1_1command_1_1_unary_math_operation__inherit__graph_org.svg" target="_base">
           <rect id="button" ry="5" rx="5" y="6" x="6" height="38" width="38"
                fill="#f2f5e9" fill-opacity="0.5" stroke="#606060" stroke-width="1.0"/>
           <path id="arrow"
             d="M 11.500037,31.436501 C 11.940474,20.09759 22.043105,11.32322 32.158766,21.979434 L 37.068811,17.246167 C 37.068811,17.246167 37.088388,32 37.088388,32 L 22.160133,31.978069 C 22.160133,31.978069 26.997745,27.140456 26.997745,27.140456 C 18.528582,18.264221 13.291696,25.230495 11.500037,31.436501 z"
             style="fill:#404040;"/>
          </a>
         </g>
        </svg>
</svg>
