<?xml version="1.0" encoding="UTF-8" standalone="no"?>
<!DOCTYPE svg PUBLIC "-//W3C//DTD SVG 1.1//EN"
 "http://www.w3.org/Graphics/SVG/1.1/DTD/svg11.dtd">
<!-- Generated by graphviz version 2.36.0 (20140111.2315)
 -->
<!-- Title: backend.command.BinaryBooleanOperation Pages: 1 -->
<!--zoomable 218 -->
<svg id="main" version="1.1" xmlns="http://www.w3.org/2000/svg" xmlns:xlink="http://www.w3.org/1999/xlink" xml:space="preserve" onload="init(evt)">
<style type="text/css"><![CDATA[
.edge:hover path { stroke: red; }
.edge:hover polygon { stroke: red; fill: red; }
]]></style>
<script type="text/javascript"><![CDATA[
var edges = document.getElementsByTagName('g');
if (edges && edges.length) {
  for (var i=0;i<edges.length;i++) {
    if (edges[i].id.substr(0,4)=='edge') {
      edges[i].setAttribute('class','edge');
    }
  }
}
]]></script>
        <defs>
                <circle id="rim" cx="0" cy="0" r="7"/>
                <circle id="rim2" cx="0" cy="0" r="3.5"/>
                <g id="zoomPlus">
                        <use xlink:href="#rim" fill="#404040">
                                <set attributeName="fill" to="#808080" begin="zoomplus.mouseover" end="zoomplus.mouseout"/>
                        </use>
                        <path d="M-4,0h8M0,-4v8" fill="none" stroke="white" stroke-width="1.5" pointer-events="none"/>
                </g>
                <g id="zoomMin">
                        <use xlink:href="#rim" fill="#404040">
                                <set attributeName="fill" to="#808080" begin="zoomminus.mouseover" end="zoomminus.mouseout"/>
                        </use>
                        <path d="M-4,0h8" fill="none" stroke="white" stroke-width="1.5" pointer-events="none"/>
                </g>
                <g id="dirArrow">
                        <path fill="none" stroke="white" stroke-width="1.5" d="M0,-3.0v7 M-2.5,-0.5L0,-3.0L2.5,-0.5"/>
                </g>
               <g id="resetDef">
                       <use xlink:href="#rim2" fill="#404040">
                               <set attributeName="fill" to="#808080" begin="reset.mouseover" end="reset.mouseout"/>
                       </use>
               </g>
        </defs>

<script type="text/javascript">
var viewWidth = 798;
var viewHeight = 218;
var sectionId = 'dynsection-0';
</script>
<script xlink:href="../../svgpan.js"/>
<svg id="graph" class="graph">
<g id="viewport">
<title>backend.command.BinaryBooleanOperation</title>
<polygon fill="white" stroke="none" points="-4,4 -4,-214 794,-214 794,4 -4,4"/>
<!-- Node1 -->
<g id="node1" class="node"><title>Node1</title>
<polygon fill="#bfbfbf" stroke="black" points="400.5,-90 400.5,-120 581.5,-120 581.5,-90 400.5,-90"/>
<text text-anchor="start" x="408.5" y="-108" font-family="Helvetica,sans-Serif" font-size="10.00">backend.command.BinaryBoolean</text>
<text text-anchor="middle" x="491" y="-97" font-family="Helvetica,sans-Serif" font-size="10.00">Operation</text>
</g>
<!-- Node4 -->
<g id="node4" class="node"><title>Node4</title>
<g id="a_node4"><a xlink:href="../../d7/d62/classbackend_1_1command_1_1_and.html" target="_top" xlink:title="backend.command.And">
<polygon fill="white" stroke="black" points="638.5,-190.5 638.5,-209.5 769.5,-209.5 769.5,-190.5 638.5,-190.5"/>
<text text-anchor="middle" x="704" y="-197.5" font-family="Helvetica,sans-Serif" font-size="10.00">backend.command.And</text>
</a>
</g>
</g>
<!-- Node1&#45;&gt;Node4 -->
<g id="edge3" class="edge"><title>Node1&#45;&gt;Node4</title>
<path fill="none" stroke="midnightblue" d="M520.486,-125.868C545.148,-143.009 582.366,-166.712 618,-181 627.403,-184.77 637.707,-187.869 647.795,-190.388"/>
<polygon fill="midnightblue" stroke="midnightblue" points="522.499,-123.006 512.309,-120.105 518.466,-128.727 522.499,-123.006"/>
</g>
<!-- Node5 -->
<g id="node5" class="node"><title>Node5</title>
<g id="a_node5"><a xlink:href="../../d4/d07/classbackend_1_1command_1_1_equal.html" target="_top" xlink:title="backend.command.Equal">
<polygon fill="white" stroke="black" points="635,-152.5 635,-171.5 773,-171.5 773,-152.5 635,-152.5"/>
<text text-anchor="middle" x="704" y="-159.5" font-family="Helvetica,sans-Serif" font-size="10.00">backend.command.Equal</text>
</a>
</g>
</g>
<!-- Node1&#45;&gt;Node5 -->
<g id="edge4" class="edge"><title>Node1&#45;&gt;Node5</title>
<path fill="none" stroke="midnightblue" d="M548.706,-123.062C570.298,-129.687 595.193,-137.02 618,-143 630.725,-146.336 644.618,-149.599 657.416,-152.454"/>
<polygon fill="midnightblue" stroke="midnightblue" points="549.624,-119.683 539.037,-120.076 547.559,-126.371 549.624,-119.683"/>
</g>
<!-- Node6 -->
<g id="node6" class="node"><title>Node6</title>
<g id="a_node6"><a xlink:href="../../da/da8/classbackend_1_1command_1_1_greater_than.html" target="_top" xlink:title="backend.command.GreaterThan">
<polygon fill="white" stroke="black" points="618,-114.5 618,-133.5 790,-133.5 790,-114.5 618,-114.5"/>
<text text-anchor="middle" x="704" y="-121.5" font-family="Helvetica,sans-Serif" font-size="10.00">backend.command.GreaterThan</text>
</a>
</g>
</g>
<!-- Node1&#45;&gt;Node6 -->
<g id="edge5" class="edge"><title>Node1&#45;&gt;Node6</title>
<path fill="none" stroke="midnightblue" d="M591.967,-114.002C600.669,-114.785 609.421,-115.573 617.986,-116.345"/>
<polygon fill="midnightblue" stroke="midnightblue" points="592.063,-110.496 581.789,-113.085 591.435,-117.468 592.063,-110.496"/>
</g>
<!-- Node7 -->
<g id="node7" class="node"><title>Node7</title>
<g id="a_node7"><a xlink:href="../../d2/db4/classbackend_1_1command_1_1_less_than.html" target="_top" xlink:title="backend.command.LessThan">
<polygon fill="white" stroke="black" points="625.5,-76.5 625.5,-95.5 782.5,-95.5 782.5,-76.5 625.5,-76.5"/>
<text text-anchor="middle" x="704" y="-83.5" font-family="Helvetica,sans-Serif" font-size="10.00">backend.command.LessThan</text>
</a>
</g>
</g>
<!-- Node1&#45;&gt;Node7 -->
<g id="edge6" class="edge"><title>Node1&#45;&gt;Node7</title>
<path fill="none" stroke="midnightblue" d="M592.015,-95.9939C603.19,-94.9876 614.448,-93.9738 625.285,-92.998"/>
<polygon fill="midnightblue" stroke="midnightblue" points="591.435,-92.5319 581.789,-96.9147 592.063,-99.5037 591.435,-92.5319"/>
</g>
<!-- Node8 -->
<g id="node8" class="node"><title>Node8</title>
<g id="a_node8"><a xlink:href="../../dd/d8e/classbackend_1_1command_1_1_not_equal.html" target="_top" xlink:title="backend.command.NotEqual">
<polygon fill="white" stroke="black" points="626.5,-38.5 626.5,-57.5 781.5,-57.5 781.5,-38.5 626.5,-38.5"/>
<text text-anchor="middle" x="704" y="-45.5" font-family="Helvetica,sans-Serif" font-size="10.00">backend.command.NotEqual</text>
</a>
</g>
</g>
<!-- Node1&#45;&gt;Node8 -->
<g id="edge7" class="edge"><title>Node1&#45;&gt;Node8</title>
<path fill="none" stroke="midnightblue" d="M548.706,-86.9376C570.298,-80.3133 595.193,-72.9797 618,-67 630.725,-63.6636 644.618,-60.4006 657.416,-57.5463"/>
<polygon fill="midnightblue" stroke="midnightblue" points="547.559,-83.6288 539.037,-89.9239 549.624,-90.3171 547.559,-83.6288"/>
</g>
<!-- Node9 -->
<g id="node9" class="node"><title>Node9</title>
<g id="a_node9"><a xlink:href="../../d0/d7e/classbackend_1_1command_1_1_or.html" target="_top" xlink:title="backend.command.Or">
<polygon fill="white" stroke="black" points="642.5,-0.5 642.5,-19.5 765.5,-19.5 765.5,-0.5 642.5,-0.5"/>
<text text-anchor="middle" x="704" y="-7.5" font-family="Helvetica,sans-Serif" font-size="10.00">backend.command.Or</text>
</a>
</g>
</g>
<!-- Node1&#45;&gt;Node9 -->
<g id="edge8" class="edge"><title>Node1&#45;&gt;Node9</title>
<path fill="none" stroke="midnightblue" d="M520.486,-84.1317C545.148,-66.991 582.366,-43.2876 618,-29 627.403,-25.2296 637.707,-22.1314 647.795,-19.6117"/>
<polygon fill="midnightblue" stroke="midnightblue" points="518.466,-81.2728 512.309,-89.8947 522.499,-86.9945 518.466,-81.2728"/>
</g>
<!-- Node2 -->
<g id="node2" class="node"><title>Node2</title>
<g id="a_node2"><a xlink:href="../../dc/d64/classbackend_1_1command_1_1_binary_math_operation.html" target="_top" xlink:title="backend.command.BinaryMath\lOperation">
<polygon fill="white" stroke="black" points="198,-90 198,-120 364,-120 364,-90 198,-90"/>
<text text-anchor="start" x="206" y="-108" font-family="Helvetica,sans-Serif" font-size="10.00">backend.command.BinaryMath</text>
<text text-anchor="middle" x="281" y="-97" font-family="Helvetica,sans-Serif" font-size="10.00">Operation</text>
</a>
</g>
</g>
<!-- Node2&#45;&gt;Node1 -->
<g id="edge1" class="edge"><title>Node2&#45;&gt;Node1</title>
<path fill="none" stroke="midnightblue" d="M374.25,-105C382.86,-105 391.579,-105 400.167,-105"/>
<polygon fill="midnightblue" stroke="midnightblue" points="374.207,-101.5 364.207,-105 374.207,-108.5 374.207,-101.5"/>
</g>
<!-- Node3 -->
<g id="node3" class="node"><title>Node3</title>
<g id="a_node3"><a xlink:href="../../dc/d83/classbackend_1_1command_1_1_command.html" target="_top" xlink:title="backend.command.Command">
<polygon fill="white" stroke="black" points="0,-95.5 0,-114.5 162,-114.5 162,-95.5 0,-95.5"/>
<text text-anchor="middle" x="81" y="-102.5" font-family="Helvetica,sans-Serif" font-size="10.00">backend.command.Command</text>
</a>
</g>
</g>
<!-- Node3&#45;&gt;Node2 -->
<g id="edge2" class="edge"><title>Node3&#45;&gt;Node2</title>
<path fill="none" stroke="midnightblue" d="M172.456,-105C180.871,-105 189.369,-105 197.704,-105"/>
<polygon fill="midnightblue" stroke="midnightblue" points="172.249,-101.5 162.249,-105 172.249,-108.5 172.249,-101.5"/>
</g>
</g>
</svg>
        <g id="navigator" transform="translate(0 0)" fill="#404254">
                <rect fill="#f2f5e9" fill-opacity="0.5" stroke="#606060" stroke-width=".5" x="0" y="0" width="60" height="60"/>
                <use id="zoomplus" xlink:href="#zoomPlus" x="17" y="9" onmousedown="handleZoom(evt,'in')"/>
                <use id="zoomminus" xlink:href="#zoomMin" x="42" y="9" onmousedown="handleZoom(evt,'out')"/>
                <use id="reset" xlink:href="#resetDef" x="30" y="36" onmousedown="handleReset()"/>
                <g id="arrowUp" xlink:href="#dirArrow" transform="translate(30 24)" onmousedown="handlePan(0,-1)">
                  <use xlink:href="#rim" fill="#404040">
                        <set attributeName="fill" to="#808080" begin="arrowUp.mouseover" end="arrowUp.mouseout"/>
                  </use>
                  <path fill="none" stroke="white" stroke-width="1.5" d="M0,-3.0v7 M-2.5,-0.5L0,-3.0L2.5,-0.5"/>
                </g>
                <g id="arrowRight" xlink:href="#dirArrow" transform="rotate(90) translate(36 -43)" onmousedown="handlePan(1,0)">
                  <use xlink:href="#rim" fill="#404040">
                        <set attributeName="fill" to="#808080" begin="arrowRight.mouseover" end="arrowRight.mouseout"/>
                  </use>
                  <path fill="none" stroke="white" stroke-width="1.5" d="M0,-3.0v7 M-2.5,-0.5L0,-3.0L2.5,-0.5"/>
                </g>
                <g id="arrowDown" xlink:href="#dirArrow" transform="rotate(180) translate(-30 -48)" onmousedown="handlePan(0,1)">
                  <use xlink:href="#rim" fill="#404040">
                        <set attributeName="fill" to="#808080" begin="arrowDown.mouseover" end="arrowDown.mouseout"/>
                  </use>
                  <path fill="none" stroke="white" stroke-width="1.5" d="M0,-3.0v7 M-2.5,-0.5L0,-3.0L2.5,-0.5"/>
                </g>
                <g id="arrowLeft" xlink:href="#dirArrow" transform="rotate(270) translate(-36 17)" onmousedown="handlePan(-1,0)">
                  <use xlink:href="#rim" fill="#404040">
                        <set attributeName="fill" to="#808080" begin="arrowLeft.mouseover" end="arrowLeft.mouseout"/>
                  </use>
                  <path fill="none" stroke="white" stroke-width="1.5" d="M0,-3.0v7 M-2.5,-0.5L0,-3.0L2.5,-0.5"/>
                </g>
        </g>
        <svg viewBox="0 0 15 15" width="100%" height="30px" preserveAspectRatio="xMaxYMin meet">
         <g id="arrow_out" transform="scale(0.3 0.3)">
          <a xlink:href="classbackend_1_1command_1_1_binary_boolean_operation__inherit__graph_org.svg" target="_base">
           <rect id="button" ry="5" rx="5" y="6" x="6" height="38" width="38"
                fill="#f2f5e9" fill-opacity="0.5" stroke="#606060" stroke-width="1.0"/>
           <path id="arrow"
             d="M 11.500037,31.436501 C 11.940474,20.09759 22.043105,11.32322 32.158766,21.979434 L 37.068811,17.246167 C 37.068811,17.246167 37.088388,32 37.088388,32 L 22.160133,31.978069 C 22.160133,31.978069 26.997745,27.140456 26.997745,27.140456 C 18.528582,18.264221 13.291696,25.230495 11.500037,31.436501 z"
             style="fill:#404040;"/>
          </a>
         </g>
        </svg>
</svg>
