<?xml version="1.0" encoding="UTF-8" standalone="no"?>
<!DOCTYPE svg PUBLIC "-//W3C//DTD SVG 1.1//EN"
 "http://www.w3.org/Graphics/SVG/1.1/DTD/svg11.dtd">
<!-- Generated by graphviz version 2.36.0 (20140111.2315)
 -->
<!-- Title: gui.textAreas.CommandBox.getText Pages: 1 -->
<svg width="554pt" height="28pt"
 viewBox="0.00 0.00 554.00 28.00" xmlns="http://www.w3.org/2000/svg" xmlns:xlink="http://www.w3.org/1999/xlink">
<g id="graph0" class="graph" transform="scale(1 1) rotate(0) translate(4 24)">
<title>gui.textAreas.CommandBox.getText</title>
<polygon fill="white" stroke="none" points="-4,4 -4,-24 550,-24 550,4 -4,4"/>
<!-- Node1 -->
<g id="node1" class="node"><title>Node1</title>
<polygon fill="#bfbfbf" stroke="black" points="0.5,-0.5 0.5,-19.5 189.5,-19.5 189.5,-0.5 0.5,-0.5"/>
<text text-anchor="middle" x="95" y="-7.5" font-family="Helvetica,sans-Serif" font-size="10.00">gui.textAreas.CommandBox.getText</text>
</g>
<!-- Node2 -->
<g id="node2" class="node"><title>Node2</title>
<g id="a_node2"><a xlink:href="../../d5/d8a/classgui_1_1_slogo_tab.html#a2a016875b2ea48fa761cd4408a78dd21" target="_top" xlink:title="gui.SlogoTab.setButtonActions">
<polygon fill="white" stroke="black" points="226,-0.5 226,-19.5 388,-19.5 388,-0.5 226,-0.5"/>
<text text-anchor="middle" x="307" y="-7.5" font-family="Helvetica,sans-Serif" font-size="10.00">gui.SlogoTab.setButtonActions</text>
</a>
</g>
</g>
<!-- Node1&#45;&gt;Node2 -->
<g id="edge1" class="edge"><title>Node1&#45;&gt;Node2</title>
<path fill="none" stroke="midnightblue" d="M199.823,-10C208.515,-10 217.218,-10 225.694,-10"/>
<polygon fill="midnightblue" stroke="midnightblue" points="199.638,-6.5001 189.638,-10 199.638,-13.5001 199.638,-6.5001"/>
</g>
<!-- Node3 -->
<g id="node3" class="node"><title>Node3</title>
<g id="a_node3"><a xlink:href="../../d5/d8a/classgui_1_1_slogo_tab.html#adaa134bc95e1dcf4eb30b3a185c75175" target="_top" xlink:title="gui.SlogoTab.SlogoTab">
<polygon fill="white" stroke="black" points="424,-0.5 424,-19.5 546,-19.5 546,-0.5 424,-0.5"/>
<text text-anchor="middle" x="485" y="-7.5" font-family="Helvetica,sans-Serif" font-size="10.00">gui.SlogoTab.SlogoTab</text>
</a>
</g>
</g>
<!-- Node2&#45;&gt;Node3 -->
<g id="edge2" class="edge"><title>Node2&#45;&gt;Node3</title>
<path fill="none" stroke="midnightblue" d="M398.235,-10C406.945,-10 415.626,-10 423.936,-10"/>
<polygon fill="midnightblue" stroke="midnightblue" points="398.018,-6.5001 388.018,-10 398.018,-13.5001 398.018,-6.5001"/>
</g>
</g>
</svg>
