<?xml version="1.0" encoding="UTF-8" standalone="no"?>
<!DOCTYPE svg PUBLIC "-//W3C//DTD SVG 1.1//EN"
 "http://www.w3.org/Graphics/SVG/1.1/DTD/svg11.dtd">
<!-- Generated by graphviz version 2.36.0 (20140111.2315)
 -->
<!-- Title: gui.textAreas.CommandBox.CommandBox Pages: 1 -->
<svg width="370pt" height="38pt"
 viewBox="0.00 0.00 370.00 38.00" xmlns="http://www.w3.org/2000/svg" xmlns:xlink="http://www.w3.org/1999/xlink">
<g id="graph0" class="graph" transform="scale(1 1) rotate(0) translate(4 34)">
<title>gui.textAreas.CommandBox.CommandBox</title>
<polygon fill="white" stroke="none" points="-4,4 -4,-34 366,-34 366,4 -4,4"/>
<!-- Node1 -->
<g id="node1" class="node"><title>Node1</title>
<polygon fill="#bfbfbf" stroke="black" points="0.5,-0 0.5,-30 155.5,-30 155.5,-0 0.5,-0"/>
<text text-anchor="start" x="8.5" y="-18" font-family="Helvetica,sans-Serif" font-size="10.00">gui.textAreas.CommandBox.</text>
<text text-anchor="middle" x="78" y="-7" font-family="Helvetica,sans-Serif" font-size="10.00">CommandBox</text>
</g>
<!-- Node2 -->
<g id="node2" class="node"><title>Node2</title>
<g id="a_node2"><a xlink:href="../../db/dbc/classgui_1_1text_areas_1_1_command_box.html#a28d6eaa47d8ef4548e19ba562592de1b" target="_top" xlink:title="gui.textAreas.CommandBox.set\lCommandBoxPromptText">
<polygon fill="white" stroke="black" points="192,-0 192,-30 362,-30 362,-0 192,-0"/>
<text text-anchor="start" x="200" y="-18" font-family="Helvetica,sans-Serif" font-size="10.00">gui.textAreas.CommandBox.set</text>
<text text-anchor="middle" x="277" y="-7" font-family="Helvetica,sans-Serif" font-size="10.00">CommandBoxPromptText</text>
</a>
</g>
</g>
<!-- Node1&#45;&gt;Node2 -->
<g id="edge1" class="edge"><title>Node1&#45;&gt;Node2</title>
<path fill="none" stroke="midnightblue" d="M155.729,-15C164.271,-15 173.043,-15 181.769,-15"/>
<polygon fill="midnightblue" stroke="midnightblue" points="181.977,-18.5001 191.977,-15 181.977,-11.5001 181.977,-18.5001"/>
</g>
</g>
</svg>
