<?xml version="1.0" encoding="UTF-8" standalone="no"?>
<!DOCTYPE svg PUBLIC "-//W3C//DTD SVG 1.1//EN"
 "http://www.w3.org/Graphics/SVG/1.1/DTD/svg11.dtd">
<!-- Generated by graphviz version 2.36.0 (20140111.2315)
 -->
<!-- Title: backend.Pen.clearLines Pages: 1 -->
<svg width="560pt" height="28pt"
 viewBox="0.00 0.00 560.00 28.00" xmlns="http://www.w3.org/2000/svg" xmlns:xlink="http://www.w3.org/1999/xlink">
<g id="graph0" class="graph" transform="scale(1 1) rotate(0) translate(4 24)">
<title>backend.Pen.clearLines</title>
<polygon fill="white" stroke="none" points="-4,4 -4,-24 556,-24 556,4 -4,4"/>
<!-- Node1 -->
<g id="node1" class="node"><title>Node1</title>
<polygon fill="#bfbfbf" stroke="black" points="0.5,-0.5 0.5,-19.5 129.5,-19.5 129.5,-0.5 0.5,-0.5"/>
<text text-anchor="middle" x="65" y="-7.5" font-family="Helvetica,sans-Serif" font-size="10.00">backend.Pen.clearLines</text>
</g>
<!-- Node2 -->
<g id="node2" class="node"><title>Node2</title>
<g id="a_node2"><a xlink:href="../../df/de2/classbackend_1_1_turtle.html#a8bb7b6d88d2696aa884d1e2c5d7dc812" target="_top" xlink:title="backend.Turtle.clearLines">
<polygon fill="white" stroke="black" points="166.5,-0.5 166.5,-19.5 303.5,-19.5 303.5,-0.5 166.5,-0.5"/>
<text text-anchor="middle" x="235" y="-7.5" font-family="Helvetica,sans-Serif" font-size="10.00">backend.Turtle.clearLines</text>
</a>
</g>
</g>
<!-- Node1&#45;&gt;Node2 -->
<g id="edge1" class="edge"><title>Node1&#45;&gt;Node2</title>
<path fill="none" stroke="midnightblue" d="M139.535,-10C148.492,-10 157.61,-10 166.474,-10"/>
<polygon fill="midnightblue" stroke="midnightblue" points="139.514,-6.5001 129.514,-10 139.514,-13.5001 139.514,-6.5001"/>
</g>
<!-- Node3 -->
<g id="node3" class="node"><title>Node3</title>
<g id="a_node3"><a xlink:href="../../d0/d99/classbackend_1_1command_1_1_clear_screen.html#acbfb39c1cc575e85b075b11a96d8d026" target="_top" xlink:title="backend.command.ClearScreen.execute">
<polygon fill="white" stroke="black" points="340,-0.5 340,-19.5 552,-19.5 552,-0.5 340,-0.5"/>
<text text-anchor="middle" x="446" y="-7.5" font-family="Helvetica,sans-Serif" font-size="10.00">backend.command.ClearScreen.execute</text>
</a>
</g>
</g>
<!-- Node2&#45;&gt;Node3 -->
<g id="edge2" class="edge"><title>Node2&#45;&gt;Node3</title>
<path fill="none" stroke="midnightblue" d="M313.757,-10C322.226,-10 330.946,-10 339.674,-10"/>
<polygon fill="midnightblue" stroke="midnightblue" points="313.568,-6.5001 303.568,-10 313.568,-13.5001 313.568,-6.5001"/>
</g>
</g>
</svg>
