<?xml version="1.0" encoding="UTF-8" standalone="no"?>
<!DOCTYPE svg PUBLIC "-//W3C//DTD SVG 1.1//EN"
 "http://www.w3.org/Graphics/SVG/1.1/DTD/svg11.dtd">
<!-- Generated by graphviz version 2.36.0 (20140111.2315)
 -->
<!-- Title: backend.Pen.setDown Pages: 1 -->
<svg width="548pt" height="66pt"
 viewBox="0.00 0.00 548.00 66.00" xmlns="http://www.w3.org/2000/svg" xmlns:xlink="http://www.w3.org/1999/xlink">
<g id="graph0" class="graph" transform="scale(1 1) rotate(0) translate(4 62)">
<title>backend.Pen.setDown</title>
<polygon fill="white" stroke="none" points="-4,4 -4,-62 544,-62 544,4 -4,4"/>
<!-- Node1 -->
<g id="node1" class="node"><title>Node1</title>
<polygon fill="#bfbfbf" stroke="black" points="0,-19.5 0,-38.5 122,-38.5 122,-19.5 0,-19.5"/>
<text text-anchor="middle" x="61" y="-26.5" font-family="Helvetica,sans-Serif" font-size="10.00">backend.Pen.setDown</text>
</g>
<!-- Node2 -->
<g id="node2" class="node"><title>Node2</title>
<g id="a_node2"><a xlink:href="../../df/de2/classbackend_1_1_turtle.html#afd9a35fc030e1c1316fe461a970787ec" target="_top" xlink:title="backend.Turtle.setPenDown">
<polygon fill="white" stroke="black" points="158,-38.5 158,-57.5 306,-57.5 306,-38.5 158,-38.5"/>
<text text-anchor="middle" x="232" y="-45.5" font-family="Helvetica,sans-Serif" font-size="10.00">backend.Turtle.setPenDown</text>
</a>
</g>
</g>
<!-- Node1&#45;&gt;Node2 -->
<g id="edge1" class="edge"><title>Node1&#45;&gt;Node2</title>
<path fill="none" stroke="midnightblue" d="M132.241,-36.8969C140.687,-37.8464 149.328,-38.818 157.815,-39.7721"/>
<polygon fill="midnightblue" stroke="midnightblue" points="132.387,-33.3914 122.059,-35.7522 131.605,-40.3476 132.387,-33.3914"/>
</g>
<!-- Node4 -->
<g id="node4" class="node"><title>Node4</title>
<g id="a_node4"><a xlink:href="../../df/de2/classbackend_1_1_turtle.html#a6269bcb0ae3cc187871cf135cd046b05" target="_top" xlink:title="backend.Turtle.setPenUp">
<polygon fill="white" stroke="black" points="164.5,-0.5 164.5,-19.5 299.5,-19.5 299.5,-0.5 164.5,-0.5"/>
<text text-anchor="middle" x="232" y="-7.5" font-family="Helvetica,sans-Serif" font-size="10.00">backend.Turtle.setPenUp</text>
</a>
</g>
</g>
<!-- Node1&#45;&gt;Node4 -->
<g id="edge3" class="edge"><title>Node1&#45;&gt;Node4</title>
<path fill="none" stroke="midnightblue" d="M132.126,-21.116C142.751,-19.9215 153.687,-18.692 164.237,-17.5059"/>
<polygon fill="midnightblue" stroke="midnightblue" points="131.605,-17.6524 122.059,-22.2478 132.387,-24.6086 131.605,-17.6524"/>
</g>
<!-- Node3 -->
<g id="node3" class="node"><title>Node3</title>
<g id="a_node3"><a xlink:href="../../df/df5/classbackend_1_1command_1_1_pen_down.html#adc703cc0c7326c995ee51fb8640ec6d9" target="_top" xlink:title="backend.command.PenDown.execute">
<polygon fill="white" stroke="black" points="342.5,-38.5 342.5,-57.5 539.5,-57.5 539.5,-38.5 342.5,-38.5"/>
<text text-anchor="middle" x="441" y="-45.5" font-family="Helvetica,sans-Serif" font-size="10.00">backend.command.PenDown.execute</text>
</a>
</g>
</g>
<!-- Node2&#45;&gt;Node3 -->
<g id="edge2" class="edge"><title>Node2&#45;&gt;Node3</title>
<path fill="none" stroke="midnightblue" d="M316.481,-48C324.94,-48 333.584,-48 342.176,-48"/>
<polygon fill="midnightblue" stroke="midnightblue" points="316.272,-44.5001 306.272,-48 316.272,-51.5001 316.272,-44.5001"/>
</g>
<!-- Node5 -->
<g id="node5" class="node"><title>Node5</title>
<g id="a_node5"><a xlink:href="../../d9/d98/classbackend_1_1command_1_1_pen_up.html#aced34c1afd58802c4535c77e0575110f" target="_top" xlink:title="backend.command.PenUp.execute">
<polygon fill="white" stroke="black" points="348.5,-0.5 348.5,-19.5 533.5,-19.5 533.5,-0.5 348.5,-0.5"/>
<text text-anchor="middle" x="441" y="-7.5" font-family="Helvetica,sans-Serif" font-size="10.00">backend.command.PenUp.execute</text>
</a>
</g>
</g>
<!-- Node4&#45;&gt;Node5 -->
<g id="edge4" class="edge"><title>Node4&#45;&gt;Node5</title>
<path fill="none" stroke="midnightblue" d="M309.96,-10C322.427,-10 335.444,-10 348.22,-10"/>
<polygon fill="midnightblue" stroke="midnightblue" points="309.636,-6.5001 299.636,-10 309.635,-13.5001 309.636,-6.5001"/>
</g>
</g>
</svg>
