<?xml version="1.0" encoding="UTF-8" standalone="no"?>
<!DOCTYPE svg PUBLIC "-//W3C//DTD SVG 1.1//EN"
 "http://www.w3.org/Graphics/SVG/1.1/DTD/svg11.dtd">
<!-- Generated by graphviz version 2.36.0 (20140111.2315)
 -->
<!-- Title: backend.command.VariableRetriever.execute Pages: 1 -->
<svg width="620pt" height="87pt"
 viewBox="0.00 0.00 620.00 87.00" xmlns="http://www.w3.org/2000/svg" xmlns:xlink="http://www.w3.org/1999/xlink">
<g id="graph0" class="graph" transform="scale(1 1) rotate(0) translate(4 83)">
<title>backend.command.VariableRetriever.execute</title>
<polygon fill="white" stroke="none" points="-4,4 -4,-83 616,-83 616,4 -4,4"/>
<!-- Node1 -->
<g id="node1" class="node"><title>Node1</title>
<polygon fill="#bfbfbf" stroke="black" points="0,-24 0,-54 150,-54 150,-24 0,-24"/>
<text text-anchor="start" x="8" y="-42" font-family="Helvetica,sans-Serif" font-size="10.00">backend.command.Variable</text>
<text text-anchor="middle" x="75" y="-31" font-family="Helvetica,sans-Serif" font-size="10.00">Retriever.execute</text>
</g>
<!-- Node2 -->
<g id="node2" class="node"><title>Node2</title>
<g id="a_node2"><a xlink:href="../../dc/d83/classbackend_1_1command_1_1_command.html#a30ab16925e876eb02790426a494a0516" target="_top" xlink:title="backend.command.Command.get\lTypedString">
<polygon fill="white" stroke="black" points="203.5,-49 203.5,-79 384.5,-79 384.5,-49 203.5,-49"/>
<text text-anchor="start" x="211.5" y="-67" font-family="Helvetica,sans-Serif" font-size="10.00">backend.command.Command.get</text>
<text text-anchor="middle" x="294" y="-56" font-family="Helvetica,sans-Serif" font-size="10.00">TypedString</text>
</a>
</g>
</g>
<!-- Node1&#45;&gt;Node2 -->
<g id="edge1" class="edge"><title>Node1&#45;&gt;Node2</title>
<path fill="none" stroke="midnightblue" d="M150.072,-47.5337C163.939,-49.1312 178.642,-50.8251 193.138,-52.4952"/>
<polygon fill="midnightblue" stroke="midnightblue" points="192.794,-55.9786 203.128,-53.6461 193.595,-49.0245 192.794,-55.9786"/>
</g>
<!-- Node4 -->
<g id="node4" class="node"><title>Node4</title>
<g id="a_node4"><a xlink:href="../../dc/d67/classbackend_1_1command_1_1_model_command.html#a1900a3c4024fdcd4f3b82e1916a4bb3e" target="_top" xlink:title="backend.command.ModelCommand.user\lVariables">
<polygon fill="white" stroke="black" points="186.5,-0 186.5,-30 401.5,-30 401.5,-0 186.5,-0"/>
<text text-anchor="start" x="194.5" y="-18" font-family="Helvetica,sans-Serif" font-size="10.00">backend.command.ModelCommand.user</text>
<text text-anchor="middle" x="294" y="-7" font-family="Helvetica,sans-Serif" font-size="10.00">Variables</text>
</a>
</g>
</g>
<!-- Node1&#45;&gt;Node4 -->
<g id="edge3" class="edge"><title>Node1&#45;&gt;Node4</title>
<path fill="none" stroke="midnightblue" d="M150.072,-30.8077C158.547,-29.8704 167.334,-28.8985 176.196,-27.9184"/>
<polygon fill="midnightblue" stroke="midnightblue" points="176.665,-31.388 186.22,-26.8098 175.895,-24.4304 176.665,-31.388"/>
</g>
<!-- Node3 -->
<g id="node3" class="node"><title>Node3</title>
<g id="a_node3"><a xlink:href="../../d0/d6a/classbackend_1_1_string_pair.html#a453e5442c32c1bd7df15dc48f2da4624" target="_top" xlink:title="backend.StringPair.getValue">
<polygon fill="white" stroke="black" points="450,-54.5 450,-73.5 600,-73.5 600,-54.5 450,-54.5"/>
<text text-anchor="middle" x="525" y="-61.5" font-family="Helvetica,sans-Serif" font-size="10.00">backend.StringPair.getValue</text>
</a>
</g>
</g>
<!-- Node2&#45;&gt;Node3 -->
<g id="edge2" class="edge"><title>Node2&#45;&gt;Node3</title>
<path fill="none" stroke="midnightblue" d="M384.521,-64C402.642,-64 421.641,-64 439.579,-64"/>
<polygon fill="midnightblue" stroke="midnightblue" points="439.712,-67.5001 449.712,-64 439.712,-60.5001 439.712,-67.5001"/>
</g>
<!-- Node5 -->
<g id="node5" class="node"><title>Node5</title>
<g id="a_node5"><a xlink:href="../../d3/dac/classbackend_1_1_model.html#a834151b5a74c7a2a136f51ed6a1a709f" target="_top" xlink:title="backend.Model.getUserVariables">
<polygon fill="white" stroke="black" points="438.5,-5.5 438.5,-24.5 611.5,-24.5 611.5,-5.5 438.5,-5.5"/>
<text text-anchor="middle" x="525" y="-12.5" font-family="Helvetica,sans-Serif" font-size="10.00">backend.Model.getUserVariables</text>
</a>
</g>
</g>
<!-- Node4&#45;&gt;Node5 -->
<g id="edge4" class="edge"><title>Node4&#45;&gt;Node5</title>
<path fill="none" stroke="midnightblue" d="M401.79,-15C410.59,-15 419.451,-15 428.163,-15"/>
<polygon fill="midnightblue" stroke="midnightblue" points="428.311,-18.5001 438.311,-15 428.311,-11.5001 428.311,-18.5001"/>
</g>
</g>
</svg>
