<?xml version="1.0" encoding="UTF-8" standalone="no"?>
<!DOCTYPE svg PUBLIC "-//W3C//DTD SVG 1.1//EN"
 "http://www.w3.org/Graphics/SVG/1.1/DTD/svg11.dtd">
<!-- Generated by graphviz version 2.36.0 (20140111.2315)
 -->
<!-- Title: backend.Pen.isDown Pages: 1 -->
<svg width="950pt" height="180pt"
 viewBox="0.00 0.00 950.00 180.00" xmlns="http://www.w3.org/2000/svg" xmlns:xlink="http://www.w3.org/1999/xlink">
<g id="graph0" class="graph" transform="scale(1 1) rotate(0) translate(4 176)">
<title>backend.Pen.isDown</title>
<polygon fill="white" stroke="none" points="-4,4 -4,-176 946,-176 946,4 -4,4"/>
<!-- Node1 -->
<g id="node1" class="node"><title>Node1</title>
<polygon fill="#bfbfbf" stroke="black" points="0.5,-76.5 0.5,-95.5 115.5,-95.5 115.5,-76.5 0.5,-76.5"/>
<text text-anchor="middle" x="58" y="-83.5" font-family="Helvetica,sans-Serif" font-size="10.00">backend.Pen.isDown</text>
</g>
<!-- Node2 -->
<g id="node2" class="node"><title>Node2</title>
<g id="a_node2"><a xlink:href="../../de/dc9/classbackend_1_1_pen.html#a135b3b945d4033d3a3e8e56552ff8782" target="_top" xlink:title="backend.Pen.drawLine">
<polygon fill="white" stroke="black" points="152.5,-114.5 152.5,-133.5 275.5,-133.5 275.5,-114.5 152.5,-114.5"/>
<text text-anchor="middle" x="214" y="-121.5" font-family="Helvetica,sans-Serif" font-size="10.00">backend.Pen.drawLine</text>
</a>
</g>
</g>
<!-- Node1&#45;&gt;Node2 -->
<g id="edge1" class="edge"><title>Node1&#45;&gt;Node2</title>
<path fill="none" stroke="midnightblue" d="M107.794,-98.04C129.308,-103.349 154.232,-109.499 174.419,-114.48"/>
<polygon fill="midnightblue" stroke="midnightblue" points="108.408,-94.5867 97.8607,-95.589 106.731,-101.383 108.408,-94.5867"/>
</g>
<!-- Node9 -->
<g id="node9" class="node"><title>Node9</title>
<g id="a_node9"><a xlink:href="../../de/dc9/classbackend_1_1_pen.html#adffbb5c25bb78ffc4b679ed822f0a1d0" target="_top" xlink:title="backend.Pen.Pen">
<polygon fill="white" stroke="black" points="164.5,-76.5 164.5,-95.5 263.5,-95.5 263.5,-76.5 164.5,-76.5"/>
<text text-anchor="middle" x="214" y="-83.5" font-family="Helvetica,sans-Serif" font-size="10.00">backend.Pen.Pen</text>
</a>
</g>
</g>
<!-- Node1&#45;&gt;Node9 -->
<g id="edge8" class="edge"><title>Node1&#45;&gt;Node9</title>
<path fill="none" stroke="midnightblue" d="M126.128,-86C139.009,-86 152.264,-86 164.42,-86"/>
<polygon fill="midnightblue" stroke="midnightblue" points="125.906,-82.5001 115.906,-86 125.906,-89.5001 125.906,-82.5001"/>
</g>
<!-- Node10 -->
<g id="node10" class="node"><title>Node10</title>
<g id="a_node10"><a xlink:href="../../de/dc9/classbackend_1_1_pen.html#a75748f196e519d6d7cbed599f3617d71" target="_top" xlink:title="backend.Pen.setDown">
<polygon fill="white" stroke="black" points="153,-38.5 153,-57.5 275,-57.5 275,-38.5 153,-38.5"/>
<text text-anchor="middle" x="214" y="-45.5" font-family="Helvetica,sans-Serif" font-size="10.00">backend.Pen.setDown</text>
</a>
</g>
</g>
<!-- Node1&#45;&gt;Node10 -->
<g id="edge9" class="edge"><title>Node1&#45;&gt;Node10</title>
<path fill="none" stroke="midnightblue" d="M107.794,-73.96C129.308,-68.6512 154.232,-62.5012 174.419,-57.5201"/>
<polygon fill="midnightblue" stroke="midnightblue" points="106.731,-70.6172 97.8607,-76.411 108.408,-77.4133 106.731,-70.6172"/>
</g>
<!-- Node3 -->
<g id="node3" class="node"><title>Node3</title>
<g id="a_node3"><a xlink:href="../../df/de2/classbackend_1_1_turtle.html#a86c40ae8c6731af071b31f3bbbe21deb" target="_top" xlink:title="backend.Turtle.moveToPoint">
<polygon fill="white" stroke="black" points="312.5,-114.5 312.5,-133.5 461.5,-133.5 461.5,-114.5 312.5,-114.5"/>
<text text-anchor="middle" x="387" y="-121.5" font-family="Helvetica,sans-Serif" font-size="10.00">backend.Turtle.moveToPoint</text>
</a>
</g>
</g>
<!-- Node2&#45;&gt;Node3 -->
<g id="edge2" class="edge"><title>Node2&#45;&gt;Node3</title>
<path fill="none" stroke="midnightblue" d="M285.873,-124C294.581,-124 303.497,-124 312.246,-124"/>
<polygon fill="midnightblue" stroke="midnightblue" points="285.77,-120.5 275.77,-124 285.77,-127.5 285.77,-120.5"/>
</g>
<!-- Node4 -->
<g id="node4" class="node"><title>Node4</title>
<g id="a_node4"><a xlink:href="../../df/d00/classbackend_1_1command_1_1_home.html#adcadf9a1ca80334c0def5dd86ae1a6dc" target="_top" xlink:title="backend.command.Home.execute">
<polygon fill="white" stroke="black" points="511,-152.5 511,-171.5 693,-171.5 693,-152.5 511,-152.5"/>
<text text-anchor="middle" x="602" y="-159.5" font-family="Helvetica,sans-Serif" font-size="10.00">backend.command.Home.execute</text>
</a>
</g>
</g>
<!-- Node3&#45;&gt;Node4 -->
<g id="edge3" class="edge"><title>Node3&#45;&gt;Node4</title>
<path fill="none" stroke="midnightblue" d="M451.603,-135.347C482.163,-140.799 518.382,-147.261 547.504,-152.456"/>
<polygon fill="midnightblue" stroke="midnightblue" points="451.933,-131.851 441.474,-133.54 450.704,-138.742 451.933,-131.851"/>
</g>
<!-- Node5 -->
<g id="node5" class="node"><title>Node5</title>
<g id="a_node5"><a xlink:href="../../d5/db7/classbackend_1_1command_1_1_set_position.html#ad352a4e88e36db0d2360299d1d0f54ec" target="_top" xlink:title="backend.command.SetPosition.execute">
<polygon fill="white" stroke="black" points="498.5,-114.5 498.5,-133.5 705.5,-133.5 705.5,-114.5 498.5,-114.5"/>
<text text-anchor="middle" x="602" y="-121.5" font-family="Helvetica,sans-Serif" font-size="10.00">backend.command.SetPosition.execute</text>
</a>
</g>
</g>
<!-- Node3&#45;&gt;Node5 -->
<g id="edge4" class="edge"><title>Node3&#45;&gt;Node5</title>
<path fill="none" stroke="midnightblue" d="M471.774,-124C480.538,-124 489.517,-124 498.458,-124"/>
<polygon fill="midnightblue" stroke="midnightblue" points="471.601,-120.5 461.601,-124 471.601,-127.5 471.601,-120.5"/>
</g>
<!-- Node6 -->
<g id="node6" class="node"><title>Node6</title>
<g id="a_node6"><a xlink:href="../../df/de2/classbackend_1_1_turtle.html#a1b45c4ecc2d7cd43cd947fdf9429305b" target="_top" xlink:title="backend.Turtle.move">
<polygon fill="white" stroke="black" points="544,-76.5 544,-95.5 660,-95.5 660,-76.5 544,-76.5"/>
<text text-anchor="middle" x="602" y="-83.5" font-family="Helvetica,sans-Serif" font-size="10.00">backend.Turtle.move</text>
</a>
</g>
</g>
<!-- Node3&#45;&gt;Node6 -->
<g id="edge5" class="edge"><title>Node3&#45;&gt;Node6</title>
<path fill="none" stroke="midnightblue" d="M451.603,-112.653C482.163,-107.201 518.382,-100.739 547.504,-95.5439"/>
<polygon fill="midnightblue" stroke="midnightblue" points="450.704,-109.258 441.474,-114.46 451.933,-116.149 450.704,-109.258"/>
</g>
<!-- Node7 -->
<g id="node7" class="node"><title>Node7</title>
<g id="a_node7"><a xlink:href="../../dc/d25/classbackend_1_1command_1_1_backward.html#a8555647247f244625e7e60bc10753202" target="_top" xlink:title="backend.command.Backward.execute">
<polygon fill="white" stroke="black" points="742.5,-95.5 742.5,-114.5 941.5,-114.5 941.5,-95.5 742.5,-95.5"/>
<text text-anchor="middle" x="842" y="-102.5" font-family="Helvetica,sans-Serif" font-size="10.00">backend.command.Backward.execute</text>
</a>
</g>
</g>
<!-- Node6&#45;&gt;Node7 -->
<g id="edge6" class="edge"><title>Node6&#45;&gt;Node7</title>
<path fill="none" stroke="midnightblue" d="M670.06,-91.3535C692.439,-93.1401 717.867,-95.1701 742.144,-97.1081"/>
<polygon fill="midnightblue" stroke="midnightblue" points="670.254,-87.858 660.007,-90.551 669.697,-94.8358 670.254,-87.858"/>
</g>
<!-- Node8 -->
<g id="node8" class="node"><title>Node8</title>
<g id="a_node8"><a xlink:href="../../d8/d49/classbackend_1_1command_1_1_forward.html#a007c0c9940ad2e960dfd044388fcee0f" target="_top" xlink:title="backend.command.Forward.execute">
<polygon fill="white" stroke="black" points="746.5,-57.5 746.5,-76.5 937.5,-76.5 937.5,-57.5 746.5,-57.5"/>
<text text-anchor="middle" x="842" y="-64.5" font-family="Helvetica,sans-Serif" font-size="10.00">backend.command.Forward.execute</text>
</a>
</g>
</g>
<!-- Node6&#45;&gt;Node8 -->
<g id="edge7" class="edge"><title>Node6&#45;&gt;Node8</title>
<path fill="none" stroke="midnightblue" d="M670.259,-80.6306C693.888,-78.7442 720.898,-76.588 746.354,-74.5558"/>
<polygon fill="midnightblue" stroke="midnightblue" points="669.697,-77.1642 660.007,-81.449 670.254,-84.142 669.697,-77.1642"/>
</g>
<!-- Node11 -->
<g id="node11" class="node"><title>Node11</title>
<g id="a_node11"><a xlink:href="../../df/de2/classbackend_1_1_turtle.html#afd9a35fc030e1c1316fe461a970787ec" target="_top" xlink:title="backend.Turtle.setPenDown">
<polygon fill="white" stroke="black" points="313,-38.5 313,-57.5 461,-57.5 461,-38.5 313,-38.5"/>
<text text-anchor="middle" x="387" y="-45.5" font-family="Helvetica,sans-Serif" font-size="10.00">backend.Turtle.setPenDown</text>
</a>
</g>
</g>
<!-- Node10&#45;&gt;Node11 -->
<g id="edge10" class="edge"><title>Node10&#45;&gt;Node11</title>
<path fill="none" stroke="midnightblue" d="M285.371,-48C294.409,-48 303.679,-48 312.762,-48"/>
<polygon fill="midnightblue" stroke="midnightblue" points="285.288,-44.5001 275.288,-48 285.288,-51.5001 285.288,-44.5001"/>
</g>
<!-- Node13 -->
<g id="node13" class="node"><title>Node13</title>
<g id="a_node13"><a xlink:href="../../df/de2/classbackend_1_1_turtle.html#a6269bcb0ae3cc187871cf135cd046b05" target="_top" xlink:title="backend.Turtle.setPenUp">
<polygon fill="white" stroke="black" points="319.5,-0.5 319.5,-19.5 454.5,-19.5 454.5,-0.5 319.5,-0.5"/>
<text text-anchor="middle" x="387" y="-7.5" font-family="Helvetica,sans-Serif" font-size="10.00">backend.Turtle.setPenUp</text>
</a>
</g>
</g>
<!-- Node10&#45;&gt;Node13 -->
<g id="edge12" class="edge"><title>Node10&#45;&gt;Node13</title>
<path fill="none" stroke="midnightblue" d="M268.209,-36.1757C292.317,-30.8184 320.44,-24.5689 343.16,-19.5201"/>
<polygon fill="midnightblue" stroke="midnightblue" points="267.153,-32.825 258.151,-38.411 268.672,-39.6583 267.153,-32.825"/>
</g>
<!-- Node12 -->
<g id="node12" class="node"><title>Node12</title>
<g id="a_node12"><a xlink:href="../../df/df5/classbackend_1_1command_1_1_pen_down.html#adc703cc0c7326c995ee51fb8640ec6d9" target="_top" xlink:title="backend.command.PenDown.execute">
<polygon fill="white" stroke="black" points="503.5,-38.5 503.5,-57.5 700.5,-57.5 700.5,-38.5 503.5,-38.5"/>
<text text-anchor="middle" x="602" y="-45.5" font-family="Helvetica,sans-Serif" font-size="10.00">backend.command.PenDown.execute</text>
</a>
</g>
</g>
<!-- Node11&#45;&gt;Node12 -->
<g id="edge11" class="edge"><title>Node11&#45;&gt;Node12</title>
<path fill="none" stroke="midnightblue" d="M471.02,-48C481.586,-48 492.475,-48 503.245,-48"/>
<polygon fill="midnightblue" stroke="midnightblue" points="471.005,-44.5001 461.005,-48 471.004,-51.5001 471.005,-44.5001"/>
</g>
<!-- Node14 -->
<g id="node14" class="node"><title>Node14</title>
<g id="a_node14"><a xlink:href="../../d9/d98/classbackend_1_1command_1_1_pen_up.html#aced34c1afd58802c4535c77e0575110f" target="_top" xlink:title="backend.command.PenUp.execute">
<polygon fill="white" stroke="black" points="509.5,-0.5 509.5,-19.5 694.5,-19.5 694.5,-0.5 509.5,-0.5"/>
<text text-anchor="middle" x="602" y="-7.5" font-family="Helvetica,sans-Serif" font-size="10.00">backend.command.PenUp.execute</text>
</a>
</g>
</g>
<!-- Node13&#45;&gt;Node14 -->
<g id="edge13" class="edge"><title>Node13&#45;&gt;Node14</title>
<path fill="none" stroke="midnightblue" d="M464.847,-10C479.245,-10 494.429,-10 509.226,-10"/>
<polygon fill="midnightblue" stroke="midnightblue" points="464.518,-6.5001 454.518,-10 464.518,-13.5001 464.518,-6.5001"/>
</g>
</g>
</svg>
