<?xml version="1.0" encoding="UTF-8" standalone="no"?>
<!DOCTYPE svg PUBLIC "-//W3C//DTD SVG 1.1//EN"
 "http://www.w3.org/Graphics/SVG/1.1/DTD/svg11.dtd">
<!-- Generated by graphviz version 2.36.0 (20140111.2315)
 -->
<!-- Title: backend.Pen.drawLine Pages: 1 -->
<svg width="798pt" height="123pt"
 viewBox="0.00 0.00 798.00 123.00" xmlns="http://www.w3.org/2000/svg" xmlns:xlink="http://www.w3.org/1999/xlink">
<g id="graph0" class="graph" transform="scale(1 1) rotate(0) translate(4 119)">
<title>backend.Pen.drawLine</title>
<polygon fill="white" stroke="none" points="-4,4 -4,-119 794,-119 794,4 -4,4"/>
<!-- Node1 -->
<g id="node1" class="node"><title>Node1</title>
<polygon fill="#bfbfbf" stroke="black" points="0.5,-57.5 0.5,-76.5 123.5,-76.5 123.5,-57.5 0.5,-57.5"/>
<text text-anchor="middle" x="62" y="-64.5" font-family="Helvetica,sans-Serif" font-size="10.00">backend.Pen.drawLine</text>
</g>
<!-- Node2 -->
<g id="node2" class="node"><title>Node2</title>
<g id="a_node2"><a xlink:href="../../df/de2/classbackend_1_1_turtle.html#a86c40ae8c6731af071b31f3bbbe21deb" target="_top" xlink:title="backend.Turtle.moveToPoint">
<polygon fill="white" stroke="black" points="160.5,-57.5 160.5,-76.5 309.5,-76.5 309.5,-57.5 160.5,-57.5"/>
<text text-anchor="middle" x="235" y="-64.5" font-family="Helvetica,sans-Serif" font-size="10.00">backend.Turtle.moveToPoint</text>
</a>
</g>
</g>
<!-- Node1&#45;&gt;Node2 -->
<g id="edge1" class="edge"><title>Node1&#45;&gt;Node2</title>
<path fill="none" stroke="midnightblue" d="M133.873,-67C142.581,-67 151.497,-67 160.246,-67"/>
<polygon fill="midnightblue" stroke="midnightblue" points="133.77,-63.5001 123.77,-67 133.77,-70.5001 133.77,-63.5001"/>
</g>
<!-- Node3 -->
<g id="node3" class="node"><title>Node3</title>
<g id="a_node3"><a xlink:href="../../df/d00/classbackend_1_1command_1_1_home.html#adcadf9a1ca80334c0def5dd86ae1a6dc" target="_top" xlink:title="backend.command.Home.execute">
<polygon fill="white" stroke="black" points="359,-95.5 359,-114.5 541,-114.5 541,-95.5 359,-95.5"/>
<text text-anchor="middle" x="450" y="-102.5" font-family="Helvetica,sans-Serif" font-size="10.00">backend.command.Home.execute</text>
</a>
</g>
</g>
<!-- Node2&#45;&gt;Node3 -->
<g id="edge2" class="edge"><title>Node2&#45;&gt;Node3</title>
<path fill="none" stroke="midnightblue" d="M299.603,-78.347C330.163,-83.7991 366.382,-90.2607 395.504,-95.4561"/>
<polygon fill="midnightblue" stroke="midnightblue" points="299.933,-74.8507 289.474,-76.54 298.704,-81.7419 299.933,-74.8507"/>
</g>
<!-- Node4 -->
<g id="node4" class="node"><title>Node4</title>
<g id="a_node4"><a xlink:href="../../d5/db7/classbackend_1_1command_1_1_set_position.html#ad352a4e88e36db0d2360299d1d0f54ec" target="_top" xlink:title="backend.command.SetPosition.execute">
<polygon fill="white" stroke="black" points="346.5,-57.5 346.5,-76.5 553.5,-76.5 553.5,-57.5 346.5,-57.5"/>
<text text-anchor="middle" x="450" y="-64.5" font-family="Helvetica,sans-Serif" font-size="10.00">backend.command.SetPosition.execute</text>
</a>
</g>
</g>
<!-- Node2&#45;&gt;Node4 -->
<g id="edge3" class="edge"><title>Node2&#45;&gt;Node4</title>
<path fill="none" stroke="midnightblue" d="M319.774,-67C328.538,-67 337.517,-67 346.458,-67"/>
<polygon fill="midnightblue" stroke="midnightblue" points="319.601,-63.5001 309.601,-67 319.601,-70.5001 319.601,-63.5001"/>
</g>
<!-- Node5 -->
<g id="node5" class="node"><title>Node5</title>
<g id="a_node5"><a xlink:href="../../df/de2/classbackend_1_1_turtle.html#a1b45c4ecc2d7cd43cd947fdf9429305b" target="_top" xlink:title="backend.Turtle.move">
<polygon fill="white" stroke="black" points="392,-19.5 392,-38.5 508,-38.5 508,-19.5 392,-19.5"/>
<text text-anchor="middle" x="450" y="-26.5" font-family="Helvetica,sans-Serif" font-size="10.00">backend.Turtle.move</text>
</a>
</g>
</g>
<!-- Node2&#45;&gt;Node5 -->
<g id="edge4" class="edge"><title>Node2&#45;&gt;Node5</title>
<path fill="none" stroke="midnightblue" d="M299.603,-55.653C330.163,-50.2009 366.382,-43.7393 395.504,-38.5439"/>
<polygon fill="midnightblue" stroke="midnightblue" points="298.704,-52.2581 289.474,-57.46 299.933,-59.1493 298.704,-52.2581"/>
</g>
<!-- Node6 -->
<g id="node6" class="node"><title>Node6</title>
<g id="a_node6"><a xlink:href="../../dc/d25/classbackend_1_1command_1_1_backward.html#a8555647247f244625e7e60bc10753202" target="_top" xlink:title="backend.command.Backward.execute">
<polygon fill="white" stroke="black" points="590.5,-38.5 590.5,-57.5 789.5,-57.5 789.5,-38.5 590.5,-38.5"/>
<text text-anchor="middle" x="690" y="-45.5" font-family="Helvetica,sans-Serif" font-size="10.00">backend.command.Backward.execute</text>
</a>
</g>
</g>
<!-- Node5&#45;&gt;Node6 -->
<g id="edge5" class="edge"><title>Node5&#45;&gt;Node6</title>
<path fill="none" stroke="midnightblue" d="M518.06,-34.3535C540.439,-36.1401 565.867,-38.1701 590.144,-40.1081"/>
<polygon fill="midnightblue" stroke="midnightblue" points="518.254,-30.858 508.007,-33.551 517.697,-37.8358 518.254,-30.858"/>
</g>
<!-- Node7 -->
<g id="node7" class="node"><title>Node7</title>
<g id="a_node7"><a xlink:href="../../d8/d49/classbackend_1_1command_1_1_forward.html#a007c0c9940ad2e960dfd044388fcee0f" target="_top" xlink:title="backend.command.Forward.execute">
<polygon fill="white" stroke="black" points="594.5,-0.5 594.5,-19.5 785.5,-19.5 785.5,-0.5 594.5,-0.5"/>
<text text-anchor="middle" x="690" y="-7.5" font-family="Helvetica,sans-Serif" font-size="10.00">backend.command.Forward.execute</text>
</a>
</g>
</g>
<!-- Node5&#45;&gt;Node7 -->
<g id="edge6" class="edge"><title>Node5&#45;&gt;Node7</title>
<path fill="none" stroke="midnightblue" d="M518.259,-23.6306C541.888,-21.7442 568.898,-19.588 594.354,-17.5558"/>
<polygon fill="midnightblue" stroke="midnightblue" points="517.697,-20.1642 508.007,-24.449 518.254,-27.142 517.697,-20.1642"/>
</g>
</g>
</svg>
