<?xml version="1.0" encoding="UTF-8" standalone="no"?>
<!DOCTYPE svg PUBLIC "-//W3C//DTD SVG 1.1//EN"
 "http://www.w3.org/Graphics/SVG/1.1/DTD/svg11.dtd">
<!-- Generated by graphviz version 2.36.0 (20140111.2315)
 -->
<!-- Title: backend.Grid Pages: 1 -->
<svg width="344pt" height="230pt"
 viewBox="0.00 0.00 344.00 230.00" xmlns="http://www.w3.org/2000/svg" xmlns:xlink="http://www.w3.org/1999/xlink">
<g id="graph0" class="graph" transform="scale(1 1) rotate(0) translate(4 226)">
<title>backend.Grid</title>
<polygon fill="white" stroke="none" points="-4,4 -4,-226 340,-226 340,4 -4,4"/>
<!-- Node1 -->
<g id="node1" class="node"><title>Node1</title>
<polygon fill="#bfbfbf" stroke="black" points="256,-107.5 256,-126.5 336,-126.5 336,-107.5 256,-107.5"/>
<text text-anchor="middle" x="296" y="-114.5" font-family="Helvetica,sans-Serif" font-size="10.00">backend.Grid</text>
</g>
<!-- Node2 -->
<g id="node2" class="node"><title>Node2</title>
<polygon fill="white" stroke="#bfbfbf" points="57.5,-202.5 57.5,-221.5 98.5,-221.5 98.5,-202.5 57.5,-202.5"/>
<text text-anchor="middle" x="78" y="-209.5" font-family="Helvetica,sans-Serif" font-size="10.00">Color</text>
</g>
<!-- Node2&#45;&gt;Node1 -->
<g id="edge1" class="edge"><title>Node2&#45;&gt;Node1</title>
<path fill="none" stroke="#9a32cd" stroke-dasharray="5,2" d="M108.601,-209.771C141.916,-206.203 196.762,-197.066 238,-174 259.497,-161.976 278.377,-139.544 288.078,-126.698"/>
<polygon fill="#9a32cd" stroke="#9a32cd" points="108.2,-206.294 98.5861,-210.745 108.878,-213.261 108.2,-206.294"/>
<text text-anchor="middle" x="206" y="-200" font-family="Helvetica,sans-Serif" font-size="10.00"> bgColor</text>
</g>
<!-- Node3 -->
<g id="node3" class="node"><title>Node3</title>
<g id="a_node3"><a xlink:href="../../df/d77/classbackend_1_1_bi_index.html" target="_top" xlink:title="backend.BiIndex\&lt; String \&gt;">
<polygon fill="white" stroke="black" points="5,-164.5 5,-183.5 151,-183.5 151,-164.5 5,-164.5"/>
<text text-anchor="middle" x="78" y="-171.5" font-family="Helvetica,sans-Serif" font-size="10.00">backend.BiIndex&lt; String &gt;</text>
</a>
</g>
</g>
<!-- Node3&#45;&gt;Node1 -->
<g id="edge2" class="edge"><title>Node3&#45;&gt;Node1</title>
<path fill="none" stroke="#9a32cd" stroke-dasharray="5,2" d="M156.317,-162.698C182.579,-157.868 211.878,-151.375 238,-143 251.465,-138.683 265.953,-132.046 276.953,-126.558"/>
<polygon fill="#9a32cd" stroke="#9a32cd" points="155.642,-159.263 146.413,-164.468 156.873,-166.154 155.642,-159.263"/>
<text text-anchor="middle" x="206" y="-162" font-family="Helvetica,sans-Serif" font-size="10.00"> imageMap</text>
</g>
<!-- Node4 -->
<g id="node4" class="node"><title>Node4</title>
<polygon fill="white" stroke="#bfbfbf" points="3,-126.5 3,-145.5 153,-145.5 153,-126.5 3,-126.5"/>
<text text-anchor="middle" x="78" y="-133.5" font-family="Helvetica,sans-Serif" font-size="10.00">ArrayList&lt; backend.Turtle &gt;</text>
</g>
<!-- Node4&#45;&gt;Node1 -->
<g id="edge3" class="edge"><title>Node4&#45;&gt;Node1</title>
<path fill="none" stroke="#9a32cd" stroke-dasharray="5,2" d="M163.291,-128.586C195.247,-125.775 230.117,-122.707 255.946,-120.435"/>
<polygon fill="#9a32cd" stroke="#9a32cd" points="162.688,-125.125 153.033,-129.488 163.301,-132.098 162.688,-125.125"/>
<text text-anchor="middle" x="206" y="-131" font-family="Helvetica,sans-Serif" font-size="10.00"> activeTurtles</text>
</g>
<!-- Node5 -->
<g id="node5" class="node"><title>Node5</title>
<polygon fill="white" stroke="#bfbfbf" points="44,-88.5 44,-107.5 112,-107.5 112,-88.5 44,-88.5"/>
<text text-anchor="middle" x="78" y="-95.5" font-family="Helvetica,sans-Serif" font-size="10.00">Dimension</text>
</g>
<!-- Node5&#45;&gt;Node1 -->
<g id="edge4" class="edge"><title>Node5&#45;&gt;Node1</title>
<path fill="none" stroke="#9a32cd" stroke-dasharray="5,2" d="M122.62,-99.6402C154.622,-101.112 199.097,-103.715 238,-108 243.776,-108.636 249.86,-109.446 255.817,-110.318"/>
<polygon fill="#9a32cd" stroke="#9a32cd" points="122.416,-96.1279 112.272,-99.1838 122.108,-103.121 122.416,-96.1279"/>
<text text-anchor="middle" x="206" y="-111" font-family="Helvetica,sans-Serif" font-size="10.00"> size</text>
</g>
<!-- Node6 -->
<g id="node6" class="node"><title>Node6</title>
<polygon fill="white" stroke="#bfbfbf" points="0,-39 0,-69 156,-69 156,-39 0,-39"/>
<text text-anchor="start" x="8" y="-57" font-family="Helvetica,sans-Serif" font-size="10.00">HashMap&lt; Integer, backend.</text>
<text text-anchor="middle" x="78" y="-46" font-family="Helvetica,sans-Serif" font-size="10.00">Turtle &gt;</text>
</g>
<!-- Node6&#45;&gt;Node1 -->
<g id="edge5" class="edge"><title>Node6&#45;&gt;Node1</title>
<path fill="none" stroke="#9a32cd" stroke-dasharray="5,2" d="M166.161,-68.381C189.815,-73.4287 215.185,-79.9128 238,-88 252.442,-93.1191 267.877,-101.146 279.038,-107.459"/>
<polygon fill="#9a32cd" stroke="#9a32cd" points="166.643,-64.9067 156.141,-66.3052 165.223,-71.7611 166.643,-64.9067"/>
<text text-anchor="middle" x="206" y="-91" font-family="Helvetica,sans-Serif" font-size="10.00"> allTurtles</text>
</g>
<!-- Node7 -->
<g id="node7" class="node"><title>Node7</title>
<g id="a_node7"><a xlink:href="../../df/d77/classbackend_1_1_bi_index.html" target="_top" xlink:title="backend.BiIndex\&lt; Color \&gt;">
<polygon fill="white" stroke="black" points="7,-0.5 7,-19.5 149,-19.5 149,-0.5 7,-0.5"/>
<text text-anchor="middle" x="78" y="-7.5" font-family="Helvetica,sans-Serif" font-size="10.00">backend.BiIndex&lt; Color &gt;</text>
</a>
</g>
</g>
<!-- Node7&#45;&gt;Node1 -->
<g id="edge6" class="edge"><title>Node7&#45;&gt;Node1</title>
<path fill="none" stroke="#9a32cd" stroke-dasharray="5,2" d="M151.642,-21.8014C180.126,-28.7097 212.117,-39.4576 238,-56 259.739,-69.8938 278.804,-93.9575 288.404,-107.332"/>
<polygon fill="#9a32cd" stroke="#9a32cd" points="152.259,-18.352 141.728,-19.5148 150.686,-25.1729 152.259,-18.352"/>
<text text-anchor="middle" x="206" y="-59" font-family="Helvetica,sans-Serif" font-size="10.00"> colorMap</text>
</g>
</g>
</svg>
