<?xml version="1.0" encoding="UTF-8" standalone="no"?>
<!DOCTYPE svg PUBLIC "-//W3C//DTD SVG 1.1//EN"
 "http://www.w3.org/Graphics/SVG/1.1/DTD/svg11.dtd">
<!-- Generated by graphviz version 2.36.0 (20140111.2315)
 -->
<!-- Title: gui.textAreas.UserVariablesBox.UserVariablesBox Pages: 1 -->
<svg width="356pt" height="234pt"
 viewBox="0.00 0.00 356.00 234.00" xmlns="http://www.w3.org/2000/svg" xmlns:xlink="http://www.w3.org/1999/xlink">
<g id="graph0" class="graph" transform="scale(1 1) rotate(0) translate(4 230)">
<title>gui.textAreas.UserVariablesBox.UserVariablesBox</title>
<polygon fill="white" stroke="none" points="-4,4 -4,-230 352,-230 352,4 -4,4"/>
<!-- Node1 -->
<g id="node1" class="node"><title>Node1</title>
<polygon fill="#bfbfbf" stroke="black" points="0.5,-98 0.5,-128 149.5,-128 149.5,-98 0.5,-98"/>
<text text-anchor="start" x="8.5" y="-116" font-family="Helvetica,sans-Serif" font-size="10.00">gui.textAreas.UserVariables</text>
<text text-anchor="middle" x="75" y="-105" font-family="Helvetica,sans-Serif" font-size="10.00">Box.UserVariablesBox</text>
</g>
<!-- Node2 -->
<g id="node2" class="node"><title>Node2</title>
<g id="a_node2"><a xlink:href="../../d8/d85/classgui_1_1text_areas_1_1_abstract_editable_text_box.html#ad4fad0a869cb08703d66e5af3c947ad8" target="_top" xlink:title="gui.textAreas.AbstractEditable\lTextBox.addTextAreaToRegion">
<polygon fill="white" stroke="black" points="186,-196 186,-226 348,-226 348,-196 186,-196"/>
<text text-anchor="start" x="194" y="-214" font-family="Helvetica,sans-Serif" font-size="10.00">gui.textAreas.AbstractEditable</text>
<text text-anchor="middle" x="267" y="-203" font-family="Helvetica,sans-Serif" font-size="10.00">TextBox.addTextAreaToRegion</text>
</a>
</g>
</g>
<!-- Node1&#45;&gt;Node2 -->
<g id="edge1" class="edge"><title>Node1&#45;&gt;Node2</title>
<path fill="none" stroke="midnightblue" d="M95.2594,-128.246C116.463,-144.426 152.062,-169.84 186,-186 190.845,-188.307 195.953,-190.468 201.15,-192.477"/>
<polygon fill="midnightblue" stroke="midnightblue" points="199.966,-195.771 210.56,-195.929 202.377,-189.199 199.966,-195.771"/>
</g>
<!-- Node3 -->
<g id="node3" class="node"><title>Node3</title>
<g id="a_node3"><a xlink:href="../../d8/d85/classgui_1_1text_areas_1_1_abstract_editable_text_box.html#af6fc5d24e81e96264642b5009ba5509b" target="_top" xlink:title="gui.textAreas.AbstractEditable\lTextBox.makeTextArea">
<polygon fill="white" stroke="black" points="186,-147 186,-177 348,-177 348,-147 186,-147"/>
<text text-anchor="start" x="194" y="-165" font-family="Helvetica,sans-Serif" font-size="10.00">gui.textAreas.AbstractEditable</text>
<text text-anchor="middle" x="267" y="-154" font-family="Helvetica,sans-Serif" font-size="10.00">TextBox.makeTextArea</text>
</a>
</g>
</g>
<!-- Node1&#45;&gt;Node3 -->
<g id="edge2" class="edge"><title>Node1&#45;&gt;Node3</title>
<path fill="none" stroke="midnightblue" d="M134.297,-128.035C154.45,-133.232 177.206,-139.101 198.064,-144.48"/>
<polygon fill="midnightblue" stroke="midnightblue" points="197.256,-147.886 207.813,-146.994 199.004,-141.107 197.256,-147.886"/>
</g>
<!-- Node4 -->
<g id="node4" class="node"><title>Node4</title>
<g id="a_node4"><a xlink:href="../../d8/d85/classgui_1_1text_areas_1_1_abstract_editable_text_box.html#a2b5153268bf760e7f8a12b7c677a0230" target="_top" xlink:title="gui.textAreas.AbstractEditable\lTextBox.setRegionPreferences">
<polygon fill="white" stroke="black" points="186,-98 186,-128 348,-128 348,-98 186,-98"/>
<text text-anchor="start" x="194" y="-116" font-family="Helvetica,sans-Serif" font-size="10.00">gui.textAreas.AbstractEditable</text>
<text text-anchor="middle" x="267" y="-105" font-family="Helvetica,sans-Serif" font-size="10.00">TextBox.setRegionPreferences</text>
</a>
</g>
</g>
<!-- Node1&#45;&gt;Node4 -->
<g id="edge3" class="edge"><title>Node1&#45;&gt;Node4</title>
<path fill="none" stroke="midnightblue" d="M149.731,-113C158.203,-113 166.913,-113 175.572,-113"/>
<polygon fill="midnightblue" stroke="midnightblue" points="175.697,-116.5 185.697,-113 175.697,-109.5 175.697,-116.5"/>
</g>
<!-- Node5 -->
<g id="node5" class="node"><title>Node5</title>
<g id="a_node5"><a xlink:href="../../d8/d85/classgui_1_1text_areas_1_1_abstract_editable_text_box.html#a4d11b0e2189de6b7bc4a7a248ce3a00d" target="_top" xlink:title="gui.textAreas.AbstractEditable\lTextBox.setxLocation">
<polygon fill="white" stroke="black" points="186,-49 186,-79 348,-79 348,-49 186,-49"/>
<text text-anchor="start" x="194" y="-67" font-family="Helvetica,sans-Serif" font-size="10.00">gui.textAreas.AbstractEditable</text>
<text text-anchor="middle" x="267" y="-56" font-family="Helvetica,sans-Serif" font-size="10.00">TextBox.setxLocation</text>
</a>
</g>
</g>
<!-- Node1&#45;&gt;Node5 -->
<g id="edge4" class="edge"><title>Node1&#45;&gt;Node5</title>
<path fill="none" stroke="midnightblue" d="M134.297,-97.9654C154.45,-92.7682 177.206,-86.8994 198.064,-81.5204"/>
<polygon fill="midnightblue" stroke="midnightblue" points="199.004,-84.8926 207.813,-79.0062 197.256,-78.1144 199.004,-84.8926"/>
</g>
<!-- Node6 -->
<g id="node6" class="node"><title>Node6</title>
<g id="a_node6"><a xlink:href="../../d8/d85/classgui_1_1text_areas_1_1_abstract_editable_text_box.html#a26ca62985a5feafd0b04eb6fb707e376" target="_top" xlink:title="gui.textAreas.AbstractEditable\lTextBox.setyLocation">
<polygon fill="white" stroke="black" points="186,-0 186,-30 348,-30 348,-0 186,-0"/>
<text text-anchor="start" x="194" y="-18" font-family="Helvetica,sans-Serif" font-size="10.00">gui.textAreas.AbstractEditable</text>
<text text-anchor="middle" x="267" y="-7" font-family="Helvetica,sans-Serif" font-size="10.00">TextBox.setyLocation</text>
</a>
</g>
</g>
<!-- Node1&#45;&gt;Node6 -->
<g id="edge5" class="edge"><title>Node1&#45;&gt;Node6</title>
<path fill="none" stroke="midnightblue" d="M95.2594,-97.7535C116.463,-81.5741 152.062,-56.1598 186,-40 190.845,-37.6932 195.953,-35.5322 201.15,-33.523"/>
<polygon fill="midnightblue" stroke="midnightblue" points="202.377,-36.8011 210.56,-30.0714 199.966,-30.2292 202.377,-36.8011"/>
</g>
</g>
</svg>
