<?xml version="1.0" encoding="UTF-8" standalone="no"?>
<!DOCTYPE svg PUBLIC "-//W3C//DTD SVG 1.1//EN"
 "http://www.w3.org/Graphics/SVG/1.1/DTD/svg11.dtd">
<!-- Generated by graphviz version 2.36.0 (20140111.2315)
 -->
<!-- Title: gui.textAreas.UserVariablesBox.getFields Pages: 1 -->
<svg width="886pt" height="38pt"
 viewBox="0.00 0.00 886.00 38.00" xmlns="http://www.w3.org/2000/svg" xmlns:xlink="http://www.w3.org/1999/xlink">
<g id="graph0" class="graph" transform="scale(1 1) rotate(0) translate(4 34)">
<title>gui.textAreas.UserVariablesBox.getFields</title>
<polygon fill="white" stroke="none" points="-4,4 -4,-34 882,-34 882,4 -4,4"/>
<!-- Node1 -->
<g id="node1" class="node"><title>Node1</title>
<polygon fill="#bfbfbf" stroke="black" points="0.5,-0 0.5,-30 149.5,-30 149.5,-0 0.5,-0"/>
<text text-anchor="start" x="8.5" y="-18" font-family="Helvetica,sans-Serif" font-size="10.00">gui.textAreas.UserVariables</text>
<text text-anchor="middle" x="75" y="-7" font-family="Helvetica,sans-Serif" font-size="10.00">Box.getFields</text>
</g>
<!-- Node2 -->
<g id="node2" class="node"><title>Node2</title>
<g id="a_node2"><a xlink:href="../../d5/d8a/classgui_1_1_slogo_tab.html#a03a42aa384aecd96eb89297dd88de728" target="_top" xlink:title="gui.SlogoTab.setVariablesBox">
<polygon fill="white" stroke="black" points="186,-5.5 186,-24.5 342,-24.5 342,-5.5 186,-5.5"/>
<text text-anchor="middle" x="264" y="-12.5" font-family="Helvetica,sans-Serif" font-size="10.00">gui.SlogoTab.setVariablesBox</text>
</a>
</g>
</g>
<!-- Node1&#45;&gt;Node2 -->
<g id="edge1" class="edge"><title>Node1&#45;&gt;Node2</title>
<path fill="none" stroke="midnightblue" d="M159.73,-15C168.386,-15 177.155,-15 185.736,-15"/>
<polygon fill="midnightblue" stroke="midnightblue" points="159.639,-11.5001 149.639,-15 159.639,-18.5001 159.639,-11.5001"/>
</g>
<!-- Node3 -->
<g id="node3" class="node"><title>Node3</title>
<g id="a_node3"><a xlink:href="../../d5/d8a/classgui_1_1_slogo_tab.html#a9ccb322bec15528476c85f84e53f14d9" target="_top" xlink:title="gui.SlogoTab.updatePanels">
<polygon fill="white" stroke="black" points="378,-5.5 378,-24.5 522,-24.5 522,-5.5 378,-5.5"/>
<text text-anchor="middle" x="450" y="-12.5" font-family="Helvetica,sans-Serif" font-size="10.00">gui.SlogoTab.updatePanels</text>
</a>
</g>
</g>
<!-- Node2&#45;&gt;Node3 -->
<g id="edge2" class="edge"><title>Node2&#45;&gt;Node3</title>
<path fill="none" stroke="midnightblue" d="M352.252,-15C360.823,-15 369.449,-15 377.832,-15"/>
<polygon fill="midnightblue" stroke="midnightblue" points="352.233,-11.5001 342.233,-15 352.233,-18.5001 352.233,-11.5001"/>
</g>
<!-- Node4 -->
<g id="node4" class="node"><title>Node4</title>
<g id="a_node4"><a xlink:href="../../d5/d8a/classgui_1_1_slogo_tab.html#a2a016875b2ea48fa761cd4408a78dd21" target="_top" xlink:title="gui.SlogoTab.setButtonActions">
<polygon fill="white" stroke="black" points="558,-5.5 558,-24.5 720,-24.5 720,-5.5 558,-5.5"/>
<text text-anchor="middle" x="639" y="-12.5" font-family="Helvetica,sans-Serif" font-size="10.00">gui.SlogoTab.setButtonActions</text>
</a>
</g>
</g>
<!-- Node3&#45;&gt;Node4 -->
<g id="edge3" class="edge"><title>Node3&#45;&gt;Node4</title>
<path fill="none" stroke="midnightblue" d="M532.449,-15C540.896,-15 549.476,-15 557.908,-15"/>
<polygon fill="midnightblue" stroke="midnightblue" points="532.23,-11.5001 522.23,-15 532.23,-18.5001 532.23,-11.5001"/>
</g>
<!-- Node5 -->
<g id="node5" class="node"><title>Node5</title>
<g id="a_node5"><a xlink:href="../../d5/d8a/classgui_1_1_slogo_tab.html#adaa134bc95e1dcf4eb30b3a185c75175" target="_top" xlink:title="gui.SlogoTab.SlogoTab">
<polygon fill="white" stroke="black" points="756,-5.5 756,-24.5 878,-24.5 878,-5.5 756,-5.5"/>
<text text-anchor="middle" x="817" y="-12.5" font-family="Helvetica,sans-Serif" font-size="10.00">gui.SlogoTab.SlogoTab</text>
</a>
</g>
</g>
<!-- Node4&#45;&gt;Node5 -->
<g id="edge4" class="edge"><title>Node4&#45;&gt;Node5</title>
<path fill="none" stroke="midnightblue" d="M730.235,-15C738.945,-15 747.626,-15 755.936,-15"/>
<polygon fill="midnightblue" stroke="midnightblue" points="730.018,-11.5001 720.018,-15 730.018,-18.5001 730.018,-11.5001"/>
</g>
</g>
</svg>
