<?xml version="1.0" encoding="UTF-8" standalone="no"?>
<!DOCTYPE svg PUBLIC "-//W3C//DTD SVG 1.1//EN"
 "http://www.w3.org/Graphics/SVG/1.1/DTD/svg11.dtd">
<!-- Generated by graphviz version 2.36.0 (20140111.2315)
 -->
<!-- Title: gui.textAreas.CommandBox Pages: 1 -->
<svg width="283pt" height="186pt"
 viewBox="0.00 0.00 283.00 186.00" xmlns="http://www.w3.org/2000/svg" xmlns:xlink="http://www.w3.org/1999/xlink">
<g id="graph0" class="graph" transform="scale(1 1) rotate(0) translate(4 182)">
<title>gui.textAreas.CommandBox</title>
<polygon fill="white" stroke="none" points="-4,4 -4,-182 279,-182 279,4 -4,4"/>
<!-- Node1 -->
<g id="node1" class="node"><title>Node1</title>
<polygon fill="#bfbfbf" stroke="black" points="49,-0.5 49,-19.5 201,-19.5 201,-0.5 49,-0.5"/>
<text text-anchor="middle" x="125" y="-7.5" font-family="Helvetica,sans-Serif" font-size="10.00">gui.textAreas.CommandBox</text>
</g>
<!-- Node2 -->
<g id="node2" class="node"><title>Node2</title>
<g id="a_node2"><a xlink:href="../../d8/d85/classgui_1_1text_areas_1_1_abstract_editable_text_box.html" target="_top" xlink:title="gui.textAreas.AbstractEditable\lTextBox">
<polygon fill="white" stroke="black" points="107,-69 107,-99 269,-99 269,-69 107,-69"/>
<text text-anchor="start" x="115" y="-87" font-family="Helvetica,sans-Serif" font-size="10.00">gui.textAreas.AbstractEditable</text>
<text text-anchor="middle" x="188" y="-76" font-family="Helvetica,sans-Serif" font-size="10.00">TextBox</text>
</a>
</g>
</g>
<!-- Node2&#45;&gt;Node1 -->
<g id="edge1" class="edge"><title>Node2&#45;&gt;Node1</title>
<path fill="none" stroke="midnightblue" d="M168.798,-61.0551C156.64,-47.1605 141.583,-29.952 132.664,-19.7589"/>
<polygon fill="midnightblue" stroke="midnightblue" points="166.334,-63.5541 175.553,-68.7751 171.602,-58.9445 166.334,-63.5541"/>
</g>
<!-- Node3 -->
<g id="node3" class="node"><title>Node3</title>
<polygon fill="white" stroke="#bfbfbf" points="91,-158.5 91,-177.5 139,-177.5 139,-158.5 91,-158.5"/>
<text text-anchor="middle" x="115" y="-165.5" font-family="Helvetica,sans-Serif" font-size="10.00">Region</text>
</g>
<!-- Node3&#45;&gt;Node2 -->
<g id="edge2" class="edge"><title>Node3&#45;&gt;Node2</title>
<path fill="none" stroke="midnightblue" d="M129.524,-150.685C142.922,-135.635 162.614,-113.516 175.373,-99.1839"/>
<polygon fill="midnightblue" stroke="midnightblue" points="126.847,-148.428 122.812,-158.225 132.076,-153.083 126.847,-148.428"/>
</g>
<!-- Node6 -->
<g id="node6" class="node"><title>Node6</title>
<g id="a_node6"><a xlink:href="../../db/d89/classgui_1_1_run_buttons.html" target="_top" xlink:title="gui.RunButtons">
<polygon fill="white" stroke="black" points="-0.5,-74.5 -0.5,-93.5 88.5,-93.5 88.5,-74.5 -0.5,-74.5"/>
<text text-anchor="middle" x="44" y="-81.5" font-family="Helvetica,sans-Serif" font-size="10.00">gui.RunButtons</text>
</a>
</g>
</g>
<!-- Node3&#45;&gt;Node6 -->
<g id="edge6" class="edge"><title>Node3&#45;&gt;Node6</title>
<path fill="none" stroke="midnightblue" d="M113.031,-148.138C111.213,-138.327 107.719,-126.619 101,-118 92.4232,-106.998 79.0758,-98.9874 67.4526,-93.616"/>
<polygon fill="midnightblue" stroke="midnightblue" points="109.58,-148.734 114.452,-158.142 116.51,-147.749 109.58,-148.734"/>
</g>
<!-- Node4 -->
<g id="node4" class="node"><title>Node4</title>
<polygon fill="white" stroke="#bfbfbf" points="234,-158.5 234,-177.5 276,-177.5 276,-158.5 234,-158.5"/>
<text text-anchor="middle" x="255" y="-165.5" font-family="Helvetica,sans-Serif" font-size="10.00">Label</text>
</g>
<!-- Node4&#45;&gt;Node2 -->
<g id="edge3" class="edge"><title>Node4&#45;&gt;Node2</title>
<path fill="none" stroke="#9a32cd" stroke-dasharray="5,2" d="M249.358,-148.722C245.733,-138.929 240.32,-127.052 233,-118 227.152,-110.768 219.361,-104.32 211.908,-99.084"/>
<polygon fill="#9a32cd" stroke="#9a32cd" points="246.077,-149.946 252.595,-158.299 252.708,-147.705 246.077,-149.946"/>
<text text-anchor="middle" x="259" y="-126.5" font-family="Helvetica,sans-Serif" font-size="10.00"> label</text>
</g>
<!-- Node5 -->
<g id="node5" class="node"><title>Node5</title>
<polygon fill="white" stroke="#bfbfbf" points="158,-158.5 158,-177.5 216,-177.5 216,-158.5 158,-158.5"/>
<text text-anchor="middle" x="187" y="-165.5" font-family="Helvetica,sans-Serif" font-size="10.00">TextArea</text>
</g>
<!-- Node5&#45;&gt;Node2 -->
<g id="edge4" class="edge"><title>Node5&#45;&gt;Node2</title>
<path fill="none" stroke="#9a32cd" stroke-dasharray="5,2" d="M187.23,-148.114C187.412,-133.201 187.662,-112.72 187.827,-99.1839"/>
<polygon fill="#9a32cd" stroke="#9a32cd" points="183.729,-148.183 187.107,-158.225 190.729,-148.268 183.729,-148.183"/>
<text text-anchor="middle" x="210.5" y="-126.5" font-family="Helvetica,sans-Serif" font-size="10.00"> textArea</text>
</g>
<!-- Node6&#45;&gt;Node1 -->
<g id="edge5" class="edge"><title>Node6&#45;&gt;Node1</title>
<path fill="none" stroke="#9a32cd" stroke-dasharray="5,2" d="M58.9802,-66.9366C67.4945,-58.0882 78.5197,-47.0895 89,-38 96.5545,-31.448 105.555,-24.698 112.666,-19.586"/>
<polygon fill="#9a32cd" stroke="#9a32cd" points="56.2982,-64.6783 51.9545,-74.3417 61.3764,-69.4962 56.2982,-64.6783"/>
<text text-anchor="middle" x="117.5" y="-41.5" font-family="Helvetica,sans-Serif" font-size="10.00"> runButtons</text>
</g>
<!-- Node7 -->
<g id="node7" class="node"><title>Node7</title>
<polygon fill="white" stroke="#bfbfbf" points="19.5,-158.5 19.5,-177.5 68.5,-177.5 68.5,-158.5 19.5,-158.5"/>
<text text-anchor="middle" x="44" y="-165.5" font-family="Helvetica,sans-Serif" font-size="10.00">Button</text>
</g>
<!-- Node7&#45;&gt;Node6 -->
<g id="edge7" class="edge"><title>Node7&#45;&gt;Node6</title>
<path fill="none" stroke="#9a32cd" stroke-dasharray="5,2" d="M44,-147.759C44,-130.676 44,-106.498 44,-93.7123"/>
<polygon fill="#9a32cd" stroke="#9a32cd" points="40.5001,-148.225 44,-158.225 47.5001,-148.225 40.5001,-148.225"/>
<text text-anchor="middle" x="71" y="-132" font-family="Helvetica,sans-Serif" font-size="10.00"> runButton</text>
<text text-anchor="middle" x="71" y="-121" font-family="Helvetica,sans-Serif" font-size="10.00">stepButton</text>
</g>
</g>
</svg>
