<?xml version="1.0" encoding="UTF-8" standalone="no"?>
<!DOCTYPE svg PUBLIC "-//W3C//DTD SVG 1.1//EN"
 "http://www.w3.org/Graphics/SVG/1.1/DTD/svg11.dtd">
<!-- Generated by graphviz version 2.36.0 (20140111.2315)
 -->
<!-- Title: gui.TurtleImage.TurtleImage Pages: 1 -->
<svg width="540pt" height="28pt"
 viewBox="0.00 0.00 540.00 28.00" xmlns="http://www.w3.org/2000/svg" xmlns:xlink="http://www.w3.org/1999/xlink">
<g id="graph0" class="graph" transform="scale(1 1) rotate(0) translate(4 24)">
<title>gui.TurtleImage.TurtleImage</title>
<polygon fill="white" stroke="none" points="-4,4 -4,-24 536,-24 536,4 -4,4"/>
<!-- Node1 -->
<g id="node1" class="node"><title>Node1</title>
<polygon fill="#bfbfbf" stroke="black" points="0,-0.5 0,-19.5 148,-19.5 148,-0.5 0,-0.5"/>
<text text-anchor="middle" x="74" y="-7.5" font-family="Helvetica,sans-Serif" font-size="10.00">gui.TurtleImage.TurtleImage</text>
</g>
<!-- Node2 -->
<g id="node2" class="node"><title>Node2</title>
<g id="a_node2"><a xlink:href="../../d2/d89/classgui_1_1_turtle_image.html#af1e79192e9a4ec13ef28b42e4f354124" target="_top" xlink:title="gui.TurtleImage.updateImage">
<polygon fill="white" stroke="black" points="184,-0.5 184,-19.5 340,-19.5 340,-0.5 184,-0.5"/>
<text text-anchor="middle" x="262" y="-7.5" font-family="Helvetica,sans-Serif" font-size="10.00">gui.TurtleImage.updateImage</text>
</a>
</g>
</g>
<!-- Node1&#45;&gt;Node2 -->
<g id="edge1" class="edge"><title>Node1&#45;&gt;Node2</title>
<path fill="none" stroke="midnightblue" d="M148.245,-10C156.648,-10 165.276,-10 173.838,-10"/>
<polygon fill="midnightblue" stroke="midnightblue" points="173.842,-13.5001 183.842,-10 173.842,-6.5001 173.842,-13.5001"/>
</g>
<!-- Node3 -->
<g id="node3" class="node"><title>Node3</title>
<g id="a_node3"><a xlink:href="../../df/de2/classbackend_1_1_turtle.html#a6ee2aa85c5d0c1138e49e243dc751332" target="_top" xlink:title="backend.Turtle.getImagePath">
<polygon fill="white" stroke="black" points="376.5,-0.5 376.5,-19.5 531.5,-19.5 531.5,-0.5 376.5,-0.5"/>
<text text-anchor="middle" x="454" y="-7.5" font-family="Helvetica,sans-Serif" font-size="10.00">backend.Turtle.getImagePath</text>
</a>
</g>
</g>
<!-- Node2&#45;&gt;Node3 -->
<g id="edge2" class="edge"><title>Node2&#45;&gt;Node3</title>
<path fill="none" stroke="midnightblue" d="M340.006,-10C348.583,-10 357.362,-10 366.051,-10"/>
<polygon fill="midnightblue" stroke="midnightblue" points="366.193,-13.5001 376.193,-10 366.193,-6.5001 366.193,-13.5001"/>
</g>
</g>
</svg>
