<?xml version="1.0" encoding="UTF-8" standalone="no"?>
<!DOCTYPE svg PUBLIC "-//W3C//DTD SVG 1.1//EN"
 "http://www.w3.org/Graphics/SVG/1.1/DTD/svg11.dtd">
<!-- Generated by graphviz version 2.36.0 (20140111.2315)
 -->
<!-- Title: gui.TurtleImage.orientTurtle Pages: 1 -->
<svg width="336pt" height="66pt"
 viewBox="0.00 0.00 336.00 66.00" xmlns="http://www.w3.org/2000/svg" xmlns:xlink="http://www.w3.org/1999/xlink">
<g id="graph0" class="graph" transform="scale(1 1) rotate(0) translate(4 62)">
<title>gui.TurtleImage.orientTurtle</title>
<polygon fill="white" stroke="none" points="-4,4 -4,-62 332,-62 332,4 -4,4"/>
<!-- Node1 -->
<g id="node1" class="node"><title>Node1</title>
<polygon fill="#bfbfbf" stroke="black" points="0,-19.5 0,-38.5 146,-38.5 146,-19.5 0,-19.5"/>
<text text-anchor="middle" x="73" y="-26.5" font-family="Helvetica,sans-Serif" font-size="10.00">gui.TurtleImage.orientTurtle</text>
</g>
<!-- Node2 -->
<g id="node2" class="node"><title>Node2</title>
<g id="a_node2"><a xlink:href="../../d8/d98/classbackend_1_1_heading.html#a184d1ef92b62ea73e6edc57e07d3c0d4" target="_top" xlink:title="backend.Heading.getAngle">
<polygon fill="white" stroke="black" points="182,-38.5 182,-57.5 328,-57.5 328,-38.5 182,-38.5"/>
<text text-anchor="middle" x="255" y="-45.5" font-family="Helvetica,sans-Serif" font-size="10.00">backend.Heading.getAngle</text>
</a>
</g>
</g>
<!-- Node1&#45;&gt;Node2 -->
<g id="edge1" class="edge"><title>Node1&#45;&gt;Node2</title>
<path fill="none" stroke="midnightblue" d="M146.176,-36.6185C154.612,-37.509 163.265,-38.4224 171.824,-39.3258"/>
<polygon fill="midnightblue" stroke="midnightblue" points="171.496,-42.8106 181.808,-40.3797 172.231,-35.8493 171.496,-42.8106"/>
</g>
<!-- Node3 -->
<g id="node3" class="node"><title>Node3</title>
<g id="a_node3"><a xlink:href="../../df/de2/classbackend_1_1_turtle.html#aaefef90d2377833d5e721222660deccc" target="_top" xlink:title="backend.Turtle.getHeading">
<polygon fill="white" stroke="black" points="183,-0.5 183,-19.5 327,-19.5 327,-0.5 183,-0.5"/>
<text text-anchor="middle" x="255" y="-7.5" font-family="Helvetica,sans-Serif" font-size="10.00">backend.Turtle.getHeading</text>
</a>
</g>
</g>
<!-- Node1&#45;&gt;Node3 -->
<g id="edge2" class="edge"><title>Node1&#45;&gt;Node3</title>
<path fill="none" stroke="midnightblue" d="M146.176,-21.3815C154.988,-20.4513 164.037,-19.4961 172.967,-18.5535"/>
<polygon fill="midnightblue" stroke="midnightblue" points="173.403,-22.027 182.98,-17.4965 172.668,-15.0657 173.403,-22.027"/>
</g>
</g>
</svg>
