<?xml version="1.0" encoding="UTF-8" standalone="no"?>
<!DOCTYPE svg PUBLIC "-//W3C//DTD SVG 1.1//EN"
 "http://www.w3.org/Graphics/SVG/1.1/DTD/svg11.dtd">
<!-- Generated by graphviz version 2.36.0 (20140111.2315)
 -->
<!-- Title: gui.TurtleImage.orientTurtle Pages: 1 -->
<svg width="878pt" height="47pt"
 viewBox="0.00 0.00 878.00 47.00" xmlns="http://www.w3.org/2000/svg" xmlns:xlink="http://www.w3.org/1999/xlink">
<g id="graph0" class="graph" transform="scale(1 1) rotate(0) translate(4 43)">
<title>gui.TurtleImage.orientTurtle</title>
<polygon fill="white" stroke="none" points="-4,4 -4,-43 874,-43 874,4 -4,4"/>
<!-- Node1 -->
<g id="node1" class="node"><title>Node1</title>
<polygon fill="#bfbfbf" stroke="black" points="0,-19.5 0,-38.5 146,-38.5 146,-19.5 0,-19.5"/>
<text text-anchor="middle" x="73" y="-26.5" font-family="Helvetica,sans-Serif" font-size="10.00">gui.TurtleImage.orientTurtle</text>
</g>
<!-- Node2 -->
<g id="node2" class="node"><title>Node2</title>
<g id="a_node2"><a xlink:href="../../d8/d8d/classgui_1_1_drawing_area.html#aaf94ae2627b15ef5a3224dd5fa042aae" target="_top" xlink:title="gui.DrawingArea.drawTurtles">
<polygon fill="white" stroke="black" points="182.5,-19.5 182.5,-38.5 333.5,-38.5 333.5,-19.5 182.5,-19.5"/>
<text text-anchor="middle" x="258" y="-26.5" font-family="Helvetica,sans-Serif" font-size="10.00">gui.DrawingArea.drawTurtles</text>
</a>
</g>
</g>
<!-- Node1&#45;&gt;Node2 -->
<g id="edge1" class="edge"><title>Node1&#45;&gt;Node2</title>
<path fill="none" stroke="midnightblue" d="M156.197,-29C164.889,-29 173.694,-29 182.294,-29"/>
<polygon fill="midnightblue" stroke="midnightblue" points="156.064,-25.5001 146.064,-29 156.064,-32.5001 156.064,-25.5001"/>
</g>
<!-- Node3 -->
<g id="node3" class="node"><title>Node3</title>
<g id="a_node3"><a xlink:href="../../d5/d8a/classgui_1_1_slogo_tab.html#a2a016875b2ea48fa761cd4408a78dd21" target="_top" xlink:title="gui.SlogoTab.setButtonActions">
<polygon fill="white" stroke="black" points="550,-19.5 550,-38.5 712,-38.5 712,-19.5 550,-19.5"/>
<text text-anchor="middle" x="631" y="-26.5" font-family="Helvetica,sans-Serif" font-size="10.00">gui.SlogoTab.setButtonActions</text>
</a>
</g>
</g>
<!-- Node2&#45;&gt;Node3 -->
<g id="edge2" class="edge"><title>Node2&#45;&gt;Node3</title>
<path fill="none" stroke="midnightblue" d="M343.754,-29C405.609,-29 488.917,-29 549.706,-29"/>
<polygon fill="midnightblue" stroke="midnightblue" points="343.631,-25.5001 333.631,-29 343.631,-32.5001 343.631,-25.5001"/>
</g>
<!-- Node5 -->
<g id="node5" class="node"><title>Node5</title>
<g id="a_node5"><a xlink:href="../../d5/d8a/classgui_1_1_slogo_tab.html#a9ccb322bec15528476c85f84e53f14d9" target="_top" xlink:title="gui.SlogoTab.updatePanels">
<polygon fill="white" stroke="black" points="370,-0.5 370,-19.5 514,-19.5 514,-0.5 370,-0.5"/>
<text text-anchor="middle" x="442" y="-7.5" font-family="Helvetica,sans-Serif" font-size="10.00">gui.SlogoTab.updatePanels</text>
</a>
</g>
</g>
<!-- Node2&#45;&gt;Node5 -->
<g id="edge4" class="edge"><title>Node2&#45;&gt;Node5</title>
<path fill="none" stroke="midnightblue" d="M343.731,-20.1545C352.448,-19.2444 361.243,-18.3263 369.793,-17.4337"/>
<polygon fill="midnightblue" stroke="midnightblue" points="343.134,-16.6977 333.551,-21.2172 343.861,-23.6598 343.134,-16.6977"/>
</g>
<!-- Node4 -->
<g id="node4" class="node"><title>Node4</title>
<g id="a_node4"><a xlink:href="../../d5/d8a/classgui_1_1_slogo_tab.html#adaa134bc95e1dcf4eb30b3a185c75175" target="_top" xlink:title="gui.SlogoTab.SlogoTab">
<polygon fill="white" stroke="black" points="748,-19.5 748,-38.5 870,-38.5 870,-19.5 748,-19.5"/>
<text text-anchor="middle" x="809" y="-26.5" font-family="Helvetica,sans-Serif" font-size="10.00">gui.SlogoTab.SlogoTab</text>
</a>
</g>
</g>
<!-- Node3&#45;&gt;Node4 -->
<g id="edge3" class="edge"><title>Node3&#45;&gt;Node4</title>
<path fill="none" stroke="midnightblue" d="M722.235,-29C730.945,-29 739.626,-29 747.936,-29"/>
<polygon fill="midnightblue" stroke="midnightblue" points="722.018,-25.5001 712.018,-29 722.018,-32.5001 722.018,-25.5001"/>
</g>
<!-- Node5&#45;&gt;Node3 -->
<g id="edge5" class="edge"><title>Node5&#45;&gt;Node3</title>
<path fill="none" stroke="midnightblue" d="M524.449,-18.2755C532.896,-19.1338 541.476,-20.0056 549.908,-20.8623"/>
<polygon fill="midnightblue" stroke="midnightblue" points="524.533,-14.7661 514.23,-17.2373 523.825,-21.7303 524.533,-14.7661"/>
</g>
</g>
</svg>
