<?xml version="1.0" encoding="UTF-8" standalone="no"?>
<!DOCTYPE svg PUBLIC "-//W3C//DTD SVG 1.1//EN"
 "http://www.w3.org/Graphics/SVG/1.1/DTD/svg11.dtd">
<!-- Generated by graphviz version 2.36.0 (20140111.2315)
 -->
<!-- Title: gui.TurtleImage.updateImage Pages: 1 -->
<svg width="888pt" height="66pt"
 viewBox="0.00 0.00 888.00 66.00" xmlns="http://www.w3.org/2000/svg" xmlns:xlink="http://www.w3.org/1999/xlink">
<g id="graph0" class="graph" transform="scale(1 1) rotate(0) translate(4 62)">
<title>gui.TurtleImage.updateImage</title>
<polygon fill="white" stroke="none" points="-4,4 -4,-62 884,-62 884,4 -4,4"/>
<!-- Node1 -->
<g id="node1" class="node"><title>Node1</title>
<polygon fill="#bfbfbf" stroke="black" points="0,-19.5 0,-38.5 156,-38.5 156,-19.5 0,-19.5"/>
<text text-anchor="middle" x="78" y="-26.5" font-family="Helvetica,sans-Serif" font-size="10.00">gui.TurtleImage.updateImage</text>
</g>
<!-- Node2 -->
<g id="node2" class="node"><title>Node2</title>
<g id="a_node2"><a xlink:href="../../d8/d8d/classgui_1_1_drawing_area.html#aaf94ae2627b15ef5a3224dd5fa042aae" target="_top" xlink:title="gui.DrawingArea.drawTurtles">
<polygon fill="white" stroke="black" points="192.5,-38.5 192.5,-57.5 343.5,-57.5 343.5,-38.5 192.5,-38.5"/>
<text text-anchor="middle" x="268" y="-45.5" font-family="Helvetica,sans-Serif" font-size="10.00">gui.DrawingArea.drawTurtles</text>
</a>
</g>
</g>
<!-- Node1&#45;&gt;Node2 -->
<g id="edge1" class="edge"><title>Node1&#45;&gt;Node2</title>
<path fill="none" stroke="midnightblue" d="M166.177,-37.8105C174.885,-38.6905 183.672,-39.5785 192.235,-40.444"/>
<polygon fill="midnightblue" stroke="midnightblue" points="166.311,-34.3062 156.009,-36.7828 165.607,-41.2707 166.311,-34.3062"/>
</g>
<!-- Node6 -->
<g id="node6" class="node"><title>Node6</title>
<g id="a_node6"><a xlink:href="../../d2/d89/classgui_1_1_turtle_image.html#a6c0eb7ee18bcb84ee7d82e7522431429" target="_top" xlink:title="gui.TurtleImage.TurtleImage">
<polygon fill="white" stroke="black" points="194,-0.5 194,-19.5 342,-19.5 342,-0.5 194,-0.5"/>
<text text-anchor="middle" x="268" y="-7.5" font-family="Helvetica,sans-Serif" font-size="10.00">gui.TurtleImage.TurtleImage</text>
</a>
</g>
</g>
<!-- Node1&#45;&gt;Node6 -->
<g id="edge6" class="edge"><title>Node1&#45;&gt;Node6</title>
<path fill="none" stroke="midnightblue" d="M166.019,-20.2056C175.292,-19.2684 184.656,-18.322 193.748,-17.4032"/>
<polygon fill="midnightblue" stroke="midnightblue" points="165.607,-16.7293 156.009,-21.2172 166.311,-23.6938 165.607,-16.7293"/>
</g>
<!-- Node3 -->
<g id="node3" class="node"><title>Node3</title>
<g id="a_node3"><a xlink:href="../../d5/d8a/classgui_1_1_slogo_tab.html#a2a016875b2ea48fa761cd4408a78dd21" target="_top" xlink:title="gui.SlogoTab.setButtonActions">
<polygon fill="white" stroke="black" points="560,-38.5 560,-57.5 722,-57.5 722,-38.5 560,-38.5"/>
<text text-anchor="middle" x="641" y="-45.5" font-family="Helvetica,sans-Serif" font-size="10.00">gui.SlogoTab.setButtonActions</text>
</a>
</g>
</g>
<!-- Node2&#45;&gt;Node3 -->
<g id="edge2" class="edge"><title>Node2&#45;&gt;Node3</title>
<path fill="none" stroke="midnightblue" d="M353.754,-48C415.609,-48 498.917,-48 559.706,-48"/>
<polygon fill="midnightblue" stroke="midnightblue" points="353.631,-44.5001 343.631,-48 353.631,-51.5001 353.631,-44.5001"/>
</g>
<!-- Node5 -->
<g id="node5" class="node"><title>Node5</title>
<g id="a_node5"><a xlink:href="../../d5/d8a/classgui_1_1_slogo_tab.html#a9ccb322bec15528476c85f84e53f14d9" target="_top" xlink:title="gui.SlogoTab.updatePanels">
<polygon fill="white" stroke="black" points="380,-19.5 380,-38.5 524,-38.5 524,-19.5 380,-19.5"/>
<text text-anchor="middle" x="452" y="-26.5" font-family="Helvetica,sans-Serif" font-size="10.00">gui.SlogoTab.updatePanels</text>
</a>
</g>
</g>
<!-- Node2&#45;&gt;Node5 -->
<g id="edge4" class="edge"><title>Node2&#45;&gt;Node5</title>
<path fill="none" stroke="midnightblue" d="M353.731,-39.1545C362.448,-38.2444 371.243,-37.3263 379.793,-36.4337"/>
<polygon fill="midnightblue" stroke="midnightblue" points="353.134,-35.6977 343.551,-40.2172 353.861,-42.6598 353.134,-35.6977"/>
</g>
<!-- Node4 -->
<g id="node4" class="node"><title>Node4</title>
<g id="a_node4"><a xlink:href="../../d5/d8a/classgui_1_1_slogo_tab.html#adaa134bc95e1dcf4eb30b3a185c75175" target="_top" xlink:title="gui.SlogoTab.SlogoTab">
<polygon fill="white" stroke="black" points="758,-38.5 758,-57.5 880,-57.5 880,-38.5 758,-38.5"/>
<text text-anchor="middle" x="819" y="-45.5" font-family="Helvetica,sans-Serif" font-size="10.00">gui.SlogoTab.SlogoTab</text>
</a>
</g>
</g>
<!-- Node3&#45;&gt;Node4 -->
<g id="edge3" class="edge"><title>Node3&#45;&gt;Node4</title>
<path fill="none" stroke="midnightblue" d="M732.235,-48C740.945,-48 749.626,-48 757.936,-48"/>
<polygon fill="midnightblue" stroke="midnightblue" points="732.018,-44.5001 722.018,-48 732.018,-51.5001 732.018,-44.5001"/>
</g>
<!-- Node5&#45;&gt;Node3 -->
<g id="edge5" class="edge"><title>Node5&#45;&gt;Node3</title>
<path fill="none" stroke="midnightblue" d="M534.449,-37.2755C542.896,-38.1338 551.476,-39.0056 559.908,-39.8623"/>
<polygon fill="midnightblue" stroke="midnightblue" points="534.533,-33.7661 524.23,-36.2373 533.825,-40.7303 534.533,-33.7661"/>
</g>
</g>
</svg>
