<?xml version="1.0" encoding="UTF-8" standalone="no"?>
<!DOCTYPE svg PUBLIC "-//W3C//DTD SVG 1.1//EN"
 "http://www.w3.org/Graphics/SVG/1.1/DTD/svg11.dtd">
<!-- Generated by graphviz version 2.36.0 (20140111.2315)
 -->
<!-- Title: gui.TurtleImage.setDefaultImagePath Pages: 1 -->
<svg width="342pt" height="77pt"
 viewBox="0.00 0.00 342.00 77.00" xmlns="http://www.w3.org/2000/svg" xmlns:xlink="http://www.w3.org/1999/xlink">
<g id="graph0" class="graph" transform="scale(1 1) rotate(0) translate(4 73)">
<title>gui.TurtleImage.setDefaultImagePath</title>
<polygon fill="white" stroke="none" points="-4,4 -4,-73 338,-73 338,4 -4,4"/>
<!-- Node1 -->
<g id="node1" class="node"><title>Node1</title>
<polygon fill="#bfbfbf" stroke="black" points="0,-22 0,-52 142,-52 142,-22 0,-22"/>
<text text-anchor="start" x="8" y="-40" font-family="Helvetica,sans-Serif" font-size="10.00">gui.TurtleImage.setDefault</text>
<text text-anchor="middle" x="71" y="-29" font-family="Helvetica,sans-Serif" font-size="10.00">ImagePath</text>
</g>
<!-- Node2 -->
<g id="node2" class="node"><title>Node2</title>
<g id="a_node2"><a xlink:href="../../df/de2/classbackend_1_1_turtle.html#a6ee2aa85c5d0c1138e49e243dc751332" target="_top" xlink:title="backend.Turtle.getImagePath">
<polygon fill="white" stroke="black" points="178.5,-49.5 178.5,-68.5 333.5,-68.5 333.5,-49.5 178.5,-49.5"/>
<text text-anchor="middle" x="256" y="-56.5" font-family="Helvetica,sans-Serif" font-size="10.00">backend.Turtle.getImagePath</text>
</a>
</g>
</g>
<!-- Node1&#45;&gt;Node2 -->
<g id="edge1" class="edge"><title>Node1&#45;&gt;Node2</title>
<path fill="none" stroke="midnightblue" d="M142.229,-45.4429C150.705,-46.4619 159.439,-47.5118 168.118,-48.5552"/>
<polygon fill="midnightblue" stroke="midnightblue" points="167.915,-52.0559 178.261,-49.7746 168.751,-45.1059 167.915,-52.0559"/>
</g>
<!-- Node3 -->
<g id="node3" class="node"><title>Node3</title>
<g id="a_node3"><a xlink:href="../../df/de2/classbackend_1_1_turtle.html#ad21ba1e0d4e1a4701840bc6e1d178004" target="_top" xlink:title="backend.Turtle.setImageBy\lFullPath">
<polygon fill="white" stroke="black" points="183,-0 183,-30 329,-30 329,-0 183,-0"/>
<text text-anchor="start" x="191" y="-18" font-family="Helvetica,sans-Serif" font-size="10.00">backend.Turtle.setImageBy</text>
<text text-anchor="middle" x="256" y="-7" font-family="Helvetica,sans-Serif" font-size="10.00">FullPath</text>
</a>
</g>
</g>
<!-- Node1&#45;&gt;Node3 -->
<g id="edge2" class="edge"><title>Node1&#45;&gt;Node3</title>
<path fill="none" stroke="midnightblue" d="M142.229,-28.5571C152.208,-27.3575 162.544,-26.1149 172.726,-24.8909"/>
<polygon fill="midnightblue" stroke="midnightblue" points="173.327,-28.3439 182.838,-23.6752 172.491,-21.3939 173.327,-28.3439"/>
</g>
</g>
</svg>
