<?xml version="1.0" encoding="UTF-8" standalone="no"?>
<!DOCTYPE svg PUBLIC "-//W3C//DTD SVG 1.1//EN"
 "http://www.w3.org/Graphics/SVG/1.1/DTD/svg11.dtd">
<!-- Generated by graphviz version 2.36.0 (20140111.2315)
 -->
<!-- Title: gui.TurtleImage.setLocation Pages: 1 -->
<svg width="880pt" height="47pt"
 viewBox="0.00 0.00 880.00 47.00" xmlns="http://www.w3.org/2000/svg" xmlns:xlink="http://www.w3.org/1999/xlink">
<g id="graph0" class="graph" transform="scale(1 1) rotate(0) translate(4 43)">
<title>gui.TurtleImage.setLocation</title>
<polygon fill="white" stroke="none" points="-4,4 -4,-43 876,-43 876,4 -4,4"/>
<!-- Node1 -->
<g id="node1" class="node"><title>Node1</title>
<polygon fill="#bfbfbf" stroke="black" points="0,-19.5 0,-38.5 148,-38.5 148,-19.5 0,-19.5"/>
<text text-anchor="middle" x="74" y="-26.5" font-family="Helvetica,sans-Serif" font-size="10.00">gui.TurtleImage.setLocation</text>
</g>
<!-- Node2 -->
<g id="node2" class="node"><title>Node2</title>
<g id="a_node2"><a xlink:href="../../d8/d8d/classgui_1_1_drawing_area.html#aaf94ae2627b15ef5a3224dd5fa042aae" target="_top" xlink:title="gui.DrawingArea.drawTurtles">
<polygon fill="white" stroke="black" points="184.5,-19.5 184.5,-38.5 335.5,-38.5 335.5,-19.5 184.5,-19.5"/>
<text text-anchor="middle" x="260" y="-26.5" font-family="Helvetica,sans-Serif" font-size="10.00">gui.DrawingArea.drawTurtles</text>
</a>
</g>
</g>
<!-- Node1&#45;&gt;Node2 -->
<g id="edge1" class="edge"><title>Node1&#45;&gt;Node2</title>
<path fill="none" stroke="midnightblue" d="M158.398,-29C167.099,-29 175.904,-29 184.497,-29"/>
<polygon fill="midnightblue" stroke="midnightblue" points="158.25,-25.5001 148.25,-29 158.25,-32.5001 158.25,-25.5001"/>
</g>
<!-- Node3 -->
<g id="node3" class="node"><title>Node3</title>
<g id="a_node3"><a xlink:href="../../d5/d8a/classgui_1_1_slogo_tab.html#a2a016875b2ea48fa761cd4408a78dd21" target="_top" xlink:title="gui.SlogoTab.setButtonActions">
<polygon fill="white" stroke="black" points="552,-19.5 552,-38.5 714,-38.5 714,-19.5 552,-19.5"/>
<text text-anchor="middle" x="633" y="-26.5" font-family="Helvetica,sans-Serif" font-size="10.00">gui.SlogoTab.setButtonActions</text>
</a>
</g>
</g>
<!-- Node2&#45;&gt;Node3 -->
<g id="edge2" class="edge"><title>Node2&#45;&gt;Node3</title>
<path fill="none" stroke="midnightblue" d="M345.754,-29C407.609,-29 490.917,-29 551.706,-29"/>
<polygon fill="midnightblue" stroke="midnightblue" points="345.631,-25.5001 335.631,-29 345.631,-32.5001 345.631,-25.5001"/>
</g>
<!-- Node5 -->
<g id="node5" class="node"><title>Node5</title>
<g id="a_node5"><a xlink:href="../../d5/d8a/classgui_1_1_slogo_tab.html#a9ccb322bec15528476c85f84e53f14d9" target="_top" xlink:title="gui.SlogoTab.updatePanels">
<polygon fill="white" stroke="black" points="372,-0.5 372,-19.5 516,-19.5 516,-0.5 372,-0.5"/>
<text text-anchor="middle" x="444" y="-7.5" font-family="Helvetica,sans-Serif" font-size="10.00">gui.SlogoTab.updatePanels</text>
</a>
</g>
</g>
<!-- Node2&#45;&gt;Node5 -->
<g id="edge4" class="edge"><title>Node2&#45;&gt;Node5</title>
<path fill="none" stroke="midnightblue" d="M345.731,-20.1545C354.448,-19.2444 363.243,-18.3263 371.793,-17.4337"/>
<polygon fill="midnightblue" stroke="midnightblue" points="345.134,-16.6977 335.551,-21.2172 345.861,-23.6598 345.134,-16.6977"/>
</g>
<!-- Node4 -->
<g id="node4" class="node"><title>Node4</title>
<g id="a_node4"><a xlink:href="../../d5/d8a/classgui_1_1_slogo_tab.html#adaa134bc95e1dcf4eb30b3a185c75175" target="_top" xlink:title="gui.SlogoTab.SlogoTab">
<polygon fill="white" stroke="black" points="750,-19.5 750,-38.5 872,-38.5 872,-19.5 750,-19.5"/>
<text text-anchor="middle" x="811" y="-26.5" font-family="Helvetica,sans-Serif" font-size="10.00">gui.SlogoTab.SlogoTab</text>
</a>
</g>
</g>
<!-- Node3&#45;&gt;Node4 -->
<g id="edge3" class="edge"><title>Node3&#45;&gt;Node4</title>
<path fill="none" stroke="midnightblue" d="M724.235,-29C732.945,-29 741.626,-29 749.936,-29"/>
<polygon fill="midnightblue" stroke="midnightblue" points="724.018,-25.5001 714.018,-29 724.018,-32.5001 724.018,-25.5001"/>
</g>
<!-- Node5&#45;&gt;Node3 -->
<g id="edge5" class="edge"><title>Node5&#45;&gt;Node3</title>
<path fill="none" stroke="midnightblue" d="M526.449,-18.2755C534.896,-19.1338 543.476,-20.0056 551.908,-20.8623"/>
<polygon fill="midnightblue" stroke="midnightblue" points="526.533,-14.7661 516.23,-17.2373 525.825,-21.7303 526.533,-14.7661"/>
</g>
</g>
</svg>
