<?xml version="1.0" encoding="UTF-8" standalone="no"?>
<!DOCTYPE svg PUBLIC "-//W3C//DTD SVG 1.1//EN"
 "http://www.w3.org/Graphics/SVG/1.1/DTD/svg11.dtd">
<!-- Generated by graphviz version 2.36.0 (20140111.2315)
 -->
<!-- Title: backend.command.SetPenSize.execute Pages: 1 -->
<svg width="656pt" height="116pt"
 viewBox="0.00 0.00 656.00 116.00" xmlns="http://www.w3.org/2000/svg" xmlns:xlink="http://www.w3.org/1999/xlink">
<g id="graph0" class="graph" transform="scale(1 1) rotate(0) translate(4 112)">
<title>backend.command.SetPenSize.execute</title>
<polygon fill="white" stroke="none" points="-4,4 -4,-112 652,-112 652,4 -4,4"/>
<!-- Node1 -->
<g id="node1" class="node"><title>Node1</title>
<polygon fill="#bfbfbf" stroke="black" points="0,-44.5 0,-63.5 208,-63.5 208,-44.5 0,-44.5"/>
<text text-anchor="middle" x="104" y="-51.5" font-family="Helvetica,sans-Serif" font-size="10.00">backend.command.SetPenSize.execute</text>
</g>
<!-- Node2 -->
<g id="node2" class="node"><title>Node2</title>
<g id="a_node2"><a xlink:href="../../df/de2/classbackend_1_1_turtle.html#af7565ec48a667f209aec621b2dbe3505" target="_top" xlink:title="backend.Turtle.getPen">
<polygon fill="white" stroke="black" points="265,-88.5 265,-107.5 387,-107.5 387,-88.5 265,-88.5"/>
<text text-anchor="middle" x="326" y="-95.5" font-family="Helvetica,sans-Serif" font-size="10.00">backend.Turtle.getPen</text>
</a>
</g>
</g>
<!-- Node1&#45;&gt;Node2 -->
<g id="edge1" class="edge"><title>Node1&#45;&gt;Node2</title>
<path fill="none" stroke="midnightblue" d="M152.737,-63.5473C186.323,-70.2645 231.456,-79.2911 267.099,-86.4198"/>
<polygon fill="midnightblue" stroke="midnightblue" points="266.864,-89.9421 277.356,-88.4713 268.237,-83.078 266.864,-89.9421"/>
</g>
<!-- Node3 -->
<g id="node3" class="node"><title>Node3</title>
<g id="a_node3"><a xlink:href="../../df/d09/classbackend_1_1command_1_1_pixels_turtle_command.html#af33732612b4329d162ffab3c28f41274" target="_top" xlink:title="backend.command.PixelsTurtle\lCommand.pixels">
<polygon fill="white" stroke="black" points="244,-39 244,-69 408,-69 408,-39 244,-39"/>
<text text-anchor="start" x="252" y="-57" font-family="Helvetica,sans-Serif" font-size="10.00">backend.command.PixelsTurtle</text>
<text text-anchor="middle" x="326" y="-46" font-family="Helvetica,sans-Serif" font-size="10.00">Command.pixels</text>
</a>
</g>
</g>
<!-- Node1&#45;&gt;Node3 -->
<g id="edge2" class="edge"><title>Node1&#45;&gt;Node3</title>
<path fill="none" stroke="midnightblue" d="M208.236,-54C216.729,-54 225.275,-54 233.672,-54"/>
<polygon fill="midnightblue" stroke="midnightblue" points="233.827,-57.5001 243.827,-54 233.827,-50.5001 233.827,-57.5001"/>
</g>
<!-- Node5 -->
<g id="node5" class="node"><title>Node5</title>
<g id="a_node5"><a xlink:href="../../de/dc9/classbackend_1_1_pen.html#a50fc235c0639c2d2a74cd3f9b2404f34" target="_top" xlink:title="backend.Pen.setWidth">
<polygon fill="white" stroke="black" points="265,-0.5 265,-19.5 387,-19.5 387,-0.5 265,-0.5"/>
<text text-anchor="middle" x="326" y="-7.5" font-family="Helvetica,sans-Serif" font-size="10.00">backend.Pen.setWidth</text>
</a>
</g>
</g>
<!-- Node1&#45;&gt;Node5 -->
<g id="edge4" class="edge"><title>Node1&#45;&gt;Node5</title>
<path fill="none" stroke="midnightblue" d="M152.737,-44.4527C186.323,-37.7355 231.456,-28.7089 267.099,-21.5802"/>
<polygon fill="midnightblue" stroke="midnightblue" points="268.237,-24.922 277.356,-19.5287 266.864,-18.0579 268.237,-24.922"/>
</g>
<!-- Node4 -->
<g id="node4" class="node"><title>Node4</title>
<g id="a_node4"><a xlink:href="../../dc/d83/classbackend_1_1command_1_1_command.html#ae218516ae55b1b0d4820d55c901793ea" target="_top" xlink:title="backend.command.Command.execute\lParam">
<polygon fill="white" stroke="black" points="444.5,-39 444.5,-69 647.5,-69 647.5,-39 444.5,-39"/>
<text text-anchor="start" x="452.5" y="-57" font-family="Helvetica,sans-Serif" font-size="10.00">backend.command.Command.execute</text>
<text text-anchor="middle" x="546" y="-46" font-family="Helvetica,sans-Serif" font-size="10.00">Param</text>
</a>
</g>
</g>
<!-- Node3&#45;&gt;Node4 -->
<g id="edge3" class="edge"><title>Node3&#45;&gt;Node4</title>
<path fill="none" stroke="midnightblue" d="M408.175,-54C416.615,-54 425.293,-54 433.989,-54"/>
<polygon fill="midnightblue" stroke="midnightblue" points="434.191,-57.5001 444.191,-54 434.191,-50.5001 434.191,-57.5001"/>
</g>
</g>
</svg>
