<?xml version="1.0" encoding="UTF-8" standalone="no"?>
<!DOCTYPE svg PUBLIC "-//W3C//DTD SVG 1.1//EN"
 "http://www.w3.org/Graphics/SVG/1.1/DTD/svg11.dtd">
<!-- Generated by graphviz version 2.36.0 (20140111.2315)
 -->
<!-- Title: backend.command.SetPalette Pages: 1 -->
<svg width="198pt" height="140pt"
 viewBox="0.00 0.00 198.00 140.00" xmlns="http://www.w3.org/2000/svg" xmlns:xlink="http://www.w3.org/1999/xlink">
<g id="graph0" class="graph" transform="scale(1 1) rotate(0) translate(4 136)">
<title>backend.command.SetPalette</title>
<polygon fill="white" stroke="none" points="-4,4 -4,-136 194,-136 194,4 -4,4"/>
<!-- Node1 -->
<g id="node1" class="node"><title>Node1</title>
<polygon fill="#bfbfbf" stroke="black" points="14.5,-0.5 14.5,-19.5 175.5,-19.5 175.5,-0.5 14.5,-0.5"/>
<text text-anchor="middle" x="95" y="-7.5" font-family="Helvetica,sans-Serif" font-size="10.00">backend.command.SetPalette</text>
</g>
<!-- Node2 -->
<g id="node2" class="node"><title>Node2</title>
<g id="a_node2"><a xlink:href="../../dc/d67/classbackend_1_1command_1_1_model_command.html" target="_top" xlink:title="backend.command.ModelCommand">
<polygon fill="white" stroke="black" points="-0.5,-56.5 -0.5,-75.5 190.5,-75.5 190.5,-56.5 -0.5,-56.5"/>
<text text-anchor="middle" x="95" y="-63.5" font-family="Helvetica,sans-Serif" font-size="10.00">backend.command.ModelCommand</text>
</a>
</g>
</g>
<!-- Node2&#45;&gt;Node1 -->
<g id="edge1" class="edge"><title>Node2&#45;&gt;Node1</title>
<path fill="none" stroke="midnightblue" d="M95,-45.8045C95,-36.9102 95,-26.7798 95,-19.7511"/>
<polygon fill="midnightblue" stroke="midnightblue" points="91.5001,-46.083 95,-56.083 98.5001,-46.083 91.5001,-46.083"/>
</g>
<!-- Node3 -->
<g id="node3" class="node"><title>Node3</title>
<g id="a_node3"><a xlink:href="../../dc/d83/classbackend_1_1command_1_1_command.html" target="_top" xlink:title="backend.command.Command">
<polygon fill="white" stroke="black" points="14,-112.5 14,-131.5 176,-131.5 176,-112.5 14,-112.5"/>
<text text-anchor="middle" x="95" y="-119.5" font-family="Helvetica,sans-Serif" font-size="10.00">backend.command.Command</text>
</a>
</g>
</g>
<!-- Node3&#45;&gt;Node2 -->
<g id="edge2" class="edge"><title>Node3&#45;&gt;Node2</title>
<path fill="none" stroke="midnightblue" d="M95,-101.805C95,-92.9102 95,-82.7798 95,-75.7511"/>
<polygon fill="midnightblue" stroke="midnightblue" points="91.5001,-102.083 95,-112.083 98.5001,-102.083 91.5001,-102.083"/>
</g>
</g>
</svg>
