<?xml version="1.0" encoding="UTF-8" standalone="no"?>
<!DOCTYPE svg PUBLIC "-//W3C//DTD SVG 1.1//EN"
 "http://www.w3.org/Graphics/SVG/1.1/DTD/svg11.dtd">
<!-- Generated by graphviz version 2.36.0 (20140111.2315)
 -->
<!-- Title: backend.command.GetShape.execute Pages: 1 -->
<svg width="684pt" height="66pt"
 viewBox="0.00 0.00 684.00 66.00" xmlns="http://www.w3.org/2000/svg" xmlns:xlink="http://www.w3.org/1999/xlink">
<g id="graph0" class="graph" transform="scale(1 1) rotate(0) translate(4 62)">
<title>backend.command.GetShape.execute</title>
<polygon fill="white" stroke="none" points="-4,4 -4,-62 680,-62 680,4 -4,4"/>
<!-- Node1 -->
<g id="node1" class="node"><title>Node1</title>
<polygon fill="#bfbfbf" stroke="black" points="0.5,-19.5 0.5,-38.5 201.5,-38.5 201.5,-19.5 0.5,-19.5"/>
<text text-anchor="middle" x="101" y="-26.5" font-family="Helvetica,sans-Serif" font-size="10.00">backend.command.GetShape.execute</text>
</g>
<!-- Node2 -->
<g id="node2" class="node"><title>Node2</title>
<g id="a_node2"><a xlink:href="../../df/de2/classbackend_1_1_turtle.html#a7fc07799239a8a55283a0114080d9f87" target="_top" xlink:title="backend.Turtle.getImageName">
<polygon fill="white" stroke="black" points="278,-38.5 278,-57.5 442,-57.5 442,-38.5 278,-38.5"/>
<text text-anchor="middle" x="360" y="-45.5" font-family="Helvetica,sans-Serif" font-size="10.00">backend.Turtle.getImageName</text>
</a>
</g>
</g>
<!-- Node1&#45;&gt;Node2 -->
<g id="edge1" class="edge"><title>Node1&#45;&gt;Node2</title>
<path fill="none" stroke="midnightblue" d="M201.731,-36.3731C223.412,-37.976 246.245,-39.664 267.586,-41.2418"/>
<polygon fill="midnightblue" stroke="midnightblue" points="267.371,-44.7354 277.602,-41.9823 267.888,-37.7544 267.371,-44.7354"/>
</g>
<!-- Node3 -->
<g id="node3" class="node"><title>Node3</title>
<g id="a_node3"><a xlink:href="../../dc/d67/classbackend_1_1command_1_1_model_command.html#a3154dab6e0552c7d13b825dab24d1a54" target="_top" xlink:title="backend.command.ModelCommand.imageMap">
<polygon fill="white" stroke="black" points="238,-0.5 238,-19.5 482,-19.5 482,-0.5 238,-0.5"/>
<text text-anchor="middle" x="360" y="-7.5" font-family="Helvetica,sans-Serif" font-size="10.00">backend.command.ModelCommand.imageMap</text>
</a>
</g>
</g>
<!-- Node1&#45;&gt;Node3 -->
<g id="edge2" class="edge"><title>Node1&#45;&gt;Node3</title>
<path fill="none" stroke="midnightblue" d="M201.731,-21.6269C210.249,-20.9971 218.946,-20.3542 227.66,-19.71"/>
<polygon fill="midnightblue" stroke="midnightblue" points="228.173,-23.1817 237.887,-18.9538 227.657,-16.2008 228.173,-23.1817"/>
</g>
<!-- Node4 -->
<g id="node4" class="node"><title>Node4</title>
<g id="a_node4"><a xlink:href="../../d3/dac/classbackend_1_1_model.html#ab973b5efcf575443127eeb36485cec29" target="_top" xlink:title="backend.Model.getImageMap">
<polygon fill="white" stroke="black" points="518,-0.5 518,-19.5 676,-19.5 676,-0.5 518,-0.5"/>
<text text-anchor="middle" x="597" y="-7.5" font-family="Helvetica,sans-Serif" font-size="10.00">backend.Model.getImageMap</text>
</a>
</g>
</g>
<!-- Node3&#45;&gt;Node4 -->
<g id="edge3" class="edge"><title>Node3&#45;&gt;Node4</title>
<path fill="none" stroke="midnightblue" d="M482.286,-10C490.903,-10 499.493,-10 507.87,-10"/>
<polygon fill="midnightblue" stroke="midnightblue" points="507.97,-13.5001 517.97,-10 507.97,-6.5001 507.97,-13.5001"/>
</g>
</g>
</svg>
