<?xml version="1.0" encoding="UTF-8" standalone="no"?>
<!DOCTYPE svg PUBLIC "-//W3C//DTD SVG 1.1//EN"
 "http://www.w3.org/Graphics/SVG/1.1/DTD/svg11.dtd">
<!-- Generated by graphviz version 2.36.0 (20140111.2315)
 -->
<!-- Title: backend.command.SetTowards.execute Pages: 1 -->
<svg width="836pt" height="77pt"
 viewBox="0.00 0.00 836.00 77.00" xmlns="http://www.w3.org/2000/svg" xmlns:xlink="http://www.w3.org/1999/xlink">
<g id="graph0" class="graph" transform="scale(1 1) rotate(0) translate(4 73)">
<title>backend.command.SetTowards.execute</title>
<polygon fill="white" stroke="none" points="-4,4 -4,-73 832,-73 832,4 -4,4"/>
<!-- Node1 -->
<g id="node1" class="node"><title>Node1</title>
<polygon fill="#bfbfbf" stroke="black" points="0.5,-27.5 0.5,-46.5 207.5,-46.5 207.5,-27.5 0.5,-27.5"/>
<text text-anchor="middle" x="104" y="-34.5" font-family="Helvetica,sans-Serif" font-size="10.00">backend.command.SetTowards.execute</text>
</g>
<!-- Node2 -->
<g id="node2" class="node"><title>Node2</title>
<g id="a_node2"><a xlink:href="../../df/de2/classbackend_1_1_turtle.html#a15c8fa47008e482e5d40b4310d2bf8e7" target="_top" xlink:title="backend.Turtle.faceTowards">
<polygon fill="white" stroke="black" points="252,-49.5 252,-68.5 398,-68.5 398,-49.5 252,-49.5"/>
<text text-anchor="middle" x="325" y="-56.5" font-family="Helvetica,sans-Serif" font-size="10.00">backend.Turtle.faceTowards</text>
</a>
</g>
</g>
<!-- Node1&#45;&gt;Node2 -->
<g id="edge1" class="edge"><title>Node1&#45;&gt;Node2</title>
<path fill="none" stroke="midnightblue" d="M199.783,-46.5216C213.693,-47.9189 227.925,-49.3487 241.561,-50.7184"/>
<polygon fill="midnightblue" stroke="midnightblue" points="241.556,-54.2355 251.856,-51.7527 242.256,-47.2706 241.556,-54.2355"/>
</g>
<!-- Node5 -->
<g id="node5" class="node"><title>Node5</title>
<g id="a_node5"><a xlink:href="../../d5/dcb/classbackend_1_1command_1_1_point_turtle_command.html#aa0619a24fc2c3157992c0b6e41ded4a8" target="_top" xlink:title="backend.command.PointTurtle\lCommand.point">
<polygon fill="white" stroke="black" points="244.5,-0 244.5,-30 405.5,-30 405.5,-0 244.5,-0"/>
<text text-anchor="start" x="252.5" y="-18" font-family="Helvetica,sans-Serif" font-size="10.00">backend.command.PointTurtle</text>
<text text-anchor="middle" x="325" y="-7" font-family="Helvetica,sans-Serif" font-size="10.00">Command.point</text>
</a>
</g>
</g>
<!-- Node1&#45;&gt;Node5 -->
<g id="edge4" class="edge"><title>Node1&#45;&gt;Node5</title>
<path fill="none" stroke="midnightblue" d="M199.783,-27.4784C211.317,-26.3198 223.072,-25.1388 234.525,-23.9883"/>
<polygon fill="midnightblue" stroke="midnightblue" points="234.899,-27.4685 244.499,-22.9864 234.199,-20.5035 234.899,-27.4685"/>
</g>
<!-- Node3 -->
<g id="node3" class="node"><title>Node3</title>
<g id="a_node3"><a xlink:href="../../df/de2/classbackend_1_1_turtle.html#a05bda1daddb116c72fb4e62e87d6c88b" target="_top" xlink:title="backend.Turtle.setHeading">
<polygon fill="white" stroke="black" points="472.5,-49.5 472.5,-68.5 615.5,-68.5 615.5,-49.5 472.5,-49.5"/>
<text text-anchor="middle" x="544" y="-56.5" font-family="Helvetica,sans-Serif" font-size="10.00">backend.Turtle.setHeading</text>
</a>
</g>
</g>
<!-- Node2&#45;&gt;Node3 -->
<g id="edge2" class="edge"><title>Node2&#45;&gt;Node3</title>
<path fill="none" stroke="midnightblue" d="M398.258,-59C418.707,-59 441.097,-59 462.023,-59"/>
<polygon fill="midnightblue" stroke="midnightblue" points="462.164,-62.5001 472.164,-59 462.164,-55.5001 462.164,-62.5001"/>
</g>
<!-- Node4 -->
<g id="node4" class="node"><title>Node4</title>
<g id="a_node4"><a xlink:href="../../d8/d98/classbackend_1_1_heading.html#a184d1ef92b62ea73e6edc57e07d3c0d4" target="_top" xlink:title="backend.Heading.getAngle">
<polygon fill="white" stroke="black" points="682,-49.5 682,-68.5 828,-68.5 828,-49.5 682,-49.5"/>
<text text-anchor="middle" x="755" y="-56.5" font-family="Helvetica,sans-Serif" font-size="10.00">backend.Heading.getAngle</text>
</a>
</g>
</g>
<!-- Node3&#45;&gt;Node4 -->
<g id="edge3" class="edge"><title>Node3&#45;&gt;Node4</title>
<path fill="none" stroke="midnightblue" d="M615.758,-59C633.743,-59 653.223,-59 671.727,-59"/>
<polygon fill="midnightblue" stroke="midnightblue" points="671.891,-62.5001 681.891,-59 671.891,-55.5001 671.891,-62.5001"/>
</g>
<!-- Node6 -->
<g id="node6" class="node"><title>Node6</title>
<g id="a_node6"><a xlink:href="../../dc/d83/classbackend_1_1command_1_1_command.html#ae218516ae55b1b0d4820d55c901793ea" target="_top" xlink:title="backend.command.Command.execute\lParam">
<polygon fill="white" stroke="black" points="442.5,-0 442.5,-30 645.5,-30 645.5,-0 442.5,-0"/>
<text text-anchor="start" x="450.5" y="-18" font-family="Helvetica,sans-Serif" font-size="10.00">backend.command.Command.execute</text>
<text text-anchor="middle" x="544" y="-7" font-family="Helvetica,sans-Serif" font-size="10.00">Param</text>
</a>
</g>
</g>
<!-- Node5&#45;&gt;Node6 -->
<g id="edge5" class="edge"><title>Node5&#45;&gt;Node6</title>
<path fill="none" stroke="midnightblue" d="M405.571,-15C414.271,-15 423.24,-15 432.229,-15"/>
<polygon fill="midnightblue" stroke="midnightblue" points="432.374,-18.5001 442.374,-15 432.374,-11.5001 432.374,-18.5001"/>
</g>
</g>
</svg>
