<?xml version="1.0" encoding="UTF-8" standalone="no"?>
<!DOCTYPE svg PUBLIC "-//W3C//DTD SVG 1.1//EN"
 "http://www.w3.org/Graphics/SVG/1.1/DTD/svg11.dtd">
<!-- Generated by graphviz version 2.36.0 (20140111.2315)
 -->
<!-- Title: backend.command.Right.execute Pages: 1 -->
<svg width="822pt" height="115pt"
 viewBox="0.00 0.00 822.00 115.00" xmlns="http://www.w3.org/2000/svg" xmlns:xlink="http://www.w3.org/1999/xlink">
<g id="graph0" class="graph" transform="scale(1 1) rotate(0) translate(4 111)">
<title>backend.command.Right.execute</title>
<polygon fill="white" stroke="none" points="-4,4 -4,-111 818,-111 818,4 -4,4"/>
<!-- Node1 -->
<g id="node1" class="node"><title>Node1</title>
<polygon fill="#bfbfbf" stroke="black" points="0.5,-60.5 0.5,-79.5 177.5,-79.5 177.5,-60.5 0.5,-60.5"/>
<text text-anchor="middle" x="89" y="-67.5" font-family="Helvetica,sans-Serif" font-size="10.00">backend.command.Right.execute</text>
</g>
<!-- Node2 -->
<g id="node2" class="node"><title>Node2</title>
<g id="a_node2"><a xlink:href="../../dd/d3e/classbackend_1_1command_1_1_degrees_turtle_command.html#acd59c2f8fc9e6584311ad0a046a6a6ca" target="_top" xlink:title="backend.command.DegreesTurtle\lCommand.degrees">
<polygon fill="white" stroke="black" points="214,-77 214,-107 392,-107 392,-77 214,-77"/>
<text text-anchor="start" x="222" y="-95" font-family="Helvetica,sans-Serif" font-size="10.00">backend.command.DegreesTurtle</text>
<text text-anchor="middle" x="303" y="-84" font-family="Helvetica,sans-Serif" font-size="10.00">Command.degrees</text>
</a>
</g>
</g>
<!-- Node1&#45;&gt;Node2 -->
<g id="edge1" class="edge"><title>Node1&#45;&gt;Node2</title>
<path fill="none" stroke="midnightblue" d="M177.759,-79.107C186.356,-79.9992 195.117,-80.9084 203.809,-81.8103"/>
<polygon fill="midnightblue" stroke="midnightblue" points="203.657,-85.3133 213.965,-82.8643 204.38,-78.3507 203.657,-85.3133"/>
</g>
<!-- Node4 -->
<g id="node4" class="node"><title>Node4</title>
<g id="a_node4"><a xlink:href="../../df/de2/classbackend_1_1_turtle.html#a9ef2c2fdb902135f0f2c26045c160677" target="_top" xlink:title="backend.Turtle.rotateRight">
<polygon fill="white" stroke="black" points="232,-38.5 232,-57.5 374,-57.5 374,-38.5 232,-38.5"/>
<text text-anchor="middle" x="303" y="-45.5" font-family="Helvetica,sans-Serif" font-size="10.00">backend.Turtle.rotateRight</text>
</a>
</g>
</g>
<!-- Node1&#45;&gt;Node4 -->
<g id="edge3" class="edge"><title>Node1&#45;&gt;Node4</title>
<path fill="none" stroke="midnightblue" d="M177.759,-60.893C192.242,-59.39 207.193,-57.8385 221.487,-56.3552"/>
<polygon fill="midnightblue" stroke="midnightblue" points="222.177,-59.8024 231.762,-55.2888 221.455,-52.8398 222.177,-59.8024"/>
</g>
<!-- Node3 -->
<g id="node3" class="node"><title>Node3</title>
<g id="a_node3"><a xlink:href="../../dc/d83/classbackend_1_1command_1_1_command.html#ae218516ae55b1b0d4820d55c901793ea" target="_top" xlink:title="backend.command.Command.execute\lParam">
<polygon fill="white" stroke="black" points="428.5,-77 428.5,-107 631.5,-107 631.5,-77 428.5,-77"/>
<text text-anchor="start" x="436.5" y="-95" font-family="Helvetica,sans-Serif" font-size="10.00">backend.command.Command.execute</text>
<text text-anchor="middle" x="530" y="-84" font-family="Helvetica,sans-Serif" font-size="10.00">Param</text>
</a>
</g>
</g>
<!-- Node2&#45;&gt;Node3 -->
<g id="edge2" class="edge"><title>Node2&#45;&gt;Node3</title>
<path fill="none" stroke="midnightblue" d="M392.28,-92C400.775,-92 409.464,-92 418.139,-92"/>
<polygon fill="midnightblue" stroke="midnightblue" points="418.305,-95.5001 428.305,-92 418.305,-88.5001 418.305,-95.5001"/>
</g>
<!-- Node5 -->
<g id="node5" class="node"><title>Node5</title>
<g id="a_node5"><a xlink:href="../../d8/d98/classbackend_1_1_heading.html#a184d1ef92b62ea73e6edc57e07d3c0d4" target="_top" xlink:title="backend.Heading.getAngle">
<polygon fill="white" stroke="black" points="668,-19.5 668,-38.5 814,-38.5 814,-19.5 668,-19.5"/>
<text text-anchor="middle" x="741" y="-26.5" font-family="Helvetica,sans-Serif" font-size="10.00">backend.Heading.getAngle</text>
</a>
</g>
</g>
<!-- Node4&#45;&gt;Node5 -->
<g id="edge4" class="edge"><title>Node4&#45;&gt;Node5</title>
<path fill="none" stroke="midnightblue" d="M374.051,-44.9473C451.462,-41.5739 576,-36.1468 657.924,-32.5767"/>
<polygon fill="midnightblue" stroke="midnightblue" points="658.108,-36.0721 667.946,-32.14 657.803,-29.0787 658.108,-36.0721"/>
</g>
<!-- Node6 -->
<g id="node6" class="node"><title>Node6</title>
<g id="a_node6"><a xlink:href="../../df/de2/classbackend_1_1_turtle.html#a05bda1daddb116c72fb4e62e87d6c88b" target="_top" xlink:title="backend.Turtle.setHeading">
<polygon fill="white" stroke="black" points="458.5,-0.5 458.5,-19.5 601.5,-19.5 601.5,-0.5 458.5,-0.5"/>
<text text-anchor="middle" x="530" y="-7.5" font-family="Helvetica,sans-Serif" font-size="10.00">backend.Turtle.setHeading</text>
</a>
</g>
</g>
<!-- Node4&#45;&gt;Node6 -->
<g id="edge5" class="edge"><title>Node4&#45;&gt;Node6</title>
<path fill="none" stroke="midnightblue" d="M360.487,-38.46C391.379,-33.2426 429.837,-26.7475 462.21,-21.28"/>
<polygon fill="midnightblue" stroke="midnightblue" points="463.213,-24.6604 472.49,-19.5439 462.047,-17.7581 463.213,-24.6604"/>
</g>
<!-- Node6&#45;&gt;Node5 -->
<g id="edge6" class="edge"><title>Node6&#45;&gt;Node5</title>
<path fill="none" stroke="midnightblue" d="M601.758,-16.4325C619.743,-18.0676 639.223,-19.8384 657.727,-21.5206"/>
<polygon fill="midnightblue" stroke="midnightblue" points="657.615,-25.0248 667.891,-22.4447 658.249,-18.0536 657.615,-25.0248"/>
</g>
</g>
</svg>
