<?xml version="1.0" encoding="UTF-8" standalone="no"?>
<!DOCTYPE svg PUBLIC "-//W3C//DTD SVG 1.1//EN"
 "http://www.w3.org/Graphics/SVG/1.1/DTD/svg11.dtd">
<!-- Generated by graphviz version 2.36.0 (20140111.2315)
 -->
<!-- Title: gui.Main.setActiveTab Pages: 1 -->
<svg width="830pt" height="116pt"
 viewBox="0.00 0.00 830.00 116.00" xmlns="http://www.w3.org/2000/svg" xmlns:xlink="http://www.w3.org/1999/xlink">
<g id="graph0" class="graph" transform="scale(1 1) rotate(0) translate(4 112)">
<title>gui.Main.setActiveTab</title>
<polygon fill="white" stroke="none" points="-4,4 -4,-112 826,-112 826,4 -4,4"/>
<!-- Node1 -->
<g id="node1" class="node"><title>Node1</title>
<polygon fill="#bfbfbf" stroke="black" points="0.5,-23.5 0.5,-42.5 119.5,-42.5 119.5,-23.5 0.5,-23.5"/>
<text text-anchor="middle" x="60" y="-30.5" font-family="Helvetica,sans-Serif" font-size="10.00">gui.Main.setActiveTab</text>
</g>
<!-- Node2 -->
<g id="node2" class="node"><title>Node2</title>
<g id="a_node2"><a xlink:href="../../d5/d23/classgui_1_1_tab_panel.html#adf5298f1b0589f5c363b667b7155e87b" target="_top" xlink:title="gui.TabPanel.makeNewTab">
<polygon fill="white" stroke="black" points="157.5,-44.5 157.5,-63.5 298.5,-63.5 298.5,-44.5 157.5,-44.5"/>
<text text-anchor="middle" x="228" y="-51.5" font-family="Helvetica,sans-Serif" font-size="10.00">gui.TabPanel.makeNewTab</text>
</a>
</g>
</g>
<!-- Node1&#45;&gt;Node2 -->
<g id="edge1" class="edge"><title>Node1&#45;&gt;Node2</title>
<path fill="none" stroke="midnightblue" d="M129.706,-41.6918C138.835,-42.8466 148.202,-44.0315 157.346,-45.1884"/>
<polygon fill="midnightblue" stroke="midnightblue" points="129.886,-38.1866 119.525,-40.4038 129.007,-45.1313 129.886,-38.1866"/>
</g>
<!-- Node7 -->
<g id="node7" class="node"><title>Node7</title>
<g id="a_node7"><a xlink:href="../../d5/d23/classgui_1_1_tab_panel.html#ab83601f6975c8ba9e8d3de2f271ace94" target="_top" xlink:title="gui.TabPanel.makeTabPane">
<polygon fill="white" stroke="black" points="156,-3.5 156,-22.5 300,-22.5 300,-3.5 156,-3.5"/>
<text text-anchor="middle" x="228" y="-10.5" font-family="Helvetica,sans-Serif" font-size="10.00">gui.TabPanel.makeTabPane</text>
</a>
</g>
</g>
<!-- Node1&#45;&gt;Node7 -->
<g id="edge6" class="edge"><title>Node1&#45;&gt;Node7</title>
<path fill="none" stroke="midnightblue" d="M129.596,-24.7354C138.28,-23.6891 147.181,-22.6167 155.903,-21.5659"/>
<polygon fill="midnightblue" stroke="midnightblue" points="129.035,-21.2776 119.525,-25.9487 129.872,-28.2274 129.035,-21.2776"/>
</g>
<!-- Node3 -->
<g id="node3" class="node"><title>Node3</title>
<g id="a_node3"><a xlink:href="../../df/dc3/classgui_1_1_main.html#a81b36f2aea2f0cb5823e1e7b1546487c" target="_top" xlink:title="gui.Main.start">
<polygon fill="white" stroke="black" points="371,-88.5 371,-107.5 453,-107.5 453,-88.5 371,-88.5"/>
<text text-anchor="middle" x="412" y="-95.5" font-family="Helvetica,sans-Serif" font-size="10.00">gui.Main.start</text>
</a>
</g>
</g>
<!-- Node2&#45;&gt;Node3 -->
<g id="edge2" class="edge"><title>Node2&#45;&gt;Node3</title>
<path fill="none" stroke="midnightblue" d="M278.508,-65.969C307.762,-73.0414 344.295,-81.8736 371.586,-88.4713"/>
<polygon fill="midnightblue" stroke="midnightblue" points="279.034,-62.4953 268.491,-63.5473 277.389,-69.2993 279.034,-62.4953"/>
</g>
<!-- Node4 -->
<g id="node4" class="node"><title>Node4</title>
<g id="a_node4"><a xlink:href="../../dd/d24/classgui_1_1_top_menu.html#ad230c298835163fed6e9f41a18b168cd" target="_top" xlink:title="gui.TopMenu.createFileMenu\lItems">
<polygon fill="white" stroke="black" points="336.5,-39 336.5,-69 487.5,-69 487.5,-39 336.5,-39"/>
<text text-anchor="start" x="344.5" y="-57" font-family="Helvetica,sans-Serif" font-size="10.00">gui.TopMenu.createFileMenu</text>
<text text-anchor="middle" x="412" y="-46" font-family="Helvetica,sans-Serif" font-size="10.00">Items</text>
</a>
</g>
</g>
<!-- Node2&#45;&gt;Node4 -->
<g id="edge3" class="edge"><title>Node2&#45;&gt;Node4</title>
<path fill="none" stroke="midnightblue" d="M308.816,-54C317.952,-54 327.241,-54 336.306,-54"/>
<polygon fill="midnightblue" stroke="midnightblue" points="308.585,-50.5001 298.585,-54 308.585,-57.5001 308.585,-50.5001"/>
</g>
<!-- Node5 -->
<g id="node5" class="node"><title>Node5</title>
<g id="a_node5"><a xlink:href="../../dd/d24/classgui_1_1_top_menu.html#a2b756e05f495e2d1a4f7ea156ae612d2" target="_top" xlink:title="gui.TopMenu.addMenuBar">
<polygon fill="white" stroke="black" points="524,-44.5 524,-63.5 664,-63.5 664,-44.5 524,-44.5"/>
<text text-anchor="middle" x="594" y="-51.5" font-family="Helvetica,sans-Serif" font-size="10.00">gui.TopMenu.addMenuBar</text>
</a>
</g>
</g>
<!-- Node4&#45;&gt;Node5 -->
<g id="edge4" class="edge"><title>Node4&#45;&gt;Node5</title>
<path fill="none" stroke="midnightblue" d="M497.701,-54C506.424,-54 515.213,-54 523.739,-54"/>
<polygon fill="midnightblue" stroke="midnightblue" points="497.512,-50.5001 487.512,-54 497.512,-57.5001 497.512,-50.5001"/>
</g>
<!-- Node6 -->
<g id="node6" class="node"><title>Node6</title>
<g id="a_node6"><a xlink:href="../../dd/d24/classgui_1_1_top_menu.html#a842402ab5dfa877cfac4e5677809675a" target="_top" xlink:title="gui.TopMenu.TopMenu">
<polygon fill="white" stroke="black" points="700.5,-44.5 700.5,-63.5 821.5,-63.5 821.5,-44.5 700.5,-44.5"/>
<text text-anchor="middle" x="761" y="-51.5" font-family="Helvetica,sans-Serif" font-size="10.00">gui.TopMenu.TopMenu</text>
</a>
</g>
</g>
<!-- Node5&#45;&gt;Node6 -->
<g id="edge5" class="edge"><title>Node5&#45;&gt;Node6</title>
<path fill="none" stroke="midnightblue" d="M674.297,-54C683.092,-54 691.936,-54 700.428,-54"/>
<polygon fill="midnightblue" stroke="midnightblue" points="674.019,-50.5001 664.019,-54 674.019,-57.5001 674.019,-50.5001"/>
</g>
<!-- Node8 -->
<g id="node8" class="node"><title>Node8</title>
<g id="a_node8"><a xlink:href="../../d5/d23/classgui_1_1_tab_panel.html#aa57acfe283c113dd2193f287d7f0ce08" target="_top" xlink:title="gui.TabPanel.TabPanel">
<polygon fill="white" stroke="black" points="352.5,-0.5 352.5,-19.5 471.5,-19.5 471.5,-0.5 352.5,-0.5"/>
<text text-anchor="middle" x="412" y="-7.5" font-family="Helvetica,sans-Serif" font-size="10.00">gui.TabPanel.TabPanel</text>
</a>
</g>
</g>
<!-- Node7&#45;&gt;Node8 -->
<g id="edge7" class="edge"><title>Node7&#45;&gt;Node8</title>
<path fill="none" stroke="midnightblue" d="M310.349,-11.6591C324.461,-11.4265 338.887,-11.1887 352.247,-10.9685"/>
<polygon fill="midnightblue" stroke="midnightblue" points="310.089,-8.1628 300.148,-11.8272 310.204,-15.1618 310.089,-8.1628"/>
</g>
</g>
</svg>
