<?xml version="1.0" encoding="UTF-8" standalone="no"?>
<!DOCTYPE svg PUBLIC "-//W3C//DTD SVG 1.1//EN"
 "http://www.w3.org/Graphics/SVG/1.1/DTD/svg11.dtd">
<!-- Generated by graphviz version 2.36.0 (20140111.2315)
 -->
<!-- Title: gui.Main.start Pages: 1 -->
<svg width="442pt" height="142pt"
 viewBox="0.00 0.00 442.00 142.00" xmlns="http://www.w3.org/2000/svg" xmlns:xlink="http://www.w3.org/1999/xlink">
<g id="graph0" class="graph" transform="scale(1 1) rotate(0) translate(4 138)">
<title>gui.Main.start</title>
<polygon fill="white" stroke="none" points="-4,4 -4,-138 438,-138 438,4 -4,4"/>
<!-- Node1 -->
<g id="node1" class="node"><title>Node1</title>
<polygon fill="#bfbfbf" stroke="black" points="0,-57.5 0,-76.5 82,-76.5 82,-57.5 0,-57.5"/>
<text text-anchor="middle" x="41" y="-64.5" font-family="Helvetica,sans-Serif" font-size="10.00">gui.Main.start</text>
</g>
<!-- Node2 -->
<g id="node2" class="node"><title>Node2</title>
<g id="a_node2"><a xlink:href="../../df/dc3/classgui_1_1_main.html#a3bd25198b8e65c2ccd129b7d98eb1c3a" target="_top" xlink:title="gui.Main.getScreenHeight">
<polygon fill="white" stroke="black" points="128,-114.5 128,-133.5 268,-133.5 268,-114.5 128,-114.5"/>
<text text-anchor="middle" x="198" y="-121.5" font-family="Helvetica,sans-Serif" font-size="10.00">gui.Main.getScreenHeight</text>
</a>
</g>
</g>
<!-- Node1&#45;&gt;Node2 -->
<g id="edge1" class="edge"><title>Node1&#45;&gt;Node2</title>
<path fill="none" stroke="midnightblue" d="M58.4169,-76.5822C73.4906,-85.0439 96.6582,-97.2136 118,-105 125.003,-107.555 132.481,-109.865 139.939,-111.922"/>
<polygon fill="midnightblue" stroke="midnightblue" points="139.131,-115.328 149.691,-114.479 140.906,-108.557 139.131,-115.328"/>
</g>
<!-- Node3 -->
<g id="node3" class="node"><title>Node3</title>
<g id="a_node3"><a xlink:href="../../df/dc3/classgui_1_1_main.html#ad867604e4943983d4695f283127103a9" target="_top" xlink:title="gui.Main.getScreenWidth">
<polygon fill="white" stroke="black" points="130.5,-76.5 130.5,-95.5 265.5,-95.5 265.5,-76.5 130.5,-76.5"/>
<text text-anchor="middle" x="198" y="-83.5" font-family="Helvetica,sans-Serif" font-size="10.00">gui.Main.getScreenWidth</text>
</a>
</g>
</g>
<!-- Node1&#45;&gt;Node3 -->
<g id="edge2" class="edge"><title>Node1&#45;&gt;Node3</title>
<path fill="none" stroke="midnightblue" d="M82.3198,-71.9424C94.0423,-73.3794 107.252,-74.9987 120.426,-76.6135"/>
<polygon fill="midnightblue" stroke="midnightblue" points="120.117,-80.1017 130.468,-77.8445 120.969,-73.1537 120.117,-80.1017"/>
</g>
<!-- Node4 -->
<g id="node4" class="node"><title>Node4</title>
<g id="a_node4"><a xlink:href="../../d5/d23/classgui_1_1_tab_panel.html#adf5298f1b0589f5c363b667b7155e87b" target="_top" xlink:title="gui.TabPanel.makeNewTab">
<polygon fill="white" stroke="black" points="127.5,-38.5 127.5,-57.5 268.5,-57.5 268.5,-38.5 127.5,-38.5"/>
<text text-anchor="middle" x="198" y="-45.5" font-family="Helvetica,sans-Serif" font-size="10.00">gui.TabPanel.makeNewTab</text>
</a>
</g>
</g>
<!-- Node1&#45;&gt;Node4 -->
<g id="edge3" class="edge"><title>Node1&#45;&gt;Node4</title>
<path fill="none" stroke="midnightblue" d="M82.3198,-62.0576C93.1117,-60.7347 105.164,-59.2573 117.289,-57.7711"/>
<polygon fill="midnightblue" stroke="midnightblue" points="117.965,-61.2145 127.464,-56.5237 117.113,-54.2665 117.965,-61.2145"/>
</g>
<!-- Node6 -->
<g id="node6" class="node"><title>Node6</title>
<g id="a_node6"><a xlink:href="../../df/dc3/classgui_1_1_main.html#a9a0094e9b73b9c5c72220b56e26a1171" target="_top" xlink:title="gui.Main.setStageToFillWindow">
<polygon fill="white" stroke="black" points="118.5,-0.5 118.5,-19.5 277.5,-19.5 277.5,-0.5 118.5,-0.5"/>
<text text-anchor="middle" x="198" y="-7.5" font-family="Helvetica,sans-Serif" font-size="10.00">gui.Main.setStageToFillWindow</text>
</a>
</g>
</g>
<!-- Node1&#45;&gt;Node6 -->
<g id="edge5" class="edge"><title>Node1&#45;&gt;Node6</title>
<path fill="none" stroke="midnightblue" d="M58.4169,-57.4178C73.4906,-48.9561 96.6582,-36.7864 118,-29 125.003,-26.4451 132.481,-24.1353 139.939,-22.0785"/>
<polygon fill="midnightblue" stroke="midnightblue" points="140.906,-25.4432 149.691,-19.5207 139.131,-18.6722 140.906,-25.4432"/>
</g>
<!-- Node5 -->
<g id="node5" class="node"><title>Node5</title>
<g id="a_node5"><a xlink:href="../../df/dc3/classgui_1_1_main.html#ad9b02558bc225d0ee0bf37fb04d5c4b6" target="_top" xlink:title="gui.Main.setActiveTab">
<polygon fill="white" stroke="black" points="314.5,-38.5 314.5,-57.5 433.5,-57.5 433.5,-38.5 314.5,-38.5"/>
<text text-anchor="middle" x="374" y="-45.5" font-family="Helvetica,sans-Serif" font-size="10.00">gui.Main.setActiveTab</text>
</a>
</g>
</g>
<!-- Node4&#45;&gt;Node5 -->
<g id="edge4" class="edge"><title>Node4&#45;&gt;Node5</title>
<path fill="none" stroke="midnightblue" d="M268.52,-48C280.234,-48 292.389,-48 304.087,-48"/>
<polygon fill="midnightblue" stroke="midnightblue" points="304.228,-51.5001 314.228,-48 304.228,-44.5001 304.228,-51.5001"/>
</g>
</g>
</svg>
