<?xml version="1.0" encoding="UTF-8" standalone="no"?>
<!DOCTYPE svg PUBLIC "-//W3C//DTD SVG 1.1//EN"
 "http://www.w3.org/Graphics/SVG/1.1/DTD/svg11.dtd">
<!-- Generated by graphviz version 2.36.0 (20140111.2315)
 -->
<!-- Title: gui.textAreas.AbstractEditableTextBox.addTextAreaToRegion Pages: 1 -->
<svg width="442pt" height="136pt"
 viewBox="0.00 0.00 442.00 136.00" xmlns="http://www.w3.org/2000/svg" xmlns:xlink="http://www.w3.org/1999/xlink">
<g id="graph0" class="graph" transform="scale(1 1) rotate(0) translate(4 132)">
<title>gui.textAreas.AbstractEditableTextBox.addTextAreaToRegion</title>
<polygon fill="white" stroke="none" points="-4,4 -4,-132 438,-132 438,4 -4,4"/>
<!-- Node1 -->
<g id="node1" class="node"><title>Node1</title>
<polygon fill="#bfbfbf" stroke="black" points="0,-49 0,-79 162,-79 162,-49 0,-49"/>
<text text-anchor="start" x="8" y="-67" font-family="Helvetica,sans-Serif" font-size="10.00">gui.textAreas.AbstractEditable</text>
<text text-anchor="middle" x="81" y="-56" font-family="Helvetica,sans-Serif" font-size="10.00">TextBox.addTextAreaToRegion</text>
</g>
<!-- Node2 -->
<g id="node2" class="node"><title>Node2</title>
<g id="a_node2"><a xlink:href="../../db/d0f/classgui_1_1text_areas_1_1_status_box.html#a1da51210e4cc758dbac9299c60251cbd" target="_top" xlink:title="gui.textAreas.StatusBox.\lStatusBox">
<polygon fill="white" stroke="black" points="248,-98 248,-128 384,-128 384,-98 248,-98"/>
<text text-anchor="start" x="256" y="-116" font-family="Helvetica,sans-Serif" font-size="10.00">gui.textAreas.StatusBox.</text>
<text text-anchor="middle" x="316" y="-105" font-family="Helvetica,sans-Serif" font-size="10.00">StatusBox</text>
</a>
</g>
</g>
<!-- Node1&#45;&gt;Node2 -->
<g id="edge1" class="edge"><title>Node1&#45;&gt;Node2</title>
<path fill="none" stroke="midnightblue" d="M163.479,-81.1351C190.976,-86.9178 221.343,-93.304 247.626,-98.8313"/>
<polygon fill="midnightblue" stroke="midnightblue" points="163.997,-77.6676 153.491,-79.0346 162.557,-84.5178 163.997,-77.6676"/>
</g>
<!-- Node3 -->
<g id="node3" class="node"><title>Node3</title>
<g id="a_node3"><a xlink:href="../../da/dce/classgui_1_1text_areas_1_1_user_functions_and_commands.html#ad86ca7c06037341dccfa5db3a33b4a81" target="_top" xlink:title="gui.textAreas.UserFunctions\lAndCommands.UserFunctionsAndCommands">
<polygon fill="white" stroke="black" points="198,-49 198,-79 434,-79 434,-49 198,-49"/>
<text text-anchor="start" x="206" y="-67" font-family="Helvetica,sans-Serif" font-size="10.00">gui.textAreas.UserFunctions</text>
<text text-anchor="middle" x="316" y="-56" font-family="Helvetica,sans-Serif" font-size="10.00">AndCommands.UserFunctionsAndCommands</text>
</a>
</g>
</g>
<!-- Node1&#45;&gt;Node3 -->
<g id="edge2" class="edge"><title>Node1&#45;&gt;Node3</title>
<path fill="none" stroke="midnightblue" d="M172.235,-64C180.561,-64 189.075,-64 197.596,-64"/>
<polygon fill="midnightblue" stroke="midnightblue" points="172.185,-60.5001 162.185,-64 172.185,-67.5001 172.185,-60.5001"/>
</g>
<!-- Node4 -->
<g id="node4" class="node"><title>Node4</title>
<g id="a_node4"><a xlink:href="../../d3/d45/classgui_1_1text_areas_1_1_user_variables_box.html#ae2cb55905d6ad4944791a34a99c7a966" target="_top" xlink:title="gui.textAreas.UserVariables\lBox.UserVariablesBox">
<polygon fill="white" stroke="black" points="241.5,-0 241.5,-30 390.5,-30 390.5,-0 241.5,-0"/>
<text text-anchor="start" x="249.5" y="-18" font-family="Helvetica,sans-Serif" font-size="10.00">gui.textAreas.UserVariables</text>
<text text-anchor="middle" x="316" y="-7" font-family="Helvetica,sans-Serif" font-size="10.00">Box.UserVariablesBox</text>
</a>
</g>
</g>
<!-- Node1&#45;&gt;Node4 -->
<g id="edge3" class="edge"><title>Node1&#45;&gt;Node4</title>
<path fill="none" stroke="midnightblue" d="M163.372,-46.8873C189.52,-41.3885 218.272,-35.342 243.644,-30.0062"/>
<polygon fill="midnightblue" stroke="midnightblue" points="162.557,-43.4822 153.491,-48.9654 163.997,-50.3324 162.557,-43.4822"/>
</g>
</g>
</svg>
