<?xml version="1.0" encoding="UTF-8" standalone="no"?>
<!DOCTYPE svg PUBLIC "-//W3C//DTD SVG 1.1//EN"
 "http://www.w3.org/Graphics/SVG/1.1/DTD/svg11.dtd">
<!-- Generated by graphviz version 2.36.0 (20140111.2315)
 -->
<!-- Title: gui.textAreas.AbstractEditableTextBox.makeTextArea Pages: 1 -->
<svg width="442pt" height="185pt"
 viewBox="0.00 0.00 442.00 185.00" xmlns="http://www.w3.org/2000/svg" xmlns:xlink="http://www.w3.org/1999/xlink">
<g id="graph0" class="graph" transform="scale(1 1) rotate(0) translate(4 181)">
<title>gui.textAreas.AbstractEditableTextBox.makeTextArea</title>
<polygon fill="white" stroke="none" points="-4,4 -4,-181 438,-181 438,4 -4,4"/>
<!-- Node1 -->
<g id="node1" class="node"><title>Node1</title>
<polygon fill="#bfbfbf" stroke="black" points="0,-73 0,-103 162,-103 162,-73 0,-73"/>
<text text-anchor="start" x="8" y="-91" font-family="Helvetica,sans-Serif" font-size="10.00">gui.textAreas.AbstractEditable</text>
<text text-anchor="middle" x="81" y="-80" font-family="Helvetica,sans-Serif" font-size="10.00">TextBox.makeTextArea</text>
</g>
<!-- Node2 -->
<g id="node2" class="node"><title>Node2</title>
<g id="a_node2"><a xlink:href="../../d8/d85/classgui_1_1text_areas_1_1_abstract_editable_text_box.html#aad5f98d42ca25384a2d9e6736ff6cb94" target="_top" xlink:title="gui.textAreas.AbstractEditable\lTextBox.AbstractEditableTextBox">
<polygon fill="white" stroke="black" points="230,-147 230,-177 402,-177 402,-147 230,-147"/>
<text text-anchor="start" x="238" y="-165" font-family="Helvetica,sans-Serif" font-size="10.00">gui.textAreas.AbstractEditable</text>
<text text-anchor="middle" x="316" y="-154" font-family="Helvetica,sans-Serif" font-size="10.00">TextBox.AbstractEditableTextBox</text>
</a>
</g>
</g>
<!-- Node1&#45;&gt;Node2 -->
<g id="edge1" class="edge"><title>Node1&#45;&gt;Node2</title>
<path fill="none" stroke="midnightblue" d="M122.722,-107.437C144.651,-117.329 172.388,-128.934 198,-137 209.788,-140.712 222.417,-144.05 234.859,-146.985"/>
<polygon fill="midnightblue" stroke="midnightblue" points="123.945,-104.147 113.395,-103.175 121.036,-110.514 123.945,-104.147"/>
</g>
<!-- Node3 -->
<g id="node3" class="node"><title>Node3</title>
<g id="a_node3"><a xlink:href="../../db/d0f/classgui_1_1text_areas_1_1_status_box.html#a1da51210e4cc758dbac9299c60251cbd" target="_top" xlink:title="gui.textAreas.StatusBox.\lStatusBox">
<polygon fill="white" stroke="black" points="248,-98 248,-128 384,-128 384,-98 248,-98"/>
<text text-anchor="start" x="256" y="-116" font-family="Helvetica,sans-Serif" font-size="10.00">gui.textAreas.StatusBox.</text>
<text text-anchor="middle" x="316" y="-105" font-family="Helvetica,sans-Serif" font-size="10.00">StatusBox</text>
</a>
</g>
</g>
<!-- Node1&#45;&gt;Node3 -->
<g id="edge2" class="edge"><title>Node1&#45;&gt;Node3</title>
<path fill="none" stroke="midnightblue" d="M172.446,-97.7046C197.537,-100.397 224.327,-103.271 247.831,-105.793"/>
<polygon fill="midnightblue" stroke="midnightblue" points="172.502,-94.1905 162.185,-96.6036 171.755,-101.151 172.502,-94.1905"/>
</g>
<!-- Node4 -->
<g id="node4" class="node"><title>Node4</title>
<g id="a_node4"><a xlink:href="../../da/dce/classgui_1_1text_areas_1_1_user_functions_and_commands.html#ad86ca7c06037341dccfa5db3a33b4a81" target="_top" xlink:title="gui.textAreas.UserFunctions\lAndCommands.UserFunctionsAndCommands">
<polygon fill="white" stroke="black" points="198,-49 198,-79 434,-79 434,-49 198,-49"/>
<text text-anchor="start" x="206" y="-67" font-family="Helvetica,sans-Serif" font-size="10.00">gui.textAreas.UserFunctions</text>
<text text-anchor="middle" x="316" y="-56" font-family="Helvetica,sans-Serif" font-size="10.00">AndCommands.UserFunctionsAndCommands</text>
</a>
</g>
</g>
<!-- Node1&#45;&gt;Node4 -->
<g id="edge3" class="edge"><title>Node1&#45;&gt;Node4</title>
<path fill="none" stroke="midnightblue" d="M172.235,-78.7054C180.561,-77.8478 189.075,-76.9708 197.596,-76.0931"/>
<polygon fill="midnightblue" stroke="midnightblue" points="171.774,-75.2343 162.185,-79.7406 172.491,-82.1974 171.774,-75.2343"/>
</g>
<!-- Node5 -->
<g id="node5" class="node"><title>Node5</title>
<g id="a_node5"><a xlink:href="../../d3/d45/classgui_1_1text_areas_1_1_user_variables_box.html#ae2cb55905d6ad4944791a34a99c7a966" target="_top" xlink:title="gui.textAreas.UserVariables\lBox.UserVariablesBox">
<polygon fill="white" stroke="black" points="241.5,-0 241.5,-30 390.5,-30 390.5,-0 241.5,-0"/>
<text text-anchor="start" x="249.5" y="-18" font-family="Helvetica,sans-Serif" font-size="10.00">gui.textAreas.UserVariables</text>
<text text-anchor="middle" x="316" y="-7" font-family="Helvetica,sans-Serif" font-size="10.00">Box.UserVariablesBox</text>
</a>
</g>
</g>
<!-- Node1&#45;&gt;Node5 -->
<g id="edge4" class="edge"><title>Node1&#45;&gt;Node5</title>
<path fill="none" stroke="midnightblue" d="M123.23,-68.7912C145.095,-59.1568 172.619,-47.891 198,-40 211.884,-35.6834 226.923,-31.8583 241.448,-28.5786"/>
<polygon fill="midnightblue" stroke="midnightblue" points="121.626,-65.6741 113.92,-72.945 124.478,-72.0667 121.626,-65.6741"/>
</g>
</g>
</svg>
