<?xml version="1.0" encoding="UTF-8" standalone="no"?>
<!DOCTYPE svg PUBLIC "-//W3C//DTD SVG 1.1//EN"
 "http://www.w3.org/Graphics/SVG/1.1/DTD/svg11.dtd">
<!-- Generated by graphviz version 2.36.0 (20140111.2315)
 -->
<!-- Title: gui.textAreas.AbstractEditableTextBox.AbstractEditableTextBox Pages: 1 -->
<svg width="378pt" height="234pt"
 viewBox="0.00 0.00 378.00 234.00" xmlns="http://www.w3.org/2000/svg" xmlns:xlink="http://www.w3.org/1999/xlink">
<g id="graph0" class="graph" transform="scale(1 1) rotate(0) translate(4 230)">
<title>gui.textAreas.AbstractEditableTextBox.AbstractEditableTextBox</title>
<polygon fill="white" stroke="none" points="-4,4 -4,-230 374,-230 374,4 -4,4"/>
<!-- Node1 -->
<g id="node1" class="node"><title>Node1</title>
<polygon fill="#bfbfbf" stroke="black" points="0,-98 0,-128 172,-128 172,-98 0,-98"/>
<text text-anchor="start" x="8" y="-116" font-family="Helvetica,sans-Serif" font-size="10.00">gui.textAreas.AbstractEditable</text>
<text text-anchor="middle" x="86" y="-105" font-family="Helvetica,sans-Serif" font-size="10.00">TextBox.AbstractEditableTextBox</text>
</g>
<!-- Node2 -->
<g id="node2" class="node"><title>Node2</title>
<g id="a_node2"><a xlink:href="../../d8/d85/classgui_1_1text_areas_1_1_abstract_editable_text_box.html#af6fc5d24e81e96264642b5009ba5509b" target="_top" xlink:title="gui.textAreas.AbstractEditable\lTextBox.makeTextArea">
<polygon fill="white" stroke="black" points="208,-196 208,-226 370,-226 370,-196 208,-196"/>
<text text-anchor="start" x="216" y="-214" font-family="Helvetica,sans-Serif" font-size="10.00">gui.textAreas.AbstractEditable</text>
<text text-anchor="middle" x="289" y="-203" font-family="Helvetica,sans-Serif" font-size="10.00">TextBox.makeTextArea</text>
</a>
</g>
</g>
<!-- Node1&#45;&gt;Node2 -->
<g id="edge1" class="edge"><title>Node1&#45;&gt;Node2</title>
<path fill="none" stroke="midnightblue" d="M108.433,-128.11C131.97,-144.173 171.308,-169.488 208,-186 213.059,-188.277 218.385,-190.43 223.788,-192.445"/>
<polygon fill="midnightblue" stroke="midnightblue" points="222.957,-195.865 233.552,-195.922 225.305,-189.27 222.957,-195.865"/>
</g>
<!-- Node3 -->
<g id="node3" class="node"><title>Node3</title>
<g id="a_node3"><a xlink:href="../../d8/d85/classgui_1_1text_areas_1_1_abstract_editable_text_box.html#a6365043980f7567916755bae4f8f66af" target="_top" xlink:title="gui.textAreas.AbstractEditable\lTextBox.makeTitle">
<polygon fill="white" stroke="black" points="208,-147 208,-177 370,-177 370,-147 208,-147"/>
<text text-anchor="start" x="216" y="-165" font-family="Helvetica,sans-Serif" font-size="10.00">gui.textAreas.AbstractEditable</text>
<text text-anchor="middle" x="289" y="-154" font-family="Helvetica,sans-Serif" font-size="10.00">TextBox.makeTitle</text>
</a>
</g>
</g>
<!-- Node1&#45;&gt;Node3 -->
<g id="edge2" class="edge"><title>Node1&#45;&gt;Node3</title>
<path fill="none" stroke="midnightblue" d="M148.673,-128.035C170.088,-133.255 194.284,-139.154 216.43,-144.553"/>
<polygon fill="midnightblue" stroke="midnightblue" points="215.9,-148.026 226.444,-146.994 217.558,-141.225 215.9,-148.026"/>
</g>
<!-- Node4 -->
<g id="node4" class="node"><title>Node4</title>
<g id="a_node4"><a xlink:href="../../d8/d85/classgui_1_1text_areas_1_1_abstract_editable_text_box.html#a2b5153268bf760e7f8a12b7c677a0230" target="_top" xlink:title="gui.textAreas.AbstractEditable\lTextBox.setRegionPreferences">
<polygon fill="white" stroke="black" points="208,-98 208,-128 370,-128 370,-98 208,-98"/>
<text text-anchor="start" x="216" y="-116" font-family="Helvetica,sans-Serif" font-size="10.00">gui.textAreas.AbstractEditable</text>
<text text-anchor="middle" x="289" y="-105" font-family="Helvetica,sans-Serif" font-size="10.00">TextBox.setRegionPreferences</text>
</a>
</g>
</g>
<!-- Node1&#45;&gt;Node4 -->
<g id="edge3" class="edge"><title>Node1&#45;&gt;Node4</title>
<path fill="none" stroke="midnightblue" d="M172.242,-113C180.61,-113 189.122,-113 197.539,-113"/>
<polygon fill="midnightblue" stroke="midnightblue" points="197.743,-116.5 207.743,-113 197.743,-109.5 197.743,-116.5"/>
</g>
<!-- Node5 -->
<g id="node5" class="node"><title>Node5</title>
<g id="a_node5"><a xlink:href="../../d8/d85/classgui_1_1text_areas_1_1_abstract_editable_text_box.html#a4d11b0e2189de6b7bc4a7a248ce3a00d" target="_top" xlink:title="gui.textAreas.AbstractEditable\lTextBox.setxLocation">
<polygon fill="white" stroke="black" points="208,-49 208,-79 370,-79 370,-49 208,-49"/>
<text text-anchor="start" x="216" y="-67" font-family="Helvetica,sans-Serif" font-size="10.00">gui.textAreas.AbstractEditable</text>
<text text-anchor="middle" x="289" y="-56" font-family="Helvetica,sans-Serif" font-size="10.00">TextBox.setxLocation</text>
</a>
</g>
</g>
<!-- Node1&#45;&gt;Node5 -->
<g id="edge4" class="edge"><title>Node1&#45;&gt;Node5</title>
<path fill="none" stroke="midnightblue" d="M148.673,-97.9654C170.088,-92.7446 194.284,-86.8463 216.43,-81.4474"/>
<polygon fill="midnightblue" stroke="midnightblue" points="217.558,-84.7751 226.444,-79.0062 215.9,-77.9743 217.558,-84.7751"/>
</g>
<!-- Node6 -->
<g id="node6" class="node"><title>Node6</title>
<g id="a_node6"><a xlink:href="../../d8/d85/classgui_1_1text_areas_1_1_abstract_editable_text_box.html#a26ca62985a5feafd0b04eb6fb707e376" target="_top" xlink:title="gui.textAreas.AbstractEditable\lTextBox.setyLocation">
<polygon fill="white" stroke="black" points="208,-0 208,-30 370,-30 370,-0 208,-0"/>
<text text-anchor="start" x="216" y="-18" font-family="Helvetica,sans-Serif" font-size="10.00">gui.textAreas.AbstractEditable</text>
<text text-anchor="middle" x="289" y="-7" font-family="Helvetica,sans-Serif" font-size="10.00">TextBox.setyLocation</text>
</a>
</g>
</g>
<!-- Node1&#45;&gt;Node6 -->
<g id="edge5" class="edge"><title>Node1&#45;&gt;Node6</title>
<path fill="none" stroke="midnightblue" d="M108.433,-97.8899C131.97,-81.827 171.308,-56.5117 208,-40 213.059,-37.7234 218.385,-35.5704 223.788,-33.5547"/>
<polygon fill="midnightblue" stroke="midnightblue" points="225.305,-36.7296 233.552,-30.0776 222.957,-30.1352 225.305,-36.7296"/>
</g>
</g>
</svg>
