<?xml version="1.0" encoding="UTF-8" standalone="no"?>
<!DOCTYPE svg PUBLIC "-//W3C//DTD SVG 1.1//EN"
 "http://www.w3.org/Graphics/SVG/1.1/DTD/svg11.dtd">
<!-- Generated by graphviz version 2.36.0 (20140111.2315)
 -->
<!-- Title: backend.command.BinaryMathOperation Pages: 1 -->
<!--zoomable 357 -->
<svg id="main" version="1.1" xmlns="http://www.w3.org/2000/svg" xmlns:xlink="http://www.w3.org/1999/xlink" xml:space="preserve" onload="init(evt)">
<style type="text/css"><![CDATA[
.edge:hover path { stroke: red; }
.edge:hover polygon { stroke: red; fill: red; }
]]></style>
<script type="text/javascript"><![CDATA[
var edges = document.getElementsByTagName('g');
if (edges && edges.length) {
  for (var i=0;i<edges.length;i++) {
    if (edges[i].id.substr(0,4)=='edge') {
      edges[i].setAttribute('class','edge');
    }
  }
}
]]></script>
        <defs>
                <circle id="rim" cx="0" cy="0" r="7"/>
                <circle id="rim2" cx="0" cy="0" r="3.5"/>
                <g id="zoomPlus">
                        <use xlink:href="#rim" fill="#404040">
                                <set attributeName="fill" to="#808080" begin="zoomplus.mouseover" end="zoomplus.mouseout"/>
                        </use>
                        <path d="M-4,0h8M0,-4v8" fill="none" stroke="white" stroke-width="1.5" pointer-events="none"/>
                </g>
                <g id="zoomMin">
                        <use xlink:href="#rim" fill="#404040">
                                <set attributeName="fill" to="#808080" begin="zoomminus.mouseover" end="zoomminus.mouseout"/>
                        </use>
                        <path d="M-4,0h8" fill="none" stroke="white" stroke-width="1.5" pointer-events="none"/>
                </g>
                <g id="dirArrow">
                        <path fill="none" stroke="white" stroke-width="1.5" d="M0,-3.0v7 M-2.5,-0.5L0,-3.0L2.5,-0.5"/>
                </g>
               <g id="resetDef">
                       <use xlink:href="#rim2" fill="#404040">
                               <set attributeName="fill" to="#808080" begin="reset.mouseover" end="reset.mouseout"/>
                       </use>
               </g>
        </defs>

<script type="text/javascript">
var viewWidth = 798;
var viewHeight = 357;
var sectionId = 'dynsection-0';
</script>
<script xlink:href="../../svgpan.js"/>
<svg id="graph" class="graph">
<g id="viewport">
<title>backend.command.BinaryMathOperation</title>
<polygon fill="white" stroke="none" points="-4,4 -4,-353 794,-353 794,4 -4,4"/>
<!-- Node1 -->
<g id="node1" class="node"><title>Node1</title>
<polygon fill="#bfbfbf" stroke="black" points="198,-109 198,-139 364,-139 364,-109 198,-109"/>
<text text-anchor="start" x="206" y="-127" font-family="Helvetica,sans-Serif" font-size="10.00">backend.command.BinaryMath</text>
<text text-anchor="middle" x="281" y="-116" font-family="Helvetica,sans-Serif" font-size="10.00">Operation</text>
</g>
<!-- Node3 -->
<g id="node3" class="node"><title>Node3</title>
<g id="a_node3"><a xlink:href="../../d9/d65/classbackend_1_1command_1_1_binary_boolean_operation.html" target="_top" xlink:title="backend.command.BinaryBoolean\lOperation">
<polygon fill="white" stroke="black" points="400.5,-229 400.5,-259 581.5,-259 581.5,-229 400.5,-229"/>
<text text-anchor="start" x="408.5" y="-247" font-family="Helvetica,sans-Serif" font-size="10.00">backend.command.BinaryBoolean</text>
<text text-anchor="middle" x="491" y="-236" font-family="Helvetica,sans-Serif" font-size="10.00">Operation</text>
</a>
</g>
</g>
<!-- Node1&#45;&gt;Node3 -->
<g id="edge2" class="edge"><title>Node1&#45;&gt;Node3</title>
<path fill="none" stroke="midnightblue" d="M303.868,-146.262C326.186,-167.786 362.747,-199.871 400,-219 407.357,-222.778 415.355,-226.043 423.446,-228.849"/>
<polygon fill="midnightblue" stroke="midnightblue" points="306.181,-143.629 296.59,-139.128 301.281,-148.628 306.181,-143.629"/>
</g>
<!-- Node10 -->
<g id="node10" class="node"><title>Node10</title>
<g id="a_node10"><a xlink:href="../../d1/d28/classbackend_1_1command_1_1_difference.html" target="_top" xlink:title="backend.command.Difference">
<polygon fill="white" stroke="black" points="410.5,-190.5 410.5,-209.5 571.5,-209.5 571.5,-190.5 410.5,-190.5"/>
<text text-anchor="middle" x="491" y="-197.5" font-family="Helvetica,sans-Serif" font-size="10.00">backend.command.Difference</text>
</a>
</g>
</g>
<!-- Node1&#45;&gt;Node10 -->
<g id="edge9" class="edge"><title>Node1&#45;&gt;Node10</title>
<path fill="none" stroke="midnightblue" d="M317.407,-143.897C340.359,-156.086 371.236,-171.179 400,-181 410.881,-184.715 422.761,-187.844 434.217,-190.421"/>
<polygon fill="midnightblue" stroke="midnightblue" points="318.861,-140.705 308.397,-139.046 315.543,-146.869 318.861,-140.705"/>
</g>
<!-- Node11 -->
<g id="node11" class="node"><title>Node11</title>
<g id="a_node11"><a xlink:href="../../d2/d80/classbackend_1_1command_1_1_power.html" target="_top" xlink:title="backend.command.Power">
<polygon fill="white" stroke="black" points="421,-152.5 421,-171.5 561,-171.5 561,-152.5 421,-152.5"/>
<text text-anchor="middle" x="491" y="-159.5" font-family="Helvetica,sans-Serif" font-size="10.00">backend.command.Power</text>
</a>
</g>
</g>
<!-- Node1&#45;&gt;Node11 -->
<g id="edge10" class="edge"><title>Node1&#45;&gt;Node11</title>
<path fill="none" stroke="midnightblue" d="M374.194,-140.843C396.068,-144.839 418.647,-148.964 437.995,-152.499"/>
<polygon fill="midnightblue" stroke="midnightblue" points="374.673,-137.373 364.207,-139.019 373.415,-144.259 374.673,-137.373"/>
</g>
<!-- Node12 -->
<g id="node12" class="node"><title>Node12</title>
<g id="a_node12"><a xlink:href="../../d6/da6/classbackend_1_1command_1_1_product.html" target="_top" xlink:title="backend.command.Product">
<polygon fill="white" stroke="black" points="416.5,-114.5 416.5,-133.5 565.5,-133.5 565.5,-114.5 416.5,-114.5"/>
<text text-anchor="middle" x="491" y="-121.5" font-family="Helvetica,sans-Serif" font-size="10.00">backend.command.Product</text>
</a>
</g>
</g>
<!-- Node1&#45;&gt;Node12 -->
<g id="edge11" class="edge"><title>Node1&#45;&gt;Node12</title>
<path fill="none" stroke="midnightblue" d="M374.401,-124C388.492,-124 402.87,-124 416.484,-124"/>
<polygon fill="midnightblue" stroke="midnightblue" points="374.207,-120.5 364.207,-124 374.207,-127.5 374.207,-120.5"/>
</g>
<!-- Node13 -->
<g id="node13" class="node"><title>Node13</title>
<g id="a_node13"><a xlink:href="../../da/d1a/classbackend_1_1command_1_1_quotient.html" target="_top" xlink:title="backend.command.Quotient">
<polygon fill="white" stroke="black" points="414.5,-76.5 414.5,-95.5 567.5,-95.5 567.5,-76.5 414.5,-76.5"/>
<text text-anchor="middle" x="491" y="-83.5" font-family="Helvetica,sans-Serif" font-size="10.00">backend.command.Quotient</text>
</a>
</g>
</g>
<!-- Node1&#45;&gt;Node13 -->
<g id="edge12" class="edge"><title>Node1&#45;&gt;Node13</title>
<path fill="none" stroke="midnightblue" d="M374.194,-107.157C396.068,-103.161 418.647,-99.0356 437.995,-95.5009"/>
<polygon fill="midnightblue" stroke="midnightblue" points="373.415,-103.741 364.207,-108.981 374.673,-110.627 373.415,-103.741"/>
</g>
<!-- Node14 -->
<g id="node14" class="node"><title>Node14</title>
<g id="a_node14"><a xlink:href="../../db/d34/classbackend_1_1command_1_1_remainder.html" target="_top" xlink:title="backend.command.Remainder">
<polygon fill="white" stroke="black" points="409.5,-38.5 409.5,-57.5 572.5,-57.5 572.5,-38.5 409.5,-38.5"/>
<text text-anchor="middle" x="491" y="-45.5" font-family="Helvetica,sans-Serif" font-size="10.00">backend.command.Remainder</text>
</a>
</g>
</g>
<!-- Node1&#45;&gt;Node14 -->
<g id="edge13" class="edge"><title>Node1&#45;&gt;Node14</title>
<path fill="none" stroke="midnightblue" d="M317.407,-104.103C340.359,-91.9144 371.236,-76.8209 400,-67 410.881,-63.2848 422.761,-60.1564 434.217,-57.5787"/>
<polygon fill="midnightblue" stroke="midnightblue" points="315.543,-101.131 308.397,-108.954 318.861,-107.295 315.543,-101.131"/>
</g>
<!-- Node15 -->
<g id="node15" class="node"><title>Node15</title>
<g id="a_node15"><a xlink:href="../../db/d48/classbackend_1_1command_1_1_sum.html" target="_top" xlink:title="backend.command.Sum">
<polygon fill="white" stroke="black" points="424,-0.5 424,-19.5 558,-19.5 558,-0.5 424,-0.5"/>
<text text-anchor="middle" x="491" y="-7.5" font-family="Helvetica,sans-Serif" font-size="10.00">backend.command.Sum</text>
</a>
</g>
</g>
<!-- Node1&#45;&gt;Node15 -->
<g id="edge14" class="edge"><title>Node1&#45;&gt;Node15</title>
<path fill="none" stroke="midnightblue" d="M303.246,-101.6C325.336,-79.6855 361.952,-47.0494 400,-29 408.224,-25.0986 417.248,-21.9926 426.307,-19.5213"/>
<polygon fill="midnightblue" stroke="midnightblue" points="300.606,-99.2926 296.06,-108.863 305.582,-104.216 300.606,-99.2926"/>
</g>
<!-- Node2 -->
<g id="node2" class="node"><title>Node2</title>
<g id="a_node2"><a xlink:href="../../dc/d83/classbackend_1_1command_1_1_command.html" target="_top" xlink:title="backend.command.Command">
<polygon fill="white" stroke="black" points="0,-114.5 0,-133.5 162,-133.5 162,-114.5 0,-114.5"/>
<text text-anchor="middle" x="81" y="-121.5" font-family="Helvetica,sans-Serif" font-size="10.00">backend.command.Command</text>
</a>
</g>
</g>
<!-- Node2&#45;&gt;Node1 -->
<g id="edge1" class="edge"><title>Node2&#45;&gt;Node1</title>
<path fill="none" stroke="midnightblue" d="M172.456,-124C180.871,-124 189.369,-124 197.704,-124"/>
<polygon fill="midnightblue" stroke="midnightblue" points="172.249,-120.5 162.249,-124 172.249,-127.5 172.249,-120.5"/>
</g>
<!-- Node4 -->
<g id="node4" class="node"><title>Node4</title>
<g id="a_node4"><a xlink:href="../../d7/d62/classbackend_1_1command_1_1_and.html" target="_top" xlink:title="backend.command.And">
<polygon fill="white" stroke="black" points="638.5,-329.5 638.5,-348.5 769.5,-348.5 769.5,-329.5 638.5,-329.5"/>
<text text-anchor="middle" x="704" y="-336.5" font-family="Helvetica,sans-Serif" font-size="10.00">backend.command.And</text>
</a>
</g>
</g>
<!-- Node3&#45;&gt;Node4 -->
<g id="edge3" class="edge"><title>Node3&#45;&gt;Node4</title>
<path fill="none" stroke="midnightblue" d="M520.486,-264.868C545.148,-282.009 582.366,-305.712 618,-320 627.403,-323.77 637.707,-326.869 647.795,-329.388"/>
<polygon fill="midnightblue" stroke="midnightblue" points="522.499,-262.006 512.309,-259.105 518.466,-267.727 522.499,-262.006"/>
</g>
<!-- Node5 -->
<g id="node5" class="node"><title>Node5</title>
<g id="a_node5"><a xlink:href="../../d4/d07/classbackend_1_1command_1_1_equal.html" target="_top" xlink:title="backend.command.Equal">
<polygon fill="white" stroke="black" points="635,-291.5 635,-310.5 773,-310.5 773,-291.5 635,-291.5"/>
<text text-anchor="middle" x="704" y="-298.5" font-family="Helvetica,sans-Serif" font-size="10.00">backend.command.Equal</text>
</a>
</g>
</g>
<!-- Node3&#45;&gt;Node5 -->
<g id="edge4" class="edge"><title>Node3&#45;&gt;Node5</title>
<path fill="none" stroke="midnightblue" d="M548.706,-262.062C570.298,-268.687 595.193,-276.02 618,-282 630.725,-285.336 644.618,-288.599 657.416,-291.454"/>
<polygon fill="midnightblue" stroke="midnightblue" points="549.624,-258.683 539.037,-259.076 547.559,-265.371 549.624,-258.683"/>
</g>
<!-- Node6 -->
<g id="node6" class="node"><title>Node6</title>
<g id="a_node6"><a xlink:href="../../da/da8/classbackend_1_1command_1_1_greater_than.html" target="_top" xlink:title="backend.command.GreaterThan">
<polygon fill="white" stroke="black" points="618,-253.5 618,-272.5 790,-272.5 790,-253.5 618,-253.5"/>
<text text-anchor="middle" x="704" y="-260.5" font-family="Helvetica,sans-Serif" font-size="10.00">backend.command.GreaterThan</text>
</a>
</g>
</g>
<!-- Node3&#45;&gt;Node6 -->
<g id="edge5" class="edge"><title>Node3&#45;&gt;Node6</title>
<path fill="none" stroke="midnightblue" d="M591.967,-253.002C600.669,-253.785 609.421,-254.573 617.986,-255.345"/>
<polygon fill="midnightblue" stroke="midnightblue" points="592.063,-249.496 581.789,-252.085 591.435,-256.468 592.063,-249.496"/>
</g>
<!-- Node7 -->
<g id="node7" class="node"><title>Node7</title>
<g id="a_node7"><a xlink:href="../../d2/db4/classbackend_1_1command_1_1_less_than.html" target="_top" xlink:title="backend.command.LessThan">
<polygon fill="white" stroke="black" points="625.5,-215.5 625.5,-234.5 782.5,-234.5 782.5,-215.5 625.5,-215.5"/>
<text text-anchor="middle" x="704" y="-222.5" font-family="Helvetica,sans-Serif" font-size="10.00">backend.command.LessThan</text>
</a>
</g>
</g>
<!-- Node3&#45;&gt;Node7 -->
<g id="edge6" class="edge"><title>Node3&#45;&gt;Node7</title>
<path fill="none" stroke="midnightblue" d="M592.015,-234.994C603.19,-233.988 614.448,-232.974 625.285,-231.998"/>
<polygon fill="midnightblue" stroke="midnightblue" points="591.435,-231.532 581.789,-235.915 592.063,-238.504 591.435,-231.532"/>
</g>
<!-- Node8 -->
<g id="node8" class="node"><title>Node8</title>
<g id="a_node8"><a xlink:href="../../dd/d8e/classbackend_1_1command_1_1_not_equal.html" target="_top" xlink:title="backend.command.NotEqual">
<polygon fill="white" stroke="black" points="626.5,-177.5 626.5,-196.5 781.5,-196.5 781.5,-177.5 626.5,-177.5"/>
<text text-anchor="middle" x="704" y="-184.5" font-family="Helvetica,sans-Serif" font-size="10.00">backend.command.NotEqual</text>
</a>
</g>
</g>
<!-- Node3&#45;&gt;Node8 -->
<g id="edge7" class="edge"><title>Node3&#45;&gt;Node8</title>
<path fill="none" stroke="midnightblue" d="M558.495,-226.141C566.442,-223.826 574.421,-221.417 582,-219 598.207,-213.831 601.666,-210.754 618,-206 629.905,-202.535 642.905,-199.34 655.076,-196.598"/>
<polygon fill="midnightblue" stroke="midnightblue" points="557.49,-222.788 548.845,-228.912 559.423,-229.516 557.49,-222.788"/>
</g>
<!-- Node9 -->
<g id="node9" class="node"><title>Node9</title>
<g id="a_node9"><a xlink:href="../../d0/d7e/classbackend_1_1command_1_1_or.html" target="_top" xlink:title="backend.command.Or">
<polygon fill="white" stroke="black" points="642.5,-139.5 642.5,-158.5 765.5,-158.5 765.5,-139.5 642.5,-139.5"/>
<text text-anchor="middle" x="704" y="-146.5" font-family="Helvetica,sans-Serif" font-size="10.00">backend.command.Or</text>
</a>
</g>
</g>
<!-- Node3&#45;&gt;Node9 -->
<g id="edge8" class="edge"><title>Node3&#45;&gt;Node9</title>
<path fill="none" stroke="midnightblue" d="M573.46,-224.315C576.422,-222.682 579.282,-220.914 582,-219 604.685,-203.025 594.915,-183.391 618,-168 625.297,-163.135 633.651,-159.499 642.208,-156.785"/>
<polygon fill="midnightblue" stroke="midnightblue" points="571.737,-221.262 564.311,-228.819 574.829,-227.542 571.737,-221.262"/>
</g>
</g>
</svg>
        <g id="navigator" transform="translate(0 0)" fill="#404254">
                <rect fill="#f2f5e9" fill-opacity="0.5" stroke="#606060" stroke-width=".5" x="0" y="0" width="60" height="60"/>
                <use id="zoomplus" xlink:href="#zoomPlus" x="17" y="9" onmousedown="handleZoom(evt,'in')"/>
                <use id="zoomminus" xlink:href="#zoomMin" x="42" y="9" onmousedown="handleZoom(evt,'out')"/>
                <use id="reset" xlink:href="#resetDef" x="30" y="36" onmousedown="handleReset()"/>
                <g id="arrowUp" xlink:href="#dirArrow" transform="translate(30 24)" onmousedown="handlePan(0,-1)">
                  <use xlink:href="#rim" fill="#404040">
                        <set attributeName="fill" to="#808080" begin="arrowUp.mouseover" end="arrowUp.mouseout"/>
                  </use>
                  <path fill="none" stroke="white" stroke-width="1.5" d="M0,-3.0v7 M-2.5,-0.5L0,-3.0L2.5,-0.5"/>
                </g>
                <g id="arrowRight" xlink:href="#dirArrow" transform="rotate(90) translate(36 -43)" onmousedown="handlePan(1,0)">
                  <use xlink:href="#rim" fill="#404040">
                        <set attributeName="fill" to="#808080" begin="arrowRight.mouseover" end="arrowRight.mouseout"/>
                  </use>
                  <path fill="none" stroke="white" stroke-width="1.5" d="M0,-3.0v7 M-2.5,-0.5L0,-3.0L2.5,-0.5"/>
                </g>
                <g id="arrowDown" xlink:href="#dirArrow" transform="rotate(180) translate(-30 -48)" onmousedown="handlePan(0,1)">
                  <use xlink:href="#rim" fill="#404040">
                        <set attributeName="fill" to="#808080" begin="arrowDown.mouseover" end="arrowDown.mouseout"/>
                  </use>
                  <path fill="none" stroke="white" stroke-width="1.5" d="M0,-3.0v7 M-2.5,-0.5L0,-3.0L2.5,-0.5"/>
                </g>
                <g id="arrowLeft" xlink:href="#dirArrow" transform="rotate(270) translate(-36 17)" onmousedown="handlePan(-1,0)">
                  <use xlink:href="#rim" fill="#404040">
                        <set attributeName="fill" to="#808080" begin="arrowLeft.mouseover" end="arrowLeft.mouseout"/>
                  </use>
                  <path fill="none" stroke="white" stroke-width="1.5" d="M0,-3.0v7 M-2.5,-0.5L0,-3.0L2.5,-0.5"/>
                </g>
        </g>
        <svg viewBox="0 0 15 15" width="100%" height="30px" preserveAspectRatio="xMaxYMin meet">
         <g id="arrow_out" transform="scale(0.3 0.3)">
          <a xlink:href="classbackend_1_1command_1_1_binary_math_operation__inherit__graph_org.svg" target="_base">
           <rect id="button" ry="5" rx="5" y="6" x="6" height="38" width="38"
                fill="#f2f5e9" fill-opacity="0.5" stroke="#606060" stroke-width="1.0"/>
           <path id="arrow"
             d="M 11.500037,31.436501 C 11.940474,20.09759 22.043105,11.32322 32.158766,21.979434 L 37.068811,17.246167 C 37.068811,17.246167 37.088388,32 37.088388,32 L 22.160133,31.978069 C 22.160133,31.978069 26.997745,27.140456 26.997745,27.140456 C 18.528582,18.264221 13.291696,25.230495 11.500037,31.436501 z"
             style="fill:#404040;"/>
          </a>
         </g>
        </svg>
</svg>
