<?xml version="1.0" encoding="UTF-8" standalone="no"?>
<!DOCTYPE svg PUBLIC "-//W3C//DTD SVG 1.1//EN"
 "http://www.w3.org/Graphics/SVG/1.1/DTD/svg11.dtd">
<!-- Generated by graphviz version 2.36.0 (20140111.2315)
 -->
<!-- Title: backend.command.SetPosition.execute Pages: 1 -->
<svg width="806pt" height="115pt"
 viewBox="0.00 0.00 806.00 115.00" xmlns="http://www.w3.org/2000/svg" xmlns:xlink="http://www.w3.org/1999/xlink">
<g id="graph0" class="graph" transform="scale(1 1) rotate(0) translate(4 111)">
<title>backend.command.SetPosition.execute</title>
<polygon fill="white" stroke="none" points="-4,4 -4,-111 802,-111 802,4 -4,4"/>
<!-- Node1 -->
<g id="node1" class="node"><title>Node1</title>
<polygon fill="#bfbfbf" stroke="black" points="0.5,-27.5 0.5,-46.5 207.5,-46.5 207.5,-27.5 0.5,-27.5"/>
<text text-anchor="middle" x="104" y="-34.5" font-family="Helvetica,sans-Serif" font-size="10.00">backend.command.SetPosition.execute</text>
</g>
<!-- Node2 -->
<g id="node2" class="node"><title>Node2</title>
<g id="a_node2"><a xlink:href="../../df/de2/classbackend_1_1_turtle.html#a86c40ae8c6731af071b31f3bbbe21deb" target="_top" xlink:title="backend.Turtle.moveToPoint">
<polygon fill="white" stroke="black" points="250.5,-49.5 250.5,-68.5 399.5,-68.5 399.5,-49.5 250.5,-49.5"/>
<text text-anchor="middle" x="325" y="-56.5" font-family="Helvetica,sans-Serif" font-size="10.00">backend.Turtle.moveToPoint</text>
</a>
</g>
</g>
<!-- Node1&#45;&gt;Node2 -->
<g id="edge1" class="edge"><title>Node1&#45;&gt;Node2</title>
<path fill="none" stroke="midnightblue" d="M199.783,-46.5216C213.232,-47.8726 226.983,-49.254 240.204,-50.5822"/>
<polygon fill="midnightblue" stroke="midnightblue" points="239.898,-54.0689 250.198,-51.5861 240.598,-47.104 239.898,-54.0689"/>
</g>
<!-- Node6 -->
<g id="node6" class="node"><title>Node6</title>
<g id="a_node6"><a xlink:href="../../d5/dcb/classbackend_1_1command_1_1_point_turtle_command.html#aa0619a24fc2c3157992c0b6e41ded4a8" target="_top" xlink:title="backend.command.PointTurtle\lCommand.point">
<polygon fill="white" stroke="black" points="244.5,-0 244.5,-30 405.5,-30 405.5,-0 244.5,-0"/>
<text text-anchor="start" x="252.5" y="-18" font-family="Helvetica,sans-Serif" font-size="10.00">backend.command.PointTurtle</text>
<text text-anchor="middle" x="325" y="-7" font-family="Helvetica,sans-Serif" font-size="10.00">Command.point</text>
</a>
</g>
</g>
<!-- Node1&#45;&gt;Node6 -->
<g id="edge5" class="edge"><title>Node1&#45;&gt;Node6</title>
<path fill="none" stroke="midnightblue" d="M199.783,-27.4784C211.317,-26.3198 223.072,-25.1388 234.525,-23.9883"/>
<polygon fill="midnightblue" stroke="midnightblue" points="234.899,-27.4685 244.499,-22.9864 234.199,-20.5035 234.899,-27.4685"/>
</g>
<!-- Node3 -->
<g id="node3" class="node"><title>Node3</title>
<g id="a_node3"><a xlink:href="../../de/dc9/classbackend_1_1_pen.html#a135b3b945d4033d3a3e8e56552ff8782" target="_top" xlink:title="backend.Pen.drawLine">
<polygon fill="white" stroke="black" points="482.5,-87.5 482.5,-106.5 605.5,-106.5 605.5,-87.5 482.5,-87.5"/>
<text text-anchor="middle" x="544" y="-94.5" font-family="Helvetica,sans-Serif" font-size="10.00">backend.Pen.drawLine</text>
</a>
</g>
</g>
<!-- Node2&#45;&gt;Node3 -->
<g id="edge2" class="edge"><title>Node2&#45;&gt;Node3</title>
<path fill="none" stroke="midnightblue" d="M380.478,-68.54C410.272,-73.7574 447.363,-80.2525 478.585,-85.72"/>
<polygon fill="midnightblue" stroke="midnightblue" points="478.046,-89.1787 488.499,-87.4561 479.253,-82.2836 478.046,-89.1787"/>
</g>
<!-- Node5 -->
<g id="node5" class="node"><title>Node5</title>
<g id="a_node5"><a xlink:href="../../df/de2/classbackend_1_1_turtle.html#af37d25ad088eda24bbfd1a22df39c1cc" target="_top" xlink:title="backend.Turtle.jumpToPoint">
<polygon fill="white" stroke="black" points="471,-49.5 471,-68.5 617,-68.5 617,-49.5 471,-49.5"/>
<text text-anchor="middle" x="544" y="-56.5" font-family="Helvetica,sans-Serif" font-size="10.00">backend.Turtle.jumpToPoint</text>
</a>
</g>
</g>
<!-- Node2&#45;&gt;Node5 -->
<g id="edge4" class="edge"><title>Node2&#45;&gt;Node5</title>
<path fill="none" stroke="midnightblue" d="M399.769,-59C419.425,-59 440.78,-59 460.855,-59"/>
<polygon fill="midnightblue" stroke="midnightblue" points="460.905,-62.5001 470.905,-59 460.905,-55.5001 460.905,-62.5001"/>
</g>
<!-- Node4 -->
<g id="node4" class="node"><title>Node4</title>
<g id="a_node4"><a xlink:href="../../de/dc9/classbackend_1_1_pen.html#abfd32c7785accc4f570322aa0b29f650" target="_top" xlink:title="backend.Pen.isDown">
<polygon fill="white" stroke="black" points="682.5,-87.5 682.5,-106.5 797.5,-106.5 797.5,-87.5 682.5,-87.5"/>
<text text-anchor="middle" x="740" y="-94.5" font-family="Helvetica,sans-Serif" font-size="10.00">backend.Pen.isDown</text>
</a>
</g>
</g>
<!-- Node3&#45;&gt;Node4 -->
<g id="edge3" class="edge"><title>Node3&#45;&gt;Node4</title>
<path fill="none" stroke="midnightblue" d="M605.585,-97C626.699,-97 650.507,-97 672.105,-97"/>
<polygon fill="midnightblue" stroke="midnightblue" points="672.18,-100.5 682.18,-97 672.18,-93.5001 672.18,-100.5"/>
</g>
<!-- Node7 -->
<g id="node7" class="node"><title>Node7</title>
<g id="a_node7"><a xlink:href="../../dc/d83/classbackend_1_1command_1_1_command.html#ae218516ae55b1b0d4820d55c901793ea" target="_top" xlink:title="backend.command.Command.execute\lParam">
<polygon fill="white" stroke="black" points="442.5,-0 442.5,-30 645.5,-30 645.5,-0 442.5,-0"/>
<text text-anchor="start" x="450.5" y="-18" font-family="Helvetica,sans-Serif" font-size="10.00">backend.command.Command.execute</text>
<text text-anchor="middle" x="544" y="-7" font-family="Helvetica,sans-Serif" font-size="10.00">Param</text>
</a>
</g>
</g>
<!-- Node6&#45;&gt;Node7 -->
<g id="edge6" class="edge"><title>Node6&#45;&gt;Node7</title>
<path fill="none" stroke="midnightblue" d="M405.571,-15C414.271,-15 423.24,-15 432.229,-15"/>
<polygon fill="midnightblue" stroke="midnightblue" points="432.374,-18.5001 442.374,-15 432.374,-11.5001 432.374,-18.5001"/>
</g>
</g>
</svg>
