<?xml version="1.0" encoding="UTF-8" standalone="no"?>
<!DOCTYPE svg PUBLIC "-//W3C//DTD SVG 1.1//EN"
 "http://www.w3.org/Graphics/SVG/1.1/DTD/svg11.dtd">
<!-- Generated by graphviz version 2.36.0 (20140111.2315)
 -->
<!-- Title: backend.Heading.getAngle Pages: 1 -->
<!--zoomable 218 -->
<svg id="main" version="1.1" xmlns="http://www.w3.org/2000/svg" xmlns:xlink="http://www.w3.org/1999/xlink" xml:space="preserve" onload="init(evt)">
<style type="text/css"><![CDATA[
.edge:hover path { stroke: red; }
.edge:hover polygon { stroke: red; fill: red; }
]]></style>
<script type="text/javascript"><![CDATA[
var edges = document.getElementsByTagName('g');
if (edges && edges.length) {
  for (var i=0;i<edges.length;i++) {
    if (edges[i].id.substr(0,4)=='edge') {
      edges[i].setAttribute('class','edge');
    }
  }
}
]]></script>
        <defs>
                <circle id="rim" cx="0" cy="0" r="7"/>
                <circle id="rim2" cx="0" cy="0" r="3.5"/>
                <g id="zoomPlus">
                        <use xlink:href="#rim" fill="#404040">
                                <set attributeName="fill" to="#808080" begin="zoomplus.mouseover" end="zoomplus.mouseout"/>
                        </use>
                        <path d="M-4,0h8M0,-4v8" fill="none" stroke="white" stroke-width="1.5" pointer-events="none"/>
                </g>
                <g id="zoomMin">
                        <use xlink:href="#rim" fill="#404040">
                                <set attributeName="fill" to="#808080" begin="zoomminus.mouseover" end="zoomminus.mouseout"/>
                        </use>
                        <path d="M-4,0h8" fill="none" stroke="white" stroke-width="1.5" pointer-events="none"/>
                </g>
                <g id="dirArrow">
                        <path fill="none" stroke="white" stroke-width="1.5" d="M0,-3.0v7 M-2.5,-0.5L0,-3.0L2.5,-0.5"/>
                </g>
               <g id="resetDef">
                       <use xlink:href="#rim2" fill="#404040">
                               <set attributeName="fill" to="#808080" begin="reset.mouseover" end="reset.mouseout"/>
                       </use>
               </g>
        </defs>

<script type="text/javascript">
var viewWidth = 1230;
var viewHeight = 218;
var sectionId = 'dynsection-0';
</script>
<script xlink:href="../../svgpan.js"/>
<svg id="graph" class="graph">
<g id="viewport">
<title>backend.Heading.getAngle</title>
<polygon fill="white" stroke="none" points="-4,4 -4,-214 1226,-214 1226,4 -4,4"/>
<!-- Node1 -->
<g id="node1" class="node"><title>Node1</title>
<polygon fill="#bfbfbf" stroke="black" points="0,-114.5 0,-133.5 146,-133.5 146,-114.5 0,-114.5"/>
<text text-anchor="middle" x="73" y="-121.5" font-family="Helvetica,sans-Serif" font-size="10.00">backend.Heading.getAngle</text>
</g>
<!-- Node2 -->
<g id="node2" class="node"><title>Node2</title>
<g id="a_node2"><a xlink:href="../../d7/da5/classbackend_1_1command_1_1_heading.html#aa93f5e881fa6145268b8b13ea4903c15" target="_top" xlink:title="backend.command.Heading.execute">
<polygon fill="white" stroke="black" points="182.5,-190.5 182.5,-209.5 375.5,-209.5 375.5,-190.5 182.5,-190.5"/>
<text text-anchor="middle" x="279" y="-197.5" font-family="Helvetica,sans-Serif" font-size="10.00">backend.command.Heading.execute</text>
</a>
</g>
</g>
<!-- Node1&#45;&gt;Node2 -->
<g id="edge1" class="edge"><title>Node1&#45;&gt;Node2</title>
<path fill="none" stroke="midnightblue" d="M97.4019,-138.916C118.686,-151.848 151.362,-170.145 182,-181 192.81,-184.83 204.593,-187.961 216.085,-190.496"/>
<polygon fill="midnightblue" stroke="midnightblue" points="99.0919,-135.846 88.7446,-133.569 95.4134,-141.802 99.0919,-135.846"/>
</g>
<!-- Node3 -->
<g id="node3" class="node"><title>Node3</title>
<g id="a_node3"><a xlink:href="../../d2/d89/classgui_1_1_turtle_image.html#a632edfc5b5937c0ad906304ba225aadb" target="_top" xlink:title="gui.TurtleImage.orientTurtle">
<polygon fill="white" stroke="black" points="206,-152.5 206,-171.5 352,-171.5 352,-152.5 206,-152.5"/>
<text text-anchor="middle" x="279" y="-159.5" font-family="Helvetica,sans-Serif" font-size="10.00">gui.TurtleImage.orientTurtle</text>
</a>
</g>
</g>
<!-- Node1&#45;&gt;Node3 -->
<g id="edge2" class="edge"><title>Node1&#45;&gt;Node3</title>
<path fill="none" stroke="midnightblue" d="M135.297,-135.418C164.486,-140.855 198.994,-147.283 226.764,-152.456"/>
<polygon fill="midnightblue" stroke="midnightblue" points="135.686,-131.93 125.214,-133.54 134.404,-138.812 135.686,-131.93"/>
</g>
<!-- Node8 -->
<g id="node8" class="node"><title>Node8</title>
<g id="a_node8"><a xlink:href="../../df/de2/classbackend_1_1_turtle.html#a382a75a93f59498cf7605d2c394ca531" target="_top" xlink:title="backend.Turtle.rotateLeft">
<polygon fill="white" stroke="black" points="449,-114.5 449,-133.5 585,-133.5 585,-114.5 449,-114.5"/>
<text text-anchor="middle" x="517" y="-121.5" font-family="Helvetica,sans-Serif" font-size="10.00">backend.Turtle.rotateLeft</text>
</a>
</g>
</g>
<!-- Node1&#45;&gt;Node8 -->
<g id="edge8" class="edge"><title>Node1&#45;&gt;Node8</title>
<path fill="none" stroke="midnightblue" d="M156.559,-124C240.993,-124 370.566,-124 448.902,-124"/>
<polygon fill="midnightblue" stroke="midnightblue" points="156.492,-120.5 146.492,-124 156.492,-127.5 156.492,-120.5"/>
</g>
<!-- Node10 -->
<g id="node10" class="node"><title>Node10</title>
<g id="a_node10"><a xlink:href="../../df/de2/classbackend_1_1_turtle.html#a9ef2c2fdb902135f0f2c26045c160677" target="_top" xlink:title="backend.Turtle.rotateRight">
<polygon fill="white" stroke="black" points="446,-76.5 446,-95.5 588,-95.5 588,-76.5 446,-76.5"/>
<text text-anchor="middle" x="517" y="-83.5" font-family="Helvetica,sans-Serif" font-size="10.00">backend.Turtle.rotateRight</text>
</a>
</g>
</g>
<!-- Node1&#45;&gt;Node10 -->
<g id="edge10" class="edge"><title>Node1&#45;&gt;Node10</title>
<path fill="none" stroke="midnightblue" d="M156.678,-116.892C239.96,-109.732 367.068,-98.8041 445.66,-92.0473"/>
<polygon fill="midnightblue" stroke="midnightblue" points="156.156,-113.424 146.492,-117.768 156.755,-120.398 156.156,-113.424"/>
</g>
<!-- Node12 -->
<g id="node12" class="node"><title>Node12</title>
<g id="a_node12"><a xlink:href="../../df/de2/classbackend_1_1_turtle.html#a05bda1daddb116c72fb4e62e87d6c88b" target="_top" xlink:title="backend.Turtle.setHeading">
<polygon fill="white" stroke="black" points="207.5,-38.5 207.5,-57.5 350.5,-57.5 350.5,-38.5 207.5,-38.5"/>
<text text-anchor="middle" x="279" y="-45.5" font-family="Helvetica,sans-Serif" font-size="10.00">backend.Turtle.setHeading</text>
</a>
</g>
</g>
<!-- Node1&#45;&gt;Node12 -->
<g id="edge12" class="edge"><title>Node1&#45;&gt;Node12</title>
<path fill="none" stroke="midnightblue" d="M99.9439,-109.654C121.428,-98.232 153.018,-82.4758 182,-72 197.833,-66.2768 215.613,-61.4183 231.528,-57.6012"/>
<polygon fill="midnightblue" stroke="midnightblue" points="98.2576,-106.587 91.1116,-114.409 101.576,-112.751 98.2576,-106.587"/>
</g>
<!-- Node4 -->
<g id="node4" class="node"><title>Node4</title>
<g id="a_node4"><a xlink:href="../../d8/d8d/classgui_1_1_drawing_area.html#aaf94ae2627b15ef5a3224dd5fa042aae" target="_top" xlink:title="gui.DrawingArea.drawTurtles">
<polygon fill="white" stroke="black" points="441.5,-152.5 441.5,-171.5 592.5,-171.5 592.5,-152.5 441.5,-152.5"/>
<text text-anchor="middle" x="517" y="-159.5" font-family="Helvetica,sans-Serif" font-size="10.00">gui.DrawingArea.drawTurtles</text>
</a>
</g>
</g>
<!-- Node3&#45;&gt;Node4 -->
<g id="edge3" class="edge"><title>Node3&#45;&gt;Node4</title>
<path fill="none" stroke="midnightblue" d="M362.209,-162C387.987,-162 416.281,-162 441.495,-162"/>
<polygon fill="midnightblue" stroke="midnightblue" points="362.09,-158.5 352.09,-162 362.09,-165.5 362.09,-158.5"/>
</g>
<!-- Node5 -->
<g id="node5" class="node"><title>Node5</title>
<g id="a_node5"><a xlink:href="../../d5/d8a/classgui_1_1_slogo_tab.html#a9ccb322bec15528476c85f84e53f14d9" target="_top" xlink:title="gui.SlogoTab.updatePanels">
<polygon fill="white" stroke="black" points="690,-152.5 690,-171.5 834,-171.5 834,-152.5 690,-152.5"/>
<text text-anchor="middle" x="762" y="-159.5" font-family="Helvetica,sans-Serif" font-size="10.00">gui.SlogoTab.updatePanels</text>
</a>
</g>
</g>
<!-- Node4&#45;&gt;Node5 -->
<g id="edge4" class="edge"><title>Node4&#45;&gt;Node5</title>
<path fill="none" stroke="midnightblue" d="M602.882,-162C631.296,-162 662.659,-162 689.909,-162"/>
<polygon fill="midnightblue" stroke="midnightblue" points="602.559,-158.5 592.559,-162 602.559,-165.5 602.559,-158.5"/>
</g>
<!-- Node6 -->
<g id="node6" class="node"><title>Node6</title>
<g id="a_node6"><a xlink:href="../../d5/d8a/classgui_1_1_slogo_tab.html#a2a016875b2ea48fa761cd4408a78dd21" target="_top" xlink:title="gui.SlogoTab.setButtonActions">
<polygon fill="white" stroke="black" points="902,-171.5 902,-190.5 1064,-190.5 1064,-171.5 902,-171.5"/>
<text text-anchor="middle" x="983" y="-178.5" font-family="Helvetica,sans-Serif" font-size="10.00">gui.SlogoTab.setButtonActions</text>
</a>
</g>
</g>
<!-- Node4&#45;&gt;Node6 -->
<g id="edge7" class="edge"><title>Node4&#45;&gt;Node6</title>
<path fill="none" stroke="midnightblue" d="M585.062,-172.971C608.113,-176.244 634.124,-179.387 658,-181 740.92,-186.601 836.051,-185.737 901.676,-184.004"/>
<polygon fill="midnightblue" stroke="midnightblue" points="585.439,-169.49 575.039,-171.515 584.432,-176.417 585.439,-169.49"/>
</g>
<!-- Node5&#45;&gt;Node6 -->
<g id="edge5" class="edge"><title>Node5&#45;&gt;Node6</title>
<path fill="none" stroke="midnightblue" d="M844.123,-169.038C862.949,-170.671 882.977,-172.409 901.765,-174.039"/>
<polygon fill="midnightblue" stroke="midnightblue" points="844.368,-165.546 834.103,-168.169 843.763,-172.52 844.368,-165.546"/>
</g>
<!-- Node7 -->
<g id="node7" class="node"><title>Node7</title>
<g id="a_node7"><a xlink:href="../../d5/d8a/classgui_1_1_slogo_tab.html#adaa134bc95e1dcf4eb30b3a185c75175" target="_top" xlink:title="gui.SlogoTab.SlogoTab">
<polygon fill="white" stroke="black" points="1100,-171.5 1100,-190.5 1222,-190.5 1222,-171.5 1100,-171.5"/>
<text text-anchor="middle" x="1161" y="-178.5" font-family="Helvetica,sans-Serif" font-size="10.00">gui.SlogoTab.SlogoTab</text>
</a>
</g>
</g>
<!-- Node6&#45;&gt;Node7 -->
<g id="edge6" class="edge"><title>Node6&#45;&gt;Node7</title>
<path fill="none" stroke="midnightblue" d="M1074.24,-181C1082.95,-181 1091.63,-181 1099.94,-181"/>
<polygon fill="midnightblue" stroke="midnightblue" points="1074.02,-177.5 1064.02,-181 1074.02,-184.5 1074.02,-177.5"/>
</g>
<!-- Node9 -->
<g id="node9" class="node"><title>Node9</title>
<g id="a_node9"><a xlink:href="../../d1/d93/classbackend_1_1command_1_1_left.html#a06ab89eec275560592d65c8eaf3fc61c" target="_top" xlink:title="backend.command.Left.execute">
<polygon fill="white" stroke="black" points="676.5,-114.5 676.5,-133.5 847.5,-133.5 847.5,-114.5 676.5,-114.5"/>
<text text-anchor="middle" x="762" y="-121.5" font-family="Helvetica,sans-Serif" font-size="10.00">backend.command.Left.execute</text>
</a>
</g>
</g>
<!-- Node8&#45;&gt;Node9 -->
<g id="edge9" class="edge"><title>Node8&#45;&gt;Node9</title>
<path fill="none" stroke="midnightblue" d="M595.162,-124C621.013,-124 649.969,-124 676.361,-124"/>
<polygon fill="midnightblue" stroke="midnightblue" points="595.044,-120.5 585.044,-124 595.044,-127.5 595.044,-120.5"/>
</g>
<!-- Node11 -->
<g id="node11" class="node"><title>Node11</title>
<g id="a_node11"><a xlink:href="../../d6/dcb/classbackend_1_1command_1_1_right.html#acdc2fa5040cde9b0ffabb1013a7dda38" target="_top" xlink:title="backend.command.Right.execute">
<polygon fill="white" stroke="black" points="673.5,-76.5 673.5,-95.5 850.5,-95.5 850.5,-76.5 673.5,-76.5"/>
<text text-anchor="middle" x="762" y="-83.5" font-family="Helvetica,sans-Serif" font-size="10.00">backend.command.Right.execute</text>
</a>
</g>
</g>
<!-- Node10&#45;&gt;Node11 -->
<g id="edge11" class="edge"><title>Node10&#45;&gt;Node11</title>
<path fill="none" stroke="midnightblue" d="M598.394,-86C622.355,-86 648.734,-86 673.145,-86"/>
<polygon fill="midnightblue" stroke="midnightblue" points="598.286,-82.5001 588.286,-86 598.286,-89.5001 598.286,-82.5001"/>
</g>
<!-- Node12&#45;&gt;Node8 -->
<g id="edge17" class="edge"><title>Node12&#45;&gt;Node8</title>
<path fill="none" stroke="midnightblue" d="M307.7,-62.1641C333.941,-75.0467 374.766,-93.7197 412,-105 424.472,-108.778 438.025,-111.922 451.101,-114.493"/>
<polygon fill="midnightblue" stroke="midnightblue" points="309.239,-59.0203 298.726,-57.7042 306.123,-65.2889 309.239,-59.0203"/>
</g>
<!-- Node12&#45;&gt;Node10 -->
<g id="edge16" class="edge"><title>Node12&#45;&gt;Node10</title>
<path fill="none" stroke="midnightblue" d="M349.149,-59.1341C383.283,-64.6303 424.04,-71.1929 456.727,-76.4561"/>
<polygon fill="midnightblue" stroke="midnightblue" points="349.677,-55.6742 339.248,-57.54 348.565,-62.5852 349.677,-55.6742"/>
</g>
<!-- Node13 -->
<g id="node13" class="node"><title>Node13</title>
<g id="a_node13"><a xlink:href="../../d8/d92/classbackend_1_1command_1_1_set_heading.html#aae201c4671003d1ad516dfd4886db55d" target="_top" xlink:title="backend.command.SetHeading.execute">
<polygon fill="white" stroke="black" points="412.5,-0.5 412.5,-19.5 621.5,-19.5 621.5,-0.5 412.5,-0.5"/>
<text text-anchor="middle" x="517" y="-7.5" font-family="Helvetica,sans-Serif" font-size="10.00">backend.command.SetHeading.execute</text>
</a>
</g>
</g>
<!-- Node12&#45;&gt;Node13 -->
<g id="edge13" class="edge"><title>Node12&#45;&gt;Node13</title>
<path fill="none" stroke="midnightblue" d="M349.149,-36.8659C383.283,-31.3697 424.04,-24.8071 456.727,-19.5439"/>
<polygon fill="midnightblue" stroke="midnightblue" points="348.565,-33.4148 339.248,-38.46 349.677,-40.3258 348.565,-33.4148"/>
</g>
<!-- Node14 -->
<g id="node14" class="node"><title>Node14</title>
<g id="a_node14"><a xlink:href="../../df/de2/classbackend_1_1_turtle.html#a15c8fa47008e482e5d40b4310d2bf8e7" target="_top" xlink:title="backend.Turtle.faceTowards">
<polygon fill="white" stroke="black" points="444,-38.5 444,-57.5 590,-57.5 590,-38.5 444,-38.5"/>
<text text-anchor="middle" x="517" y="-45.5" font-family="Helvetica,sans-Serif" font-size="10.00">backend.Turtle.faceTowards</text>
</a>
</g>
</g>
<!-- Node12&#45;&gt;Node14 -->
<g id="edge14" class="edge"><title>Node12&#45;&gt;Node14</title>
<path fill="none" stroke="midnightblue" d="M360.94,-48C387.776,-48 417.458,-48 443.608,-48"/>
<polygon fill="midnightblue" stroke="midnightblue" points="360.808,-44.5001 350.808,-48 360.808,-51.5001 360.808,-44.5001"/>
</g>
<!-- Node15 -->
<g id="node15" class="node"><title>Node15</title>
<g id="a_node15"><a xlink:href="../../d7/d1a/classbackend_1_1command_1_1_set_towards.html#ae10f8bb4a72bf22814c7ecd1fe14459d" target="_top" xlink:title="backend.command.SetTowards.execute">
<polygon fill="white" stroke="black" points="658.5,-38.5 658.5,-57.5 865.5,-57.5 865.5,-38.5 658.5,-38.5"/>
<text text-anchor="middle" x="762" y="-45.5" font-family="Helvetica,sans-Serif" font-size="10.00">backend.command.SetTowards.execute</text>
</a>
</g>
</g>
<!-- Node14&#45;&gt;Node15 -->
<g id="edge15" class="edge"><title>Node14&#45;&gt;Node15</title>
<path fill="none" stroke="midnightblue" d="M600.451,-48C619.089,-48 639.099,-48 658.451,-48"/>
<polygon fill="midnightblue" stroke="midnightblue" points="600.25,-44.5001 590.25,-48 600.25,-51.5001 600.25,-44.5001"/>
</g>
</g>
</svg>
        <g id="navigator" transform="translate(0 0)" fill="#404254">
                <rect fill="#f2f5e9" fill-opacity="0.5" stroke="#606060" stroke-width=".5" x="0" y="0" width="60" height="60"/>
                <use id="zoomplus" xlink:href="#zoomPlus" x="17" y="9" onmousedown="handleZoom(evt,'in')"/>
                <use id="zoomminus" xlink:href="#zoomMin" x="42" y="9" onmousedown="handleZoom(evt,'out')"/>
                <use id="reset" xlink:href="#resetDef" x="30" y="36" onmousedown="handleReset()"/>
                <g id="arrowUp" xlink:href="#dirArrow" transform="translate(30 24)" onmousedown="handlePan(0,-1)">
                  <use xlink:href="#rim" fill="#404040">
                        <set attributeName="fill" to="#808080" begin="arrowUp.mouseover" end="arrowUp.mouseout"/>
                  </use>
                  <path fill="none" stroke="white" stroke-width="1.5" d="M0,-3.0v7 M-2.5,-0.5L0,-3.0L2.5,-0.5"/>
                </g>
                <g id="arrowRight" xlink:href="#dirArrow" transform="rotate(90) translate(36 -43)" onmousedown="handlePan(1,0)">
                  <use xlink:href="#rim" fill="#404040">
                        <set attributeName="fill" to="#808080" begin="arrowRight.mouseover" end="arrowRight.mouseout"/>
                  </use>
                  <path fill="none" stroke="white" stroke-width="1.5" d="M0,-3.0v7 M-2.5,-0.5L0,-3.0L2.5,-0.5"/>
                </g>
                <g id="arrowDown" xlink:href="#dirArrow" transform="rotate(180) translate(-30 -48)" onmousedown="handlePan(0,1)">
                  <use xlink:href="#rim" fill="#404040">
                        <set attributeName="fill" to="#808080" begin="arrowDown.mouseover" end="arrowDown.mouseout"/>
                  </use>
                  <path fill="none" stroke="white" stroke-width="1.5" d="M0,-3.0v7 M-2.5,-0.5L0,-3.0L2.5,-0.5"/>
                </g>
                <g id="arrowLeft" xlink:href="#dirArrow" transform="rotate(270) translate(-36 17)" onmousedown="handlePan(-1,0)">
                  <use xlink:href="#rim" fill="#404040">
                        <set attributeName="fill" to="#808080" begin="arrowLeft.mouseover" end="arrowLeft.mouseout"/>
                  </use>
                  <path fill="none" stroke="white" stroke-width="1.5" d="M0,-3.0v7 M-2.5,-0.5L0,-3.0L2.5,-0.5"/>
                </g>
        </g>
        <svg viewBox="0 0 15 15" width="100%" height="30px" preserveAspectRatio="xMaxYMin meet">
         <g id="arrow_out" transform="scale(0.3 0.3)">
          <a xlink:href="classbackend_1_1_heading_a184d1ef92b62ea73e6edc57e07d3c0d4_icgraph_org.svg" target="_base">
           <rect id="button" ry="5" rx="5" y="6" x="6" height="38" width="38"
                fill="#f2f5e9" fill-opacity="0.5" stroke="#606060" stroke-width="1.0"/>
           <path id="arrow"
             d="M 11.500037,31.436501 C 11.940474,20.09759 22.043105,11.32322 32.158766,21.979434 L 37.068811,17.246167 C 37.068811,17.246167 37.088388,32 37.088388,32 L 22.160133,31.978069 C 22.160133,31.978069 26.997745,27.140456 26.997745,27.140456 C 18.528582,18.264221 13.291696,25.230495 11.500037,31.436501 z"
             style="fill:#404040;"/>
          </a>
         </g>
        </svg>
</svg>
