<?xml version="1.0" encoding="UTF-8" standalone="no"?>
<!DOCTYPE svg PUBLIC "-//W3C//DTD SVG 1.1//EN"
 "http://www.w3.org/Graphics/SVG/1.1/DTD/svg11.dtd">
<!-- Generated by graphviz version 2.36.0 (20140111.2315)
 -->
<!-- Title: gui.TurtleImage Pages: 1 -->
<svg width="590pt" height="232pt"
 viewBox="0.00 0.00 590.00 232.00" xmlns="http://www.w3.org/2000/svg" xmlns:xlink="http://www.w3.org/1999/xlink">
<g id="graph0" class="graph" transform="scale(1 1) rotate(0) translate(4 228)">
<title>gui.TurtleImage</title>
<polygon fill="white" stroke="none" points="-4,4 -4,-228 586,-228 586,4 -4,4"/>
<!-- Node1 -->
<g id="node1" class="node"><title>Node1</title>
<polygon fill="#bfbfbf" stroke="black" points="201.5,-0.5 201.5,-19.5 290.5,-19.5 290.5,-0.5 201.5,-0.5"/>
<text text-anchor="middle" x="246" y="-7.5" font-family="Helvetica,sans-Serif" font-size="10.00">gui.TurtleImage</text>
</g>
<!-- Node2 -->
<g id="node2" class="node"><title>Node2</title>
<polygon fill="white" stroke="#bfbfbf" points="180,-68.5 180,-87.5 248,-87.5 248,-68.5 180,-68.5"/>
<text text-anchor="middle" x="214" y="-75.5" font-family="Helvetica,sans-Serif" font-size="10.00">ImageView</text>
</g>
<!-- Node2&#45;&gt;Node1 -->
<g id="edge1" class="edge"><title>Node2&#45;&gt;Node1</title>
<path fill="none" stroke="midnightblue" d="M222.637,-59.1859C228.811,-46.4523 236.855,-29.8607 241.713,-19.8411"/>
<polygon fill="midnightblue" stroke="midnightblue" points="219.397,-57.8465 218.183,-68.3717 225.696,-60.9005 219.397,-57.8465"/>
</g>
<!-- Node3 -->
<g id="node3" class="node"><title>Node3</title>
<g id="a_node3"><a xlink:href="../../df/de2/classbackend_1_1_turtle.html" target="_top" xlink:title="backend.Turtle">
<polygon fill="white" stroke="black" points="266,-68.5 266,-87.5 352,-87.5 352,-68.5 266,-68.5"/>
<text text-anchor="middle" x="309" y="-75.5" font-family="Helvetica,sans-Serif" font-size="10.00">backend.Turtle</text>
</a>
</g>
</g>
<!-- Node3&#45;&gt;Node1 -->
<g id="edge2" class="edge"><title>Node3&#45;&gt;Node1</title>
<path fill="none" stroke="#9a32cd" stroke-dasharray="5,2" d="M293.773,-61.0474C281.424,-48.1111 264.477,-30.3567 254.439,-19.8411"/>
<polygon fill="#9a32cd" stroke="#9a32cd" points="291.327,-63.5547 300.764,-68.3717 296.391,-58.7214 291.327,-63.5547"/>
<text text-anchor="middle" x="298.5" y="-41.5" font-family="Helvetica,sans-Serif" font-size="10.00"> turtle</text>
</g>
<!-- Node4 -->
<g id="node4" class="node"><title>Node4</title>
<g id="a_node4"><a xlink:href="../../d6/d7e/interfacebackend_1_1_drawable_image.html" target="_top" xlink:title="backend.DrawableImage">
<polygon fill="white" stroke="black" points="0,-136.5 0,-155.5 134,-155.5 134,-136.5 0,-136.5"/>
<text text-anchor="middle" x="67" y="-143.5" font-family="Helvetica,sans-Serif" font-size="10.00">backend.DrawableImage</text>
</a>
</g>
</g>
<!-- Node4&#45;&gt;Node3 -->
<g id="edge3" class="edge"><title>Node4&#45;&gt;Node3</title>
<path fill="none" stroke="midnightblue" d="M108.405,-133.708C156.43,-120.61 234.521,-99.3125 277.738,-87.5259"/>
<polygon fill="midnightblue" stroke="midnightblue" points="107.364,-130.364 98.6373,-136.372 109.206,-137.117 107.364,-130.364"/>
</g>
<!-- Node5 -->
<g id="node5" class="node"><title>Node5</title>
<g id="a_node5"><a xlink:href="../../d8/d98/classbackend_1_1_heading.html" target="_top" xlink:title="backend.Heading">
<polygon fill="white" stroke="black" points="152,-136.5 152,-155.5 252,-155.5 252,-136.5 152,-136.5"/>
<text text-anchor="middle" x="202" y="-143.5" font-family="Helvetica,sans-Serif" font-size="10.00">backend.Heading</text>
</a>
</g>
</g>
<!-- Node5&#45;&gt;Node3 -->
<g id="edge4" class="edge"><title>Node5&#45;&gt;Node3</title>
<path fill="none" stroke="#9a32cd" stroke-dasharray="5,2" d="M223.586,-130.917C235.199,-123.412 249.808,-114.085 263,-106 273.264,-99.7097 284.966,-92.8454 293.998,-87.6122"/>
<polygon fill="#9a32cd" stroke="#9a32cd" points="221.483,-128.108 214.999,-136.487 225.293,-133.981 221.483,-128.108"/>
<text text-anchor="middle" x="284" y="-109.5" font-family="Helvetica,sans-Serif" font-size="10.00"> heading</text>
</g>
<!-- Node6 -->
<g id="node6" class="node"><title>Node6</title>
<g id="a_node6"><a xlink:href="../../de/dc9/classbackend_1_1_pen.html" target="_top" xlink:title="backend.Pen">
<polygon fill="white" stroke="black" points="270,-136.5 270,-155.5 348,-155.5 348,-136.5 270,-136.5"/>
<text text-anchor="middle" x="309" y="-143.5" font-family="Helvetica,sans-Serif" font-size="10.00">backend.Pen</text>
</a>
</g>
</g>
<!-- Node6&#45;&gt;Node3 -->
<g id="edge5" class="edge"><title>Node6&#45;&gt;Node3</title>
<path fill="none" stroke="#9a32cd" stroke-dasharray="5,2" d="M309,-126.041C309,-113.472 309,-97.5631 309,-87.8411"/>
<polygon fill="#9a32cd" stroke="#9a32cd" points="305.5,-126.372 309,-136.372 312.5,-126.372 305.5,-126.372"/>
<text text-anchor="middle" x="320" y="-109.5" font-family="Helvetica,sans-Serif" font-size="10.00"> pen</text>
</g>
<!-- Node7 -->
<g id="node7" class="node"><title>Node7</title>
<polygon fill="white" stroke="#bfbfbf" points="232.5,-204.5 232.5,-223.5 273.5,-223.5 273.5,-204.5 232.5,-204.5"/>
<text text-anchor="middle" x="253" y="-211.5" font-family="Helvetica,sans-Serif" font-size="10.00">Color</text>
</g>
<!-- Node7&#45;&gt;Node6 -->
<g id="edge6" class="edge"><title>Node7&#45;&gt;Node6</title>
<path fill="none" stroke="#9a32cd" stroke-dasharray="5,2" d="M266.847,-196.68C277.795,-183.777 292.66,-166.258 301.498,-155.841"/>
<polygon fill="#9a32cd" stroke="#9a32cd" points="264.122,-194.482 260.321,-204.372 269.46,-199.011 264.122,-194.482"/>
<text text-anchor="middle" x="300.5" y="-177.5" font-family="Helvetica,sans-Serif" font-size="10.00"> color</text>
</g>
<!-- Node8 -->
<g id="node8" class="node"><title>Node8</title>
<polygon fill="white" stroke="#bfbfbf" points="292,-204.5 292,-223.5 436,-223.5 436,-204.5 292,-204.5"/>
<text text-anchor="middle" x="364" y="-211.5" font-family="Helvetica,sans-Serif" font-size="10.00">ArrayList&lt; backend.Line &gt;</text>
</g>
<!-- Node8&#45;&gt;Node6 -->
<g id="edge7" class="edge"><title>Node8&#45;&gt;Node6</title>
<path fill="none" stroke="#9a32cd" stroke-dasharray="5,2" d="M350.4,-196.68C339.647,-183.777 325.048,-166.258 316.368,-155.841"/>
<polygon fill="#9a32cd" stroke="#9a32cd" points="347.719,-198.93 356.81,-204.372 353.097,-194.449 347.719,-198.93"/>
<text text-anchor="middle" x="354.5" y="-177.5" font-family="Helvetica,sans-Serif" font-size="10.00"> lines</text>
</g>
<!-- Node9 -->
<g id="node9" class="node"><title>Node9</title>
<polygon fill="white" stroke="#bfbfbf" points="366.5,-136.5 366.5,-155.5 523.5,-155.5 523.5,-136.5 366.5,-136.5"/>
<text text-anchor="middle" x="445" y="-143.5" font-family="Helvetica,sans-Serif" font-size="10.00">ArrayList&lt; backend.Stamp &gt;</text>
</g>
<!-- Node9&#45;&gt;Node3 -->
<g id="edge8" class="edge"><title>Node9&#45;&gt;Node3</title>
<path fill="none" stroke="#9a32cd" stroke-dasharray="5,2" d="M417.928,-131.862C390.855,-118.724 350,-98.8969 326.784,-87.6305"/>
<polygon fill="#9a32cd" stroke="#9a32cd" points="416.696,-135.154 427.22,-136.372 419.752,-128.857 416.696,-135.154"/>
<text text-anchor="middle" x="410" y="-109.5" font-family="Helvetica,sans-Serif" font-size="10.00"> stamps</text>
</g>
<!-- Node10 -->
<g id="node10" class="node"><title>Node10</title>
<polygon fill="white" stroke="#bfbfbf" points="541.5,-136.5 541.5,-155.5 582.5,-155.5 582.5,-136.5 541.5,-136.5"/>
<text text-anchor="middle" x="562" y="-143.5" font-family="Helvetica,sans-Serif" font-size="10.00">Point</text>
</g>
<!-- Node10&#45;&gt;Node3 -->
<g id="edge9" class="edge"><title>Node10&#45;&gt;Node3</title>
<path fill="none" stroke="#9a32cd" stroke-dasharray="5,2" d="M531.725,-134.999C505.914,-126.66 467.744,-114.769 434,-106 406.925,-98.9641 376.221,-92.3135 352.019,-87.3733"/>
<polygon fill="#9a32cd" stroke="#9a32cd" points="530.718,-138.352 541.31,-138.116 532.883,-131.695 530.718,-138.352"/>
<text text-anchor="middle" x="497.5" y="-109.5" font-family="Helvetica,sans-Serif" font-size="10.00"> location</text>
</g>
</g>
</svg>
