<?xml version="1.0" encoding="UTF-8" standalone="no"?>
<!DOCTYPE svg PUBLIC "-//W3C//DTD SVG 1.1//EN"
 "http://www.w3.org/Graphics/SVG/1.1/DTD/svg11.dtd">
<!-- Generated by graphviz version 2.36.0 (20140111.2315)
 -->
<!-- Title: backend.command.SpecifiedTurtleCommand.specifiedTurtles Pages: 1 -->
<svg width="382pt" height="66pt"
 viewBox="0.00 0.00 382.00 66.00" xmlns="http://www.w3.org/2000/svg" xmlns:xlink="http://www.w3.org/1999/xlink">
<g id="graph0" class="graph" transform="scale(1 1) rotate(0) translate(4 62)">
<title>backend.command.SpecifiedTurtleCommand.specifiedTurtles</title>
<polygon fill="white" stroke="none" points="-4,4 -4,-62 378,-62 378,4 -4,4"/>
<!-- Node1 -->
<g id="node1" class="node"><title>Node1</title>
<polygon fill="#bfbfbf" stroke="black" points="0,-14 0,-44 168,-44 168,-14 0,-14"/>
<text text-anchor="start" x="8" y="-32" font-family="Helvetica,sans-Serif" font-size="10.00">backend.command.Specified</text>
<text text-anchor="middle" x="84" y="-21" font-family="Helvetica,sans-Serif" font-size="10.00">TurtleCommand.specifiedTurtles</text>
</g>
<!-- Node2 -->
<g id="node2" class="node"><title>Node2</title>
<g id="a_node2"><a xlink:href="../../de/dcc/classbackend_1_1command_1_1_tell.html#a9efd790cb410947936aed1289e7fc246" target="_top" xlink:title="backend.command.Tell.execute">
<polygon fill="white" stroke="black" points="205.5,-38.5 205.5,-57.5 372.5,-57.5 372.5,-38.5 205.5,-38.5"/>
<text text-anchor="middle" x="289" y="-45.5" font-family="Helvetica,sans-Serif" font-size="10.00">backend.command.Tell.execute</text>
</a>
</g>
</g>
<!-- Node1&#45;&gt;Node2 -->
<g id="edge1" class="edge"><title>Node1&#45;&gt;Node2</title>
<path fill="none" stroke="midnightblue" d="M178.281,-37.7307C187.297,-38.5746 196.401,-39.4267 205.304,-40.26"/>
<polygon fill="midnightblue" stroke="midnightblue" points="178.436,-34.2301 168.154,-36.7828 177.784,-41.1996 178.436,-34.2301"/>
</g>
<!-- Node3 -->
<g id="node3" class="node"><title>Node3</title>
<g id="a_node3"><a xlink:href="../../d4/d75/classbackend_1_1command_1_1_ask.html#a453b95a58b91a82a2cca53f444a31ff6" target="_top" xlink:title="backend.command.Ask.execute">
<polygon fill="white" stroke="black" points="204,-0.5 204,-19.5 374,-19.5 374,-0.5 204,-0.5"/>
<text text-anchor="middle" x="289" y="-7.5" font-family="Helvetica,sans-Serif" font-size="10.00">backend.command.Ask.execute</text>
</a>
</g>
</g>
<!-- Node1&#45;&gt;Node3 -->
<g id="edge2" class="edge"><title>Node1&#45;&gt;Node3</title>
<path fill="none" stroke="midnightblue" d="M178.198,-20.277C186.798,-19.4721 195.479,-18.6596 203.99,-17.863"/>
<polygon fill="midnightblue" stroke="midnightblue" points="177.784,-16.8004 168.154,-21.2172 178.436,-23.7699 177.784,-16.8004"/>
</g>
</g>
</svg>
