<?xml version="1.0" encoding="UTF-8" standalone="no"?>
<!DOCTYPE svg PUBLIC "-//W3C//DTD SVG 1.1//EN"
 "http://www.w3.org/Graphics/SVG/1.1/DTD/svg11.dtd">
<!-- Generated by graphviz version 2.36.0 (20140111.2315)
 -->
<!-- Title: backend.StringPair.getProperty Pages: 1 -->
<svg width="1196pt" height="87pt"
 viewBox="0.00 0.00 1196.00 87.00" xmlns="http://www.w3.org/2000/svg" xmlns:xlink="http://www.w3.org/1999/xlink">
<g id="graph0" class="graph" transform="scale(1 1) rotate(0) translate(4 83)">
<title>backend.StringPair.getProperty</title>
<polygon fill="white" stroke="none" points="-4,4 -4,-83 1192,-83 1192,4 -4,4"/>
<!-- Node1 -->
<g id="node1" class="node"><title>Node1</title>
<polygon fill="#bfbfbf" stroke="black" points="0,-29.5 0,-48.5 164,-48.5 164,-29.5 0,-29.5"/>
<text text-anchor="middle" x="82" y="-36.5" font-family="Helvetica,sans-Serif" font-size="10.00">backend.StringPair.getProperty</text>
</g>
<!-- Node2 -->
<g id="node2" class="node"><title>Node2</title>
<g id="a_node2"><a xlink:href="../../d3/dd9/classbackend_1_1command_1_1_command_factory.html#a9bab90874aa013a30c13ea158ca54a1b" target="_top" xlink:title="backend.command.CommandFactory.get\lCommand">
<polygon fill="white" stroke="black" points="200,-49 200,-79 414,-79 414,-49 200,-49"/>
<text text-anchor="start" x="208" y="-67" font-family="Helvetica,sans-Serif" font-size="10.00">backend.command.CommandFactory.get</text>
<text text-anchor="middle" x="307" y="-56" font-family="Helvetica,sans-Serif" font-size="10.00">Command</text>
</a>
</g>
</g>
<!-- Node1&#45;&gt;Node2 -->
<g id="edge1" class="edge"><title>Node1&#45;&gt;Node2</title>
<path fill="none" stroke="midnightblue" d="M174.288,-49.234C182.683,-50.1752 191.236,-51.1341 199.749,-52.0885"/>
<polygon fill="midnightblue" stroke="midnightblue" points="174.467,-45.7323 164.139,-48.0963 173.687,-52.6887 174.467,-45.7323"/>
</g>
<!-- Node7 -->
<g id="node7" class="node"><title>Node7</title>
<g id="a_node7"><a xlink:href="../../dc/d83/classbackend_1_1command_1_1_command.html#aac0449fd9cdf430b469cc3bef39218e6" target="_top" xlink:title="backend.command.Command.get\lProperty">
<polygon fill="white" stroke="black" points="216.5,-0 216.5,-30 397.5,-30 397.5,-0 216.5,-0"/>
<text text-anchor="start" x="224.5" y="-18" font-family="Helvetica,sans-Serif" font-size="10.00">backend.command.Command.get</text>
<text text-anchor="middle" x="307" y="-7" font-family="Helvetica,sans-Serif" font-size="10.00">Property</text>
</a>
</g>
</g>
<!-- Node1&#45;&gt;Node7 -->
<g id="edge6" class="edge"><title>Node1&#45;&gt;Node7</title>
<path fill="none" stroke="midnightblue" d="M174.166,-29.1885C188.059,-27.6932 202.389,-26.151 216.251,-24.6591"/>
<polygon fill="midnightblue" stroke="midnightblue" points="173.707,-25.7175 164.139,-30.2676 174.456,-32.6773 173.707,-25.7175"/>
</g>
<!-- Node3 -->
<g id="node3" class="node"><title>Node3</title>
<g id="a_node3"><a xlink:href="../../da/d26/classbackend_1_1_s_logo_parser.html#a86664390860bb0e249880e3116024485" target="_top" xlink:title="backend.SLogoParser.parse\lProgram">
<polygon fill="white" stroke="black" points="468.5,-49 468.5,-79 617.5,-79 617.5,-49 468.5,-49"/>
<text text-anchor="start" x="476.5" y="-67" font-family="Helvetica,sans-Serif" font-size="10.00">backend.SLogoParser.parse</text>
<text text-anchor="middle" x="543" y="-56" font-family="Helvetica,sans-Serif" font-size="10.00">Program</text>
</a>
</g>
</g>
<!-- Node2&#45;&gt;Node3 -->
<g id="edge2" class="edge"><title>Node2&#45;&gt;Node3</title>
<path fill="none" stroke="midnightblue" d="M424.411,-64C439.403,-64 454.409,-64 468.443,-64"/>
<polygon fill="midnightblue" stroke="midnightblue" points="424.046,-60.5001 414.046,-64 424.045,-67.5001 424.046,-60.5001"/>
</g>
<!-- Node4 -->
<g id="node4" class="node"><title>Node4</title>
<g id="a_node4"><a xlink:href="../../d3/dac/classbackend_1_1_model.html#adbef0c902e277446afa17a84278c15ba" target="_top" xlink:title="backend.Model.parseProgram">
<polygon fill="white" stroke="black" points="672,-54.5 672,-73.5 832,-73.5 832,-54.5 672,-54.5"/>
<text text-anchor="middle" x="752" y="-61.5" font-family="Helvetica,sans-Serif" font-size="10.00">backend.Model.parseProgram</text>
</a>
</g>
</g>
<!-- Node3&#45;&gt;Node4 -->
<g id="edge3" class="edge"><title>Node3&#45;&gt;Node4</title>
<path fill="none" stroke="midnightblue" d="M627.972,-64C642.417,-64 657.389,-64 671.706,-64"/>
<polygon fill="midnightblue" stroke="midnightblue" points="627.563,-60.5001 617.563,-64 627.563,-67.5001 627.563,-60.5001"/>
</g>
<!-- Node5 -->
<g id="node5" class="node"><title>Node5</title>
<g id="a_node5"><a xlink:href="../../d5/d8a/classgui_1_1_slogo_tab.html#a2a016875b2ea48fa761cd4408a78dd21" target="_top" xlink:title="gui.SlogoTab.setButtonActions">
<polygon fill="white" stroke="black" points="868,-54.5 868,-73.5 1030,-73.5 1030,-54.5 868,-54.5"/>
<text text-anchor="middle" x="949" y="-61.5" font-family="Helvetica,sans-Serif" font-size="10.00">gui.SlogoTab.setButtonActions</text>
</a>
</g>
</g>
<!-- Node4&#45;&gt;Node5 -->
<g id="edge4" class="edge"><title>Node4&#45;&gt;Node5</title>
<path fill="none" stroke="midnightblue" d="M842.083,-64C850.692,-64 859.389,-64 867.903,-64"/>
<polygon fill="midnightblue" stroke="midnightblue" points="842.033,-60.5001 832.033,-64 842.033,-67.5001 842.033,-60.5001"/>
</g>
<!-- Node6 -->
<g id="node6" class="node"><title>Node6</title>
<g id="a_node6"><a xlink:href="../../d5/d8a/classgui_1_1_slogo_tab.html#adaa134bc95e1dcf4eb30b3a185c75175" target="_top" xlink:title="gui.SlogoTab.SlogoTab">
<polygon fill="white" stroke="black" points="1066,-54.5 1066,-73.5 1188,-73.5 1188,-54.5 1066,-54.5"/>
<text text-anchor="middle" x="1127" y="-61.5" font-family="Helvetica,sans-Serif" font-size="10.00">gui.SlogoTab.SlogoTab</text>
</a>
</g>
</g>
<!-- Node5&#45;&gt;Node6 -->
<g id="edge5" class="edge"><title>Node5&#45;&gt;Node6</title>
<path fill="none" stroke="midnightblue" d="M1040.24,-64C1048.95,-64 1057.63,-64 1065.94,-64"/>
<polygon fill="midnightblue" stroke="midnightblue" points="1040.02,-60.5001 1030.02,-64 1040.02,-67.5001 1040.02,-60.5001"/>
</g>
<!-- Node8 -->
<g id="node8" class="node"><title>Node8</title>
<g id="a_node8"><a xlink:href="../../d4/d4b/classbackend_1_1command_1_1_user_instruction_retriever.html#a19a54335927c20b9d9121db5c8b2aea2" target="_top" xlink:title="backend.command.UserInstruction\lRetriever.UserInstructionRetriever">
<polygon fill="white" stroke="black" points="450.5,-0 450.5,-30 635.5,-30 635.5,-0 450.5,-0"/>
<text text-anchor="start" x="458.5" y="-18" font-family="Helvetica,sans-Serif" font-size="10.00">backend.command.UserInstruction</text>
<text text-anchor="middle" x="543" y="-7" font-family="Helvetica,sans-Serif" font-size="10.00">Retriever.UserInstructionRetriever</text>
</a>
</g>
</g>
<!-- Node7&#45;&gt;Node8 -->
<g id="edge7" class="edge"><title>Node7&#45;&gt;Node8</title>
<path fill="none" stroke="midnightblue" d="M407.928,-15C421.932,-15 436.27,-15 450.115,-15"/>
<polygon fill="midnightblue" stroke="midnightblue" points="407.801,-11.5001 397.801,-15 407.801,-18.5001 407.801,-11.5001"/>
</g>
</g>
</svg>
