<?xml version="1.0" encoding="UTF-8" standalone="no"?>
<!DOCTYPE svg PUBLIC "-//W3C//DTD SVG 1.1//EN"
 "http://www.w3.org/Graphics/SVG/1.1/DTD/svg11.dtd">
<!-- Generated by graphviz version 2.36.0 (20140111.2315)
 -->
<!-- Title: gui.TopMenu Pages: 1 -->
<svg width="1648pt" height="766pt"
 viewBox="0.00 0.00 1648.00 766.28" xmlns="http://www.w3.org/2000/svg" xmlns:xlink="http://www.w3.org/1999/xlink">
<g id="graph0" class="graph" transform="scale(1 1) rotate(0) translate(4 762.277)">
<title>gui.TopMenu</title>
<polygon fill="white" stroke="none" points="-4,4 -4,-762.277 1644,-762.277 1644,4 -4,4"/>
<!-- Node1 -->
<g id="node1" class="node"><title>Node1</title>
<polygon fill="#bfbfbf" stroke="black" points="1564,-328.777 1564,-347.777 1640,-347.777 1640,-328.777 1564,-328.777"/>
<text text-anchor="middle" x="1602" y="-335.777" font-family="Helvetica,sans-Serif" font-size="10.00">gui.TopMenu</text>
</g>
<!-- Node2 -->
<g id="node2" class="node"><title>Node2</title>
<polygon fill="white" stroke="#bfbfbf" points="54,-621.777 54,-640.777 102,-640.777 102,-621.777 54,-621.777"/>
<text text-anchor="middle" x="78" y="-628.777" font-family="Helvetica,sans-Serif" font-size="10.00">Region</text>
</g>
<!-- Node2&#45;&gt;Node1 -->
<g id="edge1" class="edge"><title>Node2&#45;&gt;Node1</title>
<path fill="none" stroke="midnightblue" d="M105.645,-645.534C152.999,-669.502 255.541,-715.277 348,-715.277 348,-715.277 348,-715.277 1445,-715.277 1526.99,-715.277 1588.26,-406.985 1599.24,-347.975"/>
<polygon fill="midnightblue" stroke="midnightblue" points="107.159,-642.377 96.6656,-640.913 103.956,-648.601 107.159,-642.377"/>
</g>
<!-- Node10 -->
<g id="node10" class="node"><title>Node10</title>
<g id="a_node10"><a xlink:href="../../d5/d8a/classgui_1_1_slogo_tab.html" target="_top" xlink:title="gui.SlogoTab">
<polygon fill="white" stroke="black" points="962.5,-505.777 962.5,-524.777 1039.5,-524.777 1039.5,-505.777 962.5,-505.777"/>
<text text-anchor="middle" x="1001" y="-512.777" font-family="Helvetica,sans-Serif" font-size="10.00">gui.SlogoTab</text>
</a>
</g>
</g>
<!-- Node2&#45;&gt;Node10 -->
<g id="edge11" class="edge"><title>Node2&#45;&gt;Node10</title>
<path fill="none" stroke="midnightblue" d="M112.236,-628.524C146.703,-625.631 202.146,-620.87 250,-616.277 480.411,-594.163 538.208,-590.095 768,-562.277 819.666,-556.023 835.339,-564.734 884,-546.277 892.99,-542.868 893.106,-537.931 902,-534.277 921.077,-526.441 943.594,-521.785 962.231,-519.045"/>
<polygon fill="midnightblue" stroke="midnightblue" points="111.918,-625.038 102.244,-629.36 112.501,-632.014 111.918,-625.038"/>
</g>
<!-- Node12 -->
<g id="node12" class="node"><title>Node12</title>
<g id="a_node12"><a xlink:href="../../d8/d85/classgui_1_1text_areas_1_1_abstract_editable_text_box.html" target="_top" xlink:title="gui.textAreas.AbstractEditable\lTextBox">
<polygon fill="white" stroke="black" points="268,-481.277 268,-511.277 430,-511.277 430,-481.277 268,-481.277"/>
<text text-anchor="start" x="276" y="-499.277" font-family="Helvetica,sans-Serif" font-size="10.00">gui.textAreas.AbstractEditable</text>
<text text-anchor="middle" x="349" y="-488.277" font-family="Helvetica,sans-Serif" font-size="10.00">TextBox</text>
</a>
</g>
</g>
<!-- Node2&#45;&gt;Node12 -->
<g id="edge14" class="edge"><title>Node2&#45;&gt;Node12</title>
<path fill="none" stroke="midnightblue" d="M111.377,-618.923C129.732,-611.941 153.133,-603.075 174,-595.277 207.72,-582.677 222.6,-590.624 250,-567.277 262.42,-556.694 256.127,-546.472 268,-535.277 278.568,-525.313 292.161,-517.409 305.133,-511.394"/>
<polygon fill="midnightblue" stroke="midnightblue" points="110.114,-615.659 102.014,-622.488 112.605,-622.201 110.114,-615.659"/>
</g>
<!-- Node17 -->
<g id="node17" class="node"><title>Node17</title>
<g id="a_node17"><a xlink:href="../../d8/d8d/classgui_1_1_drawing_area.html" target="_top" xlink:title="gui.DrawingArea">
<polygon fill="white" stroke="black" points="301.5,-544.777 301.5,-563.777 396.5,-563.777 396.5,-544.777 301.5,-544.777"/>
<text text-anchor="middle" x="349" y="-551.777" font-family="Helvetica,sans-Serif" font-size="10.00">gui.DrawingArea</text>
</a>
</g>
</g>
<!-- Node2&#45;&gt;Node17 -->
<g id="edge20" class="edge"><title>Node2&#45;&gt;Node17</title>
<path fill="none" stroke="midnightblue" d="M112.307,-625.176C147.046,-618.465 202.9,-606.696 250,-592.277 276.697,-584.105 306.487,-572.128 326.138,-563.813"/>
<polygon fill="midnightblue" stroke="midnightblue" points="111.406,-621.784 102.237,-627.093 112.715,-628.661 111.406,-621.784"/>
</g>
<!-- Node23 -->
<g id="node23" class="node"><title>Node23</title>
<g id="a_node23"><a xlink:href="../../db/d89/classgui_1_1_run_buttons.html" target="_top" xlink:title="gui.RunButtons">
<polygon fill="white" stroke="black" points="304.5,-664.777 304.5,-683.777 393.5,-683.777 393.5,-664.777 304.5,-664.777"/>
<text text-anchor="middle" x="349" y="-671.777" font-family="Helvetica,sans-Serif" font-size="10.00">gui.RunButtons</text>
</a>
</g>
</g>
<!-- Node2&#45;&gt;Node23 -->
<g id="edge31" class="edge"><title>Node2&#45;&gt;Node23</title>
<path fill="none" stroke="midnightblue" d="M112.358,-636.61C160.765,-644.348 250.545,-658.699 304.219,-667.279"/>
<polygon fill="midnightblue" stroke="midnightblue" points="112.829,-633.141 102.401,-635.018 111.724,-640.053 112.829,-633.141"/>
</g>
<!-- Node3 -->
<g id="node3" class="node"><title>Node3</title>
<g id="a_node3"><a xlink:href="../../d5/d23/classgui_1_1_tab_panel.html" target="_top" xlink:title="gui.TabPanel">
<polygon fill="white" stroke="black" points="1406.5,-328.777 1406.5,-347.777 1481.5,-347.777 1481.5,-328.777 1406.5,-328.777"/>
<text text-anchor="middle" x="1444" y="-335.777" font-family="Helvetica,sans-Serif" font-size="10.00">gui.TabPanel</text>
</a>
</g>
</g>
<!-- Node3&#45;&gt;Node1 -->
<g id="edge2" class="edge"><title>Node3&#45;&gt;Node1</title>
<path fill="none" stroke="#9a32cd" stroke-dasharray="5,2" d="M1491.82,-338.277C1514.87,-338.277 1542.26,-338.277 1563.84,-338.277"/>
<polygon fill="#9a32cd" stroke="#9a32cd" points="1491.58,-334.777 1481.58,-338.277 1491.58,-341.777 1491.58,-334.777"/>
<text text-anchor="middle" x="1523" y="-341.277" font-family="Helvetica,sans-Serif" font-size="10.00"> tabPanel</text>
</g>
<!-- Node4 -->
<g id="node4" class="node"><title>Node4</title>
<polygon fill="white" stroke="#bfbfbf" points="1254,-436.777 1254,-455.777 1310,-455.777 1310,-436.777 1254,-436.777"/>
<text text-anchor="middle" x="1282" y="-443.777" font-family="Helvetica,sans-Serif" font-size="10.00">TabPane</text>
</g>
<!-- Node4&#45;&gt;Node3 -->
<g id="edge3" class="edge"><title>Node4&#45;&gt;Node3</title>
<path fill="none" stroke="midnightblue" d="M1319.82,-436.883C1327.38,-434.28 1335.13,-431.095 1342,-427.277 1381.42,-405.36 1418.81,-365.905 1434.82,-347.813"/>
<polygon fill="midnightblue" stroke="midnightblue" points="1318.53,-433.618 1310.06,-439.975 1320.65,-440.291 1318.53,-433.618"/>
</g>
<!-- Node5 -->
<g id="node5" class="node"><title>Node5</title>
<polygon fill="white" stroke="#bfbfbf" points="918,-294.777 918,-313.777 1084,-313.777 1084,-294.777 918,-294.777"/>
<text text-anchor="middle" x="1001" y="-301.777" font-family="Helvetica,sans-Serif" font-size="10.00">HashMap&lt; Tab, gui.SlogoTab &gt;</text>
</g>
<!-- Node5&#45;&gt;Node3 -->
<g id="edge4" class="edge"><title>Node5&#45;&gt;Node3</title>
<path fill="none" stroke="#9a32cd" stroke-dasharray="5,2" d="M1094.14,-310.385C1128.61,-312.743 1168.11,-315.532 1204,-318.277 1275.62,-323.755 1359.24,-330.932 1406.16,-335.03"/>
<polygon fill="#9a32cd" stroke="#9a32cd" points="1094.3,-306.888 1084.09,-309.699 1093.82,-313.872 1094.3,-306.888"/>
<text text-anchor="middle" x="1282" y="-333.277" font-family="Helvetica,sans-Serif" font-size="10.00"> tabSlogoTabMap</text>
</g>
<!-- Node6 -->
<g id="node6" class="node"><title>Node6</title>
<g id="a_node6"><a xlink:href="../../df/dc3/classgui_1_1_main.html" target="_top" xlink:title="gui.Main">
<polygon fill="white" stroke="black" points="1254,-398.777 1254,-417.777 1310,-417.777 1310,-398.777 1254,-398.777"/>
<text text-anchor="middle" x="1282" y="-405.777" font-family="Helvetica,sans-Serif" font-size="10.00">gui.Main</text>
</a>
</g>
</g>
<!-- Node5&#45;&gt;Node6 -->
<g id="edge8" class="edge"><title>Node5&#45;&gt;Node6</title>
<path fill="none" stroke="#9a32cd" stroke-dasharray="5,2" d="M1094.01,-312.603C1129.63,-318.327 1169.95,-327.984 1204,-344.277 1232.54,-357.934 1259.42,-384.52 1272.57,-398.749"/>
<polygon fill="#9a32cd" stroke="#9a32cd" points="1094.5,-309.139 1084.09,-311.091 1093.45,-316.059 1094.5,-309.139"/>
<text text-anchor="middle" x="1161" y="-347.277" font-family="Helvetica,sans-Serif" font-size="10.00"> tabSLogoTabMap</text>
</g>
<!-- Node6&#45;&gt;Node3 -->
<g id="edge5" class="edge"><title>Node6&#45;&gt;Node3</title>
<path fill="none" stroke="#9a32cd" stroke-dasharray="5,2" d="M1314.11,-394.666C1345.58,-380.899 1393.41,-359.973 1421.1,-347.86"/>
<polygon fill="#9a32cd" stroke="#9a32cd" points="1312.67,-391.476 1304.91,-398.691 1315.48,-397.889 1312.67,-391.476"/>
<text text-anchor="middle" x="1374" y="-376.277" font-family="Helvetica,sans-Serif" font-size="10.00"> main</text>
</g>
<!-- Node7 -->
<g id="node7" class="node"><title>Node7</title>
<polygon fill="white" stroke="#bfbfbf" points="966.5,-332.777 966.5,-351.777 1035.5,-351.777 1035.5,-332.777 966.5,-332.777"/>
<text text-anchor="middle" x="1001" y="-339.777" font-family="Helvetica,sans-Serif" font-size="10.00">Application</text>
</g>
<!-- Node7&#45;&gt;Node6 -->
<g id="edge6" class="edge"><title>Node7&#45;&gt;Node6</title>
<path fill="none" stroke="midnightblue" d="M1045.74,-347.146C1087.06,-352.38 1150.51,-362.06 1204,-377.277 1223.68,-382.877 1245.22,-391.802 1260.5,-398.641"/>
<polygon fill="midnightblue" stroke="midnightblue" points="1046.08,-343.662 1035.73,-345.911 1045.22,-350.61 1046.08,-343.662"/>
</g>
<!-- Node8 -->
<g id="node8" class="node"><title>Node8</title>
<polygon fill="white" stroke="#bfbfbf" points="978.5,-581.777 978.5,-600.777 1023.5,-600.777 1023.5,-581.777 978.5,-581.777"/>
<text text-anchor="middle" x="1001" y="-588.777" font-family="Helvetica,sans-Serif" font-size="10.00">Stage</text>
</g>
<!-- Node8&#45;&gt;Node6 -->
<g id="edge7" class="edge"><title>Node8&#45;&gt;Node6</title>
<path fill="none" stroke="#9a32cd" stroke-dasharray="5,2" d="M1033.6,-597.386C1078.24,-604 1159.29,-608.262 1204,-563.277 1246.98,-520.032 1182.94,-474.09 1222,-427.277 1229.86,-417.858 1242.42,-413.06 1253.93,-410.636"/>
<polygon fill="#9a32cd" stroke="#9a32cd" points="1034.04,-593.911 1023.61,-595.774 1032.92,-600.822 1034.04,-593.911"/>
<text text-anchor="middle" x="1161" y="-603.277" font-family="Helvetica,sans-Serif" font-size="10.00"> stage</text>
</g>
<!-- Node9 -->
<g id="node9" class="node"><title>Node9</title>
<polygon fill="white" stroke="#bfbfbf" points="977.5,-543.777 977.5,-562.777 1024.5,-562.777 1024.5,-543.777 977.5,-543.777"/>
<text text-anchor="middle" x="1001" y="-550.777" font-family="Helvetica,sans-Serif" font-size="10.00">Scene</text>
</g>
<!-- Node9&#45;&gt;Node6 -->
<g id="edge9" class="edge"><title>Node9&#45;&gt;Node6</title>
<path fill="none" stroke="#9a32cd" stroke-dasharray="5,2" d="M1034.67,-552.88C1085.56,-551.552 1180.39,-546.005 1204,-523.277 1235.27,-493.169 1193.3,-459.847 1222,-427.277 1230.04,-418.154 1242.48,-413.383 1253.86,-410.899"/>
<polygon fill="#9a32cd" stroke="#9a32cd" points="1034.43,-549.384 1024.51,-553.104 1034.59,-556.383 1034.43,-549.384"/>
<text text-anchor="middle" x="1161" y="-551.277" font-family="Helvetica,sans-Serif" font-size="10.00"> scene</text>
</g>
<!-- Node10&#45;&gt;Node6 -->
<g id="edge10" class="edge"><title>Node10&#45;&gt;Node6</title>
<path fill="none" stroke="#9a32cd" stroke-dasharray="5,2" d="M1049.74,-516.082C1094.53,-514.337 1160.9,-504.993 1204,-468.277 1219.15,-455.372 1207.23,-440.613 1222,-427.277 1230.79,-419.345 1242.92,-414.722 1253.89,-412.028"/>
<polygon fill="#9a32cd" stroke="#9a32cd" points="1049.59,-512.585 1039.69,-516.361 1049.78,-519.582 1049.59,-512.585"/>
<text text-anchor="middle" x="1161" y="-511.277" font-family="Helvetica,sans-Serif" font-size="10.00"> activeTab</text>
</g>
<!-- Node11 -->
<g id="node11" class="node"><title>Node11</title>
<g id="a_node11"><a xlink:href="../../d3/d45/classgui_1_1text_areas_1_1_user_variables_box.html" target="_top" xlink:title="gui.textAreas.UserVariablesBox">
<polygon fill="white" stroke="black" points="585.5,-405.777 585.5,-424.777 752.5,-424.777 752.5,-405.777 585.5,-405.777"/>
<text text-anchor="middle" x="669" y="-412.777" font-family="Helvetica,sans-Serif" font-size="10.00">gui.textAreas.UserVariablesBox</text>
</a>
</g>
</g>
<!-- Node11&#45;&gt;Node10 -->
<g id="edge12" class="edge"><title>Node11&#45;&gt;Node10</title>
<path fill="none" stroke="#9a32cd" stroke-dasharray="5,2" d="M738.279,-426.645C791.661,-436.537 860.615,-451.836 884,-468.277 895.798,-476.572 890.033,-487.229 902,-495.277 919.723,-507.197 943.039,-512.279 962.481,-514.343"/>
<polygon fill="#9a32cd" stroke="#9a32cd" points="738.633,-423.152 728.168,-424.801 737.377,-430.038 738.633,-423.152"/>
<text text-anchor="middle" x="835" y="-471.277" font-family="Helvetica,sans-Serif" font-size="10.00"> userVariablesBox</text>
</g>
<!-- Node12&#45;&gt;Node11 -->
<g id="edge13" class="edge"><title>Node12&#45;&gt;Node11</title>
<path fill="none" stroke="midnightblue" d="M440.653,-482.366C475.765,-476.046 516.08,-467.638 552,-457.277 560.247,-454.899 561.957,-453.277 570,-450.277 593.699,-441.439 620.786,-431.8 640.468,-424.88"/>
<polygon fill="midnightblue" stroke="midnightblue" points="439.654,-478.988 430.417,-484.176 440.874,-485.881 439.654,-478.988"/>
</g>
<!-- Node20 -->
<g id="node20" class="node"><title>Node20</title>
<g id="a_node20"><a xlink:href="../../de/da4/classgui_1_1text_areas_1_1_previous_commands_box.html" target="_top" xlink:title="gui.textAreas.PreviousCommandsBox">
<polygon fill="white" stroke="black" points="570.5,-459.777 570.5,-478.777 767.5,-478.777 767.5,-459.777 570.5,-459.777"/>
<text text-anchor="middle" x="669" y="-466.777" font-family="Helvetica,sans-Serif" font-size="10.00">gui.textAreas.PreviousCommandsBox</text>
</a>
</g>
</g>
<!-- Node12&#45;&gt;Node20 -->
<g id="edge24" class="edge"><title>Node12&#45;&gt;Node20</title>
<path fill="none" stroke="midnightblue" d="M440.351,-490.837C475.26,-488.519 515.515,-485.585 552,-482.277 563.302,-481.253 575.21,-480.055 586.919,-478.807"/>
<polygon fill="midnightblue" stroke="midnightblue" points="439.927,-487.357 430.178,-491.505 440.386,-494.342 439.927,-487.357"/>
</g>
<!-- Node21 -->
<g id="node21" class="node"><title>Node21</title>
<g id="a_node21"><a xlink:href="../../db/d0f/classgui_1_1text_areas_1_1_status_box.html" target="_top" xlink:title="gui.textAreas.StatusBox">
<polygon fill="white" stroke="black" points="602.5,-497.777 602.5,-516.777 735.5,-516.777 735.5,-497.777 602.5,-497.777"/>
<text text-anchor="middle" x="669" y="-504.777" font-family="Helvetica,sans-Serif" font-size="10.00">gui.textAreas.StatusBox</text>
</a>
</g>
</g>
<!-- Node12&#45;&gt;Node21 -->
<g id="edge27" class="edge"><title>Node12&#45;&gt;Node21</title>
<path fill="none" stroke="midnightblue" d="M440.278,-506.792C442.879,-506.972 445.457,-507.135 448,-507.277 499.863,-510.179 558.712,-509.998 602.486,-509.19"/>
<polygon fill="midnightblue" stroke="midnightblue" points="440.4,-503.291 430.161,-506.013 439.863,-510.27 440.4,-503.291"/>
</g>
<!-- Node22 -->
<g id="node22" class="node"><title>Node22</title>
<g id="a_node22"><a xlink:href="../../db/dbc/classgui_1_1text_areas_1_1_command_box.html" target="_top" xlink:title="gui.textAreas.CommandBox">
<polygon fill="white" stroke="black" points="593,-620.777 593,-639.777 745,-639.777 745,-620.777 593,-620.777"/>
<text text-anchor="middle" x="669" y="-627.777" font-family="Helvetica,sans-Serif" font-size="10.00">gui.textAreas.CommandBox</text>
</a>
</g>
</g>
<!-- Node12&#45;&gt;Node22 -->
<g id="edge29" class="edge"><title>Node12&#45;&gt;Node22</title>
<path fill="none" stroke="midnightblue" d="M395.175,-515.313C464.105,-544.36 593.03,-598.686 645.208,-620.673"/>
<polygon fill="midnightblue" stroke="midnightblue" points="396.435,-512.046 385.86,-511.388 393.717,-518.497 396.435,-512.046"/>
</g>
<!-- Node13 -->
<g id="node13" class="node"><title>Node13</title>
<polygon fill="white" stroke="#bfbfbf" points="57,-431.777 57,-450.777 99,-450.777 99,-431.777 57,-431.777"/>
<text text-anchor="middle" x="78" y="-438.777" font-family="Helvetica,sans-Serif" font-size="10.00">Label</text>
</g>
<!-- Node13&#45;&gt;Node12 -->
<g id="edge15" class="edge"><title>Node13&#45;&gt;Node12</title>
<path fill="none" stroke="#9a32cd" stroke-dasharray="5,2" d="M109.437,-445.263C143.778,-449.99 201.209,-458.593 250,-469.277 265.515,-472.675 282.234,-477.021 297.392,-481.228"/>
<polygon fill="#9a32cd" stroke="#9a32cd" points="109.519,-441.742 99.1392,-443.866 108.578,-448.678 109.519,-441.742"/>
<text text-anchor="middle" x="212" y="-472.277" font-family="Helvetica,sans-Serif" font-size="10.00"> label</text>
</g>
<!-- Node14 -->
<g id="node14" class="node"><title>Node14</title>
<polygon fill="white" stroke="#bfbfbf" points="49,-469.777 49,-488.777 107,-488.777 107,-469.777 49,-469.777"/>
<text text-anchor="middle" x="78" y="-476.777" font-family="Helvetica,sans-Serif" font-size="10.00">TextArea</text>
</g>
<!-- Node14&#45;&gt;Node12 -->
<g id="edge16" class="edge"><title>Node14&#45;&gt;Node12</title>
<path fill="none" stroke="#9a32cd" stroke-dasharray="5,2" d="M117.317,-480.977C151.985,-482.591 204.437,-485.219 250,-488.277 255.791,-488.666 261.772,-489.093 267.791,-489.54"/>
<polygon fill="#9a32cd" stroke="#9a32cd" points="117.306,-477.473 107.156,-480.51 116.984,-484.466 117.306,-477.473"/>
<text text-anchor="middle" x="212" y="-491.277" font-family="Helvetica,sans-Serif" font-size="10.00"> textArea</text>
</g>
<!-- Node15 -->
<g id="node15" class="node"><title>Node15</title>
<polygon fill="white" stroke="#bfbfbf" points="328.5,-415.777 328.5,-434.777 369.5,-434.777 369.5,-415.777 328.5,-415.777"/>
<text text-anchor="middle" x="349" y="-422.777" font-family="Helvetica,sans-Serif" font-size="10.00">VBox</text>
</g>
<!-- Node15&#45;&gt;Node11 -->
<g id="edge17" class="edge"><title>Node15&#45;&gt;Node11</title>
<path fill="none" stroke="#9a32cd" stroke-dasharray="5,2" d="M379.345,-416.132C398.639,-410.608 424.562,-404.106 448,-401.277 502.524,-394.698 565.049,-399.894 609.472,-405.731"/>
<polygon fill="#9a32cd" stroke="#9a32cd" points="378.243,-412.808 369.638,-418.989 380.219,-419.523 378.243,-412.808"/>
<text text-anchor="middle" x="500" y="-415.277" font-family="Helvetica,sans-Serif" font-size="10.00"> myLabels</text>
<text text-anchor="middle" x="500" y="-404.277" font-family="Helvetica,sans-Serif" font-size="10.00">myFields</text>
</g>
<!-- Node15&#45;&gt;Node20 -->
<g id="edge25" class="edge"><title>Node15&#45;&gt;Node20</title>
<path fill="none" stroke="#9a32cd" stroke-dasharray="5,2" d="M380.003,-429.429C429.848,-436.326 530.969,-450.317 599.117,-459.746"/>
<polygon fill="#9a32cd" stroke="#9a32cd" points="380.278,-425.933 369.892,-428.03 379.318,-432.867 380.278,-425.933"/>
<text text-anchor="middle" x="500" y="-456.277" font-family="Helvetica,sans-Serif" font-size="10.00"> col</text>
</g>
<!-- Node16 -->
<g id="node16" class="node"><title>Node16</title>
<polygon fill="white" stroke="#bfbfbf" points="328,-356.777 328,-375.777 370,-375.777 370,-356.777 328,-356.777"/>
<text text-anchor="middle" x="349" y="-363.777" font-family="Helvetica,sans-Serif" font-size="10.00">HBox</text>
</g>
<!-- Node16&#45;&gt;Node11 -->
<g id="edge18" class="edge"><title>Node16&#45;&gt;Node11</title>
<path fill="none" stroke="#9a32cd" stroke-dasharray="5,2" d="M380.314,-367.081C420.026,-368.531 491.701,-372.519 552,-383.277 582.233,-388.671 615.993,-398.422 639.262,-405.747"/>
<polygon fill="#9a32cd" stroke="#9a32cd" points="380.342,-363.58 370.23,-366.743 380.107,-370.576 380.342,-363.58"/>
<text text-anchor="middle" x="500" y="-386.277" font-family="Helvetica,sans-Serif" font-size="10.00"> myData</text>
</g>
<!-- Node17&#45;&gt;Node10 -->
<g id="edge19" class="edge"><title>Node17&#45;&gt;Node10</title>
<path fill="none" stroke="#9a32cd" stroke-dasharray="5,2" d="M407.101,-552.677C504.877,-549.673 710.598,-542.201 884,-528.277 910.26,-526.169 939.763,-522.849 962.444,-520.093"/>
<polygon fill="#9a32cd" stroke="#9a32cd" points="406.739,-549.186 396.85,-552.988 406.952,-556.183 406.739,-549.186"/>
<text text-anchor="middle" x="669" y="-550.277" font-family="Helvetica,sans-Serif" font-size="10.00"> turtlePanel</text>
</g>
<!-- Node18 -->
<g id="node18" class="node"><title>Node18</title>
<polygon fill="white" stroke="#bfbfbf" points="5.5,-508.277 5.5,-538.277 150.5,-538.277 150.5,-508.277 5.5,-508.277"/>
<text text-anchor="start" x="13.5" y="-526.277" font-family="Helvetica,sans-Serif" font-size="10.00">HashMap&lt; backend.Turtle,</text>
<text text-anchor="middle" x="78" y="-515.277" font-family="Helvetica,sans-Serif" font-size="10.00"> gui.TurtleImage &gt;</text>
</g>
<!-- Node18&#45;&gt;Node17 -->
<g id="edge21" class="edge"><title>Node18&#45;&gt;Node17</title>
<path fill="none" stroke="#9a32cd" stroke-dasharray="5,2" d="M160.713,-532.694C206.817,-538.007 262.757,-544.454 301.431,-548.911"/>
<polygon fill="#9a32cd" stroke="#9a32cd" points="161.069,-529.212 150.734,-531.544 160.267,-536.166 161.069,-529.212"/>
<text text-anchor="middle" x="212" y="-546.277" font-family="Helvetica,sans-Serif" font-size="10.00"> turtleMap</text>
</g>
<!-- Node19 -->
<g id="node19" class="node"><title>Node19</title>
<polygon fill="white" stroke="#bfbfbf" points="52,-557.777 52,-576.777 104,-576.777 104,-557.777 52,-557.777"/>
<text text-anchor="middle" x="78" y="-564.777" font-family="Helvetica,sans-Serif" font-size="10.00">Canvas</text>
</g>
<!-- Node19&#45;&gt;Node17 -->
<g id="edge22" class="edge"><title>Node19&#45;&gt;Node17</title>
<path fill="none" stroke="#9a32cd" stroke-dasharray="5,2" d="M114.502,-565.562C162.408,-563.246 247.861,-559.117 301.038,-556.547"/>
<polygon fill="#9a32cd" stroke="#9a32cd" points="114.126,-562.076 104.307,-566.054 114.464,-569.067 114.126,-562.076"/>
<text text-anchor="middle" x="212" y="-566.277" font-family="Helvetica,sans-Serif" font-size="10.00"> drawingCanvas</text>
</g>
<!-- Node20&#45;&gt;Node10 -->
<g id="edge23" class="edge"><title>Node20&#45;&gt;Node10</title>
<path fill="none" stroke="#9a32cd" stroke-dasharray="5,2" d="M766.771,-479.999C803.532,-484.343 845.753,-489.66 884,-495.277 910.285,-499.138 939.788,-504.235 962.462,-508.317"/>
<polygon fill="#9a32cd" stroke="#9a32cd" points="766.894,-476.489 756.554,-478.8 766.078,-483.442 766.894,-476.489"/>
<text text-anchor="middle" x="835" y="-498.277" font-family="Helvetica,sans-Serif" font-size="10.00"> prevCommandsBox</text>
</g>
<!-- Node21&#45;&gt;Node10 -->
<g id="edge26" class="edge"><title>Node21&#45;&gt;Node10</title>
<path fill="none" stroke="#9a32cd" stroke-dasharray="5,2" d="M745.778,-509.114C813.451,-510.755 909.759,-513.09 962.277,-514.363"/>
<polygon fill="#9a32cd" stroke="#9a32cd" points="745.674,-505.611 735.592,-508.867 745.504,-512.609 745.674,-505.611"/>
<text text-anchor="middle" x="835" y="-516.277" font-family="Helvetica,sans-Serif" font-size="10.00"> statusBox</text>
</g>
<!-- Node22&#45;&gt;Node10 -->
<g id="edge28" class="edge"><title>Node22&#45;&gt;Node10</title>
<path fill="none" stroke="#9a32cd" stroke-dasharray="5,2" d="M732.924,-640.797C780.078,-644.925 843.237,-641.939 884,-606.277 908.825,-584.559 878.061,-556.969 902,-534.277 917.848,-519.255 941.836,-514.417 962.112,-513.378"/>
<polygon fill="#9a32cd" stroke="#9a32cd" points="733.118,-637.299 722.818,-639.783 732.419,-644.264 733.118,-637.299"/>
<text text-anchor="middle" x="835" y="-644.277" font-family="Helvetica,sans-Serif" font-size="10.00"> commandBox</text>
</g>
<!-- Node23&#45;&gt;Node10 -->
<g id="edge33" class="edge"><title>Node23&#45;&gt;Node10</title>
<path fill="none" stroke="#9a32cd" stroke-dasharray="5,2" d="M403.743,-676.284C532.162,-680.546 848.804,-687.712 884,-656.277 924.879,-619.767 864.126,-573.896 902,-534.277 917.329,-518.242 941.829,-513.492 962.497,-512.751"/>
<polygon fill="#9a32cd" stroke="#9a32cd" points="403.846,-672.785 393.734,-675.945 403.609,-679.781 403.846,-672.785"/>
<text text-anchor="middle" x="669" y="-683.277" font-family="Helvetica,sans-Serif" font-size="10.00"> runButtons</text>
</g>
<!-- Node23&#45;&gt;Node22 -->
<g id="edge30" class="edge"><title>Node23&#45;&gt;Node22</title>
<path fill="none" stroke="#9a32cd" stroke-dasharray="5,2" d="M395.511,-662.245C411.953,-658.257 430.72,-654.116 448,-651.277 495.893,-643.409 550.173,-638.189 592.833,-634.921"/>
<polygon fill="#9a32cd" stroke="#9a32cd" points="394.474,-658.896 385.607,-664.695 396.155,-665.691 394.474,-658.896"/>
<text text-anchor="middle" x="500" y="-654.277" font-family="Helvetica,sans-Serif" font-size="10.00"> runButtons</text>
</g>
<!-- Node24 -->
<g id="node24" class="node"><title>Node24</title>
<polygon fill="white" stroke="#bfbfbf" points="53.5,-738.777 53.5,-757.777 102.5,-757.777 102.5,-738.777 53.5,-738.777"/>
<text text-anchor="middle" x="78" y="-745.777" font-family="Helvetica,sans-Serif" font-size="10.00">Button</text>
</g>
<!-- Node24&#45;&gt;Node23 -->
<g id="edge32" class="edge"><title>Node24&#45;&gt;Node23</title>
<path fill="none" stroke="#9a32cd" stroke-dasharray="5,2" d="M112.809,-738.977C164.19,-724.842 261.428,-698.093 313.321,-683.817"/>
<polygon fill="#9a32cd" stroke="#9a32cd" points="111.585,-735.683 102.872,-741.71 113.442,-742.433 111.585,-735.683"/>
<text text-anchor="middle" x="212" y="-734.277" font-family="Helvetica,sans-Serif" font-size="10.00"> runButton</text>
<text text-anchor="middle" x="212" y="-723.277" font-family="Helvetica,sans-Serif" font-size="10.00">stepButton</text>
</g>
<!-- Node25 -->
<g id="node25" class="node"><title>Node25</title>
<g id="a_node25"><a xlink:href="../../d3/dac/classbackend_1_1_model.html" target="_top" xlink:title="backend.Model">
<polygon fill="white" stroke="black" points="624.5,-170.777 624.5,-189.777 713.5,-189.777 713.5,-170.777 624.5,-170.777"/>
<text text-anchor="middle" x="669" y="-177.777" font-family="Helvetica,sans-Serif" font-size="10.00">backend.Model</text>
</a>
</g>
</g>
<!-- Node25&#45;&gt;Node1 -->
<g id="edge57" class="edge"><title>Node25&#45;&gt;Node1</title>
<path fill="none" stroke="#9a32cd" stroke-dasharray="5,2" d="M723.603,-190.542C788.704,-202.097 901.978,-219.277 1000,-219.277 1000,-219.277 1000,-219.277 1445,-219.277 1516.87,-219.277 1576.24,-300.118 1594.9,-328.539"/>
<polygon fill="#9a32cd" stroke="#9a32cd" points="724.04,-187.065 713.578,-188.74 722.801,-193.954 724.04,-187.065"/>
<text text-anchor="middle" x="1282" y="-222.277" font-family="Helvetica,sans-Serif" font-size="10.00"> myModel</text>
</g>
<!-- Node25&#45;&gt;Node3 -->
<g id="edge56" class="edge"><title>Node25&#45;&gt;Node3</title>
<path fill="none" stroke="#9a32cd" stroke-dasharray="5,2" d="M696.188,-194.823C719.177,-206.955 753.868,-223.745 786,-233.277 905.766,-268.806 1219.12,-293.749 1342,-316.277 1363.36,-320.193 1387.09,-325.322 1406.18,-329.643"/>
<polygon fill="#9a32cd" stroke="#9a32cd" points="697.56,-191.587 687.093,-189.943 694.25,-197.755 697.56,-191.587"/>
<text text-anchor="middle" x="1161" y="-299.277" font-family="Helvetica,sans-Serif" font-size="10.00"> myModel</text>
</g>
<!-- Node25&#45;&gt;Node6 -->
<g id="edge54" class="edge"><title>Node25&#45;&gt;Node6</title>
<path fill="none" stroke="#9a32cd" stroke-dasharray="5,2" d="M685.417,-197.494C719.962,-234.781 807.954,-322.739 902,-361.277 966.112,-387.549 1178.15,-402.251 1253.85,-406.763"/>
<polygon fill="#9a32cd" stroke="#9a32cd" points="687.847,-194.966 678.516,-189.947 682.681,-199.689 687.847,-194.966"/>
<text text-anchor="middle" x="1001" y="-398.277" font-family="Helvetica,sans-Serif" font-size="10.00"> myModel</text>
</g>
<!-- Node25&#45;&gt;Node10 -->
<g id="edge34" class="edge"><title>Node25&#45;&gt;Node10</title>
<path fill="none" stroke="#9a32cd" stroke-dasharray="5,2" d="M674.542,-199.782C685.626,-242.863 718.251,-346.487 786,-399.277 821.372,-426.839 852.215,-391.645 884,-423.277 907.38,-446.545 878.173,-472.468 902,-495.277 917.805,-510.407 941.792,-515.488 962.079,-516.748"/>
<polygon fill="#9a32cd" stroke="#9a32cd" points="677.919,-198.854 672.129,-189.981 671.122,-200.528 677.919,-198.854"/>
<text text-anchor="middle" x="835" y="-426.277" font-family="Helvetica,sans-Serif" font-size="10.00"> myModel</text>
</g>
<!-- Node31 -->
<g id="node31" class="node"><title>Node31</title>
<g id="a_node31"><a xlink:href="../../d3/dd9/classbackend_1_1command_1_1_command_factory.html" target="_top" xlink:title="backend.command.CommandFactory">
<polygon fill="white" stroke="black" points="902.5,-74.7774 902.5,-93.7774 1099.5,-93.7774 1099.5,-74.7774 902.5,-74.7774"/>
<text text-anchor="middle" x="1001" y="-81.7774" font-family="Helvetica,sans-Serif" font-size="10.00">backend.command.CommandFactory</text>
</a>
</g>
</g>
<!-- Node25&#45;&gt;Node31 -->
<g id="edge41" class="edge"><title>Node25&#45;&gt;Node31</title>
<path fill="none" stroke="#9a32cd" stroke-dasharray="5,2" d="M707.006,-167.347C762.434,-148.091 864.51,-113.089 902,-103.277 915.58,-99.7231 930.378,-96.5158 944.263,-93.7919"/>
<polygon fill="#9a32cd" stroke="#9a32cd" points="705.52,-164.158 697.225,-170.75 707.82,-170.77 705.52,-164.158"/>
<text text-anchor="middle" x="835" y="-142.277" font-family="Helvetica,sans-Serif" font-size="10.00"> model</text>
</g>
<!-- Node26 -->
<g id="node26" class="node"><title>Node26</title>
<polygon fill="white" stroke="#bfbfbf" points="273.5,-121.277 273.5,-151.277 424.5,-151.277 424.5,-121.277 273.5,-121.277"/>
<text text-anchor="start" x="281.5" y="-139.277" font-family="Helvetica,sans-Serif" font-size="10.00">HashMap&lt; String, backend.</text>
<text text-anchor="middle" x="349" y="-128.277" font-family="Helvetica,sans-Serif" font-size="10.00">Variable &gt;</text>
</g>
<!-- Node26&#45;&gt;Node25 -->
<g id="edge35" class="edge"><title>Node26&#45;&gt;Node25</title>
<path fill="none" stroke="#9a32cd" stroke-dasharray="5,2" d="M434.566,-147.978C495.602,-156.424 575.537,-167.484 624.26,-174.225"/>
<polygon fill="#9a32cd" stroke="#9a32cd" points="434.942,-144.497 424.557,-146.593 433.983,-151.431 434.942,-144.497"/>
<text text-anchor="middle" x="500" y="-167.277" font-family="Helvetica,sans-Serif" font-size="10.00"> userVariables</text>
</g>
<!-- Node27 -->
<g id="node27" class="node"><title>Node27</title>
<polygon fill="white" stroke="#bfbfbf" points="291,-82.7774 291,-101.777 407,-101.777 407,-82.7774 291,-82.7774"/>
<text text-anchor="middle" x="349" y="-89.7774" font-family="Helvetica,sans-Serif" font-size="10.00">Stack&lt; Command &gt;</text>
</g>
<!-- Node27&#45;&gt;Node25 -->
<g id="edge36" class="edge"><title>Node27&#45;&gt;Node25</title>
<path fill="none" stroke="#9a32cd" stroke-dasharray="5,2" d="M414.036,-103.708C454.066,-111.471 506.482,-122.768 552,-136.277 585.245,-146.144 622.554,-161.003 645.667,-170.673"/>
<polygon fill="#9a32cd" stroke="#9a32cd" points="414.618,-100.255 404.138,-101.811 413.3,-107.13 414.618,-100.255"/>
<text text-anchor="middle" x="500" y="-139.277" font-family="Helvetica,sans-Serif" font-size="10.00"> executedCommands</text>
</g>
<!-- Node28 -->
<g id="node28" class="node"><title>Node28</title>
<polygon fill="white" stroke="#bfbfbf" points="273.5,-33.2774 273.5,-63.2774 424.5,-63.2774 424.5,-33.2774 273.5,-33.2774"/>
<text text-anchor="start" x="281.5" y="-51.2774" font-family="Helvetica,sans-Serif" font-size="10.00">HashMap&lt; String, backend.</text>
<text text-anchor="middle" x="349" y="-40.2774" font-family="Helvetica,sans-Serif" font-size="10.00">UserInstructionContainer &gt;</text>
</g>
<!-- Node28&#45;&gt;Node25 -->
<g id="edge37" class="edge"><title>Node28&#45;&gt;Node25</title>
<path fill="none" stroke="#9a32cd" stroke-dasharray="5,2" d="M435.034,-60.7836C472.074,-68.1612 515.313,-79.451 552,-96.2774 595.168,-116.076 638.493,-153.09 657.711,-170.61"/>
<polygon fill="#9a32cd" stroke="#9a32cd" points="435.243,-57.2596 424.761,-58.8051 433.919,-64.1333 435.243,-57.2596"/>
<text text-anchor="middle" x="500" y="-99.2774" font-family="Helvetica,sans-Serif" font-size="10.00"> userInstructions</text>
</g>
<!-- Node29 -->
<g id="node29" class="node"><title>Node29</title>
<g id="a_node29"><a xlink:href="../../da/d26/classbackend_1_1_s_logo_parser.html" target="_top" xlink:title="backend.SLogoParser">
<polygon fill="white" stroke="black" points="1222,-118.777 1222,-137.777 1342,-137.777 1342,-118.777 1222,-118.777"/>
<text text-anchor="middle" x="1282" y="-125.777" font-family="Helvetica,sans-Serif" font-size="10.00">backend.SLogoParser</text>
</a>
</g>
</g>
<!-- Node29&#45;&gt;Node25 -->
<g id="edge38" class="edge"><title>Node29&#45;&gt;Node25</title>
<path fill="none" stroke="#9a32cd" stroke-dasharray="5,2" d="M1226.28,-139.677C1218.81,-141.015 1211.23,-142.263 1204,-143.277 1158.05,-149.722 1146.26,-148.77 1100,-152.277 958.826,-162.981 791.384,-173.161 713.664,-177.742"/>
<polygon fill="#9a32cd" stroke="#9a32cd" points="1227.15,-143.074 1236.35,-137.808 1225.88,-136.192 1227.15,-143.074"/>
<text text-anchor="middle" x="1001" y="-169.277" font-family="Helvetica,sans-Serif" font-size="10.00"> parser</text>
</g>
<!-- Node30 -->
<g id="node30" class="node"><title>Node30</title>
<polygon fill="white" stroke="#bfbfbf" points="945,-113.277 945,-143.277 1057,-143.277 1057,-113.277 945,-113.277"/>
<text text-anchor="start" x="953" y="-131.277" font-family="Helvetica,sans-Serif" font-size="10.00">List&lt; Entry&lt; String,</text>
<text text-anchor="middle" x="1001" y="-120.277" font-family="Helvetica,sans-Serif" font-size="10.00"> Pattern &gt; &gt;</text>
</g>
<!-- Node30&#45;&gt;Node29 -->
<g id="edge39" class="edge"><title>Node30&#45;&gt;Node29</title>
<path fill="none" stroke="#9a32cd" stroke-dasharray="5,2" d="M1067.14,-128.277C1113.86,-128.277 1176.31,-128.277 1221.65,-128.277"/>
<polygon fill="#9a32cd" stroke="#9a32cd" points="1067.12,-124.777 1057.12,-128.277 1067.12,-131.777 1067.12,-124.777"/>
<text text-anchor="middle" x="1161" y="-131.277" font-family="Helvetica,sans-Serif" font-size="10.00"> patterns</text>
</g>
<!-- Node31&#45;&gt;Node25 -->
<g id="edge50" class="edge"><title>Node31&#45;&gt;Node25</title>
<path fill="none" stroke="#9a32cd" stroke-dasharray="5,2" d="M892.153,-77.0913C857.424,-77.9712 819.322,-82.4026 786,-94.2774 739.95,-110.688 696.75,-151.996 678.776,-170.751"/>
<polygon fill="#9a32cd" stroke="#9a32cd" points="892.388,-80.5881 902.331,-76.9308 892.277,-73.589 892.388,-80.5881"/>
<text text-anchor="middle" x="835" y="-97.2774" font-family="Helvetica,sans-Serif" font-size="10.00"> comFactory</text>
</g>
<!-- Node31&#45;&gt;Node29 -->
<g id="edge40" class="edge"><title>Node31&#45;&gt;Node29</title>
<path fill="none" stroke="#9a32cd" stroke-dasharray="5,2" d="M1084.73,-95.2064C1121.34,-100.288 1164.88,-106.664 1204,-113.277 1213.67,-114.912 1223.99,-116.814 1233.83,-118.703"/>
<polygon fill="#9a32cd" stroke="#9a32cd" points="1084.98,-91.7079 1074.59,-93.8085 1084.02,-98.6423 1084.98,-91.7079"/>
<text text-anchor="middle" x="1161" y="-116.277" font-family="Helvetica,sans-Serif" font-size="10.00"> comFactory</text>
</g>
<!-- Node32 -->
<g id="node32" class="node"><title>Node32</title>
<g id="a_node32"><a xlink:href="../../d1/d68/classbackend_1_1_grid.html" target="_top" xlink:title="backend.Grid">
<polygon fill="white" stroke="black" points="309,-282.777 309,-301.777 389,-301.777 389,-282.777 309,-282.777"/>
<text text-anchor="middle" x="349" y="-289.777" font-family="Helvetica,sans-Serif" font-size="10.00">backend.Grid</text>
</a>
</g>
</g>
<!-- Node32&#45;&gt;Node25 -->
<g id="edge42" class="edge"><title>Node32&#45;&gt;Node25</title>
<path fill="none" stroke="#9a32cd" stroke-dasharray="5,2" d="M399.014,-282.899C440.525,-274.196 501.211,-259.665 552,-240.277 589.493,-225.965 630.593,-202.762 652.389,-189.804"/>
<polygon fill="#9a32cd" stroke="#9a32cd" points="398.241,-279.485 389.154,-284.933 399.655,-286.341 398.241,-279.485"/>
<text text-anchor="middle" x="500" y="-275.277" font-family="Helvetica,sans-Serif" font-size="10.00"> grid</text>
</g>
<!-- Node33 -->
<g id="node33" class="node"><title>Node33</title>
<polygon fill="white" stroke="#bfbfbf" points="57.5,-267.777 57.5,-286.777 98.5,-286.777 98.5,-267.777 57.5,-267.777"/>
<text text-anchor="middle" x="78" y="-274.777" font-family="Helvetica,sans-Serif" font-size="10.00">Color</text>
</g>
<!-- Node33&#45;&gt;Node32 -->
<g id="edge43" class="edge"><title>Node33&#45;&gt;Node32</title>
<path fill="none" stroke="#9a32cd" stroke-dasharray="5,2" d="M108.994,-278.95C157.797,-281.671 254.38,-287.057 308.638,-290.082"/>
<polygon fill="#9a32cd" stroke="#9a32cd" points="108.96,-275.443 98.7802,-278.38 108.57,-282.432 108.96,-275.443"/>
<text text-anchor="middle" x="212" y="-290.277" font-family="Helvetica,sans-Serif" font-size="10.00"> bgColor</text>
</g>
<!-- Node34 -->
<g id="node34" class="node"><title>Node34</title>
<g id="a_node34"><a xlink:href="../../df/d77/classbackend_1_1_bi_index.html" target="_top" xlink:title="backend.BiIndex\&lt; String \&gt;">
<polygon fill="white" stroke="black" points="5,-224.777 5,-243.777 151,-243.777 151,-224.777 5,-224.777"/>
<text text-anchor="middle" x="78" y="-231.777" font-family="Helvetica,sans-Serif" font-size="10.00">backend.BiIndex&lt; String &gt;</text>
</a>
</g>
</g>
<!-- Node34&#45;&gt;Node25 -->
<g id="edge49" class="edge"><title>Node34&#45;&gt;Node25</title>
<path fill="none" stroke="#9a32cd" stroke-dasharray="5,2" d="M161.279,-228.654C255.725,-221.931 415.229,-209.751 552,-195.277 575.93,-192.745 602.561,-189.343 624.265,-186.419"/>
<polygon fill="#9a32cd" stroke="#9a32cd" points="160.946,-225.169 151.219,-229.368 161.441,-232.152 160.946,-225.169"/>
<text text-anchor="middle" x="349" y="-224.277" font-family="Helvetica,sans-Serif" font-size="10.00"> imageMap</text>
</g>
<!-- Node34&#45;&gt;Node32 -->
<g id="edge44" class="edge"><title>Node34&#45;&gt;Node32</title>
<path fill="none" stroke="#9a32cd" stroke-dasharray="5,2" d="M139.876,-245.708C172.591,-252.02 213.579,-260.201 250,-268.277 270.179,-272.752 292.577,-278.201 310.861,-282.775"/>
<polygon fill="#9a32cd" stroke="#9a32cd" points="140.484,-242.261 130.003,-243.811 139.163,-249.135 140.484,-242.261"/>
<text text-anchor="middle" x="212" y="-271.277" font-family="Helvetica,sans-Serif" font-size="10.00"> imageMap</text>
</g>
<!-- Node35 -->
<g id="node35" class="node"><title>Node35</title>
<polygon fill="white" stroke="#bfbfbf" points="3,-393.777 3,-412.777 153,-412.777 153,-393.777 3,-393.777"/>
<text text-anchor="middle" x="78" y="-400.777" font-family="Helvetica,sans-Serif" font-size="10.00">ArrayList&lt; backend.Turtle &gt;</text>
</g>
<!-- Node35&#45;&gt;Node32 -->
<g id="edge45" class="edge"><title>Node35&#45;&gt;Node32</title>
<path fill="none" stroke="#9a32cd" stroke-dasharray="5,2" d="M127.773,-391.305C137.145,-388.987 146.879,-386.567 156,-384.277 197.82,-373.779 210.947,-378.554 250,-360.277 258.938,-356.094 259.934,-352.962 268,-347.277 290.87,-331.16 317.718,-312.819 333.769,-301.915"/>
<polygon fill="#9a32cd" stroke="#9a32cd" points="126.661,-387.975 117.792,-393.77 128.34,-394.771 126.661,-387.975"/>
<text text-anchor="middle" x="212" y="-383.277" font-family="Helvetica,sans-Serif" font-size="10.00"> activeTurtles</text>
</g>
<!-- Node36 -->
<g id="node36" class="node"><title>Node36</title>
<polygon fill="white" stroke="#bfbfbf" points="44,-355.777 44,-374.777 112,-374.777 112,-355.777 44,-355.777"/>
<text text-anchor="middle" x="78" y="-362.777" font-family="Helvetica,sans-Serif" font-size="10.00">Dimension</text>
</g>
<!-- Node36&#45;&gt;Node32 -->
<g id="edge46" class="edge"><title>Node36&#45;&gt;Node32</title>
<path fill="none" stroke="#9a32cd" stroke-dasharray="5,2" d="M121.843,-356.438C156.606,-348.984 206.763,-337.584 250,-325.277 274.692,-318.249 302.377,-308.776 322.006,-301.782"/>
<polygon fill="#9a32cd" stroke="#9a32cd" points="121.073,-353.024 112.02,-358.528 122.529,-359.871 121.073,-353.024"/>
<text text-anchor="middle" x="212" y="-348.277" font-family="Helvetica,sans-Serif" font-size="10.00"> size</text>
</g>
<!-- Node37 -->
<g id="node37" class="node"><title>Node37</title>
<polygon fill="white" stroke="#bfbfbf" points="0,-306.277 0,-336.277 156,-336.277 156,-306.277 0,-306.277"/>
<text text-anchor="start" x="8" y="-324.277" font-family="Helvetica,sans-Serif" font-size="10.00">HashMap&lt; Integer, backend.</text>
<text text-anchor="middle" x="78" y="-313.277" font-family="Helvetica,sans-Serif" font-size="10.00">Turtle &gt;</text>
</g>
<!-- Node37&#45;&gt;Node32 -->
<g id="edge47" class="edge"><title>Node37&#45;&gt;Node32</title>
<path fill="none" stroke="#9a32cd" stroke-dasharray="5,2" d="M166.206,-311.876C214.343,-306.686 271.743,-300.498 308.982,-296.484"/>
<polygon fill="#9a32cd" stroke="#9a32cd" points="165.652,-308.415 156.085,-312.967 166.402,-315.375 165.652,-308.415"/>
<text text-anchor="middle" x="212" y="-313.277" font-family="Helvetica,sans-Serif" font-size="10.00"> allTurtles</text>
</g>
<!-- Node38 -->
<g id="node38" class="node"><title>Node38</title>
<g id="a_node38"><a xlink:href="../../df/d77/classbackend_1_1_bi_index.html" target="_top" xlink:title="backend.BiIndex\&lt; Color \&gt;">
<polygon fill="white" stroke="black" points="7,-110.777 7,-129.777 149,-129.777 149,-110.777 7,-110.777"/>
<text text-anchor="middle" x="78" y="-117.777" font-family="Helvetica,sans-Serif" font-size="10.00">backend.BiIndex&lt; Color &gt;</text>
</a>
</g>
</g>
<!-- Node38&#45;&gt;Node25 -->
<g id="edge52" class="edge"><title>Node38&#45;&gt;Node25</title>
<path fill="none" stroke="#9a32cd" stroke-dasharray="5,2" d="M98.7281,-104.281C131.498,-78.8573 200.27,-30.2639 268,-12.2774 337.588,6.20274 359.261,1.13805 430,-12.2774 487.248,-23.1341 503.537,-27.9275 552,-60.2774 600.441,-92.6126 644.325,-148.148 660.946,-170.518"/>
<polygon fill="#9a32cd" stroke="#9a32cd" points="96.52,-101.565 90.832,-110.504 100.853,-107.063 96.52,-101.565"/>
<text text-anchor="middle" x="349" y="-15.2774" font-family="Helvetica,sans-Serif" font-size="10.00"> colorMap</text>
</g>
<!-- Node38&#45;&gt;Node32 -->
<g id="edge48" class="edge"><title>Node38&#45;&gt;Node32</title>
<path fill="none" stroke="#9a32cd" stroke-dasharray="5,2" d="M102.954,-135.634C138.823,-158.624 208.625,-203.346 268,-241.277 290.625,-255.731 316.871,-272.455 332.955,-282.698"/>
<polygon fill="#9a32cd" stroke="#9a32cd" points="104.49,-132.461 94.1827,-130.011 100.713,-138.355 104.49,-132.461"/>
<text text-anchor="middle" x="212" y="-231.277" font-family="Helvetica,sans-Serif" font-size="10.00"> colorMap</text>
</g>
<!-- Node39 -->
<g id="node39" class="node"><title>Node39</title>
<polygon fill="white" stroke="#bfbfbf" points="288.5,-170.777 288.5,-189.777 409.5,-189.777 409.5,-170.777 288.5,-170.777"/>
<text text-anchor="middle" x="349" y="-177.777" font-family="Helvetica,sans-Serif" font-size="10.00">Queue&lt; Command &gt;</text>
</g>
<!-- Node39&#45;&gt;Node25 -->
<g id="edge51" class="edge"><title>Node39&#45;&gt;Node25</title>
<path fill="none" stroke="#9a32cd" stroke-dasharray="5,2" d="M419.963,-180.277C482.298,-180.277 571.578,-180.277 624.292,-180.277"/>
<polygon fill="#9a32cd" stroke="#9a32cd" points="419.813,-176.777 409.813,-180.277 419.813,-183.777 419.813,-176.777"/>
<text text-anchor="middle" x="500" y="-183.277" font-family="Helvetica,sans-Serif" font-size="10.00"> pendingCommands</text>
</g>
<!-- Node40 -->
<g id="node40" class="node"><title>Node40</title>
<polygon fill="white" stroke="#bfbfbf" points="933,-456.277 933,-486.277 1069,-486.277 1069,-456.277 933,-456.277"/>
<text text-anchor="start" x="941" y="-474.277" font-family="Helvetica,sans-Serif" font-size="10.00">HashMap&lt; gui.SlogoTab,</text>
<text text-anchor="middle" x="1001" y="-463.277" font-family="Helvetica,sans-Serif" font-size="10.00"> backend.Model &gt;</text>
</g>
<!-- Node40&#45;&gt;Node6 -->
<g id="edge53" class="edge"><title>Node40&#45;&gt;Node6</title>
<path fill="none" stroke="#9a32cd" stroke-dasharray="5,2" d="M1079.12,-460.674C1117.12,-454.562 1163.38,-445.784 1204,-434.277 1212.26,-431.938 1213.91,-430.15 1222,-427.277 1232.34,-423.604 1243.81,-419.842 1253.86,-416.644"/>
<polygon fill="#9a32cd" stroke="#9a32cd" points="1078.48,-457.232 1069.14,-462.249 1079.57,-464.147 1078.48,-457.232"/>
<text text-anchor="middle" x="1161" y="-456.277" font-family="Helvetica,sans-Serif" font-size="10.00"> tabMap</text>
</g>
<!-- Node41 -->
<g id="node41" class="node"><title>Node41</title>
<polygon fill="white" stroke="#bfbfbf" points="978,-417.777 978,-436.777 1024,-436.777 1024,-417.777 978,-417.777"/>
<text text-anchor="middle" x="1001" y="-424.777" font-family="Helvetica,sans-Serif" font-size="10.00">Group</text>
</g>
<!-- Node41&#45;&gt;Node6 -->
<g id="edge55" class="edge"><title>Node41&#45;&gt;Node6</title>
<path fill="none" stroke="#9a32cd" stroke-dasharray="5,2" d="M1034.68,-425.052C1090.22,-421.27 1202,-413.657 1253.67,-410.139"/>
<polygon fill="#9a32cd" stroke="#9a32cd" points="1034.1,-421.583 1024.36,-425.755 1034.57,-428.567 1034.1,-421.583"/>
<text text-anchor="middle" x="1161" y="-422.277" font-family="Helvetica,sans-Serif" font-size="10.00"> root</text>
</g>
</g>
</svg>
