<?xml version="1.0" encoding="UTF-8" standalone="no"?>
<!DOCTYPE svg PUBLIC "-//W3C//DTD SVG 1.1//EN"
 "http://www.w3.org/Graphics/SVG/1.1/DTD/svg11.dtd">
<!-- Generated by graphviz version 2.36.0 (20140111.2315)
 -->
<!-- Title: backend.command.MakeUserInstruction.addToInstrList Pages: 1 -->
<svg width="632pt" height="87pt"
 viewBox="0.00 0.00 632.00 87.00" xmlns="http://www.w3.org/2000/svg" xmlns:xlink="http://www.w3.org/1999/xlink">
<g id="graph0" class="graph" transform="scale(1 1) rotate(0) translate(4 83)">
<title>backend.command.MakeUserInstruction.addToInstrList</title>
<polygon fill="white" stroke="none" points="-4,4 -4,-83 628,-83 628,4 -4,4"/>
<!-- Node1 -->
<g id="node1" class="node"><title>Node1</title>
<polygon fill="#bfbfbf" stroke="black" points="0,-24 0,-54 160,-54 160,-24 0,-24"/>
<text text-anchor="start" x="8" y="-42" font-family="Helvetica,sans-Serif" font-size="10.00">backend.command.MakeUser</text>
<text text-anchor="middle" x="80" y="-31" font-family="Helvetica,sans-Serif" font-size="10.00">Instruction.addToInstrList</text>
</g>
<!-- Node2 -->
<g id="node2" class="node"><title>Node2</title>
<g id="a_node2"><a xlink:href="../../dc/d83/classbackend_1_1command_1_1_command.html#a606032e5ef26d465113f65e6e3c09bef" target="_top" xlink:title="backend.command.Command.get\lParam">
<polygon fill="white" stroke="black" points="213.5,-49 213.5,-79 394.5,-79 394.5,-49 213.5,-49"/>
<text text-anchor="start" x="221.5" y="-67" font-family="Helvetica,sans-Serif" font-size="10.00">backend.command.Command.get</text>
<text text-anchor="middle" x="304" y="-56" font-family="Helvetica,sans-Serif" font-size="10.00">Param</text>
</a>
</g>
</g>
<!-- Node1&#45;&gt;Node2 -->
<g id="edge1" class="edge"><title>Node1&#45;&gt;Node2</title>
<path fill="none" stroke="midnightblue" d="M160.207,-47.9197C174.169,-49.492 188.864,-51.1468 203.301,-52.7726"/>
<polygon fill="midnightblue" stroke="midnightblue" points="202.914,-56.2511 213.243,-53.8922 203.697,-49.2951 202.914,-56.2511"/>
</g>
<!-- Node3 -->
<g id="node3" class="node"><title>Node3</title>
<g id="a_node3"><a xlink:href="../../dc/d67/classbackend_1_1command_1_1_model_command.html#a73e8a709d97712856afafc9b8557d0cf" target="_top" xlink:title="backend.command.ModelCommand.user\lInstructions">
<polygon fill="white" stroke="black" points="196.5,-0 196.5,-30 411.5,-30 411.5,-0 196.5,-0"/>
<text text-anchor="start" x="204.5" y="-18" font-family="Helvetica,sans-Serif" font-size="10.00">backend.command.ModelCommand.user</text>
<text text-anchor="middle" x="304" y="-7" font-family="Helvetica,sans-Serif" font-size="10.00">Instructions</text>
</a>
</g>
</g>
<!-- Node1&#45;&gt;Node3 -->
<g id="edge2" class="edge"><title>Node1&#45;&gt;Node3</title>
<path fill="none" stroke="midnightblue" d="M160.207,-30.4371C168.711,-29.5177 177.488,-28.5689 186.312,-27.6149"/>
<polygon fill="midnightblue" stroke="midnightblue" points="186.718,-31.0915 196.284,-26.5369 185.965,-24.1321 186.718,-31.0915"/>
</g>
<!-- Node4 -->
<g id="node4" class="node"><title>Node4</title>
<g id="a_node4"><a xlink:href="../../d3/dac/classbackend_1_1_model.html#aed0f0ffe97b8ccaf1394797941f8e54c" target="_top" xlink:title="backend.Model.getUserFunctions">
<polygon fill="white" stroke="black" points="448.5,-5.5 448.5,-24.5 623.5,-24.5 623.5,-5.5 448.5,-5.5"/>
<text text-anchor="middle" x="536" y="-12.5" font-family="Helvetica,sans-Serif" font-size="10.00">backend.Model.getUserFunctions</text>
</a>
</g>
</g>
<!-- Node3&#45;&gt;Node4 -->
<g id="edge3" class="edge"><title>Node3&#45;&gt;Node4</title>
<path fill="none" stroke="midnightblue" d="M411.584,-15C420.452,-15 429.387,-15 438.177,-15"/>
<polygon fill="midnightblue" stroke="midnightblue" points="438.416,-18.5001 448.416,-15 438.416,-11.5001 438.416,-18.5001"/>
</g>
</g>
</svg>
