<?xml version="1.0" encoding="UTF-8" standalone="no"?>
<!DOCTYPE svg PUBLIC "-//W3C//DTD SVG 1.1//EN"
 "http://www.w3.org/Graphics/SVG/1.1/DTD/svg11.dtd">
<!-- Generated by graphviz version 2.36.0 (20140111.2315)
 -->
<!-- Title: backend.command.MakeUserInstruction.setParam Pages: 1 -->
<svg width="828pt" height="87pt"
 viewBox="0.00 0.00 828.00 87.00" xmlns="http://www.w3.org/2000/svg" xmlns:xlink="http://www.w3.org/1999/xlink">
<g id="graph0" class="graph" transform="scale(1 1) rotate(0) translate(4 83)">
<title>backend.command.MakeUserInstruction.setParam</title>
<polygon fill="white" stroke="none" points="-4,4 -4,-83 824,-83 824,4 -4,4"/>
<!-- Node1 -->
<g id="node1" class="node"><title>Node1</title>
<polygon fill="#bfbfbf" stroke="black" points="0,-24 0,-54 160,-54 160,-24 0,-24"/>
<text text-anchor="start" x="8" y="-42" font-family="Helvetica,sans-Serif" font-size="10.00">backend.command.MakeUser</text>
<text text-anchor="middle" x="80" y="-31" font-family="Helvetica,sans-Serif" font-size="10.00">Instruction.setParam</text>
</g>
<!-- Node2 -->
<g id="node2" class="node"><title>Node2</title>
<g id="a_node2"><a xlink:href="../../d0/d1f/classbackend_1_1command_1_1_make_user_instruction.html#a7e3e6ee2e96187d9bbbcef435311b39c" target="_top" xlink:title="backend.command.MakeUser\lInstruction.addToInstrList">
<polygon fill="white" stroke="black" points="196,-24 196,-54 356,-54 356,-24 196,-24"/>
<text text-anchor="start" x="204" y="-42" font-family="Helvetica,sans-Serif" font-size="10.00">backend.command.MakeUser</text>
<text text-anchor="middle" x="276" y="-31" font-family="Helvetica,sans-Serif" font-size="10.00">Instruction.addToInstrList</text>
</a>
</g>
</g>
<!-- Node1&#45;&gt;Node2 -->
<g id="edge1" class="edge"><title>Node1&#45;&gt;Node2</title>
<path fill="none" stroke="midnightblue" d="M160.187,-39C168.529,-39 177.054,-39 185.502,-39"/>
<polygon fill="midnightblue" stroke="midnightblue" points="185.752,-42.5001 195.752,-39 185.752,-35.5001 185.752,-42.5001"/>
</g>
<!-- Node3 -->
<g id="node3" class="node"><title>Node3</title>
<g id="a_node3"><a xlink:href="../../dc/d83/classbackend_1_1command_1_1_command.html#a606032e5ef26d465113f65e6e3c09bef" target="_top" xlink:title="backend.command.Command.get\lParam">
<polygon fill="white" stroke="black" points="409.5,-49 409.5,-79 590.5,-79 590.5,-49 409.5,-49"/>
<text text-anchor="start" x="417.5" y="-67" font-family="Helvetica,sans-Serif" font-size="10.00">backend.command.Command.get</text>
<text text-anchor="middle" x="500" y="-56" font-family="Helvetica,sans-Serif" font-size="10.00">Param</text>
</a>
</g>
</g>
<!-- Node2&#45;&gt;Node3 -->
<g id="edge2" class="edge"><title>Node2&#45;&gt;Node3</title>
<path fill="none" stroke="midnightblue" d="M356.207,-47.9197C370.169,-49.492 384.864,-51.1468 399.301,-52.7726"/>
<polygon fill="midnightblue" stroke="midnightblue" points="398.914,-56.2511 409.243,-53.8922 399.697,-49.2951 398.914,-56.2511"/>
</g>
<!-- Node4 -->
<g id="node4" class="node"><title>Node4</title>
<g id="a_node4"><a xlink:href="../../dc/d67/classbackend_1_1command_1_1_model_command.html#a73e8a709d97712856afafc9b8557d0cf" target="_top" xlink:title="backend.command.ModelCommand.user\lInstructions">
<polygon fill="white" stroke="black" points="392.5,-0 392.5,-30 607.5,-30 607.5,-0 392.5,-0"/>
<text text-anchor="start" x="400.5" y="-18" font-family="Helvetica,sans-Serif" font-size="10.00">backend.command.ModelCommand.user</text>
<text text-anchor="middle" x="500" y="-7" font-family="Helvetica,sans-Serif" font-size="10.00">Instructions</text>
</a>
</g>
</g>
<!-- Node2&#45;&gt;Node4 -->
<g id="edge3" class="edge"><title>Node2&#45;&gt;Node4</title>
<path fill="none" stroke="midnightblue" d="M356.207,-30.4371C364.711,-29.5177 373.488,-28.5689 382.312,-27.6149"/>
<polygon fill="midnightblue" stroke="midnightblue" points="382.718,-31.0915 392.284,-26.5369 381.965,-24.1321 382.718,-31.0915"/>
</g>
<!-- Node5 -->
<g id="node5" class="node"><title>Node5</title>
<g id="a_node5"><a xlink:href="../../d3/dac/classbackend_1_1_model.html#aed0f0ffe97b8ccaf1394797941f8e54c" target="_top" xlink:title="backend.Model.getUserFunctions">
<polygon fill="white" stroke="black" points="644.5,-5.5 644.5,-24.5 819.5,-24.5 819.5,-5.5 644.5,-5.5"/>
<text text-anchor="middle" x="732" y="-12.5" font-family="Helvetica,sans-Serif" font-size="10.00">backend.Model.getUserFunctions</text>
</a>
</g>
</g>
<!-- Node4&#45;&gt;Node5 -->
<g id="edge4" class="edge"><title>Node4&#45;&gt;Node5</title>
<path fill="none" stroke="midnightblue" d="M607.584,-15C616.452,-15 625.387,-15 634.177,-15"/>
<polygon fill="midnightblue" stroke="midnightblue" points="634.416,-18.5001 644.416,-15 634.416,-11.5001 634.416,-18.5001"/>
</g>
</g>
</svg>
