<?xml version="1.0" encoding="UTF-8" standalone="no"?>
<!DOCTYPE svg PUBLIC "-//W3C//DTD SVG 1.1//EN"
 "http://www.w3.org/Graphics/SVG/1.1/DTD/svg11.dtd">
<!-- Generated by graphviz version 2.36.0 (20140111.2315)
 -->
<!-- Title: backend.command.DegreesTurtleCommand Pages: 1 -->
<svg width="478pt" height="332pt"
 viewBox="0.00 0.00 478.00 332.00" xmlns="http://www.w3.org/2000/svg" xmlns:xlink="http://www.w3.org/1999/xlink">
<g id="graph0" class="graph" transform="scale(1 1) rotate(0) translate(4 328)">
<title>backend.command.DegreesTurtleCommand</title>
<polygon fill="white" stroke="none" points="-4,4 -4,-328 474,-328 474,4 -4,4"/>
<!-- Node1 -->
<g id="node1" class="node"><title>Node1</title>
<polygon fill="#bfbfbf" stroke="black" points="127,-57 127,-87 305,-87 305,-57 127,-57"/>
<text text-anchor="start" x="135" y="-75" font-family="Helvetica,sans-Serif" font-size="10.00">backend.command.DegreesTurtle</text>
<text text-anchor="middle" x="216" y="-64" font-family="Helvetica,sans-Serif" font-size="10.00">Command</text>
</g>
<!-- Node6 -->
<g id="node6" class="node"><title>Node6</title>
<g id="a_node6"><a xlink:href="../../d1/d93/classbackend_1_1command_1_1_left.html" target="_top" xlink:title="backend.command.Left">
<polygon fill="white" stroke="black" points="0,-0.5 0,-19.5 130,-19.5 130,-0.5 0,-0.5"/>
<text text-anchor="middle" x="65" y="-7.5" font-family="Helvetica,sans-Serif" font-size="10.00">backend.command.Left</text>
</a>
</g>
</g>
<!-- Node1&#45;&gt;Node6 -->
<g id="edge5" class="edge"><title>Node1&#45;&gt;Node6</title>
<path fill="none" stroke="midnightblue" d="M171.043,-53.1362C143.153,-42.0541 108.575,-28.3145 86.6434,-19.6"/>
<polygon fill="midnightblue" stroke="midnightblue" points="170.012,-56.4926 180.597,-56.9327 172.596,-49.9873 170.012,-56.4926"/>
</g>
<!-- Node7 -->
<g id="node7" class="node"><title>Node7</title>
<g id="a_node7"><a xlink:href="../../d6/dcb/classbackend_1_1command_1_1_right.html" target="_top" xlink:title="backend.command.Right">
<polygon fill="white" stroke="black" points="148,-0.5 148,-19.5 284,-19.5 284,-0.5 148,-0.5"/>
<text text-anchor="middle" x="216" y="-7.5" font-family="Helvetica,sans-Serif" font-size="10.00">backend.command.Right</text>
</a>
</g>
</g>
<!-- Node1&#45;&gt;Node7 -->
<g id="edge6" class="edge"><title>Node1&#45;&gt;Node7</title>
<path fill="none" stroke="midnightblue" d="M216,-46.5858C216,-37.0743 216,-26.7864 216,-19.7305"/>
<polygon fill="midnightblue" stroke="midnightblue" points="212.5,-46.7808 216,-56.7808 219.5,-46.7809 212.5,-46.7808"/>
</g>
<!-- Node8 -->
<g id="node8" class="node"><title>Node8</title>
<g id="a_node8"><a xlink:href="../../d8/d92/classbackend_1_1command_1_1_set_heading.html" target="_top" xlink:title="backend.command.SetHeading">
<polygon fill="white" stroke="black" points="302,-0.5 302,-19.5 470,-19.5 470,-0.5 302,-0.5"/>
<text text-anchor="middle" x="386" y="-7.5" font-family="Helvetica,sans-Serif" font-size="10.00">backend.command.SetHeading</text>
</a>
</g>
</g>
<!-- Node1&#45;&gt;Node8 -->
<g id="edge7" class="edge"><title>Node1&#45;&gt;Node8</title>
<path fill="none" stroke="midnightblue" d="M265.384,-53.5704C296.991,-42.415 336.619,-28.4287 361.633,-19.6"/>
<polygon fill="midnightblue" stroke="midnightblue" points="264.122,-50.3039 255.857,-56.9327 266.452,-56.9049 264.122,-50.3039"/>
</g>
<!-- Node2 -->
<g id="node2" class="node"><title>Node2</title>
<g id="a_node2"><a xlink:href="../../d8/db4/classbackend_1_1command_1_1_active_turtle_command.html" target="_top" xlink:title="backend.command.ActiveTurtle\lCommand">
<polygon fill="white" stroke="black" points="132.5,-125 132.5,-155 299.5,-155 299.5,-125 132.5,-125"/>
<text text-anchor="start" x="140.5" y="-143" font-family="Helvetica,sans-Serif" font-size="10.00">backend.command.ActiveTurtle</text>
<text text-anchor="middle" x="216" y="-132" font-family="Helvetica,sans-Serif" font-size="10.00">Command</text>
</a>
</g>
</g>
<!-- Node2&#45;&gt;Node1 -->
<g id="edge1" class="edge"><title>Node2&#45;&gt;Node1</title>
<path fill="none" stroke="midnightblue" d="M216,-114.532C216,-105.361 216,-95.2449 216,-87.2931"/>
<polygon fill="midnightblue" stroke="midnightblue" points="212.5,-114.679 216,-124.679 219.5,-114.679 212.5,-114.679"/>
</g>
<!-- Node3 -->
<g id="node3" class="node"><title>Node3</title>
<g id="a_node3"><a xlink:href="../../d5/dfc/classbackend_1_1command_1_1_turtle_command.html" target="_top" xlink:title="backend.command.TurtleCommand">
<polygon fill="white" stroke="black" points="122,-192.5 122,-211.5 310,-211.5 310,-192.5 122,-192.5"/>
<text text-anchor="middle" x="216" y="-199.5" font-family="Helvetica,sans-Serif" font-size="10.00">backend.command.TurtleCommand</text>
</a>
</g>
</g>
<!-- Node3&#45;&gt;Node2 -->
<g id="edge2" class="edge"><title>Node3&#45;&gt;Node2</title>
<path fill="none" stroke="midnightblue" d="M216,-182.371C216,-173.585 216,-163.272 216,-155.141"/>
<polygon fill="midnightblue" stroke="midnightblue" points="212.5,-182.403 216,-192.403 219.5,-182.403 212.5,-182.403"/>
</g>
<!-- Node4 -->
<g id="node4" class="node"><title>Node4</title>
<g id="a_node4"><a xlink:href="../../dc/d67/classbackend_1_1command_1_1_model_command.html" target="_top" xlink:title="backend.command.ModelCommand">
<polygon fill="white" stroke="black" points="120.5,-248.5 120.5,-267.5 311.5,-267.5 311.5,-248.5 120.5,-248.5"/>
<text text-anchor="middle" x="216" y="-255.5" font-family="Helvetica,sans-Serif" font-size="10.00">backend.command.ModelCommand</text>
</a>
</g>
</g>
<!-- Node4&#45;&gt;Node3 -->
<g id="edge3" class="edge"><title>Node4&#45;&gt;Node3</title>
<path fill="none" stroke="midnightblue" d="M216,-237.805C216,-228.91 216,-218.78 216,-211.751"/>
<polygon fill="midnightblue" stroke="midnightblue" points="212.5,-238.083 216,-248.083 219.5,-238.083 212.5,-238.083"/>
</g>
<!-- Node5 -->
<g id="node5" class="node"><title>Node5</title>
<g id="a_node5"><a xlink:href="../../dc/d83/classbackend_1_1command_1_1_command.html" target="_top" xlink:title="backend.command.Command">
<polygon fill="white" stroke="black" points="135,-304.5 135,-323.5 297,-323.5 297,-304.5 135,-304.5"/>
<text text-anchor="middle" x="216" y="-311.5" font-family="Helvetica,sans-Serif" font-size="10.00">backend.command.Command</text>
</a>
</g>
</g>
<!-- Node5&#45;&gt;Node4 -->
<g id="edge4" class="edge"><title>Node5&#45;&gt;Node4</title>
<path fill="none" stroke="midnightblue" d="M216,-293.805C216,-284.91 216,-274.78 216,-267.751"/>
<polygon fill="midnightblue" stroke="midnightblue" points="212.5,-294.083 216,-304.083 219.5,-294.083 212.5,-294.083"/>
</g>
</g>
</svg>
