<?xml version="1.0" encoding="UTF-8" standalone="no"?>
<!DOCTYPE svg PUBLIC "-//W3C//DTD SVG 1.1//EN"
 "http://www.w3.org/Graphics/SVG/1.1/DTD/svg11.dtd">
<!-- Generated by graphviz version 2.36.0 (20140111.2315)
 -->
<!-- Title: backend.command.PixelsTurtleCommand.pixels Pages: 1 -->
<svg width="416pt" height="104pt"
 viewBox="0.00 0.00 416.00 104.00" xmlns="http://www.w3.org/2000/svg" xmlns:xlink="http://www.w3.org/1999/xlink">
<g id="graph0" class="graph" transform="scale(1 1) rotate(0) translate(4 100)">
<title>backend.command.PixelsTurtleCommand.pixels</title>
<polygon fill="white" stroke="none" points="-4,4 -4,-100 412,-100 412,4 -4,4"/>
<!-- Node1 -->
<g id="node1" class="node"><title>Node1</title>
<polygon fill="#bfbfbf" stroke="black" points="0,-33 0,-63 164,-63 164,-33 0,-33"/>
<text text-anchor="start" x="8" y="-51" font-family="Helvetica,sans-Serif" font-size="10.00">backend.command.PixelsTurtle</text>
<text text-anchor="middle" x="82" y="-40" font-family="Helvetica,sans-Serif" font-size="10.00">Command.pixels</text>
</g>
<!-- Node2 -->
<g id="node2" class="node"><title>Node2</title>
<g id="a_node2"><a xlink:href="../../dc/d25/classbackend_1_1command_1_1_backward.html#a8555647247f244625e7e60bc10753202" target="_top" xlink:title="backend.command.Backward.execute">
<polygon fill="white" stroke="black" points="204.5,-76.5 204.5,-95.5 403.5,-95.5 403.5,-76.5 204.5,-76.5"/>
<text text-anchor="middle" x="304" y="-83.5" font-family="Helvetica,sans-Serif" font-size="10.00">backend.command.Backward.execute</text>
</a>
</g>
</g>
<!-- Node1&#45;&gt;Node2 -->
<g id="edge1" class="edge"><title>Node1&#45;&gt;Node2</title>
<path fill="none" stroke="midnightblue" d="M174.159,-63.7456C199.137,-68.06 225.451,-72.6052 247.741,-76.4553"/>
<polygon fill="midnightblue" stroke="midnightblue" points="174.745,-60.2951 164.295,-62.0418 173.553,-67.1929 174.745,-60.2951"/>
</g>
<!-- Node3 -->
<g id="node3" class="node"><title>Node3</title>
<g id="a_node3"><a xlink:href="../../d8/d3e/classbackend_1_1command_1_1_set_pen_size.html#abeaea63d9ee389a2f90055b25c8cd7ad" target="_top" xlink:title="backend.command.SetPenSize.execute">
<polygon fill="white" stroke="black" points="200,-38.5 200,-57.5 408,-57.5 408,-38.5 200,-38.5"/>
<text text-anchor="middle" x="304" y="-45.5" font-family="Helvetica,sans-Serif" font-size="10.00">backend.command.SetPenSize.execute</text>
</a>
</g>
</g>
<!-- Node1&#45;&gt;Node3 -->
<g id="edge2" class="edge"><title>Node1&#45;&gt;Node3</title>
<path fill="none" stroke="midnightblue" d="M174.48,-48C182.902,-48 191.474,-48 199.989,-48"/>
<polygon fill="midnightblue" stroke="midnightblue" points="174.295,-44.5001 164.295,-48 174.295,-51.5001 174.295,-44.5001"/>
</g>
<!-- Node4 -->
<g id="node4" class="node"><title>Node4</title>
<g id="a_node4"><a xlink:href="../../d8/d49/classbackend_1_1command_1_1_forward.html#a007c0c9940ad2e960dfd044388fcee0f" target="_top" xlink:title="backend.command.Forward.execute">
<polygon fill="white" stroke="black" points="208.5,-0.5 208.5,-19.5 399.5,-19.5 399.5,-0.5 208.5,-0.5"/>
<text text-anchor="middle" x="304" y="-7.5" font-family="Helvetica,sans-Serif" font-size="10.00">backend.command.Forward.execute</text>
</a>
</g>
</g>
<!-- Node1&#45;&gt;Node4 -->
<g id="edge3" class="edge"><title>Node1&#45;&gt;Node4</title>
<path fill="none" stroke="midnightblue" d="M174.159,-32.2544C199.137,-27.94 225.451,-23.3948 247.741,-19.5447"/>
<polygon fill="midnightblue" stroke="midnightblue" points="173.553,-28.8071 164.295,-33.9582 174.745,-35.7049 173.553,-28.8071"/>
</g>
</g>
</svg>
