<?xml version="1.0" encoding="UTF-8" standalone="no"?>
<!DOCTYPE svg PUBLIC "-//W3C//DTD SVG 1.1//EN"
 "http://www.w3.org/Graphics/SVG/1.1/DTD/svg11.dtd">
<!-- Generated by graphviz version 2.36.0 (20140111.2315)
 -->
<!-- Title: gui.TabPanel Pages: 1 -->
<svg width="1490pt" height="758pt"
 viewBox="0.00 0.00 1490.00 758.00" xmlns="http://www.w3.org/2000/svg" xmlns:xlink="http://www.w3.org/1999/xlink">
<g id="graph0" class="graph" transform="scale(1 1) rotate(0) translate(4 754)">
<title>gui.TabPanel</title>
<polygon fill="white" stroke="none" points="-4,4 -4,-754 1486,-754 1486,4 -4,4"/>
<!-- Node1 -->
<g id="node1" class="node"><title>Node1</title>
<polygon fill="#bfbfbf" stroke="black" points="1406.5,-550.5 1406.5,-569.5 1481.5,-569.5 1481.5,-550.5 1406.5,-550.5"/>
<text text-anchor="middle" x="1444" y="-557.5" font-family="Helvetica,sans-Serif" font-size="10.00">gui.TabPanel</text>
</g>
<!-- Node2 -->
<g id="node2" class="node"><title>Node2</title>
<polygon fill="white" stroke="#bfbfbf" points="1254,-626.5 1254,-645.5 1310,-645.5 1310,-626.5 1254,-626.5"/>
<text text-anchor="middle" x="1282" y="-633.5" font-family="Helvetica,sans-Serif" font-size="10.00">TabPane</text>
</g>
<!-- Node2&#45;&gt;Node1 -->
<g id="edge1" class="edge"><title>Node2&#45;&gt;Node1</title>
<path fill="none" stroke="midnightblue" d="M1320.32,-631.865C1341.16,-628.417 1367.07,-622.18 1388,-611 1407.53,-600.568 1425.37,-581.501 1435.16,-569.868"/>
<polygon fill="midnightblue" stroke="midnightblue" points="1319.6,-628.433 1310.23,-633.384 1320.64,-635.355 1319.6,-628.433"/>
</g>
<!-- Node3 -->
<g id="node3" class="node"><title>Node3</title>
<polygon fill="white" stroke="#bfbfbf" points="918,-585.5 918,-604.5 1084,-604.5 1084,-585.5 918,-585.5"/>
<text text-anchor="middle" x="1001" y="-592.5" font-family="Helvetica,sans-Serif" font-size="10.00">HashMap&lt; Tab, gui.SlogoTab &gt;</text>
</g>
<!-- Node3&#45;&gt;Node1 -->
<g id="edge2" class="edge"><title>Node3&#45;&gt;Node1</title>
<path fill="none" stroke="#9a32cd" stroke-dasharray="5,2" d="M1094.17,-590.237C1128.65,-588.268 1168.14,-585.79 1204,-583 1275.69,-577.423 1359.28,-568.919 1406.19,-563.965"/>
<polygon fill="#9a32cd" stroke="#9a32cd" points="1093.9,-586.746 1084.11,-590.805 1094.29,-593.735 1093.9,-586.746"/>
<text text-anchor="middle" x="1282" y="-585" font-family="Helvetica,sans-Serif" font-size="10.00"> tabSlogoTabMap</text>
</g>
<!-- Node4 -->
<g id="node4" class="node"><title>Node4</title>
<g id="a_node4"><a xlink:href="../../df/dc3/classgui_1_1_main.html" target="_top" xlink:title="gui.Main">
<polygon fill="white" stroke="black" points="1254,-468.5 1254,-487.5 1310,-487.5 1310,-468.5 1254,-468.5"/>
<text text-anchor="middle" x="1282" y="-475.5" font-family="Helvetica,sans-Serif" font-size="10.00">gui.Main</text>
</a>
</g>
</g>
<!-- Node3&#45;&gt;Node4 -->
<g id="edge6" class="edge"><title>Node3&#45;&gt;Node4</title>
<path fill="none" stroke="#9a32cd" stroke-dasharray="5,2" d="M1063.84,-583.416C1075.89,-580.868 1088.38,-578.02 1100,-575 1146.93,-562.801 1161.45,-565.264 1204,-542 1231.45,-526.989 1258.37,-501.447 1271.93,-487.604"/>
<polygon fill="#9a32cd" stroke="#9a32cd" points="1062.94,-580.028 1053.86,-585.483 1064.36,-586.883 1062.94,-580.028"/>
<text text-anchor="middle" x="1161" y="-574" font-family="Helvetica,sans-Serif" font-size="10.00"> tabSLogoTabMap</text>
</g>
<!-- Node4&#45;&gt;Node1 -->
<g id="edge3" class="edge"><title>Node4&#45;&gt;Node1</title>
<path fill="none" stroke="#9a32cd" stroke-dasharray="5,2" d="M1310.67,-492.18C1343.25,-508.878 1396.46,-536.15 1424.45,-550.494"/>
<polygon fill="#9a32cd" stroke="#9a32cd" points="1312.16,-489.013 1301.67,-487.567 1308.97,-495.243 1312.16,-489.013"/>
<text text-anchor="middle" x="1374" y="-535" font-family="Helvetica,sans-Serif" font-size="10.00"> main</text>
</g>
<!-- Node5 -->
<g id="node5" class="node"><title>Node5</title>
<polygon fill="white" stroke="#bfbfbf" points="966.5,-546.5 966.5,-565.5 1035.5,-565.5 1035.5,-546.5 966.5,-546.5"/>
<text text-anchor="middle" x="1001" y="-553.5" font-family="Helvetica,sans-Serif" font-size="10.00">Application</text>
</g>
<!-- Node5&#45;&gt;Node4 -->
<g id="edge4" class="edge"><title>Node5&#45;&gt;Node4</title>
<path fill="none" stroke="midnightblue" d="M1045.68,-551.131C1087.22,-545.676 1151.04,-535.127 1204,-517 1226.26,-509.381 1250.18,-496.439 1265.35,-487.568"/>
<polygon fill="midnightblue" stroke="midnightblue" points="1045.1,-547.677 1035.62,-552.41 1045.99,-554.621 1045.1,-547.677"/>
</g>
<!-- Node6 -->
<g id="node6" class="node"><title>Node6</title>
<polygon fill="white" stroke="#bfbfbf" points="978.5,-508.5 978.5,-527.5 1023.5,-527.5 1023.5,-508.5 978.5,-508.5"/>
<text text-anchor="middle" x="1001" y="-515.5" font-family="Helvetica,sans-Serif" font-size="10.00">Stage</text>
</g>
<!-- Node6&#45;&gt;Node4 -->
<g id="edge5" class="edge"><title>Node6&#45;&gt;Node4</title>
<path fill="none" stroke="#9a32cd" stroke-dasharray="5,2" d="M1033.69,-513.776C1073.48,-508.433 1143.84,-498.857 1204,-490 1220.6,-487.557 1239.18,-484.665 1253.93,-482.332"/>
<polygon fill="#9a32cd" stroke="#9a32cd" points="1032.99,-510.338 1023.54,-515.135 1033.92,-517.276 1032.99,-510.338"/>
<text text-anchor="middle" x="1161" y="-505" font-family="Helvetica,sans-Serif" font-size="10.00"> stage</text>
</g>
<!-- Node7 -->
<g id="node7" class="node"><title>Node7</title>
<polygon fill="white" stroke="#bfbfbf" points="977.5,-432.5 977.5,-451.5 1024.5,-451.5 1024.5,-432.5 977.5,-432.5"/>
<text text-anchor="middle" x="1001" y="-439.5" font-family="Helvetica,sans-Serif" font-size="10.00">Scene</text>
</g>
<!-- Node7&#45;&gt;Node4 -->
<g id="edge7" class="edge"><title>Node7&#45;&gt;Node4</title>
<path fill="none" stroke="#9a32cd" stroke-dasharray="5,2" d="M1034.78,-444.845C1074.82,-448.487 1144.55,-455.37 1204,-464 1220.67,-466.421 1239.26,-469.781 1253.99,-472.603"/>
<polygon fill="#9a32cd" stroke="#9a32cd" points="1035.06,-441.356 1024.79,-443.947 1034.43,-448.328 1035.06,-441.356"/>
<text text-anchor="middle" x="1161" y="-467" font-family="Helvetica,sans-Serif" font-size="10.00"> scene</text>
</g>
<!-- Node8 -->
<g id="node8" class="node"><title>Node8</title>
<g id="a_node8"><a xlink:href="../../d5/d8a/classgui_1_1_slogo_tab.html" target="_top" xlink:title="gui.SlogoTab">
<polygon fill="white" stroke="black" points="962.5,-470.5 962.5,-489.5 1039.5,-489.5 1039.5,-470.5 962.5,-470.5"/>
<text text-anchor="middle" x="1001" y="-477.5" font-family="Helvetica,sans-Serif" font-size="10.00">gui.SlogoTab</text>
</a>
</g>
</g>
<!-- Node8&#45;&gt;Node4 -->
<g id="edge8" class="edge"><title>Node8&#45;&gt;Node4</title>
<path fill="none" stroke="#9a32cd" stroke-dasharray="5,2" d="M1049.85,-479.561C1070.77,-479.376 1095.6,-479.165 1118,-479 1165.82,-478.647 1221.54,-478.324 1253.89,-478.146"/>
<polygon fill="#9a32cd" stroke="#9a32cd" points="1049.58,-476.063 1039.61,-479.652 1049.64,-483.063 1049.58,-476.063"/>
<text text-anchor="middle" x="1161" y="-482" font-family="Helvetica,sans-Serif" font-size="10.00"> activeTab</text>
</g>
<!-- Node9 -->
<g id="node9" class="node"><title>Node9</title>
<polygon fill="white" stroke="#bfbfbf" points="54,-565.5 54,-584.5 102,-584.5 102,-565.5 54,-565.5"/>
<text text-anchor="middle" x="78" y="-572.5" font-family="Helvetica,sans-Serif" font-size="10.00">Region</text>
</g>
<!-- Node9&#45;&gt;Node8 -->
<g id="edge9" class="edge"><title>Node9&#45;&gt;Node8</title>
<path fill="none" stroke="midnightblue" d="M112.317,-574.131C212.005,-571.323 516.605,-561.229 768,-537 819.804,-532.007 838.606,-546.455 884,-521 895.019,-514.821 891.153,-505.477 902,-499 920.154,-488.161 943.261,-483.337 962.479,-481.258"/>
<polygon fill="midnightblue" stroke="midnightblue" points="112.148,-570.634 102.249,-574.409 112.342,-577.632 112.148,-570.634"/>
</g>
<!-- Node11 -->
<g id="node11" class="node"><title>Node11</title>
<g id="a_node11"><a xlink:href="../../d8/d85/classgui_1_1text_areas_1_1_abstract_editable_text_box.html" target="_top" xlink:title="gui.textAreas.AbstractEditable\lTextBox">
<polygon fill="white" stroke="black" points="268,-497 268,-527 430,-527 430,-497 268,-497"/>
<text text-anchor="start" x="276" y="-515" font-family="Helvetica,sans-Serif" font-size="10.00">gui.textAreas.AbstractEditable</text>
<text text-anchor="middle" x="349" y="-504" font-family="Helvetica,sans-Serif" font-size="10.00">TextBox</text>
</a>
</g>
</g>
<!-- Node9&#45;&gt;Node11 -->
<g id="edge12" class="edge"><title>Node9&#45;&gt;Node11</title>
<path fill="none" stroke="midnightblue" d="M111.892,-566.938C130.171,-562.482 153.333,-556.877 174,-552 209.598,-543.599 249.348,-534.445 281.858,-527.016"/>
<polygon fill="midnightblue" stroke="midnightblue" points="110.903,-563.576 102.018,-569.348 112.563,-570.376 110.903,-563.576"/>
</g>
<!-- Node16 -->
<g id="node16" class="node"><title>Node16</title>
<g id="a_node16"><a xlink:href="../../d8/d8d/classgui_1_1_drawing_area.html" target="_top" xlink:title="gui.DrawingArea">
<polygon fill="white" stroke="black" points="301.5,-680.5 301.5,-699.5 396.5,-699.5 396.5,-680.5 301.5,-680.5"/>
<text text-anchor="middle" x="349" y="-687.5" font-family="Helvetica,sans-Serif" font-size="10.00">gui.DrawingArea</text>
</a>
</g>
</g>
<!-- Node9&#45;&gt;Node16 -->
<g id="edge18" class="edge"><title>Node9&#45;&gt;Node16</title>
<path fill="none" stroke="midnightblue" d="M112.076,-583.887C154.445,-595.472 225.349,-615.597 250,-627 282.86,-642.2 317.68,-666.945 335.654,-680.455"/>
<polygon fill="midnightblue" stroke="midnightblue" points="112.788,-580.453 102.22,-581.205 110.95,-587.208 112.788,-580.453"/>
</g>
<!-- Node22 -->
<g id="node22" class="node"><title>Node22</title>
<g id="a_node22"><a xlink:href="../../db/d89/classgui_1_1_run_buttons.html" target="_top" xlink:title="gui.RunButtons">
<polygon fill="white" stroke="black" points="304.5,-598.5 304.5,-617.5 393.5,-617.5 393.5,-598.5 304.5,-598.5"/>
<text text-anchor="middle" x="349" y="-605.5" font-family="Helvetica,sans-Serif" font-size="10.00">gui.RunButtons</text>
</a>
</g>
</g>
<!-- Node9&#45;&gt;Node22 -->
<g id="edge29" class="edge"><title>Node9&#45;&gt;Node22</title>
<path fill="none" stroke="midnightblue" d="M112.358,-579.092C160.765,-585.031 250.545,-596.045 304.219,-602.629"/>
<polygon fill="midnightblue" stroke="midnightblue" points="112.753,-575.615 102.401,-577.871 111.901,-582.562 112.753,-575.615"/>
</g>
<!-- Node10 -->
<g id="node10" class="node"><title>Node10</title>
<g id="a_node10"><a xlink:href="../../d3/d45/classgui_1_1text_areas_1_1_user_variables_box.html" target="_top" xlink:title="gui.textAreas.UserVariablesBox">
<polygon fill="white" stroke="black" points="585.5,-407.5 585.5,-426.5 752.5,-426.5 752.5,-407.5 585.5,-407.5"/>
<text text-anchor="middle" x="669" y="-414.5" font-family="Helvetica,sans-Serif" font-size="10.00">gui.textAreas.UserVariablesBox</text>
</a>
</g>
</g>
<!-- Node10&#45;&gt;Node8 -->
<g id="edge10" class="edge"><title>Node10&#45;&gt;Node8</title>
<path fill="none" stroke="#9a32cd" stroke-dasharray="5,2" d="M730.207,-428.494C797.847,-441.407 905.569,-461.972 962.268,-472.797"/>
<polygon fill="#9a32cd" stroke="#9a32cd" points="730.599,-425.006 720.12,-426.568 729.286,-431.882 730.599,-425.006"/>
<text text-anchor="middle" x="835" y="-461" font-family="Helvetica,sans-Serif" font-size="10.00"> userVariablesBox</text>
</g>
<!-- Node11&#45;&gt;Node10 -->
<g id="edge11" class="edge"><title>Node11&#45;&gt;Node10</title>
<path fill="none" stroke="midnightblue" d="M409.977,-494.082C476.961,-474.071 582.899,-442.423 635.767,-426.629"/>
<polygon fill="midnightblue" stroke="midnightblue" points="408.968,-490.731 400.388,-496.947 410.971,-497.438 408.968,-490.731"/>
</g>
<!-- Node19 -->
<g id="node19" class="node"><title>Node19</title>
<g id="a_node19"><a xlink:href="../../de/da4/classgui_1_1text_areas_1_1_previous_commands_box.html" target="_top" xlink:title="gui.textAreas.PreviousCommandsBox">
<polygon fill="white" stroke="black" points="570.5,-470.5 570.5,-489.5 767.5,-489.5 767.5,-470.5 570.5,-470.5"/>
<text text-anchor="middle" x="669" y="-477.5" font-family="Helvetica,sans-Serif" font-size="10.00">gui.textAreas.PreviousCommandsBox</text>
</a>
</g>
</g>
<!-- Node11&#45;&gt;Node19 -->
<g id="edge22" class="edge"><title>Node11&#45;&gt;Node19</title>
<path fill="none" stroke="midnightblue" d="M440.363,-502.907C481.943,-498.723 531.273,-493.759 573.363,-489.523"/>
<polygon fill="midnightblue" stroke="midnightblue" points="439.844,-499.441 430.245,-503.925 440.545,-506.406 439.844,-499.441"/>
</g>
<!-- Node20 -->
<g id="node20" class="node"><title>Node20</title>
<g id="a_node20"><a xlink:href="../../db/d0f/classgui_1_1text_areas_1_1_status_box.html" target="_top" xlink:title="gui.textAreas.StatusBox">
<polygon fill="white" stroke="black" points="602.5,-508.5 602.5,-527.5 735.5,-527.5 735.5,-508.5 602.5,-508.5"/>
<text text-anchor="middle" x="669" y="-515.5" font-family="Helvetica,sans-Serif" font-size="10.00">gui.textAreas.StatusBox</text>
</a>
</g>
</g>
<!-- Node11&#45;&gt;Node20 -->
<g id="edge25" class="edge"><title>Node11&#45;&gt;Node20</title>
<path fill="none" stroke="midnightblue" d="M440.391,-513.705C491.957,-514.678 555.436,-515.876 602.243,-516.759"/>
<polygon fill="midnightblue" stroke="midnightblue" points="440.309,-510.203 430.245,-513.514 440.177,-517.202 440.309,-510.203"/>
</g>
<!-- Node21 -->
<g id="node21" class="node"><title>Node21</title>
<g id="a_node21"><a xlink:href="../../db/dbc/classgui_1_1text_areas_1_1_command_box.html" target="_top" xlink:title="gui.textAreas.CommandBox">
<polygon fill="white" stroke="black" points="593,-586.5 593,-605.5 745,-605.5 745,-586.5 593,-586.5"/>
<text text-anchor="middle" x="669" y="-593.5" font-family="Helvetica,sans-Serif" font-size="10.00">gui.textAreas.CommandBox</text>
</a>
</g>
</g>
<!-- Node11&#45;&gt;Node21 -->
<g id="edge27" class="edge"><title>Node11&#45;&gt;Node21</title>
<path fill="none" stroke="midnightblue" d="M416.678,-529.613C482.189,-546.918 579.694,-572.674 631.906,-586.466"/>
<polygon fill="midnightblue" stroke="midnightblue" points="417.414,-526.188 406.852,-527.018 415.627,-532.955 417.414,-526.188"/>
</g>
<!-- Node12 -->
<g id="node12" class="node"><title>Node12</title>
<polygon fill="white" stroke="#bfbfbf" points="57,-464.5 57,-483.5 99,-483.5 99,-464.5 57,-464.5"/>
<text text-anchor="middle" x="78" y="-471.5" font-family="Helvetica,sans-Serif" font-size="10.00">Label</text>
</g>
<!-- Node12&#45;&gt;Node11 -->
<g id="edge13" class="edge"><title>Node12&#45;&gt;Node11</title>
<path fill="none" stroke="#9a32cd" stroke-dasharray="5,2" d="M109.275,-477.903C143.471,-482.351 200.772,-489.922 250,-497 255.793,-497.833 261.775,-498.709 267.795,-499.602"/>
<polygon fill="#9a32cd" stroke="#9a32cd" points="109.391,-474.389 99.0241,-476.573 108.491,-481.331 109.391,-474.389"/>
<text text-anchor="middle" x="212" y="-500" font-family="Helvetica,sans-Serif" font-size="10.00"> label</text>
</g>
<!-- Node13 -->
<g id="node13" class="node"><title>Node13</title>
<polygon fill="white" stroke="#bfbfbf" points="49,-502.5 49,-521.5 107,-521.5 107,-502.5 49,-502.5"/>
<text text-anchor="middle" x="78" y="-509.5" font-family="Helvetica,sans-Serif" font-size="10.00">TextArea</text>
</g>
<!-- Node13&#45;&gt;Node11 -->
<g id="edge14" class="edge"><title>Node13&#45;&gt;Node11</title>
<path fill="none" stroke="#9a32cd" stroke-dasharray="5,2" d="M117.415,-512C156.477,-512 218.163,-512 267.907,-512"/>
<polygon fill="#9a32cd" stroke="#9a32cd" points="117.026,-508.5 107.026,-512 117.026,-515.5 117.026,-508.5"/>
<text text-anchor="middle" x="212" y="-515" font-family="Helvetica,sans-Serif" font-size="10.00"> textArea</text>
</g>
<!-- Node14 -->
<g id="node14" class="node"><title>Node14</title>
<polygon fill="white" stroke="#bfbfbf" points="328.5,-409.5 328.5,-428.5 369.5,-428.5 369.5,-409.5 328.5,-409.5"/>
<text text-anchor="middle" x="349" y="-416.5" font-family="Helvetica,sans-Serif" font-size="10.00">VBox</text>
</g>
<!-- Node14&#45;&gt;Node10 -->
<g id="edge15" class="edge"><title>Node14&#45;&gt;Node10</title>
<path fill="none" stroke="#9a32cd" stroke-dasharray="5,2" d="M379.287,-409.095C398.557,-403.112 424.475,-396.068 448,-393 493.834,-387.023 506.018,-388.293 552,-393 578.903,-395.754 608.775,-402.011 631.467,-407.446"/>
<polygon fill="#9a32cd" stroke="#9a32cd" points="378.056,-405.814 369.594,-412.189 380.185,-412.483 378.056,-405.814"/>
<text text-anchor="middle" x="500" y="-407" font-family="Helvetica,sans-Serif" font-size="10.00"> myLabels</text>
<text text-anchor="middle" x="500" y="-396" font-family="Helvetica,sans-Serif" font-size="10.00">myFields</text>
</g>
<!-- Node14&#45;&gt;Node19 -->
<g id="edge23" class="edge"><title>Node14&#45;&gt;Node19</title>
<path fill="none" stroke="#9a32cd" stroke-dasharray="5,2" d="M379.988,-424.752C434.765,-435.26 551.5,-457.652 618.315,-470.469"/>
<polygon fill="#9a32cd" stroke="#9a32cd" points="380.373,-421.262 369.892,-422.816 379.054,-428.137 380.373,-421.262"/>
<text text-anchor="middle" x="500" y="-460" font-family="Helvetica,sans-Serif" font-size="10.00"> col</text>
</g>
<!-- Node15 -->
<g id="node15" class="node"><title>Node15</title>
<polygon fill="white" stroke="#bfbfbf" points="328,-353.5 328,-372.5 370,-372.5 370,-353.5 328,-353.5"/>
<text text-anchor="middle" x="349" y="-360.5" font-family="Helvetica,sans-Serif" font-size="10.00">HBox</text>
</g>
<!-- Node15&#45;&gt;Node10 -->
<g id="edge16" class="edge"><title>Node15&#45;&gt;Node10</title>
<path fill="none" stroke="#9a32cd" stroke-dasharray="5,2" d="M380.138,-361.847C419.935,-360.957 491.992,-361.542 552,-374 586.909,-381.247 625.32,-397.176 648.013,-407.48"/>
<polygon fill="#9a32cd" stroke="#9a32cd" points="379.94,-358.351 370.039,-362.121 380.13,-365.348 379.94,-358.351"/>
<text text-anchor="middle" x="500" y="-377" font-family="Helvetica,sans-Serif" font-size="10.00"> myData</text>
</g>
<!-- Node16&#45;&gt;Node8 -->
<g id="edge17" class="edge"><title>Node16&#45;&gt;Node8</title>
<path fill="none" stroke="#9a32cd" stroke-dasharray="5,2" d="M389.725,-702.353C489.351,-730.589 751.312,-787.407 884,-651 931.433,-602.237 855.7,-548.841 902,-499 917.098,-482.747 941.598,-477.997 962.323,-477.31"/>
<polygon fill="#9a32cd" stroke="#9a32cd" points="390.626,-698.97 380.047,-699.554 388.681,-705.694 390.626,-698.97"/>
<text text-anchor="middle" x="669" y="-742" font-family="Helvetica,sans-Serif" font-size="10.00"> turtlePanel</text>
</g>
<!-- Node17 -->
<g id="node17" class="node"><title>Node17</title>
<polygon fill="white" stroke="#bfbfbf" points="5.5,-676 5.5,-706 150.5,-706 150.5,-676 5.5,-676"/>
<text text-anchor="start" x="13.5" y="-694" font-family="Helvetica,sans-Serif" font-size="10.00">HashMap&lt; backend.Turtle,</text>
<text text-anchor="middle" x="78" y="-683" font-family="Helvetica,sans-Serif" font-size="10.00"> gui.TurtleImage &gt;</text>
</g>
<!-- Node17&#45;&gt;Node16 -->
<g id="edge19" class="edge"><title>Node17&#45;&gt;Node16</title>
<path fill="none" stroke="#9a32cd" stroke-dasharray="5,2" d="M161.003,-690.695C207.052,-690.524 262.838,-690.317 301.431,-690.173"/>
<polygon fill="#9a32cd" stroke="#9a32cd" points="160.721,-687.196 150.734,-690.733 160.747,-694.196 160.721,-687.196"/>
<text text-anchor="middle" x="212" y="-694" font-family="Helvetica,sans-Serif" font-size="10.00"> turtleMap</text>
</g>
<!-- Node18 -->
<g id="node18" class="node"><title>Node18</title>
<polygon fill="white" stroke="#bfbfbf" points="52,-725.5 52,-744.5 104,-744.5 104,-725.5 52,-725.5"/>
<text text-anchor="middle" x="78" y="-732.5" font-family="Helvetica,sans-Serif" font-size="10.00">Canvas</text>
</g>
<!-- Node18&#45;&gt;Node16 -->
<g id="edge20" class="edge"><title>Node18&#45;&gt;Node16</title>
<path fill="none" stroke="#9a32cd" stroke-dasharray="5,2" d="M114.2,-729.111C162.049,-721.107 247.749,-706.771 301.038,-697.856"/>
<polygon fill="#9a32cd" stroke="#9a32cd" points="113.592,-725.664 104.307,-730.767 114.747,-732.569 113.592,-725.664"/>
<text text-anchor="middle" x="212" y="-721" font-family="Helvetica,sans-Serif" font-size="10.00"> drawingCanvas</text>
</g>
<!-- Node19&#45;&gt;Node8 -->
<g id="edge21" class="edge"><title>Node19&#45;&gt;Node8</title>
<path fill="none" stroke="#9a32cd" stroke-dasharray="5,2" d="M777.756,-480C841.329,-480 917.842,-480 962.491,-480"/>
<polygon fill="#9a32cd" stroke="#9a32cd" points="777.671,-476.5 767.671,-480 777.671,-483.5 777.671,-476.5"/>
<text text-anchor="middle" x="835" y="-483" font-family="Helvetica,sans-Serif" font-size="10.00"> prevCommandsBox</text>
</g>
<!-- Node20&#45;&gt;Node8 -->
<g id="edge24" class="edge"><title>Node20&#45;&gt;Node8</title>
<path fill="none" stroke="#9a32cd" stroke-dasharray="5,2" d="M745.779,-510.257C786.731,-505.971 838.16,-500.426 884,-495 910.215,-491.897 939.719,-488.077 962.411,-485.069"/>
<polygon fill="#9a32cd" stroke="#9a32cd" points="745.186,-506.8 735.603,-511.319 745.912,-513.762 745.186,-506.8"/>
<text text-anchor="middle" x="835" y="-509" font-family="Helvetica,sans-Serif" font-size="10.00"> statusBox</text>
</g>
<!-- Node21&#45;&gt;Node8 -->
<g id="edge26" class="edge"><title>Node21&#45;&gt;Node8</title>
<path fill="none" stroke="#9a32cd" stroke-dasharray="5,2" d="M735.707,-606.398C782.56,-609.927 844.083,-606.084 884,-571 908.775,-549.224 878.061,-521.692 902,-499 917.848,-483.977 941.836,-479.14 962.112,-478.101"/>
<polygon fill="#9a32cd" stroke="#9a32cd" points="735.913,-602.903 725.644,-605.512 735.299,-609.876 735.913,-602.903"/>
<text text-anchor="middle" x="835" y="-610" font-family="Helvetica,sans-Serif" font-size="10.00"> commandBox</text>
</g>
<!-- Node22&#45;&gt;Node8 -->
<g id="edge31" class="edge"><title>Node22&#45;&gt;Node8</title>
<path fill="none" stroke="#9a32cd" stroke-dasharray="5,2" d="M403.779,-618.134C524.808,-639.603 813.522,-682.915 884,-622 925.8,-585.872 863.846,-538.959 902,-499 917.32,-482.956 941.82,-478.206 962.49,-477.467"/>
<polygon fill="#9a32cd" stroke="#9a32cd" points="404.094,-614.635 393.634,-616.316 402.859,-621.525 404.094,-614.635"/>
<text text-anchor="middle" x="669" y="-657" font-family="Helvetica,sans-Serif" font-size="10.00"> runButtons</text>
</g>
<!-- Node22&#45;&gt;Node21 -->
<g id="edge28" class="edge"><title>Node22&#45;&gt;Node21</title>
<path fill="none" stroke="#9a32cd" stroke-dasharray="5,2" d="M403.559,-605.979C455.499,-604.019 534.771,-601.028 592.981,-598.831"/>
<polygon fill="#9a32cd" stroke="#9a32cd" points="403.411,-602.482 393.55,-606.357 403.675,-609.477 403.411,-602.482"/>
<text text-anchor="middle" x="500" y="-608" font-family="Helvetica,sans-Serif" font-size="10.00"> runButtons</text>
</g>
<!-- Node23 -->
<g id="node23" class="node"><title>Node23</title>
<polygon fill="white" stroke="#bfbfbf" points="53.5,-636.5 53.5,-655.5 102.5,-655.5 102.5,-636.5 53.5,-636.5"/>
<text text-anchor="middle" x="78" y="-643.5" font-family="Helvetica,sans-Serif" font-size="10.00">Button</text>
</g>
<!-- Node23&#45;&gt;Node22 -->
<g id="edge30" class="edge"><title>Node23&#45;&gt;Node22</title>
<path fill="none" stroke="#9a32cd" stroke-dasharray="5,2" d="M112.875,-641.215C161.459,-634.352 250.944,-621.71 304.407,-614.158"/>
<polygon fill="#9a32cd" stroke="#9a32cd" points="112.284,-637.763 102.872,-642.628 113.263,-644.695 112.284,-637.763"/>
<text text-anchor="middle" x="212" y="-646" font-family="Helvetica,sans-Serif" font-size="10.00"> runButton</text>
<text text-anchor="middle" x="212" y="-635" font-family="Helvetica,sans-Serif" font-size="10.00">stepButton</text>
</g>
<!-- Node24 -->
<g id="node24" class="node"><title>Node24</title>
<g id="a_node24"><a xlink:href="../../d3/dac/classbackend_1_1_model.html" target="_top" xlink:title="backend.Model">
<polygon fill="white" stroke="black" points="624.5,-204.5 624.5,-223.5 713.5,-223.5 713.5,-204.5 624.5,-204.5"/>
<text text-anchor="middle" x="669" y="-211.5" font-family="Helvetica,sans-Serif" font-size="10.00">backend.Model</text>
</a>
</g>
</g>
<!-- Node24&#45;&gt;Node1 -->
<g id="edge54" class="edge"><title>Node24&#45;&gt;Node1</title>
<path fill="none" stroke="#9a32cd" stroke-dasharray="5,2" d="M700.211,-200.309C805.182,-155.028 1157.7,-22.518 1342,-195 1396.97,-246.442 1434.41,-497.919 1441.7,-550.393"/>
<polygon fill="#9a32cd" stroke="#9a32cd" points="698.6,-197.193 690.839,-204.405 701.404,-203.607 698.6,-197.193"/>
<text text-anchor="middle" x="1161" y="-125" font-family="Helvetica,sans-Serif" font-size="10.00"> myModel</text>
</g>
<!-- Node24&#45;&gt;Node4 -->
<g id="edge52" class="edge"><title>Node24&#45;&gt;Node4</title>
<path fill="none" stroke="#9a32cd" stroke-dasharray="5,2" d="M688.904,-229.966C726.786,-261.128 815.771,-330.213 902,-367 985.006,-402.412 1013.44,-386.491 1100,-412 1157.59,-428.97 1223.41,-454.591 1257.6,-468.388"/>
<polygon fill="#9a32cd" stroke="#9a32cd" points="691.139,-227.272 681.21,-223.576 686.667,-232.657 691.139,-227.272"/>
<text text-anchor="middle" x="1001" y="-415" font-family="Helvetica,sans-Serif" font-size="10.00"> myModel</text>
</g>
<!-- Node24&#45;&gt;Node8 -->
<g id="edge32" class="edge"><title>Node24&#45;&gt;Node8</title>
<path fill="none" stroke="#9a32cd" stroke-dasharray="5,2" d="M677.269,-233.451C692.023,-270.293 728.996,-350.453 786,-394 822.302,-421.732 849.26,-395.335 884,-425 897.604,-436.616 887.752,-450.184 902,-461 919.117,-473.994 942.644,-478.858 962.356,-480.419"/>
<polygon fill="#9a32cd" stroke="#9a32cd" points="680.436,-231.937 673.552,-223.884 673.911,-234.473 680.436,-231.937"/>
<text text-anchor="middle" x="835" y="-428" font-family="Helvetica,sans-Serif" font-size="10.00"> myModel</text>
</g>
<!-- Node30 -->
<g id="node30" class="node"><title>Node30</title>
<g id="a_node30"><a xlink:href="../../d3/dd9/classbackend_1_1command_1_1_command_factory.html" target="_top" xlink:title="backend.command.CommandFactory">
<polygon fill="white" stroke="black" points="902.5,-204.5 902.5,-223.5 1099.5,-223.5 1099.5,-204.5 902.5,-204.5"/>
<text text-anchor="middle" x="1001" y="-211.5" font-family="Helvetica,sans-Serif" font-size="10.00">backend.command.CommandFactory</text>
</a>
</g>
</g>
<!-- Node24&#45;&gt;Node30 -->
<g id="edge39" class="edge"><title>Node24&#45;&gt;Node30</title>
<path fill="none" stroke="#9a32cd" stroke-dasharray="5,2" d="M717.98,-202.296C738.754,-197.799 763.436,-193.215 786,-191 829.347,-186.744 840.653,-186.744 884,-191 891.126,-191.7 924.931,-198.466 954.223,-204.48"/>
<polygon fill="#9a32cd" stroke="#9a32cd" points="717.125,-198.9 708.122,-204.486 718.643,-205.734 717.125,-198.9"/>
<text text-anchor="middle" x="835" y="-194" font-family="Helvetica,sans-Serif" font-size="10.00"> model</text>
</g>
<!-- Node25 -->
<g id="node25" class="node"><title>Node25</title>
<polygon fill="white" stroke="#bfbfbf" points="273.5,-39 273.5,-69 424.5,-69 424.5,-39 273.5,-39"/>
<text text-anchor="start" x="281.5" y="-57" font-family="Helvetica,sans-Serif" font-size="10.00">HashMap&lt; String, backend.</text>
<text text-anchor="middle" x="349" y="-46" font-family="Helvetica,sans-Serif" font-size="10.00">Variable &gt;</text>
</g>
<!-- Node25&#45;&gt;Node24 -->
<g id="edge33" class="edge"><title>Node25&#45;&gt;Node24</title>
<path fill="none" stroke="#9a32cd" stroke-dasharray="5,2" d="M435.353,-52.6757C473.021,-55.314 516.664,-62.9805 552,-82 607.34,-111.787 648.73,-179.108 662.787,-204.27"/>
<polygon fill="#9a32cd" stroke="#9a32cd" points="435.088,-49.1541 424.899,-52.0597 434.676,-56.142 435.088,-49.1541"/>
<text text-anchor="middle" x="500" y="-85" font-family="Helvetica,sans-Serif" font-size="10.00"> userVariables</text>
</g>
<!-- Node26 -->
<g id="node26" class="node"><title>Node26</title>
<polygon fill="white" stroke="#bfbfbf" points="291,-0.5 291,-19.5 407,-19.5 407,-0.5 291,-0.5"/>
<text text-anchor="middle" x="349" y="-7.5" font-family="Helvetica,sans-Serif" font-size="10.00">Stack&lt; Command &gt;</text>
</g>
<!-- Node26&#45;&gt;Node24 -->
<g id="edge34" class="edge"><title>Node26&#45;&gt;Node24</title>
<path fill="none" stroke="#9a32cd" stroke-dasharray="5,2" d="M417.476,-6.63285C459.186,-7.6341 512.168,-14.7425 552,-40 617.309,-81.4121 654.244,-174.368 664.809,-204.427"/>
<polygon fill="#9a32cd" stroke="#9a32cd" points="417.447,-3.13228 407.403,-6.50299 417.357,-10.1317 417.447,-3.13228"/>
<text text-anchor="middle" x="500" y="-43" font-family="Helvetica,sans-Serif" font-size="10.00"> executedCommands</text>
</g>
<!-- Node27 -->
<g id="node27" class="node"><title>Node27</title>
<polygon fill="white" stroke="#bfbfbf" points="273.5,-304 273.5,-334 424.5,-334 424.5,-304 273.5,-304"/>
<text text-anchor="start" x="281.5" y="-322" font-family="Helvetica,sans-Serif" font-size="10.00">HashMap&lt; String, backend.</text>
<text text-anchor="middle" x="349" y="-311" font-family="Helvetica,sans-Serif" font-size="10.00">UserInstructionContainer &gt;</text>
</g>
<!-- Node27&#45;&gt;Node24 -->
<g id="edge35" class="edge"><title>Node27&#45;&gt;Node24</title>
<path fill="none" stroke="#9a32cd" stroke-dasharray="5,2" d="M435.018,-313.844C471.872,-309.618 514.971,-301.94 552,-288 594.029,-272.177 636.888,-239.685 656.691,-223.541"/>
<polygon fill="#9a32cd" stroke="#9a32cd" points="434.366,-310.394 424.799,-314.947 435.117,-317.353 434.366,-310.394"/>
<text text-anchor="middle" x="500" y="-316" font-family="Helvetica,sans-Serif" font-size="10.00"> userInstructions</text>
</g>
<!-- Node28 -->
<g id="node28" class="node"><title>Node28</title>
<g id="a_node28"><a xlink:href="../../da/d26/classbackend_1_1_s_logo_parser.html" target="_top" xlink:title="backend.SLogoParser">
<polygon fill="white" stroke="black" points="1222,-204.5 1222,-223.5 1342,-223.5 1342,-204.5 1222,-204.5"/>
<text text-anchor="middle" x="1282" y="-211.5" font-family="Helvetica,sans-Serif" font-size="10.00">backend.SLogoParser</text>
</a>
</g>
</g>
<!-- Node28&#45;&gt;Node24 -->
<g id="edge36" class="edge"><title>Node28&#45;&gt;Node24</title>
<path fill="none" stroke="#9a32cd" stroke-dasharray="5,2" d="M1228.57,-225.332C1220.38,-226.779 1211.98,-228.074 1204,-229 1019.46,-250.395 971.161,-244.13 786,-229 762.017,-227.04 735.382,-223.681 713.689,-220.637"/>
<polygon fill="#9a32cd" stroke="#9a32cd" points="1229.22,-228.771 1238.42,-223.509 1227.95,-221.888 1229.22,-228.771"/>
<text text-anchor="middle" x="1001" y="-246" font-family="Helvetica,sans-Serif" font-size="10.00"> parser</text>
</g>
<!-- Node29 -->
<g id="node29" class="node"><title>Node29</title>
<polygon fill="white" stroke="#bfbfbf" points="945,-155 945,-185 1057,-185 1057,-155 945,-155"/>
<text text-anchor="start" x="953" y="-173" font-family="Helvetica,sans-Serif" font-size="10.00">List&lt; Entry&lt; String,</text>
<text text-anchor="middle" x="1001" y="-162" font-family="Helvetica,sans-Serif" font-size="10.00"> Pattern &gt; &gt;</text>
</g>
<!-- Node29&#45;&gt;Node28 -->
<g id="edge37" class="edge"><title>Node29&#45;&gt;Node28</title>
<path fill="none" stroke="#9a32cd" stroke-dasharray="5,2" d="M1067.47,-178.559C1107.07,-183.944 1158.53,-191.312 1204,-199 1213.67,-200.635 1223.99,-202.536 1233.83,-204.426"/>
<polygon fill="#9a32cd" stroke="#9a32cd" points="1067.79,-175.07 1057.42,-177.199 1066.86,-182.007 1067.79,-175.07"/>
<text text-anchor="middle" x="1161" y="-202" font-family="Helvetica,sans-Serif" font-size="10.00"> patterns</text>
</g>
<!-- Node30&#45;&gt;Node24 -->
<g id="edge48" class="edge"><title>Node30&#45;&gt;Node24</title>
<path fill="none" stroke="#9a32cd" stroke-dasharray="5,2" d="M892.41,-214C831.707,-214 759.161,-214 713.821,-214"/>
<polygon fill="#9a32cd" stroke="#9a32cd" points="892.431,-217.5 902.431,-214 892.431,-210.5 892.431,-217.5"/>
<text text-anchor="middle" x="835" y="-217" font-family="Helvetica,sans-Serif" font-size="10.00"> comFactory</text>
</g>
<!-- Node30&#45;&gt;Node28 -->
<g id="edge38" class="edge"><title>Node30&#45;&gt;Node28</title>
<path fill="none" stroke="#9a32cd" stroke-dasharray="5,2" d="M1109.69,-214C1147.75,-214 1189.14,-214 1221.7,-214"/>
<polygon fill="#9a32cd" stroke="#9a32cd" points="1109.58,-210.5 1099.58,-214 1109.58,-217.5 1109.58,-210.5"/>
<text text-anchor="middle" x="1161" y="-217" font-family="Helvetica,sans-Serif" font-size="10.00"> comFactory</text>
</g>
<!-- Node31 -->
<g id="node31" class="node"><title>Node31</title>
<g id="a_node31"><a xlink:href="../../d1/d68/classbackend_1_1_grid.html" target="_top" xlink:title="backend.Grid">
<polygon fill="white" stroke="black" points="309,-204.5 309,-223.5 389,-223.5 389,-204.5 309,-204.5"/>
<text text-anchor="middle" x="349" y="-211.5" font-family="Helvetica,sans-Serif" font-size="10.00">backend.Grid</text>
</a>
</g>
</g>
<!-- Node31&#45;&gt;Node24 -->
<g id="edge40" class="edge"><title>Node31&#45;&gt;Node24</title>
<path fill="none" stroke="#9a32cd" stroke-dasharray="5,2" d="M399.576,-214C461.285,-214 565.695,-214 624.456,-214"/>
<polygon fill="#9a32cd" stroke="#9a32cd" points="399.312,-210.5 389.312,-214 399.312,-217.5 399.312,-210.5"/>
<text text-anchor="middle" x="500" y="-217" font-family="Helvetica,sans-Serif" font-size="10.00"> grid</text>
</g>
<!-- Node32 -->
<g id="node32" class="node"><title>Node32</title>
<polygon fill="white" stroke="#bfbfbf" points="57.5,-137.5 57.5,-156.5 98.5,-156.5 98.5,-137.5 57.5,-137.5"/>
<text text-anchor="middle" x="78" y="-144.5" font-family="Helvetica,sans-Serif" font-size="10.00">Color</text>
</g>
<!-- Node32&#45;&gt;Node31 -->
<g id="edge41" class="edge"><title>Node32&#45;&gt;Node31</title>
<path fill="none" stroke="#9a32cd" stroke-dasharray="5,2" d="M108.402,-152.89C142.589,-159.887 200.638,-172.228 250,-185 272.846,-190.911 298.405,-198.508 317.692,-204.443"/>
<polygon fill="#9a32cd" stroke="#9a32cd" points="109.092,-149.458 98.5948,-150.895 107.697,-156.318 109.092,-149.458"/>
<text text-anchor="middle" x="212" y="-188" font-family="Helvetica,sans-Serif" font-size="10.00"> bgColor</text>
</g>
<!-- Node33 -->
<g id="node33" class="node"><title>Node33</title>
<g id="a_node33"><a xlink:href="../../df/d77/classbackend_1_1_bi_index.html" target="_top" xlink:title="backend.BiIndex\&lt; String \&gt;">
<polygon fill="white" stroke="black" points="5,-306.5 5,-325.5 151,-325.5 151,-306.5 5,-306.5"/>
<text text-anchor="middle" x="78" y="-313.5" font-family="Helvetica,sans-Serif" font-size="10.00">backend.BiIndex&lt; String &gt;</text>
</a>
</g>
</g>
<!-- Node33&#45;&gt;Node24 -->
<g id="edge47" class="edge"><title>Node33&#45;&gt;Node24</title>
<path fill="none" stroke="#9a32cd" stroke-dasharray="5,2" d="M133.617,-326.869C169.033,-331.04 214.934,-330.815 250,-311 262.88,-303.722 255.667,-291.171 268,-283 297.483,-263.466 526.701,-232.138 624.268,-219.525"/>
<polygon fill="#9a32cd" stroke="#9a32cd" points="133.829,-323.366 123.456,-325.52 132.908,-330.306 133.829,-323.366"/>
<text text-anchor="middle" x="349" y="-286" font-family="Helvetica,sans-Serif" font-size="10.00"> imageMap</text>
</g>
<!-- Node33&#45;&gt;Node31 -->
<g id="edge42" class="edge"><title>Node33&#45;&gt;Node31</title>
<path fill="none" stroke="#9a32cd" stroke-dasharray="5,2" d="M141.324,-304.454C182.375,-296.074 231.785,-284.275 250,-273 260.452,-266.53 258.235,-259.467 268,-252 284.001,-239.765 304.574,-230.101 320.851,-223.581"/>
<polygon fill="#9a32cd" stroke="#9a32cd" points="140.477,-301.054 131.362,-306.455 141.856,-307.917 140.477,-301.054"/>
<text text-anchor="middle" x="212" y="-301" font-family="Helvetica,sans-Serif" font-size="10.00"> imageMap</text>
</g>
<!-- Node34 -->
<g id="node34" class="node"><title>Node34</title>
<polygon fill="white" stroke="#bfbfbf" points="3,-263.5 3,-282.5 153,-282.5 153,-263.5 3,-263.5"/>
<text text-anchor="middle" x="78" y="-270.5" font-family="Helvetica,sans-Serif" font-size="10.00">ArrayList&lt; backend.Turtle &gt;</text>
</g>
<!-- Node34&#45;&gt;Node31 -->
<g id="edge43" class="edge"><title>Node34&#45;&gt;Node31</title>
<path fill="none" stroke="#9a32cd" stroke-dasharray="5,2" d="M150.076,-261.735C180.93,-256.428 217.395,-249.594 250,-242 272.748,-236.702 298.093,-229.423 317.308,-223.615"/>
<polygon fill="#9a32cd" stroke="#9a32cd" points="149.114,-258.349 139.842,-263.475 150.287,-265.25 149.114,-258.349"/>
<text text-anchor="middle" x="212" y="-261" font-family="Helvetica,sans-Serif" font-size="10.00"> activeTurtles</text>
</g>
<!-- Node35 -->
<g id="node35" class="node"><title>Node35</title>
<polygon fill="white" stroke="#bfbfbf" points="44,-225.5 44,-244.5 112,-244.5 112,-225.5 44,-225.5"/>
<text text-anchor="middle" x="78" y="-232.5" font-family="Helvetica,sans-Serif" font-size="10.00">Dimension</text>
</g>
<!-- Node35&#45;&gt;Node31 -->
<g id="edge44" class="edge"><title>Node35&#45;&gt;Node31</title>
<path fill="none" stroke="#9a32cd" stroke-dasharray="5,2" d="M122.401,-231.612C173.919,-227.59 259.083,-220.941 308.722,-217.066"/>
<polygon fill="#9a32cd" stroke="#9a32cd" points="121.952,-228.136 112.254,-232.404 122.497,-235.115 121.952,-228.136"/>
<text text-anchor="middle" x="212" y="-230" font-family="Helvetica,sans-Serif" font-size="10.00"> size</text>
</g>
<!-- Node36 -->
<g id="node36" class="node"><title>Node36</title>
<polygon fill="white" stroke="#bfbfbf" points="0,-176 0,-206 156,-206 156,-176 0,-176"/>
<text text-anchor="start" x="8" y="-194" font-family="Helvetica,sans-Serif" font-size="10.00">HashMap&lt; Integer, backend.</text>
<text text-anchor="middle" x="78" y="-183" font-family="Helvetica,sans-Serif" font-size="10.00">Turtle &gt;</text>
</g>
<!-- Node36&#45;&gt;Node31 -->
<g id="edge45" class="edge"><title>Node36&#45;&gt;Node31</title>
<path fill="none" stroke="#9a32cd" stroke-dasharray="5,2" d="M166.206,-198.456C214.343,-202.572 271.743,-207.48 308.982,-210.664"/>
<polygon fill="#9a32cd" stroke="#9a32cd" points="166.346,-194.956 156.085,-197.591 165.75,-201.93 166.346,-194.956"/>
<text text-anchor="middle" x="212" y="-209" font-family="Helvetica,sans-Serif" font-size="10.00"> allTurtles</text>
</g>
<!-- Node37 -->
<g id="node37" class="node"><title>Node37</title>
<g id="a_node37"><a xlink:href="../../df/d77/classbackend_1_1_bi_index.html" target="_top" xlink:title="backend.BiIndex\&lt; Color \&gt;">
<polygon fill="white" stroke="black" points="7,-95.5 7,-114.5 149,-114.5 149,-95.5 7,-95.5"/>
<text text-anchor="middle" x="78" y="-102.5" font-family="Helvetica,sans-Serif" font-size="10.00">backend.BiIndex&lt; Color &gt;</text>
</a>
</g>
</g>
<!-- Node37&#45;&gt;Node24 -->
<g id="edge50" class="edge"><title>Node37&#45;&gt;Node24</title>
<path fill="none" stroke="#9a32cd" stroke-dasharray="5,2" d="M159.102,-112.204C187.854,-115.237 220.463,-119.192 250,-124 391.224,-146.989 556.75,-186.381 629.922,-204.443"/>
<polygon fill="#9a32cd" stroke="#9a32cd" points="159.412,-108.718 149.105,-111.17 158.691,-115.68 159.412,-108.718"/>
<text text-anchor="middle" x="349" y="-162" font-family="Helvetica,sans-Serif" font-size="10.00"> colorMap</text>
</g>
<!-- Node37&#45;&gt;Node31 -->
<g id="edge46" class="edge"><title>Node37&#45;&gt;Node31</title>
<path fill="none" stroke="#9a32cd" stroke-dasharray="5,2" d="M136.871,-116.93C170.675,-124.95 213.691,-136.993 250,-153 282.641,-167.39 317.27,-191.26 335.341,-204.47"/>
<polygon fill="#9a32cd" stroke="#9a32cd" points="137.226,-113.42 126.693,-114.571 135.645,-120.239 137.226,-113.42"/>
<text text-anchor="middle" x="212" y="-156" font-family="Helvetica,sans-Serif" font-size="10.00"> colorMap</text>
</g>
<!-- Node38 -->
<g id="node38" class="node"><title>Node38</title>
<polygon fill="white" stroke="#bfbfbf" points="288.5,-88.5 288.5,-107.5 409.5,-107.5 409.5,-88.5 288.5,-88.5"/>
<text text-anchor="middle" x="349" y="-95.5" font-family="Helvetica,sans-Serif" font-size="10.00">Queue&lt; Command &gt;</text>
</g>
<!-- Node38&#45;&gt;Node24 -->
<g id="edge49" class="edge"><title>Node38&#45;&gt;Node24</title>
<path fill="none" stroke="#9a32cd" stroke-dasharray="5,2" d="M419.88,-95.4811C459.946,-96.3985 510.385,-101.655 552,-119 599.334,-138.728 642.511,-184.35 659.898,-204.331"/>
<polygon fill="#9a32cd" stroke="#9a32cd" points="419.714,-91.9785 409.665,-95.3351 419.614,-98.9778 419.714,-91.9785"/>
<text text-anchor="middle" x="500" y="-122" font-family="Helvetica,sans-Serif" font-size="10.00"> pendingCommands</text>
</g>
<!-- Node39 -->
<g id="node39" class="node"><title>Node39</title>
<polygon fill="white" stroke="#bfbfbf" points="933,-328 933,-358 1069,-358 1069,-328 933,-328"/>
<text text-anchor="start" x="941" y="-346" font-family="Helvetica,sans-Serif" font-size="10.00">HashMap&lt; gui.SlogoTab,</text>
<text text-anchor="middle" x="1001" y="-335" font-family="Helvetica,sans-Serif" font-size="10.00"> backend.Model &gt;</text>
</g>
<!-- Node39&#45;&gt;Node4 -->
<g id="edge51" class="edge"><title>Node39&#45;&gt;Node4</title>
<path fill="none" stroke="#9a32cd" stroke-dasharray="5,2" d="M1079.36,-339.13C1119.14,-340.511 1166.92,-347.664 1204,-370 1243.65,-393.882 1268.5,-446.841 1277.35,-468.494"/>
<polygon fill="#9a32cd" stroke="#9a32cd" points="1079.25,-335.626 1069.17,-338.894 1079.09,-342.624 1079.25,-335.626"/>
<text text-anchor="middle" x="1161" y="-373" font-family="Helvetica,sans-Serif" font-size="10.00"> tabMap</text>
</g>
<!-- Node40 -->
<g id="node40" class="node"><title>Node40</title>
<polygon fill="white" stroke="#bfbfbf" points="978,-289.5 978,-308.5 1024,-308.5 1024,-289.5 978,-289.5"/>
<text text-anchor="middle" x="1001" y="-296.5" font-family="Helvetica,sans-Serif" font-size="10.00">Group</text>
</g>
<!-- Node40&#45;&gt;Node4 -->
<g id="edge53" class="edge"><title>Node40&#45;&gt;Node4</title>
<path fill="none" stroke="#9a32cd" stroke-dasharray="5,2" d="M1034.26,-295.096C1077.13,-291.663 1153.35,-291.87 1204,-328 1253.81,-363.526 1273.61,-441.022 1279.2,-468.281"/>
<polygon fill="#9a32cd" stroke="#9a32cd" points="1033.75,-291.627 1024.11,-296.027 1034.39,-298.598 1033.75,-291.627"/>
<text text-anchor="middle" x="1161" y="-331" font-family="Helvetica,sans-Serif" font-size="10.00"> root</text>
</g>
</g>
</svg>
