<?xml version="1.0" encoding="UTF-8" standalone="no"?>
<!DOCTYPE svg PUBLIC "-//W3C//DTD SVG 1.1//EN"
 "http://www.w3.org/Graphics/SVG/1.1/DTD/svg11.dtd">
<!-- Generated by graphviz version 2.36.0 (20140111.2315)
 -->
<!-- Title: backend.command.Tell Pages: 1 -->
<svg width="1668pt" height="495pt"
 viewBox="0.00 0.00 1668.00 495.30" xmlns="http://www.w3.org/2000/svg" xmlns:xlink="http://www.w3.org/1999/xlink">
<g id="graph0" class="graph" transform="scale(1 1) rotate(0) translate(4 491.3)">
<title>backend.command.Tell</title>
<polygon fill="white" stroke="none" points="-4,4 -4,-491.3 1664,-491.3 1664,4 -4,4"/>
<!-- Node1 -->
<g id="node1" class="node"><title>Node1</title>
<polygon fill="#bfbfbf" stroke="black" points="1534,-382.8 1534,-401.8 1660,-401.8 1660,-382.8 1534,-382.8"/>
<text text-anchor="middle" x="1597" y="-389.8" font-family="Helvetica,sans-Serif" font-size="10.00">backend.command.Tell</text>
</g>
<!-- Node2 -->
<g id="node2" class="node"><title>Node2</title>
<g id="a_node2"><a xlink:href="../../d4/d68/classbackend_1_1command_1_1_specified_turtle_command.html" target="_top" xlink:title="backend.command.Specified\lTurtleCommand">
<polygon fill="white" stroke="black" points="1340.5,-377.3 1340.5,-407.3 1495.5,-407.3 1495.5,-377.3 1340.5,-377.3"/>
<text text-anchor="start" x="1348.5" y="-395.3" font-family="Helvetica,sans-Serif" font-size="10.00">backend.command.Specified</text>
<text text-anchor="middle" x="1418" y="-384.3" font-family="Helvetica,sans-Serif" font-size="10.00">TurtleCommand</text>
</a>
</g>
</g>
<!-- Node2&#45;&gt;Node1 -->
<g id="edge1" class="edge"><title>Node2&#45;&gt;Node1</title>
<path fill="none" stroke="midnightblue" d="M1505.86,-392.3C1515.33,-392.3 1524.83,-392.3 1533.92,-392.3"/>
<polygon fill="midnightblue" stroke="midnightblue" points="1505.61,-388.8 1495.61,-392.3 1505.61,-395.8 1505.61,-388.8"/>
</g>
<!-- Node3 -->
<g id="node3" class="node"><title>Node3</title>
<g id="a_node3"><a xlink:href="../../d5/dfc/classbackend_1_1command_1_1_turtle_command.html" target="_top" xlink:title="backend.command.TurtleCommand">
<polygon fill="white" stroke="black" points="1114,-382.8 1114,-401.8 1302,-401.8 1302,-382.8 1114,-382.8"/>
<text text-anchor="middle" x="1208" y="-389.8" font-family="Helvetica,sans-Serif" font-size="10.00">backend.command.TurtleCommand</text>
</a>
</g>
</g>
<!-- Node3&#45;&gt;Node2 -->
<g id="edge2" class="edge"><title>Node3&#45;&gt;Node2</title>
<path fill="none" stroke="midnightblue" d="M1312.25,-392.3C1321.67,-392.3 1331.1,-392.3 1340.23,-392.3"/>
<polygon fill="midnightblue" stroke="midnightblue" points="1312.05,-388.8 1302.05,-392.3 1312.05,-395.8 1312.05,-388.8"/>
</g>
<!-- Node4 -->
<g id="node4" class="node"><title>Node4</title>
<g id="a_node4"><a xlink:href="../../dc/d67/classbackend_1_1command_1_1_model_command.html" target="_top" xlink:title="backend.command.ModelCommand">
<polygon fill="white" stroke="black" points="823.5,-382.8 823.5,-401.8 1014.5,-401.8 1014.5,-382.8 823.5,-382.8"/>
<text text-anchor="middle" x="919" y="-389.8" font-family="Helvetica,sans-Serif" font-size="10.00">backend.command.ModelCommand</text>
</a>
</g>
</g>
<!-- Node4&#45;&gt;Node3 -->
<g id="edge3" class="edge"><title>Node4&#45;&gt;Node3</title>
<path fill="none" stroke="midnightblue" d="M1024.96,-392.3C1054.05,-392.3 1085.42,-392.3 1113.8,-392.3"/>
<polygon fill="midnightblue" stroke="midnightblue" points="1024.77,-388.8 1014.77,-392.3 1024.77,-395.8 1024.77,-388.8"/>
</g>
<!-- Node5 -->
<g id="node5" class="node"><title>Node5</title>
<g id="a_node5"><a xlink:href="../../dc/d83/classbackend_1_1command_1_1_command.html" target="_top" xlink:title="backend.command.Command">
<polygon fill="white" stroke="black" points="562,-423.8 562,-442.8 724,-442.8 724,-423.8 562,-423.8"/>
<text text-anchor="middle" x="643" y="-430.8" font-family="Helvetica,sans-Serif" font-size="10.00">backend.command.Command</text>
</a>
</g>
</g>
<!-- Node5&#45;&gt;Node4 -->
<g id="edge4" class="edge"><title>Node5&#45;&gt;Node4</title>
<path fill="none" stroke="midnightblue" d="M717.597,-422.287C760.266,-415.903 813.461,-407.943 854.321,-401.829"/>
<polygon fill="midnightblue" stroke="midnightblue" points="716.922,-418.849 707.55,-423.791 717.958,-425.772 716.922,-418.849"/>
</g>
<!-- Node5&#45;&gt;Node5 -->
<g id="edge6" class="edge"><title>Node5&#45;&gt;Node5</title>
<path fill="none" stroke="#9a32cd" stroke-dasharray="5,2" d="M619.191,-452.329C620.489,-457.428 628.426,-461.3 643,-461.3 665.75,-461.3 672.326,-451.865 662.729,-443.057"/>
<polygon fill="#9a32cd" stroke="#9a32cd" points="622.447,-453.62 623.271,-443.057 616.04,-450.8 622.447,-453.62"/>
<text text-anchor="middle" x="643" y="-464.3" font-family="Helvetica,sans-Serif" font-size="10.00"> parent</text>
</g>
<!-- Node6 -->
<g id="node6" class="node"><title>Node6</title>
<g id="a_node6"><a xlink:href="../../d0/d6a/classbackend_1_1_string_pair.html" target="_top" xlink:title="backend.StringPair">
<polygon fill="white" stroke="black" points="286,-467.8 286,-486.8 392,-486.8 392,-467.8 286,-467.8"/>
<text text-anchor="middle" x="339" y="-474.8" font-family="Helvetica,sans-Serif" font-size="10.00">backend.StringPair</text>
</a>
</g>
</g>
<!-- Node6&#45;&gt;Node5 -->
<g id="edge5" class="edge"><title>Node6&#45;&gt;Node5</title>
<path fill="none" stroke="#9a32cd" stroke-dasharray="5,2" d="M401.987,-468.663C442.432,-462.985 496.368,-455.331 544,-448.3 555.834,-446.553 568.466,-444.649 580.589,-442.803"/>
<polygon fill="#9a32cd" stroke="#9a32cd" points="401.424,-465.208 392.007,-470.063 402.397,-472.14 401.424,-465.208"/>
<text text-anchor="middle" x="492" y="-465.3" font-family="Helvetica,sans-Serif" font-size="10.00"> stringPair</text>
</g>
<!-- Node7 -->
<g id="node7" class="node"><title>Node7</title>
<polygon fill="white" stroke="#bfbfbf" points="256.5,-418.3 256.5,-448.3 421.5,-448.3 421.5,-418.3 256.5,-418.3"/>
<text text-anchor="start" x="264.5" y="-436.3" font-family="Helvetica,sans-Serif" font-size="10.00">ArrayList&lt; backend.command.</text>
<text text-anchor="middle" x="339" y="-425.3" font-family="Helvetica,sans-Serif" font-size="10.00">Command &gt;</text>
</g>
<!-- Node7&#45;&gt;Node5 -->
<g id="edge7" class="edge"><title>Node7&#45;&gt;Node5</title>
<path fill="none" stroke="#9a32cd" stroke-dasharray="5,2" d="M431.827,-433.3C473.282,-433.3 521.805,-433.3 561.777,-433.3"/>
<polygon fill="#9a32cd" stroke="#9a32cd" points="431.726,-429.8 421.726,-433.3 431.726,-436.8 431.726,-429.8"/>
<text text-anchor="middle" x="492" y="-436.3" font-family="Helvetica,sans-Serif" font-size="10.00"> params</text>
</g>
<!-- Node8 -->
<g id="node8" class="node"><title>Node8</title>
<g id="a_node8"><a xlink:href="../../d3/dac/classbackend_1_1_model.html" target="_top" xlink:title="backend.Model">
<polygon fill="white" stroke="black" points="598.5,-255.8 598.5,-274.8 687.5,-274.8 687.5,-255.8 598.5,-255.8"/>
<text text-anchor="middle" x="643" y="-262.8" font-family="Helvetica,sans-Serif" font-size="10.00">backend.Model</text>
</a>
</g>
</g>
<!-- Node8&#45;&gt;Node4 -->
<g id="edge8" class="edge"><title>Node8&#45;&gt;Node4</title>
<path fill="none" stroke="#9a32cd" stroke-dasharray="5,2" d="M661.056,-281.833C679.586,-298.956 710.744,-325.39 742,-341.3 781.55,-361.432 830.258,-374.767 866.399,-382.735"/>
<polygon fill="#9a32cd" stroke="#9a32cd" points="663.38,-279.214 653.7,-274.907 658.582,-284.31 663.38,-279.214"/>
<text text-anchor="middle" x="772" y="-366.3" font-family="Helvetica,sans-Serif" font-size="10.00"> model</text>
</g>
<!-- Node14 -->
<g id="node14" class="node"><title>Node14</title>
<g id="a_node14"><a xlink:href="../../d3/dd9/classbackend_1_1command_1_1_command_factory.html" target="_top" xlink:title="backend.command.CommandFactory">
<polygon fill="white" stroke="black" points="820.5,-221.8 820.5,-240.8 1017.5,-240.8 1017.5,-221.8 820.5,-221.8"/>
<text text-anchor="middle" x="919" y="-228.8" font-family="Helvetica,sans-Serif" font-size="10.00">backend.command.CommandFactory</text>
</a>
</g>
</g>
<!-- Node8&#45;&gt;Node14 -->
<g id="edge15" class="edge"><title>Node8&#45;&gt;Node14</title>
<path fill="none" stroke="#9a32cd" stroke-dasharray="5,2" d="M674.995,-252.026C693.957,-244.627 718.928,-236.148 742,-232.3 767.167,-228.103 794.64,-226.538 820.239,-226.334"/>
<polygon fill="#9a32cd" stroke="#9a32cd" points="673.648,-248.796 665.669,-255.767 676.254,-255.292 673.648,-248.796"/>
<text text-anchor="middle" x="772" y="-235.3" font-family="Helvetica,sans-Serif" font-size="10.00"> model</text>
</g>
<!-- Node9 -->
<g id="node9" class="node"><title>Node9</title>
<polygon fill="white" stroke="#bfbfbf" points="263.5,-369.3 263.5,-399.3 414.5,-399.3 414.5,-369.3 263.5,-369.3"/>
<text text-anchor="start" x="271.5" y="-387.3" font-family="Helvetica,sans-Serif" font-size="10.00">HashMap&lt; String, backend.</text>
<text text-anchor="middle" x="339" y="-376.3" font-family="Helvetica,sans-Serif" font-size="10.00">Variable &gt;</text>
</g>
<!-- Node9&#45;&gt;Node8 -->
<g id="edge9" class="edge"><title>Node9&#45;&gt;Node8</title>
<path fill="none" stroke="#9a32cd" stroke-dasharray="5,2" d="M424.535,-372.785C462.26,-365.659 506.548,-354.478 544,-337.3 579.693,-320.929 615.253,-290.339 632.031,-274.834"/>
<polygon fill="#9a32cd" stroke="#9a32cd" points="423.798,-369.362 414.588,-374.6 425.054,-376.248 423.798,-369.362"/>
<text text-anchor="middle" x="492" y="-372.3" font-family="Helvetica,sans-Serif" font-size="10.00"> userVariables</text>
</g>
<!-- Node10 -->
<g id="node10" class="node"><title>Node10</title>
<polygon fill="white" stroke="#bfbfbf" points="281,-330.8 281,-349.8 397,-349.8 397,-330.8 281,-330.8"/>
<text text-anchor="middle" x="339" y="-337.8" font-family="Helvetica,sans-Serif" font-size="10.00">Stack&lt; Command &gt;</text>
</g>
<!-- Node10&#45;&gt;Node8 -->
<g id="edge10" class="edge"><title>Node10&#45;&gt;Node8</title>
<path fill="none" stroke="#9a32cd" stroke-dasharray="5,2" d="M407.174,-329.732C447.242,-322.785 498.926,-312.693 544,-300.3 569.781,-293.211 598.508,-282.621 618.157,-274.947"/>
<polygon fill="#9a32cd" stroke="#9a32cd" points="406.515,-326.294 397.248,-331.43 407.695,-333.194 406.515,-326.294"/>
<text text-anchor="middle" x="492" y="-325.3" font-family="Helvetica,sans-Serif" font-size="10.00"> executedCommands</text>
</g>
<!-- Node11 -->
<g id="node11" class="node"><title>Node11</title>
<polygon fill="white" stroke="#bfbfbf" points="263.5,-281.3 263.5,-311.3 414.5,-311.3 414.5,-281.3 263.5,-281.3"/>
<text text-anchor="start" x="271.5" y="-299.3" font-family="Helvetica,sans-Serif" font-size="10.00">HashMap&lt; String, backend.</text>
<text text-anchor="middle" x="339" y="-288.3" font-family="Helvetica,sans-Serif" font-size="10.00">UserInstructionContainer &gt;</text>
</g>
<!-- Node11&#45;&gt;Node8 -->
<g id="edge11" class="edge"><title>Node11&#45;&gt;Node8</title>
<path fill="none" stroke="#9a32cd" stroke-dasharray="5,2" d="M424.631,-287.613C481.009,-281.826 552.796,-274.457 598.092,-269.807"/>
<polygon fill="#9a32cd" stroke="#9a32cd" points="424.242,-284.134 414.652,-288.637 424.957,-291.098 424.242,-284.134"/>
<text text-anchor="middle" x="492" y="-288.3" font-family="Helvetica,sans-Serif" font-size="10.00"> userInstructions</text>
</g>
<!-- Node12 -->
<g id="node12" class="node"><title>Node12</title>
<g id="a_node12"><a xlink:href="../../da/d26/classbackend_1_1_s_logo_parser.html" target="_top" xlink:title="backend.SLogoParser">
<polygon fill="white" stroke="black" points="1148,-265.8 1148,-284.8 1268,-284.8 1268,-265.8 1148,-265.8"/>
<text text-anchor="middle" x="1208" y="-272.8" font-family="Helvetica,sans-Serif" font-size="10.00">backend.SLogoParser</text>
</a>
</g>
</g>
<!-- Node12&#45;&gt;Node8 -->
<g id="edge12" class="edge"><title>Node12&#45;&gt;Node8</title>
<path fill="none" stroke="#9a32cd" stroke-dasharray="5,2" d="M1137.99,-284.837C1124.1,-286.698 1109.59,-288.599 1096,-290.3 974.22,-305.553 942.174,-310.993 820,-299.3 771.983,-294.705 717.591,-283.21 682.147,-274.855"/>
<polygon fill="#9a32cd" stroke="#9a32cd" points="1138.54,-288.296 1147.98,-283.493 1137.6,-281.358 1138.54,-288.296"/>
<text text-anchor="middle" x="919" y="-308.3" font-family="Helvetica,sans-Serif" font-size="10.00"> parser</text>
</g>
<!-- Node13 -->
<g id="node13" class="node"><title>Node13</title>
<polygon fill="white" stroke="#bfbfbf" points="863,-260.3 863,-290.3 975,-290.3 975,-260.3 863,-260.3"/>
<text text-anchor="start" x="871" y="-278.3" font-family="Helvetica,sans-Serif" font-size="10.00">List&lt; Entry&lt; String,</text>
<text text-anchor="middle" x="919" y="-267.3" font-family="Helvetica,sans-Serif" font-size="10.00"> Pattern &gt; &gt;</text>
</g>
<!-- Node13&#45;&gt;Node12 -->
<g id="edge13" class="edge"><title>Node13&#45;&gt;Node12</title>
<path fill="none" stroke="#9a32cd" stroke-dasharray="5,2" d="M985.491,-275.3C1034.37,-275.3 1100.6,-275.3 1147.88,-275.3"/>
<polygon fill="#9a32cd" stroke="#9a32cd" points="985.337,-271.8 975.336,-275.3 985.336,-278.8 985.337,-271.8"/>
<text text-anchor="middle" x="1066" y="-278.3" font-family="Helvetica,sans-Serif" font-size="10.00"> patterns</text>
</g>
<!-- Node14&#45;&gt;Node8 -->
<g id="edge24" class="edge"><title>Node14&#45;&gt;Node8</title>
<path fill="none" stroke="#9a32cd" stroke-dasharray="5,2" d="M831.234,-242.067C783.461,-247.995 726.227,-255.097 687.719,-259.875"/>
<polygon fill="#9a32cd" stroke="#9a32cd" points="831.782,-245.526 841.275,-240.821 830.92,-238.579 831.782,-245.526"/>
<text text-anchor="middle" x="772" y="-256.3" font-family="Helvetica,sans-Serif" font-size="10.00"> comFactory</text>
</g>
<!-- Node14&#45;&gt;Node12 -->
<g id="edge14" class="edge"><title>Node14&#45;&gt;Node12</title>
<path fill="none" stroke="#9a32cd" stroke-dasharray="5,2" d="M992.301,-242.385C1040.36,-249.752 1102.68,-259.307 1147.79,-266.223"/>
<polygon fill="#9a32cd" stroke="#9a32cd" points="992.69,-238.903 982.275,-240.848 991.629,-245.823 992.69,-238.903"/>
<text text-anchor="middle" x="1066" y="-260.3" font-family="Helvetica,sans-Serif" font-size="10.00"> comFactory</text>
</g>
<!-- Node15 -->
<g id="node15" class="node"><title>Node15</title>
<g id="a_node15"><a xlink:href="../../d1/d68/classbackend_1_1_grid.html" target="_top" xlink:title="backend.Grid">
<polygon fill="white" stroke="black" points="299,-181.8 299,-200.8 379,-200.8 379,-181.8 299,-181.8"/>
<text text-anchor="middle" x="339" y="-188.8" font-family="Helvetica,sans-Serif" font-size="10.00">backend.Grid</text>
</a>
</g>
</g>
<!-- Node15&#45;&gt;Node8 -->
<g id="edge16" class="edge"><title>Node15&#45;&gt;Node8</title>
<path fill="none" stroke="#9a32cd" stroke-dasharray="5,2" d="M389.438,-196.843C431.153,-202.216 492.182,-211.717 544,-226.3 571.498,-234.039 601.874,-246.828 621.409,-255.639"/>
<polygon fill="#9a32cd" stroke="#9a32cd" points="389.624,-193.339 379.266,-195.566 388.752,-200.285 389.624,-193.339"/>
<text text-anchor="middle" x="492" y="-229.3" font-family="Helvetica,sans-Serif" font-size="10.00"> grid</text>
</g>
<!-- Node16 -->
<g id="node16" class="node"><title>Node16</title>
<polygon fill="white" stroke="#bfbfbf" points="57.5,-274.8 57.5,-293.8 98.5,-293.8 98.5,-274.8 57.5,-274.8"/>
<text text-anchor="middle" x="78" y="-281.8" font-family="Helvetica,sans-Serif" font-size="10.00">Color</text>
</g>
<!-- Node16&#45;&gt;Node15 -->
<g id="edge17" class="edge"><title>Node16&#45;&gt;Node15</title>
<path fill="none" stroke="#9a32cd" stroke-dasharray="5,2" d="M108.589,-276.918C140.837,-268.559 193.746,-253.921 238,-237.3 242.003,-235.797 289.299,-213.906 317.388,-200.873"/>
<polygon fill="#9a32cd" stroke="#9a32cd" points="107.7,-273.533 98.8822,-279.406 109.438,-280.314 107.7,-273.533"/>
<text text-anchor="middle" x="206" y="-261.3" font-family="Helvetica,sans-Serif" font-size="10.00"> bgColor</text>
</g>
<!-- Node17 -->
<g id="node17" class="node"><title>Node17</title>
<g id="a_node17"><a xlink:href="../../df/d77/classbackend_1_1_bi_index.html" target="_top" xlink:title="backend.BiIndex\&lt; String \&gt;">
<polygon fill="white" stroke="black" points="5,-230.8 5,-249.8 151,-249.8 151,-230.8 5,-230.8"/>
<text text-anchor="middle" x="78" y="-237.8" font-family="Helvetica,sans-Serif" font-size="10.00">backend.BiIndex&lt; String &gt;</text>
</a>
</g>
</g>
<!-- Node17&#45;&gt;Node8 -->
<g id="edge23" class="edge"><title>Node17&#45;&gt;Node8</title>
<path fill="none" stroke="#9a32cd" stroke-dasharray="5,2" d="M161.502,-243.964C282.754,-249.348 504.819,-259.209 598.49,-263.368"/>
<polygon fill="#9a32cd" stroke="#9a32cd" points="161.308,-240.452 151.163,-243.505 160.998,-247.445 161.308,-240.452"/>
<text text-anchor="middle" x="339" y="-258.3" font-family="Helvetica,sans-Serif" font-size="10.00"> imageMap</text>
</g>
<!-- Node17&#45;&gt;Node15 -->
<g id="edge18" class="edge"><title>Node17&#45;&gt;Node15</title>
<path fill="none" stroke="#9a32cd" stroke-dasharray="5,2" d="M139.13,-228.924C188.334,-219.615 256.494,-206.72 298.883,-198.701"/>
<polygon fill="#9a32cd" stroke="#9a32cd" points="138.42,-225.496 129.245,-230.794 139.721,-232.374 138.42,-225.496"/>
<text text-anchor="middle" x="206" y="-225.3" font-family="Helvetica,sans-Serif" font-size="10.00"> imageMap</text>
</g>
<!-- Node18 -->
<g id="node18" class="node"><title>Node18</title>
<polygon fill="white" stroke="#bfbfbf" points="3,-185.8 3,-204.8 153,-204.8 153,-185.8 3,-185.8"/>
<text text-anchor="middle" x="78" y="-192.8" font-family="Helvetica,sans-Serif" font-size="10.00">ArrayList&lt; backend.Turtle &gt;</text>
</g>
<!-- Node18&#45;&gt;Node15 -->
<g id="edge19" class="edge"><title>Node18&#45;&gt;Node15</title>
<path fill="none" stroke="#9a32cd" stroke-dasharray="5,2" d="M163.357,-192.524C166.952,-192.441 170.512,-192.366 174,-192.3 216.702,-191.496 265.667,-191.291 298.896,-191.259"/>
<polygon fill="#9a32cd" stroke="#9a32cd" points="163.067,-189.03 153.157,-192.776 163.24,-196.028 163.067,-189.03"/>
<text text-anchor="middle" x="206" y="-195.3" font-family="Helvetica,sans-Serif" font-size="10.00"> activeTurtles</text>
</g>
<!-- Node19 -->
<g id="node19" class="node"><title>Node19</title>
<polygon fill="white" stroke="#bfbfbf" points="44,-147.8 44,-166.8 112,-166.8 112,-147.8 44,-147.8"/>
<text text-anchor="middle" x="78" y="-154.8" font-family="Helvetica,sans-Serif" font-size="10.00">Dimension</text>
</g>
<!-- Node19&#45;&gt;Node15 -->
<g id="edge20" class="edge"><title>Node19&#45;&gt;Node15</title>
<path fill="none" stroke="#9a32cd" stroke-dasharray="5,2" d="M122.547,-162.611C154.512,-166.551 198.974,-172.114 238,-177.3 257.984,-179.956 280.194,-183.051 298.596,-185.654"/>
<polygon fill="#9a32cd" stroke="#9a32cd" points="122.564,-159.087 112.211,-161.341 121.709,-166.035 122.564,-159.087"/>
<text text-anchor="middle" x="206" y="-180.3" font-family="Helvetica,sans-Serif" font-size="10.00"> size</text>
</g>
<!-- Node20 -->
<g id="node20" class="node"><title>Node20</title>
<polygon fill="white" stroke="#bfbfbf" points="0,-98.3002 0,-128.3 156,-128.3 156,-98.3002 0,-98.3002"/>
<text text-anchor="start" x="8" y="-116.3" font-family="Helvetica,sans-Serif" font-size="10.00">HashMap&lt; Integer, backend.</text>
<text text-anchor="middle" x="78" y="-105.3" font-family="Helvetica,sans-Serif" font-size="10.00">Turtle &gt;</text>
</g>
<!-- Node20&#45;&gt;Node15 -->
<g id="edge21" class="edge"><title>Node20&#45;&gt;Node15</title>
<path fill="none" stroke="#9a32cd" stroke-dasharray="5,2" d="M150.806,-130.849C178.24,-137.924 209.716,-146.492 238,-155.3 263.897,-163.365 293.026,-174.038 313.136,-181.665"/>
<polygon fill="#9a32cd" stroke="#9a32cd" points="151.45,-127.401 140.895,-128.312 149.715,-134.183 151.45,-127.401"/>
<text text-anchor="middle" x="206" y="-158.3" font-family="Helvetica,sans-Serif" font-size="10.00"> allTurtles</text>
</g>
<!-- Node21 -->
<g id="node21" class="node"><title>Node21</title>
<g id="a_node21"><a xlink:href="../../df/d77/classbackend_1_1_bi_index.html" target="_top" xlink:title="backend.BiIndex\&lt; Color \&gt;">
<polygon fill="white" stroke="black" points="7,-53.8002 7,-72.8002 149,-72.8002 149,-53.8002 7,-53.8002"/>
<text text-anchor="middle" x="78" y="-60.8002" font-family="Helvetica,sans-Serif" font-size="10.00">backend.BiIndex&lt; Color &gt;</text>
</a>
</g>
</g>
<!-- Node21&#45;&gt;Node8 -->
<g id="edge26" class="edge"><title>Node21&#45;&gt;Node8</title>
<path fill="none" stroke="#9a32cd" stroke-dasharray="5,2" d="M154.88,-74.5645C181.384,-79.1767 211.199,-85.1333 238,-92.3002 377.47,-129.597 414.659,-137.161 544,-201.3 576.587,-217.46 611.516,-242.311 629.58,-255.799"/>
<polygon fill="#9a32cd" stroke="#9a32cd" points="155.344,-71.0931 144.898,-72.8629 154.167,-77.9936 155.344,-71.0931"/>
<text text-anchor="middle" x="339" y="-149.3" font-family="Helvetica,sans-Serif" font-size="10.00"> colorMap</text>
</g>
<!-- Node21&#45;&gt;Node15 -->
<g id="edge22" class="edge"><title>Node21&#45;&gt;Node15</title>
<path fill="none" stroke="#9a32cd" stroke-dasharray="5,2" d="M120.546,-76.0372C132.098,-79.7822 144.6,-84.0262 156,-88.3002 193.104,-102.21 203.231,-104.292 238,-123.3 271.159,-141.428 307.127,-167.682 325.56,-181.672"/>
<polygon fill="#9a32cd" stroke="#9a32cd" points="121.281,-72.5977 110.69,-72.8864 119.149,-79.2653 121.281,-72.5977"/>
<text text-anchor="middle" x="206" y="-126.3" font-family="Helvetica,sans-Serif" font-size="10.00"> colorMap</text>
</g>
<!-- Node22 -->
<g id="node22" class="node"><title>Node22</title>
<polygon fill="white" stroke="#bfbfbf" points="278.5,-0.800161 278.5,-19.8002 399.5,-19.8002 399.5,-0.800161 278.5,-0.800161"/>
<text text-anchor="middle" x="339" y="-7.80016" font-family="Helvetica,sans-Serif" font-size="10.00">Queue&lt; Command &gt;</text>
</g>
<!-- Node22&#45;&gt;Node8 -->
<g id="edge25" class="edge"><title>Node22&#45;&gt;Node8</title>
<path fill="none" stroke="#9a32cd" stroke-dasharray="5,2" d="M409.835,-0.635941C452.517,1.47299 506.016,-3.11448 544,-31.3002 621.46,-88.7781 638.11,-219.162 641.305,-255.651"/>
<polygon fill="#9a32cd" stroke="#9a32cd" points="409.555,2.85343 399.792,-1.26356 409.991,-4.13294 409.555,2.85343"/>
<text text-anchor="middle" x="492" y="-34.3002" font-family="Helvetica,sans-Serif" font-size="10.00"> pendingCommands</text>
</g>
</g>
</svg>
