<?xml version="1.0" encoding="UTF-8" standalone="no"?>
<!DOCTYPE svg PUBLIC "-//W3C//DTD SVG 1.1//EN"
 "http://www.w3.org/Graphics/SVG/1.1/DTD/svg11.dtd">
<!-- Generated by graphviz version 2.36.0 (20140111.2315)
 -->
<!-- Title: backend.command.PenUp.execute Pages: 1 -->
<svg width="676pt" height="28pt"
 viewBox="0.00 0.00 676.00 28.00" xmlns="http://www.w3.org/2000/svg" xmlns:xlink="http://www.w3.org/1999/xlink">
<g id="graph0" class="graph" transform="scale(1 1) rotate(0) translate(4 24)">
<title>backend.command.PenUp.execute</title>
<polygon fill="white" stroke="none" points="-4,4 -4,-24 672,-24 672,4 -4,4"/>
<!-- Node1 -->
<g id="node1" class="node"><title>Node1</title>
<polygon fill="#bfbfbf" stroke="black" points="0.5,-0.5 0.5,-19.5 185.5,-19.5 185.5,-0.5 0.5,-0.5"/>
<text text-anchor="middle" x="93" y="-7.5" font-family="Helvetica,sans-Serif" font-size="10.00">backend.command.PenUp.execute</text>
</g>
<!-- Node2 -->
<g id="node2" class="node"><title>Node2</title>
<g id="a_node2"><a xlink:href="../../df/de2/classbackend_1_1_turtle.html#a6269bcb0ae3cc187871cf135cd046b05" target="_top" xlink:title="backend.Turtle.setPenUp">
<polygon fill="white" stroke="black" points="222.5,-0.5 222.5,-19.5 357.5,-19.5 357.5,-0.5 222.5,-0.5"/>
<text text-anchor="middle" x="290" y="-7.5" font-family="Helvetica,sans-Serif" font-size="10.00">backend.Turtle.setPenUp</text>
</a>
</g>
</g>
<!-- Node1&#45;&gt;Node2 -->
<g id="edge1" class="edge"><title>Node1&#45;&gt;Node2</title>
<path fill="none" stroke="midnightblue" d="M185.505,-10C194.466,-10 203.496,-10 212.288,-10"/>
<polygon fill="midnightblue" stroke="midnightblue" points="212.483,-13.5001 222.483,-10 212.483,-6.5001 212.483,-13.5001"/>
</g>
<!-- Node3 -->
<g id="node3" class="node"><title>Node3</title>
<g id="a_node3"><a xlink:href="../../de/dc9/classbackend_1_1_pen.html#a75748f196e519d6d7cbed599f3617d71" target="_top" xlink:title="backend.Pen.setDown">
<polygon fill="white" stroke="black" points="394,-0.5 394,-19.5 516,-19.5 516,-0.5 394,-0.5"/>
<text text-anchor="middle" x="455" y="-7.5" font-family="Helvetica,sans-Serif" font-size="10.00">backend.Pen.setDown</text>
</a>
</g>
</g>
<!-- Node2&#45;&gt;Node3 -->
<g id="edge2" class="edge"><title>Node2&#45;&gt;Node3</title>
<path fill="none" stroke="midnightblue" d="M357.769,-10C366.363,-10 375.183,-10 383.83,-10"/>
<polygon fill="midnightblue" stroke="midnightblue" points="383.876,-13.5001 393.876,-10 383.876,-6.5001 383.876,-13.5001"/>
</g>
<!-- Node4 -->
<g id="node4" class="node"><title>Node4</title>
<g id="a_node4"><a xlink:href="../../de/dc9/classbackend_1_1_pen.html#abfd32c7785accc4f570322aa0b29f650" target="_top" xlink:title="backend.Pen.isDown">
<polygon fill="white" stroke="black" points="552.5,-0.5 552.5,-19.5 667.5,-19.5 667.5,-0.5 552.5,-0.5"/>
<text text-anchor="middle" x="610" y="-7.5" font-family="Helvetica,sans-Serif" font-size="10.00">backend.Pen.isDown</text>
</a>
</g>
</g>
<!-- Node3&#45;&gt;Node4 -->
<g id="edge3" class="edge"><title>Node3&#45;&gt;Node4</title>
<path fill="none" stroke="midnightblue" d="M516.031,-10C524.575,-10 533.407,-10 542.073,-10"/>
<polygon fill="midnightblue" stroke="midnightblue" points="542.142,-13.5001 552.142,-10 542.142,-6.5001 542.142,-13.5001"/>
</g>
</g>
</svg>
