<?xml version="1.0" encoding="UTF-8" standalone="no"?>
<!DOCTYPE svg PUBLIC "-//W3C//DTD SVG 1.1//EN"
 "http://www.w3.org/Graphics/SVG/1.1/DTD/svg11.dtd">
<!-- Generated by graphviz version 2.36.0 (20140111.2315)
 -->
<!-- Title: backend.Defaults Pages: 1 -->
<svg width="357pt" height="96pt"
 viewBox="0.00 0.00 357.00 96.00" xmlns="http://www.w3.org/2000/svg" xmlns:xlink="http://www.w3.org/1999/xlink">
<g id="graph0" class="graph" transform="scale(1 1) rotate(0) translate(4 92)">
<title>backend.Defaults</title>
<polygon fill="white" stroke="none" points="-4,4 -4,-92 353,-92 353,4 -4,4"/>
<!-- Node1 -->
<g id="node1" class="node"><title>Node1</title>
<polygon fill="#bfbfbf" stroke="black" points="59,-0.5 59,-19.5 159,-19.5 159,-0.5 59,-0.5"/>
<text text-anchor="middle" x="109" y="-7.5" font-family="Helvetica,sans-Serif" font-size="10.00">backend.Defaults</text>
</g>
<!-- Node2 -->
<g id="node2" class="node"><title>Node2</title>
<polygon fill="white" stroke="#bfbfbf" points="-0.5,-68.5 -0.5,-87.5 40.5,-87.5 40.5,-68.5 -0.5,-68.5"/>
<text text-anchor="middle" x="20" y="-75.5" font-family="Helvetica,sans-Serif" font-size="10.00">Color</text>
</g>
<!-- Node2&#45;&gt;Node1 -->
<g id="edge1" class="edge"><title>Node2&#45;&gt;Node1</title>
<path fill="none" stroke="#9a32cd" stroke-dasharray="5,2" d="M26.8993,-59.1894C30.4822,-51.8333 35.4916,-43.7099 42,-38 51.5215,-29.6467 63.9588,-23.682 75.5291,-19.5214"/>
<polygon fill="#9a32cd" stroke="#9a32cd" points="23.6529,-57.8787 22.8911,-68.4461 30.0765,-60.6602 23.6529,-57.8787"/>
<text text-anchor="middle" x="73.5" y="-41.5" font-family="Helvetica,sans-Serif" font-size="10.00"> COLOR_MAP</text>
</g>
<!-- Node3 -->
<g id="node3" class="node"><title>Node3</title>
<g id="a_node3"><a xlink:href="../../d8/d98/classbackend_1_1_heading.html" target="_top" xlink:title="backend.Heading">
<polygon fill="white" stroke="black" points="59,-68.5 59,-87.5 159,-87.5 159,-68.5 59,-68.5"/>
<text text-anchor="middle" x="109" y="-75.5" font-family="Helvetica,sans-Serif" font-size="10.00">backend.Heading</text>
</a>
</g>
</g>
<!-- Node3&#45;&gt;Node1 -->
<g id="edge2" class="edge"><title>Node3&#45;&gt;Node1</title>
<path fill="none" stroke="#9a32cd" stroke-dasharray="5,2" d="M109,-58.0413C109,-45.4724 109,-29.5631 109,-19.8411"/>
<polygon fill="#9a32cd" stroke="#9a32cd" points="105.5,-58.3716 109,-68.3717 112.5,-58.3717 105.5,-58.3716"/>
<text text-anchor="middle" x="170" y="-41.5" font-family="Helvetica,sans-Serif" font-size="10.00"> TURTLE_START_HEADING</text>
</g>
<!-- Node4 -->
<g id="node4" class="node"><title>Node4</title>
<polygon fill="white" stroke="#bfbfbf" points="233.5,-68.5 233.5,-87.5 274.5,-87.5 274.5,-68.5 233.5,-68.5"/>
<text text-anchor="middle" x="254" y="-75.5" font-family="Helvetica,sans-Serif" font-size="10.00">Point</text>
</g>
<!-- Node4&#45;&gt;Node1 -->
<g id="edge3" class="edge"><title>Node4&#45;&gt;Node1</title>
<path fill="none" stroke="#9a32cd" stroke-dasharray="5,2" d="M247.664,-58.9264C244.155,-51.3967 239.048,-43.2107 232,-38 211.08,-22.5333 183.031,-15.6117 159.002,-12.6329"/>
<polygon fill="#9a32cd" stroke="#9a32cd" points="244.513,-60.4729 251.49,-68.4462 251.008,-57.8624 244.513,-60.4729"/>
<text text-anchor="middle" x="296" y="-41.5" font-family="Helvetica,sans-Serif" font-size="10.00"> TURTLE_START_POINT</text>
</g>
</g>
</svg>
