<?xml version="1.0" encoding="UTF-8" standalone="no"?>
<!DOCTYPE svg PUBLIC "-//W3C//DTD SVG 1.1//EN"
 "http://www.w3.org/Graphics/SVG/1.1/DTD/svg11.dtd">
<!-- Generated by graphviz version 2.36.0 (20140111.2315)
 -->
<!-- Title: backend.Stamp Pages: 1 -->
<svg width="201pt" height="96pt"
 viewBox="0.00 0.00 201.00 96.00" xmlns="http://www.w3.org/2000/svg" xmlns:xlink="http://www.w3.org/1999/xlink">
<g id="graph0" class="graph" transform="scale(1 1) rotate(0) translate(4 92)">
<title>backend.Stamp</title>
<polygon fill="white" stroke="none" points="-4,4 -4,-92 197,-92 197,4 -4,4"/>
<!-- Node1 -->
<g id="node1" class="node"><title>Node1</title>
<polygon fill="#bfbfbf" stroke="black" points="74,-0.5 74,-19.5 166,-19.5 166,-0.5 74,-0.5"/>
<text text-anchor="middle" x="120" y="-7.5" font-family="Helvetica,sans-Serif" font-size="10.00">backend.Stamp</text>
</g>
<!-- Node2 -->
<g id="node2" class="node"><title>Node2</title>
<g id="a_node2"><a xlink:href="../../d6/d7e/interfacebackend_1_1_drawable_image.html" target="_top" xlink:title="backend.DrawableImage">
<polygon fill="white" stroke="black" points="0,-68.5 0,-87.5 134,-87.5 134,-68.5 0,-68.5"/>
<text text-anchor="middle" x="67" y="-75.5" font-family="Helvetica,sans-Serif" font-size="10.00">backend.DrawableImage</text>
</a>
</g>
</g>
<!-- Node2&#45;&gt;Node1 -->
<g id="edge1" class="edge"><title>Node2&#45;&gt;Node1</title>
<path fill="none" stroke="midnightblue" d="M80.4025,-60.3101C90.7346,-47.4437 104.615,-30.1583 112.9,-19.8411"/>
<polygon fill="midnightblue" stroke="midnightblue" points="77.4612,-58.383 73.9288,-68.3717 82.9192,-62.766 77.4612,-58.383"/>
</g>
<!-- Node3 -->
<g id="node3" class="node"><title>Node3</title>
<polygon fill="white" stroke="#bfbfbf" points="152.5,-68.5 152.5,-87.5 193.5,-87.5 193.5,-68.5 152.5,-68.5"/>
<text text-anchor="middle" x="173" y="-75.5" font-family="Helvetica,sans-Serif" font-size="10.00">Point</text>
</g>
<!-- Node3&#45;&gt;Node1 -->
<g id="edge2" class="edge"><title>Node3&#45;&gt;Node1</title>
<path fill="none" stroke="#9a32cd" stroke-dasharray="5,2" d="M159.598,-60.3101C149.265,-47.4437 135.385,-30.1583 127.1,-19.8411"/>
<polygon fill="#9a32cd" stroke="#9a32cd" points="157.081,-62.766 166.071,-68.3717 162.539,-58.383 157.081,-62.766"/>
<text text-anchor="middle" x="172.5" y="-41.5" font-family="Helvetica,sans-Serif" font-size="10.00"> location</text>
</g>
</g>
</svg>
