<?xml version="1.0" encoding="UTF-8" standalone="no"?>
<!DOCTYPE svg PUBLIC "-//W3C//DTD SVG 1.1//EN"
 "http://www.w3.org/Graphics/SVG/1.1/DTD/svg11.dtd">
<!-- Generated by graphviz version 2.36.0 (20140111.2315)
 -->
<!-- Title: backend.command.ArcTangent Pages: 1 -->
<svg width="297pt" height="236pt"
 viewBox="0.00 0.00 297.00 236.00" xmlns="http://www.w3.org/2000/svg" xmlns:xlink="http://www.w3.org/1999/xlink">
<g id="graph0" class="graph" transform="scale(1 1) rotate(0) translate(4 232)">
<title>backend.command.ArcTangent</title>
<polygon fill="white" stroke="none" points="-4,4 -4,-232 293,-232 293,4 -4,4"/>
<!-- Node1 -->
<g id="node1" class="node"><title>Node1</title>
<polygon fill="#bfbfbf" stroke="black" points="47.5,-0.5 47.5,-19.5 212.5,-19.5 212.5,-0.5 47.5,-0.5"/>
<text text-anchor="middle" x="130" y="-7.5" font-family="Helvetica,sans-Serif" font-size="10.00">backend.command.ArcTangent</text>
</g>
<!-- Node2 -->
<g id="node2" class="node"><title>Node2</title>
<g id="a_node2"><a xlink:href="../../d3/d64/classbackend_1_1command_1_1_unary_math_operation.html" target="_top" xlink:title="backend.command.UnaryMath\lOperation">
<polygon fill="white" stroke="black" points="48,-59 48,-89 212,-89 212,-59 48,-59"/>
<text text-anchor="start" x="56" y="-77" font-family="Helvetica,sans-Serif" font-size="10.00">backend.command.UnaryMath</text>
<text text-anchor="middle" x="130" y="-66" font-family="Helvetica,sans-Serif" font-size="10.00">Operation</text>
</a>
</g>
</g>
<!-- Node2&#45;&gt;Node1 -->
<g id="edge1" class="edge"><title>Node2&#45;&gt;Node1</title>
<path fill="none" stroke="midnightblue" d="M130,-48.8706C130,-38.6625 130,-27.4077 130,-19.8419"/>
<polygon fill="midnightblue" stroke="midnightblue" points="126.5,-48.9312 130,-58.9312 133.5,-48.9313 126.5,-48.9312"/>
</g>
<!-- Node3 -->
<g id="node3" class="node"><title>Node3</title>
<g id="a_node3"><a xlink:href="../../dc/d83/classbackend_1_1command_1_1_command.html" target="_top" xlink:title="backend.command.Command">
<polygon fill="white" stroke="black" points="49,-128.5 49,-147.5 211,-147.5 211,-128.5 49,-128.5"/>
<text text-anchor="middle" x="130" y="-135.5" font-family="Helvetica,sans-Serif" font-size="10.00">backend.command.Command</text>
</a>
</g>
</g>
<!-- Node3&#45;&gt;Node2 -->
<g id="edge2" class="edge"><title>Node3&#45;&gt;Node2</title>
<path fill="none" stroke="midnightblue" d="M130,-118.183C130,-108.886 130,-97.8507 130,-89.263"/>
<polygon fill="midnightblue" stroke="midnightblue" points="126.5,-118.379 130,-128.379 133.5,-118.379 126.5,-118.379"/>
</g>
<!-- Node3&#45;&gt;Node3 -->
<g id="edge4" class="edge"><title>Node3&#45;&gt;Node3</title>
<path fill="none" stroke="#9a32cd" stroke-dasharray="5,2" d="M221.171,-141.486C226.084,-140.634 229,-139.471 229,-138 229,-135.703 221.894,-134.16 211.18,-133.37"/>
<polygon fill="#9a32cd" stroke="#9a32cd" points="220.717,-138.015 211.18,-142.63 221.513,-144.97 220.717,-138.015"/>
<text text-anchor="middle" x="246.5" y="-135.5" font-family="Helvetica,sans-Serif" font-size="10.00"> parent</text>
</g>
<!-- Node4 -->
<g id="node4" class="node"><title>Node4</title>
<g id="a_node4"><a xlink:href="../../d0/d6a/classbackend_1_1_string_pair.html" target="_top" xlink:title="backend.StringPair">
<polygon fill="white" stroke="black" points="0,-202.5 0,-221.5 106,-221.5 106,-202.5 0,-202.5"/>
<text text-anchor="middle" x="53" y="-209.5" font-family="Helvetica,sans-Serif" font-size="10.00">backend.StringPair</text>
</a>
</g>
</g>
<!-- Node4&#45;&gt;Node3 -->
<g id="edge3" class="edge"><title>Node4&#45;&gt;Node3</title>
<path fill="none" stroke="#9a32cd" stroke-dasharray="5,2" d="M69.5857,-195.491C85.2817,-180.815 108.264,-159.325 120.877,-147.531"/>
<polygon fill="#9a32cd" stroke="#9a32cd" points="67.0491,-193.071 62.1353,-202.458 71.83,-198.184 67.0491,-193.071"/>
<text text-anchor="middle" x="125" y="-169.5" font-family="Helvetica,sans-Serif" font-size="10.00"> stringPair</text>
</g>
<!-- Node5 -->
<g id="node5" class="node"><title>Node5</title>
<polygon fill="white" stroke="#bfbfbf" points="124.5,-197 124.5,-227 289.5,-227 289.5,-197 124.5,-197"/>
<text text-anchor="start" x="132.5" y="-215" font-family="Helvetica,sans-Serif" font-size="10.00">ArrayList&lt; backend.command.</text>
<text text-anchor="middle" x="207" y="-204" font-family="Helvetica,sans-Serif" font-size="10.00">Command &gt;</text>
</g>
<!-- Node5&#45;&gt;Node3 -->
<g id="edge5" class="edge"><title>Node5&#45;&gt;Node3</title>
<path fill="none" stroke="#9a32cd" stroke-dasharray="5,2" d="M184.361,-189.831C169.362,-175.806 150.472,-158.143 139.367,-147.759"/>
<polygon fill="#9a32cd" stroke="#9a32cd" points="182.093,-192.502 191.787,-196.775 186.874,-187.389 182.093,-192.502"/>
<text text-anchor="middle" x="191" y="-169.5" font-family="Helvetica,sans-Serif" font-size="10.00"> params</text>
</g>
</g>
</svg>
