<?xml version="1.0" encoding="UTF-8" standalone="no"?>
<!DOCTYPE svg PUBLIC "-//W3C//DTD SVG 1.1//EN"
 "http://www.w3.org/Graphics/SVG/1.1/DTD/svg11.dtd">
<!-- Generated by graphviz version 2.36.0 (20140111.2315)
 -->
<!-- Title: gui.Main Pages: 1 -->
<svg width="1350pt" height="766pt"
 viewBox="0.00 0.00 1350.00 766.00" xmlns="http://www.w3.org/2000/svg" xmlns:xlink="http://www.w3.org/1999/xlink">
<g id="graph0" class="graph" transform="scale(1 1) rotate(0) translate(4 762)">
<title>gui.Main</title>
<polygon fill="white" stroke="none" points="-4,4 -4,-762 1346,-762 1346,4 -4,4"/>
<!-- Node1 -->
<g id="node1" class="node"><title>Node1</title>
<polygon fill="#bfbfbf" stroke="black" points="1254,-374.5 1254,-393.5 1310,-393.5 1310,-374.5 1254,-374.5"/>
<text text-anchor="middle" x="1282" y="-381.5" font-family="Helvetica,sans-Serif" font-size="10.00">gui.Main</text>
</g>
<!-- Node2 -->
<g id="node2" class="node"><title>Node2</title>
<polygon fill="white" stroke="#bfbfbf" points="966.5,-507.5 966.5,-526.5 1035.5,-526.5 1035.5,-507.5 966.5,-507.5"/>
<text text-anchor="middle" x="1001" y="-514.5" font-family="Helvetica,sans-Serif" font-size="10.00">Application</text>
</g>
<!-- Node2&#45;&gt;Node1 -->
<g id="edge1" class="edge"><title>Node2&#45;&gt;Node1</title>
<path fill="none" stroke="midnightblue" d="M1045.82,-518.543C1088.99,-518.11 1155.34,-512.053 1204,-483 1241.02,-460.899 1266.84,-413.763 1276.63,-393.539"/>
<polygon fill="midnightblue" stroke="midnightblue" points="1045.64,-515.043 1035.64,-518.545 1045.64,-522.043 1045.64,-515.043"/>
</g>
<!-- Node3 -->
<g id="node3" class="node"><title>Node3</title>
<polygon fill="white" stroke="#bfbfbf" points="978.5,-469.5 978.5,-488.5 1023.5,-488.5 1023.5,-469.5 978.5,-469.5"/>
<text text-anchor="middle" x="1001" y="-476.5" font-family="Helvetica,sans-Serif" font-size="10.00">Stage</text>
</g>
<!-- Node3&#45;&gt;Node1 -->
<g id="edge2" class="edge"><title>Node3&#45;&gt;Node1</title>
<path fill="none" stroke="#9a32cd" stroke-dasharray="5,2" d="M1033.77,-477.69C1074.71,-475.01 1147.35,-466.847 1204,-442 1231.28,-430.033 1257.85,-406.667 1271.51,-393.539"/>
<polygon fill="#9a32cd" stroke="#9a32cd" points="1033.36,-474.208 1023.59,-478.286 1033.77,-481.196 1033.36,-474.208"/>
<text text-anchor="middle" x="1161" y="-471" font-family="Helvetica,sans-Serif" font-size="10.00"> stage</text>
</g>
<!-- Node4 -->
<g id="node4" class="node"><title>Node4</title>
<polygon fill="white" stroke="#bfbfbf" points="918,-393.5 918,-412.5 1084,-412.5 1084,-393.5 918,-393.5"/>
<text text-anchor="middle" x="1001" y="-400.5" font-family="Helvetica,sans-Serif" font-size="10.00">HashMap&lt; Tab, gui.SlogoTab &gt;</text>
</g>
<!-- Node4&#45;&gt;Node1 -->
<g id="edge3" class="edge"><title>Node4&#45;&gt;Node1</title>
<path fill="none" stroke="#9a32cd" stroke-dasharray="5,2" d="M1094.47,-396.703C1150.21,-392.907 1217.31,-388.337 1253.92,-385.844"/>
<polygon fill="#9a32cd" stroke="#9a32cd" points="1093.94,-393.231 1084.2,-397.402 1094.41,-400.215 1093.94,-393.231"/>
<text text-anchor="middle" x="1161" y="-398" font-family="Helvetica,sans-Serif" font-size="10.00"> tabSLogoTabMap</text>
</g>
<!-- Node5 -->
<g id="node5" class="node"><title>Node5</title>
<polygon fill="white" stroke="#bfbfbf" points="977.5,-355.5 977.5,-374.5 1024.5,-374.5 1024.5,-355.5 977.5,-355.5"/>
<text text-anchor="middle" x="1001" y="-362.5" font-family="Helvetica,sans-Serif" font-size="10.00">Scene</text>
</g>
<!-- Node5&#45;&gt;Node1 -->
<g id="edge4" class="edge"><title>Node5&#45;&gt;Node1</title>
<path fill="none" stroke="#9a32cd" stroke-dasharray="5,2" d="M1034.99,-365.956C1075.02,-367.272 1144.54,-370.059 1204,-375 1220.63,-376.382 1239.22,-378.537 1253.96,-380.392"/>
<polygon fill="#9a32cd" stroke="#9a32cd" points="1034.86,-362.45 1024.75,-365.63 1034.64,-369.446 1034.86,-362.45"/>
<text text-anchor="middle" x="1161" y="-378" font-family="Helvetica,sans-Serif" font-size="10.00"> scene</text>
</g>
<!-- Node6 -->
<g id="node6" class="node"><title>Node6</title>
<g id="a_node6"><a xlink:href="../../d5/d8a/classgui_1_1_slogo_tab.html" target="_top" xlink:title="gui.SlogoTab">
<polygon fill="white" stroke="black" points="962.5,-431.5 962.5,-450.5 1039.5,-450.5 1039.5,-431.5 962.5,-431.5"/>
<text text-anchor="middle" x="1001" y="-438.5" font-family="Helvetica,sans-Serif" font-size="10.00">gui.SlogoTab</text>
</a>
</g>
</g>
<!-- Node6&#45;&gt;Node1 -->
<g id="edge5" class="edge"><title>Node6&#45;&gt;Node1</title>
<path fill="none" stroke="#9a32cd" stroke-dasharray="5,2" d="M1049.65,-436.051C1090.87,-431.209 1151.88,-422.696 1204,-410 1221.82,-405.658 1241.4,-399.022 1256.35,-393.54"/>
<polygon fill="#9a32cd" stroke="#9a32cd" points="1049.15,-432.585 1039.61,-437.203 1049.94,-439.539 1049.15,-432.585"/>
<text text-anchor="middle" x="1161" y="-430" font-family="Helvetica,sans-Serif" font-size="10.00"> activeTab</text>
</g>
<!-- Node7 -->
<g id="node7" class="node"><title>Node7</title>
<polygon fill="white" stroke="#bfbfbf" points="54,-615.5 54,-634.5 102,-634.5 102,-615.5 54,-615.5"/>
<text text-anchor="middle" x="78" y="-622.5" font-family="Helvetica,sans-Serif" font-size="10.00">Region</text>
</g>
<!-- Node7&#45;&gt;Node6 -->
<g id="edge6" class="edge"><title>Node7&#45;&gt;Node6</title>
<path fill="none" stroke="midnightblue" d="M112.031,-626.391C174.279,-628.746 313.2,-632.73 430,-627 633.467,-617.018 738.704,-706.784 884,-564 917.458,-531.12 869.165,-493.502 902,-460 917.406,-444.281 941.645,-439.482 962.162,-438.637"/>
<polygon fill="midnightblue" stroke="midnightblue" points="112.145,-622.893 102.017,-626.001 111.873,-629.888 112.145,-622.893"/>
</g>
<!-- Node9 -->
<g id="node9" class="node"><title>Node9</title>
<g id="a_node9"><a xlink:href="../../d8/d85/classgui_1_1text_areas_1_1_abstract_editable_text_box.html" target="_top" xlink:title="gui.textAreas.AbstractEditable\lTextBox">
<polygon fill="white" stroke="black" points="268,-468 268,-498 430,-498 430,-468 268,-468"/>
<text text-anchor="start" x="276" y="-486" font-family="Helvetica,sans-Serif" font-size="10.00">gui.textAreas.AbstractEditable</text>
<text text-anchor="middle" x="349" y="-475" font-family="Helvetica,sans-Serif" font-size="10.00">TextBox</text>
</a>
</g>
</g>
<!-- Node7&#45;&gt;Node9 -->
<g id="edge9" class="edge"><title>Node7&#45;&gt;Node9</title>
<path fill="none" stroke="midnightblue" d="M112.274,-618.847C148.951,-610.762 208.275,-593.712 250,-562 260.901,-553.715 258.173,-546.534 268,-537 283.755,-521.715 304.334,-507.933 320.675,-498.118"/>
<polygon fill="midnightblue" stroke="midnightblue" points="111.178,-615.501 102.113,-620.985 112.619,-622.351 111.178,-615.501"/>
</g>
<!-- Node14 -->
<g id="node14" class="node"><title>Node14</title>
<g id="a_node14"><a xlink:href="../../d8/d8d/classgui_1_1_drawing_area.html" target="_top" xlink:title="gui.DrawingArea">
<polygon fill="white" stroke="black" points="301.5,-691.5 301.5,-710.5 396.5,-710.5 396.5,-691.5 301.5,-691.5"/>
<text text-anchor="middle" x="349" y="-698.5" font-family="Helvetica,sans-Serif" font-size="10.00">gui.DrawingArea</text>
</a>
</g>
</g>
<!-- Node7&#45;&gt;Node14 -->
<g id="edge15" class="edge"><title>Node7&#45;&gt;Node14</title>
<path fill="none" stroke="midnightblue" d="M111.83,-636.755C130.038,-643.099 153.152,-650.863 174,-657 218.986,-670.243 271.215,-683.122 306.624,-691.488"/>
<polygon fill="midnightblue" stroke="midnightblue" points="112.86,-633.407 102.265,-633.397 110.541,-640.012 112.86,-633.407"/>
</g>
<!-- Node20 -->
<g id="node20" class="node"><title>Node20</title>
<g id="a_node20"><a xlink:href="../../db/d89/classgui_1_1_run_buttons.html" target="_top" xlink:title="gui.RunButtons">
<polygon fill="white" stroke="black" points="304.5,-398.5 304.5,-417.5 393.5,-417.5 393.5,-398.5 304.5,-398.5"/>
<text text-anchor="middle" x="349" y="-405.5" font-family="Helvetica,sans-Serif" font-size="10.00">gui.RunButtons</text>
</a>
</g>
</g>
<!-- Node7&#45;&gt;Node20 -->
<g id="edge26" class="edge"><title>Node7&#45;&gt;Node20</title>
<path fill="none" stroke="midnightblue" d="M101.847,-609.73C121.056,-596.92 149.263,-578.176 174,-562 207.637,-540.005 225.448,-544.818 250,-513 265.713,-492.637 252.144,-478.252 268,-458 282.64,-439.301 306.361,-425.743 324.179,-417.502"/>
<polygon fill="midnightblue" stroke="midnightblue" points="99.8217,-606.873 93.4469,-615.336 103.708,-612.696 99.8217,-606.873"/>
</g>
<!-- Node8 -->
<g id="node8" class="node"><title>Node8</title>
<g id="a_node8"><a xlink:href="../../d3/d45/classgui_1_1text_areas_1_1_user_variables_box.html" target="_top" xlink:title="gui.textAreas.UserVariablesBox">
<polygon fill="white" stroke="black" points="585.5,-553.5 585.5,-572.5 752.5,-572.5 752.5,-553.5 585.5,-553.5"/>
<text text-anchor="middle" x="669" y="-560.5" font-family="Helvetica,sans-Serif" font-size="10.00">gui.textAreas.UserVariablesBox</text>
</a>
</g>
</g>
<!-- Node8&#45;&gt;Node6 -->
<g id="edge7" class="edge"><title>Node8&#45;&gt;Node6</title>
<path fill="none" stroke="#9a32cd" stroke-dasharray="5,2" d="M762.629,-554.636C803.88,-546.711 850.58,-531.418 884,-502 899.244,-488.581 886.192,-472.749 902,-460 918.728,-446.509 942.243,-441.63 962.046,-440.185"/>
<polygon fill="#9a32cd" stroke="#9a32cd" points="761.77,-551.234 752.547,-556.449 763.009,-558.124 761.77,-551.234"/>
<text text-anchor="middle" x="835" y="-552" font-family="Helvetica,sans-Serif" font-size="10.00"> userVariablesBox</text>
</g>
<!-- Node9&#45;&gt;Node8 -->
<g id="edge8" class="edge"><title>Node9&#45;&gt;Node8</title>
<path fill="none" stroke="midnightblue" d="M440.489,-497.499C475.579,-503.895 515.923,-512.2 552,-522 584.568,-530.847 621.122,-544.391 644.335,-553.464"/>
<polygon fill="midnightblue" stroke="midnightblue" points="440.721,-493.985 430.26,-495.662 439.483,-500.875 440.721,-493.985"/>
</g>
<!-- Node17 -->
<g id="node17" class="node"><title>Node17</title>
<g id="a_node17"><a xlink:href="../../de/da4/classgui_1_1text_areas_1_1_previous_commands_box.html" target="_top" xlink:title="gui.textAreas.PreviousCommandsBox">
<polygon fill="white" stroke="black" points="570.5,-486.5 570.5,-505.5 767.5,-505.5 767.5,-486.5 570.5,-486.5"/>
<text text-anchor="middle" x="669" y="-493.5" font-family="Helvetica,sans-Serif" font-size="10.00">gui.textAreas.PreviousCommandsBox</text>
</a>
</g>
</g>
<!-- Node9&#45;&gt;Node17 -->
<g id="edge19" class="edge"><title>Node9&#45;&gt;Node17</title>
<path fill="none" stroke="midnightblue" d="M440.404,-486.696C481.024,-488.356 529.033,-490.319 570.462,-492.013"/>
<polygon fill="midnightblue" stroke="midnightblue" points="440.379,-483.192 430.245,-486.28 440.093,-490.186 440.379,-483.192"/>
</g>
<!-- Node18 -->
<g id="node18" class="node"><title>Node18</title>
<g id="a_node18"><a xlink:href="../../db/d0f/classgui_1_1text_areas_1_1_status_box.html" target="_top" xlink:title="gui.textAreas.StatusBox">
<polygon fill="white" stroke="black" points="602.5,-448.5 602.5,-467.5 735.5,-467.5 735.5,-448.5 602.5,-448.5"/>
<text text-anchor="middle" x="669" y="-455.5" font-family="Helvetica,sans-Serif" font-size="10.00">gui.textAreas.StatusBox</text>
</a>
</g>
</g>
<!-- Node9&#45;&gt;Node18 -->
<g id="edge22" class="edge"><title>Node9&#45;&gt;Node18</title>
<path fill="none" stroke="midnightblue" d="M440.391,-475.894C491.957,-471.84 555.436,-466.849 602.243,-463.17"/>
<polygon fill="midnightblue" stroke="midnightblue" points="439.94,-472.418 430.245,-476.691 440.488,-479.397 439.94,-472.418"/>
</g>
<!-- Node19 -->
<g id="node19" class="node"><title>Node19</title>
<g id="a_node19"><a xlink:href="../../db/dbc/classgui_1_1text_areas_1_1_command_box.html" target="_top" xlink:title="gui.textAreas.CommandBox">
<polygon fill="white" stroke="black" points="593,-363.5 593,-382.5 745,-382.5 745,-363.5 593,-363.5"/>
<text text-anchor="middle" x="669" y="-370.5" font-family="Helvetica,sans-Serif" font-size="10.00">gui.textAreas.CommandBox</text>
</a>
</g>
</g>
<!-- Node9&#45;&gt;Node19 -->
<g id="edge24" class="edge"><title>Node9&#45;&gt;Node19</title>
<path fill="none" stroke="midnightblue" d="M393.787,-463.896C437.749,-445.191 507.711,-416.706 570,-397 587.369,-391.505 606.799,-386.514 623.75,-382.524"/>
<polygon fill="midnightblue" stroke="midnightblue" points="392.362,-460.699 384.543,-467.849 395.114,-467.136 392.362,-460.699"/>
</g>
<!-- Node10 -->
<g id="node10" class="node"><title>Node10</title>
<polygon fill="white" stroke="#bfbfbf" points="57,-458.5 57,-477.5 99,-477.5 99,-458.5 57,-458.5"/>
<text text-anchor="middle" x="78" y="-465.5" font-family="Helvetica,sans-Serif" font-size="10.00">Label</text>
</g>
<!-- Node10&#45;&gt;Node9 -->
<g id="edge10" class="edge"><title>Node10&#45;&gt;Node9</title>
<path fill="none" stroke="#9a32cd" stroke-dasharray="5,2" d="M109.283,-468.223C143.486,-468.63 200.794,-469.774 250,-473 255.802,-473.38 261.792,-473.836 267.817,-474.34"/>
<polygon fill="#9a32cd" stroke="#9a32cd" points="109.066,-464.721 99.03,-468.116 108.993,-471.721 109.066,-464.721"/>
<text text-anchor="middle" x="212" y="-476" font-family="Helvetica,sans-Serif" font-size="10.00"> label</text>
</g>
<!-- Node11 -->
<g id="node11" class="node"><title>Node11</title>
<polygon fill="white" stroke="#bfbfbf" points="49,-496.5 49,-515.5 107,-515.5 107,-496.5 49,-496.5"/>
<text text-anchor="middle" x="78" y="-503.5" font-family="Helvetica,sans-Serif" font-size="10.00">TextArea</text>
</g>
<!-- Node11&#45;&gt;Node9 -->
<g id="edge11" class="edge"><title>Node11&#45;&gt;Node9</title>
<path fill="none" stroke="#9a32cd" stroke-dasharray="5,2" d="M117.415,-502.715C156.477,-499.376 218.163,-494.101 267.907,-489.848"/>
<polygon fill="#9a32cd" stroke="#9a32cd" points="116.692,-499.264 107.026,-503.604 117.288,-506.239 116.692,-499.264"/>
<text text-anchor="middle" x="212" y="-501" font-family="Helvetica,sans-Serif" font-size="10.00"> textArea</text>
</g>
<!-- Node12 -->
<g id="node12" class="node"><title>Node12</title>
<polygon fill="white" stroke="#bfbfbf" points="328.5,-546.5 328.5,-565.5 369.5,-565.5 369.5,-546.5 328.5,-546.5"/>
<text text-anchor="middle" x="349" y="-553.5" font-family="Helvetica,sans-Serif" font-size="10.00">VBox</text>
</g>
<!-- Node12&#45;&gt;Node8 -->
<g id="edge12" class="edge"><title>Node12&#45;&gt;Node8</title>
<path fill="none" stroke="#9a32cd" stroke-dasharray="5,2" d="M379.928,-556.659C426.513,-557.684 518.013,-559.698 585.443,-561.183"/>
<polygon fill="#9a32cd" stroke="#9a32cd" points="379.967,-553.159 369.892,-556.438 379.813,-560.157 379.967,-553.159"/>
<text text-anchor="middle" x="500" y="-575" font-family="Helvetica,sans-Serif" font-size="10.00"> myLabels</text>
<text text-anchor="middle" x="500" y="-564" font-family="Helvetica,sans-Serif" font-size="10.00">myFields</text>
</g>
<!-- Node12&#45;&gt;Node17 -->
<g id="edge20" class="edge"><title>Node12&#45;&gt;Node17</title>
<path fill="none" stroke="#9a32cd" stroke-dasharray="5,2" d="M379.943,-550.35C434.458,-540.065 550.447,-518.18 617.424,-505.543"/>
<polygon fill="#9a32cd" stroke="#9a32cd" points="379.07,-546.953 369.892,-552.247 380.368,-553.832 379.07,-546.953"/>
<text text-anchor="middle" x="500" y="-540" font-family="Helvetica,sans-Serif" font-size="10.00"> col</text>
</g>
<!-- Node13 -->
<g id="node13" class="node"><title>Node13</title>
<polygon fill="white" stroke="#bfbfbf" points="328,-598.5 328,-617.5 370,-617.5 370,-598.5 328,-598.5"/>
<text text-anchor="middle" x="349" y="-605.5" font-family="Helvetica,sans-Serif" font-size="10.00">HBox</text>
</g>
<!-- Node13&#45;&gt;Node8 -->
<g id="edge13" class="edge"><title>Node13&#45;&gt;Node8</title>
<path fill="none" stroke="#9a32cd" stroke-dasharray="5,2" d="M380.209,-605.812C419.807,-602.726 491.36,-596.401 552,-587 577.098,-583.109 604.978,-577.387 627.113,-572.506"/>
<polygon fill="#9a32cd" stroke="#9a32cd" points="379.86,-602.328 370.156,-606.579 380.393,-609.308 379.86,-602.328"/>
<text text-anchor="middle" x="500" y="-603" font-family="Helvetica,sans-Serif" font-size="10.00"> myData</text>
</g>
<!-- Node14&#45;&gt;Node6 -->
<g id="edge14" class="edge"><title>Node14&#45;&gt;Node6</title>
<path fill="none" stroke="#9a32cd" stroke-dasharray="5,2" d="M390.8,-713.203C490.688,-740.293 749.161,-793.08 884,-660 915.76,-628.654 872.091,-493.118 902,-460 916.868,-443.537 941.368,-438.787 962.151,-438.153"/>
<polygon fill="#9a32cd" stroke="#9a32cd" points="391.653,-709.808 381.081,-710.512 389.784,-716.554 391.653,-709.808"/>
<text text-anchor="middle" x="669" y="-749" font-family="Helvetica,sans-Serif" font-size="10.00"> turtlePanel</text>
</g>
<!-- Node15 -->
<g id="node15" class="node"><title>Node15</title>
<polygon fill="white" stroke="#bfbfbf" points="5.5,-689 5.5,-719 150.5,-719 150.5,-689 5.5,-689"/>
<text text-anchor="start" x="13.5" y="-707" font-family="Helvetica,sans-Serif" font-size="10.00">HashMap&lt; backend.Turtle,</text>
<text text-anchor="middle" x="78" y="-696" font-family="Helvetica,sans-Serif" font-size="10.00"> gui.TurtleImage &gt;</text>
</g>
<!-- Node15&#45;&gt;Node14 -->
<g id="edge16" class="edge"><title>Node15&#45;&gt;Node14</title>
<path fill="none" stroke="#9a32cd" stroke-dasharray="5,2" d="M161.003,-703.085C207.052,-702.572 262.838,-701.95 301.431,-701.519"/>
<polygon fill="#9a32cd" stroke="#9a32cd" points="160.694,-699.589 150.734,-703.2 160.772,-706.588 160.694,-699.589"/>
<text text-anchor="middle" x="212" y="-706" font-family="Helvetica,sans-Serif" font-size="10.00"> turtleMap</text>
</g>
<!-- Node16 -->
<g id="node16" class="node"><title>Node16</title>
<polygon fill="white" stroke="#bfbfbf" points="52,-738.5 52,-757.5 104,-757.5 104,-738.5 52,-738.5"/>
<text text-anchor="middle" x="78" y="-745.5" font-family="Helvetica,sans-Serif" font-size="10.00">Canvas</text>
</g>
<!-- Node16&#45;&gt;Node14 -->
<g id="edge17" class="edge"><title>Node16&#45;&gt;Node14</title>
<path fill="none" stroke="#9a32cd" stroke-dasharray="5,2" d="M114.2,-741.85C162.049,-733.49 247.749,-718.516 301.038,-709.205"/>
<polygon fill="#9a32cd" stroke="#9a32cd" points="113.555,-738.409 104.307,-743.578 114.76,-745.305 113.555,-738.409"/>
<text text-anchor="middle" x="212" y="-733" font-family="Helvetica,sans-Serif" font-size="10.00"> drawingCanvas</text>
</g>
<!-- Node17&#45;&gt;Node6 -->
<g id="edge18" class="edge"><title>Node17&#45;&gt;Node6</title>
<path fill="none" stroke="#9a32cd" stroke-dasharray="5,2" d="M777.677,-488.036C812.073,-483.871 850.022,-477.556 884,-468 892.428,-465.63 893.649,-462.628 902,-460 921.507,-453.862 943.853,-449.345 962.275,-446.26"/>
<polygon fill="#9a32cd" stroke="#9a32cd" points="777.131,-484.576 767.602,-489.207 777.939,-491.529 777.131,-484.576"/>
<text text-anchor="middle" x="835" y="-490" font-family="Helvetica,sans-Serif" font-size="10.00"> prevCommandsBox</text>
</g>
<!-- Node18&#45;&gt;Node6 -->
<g id="edge21" class="edge"><title>Node18&#45;&gt;Node6</title>
<path fill="none" stroke="#9a32cd" stroke-dasharray="5,2" d="M745.778,-454.096C813.451,-450.61 909.759,-445.649 962.277,-442.943"/>
<polygon fill="#9a32cd" stroke="#9a32cd" points="745.399,-450.611 735.592,-454.621 745.759,-457.602 745.399,-450.611"/>
<text text-anchor="middle" x="835" y="-456" font-family="Helvetica,sans-Serif" font-size="10.00"> statusBox</text>
</g>
<!-- Node19&#45;&gt;Node6 -->
<g id="edge23" class="edge"><title>Node19&#45;&gt;Node6</title>
<path fill="none" stroke="#9a32cd" stroke-dasharray="5,2" d="M755.447,-373.894C805.413,-375.848 862.731,-381 884,-394 896.623,-401.715 889.752,-413.702 902,-422 919.648,-433.957 942.96,-438.81 962.42,-440.625"/>
<polygon fill="#9a32cd" stroke="#9a32cd" points="755.356,-370.389 745.239,-373.535 755.11,-377.385 755.356,-370.389"/>
<text text-anchor="middle" x="835" y="-397" font-family="Helvetica,sans-Serif" font-size="10.00"> commandBox</text>
</g>
<!-- Node20&#45;&gt;Node6 -->
<g id="edge28" class="edge"><title>Node20&#45;&gt;Node6</title>
<path fill="none" stroke="#9a32cd" stroke-dasharray="5,2" d="M403.902,-410.438C483.529,-414.072 637.285,-421.211 768,-428 836.487,-431.557 916.322,-436.123 962.232,-438.789"/>
<polygon fill="#9a32cd" stroke="#9a32cd" points="403.783,-406.929 393.634,-409.97 403.465,-413.922 403.783,-406.929"/>
<text text-anchor="middle" x="669" y="-431" font-family="Helvetica,sans-Serif" font-size="10.00"> runButtons</text>
</g>
<!-- Node20&#45;&gt;Node19 -->
<g id="edge25" class="edge"><title>Node20&#45;&gt;Node19</title>
<path fill="none" stroke="#9a32cd" stroke-dasharray="5,2" d="M390.462,-395.697C407.985,-390.887 428.836,-385.849 448,-383 495.84,-375.887 550.119,-373.362 592.792,-372.627"/>
<polygon fill="#9a32cd" stroke="#9a32cd" points="389.244,-392.404 380.568,-398.485 391.142,-399.142 389.244,-392.404"/>
<text text-anchor="middle" x="500" y="-386" font-family="Helvetica,sans-Serif" font-size="10.00"> runButtons</text>
</g>
<!-- Node21 -->
<g id="node21" class="node"><title>Node21</title>
<polygon fill="white" stroke="#bfbfbf" points="53.5,-398.5 53.5,-417.5 102.5,-417.5 102.5,-398.5 53.5,-398.5"/>
<text text-anchor="middle" x="78" y="-405.5" font-family="Helvetica,sans-Serif" font-size="10.00">Button</text>
</g>
<!-- Node21&#45;&gt;Node20 -->
<g id="edge27" class="edge"><title>Node21&#45;&gt;Node20</title>
<path fill="none" stroke="#9a32cd" stroke-dasharray="5,2" d="M112.875,-408C161.459,-408 250.944,-408 304.407,-408"/>
<polygon fill="#9a32cd" stroke="#9a32cd" points="112.872,-404.5 102.872,-408 112.872,-411.5 112.872,-404.5"/>
<text text-anchor="middle" x="212" y="-422" font-family="Helvetica,sans-Serif" font-size="10.00"> runButton</text>
<text text-anchor="middle" x="212" y="-411" font-family="Helvetica,sans-Serif" font-size="10.00">stepButton</text>
</g>
<!-- Node22 -->
<g id="node22" class="node"><title>Node22</title>
<g id="a_node22"><a xlink:href="../../d3/dac/classbackend_1_1_model.html" target="_top" xlink:title="backend.Model">
<polygon fill="white" stroke="black" points="624.5,-150.5 624.5,-169.5 713.5,-169.5 713.5,-150.5 624.5,-150.5"/>
<text text-anchor="middle" x="669" y="-157.5" font-family="Helvetica,sans-Serif" font-size="10.00">backend.Model</text>
</a>
</g>
</g>
<!-- Node22&#45;&gt;Node1 -->
<g id="edge49" class="edge"><title>Node22&#45;&gt;Node1</title>
<path fill="none" stroke="#9a32cd" stroke-dasharray="5,2" d="M691.255,-176.195C730.591,-205.326 818.374,-266.459 902,-298 985.763,-329.593 1012.72,-315.065 1100,-335 1155.06,-347.577 1218.63,-365.613 1253.88,-375.932"/>
<polygon fill="#9a32cd" stroke="#9a32cd" points="692.86,-173.024 682.756,-169.838 688.667,-178.63 692.86,-173.024"/>
<text text-anchor="middle" x="1001" y="-338" font-family="Helvetica,sans-Serif" font-size="10.00"> myModel</text>
</g>
<!-- Node22&#45;&gt;Node6 -->
<g id="edge29" class="edge"><title>Node22&#45;&gt;Node6</title>
<path fill="none" stroke="#9a32cd" stroke-dasharray="5,2" d="M677.109,-179.472C691.589,-216.289 728.114,-296.074 786,-337 822.616,-362.888 851.559,-330.042 884,-361 904.45,-380.515 881.082,-402.989 902,-422 918.16,-436.687 942.153,-441.519 962.353,-442.639"/>
<polygon fill="#9a32cd" stroke="#9a32cd" points="680.295,-178.004 673.466,-169.904 673.753,-180.495 680.295,-178.004"/>
<text text-anchor="middle" x="835" y="-364" font-family="Helvetica,sans-Serif" font-size="10.00"> myModel</text>
</g>
<!-- Node28 -->
<g id="node28" class="node"><title>Node28</title>
<g id="a_node28"><a xlink:href="../../d3/dd9/classbackend_1_1command_1_1_command_factory.html" target="_top" xlink:title="backend.command.CommandFactory">
<polygon fill="white" stroke="black" points="902.5,-132.5 902.5,-151.5 1099.5,-151.5 1099.5,-132.5 902.5,-132.5"/>
<text text-anchor="middle" x="1001" y="-139.5" font-family="Helvetica,sans-Serif" font-size="10.00">backend.command.CommandFactory</text>
</a>
</g>
</g>
<!-- Node22&#45;&gt;Node28 -->
<g id="edge36" class="edge"><title>Node22&#45;&gt;Node28</title>
<path fill="none" stroke="#9a32cd" stroke-dasharray="5,2" d="M723.514,-148.809C743.081,-145.238 765.453,-141.758 786,-140 823.945,-136.753 865.811,-136.427 902.375,-137.203"/>
<polygon fill="#9a32cd" stroke="#9a32cd" points="722.746,-145.392 713.563,-150.676 724.037,-152.272 722.746,-145.392"/>
<text text-anchor="middle" x="835" y="-143" font-family="Helvetica,sans-Serif" font-size="10.00"> model</text>
</g>
<!-- Node23 -->
<g id="node23" class="node"><title>Node23</title>
<polygon fill="white" stroke="#bfbfbf" points="273.5,-39 273.5,-69 424.5,-69 424.5,-39 273.5,-39"/>
<text text-anchor="start" x="281.5" y="-57" font-family="Helvetica,sans-Serif" font-size="10.00">HashMap&lt; String, backend.</text>
<text text-anchor="middle" x="349" y="-46" font-family="Helvetica,sans-Serif" font-size="10.00">Variable &gt;</text>
</g>
<!-- Node23&#45;&gt;Node22 -->
<g id="edge30" class="edge"><title>Node23&#45;&gt;Node22</title>
<path fill="none" stroke="#9a32cd" stroke-dasharray="5,2" d="M434.911,-61.4861C471.746,-66.559 514.859,-75.003 552,-89 593.096,-104.488 635.71,-134.95 655.942,-150.451"/>
<polygon fill="#9a32cd" stroke="#9a32cd" points="435.069,-57.9769 424.698,-60.1429 434.156,-64.9171 435.069,-57.9769"/>
<text text-anchor="middle" x="500" y="-92" font-family="Helvetica,sans-Serif" font-size="10.00"> userVariables</text>
</g>
<!-- Node24 -->
<g id="node24" class="node"><title>Node24</title>
<polygon fill="white" stroke="#bfbfbf" points="291,-0.5 291,-19.5 407,-19.5 407,-0.5 291,-0.5"/>
<text text-anchor="middle" x="349" y="-7.5" font-family="Helvetica,sans-Serif" font-size="10.00">Stack&lt; Command &gt;</text>
</g>
<!-- Node24&#45;&gt;Node22 -->
<g id="edge31" class="edge"><title>Node24&#45;&gt;Node22</title>
<path fill="none" stroke="#9a32cd" stroke-dasharray="5,2" d="M417.377,-13.4116C458.223,-17.753 510.318,-27.456 552,-49 601.771,-74.7249 644.897,-128.482 661.13,-150.393"/>
<polygon fill="#9a32cd" stroke="#9a32cd" points="417.542,-9.91111 407.248,-12.4195 416.859,-16.8778 417.542,-9.91111"/>
<text text-anchor="middle" x="500" y="-52" font-family="Helvetica,sans-Serif" font-size="10.00"> executedCommands</text>
</g>
<!-- Node25 -->
<g id="node25" class="node"><title>Node25</title>
<polygon fill="white" stroke="#bfbfbf" points="273.5,-342 273.5,-372 424.5,-372 424.5,-342 273.5,-342"/>
<text text-anchor="start" x="281.5" y="-360" font-family="Helvetica,sans-Serif" font-size="10.00">HashMap&lt; String, backend.</text>
<text text-anchor="middle" x="349" y="-349" font-family="Helvetica,sans-Serif" font-size="10.00">UserInstructionContainer &gt;</text>
</g>
<!-- Node25&#45;&gt;Node22 -->
<g id="edge32" class="edge"><title>Node25&#45;&gt;Node22</title>
<path fill="none" stroke="#9a32cd" stroke-dasharray="5,2" d="M435.059,-358.745C473.27,-355.963 517.433,-347.507 552,-326 615.287,-286.624 653.306,-198.623 664.506,-169.536"/>
<polygon fill="#9a32cd" stroke="#9a32cd" points="434.737,-355.258 424.969,-359.361 435.163,-362.245 434.737,-355.258"/>
<text text-anchor="middle" x="500" y="-361" font-family="Helvetica,sans-Serif" font-size="10.00"> userInstructions</text>
</g>
<!-- Node26 -->
<g id="node26" class="node"><title>Node26</title>
<g id="a_node26"><a xlink:href="../../da/d26/classbackend_1_1_s_logo_parser.html" target="_top" xlink:title="backend.SLogoParser">
<polygon fill="white" stroke="black" points="1222,-132.5 1222,-151.5 1342,-151.5 1342,-132.5 1222,-132.5"/>
<text text-anchor="middle" x="1282" y="-139.5" font-family="Helvetica,sans-Serif" font-size="10.00">backend.SLogoParser</text>
</a>
</g>
</g>
<!-- Node26&#45;&gt;Node22 -->
<g id="edge33" class="edge"><title>Node26&#45;&gt;Node22</title>
<path fill="none" stroke="#9a32cd" stroke-dasharray="5,2" d="M1226.04,-130.478C1190.31,-123.587 1142.62,-115.508 1100,-112 960.604,-100.526 922.97,-104.68 786,-133 760.183,-138.338 731.308,-145.056 708.825,-150.456"/>
<polygon fill="#9a32cd" stroke="#9a32cd" points="1225.77,-133.991 1236.25,-132.478 1227.11,-127.121 1225.77,-133.991"/>
<text text-anchor="middle" x="1001" y="-115" font-family="Helvetica,sans-Serif" font-size="10.00"> parser</text>
</g>
<!-- Node27 -->
<g id="node27" class="node"><title>Node27</title>
<polygon fill="white" stroke="#bfbfbf" points="945,-171 945,-201 1057,-201 1057,-171 945,-171"/>
<text text-anchor="start" x="953" y="-189" font-family="Helvetica,sans-Serif" font-size="10.00">List&lt; Entry&lt; String,</text>
<text text-anchor="middle" x="1001" y="-178" font-family="Helvetica,sans-Serif" font-size="10.00"> Pattern &gt; &gt;</text>
</g>
<!-- Node27&#45;&gt;Node26 -->
<g id="edge34" class="edge"><title>Node27&#45;&gt;Node26</title>
<path fill="none" stroke="#9a32cd" stroke-dasharray="5,2" d="M1067.47,-177.441C1107.07,-172.056 1158.53,-164.688 1204,-157 1213.67,-155.365 1223.99,-153.464 1233.83,-151.574"/>
<polygon fill="#9a32cd" stroke="#9a32cd" points="1066.86,-173.993 1057.42,-178.801 1067.79,-180.93 1066.86,-173.993"/>
<text text-anchor="middle" x="1161" y="-173" font-family="Helvetica,sans-Serif" font-size="10.00"> patterns</text>
</g>
<!-- Node28&#45;&gt;Node22 -->
<g id="edge45" class="edge"><title>Node28&#45;&gt;Node22</title>
<path fill="none" stroke="#9a32cd" stroke-dasharray="5,2" d="M892.179,-150.495C889.425,-150.67 886.695,-150.839 884,-151 825.166,-154.518 757.151,-157.13 713.877,-158.609"/>
<polygon fill="#9a32cd" stroke="#9a32cd" points="892.486,-153.982 902.235,-149.834 892.027,-146.997 892.486,-153.982"/>
<text text-anchor="middle" x="835" y="-159" font-family="Helvetica,sans-Serif" font-size="10.00"> comFactory</text>
</g>
<!-- Node28&#45;&gt;Node26 -->
<g id="edge35" class="edge"><title>Node28&#45;&gt;Node26</title>
<path fill="none" stroke="#9a32cd" stroke-dasharray="5,2" d="M1109.69,-142C1147.75,-142 1189.14,-142 1221.7,-142"/>
<polygon fill="#9a32cd" stroke="#9a32cd" points="1109.58,-138.5 1099.58,-142 1109.58,-145.5 1109.58,-138.5"/>
<text text-anchor="middle" x="1161" y="-145" font-family="Helvetica,sans-Serif" font-size="10.00"> comFactory</text>
</g>
<!-- Node29 -->
<g id="node29" class="node"><title>Node29</title>
<g id="a_node29"><a xlink:href="../../d1/d68/classbackend_1_1_grid.html" target="_top" xlink:title="backend.Grid">
<polygon fill="white" stroke="black" points="309,-174.5 309,-193.5 389,-193.5 389,-174.5 309,-174.5"/>
<text text-anchor="middle" x="349" y="-181.5" font-family="Helvetica,sans-Serif" font-size="10.00">backend.Grid</text>
</a>
</g>
</g>
<!-- Node29&#45;&gt;Node22 -->
<g id="edge37" class="edge"><title>Node29&#45;&gt;Node22</title>
<path fill="none" stroke="#9a32cd" stroke-dasharray="5,2" d="M399.576,-180.258C461.285,-175.601 565.695,-167.721 624.456,-163.286"/>
<polygon fill="#9a32cd" stroke="#9a32cd" points="399.02,-176.79 389.312,-181.033 399.547,-183.77 399.02,-176.79"/>
<text text-anchor="middle" x="500" y="-180" font-family="Helvetica,sans-Serif" font-size="10.00"> grid</text>
</g>
<!-- Node30 -->
<g id="node30" class="node"><title>Node30</title>
<polygon fill="white" stroke="#bfbfbf" points="57.5,-124.5 57.5,-143.5 98.5,-143.5 98.5,-124.5 57.5,-124.5"/>
<text text-anchor="middle" x="78" y="-131.5" font-family="Helvetica,sans-Serif" font-size="10.00">Color</text>
</g>
<!-- Node30&#45;&gt;Node29 -->
<g id="edge38" class="edge"><title>Node30&#45;&gt;Node29</title>
<path fill="none" stroke="#9a32cd" stroke-dasharray="5,2" d="M108.687,-139.518C157.391,-148.571 254.266,-166.577 308.638,-176.684"/>
<polygon fill="#9a32cd" stroke="#9a32cd" points="109.251,-136.063 98.7802,-137.677 107.972,-142.945 109.251,-136.063"/>
<text text-anchor="middle" x="212" y="-168" font-family="Helvetica,sans-Serif" font-size="10.00"> bgColor</text>
</g>
<!-- Node31 -->
<g id="node31" class="node"><title>Node31</title>
<g id="a_node31"><a xlink:href="../../df/d77/classbackend_1_1_bi_index.html" target="_top" xlink:title="backend.BiIndex\&lt; String \&gt;">
<polygon fill="white" stroke="black" points="5,-297.5 5,-316.5 151,-316.5 151,-297.5 5,-297.5"/>
<text text-anchor="middle" x="78" y="-304.5" font-family="Helvetica,sans-Serif" font-size="10.00">backend.BiIndex&lt; String &gt;</text>
</a>
</g>
</g>
<!-- Node31&#45;&gt;Node22 -->
<g id="edge44" class="edge"><title>Node31&#45;&gt;Node22</title>
<path fill="none" stroke="#9a32cd" stroke-dasharray="5,2" d="M161.315,-307.094C189.617,-305.958 221.376,-303.378 250,-298 406.224,-268.646 584.529,-195.891 645.902,-169.639"/>
<polygon fill="#9a32cd" stroke="#9a32cd" points="160.929,-303.605 151.056,-307.449 161.171,-310.601 160.929,-303.605"/>
<text text-anchor="middle" x="349" y="-298" font-family="Helvetica,sans-Serif" font-size="10.00"> imageMap</text>
</g>
<!-- Node31&#45;&gt;Node29 -->
<g id="edge39" class="edge"><title>Node31&#45;&gt;Node29</title>
<path fill="none" stroke="#9a32cd" stroke-dasharray="5,2" d="M140.321,-295.193C173.839,-287.337 215.443,-275.247 250,-258 285.481,-240.292 321.137,-209.252 337.984,-193.601"/>
<polygon fill="#9a32cd" stroke="#9a32cd" points="139.17,-291.865 130.196,-297.496 140.723,-298.691 139.17,-291.865"/>
<text text-anchor="middle" x="212" y="-289" font-family="Helvetica,sans-Serif" font-size="10.00"> imageMap</text>
</g>
<!-- Node32 -->
<g id="node32" class="node"><title>Node32</title>
<polygon fill="white" stroke="#bfbfbf" points="3,-250.5 3,-269.5 153,-269.5 153,-250.5 3,-250.5"/>
<text text-anchor="middle" x="78" y="-257.5" font-family="Helvetica,sans-Serif" font-size="10.00">ArrayList&lt; backend.Turtle &gt;</text>
</g>
<!-- Node32&#45;&gt;Node29 -->
<g id="edge40" class="edge"><title>Node32&#45;&gt;Node29</title>
<path fill="none" stroke="#9a32cd" stroke-dasharray="5,2" d="M144.443,-248.481C176.569,-242.16 215.656,-233.47 250,-223 277.149,-214.723 307.349,-202.172 326.952,-193.557"/>
<polygon fill="#9a32cd" stroke="#9a32cd" points="143.424,-245.114 134.271,-250.45 144.754,-251.986 143.424,-245.114"/>
<text text-anchor="middle" x="212" y="-246" font-family="Helvetica,sans-Serif" font-size="10.00"> activeTurtles</text>
</g>
<!-- Node33 -->
<g id="node33" class="node"><title>Node33</title>
<polygon fill="white" stroke="#bfbfbf" points="44,-212.5 44,-231.5 112,-231.5 112,-212.5 44,-212.5"/>
<text text-anchor="middle" x="78" y="-219.5" font-family="Helvetica,sans-Serif" font-size="10.00">Dimension</text>
</g>
<!-- Node33&#45;&gt;Node29 -->
<g id="edge41" class="edge"><title>Node33&#45;&gt;Node29</title>
<path fill="none" stroke="#9a32cd" stroke-dasharray="5,2" d="M122.401,-215.869C173.919,-208.591 259.083,-196.561 308.722,-189.549"/>
<polygon fill="#9a32cd" stroke="#9a32cd" points="121.667,-212.438 112.254,-217.302 122.646,-219.369 121.667,-212.438"/>
<text text-anchor="middle" x="212" y="-211" font-family="Helvetica,sans-Serif" font-size="10.00"> size</text>
</g>
<!-- Node34 -->
<g id="node34" class="node"><title>Node34</title>
<polygon fill="white" stroke="#bfbfbf" points="0,-163 0,-193 156,-193 156,-163 0,-163"/>
<text text-anchor="start" x="8" y="-181" font-family="Helvetica,sans-Serif" font-size="10.00">HashMap&lt; Integer, backend.</text>
<text text-anchor="middle" x="78" y="-170" font-family="Helvetica,sans-Serif" font-size="10.00">Turtle &gt;</text>
</g>
<!-- Node34&#45;&gt;Node29 -->
<g id="edge42" class="edge"><title>Node34&#45;&gt;Node29</title>
<path fill="none" stroke="#9a32cd" stroke-dasharray="5,2" d="M166.206,-179.945C214.343,-181.019 271.743,-182.299 308.982,-183.13"/>
<polygon fill="#9a32cd" stroke="#9a32cd" points="166.16,-176.443 156.085,-179.719 166.004,-183.442 166.16,-176.443"/>
<text text-anchor="middle" x="212" y="-185" font-family="Helvetica,sans-Serif" font-size="10.00"> allTurtles</text>
</g>
<!-- Node35 -->
<g id="node35" class="node"><title>Node35</title>
<g id="a_node35"><a xlink:href="../../df/d77/classbackend_1_1_bi_index.html" target="_top" xlink:title="backend.BiIndex\&lt; Color \&gt;">
<polygon fill="white" stroke="black" points="7,-82.5 7,-101.5 149,-101.5 149,-82.5 7,-82.5"/>
<text text-anchor="middle" x="78" y="-89.5" font-family="Helvetica,sans-Serif" font-size="10.00">backend.BiIndex&lt; Color &gt;</text>
</a>
</g>
</g>
<!-- Node35&#45;&gt;Node22 -->
<g id="edge47" class="edge"><title>Node35&#45;&gt;Node22</title>
<path fill="none" stroke="#9a32cd" stroke-dasharray="5,2" d="M159.23,-88.5725C188.533,-89.65 221.468,-93.657 250,-104 259.277,-107.363 258.786,-113.466 268,-117 332.233,-141.64 534.479,-153.821 624.29,-158.127"/>
<polygon fill="#9a32cd" stroke="#9a32cd" points="159.118,-85.0684 149.03,-88.3079 158.936,-92.0661 159.118,-85.0684"/>
<text text-anchor="middle" x="349" y="-148" font-family="Helvetica,sans-Serif" font-size="10.00"> colorMap</text>
</g>
<!-- Node35&#45;&gt;Node29 -->
<g id="edge43" class="edge"><title>Node35&#45;&gt;Node29</title>
<path fill="none" stroke="#9a32cd" stroke-dasharray="5,2" d="M156.926,-103.657C187.543,-110.658 221.987,-121.705 250,-139 260.176,-145.282 257.935,-152.542 268,-159 280.247,-166.858 295.133,-172.391 308.728,-176.217"/>
<polygon fill="#9a32cd" stroke="#9a32cd" points="157.649,-100.233 147.133,-101.524 156.159,-107.072 157.649,-100.233"/>
<text text-anchor="middle" x="212" y="-142" font-family="Helvetica,sans-Serif" font-size="10.00"> colorMap</text>
</g>
<!-- Node36 -->
<g id="node36" class="node"><title>Node36</title>
<polygon fill="white" stroke="#bfbfbf" points="288.5,-88.5 288.5,-107.5 409.5,-107.5 409.5,-88.5 288.5,-88.5"/>
<text text-anchor="middle" x="349" y="-95.5" font-family="Helvetica,sans-Serif" font-size="10.00">Queue&lt; Command &gt;</text>
</g>
<!-- Node36&#45;&gt;Node22 -->
<g id="edge46" class="edge"><title>Node36&#45;&gt;Node22</title>
<path fill="none" stroke="#9a32cd" stroke-dasharray="5,2" d="M419.812,-101.188C459.027,-103.991 508.651,-109.231 552,-119 585.548,-126.561 622.779,-140.828 645.792,-150.376"/>
<polygon fill="#9a32cd" stroke="#9a32cd" points="420.033,-97.695 409.819,-100.51 419.559,-104.679 420.033,-97.695"/>
<text text-anchor="middle" x="500" y="-122" font-family="Helvetica,sans-Serif" font-size="10.00"> pendingCommands</text>
</g>
<!-- Node37 -->
<g id="node37" class="node"><title>Node37</title>
<polygon fill="white" stroke="#bfbfbf" points="933,-259 933,-289 1069,-289 1069,-259 933,-259"/>
<text text-anchor="start" x="941" y="-277" font-family="Helvetica,sans-Serif" font-size="10.00">HashMap&lt; gui.SlogoTab,</text>
<text text-anchor="middle" x="1001" y="-266" font-family="Helvetica,sans-Serif" font-size="10.00"> backend.Model &gt;</text>
</g>
<!-- Node37&#45;&gt;Node1 -->
<g id="edge48" class="edge"><title>Node37&#45;&gt;Node1</title>
<path fill="none" stroke="#9a32cd" stroke-dasharray="5,2" d="M1079.14,-272.159C1118.44,-274.152 1165.85,-281.241 1204,-301 1237.51,-318.356 1264.07,-356.365 1275.25,-374.285"/>
<polygon fill="#9a32cd" stroke="#9a32cd" points="1079.21,-268.659 1069.08,-271.749 1078.93,-275.653 1079.21,-268.659"/>
<text text-anchor="middle" x="1161" y="-304" font-family="Helvetica,sans-Serif" font-size="10.00"> tabMap</text>
</g>
<!-- Node38 -->
<g id="node38" class="node"><title>Node38</title>
<polygon fill="white" stroke="#bfbfbf" points="978,-220.5 978,-239.5 1024,-239.5 1024,-220.5 978,-220.5"/>
<text text-anchor="middle" x="1001" y="-227.5" font-family="Helvetica,sans-Serif" font-size="10.00">Group</text>
</g>
<!-- Node38&#45;&gt;Node1 -->
<g id="edge50" class="edge"><title>Node38&#45;&gt;Node1</title>
<path fill="none" stroke="#9a32cd" stroke-dasharray="5,2" d="M1034.18,-227.104C1076.65,-224.916 1152.08,-226.846 1204,-261 1246.94,-289.246 1270.34,-350.581 1278.07,-374.333"/>
<polygon fill="#9a32cd" stroke="#9a32cd" points="1033.89,-223.615 1024.13,-227.731 1034.32,-230.601 1033.89,-223.615"/>
<text text-anchor="middle" x="1161" y="-264" font-family="Helvetica,sans-Serif" font-size="10.00"> root</text>
</g>
</g>
</svg>
