<?xml version="1.0" encoding="UTF-8" standalone="no"?>
<!DOCTYPE svg PUBLIC "-//W3C//DTD SVG 1.1//EN"
 "http://www.w3.org/Graphics/SVG/1.1/DTD/svg11.dtd">
<!-- Generated by graphviz version 2.36.0 (20140111.2315)
 -->
<!-- Title: gui.textAreas.UserFunctionsAndCommands Pages: 1 -->
<svg width="192pt" height="178pt"
 viewBox="0.00 0.00 192.00 178.00" xmlns="http://www.w3.org/2000/svg" xmlns:xlink="http://www.w3.org/1999/xlink">
<g id="graph0" class="graph" transform="scale(1 1) rotate(0) translate(4 174)">
<title>gui.textAreas.UserFunctionsAndCommands</title>
<polygon fill="white" stroke="none" points="-4,4 -4,-174 188,-174 188,4 -4,4"/>
<!-- Node1 -->
<g id="node1" class="node"><title>Node1</title>
<polygon fill="#bfbfbf" stroke="black" points="11.5,-1 11.5,-31 162.5,-31 162.5,-1 11.5,-1"/>
<text text-anchor="start" x="19.5" y="-19" font-family="Helvetica,sans-Serif" font-size="10.00">gui.textAreas.UserFunctions</text>
<text text-anchor="middle" x="87" y="-8" font-family="Helvetica,sans-Serif" font-size="10.00">AndCommands</text>
</g>
<!-- Node2 -->
<g id="node2" class="node"><title>Node2</title>
<g id="a_node2"><a xlink:href="../../d8/d85/classgui_1_1text_areas_1_1_abstract_editable_text_box.html" target="_top" xlink:title="gui.textAreas.AbstractEditable\lTextBox">
<polygon fill="white" stroke="black" points="6,-71 6,-101 168,-101 168,-71 6,-71"/>
<text text-anchor="start" x="14" y="-89" font-family="Helvetica,sans-Serif" font-size="10.00">gui.textAreas.AbstractEditable</text>
<text text-anchor="middle" x="87" y="-78" font-family="Helvetica,sans-Serif" font-size="10.00">TextBox</text>
</a>
</g>
</g>
<!-- Node2&#45;&gt;Node1 -->
<g id="edge1" class="edge"><title>Node2&#45;&gt;Node1</title>
<path fill="none" stroke="midnightblue" d="M87,-60.7688C87,-50.8141 87,-39.6384 87,-31.0716"/>
<polygon fill="midnightblue" stroke="midnightblue" points="83.5001,-60.9103 87,-70.9104 90.5001,-60.9104 83.5001,-60.9103"/>
</g>
<!-- Node3 -->
<g id="node3" class="node"><title>Node3</title>
<polygon fill="white" stroke="#bfbfbf" points="0,-150.5 0,-169.5 48,-169.5 48,-150.5 0,-150.5"/>
<text text-anchor="middle" x="24" y="-157.5" font-family="Helvetica,sans-Serif" font-size="10.00">Region</text>
</g>
<!-- Node3&#45;&gt;Node2 -->
<g id="edge2" class="edge"><title>Node3&#45;&gt;Node2</title>
<path fill="none" stroke="midnightblue" d="M38.2945,-142.663C49.2141,-130.184 64.1131,-113.156 74.5473,-101.232"/>
<polygon fill="midnightblue" stroke="midnightblue" points="35.4254,-140.627 31.4743,-150.458 40.6934,-145.237 35.4254,-140.627"/>
</g>
<!-- Node4 -->
<g id="node4" class="node"><title>Node4</title>
<polygon fill="white" stroke="#bfbfbf" points="66,-150.5 66,-169.5 108,-169.5 108,-150.5 66,-150.5"/>
<text text-anchor="middle" x="87" y="-157.5" font-family="Helvetica,sans-Serif" font-size="10.00">Label</text>
</g>
<!-- Node4&#45;&gt;Node2 -->
<g id="edge3" class="edge"><title>Node4&#45;&gt;Node2</title>
<path fill="none" stroke="#9a32cd" stroke-dasharray="5,2" d="M87,-140.085C87,-127.915 87,-112.354 87,-101.232"/>
<polygon fill="#9a32cd" stroke="#9a32cd" points="83.5001,-140.458 87,-150.458 90.5001,-140.458 83.5001,-140.458"/>
<text text-anchor="middle" x="100" y="-123.5" font-family="Helvetica,sans-Serif" font-size="10.00"> label</text>
</g>
<!-- Node5 -->
<g id="node5" class="node"><title>Node5</title>
<polygon fill="white" stroke="#bfbfbf" points="126,-150.5 126,-169.5 184,-169.5 184,-150.5 126,-150.5"/>
<text text-anchor="middle" x="155" y="-157.5" font-family="Helvetica,sans-Serif" font-size="10.00">TextArea</text>
</g>
<!-- Node5&#45;&gt;Node2 -->
<g id="edge4" class="edge"><title>Node5&#45;&gt;Node2</title>
<path fill="none" stroke="#9a32cd" stroke-dasharray="5,2" d="M139.91,-143.022C128.094,-130.512 111.812,-113.271 100.441,-101.232"/>
<polygon fill="#9a32cd" stroke="#9a32cd" points="137.522,-145.591 146.932,-150.458 142.611,-140.785 137.522,-145.591"/>
<text text-anchor="middle" x="151.5" y="-123.5" font-family="Helvetica,sans-Serif" font-size="10.00"> textArea</text>
</g>
</g>
</svg>
