<?xml version="1.0" encoding="UTF-8" standalone="no"?>
<!DOCTYPE svg PUBLIC "-//W3C//DTD SVG 1.1//EN"
 "http://www.w3.org/Graphics/SVG/1.1/DTD/svg11.dtd">
<!-- Generated by graphviz version 2.36.0 (20140111.2315)
 -->
<!-- Title: backend.command.Heading Pages: 1 -->
<svg width="198pt" height="320pt"
 viewBox="0.00 0.00 198.00 320.00" xmlns="http://www.w3.org/2000/svg" xmlns:xlink="http://www.w3.org/1999/xlink">
<g id="graph0" class="graph" transform="scale(1 1) rotate(0) translate(4 316)">
<title>backend.command.Heading</title>
<polygon fill="white" stroke="none" points="-4,4 -4,-316 194,-316 194,4 -4,4"/>
<!-- Node1 -->
<g id="node1" class="node"><title>Node1</title>
<polygon fill="#bfbfbf" stroke="black" points="19,-0.5 19,-19.5 171,-19.5 171,-0.5 19,-0.5"/>
<text text-anchor="middle" x="95" y="-7.5" font-family="Helvetica,sans-Serif" font-size="10.00">backend.command.Heading</text>
</g>
<!-- Node2 -->
<g id="node2" class="node"><title>Node2</title>
<g id="a_node2"><a xlink:href="../../d9/d76/classbackend_1_1command_1_1_turtle_query.html" target="_top" xlink:title="backend.command.TurtleQuery">
<polygon fill="white" stroke="black" points="12,-56.5 12,-75.5 178,-75.5 178,-56.5 12,-56.5"/>
<text text-anchor="middle" x="95" y="-63.5" font-family="Helvetica,sans-Serif" font-size="10.00">backend.command.TurtleQuery</text>
</a>
</g>
</g>
<!-- Node2&#45;&gt;Node1 -->
<g id="edge1" class="edge"><title>Node2&#45;&gt;Node1</title>
<path fill="none" stroke="midnightblue" d="M95,-45.8045C95,-36.9102 95,-26.7798 95,-19.7511"/>
<polygon fill="midnightblue" stroke="midnightblue" points="91.5001,-46.083 95,-56.083 98.5001,-46.083 91.5001,-46.083"/>
</g>
<!-- Node3 -->
<g id="node3" class="node"><title>Node3</title>
<g id="a_node3"><a xlink:href="../../d8/db4/classbackend_1_1command_1_1_active_turtle_command.html" target="_top" xlink:title="backend.command.ActiveTurtle\lCommand">
<polygon fill="white" stroke="black" points="11.5,-113 11.5,-143 178.5,-143 178.5,-113 11.5,-113"/>
<text text-anchor="start" x="19.5" y="-131" font-family="Helvetica,sans-Serif" font-size="10.00">backend.command.ActiveTurtle</text>
<text text-anchor="middle" x="95" y="-120" font-family="Helvetica,sans-Serif" font-size="10.00">Command</text>
</a>
</g>
</g>
<!-- Node3&#45;&gt;Node2 -->
<g id="edge2" class="edge"><title>Node3&#45;&gt;Node2</title>
<path fill="none" stroke="midnightblue" d="M95,-102.586C95,-93.0743 95,-82.7864 95,-75.7305"/>
<polygon fill="midnightblue" stroke="midnightblue" points="91.5001,-102.781 95,-112.781 98.5001,-102.781 91.5001,-102.781"/>
</g>
<!-- Node4 -->
<g id="node4" class="node"><title>Node4</title>
<g id="a_node4"><a xlink:href="../../d5/dfc/classbackend_1_1command_1_1_turtle_command.html" target="_top" xlink:title="backend.command.TurtleCommand">
<polygon fill="white" stroke="black" points="1,-180.5 1,-199.5 189,-199.5 189,-180.5 1,-180.5"/>
<text text-anchor="middle" x="95" y="-187.5" font-family="Helvetica,sans-Serif" font-size="10.00">backend.command.TurtleCommand</text>
</a>
</g>
</g>
<!-- Node4&#45;&gt;Node3 -->
<g id="edge3" class="edge"><title>Node4&#45;&gt;Node3</title>
<path fill="none" stroke="midnightblue" d="M95,-170.371C95,-161.585 95,-151.272 95,-143.141"/>
<polygon fill="midnightblue" stroke="midnightblue" points="91.5001,-170.403 95,-180.403 98.5001,-170.403 91.5001,-170.403"/>
</g>
<!-- Node5 -->
<g id="node5" class="node"><title>Node5</title>
<g id="a_node5"><a xlink:href="../../dc/d67/classbackend_1_1command_1_1_model_command.html" target="_top" xlink:title="backend.command.ModelCommand">
<polygon fill="white" stroke="black" points="-0.5,-236.5 -0.5,-255.5 190.5,-255.5 190.5,-236.5 -0.5,-236.5"/>
<text text-anchor="middle" x="95" y="-243.5" font-family="Helvetica,sans-Serif" font-size="10.00">backend.command.ModelCommand</text>
</a>
</g>
</g>
<!-- Node5&#45;&gt;Node4 -->
<g id="edge4" class="edge"><title>Node5&#45;&gt;Node4</title>
<path fill="none" stroke="midnightblue" d="M95,-225.805C95,-216.91 95,-206.78 95,-199.751"/>
<polygon fill="midnightblue" stroke="midnightblue" points="91.5001,-226.083 95,-236.083 98.5001,-226.083 91.5001,-226.083"/>
</g>
<!-- Node6 -->
<g id="node6" class="node"><title>Node6</title>
<g id="a_node6"><a xlink:href="../../dc/d83/classbackend_1_1command_1_1_command.html" target="_top" xlink:title="backend.command.Command">
<polygon fill="white" stroke="black" points="14,-292.5 14,-311.5 176,-311.5 176,-292.5 14,-292.5"/>
<text text-anchor="middle" x="95" y="-299.5" font-family="Helvetica,sans-Serif" font-size="10.00">backend.command.Command</text>
</a>
</g>
</g>
<!-- Node6&#45;&gt;Node5 -->
<g id="edge5" class="edge"><title>Node6&#45;&gt;Node5</title>
<path fill="none" stroke="midnightblue" d="M95,-281.805C95,-272.91 95,-262.78 95,-255.751"/>
<polygon fill="midnightblue" stroke="midnightblue" points="91.5001,-282.083 95,-292.083 98.5001,-282.083 91.5001,-282.083"/>
</g>
</g>
</svg>
