<?xml version="1.0" encoding="UTF-8" standalone="no"?>
<!DOCTYPE svg PUBLIC "-//W3C//DTD SVG 1.1//EN"
 "http://www.w3.org/Graphics/SVG/1.1/DTD/svg11.dtd">
<!-- Generated by graphviz version 2.36.0 (20140111.2315)
 -->
<!-- Title: backend.command.ClearStamps.execute Pages: 1 -->
<svg width="874pt" height="66pt"
 viewBox="0.00 0.00 874.00 66.00" xmlns="http://www.w3.org/2000/svg" xmlns:xlink="http://www.w3.org/1999/xlink">
<g id="graph0" class="graph" transform="scale(1 1) rotate(0) translate(4 62)">
<title>backend.command.ClearStamps.execute</title>
<polygon fill="white" stroke="none" points="-4,4 -4,-62 870,-62 870,4 -4,4"/>
<!-- Node1 -->
<g id="node1" class="node"><title>Node1</title>
<polygon fill="#bfbfbf" stroke="black" points="0.5,-19.5 0.5,-38.5 215.5,-38.5 215.5,-19.5 0.5,-19.5"/>
<text text-anchor="middle" x="108" y="-26.5" font-family="Helvetica,sans-Serif" font-size="10.00">backend.command.ClearStamps.execute</text>
</g>
<!-- Node2 -->
<g id="node2" class="node"><title>Node2</title>
<g id="a_node2"><a xlink:href="../../d5/dfc/classbackend_1_1command_1_1_turtle_command.html#a7f974873733f7c940acf4ffa8d6bd32b" target="_top" xlink:title="backend.command.TurtleCommand.all\lTurtles">
<polygon fill="white" stroke="black" points="252.5,-14 252.5,-44 453.5,-44 453.5,-14 252.5,-14"/>
<text text-anchor="start" x="260.5" y="-32" font-family="Helvetica,sans-Serif" font-size="10.00">backend.command.TurtleCommand.all</text>
<text text-anchor="middle" x="353" y="-21" font-family="Helvetica,sans-Serif" font-size="10.00">Turtles</text>
</a>
</g>
</g>
<!-- Node1&#45;&gt;Node2 -->
<g id="edge1" class="edge"><title>Node1&#45;&gt;Node2</title>
<path fill="none" stroke="midnightblue" d="M215.583,-29C224.478,-29 233.481,-29 242.398,-29"/>
<polygon fill="midnightblue" stroke="midnightblue" points="242.418,-32.5001 252.418,-29 242.418,-25.5001 242.418,-32.5001"/>
</g>
<!-- Node3 -->
<g id="node3" class="node"><title>Node3</title>
<g id="a_node3"><a xlink:href="../../dc/d67/classbackend_1_1command_1_1_model_command.html#ab57d058d26b965a9038487f69f40c066" target="_top" xlink:title="backend.command.ModelCommand.grid">
<polygon fill="white" stroke="black" points="490,-38.5 490,-57.5 702,-57.5 702,-38.5 490,-38.5"/>
<text text-anchor="middle" x="596" y="-45.5" font-family="Helvetica,sans-Serif" font-size="10.00">backend.command.ModelCommand.grid</text>
</a>
</g>
</g>
<!-- Node2&#45;&gt;Node3 -->
<g id="edge2" class="edge"><title>Node2&#45;&gt;Node3</title>
<path fill="none" stroke="midnightblue" d="M453.764,-36.8652C462.326,-37.5403 471.033,-38.2267 479.704,-38.9103"/>
<polygon fill="midnightblue" stroke="midnightblue" points="479.611,-42.4137 489.855,-39.7106 480.161,-35.4354 479.611,-42.4137"/>
</g>
<!-- Node5 -->
<g id="node5" class="node"><title>Node5</title>
<g id="a_node5"><a xlink:href="../../d1/d68/classbackend_1_1_grid.html#ac089ef72a1531ec8e0cf131de056d0b2" target="_top" xlink:title="backend.Grid.getAllTurtles">
<polygon fill="white" stroke="black" points="526,-0.5 526,-19.5 666,-19.5 666,-0.5 526,-0.5"/>
<text text-anchor="middle" x="596" y="-7.5" font-family="Helvetica,sans-Serif" font-size="10.00">backend.Grid.getAllTurtles</text>
</a>
</g>
</g>
<!-- Node2&#45;&gt;Node5 -->
<g id="edge4" class="edge"><title>Node2&#45;&gt;Node5</title>
<path fill="none" stroke="midnightblue" d="M453.764,-21.1348C474.384,-19.5091 495.841,-17.8176 515.618,-16.2584"/>
<polygon fill="midnightblue" stroke="midnightblue" points="516.099,-19.7313 525.793,-15.4561 515.549,-12.753 516.099,-19.7313"/>
</g>
<!-- Node4 -->
<g id="node4" class="node"><title>Node4</title>
<g id="a_node4"><a xlink:href="../../d3/dac/classbackend_1_1_model.html#a341c789b1a3e0bf796fb626603928e95" target="_top" xlink:title="backend.Model.getGrid">
<polygon fill="white" stroke="black" points="738.5,-38.5 738.5,-57.5 865.5,-57.5 865.5,-38.5 738.5,-38.5"/>
<text text-anchor="middle" x="802" y="-45.5" font-family="Helvetica,sans-Serif" font-size="10.00">backend.Model.getGrid</text>
</a>
</g>
</g>
<!-- Node3&#45;&gt;Node4 -->
<g id="edge3" class="edge"><title>Node3&#45;&gt;Node4</title>
<path fill="none" stroke="midnightblue" d="M702.287,-48C711.083,-48 719.847,-48 728.316,-48"/>
<polygon fill="midnightblue" stroke="midnightblue" points="728.482,-51.5001 738.482,-48 728.482,-44.5001 728.482,-51.5001"/>
</g>
</g>
</svg>
