<?xml version="1.0" encoding="UTF-8" standalone="no"?>
<!DOCTYPE svg PUBLIC "-//W3C//DTD SVG 1.1//EN"
 "http://www.w3.org/Graphics/SVG/1.1/DTD/svg11.dtd">
<!-- Generated by graphviz version 2.36.0 (20140111.2315)
 -->
<!-- Title: gui.textAreas.PreviousCommandsBox Pages: 1 -->
<svg width="283pt" height="176pt"
 viewBox="0.00 0.00 283.00 176.00" xmlns="http://www.w3.org/2000/svg" xmlns:xlink="http://www.w3.org/1999/xlink">
<g id="graph0" class="graph" transform="scale(1 1) rotate(0) translate(4 172)">
<title>gui.textAreas.PreviousCommandsBox</title>
<polygon fill="white" stroke="none" points="-4,4 -4,-172 279,-172 279,4 -4,4"/>
<!-- Node1 -->
<g id="node1" class="node"><title>Node1</title>
<polygon fill="#bfbfbf" stroke="black" points="78.5,-0.5 78.5,-19.5 275.5,-19.5 275.5,-0.5 78.5,-0.5"/>
<text text-anchor="middle" x="177" y="-7.5" font-family="Helvetica,sans-Serif" font-size="10.00">gui.textAreas.PreviousCommandsBox</text>
</g>
<!-- Node2 -->
<g id="node2" class="node"><title>Node2</title>
<g id="a_node2"><a xlink:href="../../d8/d85/classgui_1_1text_areas_1_1_abstract_editable_text_box.html" target="_top" xlink:title="gui.textAreas.AbstractEditable\lTextBox">
<polygon fill="white" stroke="black" points="6,-69 6,-99 168,-99 168,-69 6,-69"/>
<text text-anchor="start" x="14" y="-87" font-family="Helvetica,sans-Serif" font-size="10.00">gui.textAreas.AbstractEditable</text>
<text text-anchor="middle" x="87" y="-76" font-family="Helvetica,sans-Serif" font-size="10.00">TextBox</text>
</a>
</g>
</g>
<!-- Node2&#45;&gt;Node1 -->
<g id="edge1" class="edge"><title>Node2&#45;&gt;Node1</title>
<path fill="none" stroke="midnightblue" d="M113.029,-62.177C130.743,-48.0059 153.257,-29.9942 166.307,-19.5543"/>
<polygon fill="midnightblue" stroke="midnightblue" points="110.403,-59.7951 104.781,-68.7751 114.776,-65.2612 110.403,-59.7951"/>
</g>
<!-- Node3 -->
<g id="node3" class="node"><title>Node3</title>
<polygon fill="white" stroke="#bfbfbf" points="0,-148.5 0,-167.5 48,-167.5 48,-148.5 0,-148.5"/>
<text text-anchor="middle" x="24" y="-155.5" font-family="Helvetica,sans-Serif" font-size="10.00">Region</text>
</g>
<!-- Node3&#45;&gt;Node2 -->
<g id="edge2" class="edge"><title>Node3&#45;&gt;Node2</title>
<path fill="none" stroke="midnightblue" d="M38.2945,-140.663C49.2141,-128.184 64.1131,-111.156 74.5473,-99.2316"/>
<polygon fill="midnightblue" stroke="midnightblue" points="35.4254,-138.627 31.4743,-148.458 40.6934,-143.237 35.4254,-138.627"/>
</g>
<!-- Node4 -->
<g id="node4" class="node"><title>Node4</title>
<polygon fill="white" stroke="#bfbfbf" points="66,-148.5 66,-167.5 108,-167.5 108,-148.5 66,-148.5"/>
<text text-anchor="middle" x="87" y="-155.5" font-family="Helvetica,sans-Serif" font-size="10.00">Label</text>
</g>
<!-- Node4&#45;&gt;Node2 -->
<g id="edge3" class="edge"><title>Node4&#45;&gt;Node2</title>
<path fill="none" stroke="#9a32cd" stroke-dasharray="5,2" d="M87,-138.085C87,-125.915 87,-110.354 87,-99.2316"/>
<polygon fill="#9a32cd" stroke="#9a32cd" points="83.5001,-138.458 87,-148.458 90.5001,-138.458 83.5001,-138.458"/>
<text text-anchor="middle" x="100" y="-121.5" font-family="Helvetica,sans-Serif" font-size="10.00"> label</text>
</g>
<!-- Node5 -->
<g id="node5" class="node"><title>Node5</title>
<polygon fill="white" stroke="#bfbfbf" points="126,-148.5 126,-167.5 184,-167.5 184,-148.5 126,-148.5"/>
<text text-anchor="middle" x="155" y="-155.5" font-family="Helvetica,sans-Serif" font-size="10.00">TextArea</text>
</g>
<!-- Node5&#45;&gt;Node2 -->
<g id="edge4" class="edge"><title>Node5&#45;&gt;Node2</title>
<path fill="none" stroke="#9a32cd" stroke-dasharray="5,2" d="M139.91,-141.022C128.094,-128.512 111.812,-111.271 100.441,-99.2316"/>
<polygon fill="#9a32cd" stroke="#9a32cd" points="137.522,-143.591 146.932,-148.458 142.611,-138.785 137.522,-143.591"/>
<text text-anchor="middle" x="152.5" y="-121.5" font-family="Helvetica,sans-Serif" font-size="10.00"> textArea</text>
</g>
<!-- Node6 -->
<g id="node6" class="node"><title>Node6</title>
<polygon fill="white" stroke="#bfbfbf" points="186.5,-74.5 186.5,-93.5 227.5,-93.5 227.5,-74.5 186.5,-74.5"/>
<text text-anchor="middle" x="207" y="-81.5" font-family="Helvetica,sans-Serif" font-size="10.00">VBox</text>
</g>
<!-- Node6&#45;&gt;Node1 -->
<g id="edge5" class="edge"><title>Node6&#45;&gt;Node1</title>
<path fill="none" stroke="#9a32cd" stroke-dasharray="5,2" d="M199.504,-65.0085C193.449,-50.4781 185.198,-30.6758 180.555,-19.531"/>
<polygon fill="#9a32cd" stroke="#9a32cd" points="196.364,-66.5733 203.441,-74.4579 202.825,-63.881 196.364,-66.5733"/>
<text text-anchor="middle" x="201.5" y="-41.5" font-family="Helvetica,sans-Serif" font-size="10.00"> col</text>
</g>
</g>
</svg>
