<?xml version="1.0" encoding="UTF-8" standalone="no"?>
<!DOCTYPE svg PUBLIC "-//W3C//DTD SVG 1.1//EN"
 "http://www.w3.org/Graphics/SVG/1.1/DTD/svg11.dtd">
<!-- Generated by graphviz version 2.36.0 (20140111.2315)
 -->
<!-- Title: backend.command.UnaryMathOperation Pages: 1 -->
<svg width="297pt" height="178pt"
 viewBox="0.00 0.00 297.00 178.00" xmlns="http://www.w3.org/2000/svg" xmlns:xlink="http://www.w3.org/1999/xlink">
<g id="graph0" class="graph" transform="scale(1 1) rotate(0) translate(4 174)">
<title>backend.command.UnaryMathOperation</title>
<polygon fill="white" stroke="none" points="-4,4 -4,-174 293,-174 293,4 -4,4"/>
<!-- Node1 -->
<g id="node1" class="node"><title>Node1</title>
<polygon fill="#bfbfbf" stroke="black" points="48,-1 48,-31 212,-31 212,-1 48,-1"/>
<text text-anchor="start" x="56" y="-19" font-family="Helvetica,sans-Serif" font-size="10.00">backend.command.UnaryMath</text>
<text text-anchor="middle" x="130" y="-8" font-family="Helvetica,sans-Serif" font-size="10.00">Operation</text>
</g>
<!-- Node2 -->
<g id="node2" class="node"><title>Node2</title>
<g id="a_node2"><a xlink:href="../../dc/d83/classbackend_1_1command_1_1_command.html" target="_top" xlink:title="backend.command.Command">
<polygon fill="white" stroke="black" points="49,-70.5 49,-89.5 211,-89.5 211,-70.5 49,-70.5"/>
<text text-anchor="middle" x="130" y="-77.5" font-family="Helvetica,sans-Serif" font-size="10.00">backend.command.Command</text>
</a>
</g>
</g>
<!-- Node2&#45;&gt;Node1 -->
<g id="edge1" class="edge"><title>Node2&#45;&gt;Node1</title>
<path fill="none" stroke="midnightblue" d="M130,-60.1826C130,-50.8859 130,-39.8507 130,-31.263"/>
<polygon fill="midnightblue" stroke="midnightblue" points="126.5,-60.3791 130,-70.3792 133.5,-60.3792 126.5,-60.3791"/>
</g>
<!-- Node2&#45;&gt;Node2 -->
<g id="edge3" class="edge"><title>Node2&#45;&gt;Node2</title>
<path fill="none" stroke="#9a32cd" stroke-dasharray="5,2" d="M221.171,-83.4864C226.084,-82.6336 229,-81.4714 229,-80 229,-77.7031 221.894,-76.1599 211.18,-75.3704"/>
<polygon fill="#9a32cd" stroke="#9a32cd" points="220.717,-80.0154 211.18,-84.6296 221.513,-86.97 220.717,-80.0154"/>
<text text-anchor="middle" x="246.5" y="-77.5" font-family="Helvetica,sans-Serif" font-size="10.00"> parent</text>
</g>
<!-- Node3 -->
<g id="node3" class="node"><title>Node3</title>
<g id="a_node3"><a xlink:href="../../d0/d6a/classbackend_1_1_string_pair.html" target="_top" xlink:title="backend.StringPair">
<polygon fill="white" stroke="black" points="0,-144.5 0,-163.5 106,-163.5 106,-144.5 0,-144.5"/>
<text text-anchor="middle" x="53" y="-151.5" font-family="Helvetica,sans-Serif" font-size="10.00">backend.StringPair</text>
</a>
</g>
</g>
<!-- Node3&#45;&gt;Node2 -->
<g id="edge2" class="edge"><title>Node3&#45;&gt;Node2</title>
<path fill="none" stroke="#9a32cd" stroke-dasharray="5,2" d="M69.5857,-137.491C85.2817,-122.815 108.264,-101.325 120.877,-89.531"/>
<polygon fill="#9a32cd" stroke="#9a32cd" points="67.0491,-135.071 62.1353,-144.458 71.83,-140.184 67.0491,-135.071"/>
<text text-anchor="middle" x="125" y="-111.5" font-family="Helvetica,sans-Serif" font-size="10.00"> stringPair</text>
</g>
<!-- Node4 -->
<g id="node4" class="node"><title>Node4</title>
<polygon fill="white" stroke="#bfbfbf" points="124.5,-139 124.5,-169 289.5,-169 289.5,-139 124.5,-139"/>
<text text-anchor="start" x="132.5" y="-157" font-family="Helvetica,sans-Serif" font-size="10.00">ArrayList&lt; backend.command.</text>
<text text-anchor="middle" x="207" y="-146" font-family="Helvetica,sans-Serif" font-size="10.00">Command &gt;</text>
</g>
<!-- Node4&#45;&gt;Node2 -->
<g id="edge4" class="edge"><title>Node4&#45;&gt;Node2</title>
<path fill="none" stroke="#9a32cd" stroke-dasharray="5,2" d="M184.361,-131.831C169.362,-117.806 150.472,-100.143 139.367,-89.7589"/>
<polygon fill="#9a32cd" stroke="#9a32cd" points="182.093,-134.502 191.787,-138.775 186.874,-129.389 182.093,-134.502"/>
<text text-anchor="middle" x="191" y="-111.5" font-family="Helvetica,sans-Serif" font-size="10.00"> params</text>
</g>
</g>
</svg>
