<?xml version="1.0" encoding="UTF-8" standalone="no"?>
<!DOCTYPE svg PUBLIC "-//W3C//DTD SVG 1.1//EN"
 "http://www.w3.org/Graphics/SVG/1.1/DTD/svg11.dtd">
<!-- Generated by graphviz version 2.36.0 (20140111.2315)
 -->
<!-- Title: backend.command.PointTurtleCommand Pages: 1 -->
<svg width="358pt" height="332pt"
 viewBox="0.00 0.00 358.00 332.00" xmlns="http://www.w3.org/2000/svg" xmlns:xlink="http://www.w3.org/1999/xlink">
<g id="graph0" class="graph" transform="scale(1 1) rotate(0) translate(4 328)">
<title>backend.command.PointTurtleCommand</title>
<polygon fill="white" stroke="none" points="-4,4 -4,-328 354,-328 354,4 -4,4"/>
<!-- Node1 -->
<g id="node1" class="node"><title>Node1</title>
<polygon fill="#bfbfbf" stroke="black" points="94.5,-57 94.5,-87 255.5,-87 255.5,-57 94.5,-57"/>
<text text-anchor="start" x="102.5" y="-75" font-family="Helvetica,sans-Serif" font-size="10.00">backend.command.PointTurtle</text>
<text text-anchor="middle" x="175" y="-64" font-family="Helvetica,sans-Serif" font-size="10.00">Command</text>
</g>
<!-- Node6 -->
<g id="node6" class="node"><title>Node6</title>
<g id="a_node6"><a xlink:href="../../d5/db7/classbackend_1_1command_1_1_set_position.html" target="_top" xlink:title="backend.command.SetPosition">
<polygon fill="white" stroke="black" points="0,-0.5 0,-19.5 166,-19.5 166,-0.5 0,-0.5"/>
<text text-anchor="middle" x="83" y="-7.5" font-family="Helvetica,sans-Serif" font-size="10.00">backend.command.SetPosition</text>
</a>
</g>
</g>
<!-- Node1&#45;&gt;Node6 -->
<g id="edge5" class="edge"><title>Node1&#45;&gt;Node6</title>
<path fill="none" stroke="midnightblue" d="M144.448,-51.075C128.039,-40.3732 108.662,-27.736 96.1187,-19.5557"/>
<polygon fill="midnightblue" stroke="midnightblue" points="142.909,-54.2498 153.197,-56.7808 146.733,-48.3865 142.909,-54.2498"/>
</g>
<!-- Node7 -->
<g id="node7" class="node"><title>Node7</title>
<g id="a_node7"><a xlink:href="../../d7/d1a/classbackend_1_1command_1_1_set_towards.html" target="_top" xlink:title="backend.command.SetTowards">
<polygon fill="white" stroke="black" points="184,-0.5 184,-19.5 350,-19.5 350,-0.5 184,-0.5"/>
<text text-anchor="middle" x="267" y="-7.5" font-family="Helvetica,sans-Serif" font-size="10.00">backend.command.SetTowards</text>
</a>
</g>
</g>
<!-- Node1&#45;&gt;Node7 -->
<g id="edge6" class="edge"><title>Node1&#45;&gt;Node7</title>
<path fill="none" stroke="midnightblue" d="M205.552,-51.075C221.961,-40.3732 241.338,-27.736 253.881,-19.5557"/>
<polygon fill="midnightblue" stroke="midnightblue" points="203.267,-48.3865 196.803,-56.7808 207.091,-54.2498 203.267,-48.3865"/>
</g>
<!-- Node2 -->
<g id="node2" class="node"><title>Node2</title>
<g id="a_node2"><a xlink:href="../../d8/db4/classbackend_1_1command_1_1_active_turtle_command.html" target="_top" xlink:title="backend.command.ActiveTurtle\lCommand">
<polygon fill="white" stroke="black" points="91.5,-125 91.5,-155 258.5,-155 258.5,-125 91.5,-125"/>
<text text-anchor="start" x="99.5" y="-143" font-family="Helvetica,sans-Serif" font-size="10.00">backend.command.ActiveTurtle</text>
<text text-anchor="middle" x="175" y="-132" font-family="Helvetica,sans-Serif" font-size="10.00">Command</text>
</a>
</g>
</g>
<!-- Node2&#45;&gt;Node1 -->
<g id="edge1" class="edge"><title>Node2&#45;&gt;Node1</title>
<path fill="none" stroke="midnightblue" d="M175,-114.532C175,-105.361 175,-95.2449 175,-87.2931"/>
<polygon fill="midnightblue" stroke="midnightblue" points="171.5,-114.679 175,-124.679 178.5,-114.679 171.5,-114.679"/>
</g>
<!-- Node3 -->
<g id="node3" class="node"><title>Node3</title>
<g id="a_node3"><a xlink:href="../../d5/dfc/classbackend_1_1command_1_1_turtle_command.html" target="_top" xlink:title="backend.command.TurtleCommand">
<polygon fill="white" stroke="black" points="81,-192.5 81,-211.5 269,-211.5 269,-192.5 81,-192.5"/>
<text text-anchor="middle" x="175" y="-199.5" font-family="Helvetica,sans-Serif" font-size="10.00">backend.command.TurtleCommand</text>
</a>
</g>
</g>
<!-- Node3&#45;&gt;Node2 -->
<g id="edge2" class="edge"><title>Node3&#45;&gt;Node2</title>
<path fill="none" stroke="midnightblue" d="M175,-182.371C175,-173.585 175,-163.272 175,-155.141"/>
<polygon fill="midnightblue" stroke="midnightblue" points="171.5,-182.403 175,-192.403 178.5,-182.403 171.5,-182.403"/>
</g>
<!-- Node4 -->
<g id="node4" class="node"><title>Node4</title>
<g id="a_node4"><a xlink:href="../../dc/d67/classbackend_1_1command_1_1_model_command.html" target="_top" xlink:title="backend.command.ModelCommand">
<polygon fill="white" stroke="black" points="79.5,-248.5 79.5,-267.5 270.5,-267.5 270.5,-248.5 79.5,-248.5"/>
<text text-anchor="middle" x="175" y="-255.5" font-family="Helvetica,sans-Serif" font-size="10.00">backend.command.ModelCommand</text>
</a>
</g>
</g>
<!-- Node4&#45;&gt;Node3 -->
<g id="edge3" class="edge"><title>Node4&#45;&gt;Node3</title>
<path fill="none" stroke="midnightblue" d="M175,-237.805C175,-228.91 175,-218.78 175,-211.751"/>
<polygon fill="midnightblue" stroke="midnightblue" points="171.5,-238.083 175,-248.083 178.5,-238.083 171.5,-238.083"/>
</g>
<!-- Node5 -->
<g id="node5" class="node"><title>Node5</title>
<g id="a_node5"><a xlink:href="../../dc/d83/classbackend_1_1command_1_1_command.html" target="_top" xlink:title="backend.command.Command">
<polygon fill="white" stroke="black" points="94,-304.5 94,-323.5 256,-323.5 256,-304.5 94,-304.5"/>
<text text-anchor="middle" x="175" y="-311.5" font-family="Helvetica,sans-Serif" font-size="10.00">backend.command.Command</text>
</a>
</g>
</g>
<!-- Node5&#45;&gt;Node4 -->
<g id="edge4" class="edge"><title>Node5&#45;&gt;Node4</title>
<path fill="none" stroke="midnightblue" d="M175,-293.805C175,-284.91 175,-274.78 175,-267.751"/>
<polygon fill="midnightblue" stroke="midnightblue" points="171.5,-294.083 175,-304.083 178.5,-294.083 171.5,-294.083"/>
</g>
</g>
</svg>
