<?xml version="1.0" encoding="UTF-8" standalone="no"?>
<!DOCTYPE svg PUBLIC "-//W3C//DTD SVG 1.1//EN"
 "http://www.w3.org/Graphics/SVG/1.1/DTD/svg11.dtd">
<!-- Generated by graphviz version 2.36.0 (20140111.2315)
 -->
<!-- Title: backend.Grid.getAllTurtles Pages: 1 -->
<svg width="832pt" height="229pt"
 viewBox="0.00 0.00 832.00 229.00" xmlns="http://www.w3.org/2000/svg" xmlns:xlink="http://www.w3.org/1999/xlink">
<g id="graph0" class="graph" transform="scale(1 1) rotate(0) translate(4 225)">
<title>backend.Grid.getAllTurtles</title>
<polygon fill="white" stroke="none" points="-4,4 -4,-225 828,-225 828,4 -4,4"/>
<!-- Node1 -->
<g id="node1" class="node"><title>Node1</title>
<polygon fill="#bfbfbf" stroke="black" points="0,-76.5 0,-95.5 140,-95.5 140,-76.5 0,-76.5"/>
<text text-anchor="middle" x="70" y="-83.5" font-family="Helvetica,sans-Serif" font-size="10.00">backend.Grid.getAllTurtles</text>
</g>
<!-- Node2 -->
<g id="node2" class="node"><title>Node2</title>
<g id="a_node2"><a xlink:href="../../d5/dfc/classbackend_1_1command_1_1_turtle_command.html#a7f974873733f7c940acf4ffa8d6bd32b" target="_top" xlink:title="backend.command.TurtleCommand.all\lTurtles">
<polygon fill="white" stroke="black" points="176.5,-164 176.5,-194 377.5,-194 377.5,-164 176.5,-164"/>
<text text-anchor="start" x="184.5" y="-182" font-family="Helvetica,sans-Serif" font-size="10.00">backend.command.TurtleCommand.all</text>
<text text-anchor="middle" x="277" y="-171" font-family="Helvetica,sans-Serif" font-size="10.00">Turtles</text>
</a>
</g>
</g>
<!-- Node1&#45;&gt;Node2 -->
<g id="edge1" class="edge"><title>Node1&#45;&gt;Node2</title>
<path fill="none" stroke="midnightblue" d="M91.0021,-101.845C111.325,-117.223 144.246,-140.205 176,-154 184.781,-157.815 194.26,-161.127 203.76,-163.98"/>
<polygon fill="midnightblue" stroke="midnightblue" points="92.9115,-98.8976 82.8523,-95.5714 88.6417,-104.445 92.9115,-98.8976"/>
</g>
<!-- Node5 -->
<g id="node5" class="node"><title>Node5</title>
<g id="a_node5"><a xlink:href="../../dd/d24/classgui_1_1_top_menu.html#a0b9572d259c88a1222bf672e6c9f03d3" target="_top" xlink:title="gui.TopMenu.createDisplay\lMenuItems">
<polygon fill="white" stroke="black" points="205,-115 205,-145 349,-145 349,-115 205,-115"/>
<text text-anchor="start" x="213" y="-133" font-family="Helvetica,sans-Serif" font-size="10.00">gui.TopMenu.createDisplay</text>
<text text-anchor="middle" x="277" y="-122" font-family="Helvetica,sans-Serif" font-size="10.00">MenuItems</text>
</a>
</g>
</g>
<!-- Node1&#45;&gt;Node5 -->
<g id="edge4" class="edge"><title>Node1&#45;&gt;Node5</title>
<path fill="none" stroke="midnightblue" d="M125.38,-97.6718C150.039,-102.965 179.505,-109.289 205.809,-114.935"/>
<polygon fill="midnightblue" stroke="midnightblue" points="125.994,-94.2239 115.482,-95.5473 124.525,-101.068 125.994,-94.2239"/>
</g>
<!-- Node8 -->
<g id="node8" class="node"><title>Node8</title>
<g id="a_node8"><a xlink:href="../../d1/d68/classbackend_1_1_grid.html#a523fd99c5d2ae8145c0b8f8a12bb53ce" target="_top" xlink:title="backend.Grid.getShowingTurtles">
<polygon fill="white" stroke="black" points="192.5,-76.5 192.5,-95.5 361.5,-95.5 361.5,-76.5 192.5,-76.5"/>
<text text-anchor="middle" x="277" y="-83.5" font-family="Helvetica,sans-Serif" font-size="10.00">backend.Grid.getShowingTurtles</text>
</a>
</g>
</g>
<!-- Node1&#45;&gt;Node8 -->
<g id="edge7" class="edge"><title>Node1&#45;&gt;Node8</title>
<path fill="none" stroke="midnightblue" d="M150.465,-86C164.167,-86 178.448,-86 192.258,-86"/>
<polygon fill="midnightblue" stroke="midnightblue" points="150.118,-82.5001 140.118,-86 150.118,-89.5001 150.118,-82.5001"/>
</g>
<!-- Node11 -->
<g id="node11" class="node"><title>Node11</title>
<g id="a_node11"><a xlink:href="../../d5/d8a/classgui_1_1_slogo_tab.html#a2a016875b2ea48fa761cd4408a78dd21" target="_top" xlink:title="gui.SlogoTab.setButtonActions">
<polygon fill="white" stroke="black" points="441,-16.5 441,-35.5 603,-35.5 603,-16.5 441,-16.5"/>
<text text-anchor="middle" x="522" y="-23.5" font-family="Helvetica,sans-Serif" font-size="10.00">gui.SlogoTab.setButtonActions</text>
</a>
</g>
</g>
<!-- Node1&#45;&gt;Node11 -->
<g id="edge10" class="edge"><title>Node1&#45;&gt;Node11</title>
<path fill="none" stroke="midnightblue" d="M130.175,-74.6431C145.101,-71.9573 161.114,-69.2292 176,-67 266.522,-53.4438 370.952,-41.5526 440.994,-34.1157"/>
<polygon fill="midnightblue" stroke="midnightblue" points="129.253,-71.2533 120.042,-76.489 130.507,-78.1399 129.253,-71.2533"/>
</g>
<!-- Node13 -->
<g id="node13" class="node"><title>Node13</title>
<g id="a_node13"><a xlink:href="../../d5/d8a/classgui_1_1_slogo_tab.html#a9ccb322bec15528476c85f84e53f14d9" target="_top" xlink:title="gui.SlogoTab.updatePanels">
<polygon fill="white" stroke="black" points="205,-0.5 205,-19.5 349,-19.5 349,-0.5 205,-0.5"/>
<text text-anchor="middle" x="277" y="-7.5" font-family="Helvetica,sans-Serif" font-size="10.00">gui.SlogoTab.updatePanels</text>
</a>
</g>
</g>
<!-- Node1&#45;&gt;Node13 -->
<g id="edge12" class="edge"><title>Node1&#45;&gt;Node13</title>
<path fill="none" stroke="midnightblue" d="M96.4271,-71.3865C117.263,-59.9119 147.806,-44.2179 176,-34 192.198,-28.1296 210.394,-23.2747 226.779,-19.5038"/>
<polygon fill="midnightblue" stroke="midnightblue" points="94.6046,-68.3954 87.58,-76.3268 98.0175,-74.5071 94.6046,-68.3954"/>
</g>
<!-- Node3 -->
<g id="node3" class="node"><title>Node3</title>
<g id="a_node3"><a xlink:href="../../d9/d32/classbackend_1_1command_1_1_clear_stamps.html#a72929c501b515e1a35243bdc05f14f8d" target="_top" xlink:title="backend.command.ClearStamps.execute">
<polygon fill="white" stroke="black" points="414.5,-201.5 414.5,-220.5 629.5,-220.5 629.5,-201.5 414.5,-201.5"/>
<text text-anchor="middle" x="522" y="-208.5" font-family="Helvetica,sans-Serif" font-size="10.00">backend.command.ClearStamps.execute</text>
</a>
</g>
</g>
<!-- Node2&#45;&gt;Node3 -->
<g id="edge2" class="edge"><title>Node2&#45;&gt;Node3</title>
<path fill="none" stroke="midnightblue" d="M387.661,-193.441C408.378,-196.169 429.559,-198.958 448.763,-201.487"/>
<polygon fill="midnightblue" stroke="midnightblue" points="387.91,-189.944 377.539,-192.108 386.996,-196.884 387.91,-189.944"/>
</g>
<!-- Node4 -->
<g id="node4" class="node"><title>Node4</title>
<g id="a_node4"><a xlink:href="../../da/d05/classbackend_1_1command_1_1_turtles.html#a0b113f00307be40c09e2e917f1982d62" target="_top" xlink:title="backend.command.Turtles.execute">
<polygon fill="white" stroke="black" points="430,-163.5 430,-182.5 614,-182.5 614,-163.5 430,-163.5"/>
<text text-anchor="middle" x="522" y="-170.5" font-family="Helvetica,sans-Serif" font-size="10.00">backend.command.Turtles.execute</text>
</a>
</g>
</g>
<!-- Node2&#45;&gt;Node4 -->
<g id="edge3" class="edge"><title>Node2&#45;&gt;Node4</title>
<path fill="none" stroke="midnightblue" d="M387.735,-176.29C401.806,-175.943 416.088,-175.59 429.819,-175.251"/>
<polygon fill="midnightblue" stroke="midnightblue" points="387.449,-172.796 377.539,-176.542 387.622,-179.794 387.449,-172.796"/>
</g>
<!-- Node6 -->
<g id="node6" class="node"><title>Node6</title>
<g id="a_node6"><a xlink:href="../../dd/d24/classgui_1_1_top_menu.html#a2b756e05f495e2d1a4f7ea156ae612d2" target="_top" xlink:title="gui.TopMenu.addMenuBar">
<polygon fill="white" stroke="black" points="452,-120.5 452,-139.5 592,-139.5 592,-120.5 452,-120.5"/>
<text text-anchor="middle" x="522" y="-127.5" font-family="Helvetica,sans-Serif" font-size="10.00">gui.TopMenu.addMenuBar</text>
</a>
</g>
</g>
<!-- Node5&#45;&gt;Node6 -->
<g id="edge5" class="edge"><title>Node5&#45;&gt;Node6</title>
<path fill="none" stroke="midnightblue" d="M359.289,-130C389.297,-130 422.992,-130 451.828,-130"/>
<polygon fill="midnightblue" stroke="midnightblue" points="359.266,-126.5 349.266,-130 359.266,-133.5 359.266,-126.5"/>
</g>
<!-- Node7 -->
<g id="node7" class="node"><title>Node7</title>
<g id="a_node7"><a xlink:href="../../dd/d24/classgui_1_1_top_menu.html#a842402ab5dfa877cfac4e5677809675a" target="_top" xlink:title="gui.TopMenu.TopMenu">
<polygon fill="white" stroke="black" points="684.5,-120.5 684.5,-139.5 805.5,-139.5 805.5,-120.5 684.5,-120.5"/>
<text text-anchor="middle" x="745" y="-127.5" font-family="Helvetica,sans-Serif" font-size="10.00">gui.TopMenu.TopMenu</text>
</a>
</g>
</g>
<!-- Node6&#45;&gt;Node7 -->
<g id="edge6" class="edge"><title>Node6&#45;&gt;Node7</title>
<path fill="none" stroke="midnightblue" d="M602.252,-130C629.348,-130 659.174,-130 684.448,-130"/>
<polygon fill="midnightblue" stroke="midnightblue" points="602.017,-126.5 592.017,-130 602.017,-133.5 602.017,-126.5"/>
</g>
<!-- Node9 -->
<g id="node9" class="node"><title>Node9</title>
<g id="a_node9"><a xlink:href="../../d1/d68/classbackend_1_1_grid.html#a76f49502892f69c6f9b7449ab579a179" target="_top" xlink:title="backend.Grid.getDrawable\lImages">
<polygon fill="white" stroke="black" points="450.5,-71 450.5,-101 593.5,-101 593.5,-71 450.5,-71"/>
<text text-anchor="start" x="458.5" y="-89" font-family="Helvetica,sans-Serif" font-size="10.00">backend.Grid.getDrawable</text>
<text text-anchor="middle" x="522" y="-78" font-family="Helvetica,sans-Serif" font-size="10.00">Images</text>
</a>
</g>
</g>
<!-- Node8&#45;&gt;Node9 -->
<g id="edge8" class="edge"><title>Node8&#45;&gt;Node9</title>
<path fill="none" stroke="midnightblue" d="M371.881,-86C397.896,-86 425.696,-86 450.158,-86"/>
<polygon fill="midnightblue" stroke="midnightblue" points="371.627,-82.5001 361.627,-86 371.627,-89.5001 371.627,-82.5001"/>
</g>
<!-- Node10 -->
<g id="node10" class="node"><title>Node10</title>
<g id="a_node10"><a xlink:href="../../d3/dac/classbackend_1_1_model.html#ac8e09433edb54716ae3e5d4bc5955d34" target="_top" xlink:title="backend.Model.printDrawable\lImages">
<polygon fill="white" stroke="black" points="666,-71 666,-101 824,-101 824,-71 666,-71"/>
<text text-anchor="start" x="674" y="-89" font-family="Helvetica,sans-Serif" font-size="10.00">backend.Model.printDrawable</text>
<text text-anchor="middle" x="745" y="-78" font-family="Helvetica,sans-Serif" font-size="10.00">Images</text>
</a>
</g>
</g>
<!-- Node9&#45;&gt;Node10 -->
<g id="edge9" class="edge"><title>Node9&#45;&gt;Node10</title>
<path fill="none" stroke="midnightblue" d="M603.655,-86C623.896,-86 645.583,-86 665.707,-86"/>
<polygon fill="midnightblue" stroke="midnightblue" points="603.533,-82.5001 593.533,-86 603.533,-89.5001 603.533,-82.5001"/>
</g>
<!-- Node12 -->
<g id="node12" class="node"><title>Node12</title>
<g id="a_node12"><a xlink:href="../../d5/d8a/classgui_1_1_slogo_tab.html#adaa134bc95e1dcf4eb30b3a185c75175" target="_top" xlink:title="gui.SlogoTab.SlogoTab">
<polygon fill="white" stroke="black" points="684,-16.5 684,-35.5 806,-35.5 806,-16.5 684,-16.5"/>
<text text-anchor="middle" x="745" y="-23.5" font-family="Helvetica,sans-Serif" font-size="10.00">gui.SlogoTab.SlogoTab</text>
</a>
</g>
</g>
<!-- Node11&#45;&gt;Node12 -->
<g id="edge11" class="edge"><title>Node11&#45;&gt;Node12</title>
<path fill="none" stroke="midnightblue" d="M613.211,-26C637.024,-26 662.139,-26 683.925,-26"/>
<polygon fill="midnightblue" stroke="midnightblue" points="613.099,-22.5001 603.099,-26 613.099,-29.5001 613.099,-22.5001"/>
</g>
<!-- Node13&#45;&gt;Node11 -->
<g id="edge13" class="edge"><title>Node13&#45;&gt;Node11</title>
<path fill="none" stroke="midnightblue" d="M359.533,-15.3684C385.717,-17.0925 414.689,-19.0001 440.778,-20.7179"/>
<polygon fill="midnightblue" stroke="midnightblue" points="359.474,-11.8571 349.266,-14.6924 359.015,-18.842 359.474,-11.8571"/>
</g>
</g>
</svg>
