<?xml version="1.0" encoding="UTF-8" standalone="no"?>
<!DOCTYPE svg PUBLIC "-//W3C//DTD SVG 1.1//EN"
 "http://www.w3.org/Graphics/SVG/1.1/DTD/svg11.dtd">
<!-- Generated by graphviz version 2.36.0 (20140111.2315)
 -->
<!-- Title: backend.Grid.setActiveTurtles Pages: 1 -->
<svg width="372pt" height="66pt"
 viewBox="0.00 0.00 372.00 66.00" xmlns="http://www.w3.org/2000/svg" xmlns:xlink="http://www.w3.org/1999/xlink">
<g id="graph0" class="graph" transform="scale(1 1) rotate(0) translate(4 62)">
<title>backend.Grid.setActiveTurtles</title>
<polygon fill="white" stroke="none" points="-4,4 -4,-62 368,-62 368,4 -4,4"/>
<!-- Node1 -->
<g id="node1" class="node"><title>Node1</title>
<polygon fill="#bfbfbf" stroke="black" points="0,-19.5 0,-38.5 158,-38.5 158,-19.5 0,-19.5"/>
<text text-anchor="middle" x="79" y="-26.5" font-family="Helvetica,sans-Serif" font-size="10.00">backend.Grid.setActiveTurtles</text>
</g>
<!-- Node2 -->
<g id="node2" class="node"><title>Node2</title>
<g id="a_node2"><a xlink:href="../../de/dcc/classbackend_1_1command_1_1_tell.html#a9efd790cb410947936aed1289e7fc246" target="_top" xlink:title="backend.command.Tell.execute">
<polygon fill="white" stroke="black" points="195.5,-38.5 195.5,-57.5 362.5,-57.5 362.5,-38.5 195.5,-38.5"/>
<text text-anchor="middle" x="279" y="-45.5" font-family="Helvetica,sans-Serif" font-size="10.00">backend.command.Tell.execute</text>
</a>
</g>
</g>
<!-- Node1&#45;&gt;Node2 -->
<g id="edge1" class="edge"><title>Node1&#45;&gt;Node2</title>
<path fill="none" stroke="midnightblue" d="M168.358,-37.4788C177.365,-38.3431 186.491,-39.2188 195.433,-40.0769"/>
<polygon fill="midnightblue" stroke="midnightblue" points="168.543,-33.9806 158.255,-36.5093 167.875,-40.9486 168.543,-33.9806"/>
</g>
<!-- Node3 -->
<g id="node3" class="node"><title>Node3</title>
<g id="a_node3"><a xlink:href="../../d4/d75/classbackend_1_1command_1_1_ask.html#a453b95a58b91a82a2cca53f444a31ff6" target="_top" xlink:title="backend.command.Ask.execute">
<polygon fill="white" stroke="black" points="194,-0.5 194,-19.5 364,-19.5 364,-0.5 194,-0.5"/>
<text text-anchor="middle" x="279" y="-7.5" font-family="Helvetica,sans-Serif" font-size="10.00">backend.command.Ask.execute</text>
</a>
</g>
</g>
<!-- Node1&#45;&gt;Node3 -->
<g id="edge2" class="edge"><title>Node1&#45;&gt;Node3</title>
<path fill="none" stroke="midnightblue" d="M168.463,-20.5111C176.887,-19.7027 185.414,-18.8845 193.797,-18.0801"/>
<polygon fill="midnightblue" stroke="midnightblue" points="167.875,-17.0514 158.255,-21.4907 168.543,-24.0194 167.875,-17.0514"/>
</g>
</g>
</svg>
