<?xml version="1.0" encoding="UTF-8" standalone="no"?>
<!DOCTYPE svg PUBLIC "-//W3C//DTD SVG 1.1//EN"
 "http://www.w3.org/Graphics/SVG/1.1/DTD/svg11.dtd">
<!-- Generated by graphviz version 2.36.0 (20140111.2315)
 -->
<!-- Title: backend.Grid.Grid Pages: 1 -->
<svg width="422pt" height="28pt"
 viewBox="0.00 0.00 422.00 28.00" xmlns="http://www.w3.org/2000/svg" xmlns:xlink="http://www.w3.org/1999/xlink">
<g id="graph0" class="graph" transform="scale(1 1) rotate(0) translate(4 24)">
<title>backend.Grid.Grid</title>
<polygon fill="white" stroke="none" points="-4,4 -4,-24 418,-24 418,4 -4,4"/>
<!-- Node1 -->
<g id="node1" class="node"><title>Node1</title>
<polygon fill="#bfbfbf" stroke="black" points="0,-0.5 0,-19.5 102,-19.5 102,-0.5 0,-0.5"/>
<text text-anchor="middle" x="51" y="-7.5" font-family="Helvetica,sans-Serif" font-size="10.00">backend.Grid.Grid</text>
</g>
<!-- Node2 -->
<g id="node2" class="node"><title>Node2</title>
<g id="a_node2"><a xlink:href="../../d1/d68/classbackend_1_1_grid.html#a06d80c5bd9154d1bcd6b0fb3fb8612b8" target="_top" xlink:title="backend.Grid.addTurtle">
<polygon fill="white" stroke="black" points="138,-0.5 138,-19.5 264,-19.5 264,-0.5 138,-0.5"/>
<text text-anchor="middle" x="201" y="-7.5" font-family="Helvetica,sans-Serif" font-size="10.00">backend.Grid.addTurtle</text>
</a>
</g>
</g>
<!-- Node1&#45;&gt;Node2 -->
<g id="edge1" class="edge"><title>Node1&#45;&gt;Node2</title>
<path fill="none" stroke="midnightblue" d="M102.106,-10C110.364,-10 119.066,-10 127.736,-10"/>
<polygon fill="midnightblue" stroke="midnightblue" points="127.871,-13.5001 137.871,-10 127.871,-6.5001 127.871,-13.5001"/>
</g>
<!-- Node3 -->
<g id="node3" class="node"><title>Node3</title>
<g id="a_node3"><a xlink:href="../../df/de2/classbackend_1_1_turtle.html#a0f56a602b08b9d00181b88413f0534a5" target="_top" xlink:title="backend.Turtle.getID">
<polygon fill="white" stroke="black" points="300,-0.5 300,-19.5 414,-19.5 414,-0.5 300,-0.5"/>
<text text-anchor="middle" x="357" y="-7.5" font-family="Helvetica,sans-Serif" font-size="10.00">backend.Turtle.getID</text>
</a>
</g>
</g>
<!-- Node2&#45;&gt;Node3 -->
<g id="edge2" class="edge"><title>Node2&#45;&gt;Node3</title>
<path fill="none" stroke="midnightblue" d="M264.194,-10C272.502,-10 281.05,-10 289.43,-10"/>
<polygon fill="midnightblue" stroke="midnightblue" points="289.541,-13.5001 299.541,-10 289.541,-6.5001 289.541,-13.5001"/>
</g>
</g>
</svg>
