<?xml version="1.0" encoding="UTF-8" standalone="no"?>
<!DOCTYPE svg PUBLIC "-//W3C//DTD SVG 1.1//EN"
 "http://www.w3.org/Graphics/SVG/1.1/DTD/svg11.dtd">
<!-- Generated by graphviz version 2.36.0 (20140111.2315)
 -->
<!-- Title: backend.Grid.getStamps Pages: 1 -->
<svg width="518pt" height="38pt"
 viewBox="0.00 0.00 518.00 38.00" xmlns="http://www.w3.org/2000/svg" xmlns:xlink="http://www.w3.org/1999/xlink">
<g id="graph0" class="graph" transform="scale(1 1) rotate(0) translate(4 34)">
<title>backend.Grid.getStamps</title>
<polygon fill="white" stroke="none" points="-4,4 -4,-34 514,-34 514,4 -4,4"/>
<!-- Node1 -->
<g id="node1" class="node"><title>Node1</title>
<polygon fill="#bfbfbf" stroke="black" points="0,-5.5 0,-24.5 136,-24.5 136,-5.5 0,-5.5"/>
<text text-anchor="middle" x="68" y="-12.5" font-family="Helvetica,sans-Serif" font-size="10.00">backend.Grid.getStamps</text>
</g>
<!-- Node2 -->
<g id="node2" class="node"><title>Node2</title>
<g id="a_node2"><a xlink:href="../../d1/d68/classbackend_1_1_grid.html#a76f49502892f69c6f9b7449ab579a179" target="_top" xlink:title="backend.Grid.getDrawable\lImages">
<polygon fill="white" stroke="black" points="172.5,-0 172.5,-30 315.5,-30 315.5,-0 172.5,-0"/>
<text text-anchor="start" x="180.5" y="-18" font-family="Helvetica,sans-Serif" font-size="10.00">backend.Grid.getDrawable</text>
<text text-anchor="middle" x="244" y="-7" font-family="Helvetica,sans-Serif" font-size="10.00">Images</text>
</a>
</g>
</g>
<!-- Node1&#45;&gt;Node2 -->
<g id="edge1" class="edge"><title>Node1&#45;&gt;Node2</title>
<path fill="none" stroke="midnightblue" d="M146.38,-15C155.058,-15 163.865,-15 172.451,-15"/>
<polygon fill="midnightblue" stroke="midnightblue" points="146.273,-11.5001 136.273,-15 146.273,-18.5001 146.273,-11.5001"/>
</g>
<!-- Node3 -->
<g id="node3" class="node"><title>Node3</title>
<g id="a_node3"><a xlink:href="../../d3/dac/classbackend_1_1_model.html#ac8e09433edb54716ae3e5d4bc5955d34" target="_top" xlink:title="backend.Model.printDrawable\lImages">
<polygon fill="white" stroke="black" points="352,-0 352,-30 510,-30 510,-0 352,-0"/>
<text text-anchor="start" x="360" y="-18" font-family="Helvetica,sans-Serif" font-size="10.00">backend.Model.printDrawable</text>
<text text-anchor="middle" x="431" y="-7" font-family="Helvetica,sans-Serif" font-size="10.00">Images</text>
</a>
</g>
</g>
<!-- Node2&#45;&gt;Node3 -->
<g id="edge2" class="edge"><title>Node2&#45;&gt;Node3</title>
<path fill="none" stroke="midnightblue" d="M325.817,-15C334.478,-15 343.278,-15 351.906,-15"/>
<polygon fill="midnightblue" stroke="midnightblue" points="325.732,-11.5001 315.732,-15 325.732,-18.5001 325.732,-11.5001"/>
</g>
</g>
</svg>
