<?xml version="1.0" encoding="UTF-8" standalone="no"?>
<!DOCTYPE svg PUBLIC "-//W3C//DTD SVG 1.1//EN"
 "http://www.w3.org/Graphics/SVG/1.1/DTD/svg11.dtd">
<!-- Generated by graphviz version 2.36.0 (20140111.2315)
 -->
<!-- Title: backend.Grid.getLines Pages: 1 -->
<svg width="668pt" height="104pt"
 viewBox="0.00 0.00 668.00 104.00" xmlns="http://www.w3.org/2000/svg" xmlns:xlink="http://www.w3.org/1999/xlink">
<g id="graph0" class="graph" transform="scale(1 1) rotate(0) translate(4 100)">
<title>backend.Grid.getLines</title>
<polygon fill="white" stroke="none" points="-4,4 -4,-100 664,-100 664,4 -4,4"/>
<!-- Node1 -->
<g id="node1" class="node"><title>Node1</title>
<polygon fill="#bfbfbf" stroke="black" points="0.5,-38.5 0.5,-57.5 123.5,-57.5 123.5,-38.5 0.5,-38.5"/>
<text text-anchor="middle" x="62" y="-45.5" font-family="Helvetica,sans-Serif" font-size="10.00">backend.Grid.getLines</text>
</g>
<!-- Node2 -->
<g id="node2" class="node"><title>Node2</title>
<g id="a_node2"><a xlink:href="../../d3/dac/classbackend_1_1_model.html#a982b678868b80d568a91f8d9dabcc9b0" target="_top" xlink:title="backend.Model.printLines">
<polygon fill="white" stroke="black" points="163,-76.5 163,-95.5 301,-95.5 301,-76.5 163,-76.5"/>
<text text-anchor="middle" x="232" y="-83.5" font-family="Helvetica,sans-Serif" font-size="10.00">backend.Model.printLines</text>
</a>
</g>
</g>
<!-- Node1&#45;&gt;Node2 -->
<g id="edge1" class="edge"><title>Node1&#45;&gt;Node2</title>
<path fill="none" stroke="midnightblue" d="M115.276,-59.8243C138.961,-65.1816 166.59,-71.4311 188.911,-76.4799"/>
<polygon fill="midnightblue" stroke="midnightblue" points="115.919,-56.3815 105.393,-57.589 114.375,-63.209 115.919,-56.3815"/>
</g>
<!-- Node3 -->
<g id="node3" class="node"><title>Node3</title>
<g id="a_node3"><a xlink:href="../../d5/d8a/classgui_1_1_slogo_tab.html#a2a016875b2ea48fa761cd4408a78dd21" target="_top" xlink:title="gui.SlogoTab.setButtonActions">
<polygon fill="white" stroke="black" points="340,-19.5 340,-38.5 502,-38.5 502,-19.5 340,-19.5"/>
<text text-anchor="middle" x="421" y="-26.5" font-family="Helvetica,sans-Serif" font-size="10.00">gui.SlogoTab.setButtonActions</text>
</a>
</g>
</g>
<!-- Node1&#45;&gt;Node3 -->
<g id="edge2" class="edge"><title>Node1&#45;&gt;Node3</title>
<path fill="none" stroke="midnightblue" d="M133.61,-44.242C193.051,-41.0785 278.036,-36.5555 339.985,-33.2585"/>
<polygon fill="midnightblue" stroke="midnightblue" points="133.36,-40.7503 123.56,-44.7769 133.732,-47.7404 133.36,-40.7503"/>
</g>
<!-- Node5 -->
<g id="node5" class="node"><title>Node5</title>
<g id="a_node5"><a xlink:href="../../d5/d8a/classgui_1_1_slogo_tab.html#a9ccb322bec15528476c85f84e53f14d9" target="_top" xlink:title="gui.SlogoTab.updatePanels">
<polygon fill="white" stroke="black" points="160,-0.5 160,-19.5 304,-19.5 304,-0.5 160,-0.5"/>
<text text-anchor="middle" x="232" y="-7.5" font-family="Helvetica,sans-Serif" font-size="10.00">gui.SlogoTab.updatePanels</text>
</a>
</g>
</g>
<!-- Node1&#45;&gt;Node5 -->
<g id="edge4" class="edge"><title>Node1&#45;&gt;Node5</title>
<path fill="none" stroke="midnightblue" d="M115.276,-36.1757C138.961,-30.8184 166.59,-24.5689 188.911,-19.5201"/>
<polygon fill="midnightblue" stroke="midnightblue" points="114.375,-32.791 105.393,-38.411 115.919,-39.6185 114.375,-32.791"/>
</g>
<!-- Node4 -->
<g id="node4" class="node"><title>Node4</title>
<g id="a_node4"><a xlink:href="../../d5/d8a/classgui_1_1_slogo_tab.html#adaa134bc95e1dcf4eb30b3a185c75175" target="_top" xlink:title="gui.SlogoTab.SlogoTab">
<polygon fill="white" stroke="black" points="538,-19.5 538,-38.5 660,-38.5 660,-19.5 538,-19.5"/>
<text text-anchor="middle" x="599" y="-26.5" font-family="Helvetica,sans-Serif" font-size="10.00">gui.SlogoTab.SlogoTab</text>
</a>
</g>
</g>
<!-- Node3&#45;&gt;Node4 -->
<g id="edge3" class="edge"><title>Node3&#45;&gt;Node4</title>
<path fill="none" stroke="midnightblue" d="M512.235,-29C520.945,-29 529.626,-29 537.936,-29"/>
<polygon fill="midnightblue" stroke="midnightblue" points="512.018,-25.5001 502.018,-29 512.018,-32.5001 512.018,-25.5001"/>
</g>
<!-- Node5&#45;&gt;Node3 -->
<g id="edge5" class="edge"><title>Node5&#45;&gt;Node3</title>
<path fill="none" stroke="midnightblue" d="M314.449,-18.2755C322.896,-19.1338 331.476,-20.0056 339.908,-20.8623"/>
<polygon fill="midnightblue" stroke="midnightblue" points="314.533,-14.7661 304.23,-17.2373 313.825,-21.7303 314.533,-14.7661"/>
</g>
</g>
</svg>
