<?xml version="1.0" encoding="UTF-8" standalone="no"?>
<!DOCTYPE svg PUBLIC "-//W3C//DTD SVG 1.1//EN"
 "http://www.w3.org/Graphics/SVG/1.1/DTD/svg11.dtd">
<!-- Generated by graphviz version 2.36.0 (20140111.2315)
 -->
<!-- Title: backend.Grid.getDrawableImages Pages: 1 -->
<svg width="534pt" height="66pt"
 viewBox="0.00 0.00 534.00 66.00" xmlns="http://www.w3.org/2000/svg" xmlns:xlink="http://www.w3.org/1999/xlink">
<g id="graph0" class="graph" transform="scale(1 1) rotate(0) translate(4 62)">
<title>backend.Grid.getDrawableImages</title>
<polygon fill="white" stroke="none" points="-4,4 -4,-62 530,-62 530,4 -4,4"/>
<!-- Node1 -->
<g id="node1" class="node"><title>Node1</title>
<polygon fill="#bfbfbf" stroke="black" points="0.5,-14 0.5,-44 143.5,-44 143.5,-14 0.5,-14"/>
<text text-anchor="start" x="8.5" y="-32" font-family="Helvetica,sans-Serif" font-size="10.00">backend.Grid.getDrawable</text>
<text text-anchor="middle" x="72" y="-21" font-family="Helvetica,sans-Serif" font-size="10.00">Images</text>
</g>
<!-- Node2 -->
<g id="node2" class="node"><title>Node2</title>
<g id="a_node2"><a xlink:href="../../d1/d68/classbackend_1_1_grid.html#a523fd99c5d2ae8145c0b8f8a12bb53ce" target="_top" xlink:title="backend.Grid.getShowingTurtles">
<polygon fill="white" stroke="black" points="180.5,-38.5 180.5,-57.5 349.5,-57.5 349.5,-38.5 180.5,-38.5"/>
<text text-anchor="middle" x="265" y="-45.5" font-family="Helvetica,sans-Serif" font-size="10.00">backend.Grid.getShowingTurtles</text>
</a>
</g>
</g>
<!-- Node1&#45;&gt;Node2 -->
<g id="edge1" class="edge"><title>Node1&#45;&gt;Node2</title>
<path fill="none" stroke="midnightblue" d="M143.579,-36.0209C152.303,-36.8888 161.326,-37.7864 170.328,-38.6818"/>
<polygon fill="midnightblue" stroke="midnightblue" points="170.167,-42.183 180.464,-39.6902 170.86,-35.2174 170.167,-42.183"/>
</g>
<!-- Node4 -->
<g id="node4" class="node"><title>Node4</title>
<g id="a_node4"><a xlink:href="../../d1/d68/classbackend_1_1_grid.html#ac00d6f94ec04b6031de67557147249ea" target="_top" xlink:title="backend.Grid.getStamps">
<polygon fill="white" stroke="black" points="197,-0.5 197,-19.5 333,-19.5 333,-0.5 197,-0.5"/>
<text text-anchor="middle" x="265" y="-7.5" font-family="Helvetica,sans-Serif" font-size="10.00">backend.Grid.getStamps</text>
</a>
</g>
</g>
<!-- Node1&#45;&gt;Node4 -->
<g id="edge3" class="edge"><title>Node1&#45;&gt;Node4</title>
<path fill="none" stroke="midnightblue" d="M143.579,-21.9791C157.603,-20.584 172.397,-19.1123 186.634,-17.6961"/>
<polygon fill="midnightblue" stroke="midnightblue" points="187.279,-21.1493 196.883,-16.6766 186.586,-14.1837 187.279,-21.1493"/>
</g>
<!-- Node3 -->
<g id="node3" class="node"><title>Node3</title>
<g id="a_node3"><a xlink:href="../../d1/d68/classbackend_1_1_grid.html#ac089ef72a1531ec8e0cf131de056d0b2" target="_top" xlink:title="backend.Grid.getAllTurtles">
<polygon fill="white" stroke="black" points="386,-38.5 386,-57.5 526,-57.5 526,-38.5 386,-38.5"/>
<text text-anchor="middle" x="456" y="-45.5" font-family="Helvetica,sans-Serif" font-size="10.00">backend.Grid.getAllTurtles</text>
</a>
</g>
</g>
<!-- Node2&#45;&gt;Node3 -->
<g id="edge2" class="edge"><title>Node2&#45;&gt;Node3</title>
<path fill="none" stroke="midnightblue" d="M349.724,-48C358.382,-48 367.162,-48 375.769,-48"/>
<polygon fill="midnightblue" stroke="midnightblue" points="375.775,-51.5001 385.775,-48 375.775,-44.5001 375.775,-51.5001"/>
</g>
</g>
</svg>
