<?xml version="1.0" encoding="UTF-8" standalone="no"?>
<!DOCTYPE svg PUBLIC "-//W3C//DTD SVG 1.1//EN"
 "http://www.w3.org/Graphics/SVG/1.1/DTD/svg11.dtd">
<!-- Generated by graphviz version 2.36.0 (20140111.2315)
 -->
<!-- Title: backend.Grid.getDrawableImages Pages: 1 -->
<svg width="346pt" height="38pt"
 viewBox="0.00 0.00 346.00 38.00" xmlns="http://www.w3.org/2000/svg" xmlns:xlink="http://www.w3.org/1999/xlink">
<g id="graph0" class="graph" transform="scale(1 1) rotate(0) translate(4 34)">
<title>backend.Grid.getDrawableImages</title>
<polygon fill="white" stroke="none" points="-4,4 -4,-34 342,-34 342,4 -4,4"/>
<!-- Node1 -->
<g id="node1" class="node"><title>Node1</title>
<polygon fill="#bfbfbf" stroke="black" points="0.5,-0 0.5,-30 143.5,-30 143.5,-0 0.5,-0"/>
<text text-anchor="start" x="8.5" y="-18" font-family="Helvetica,sans-Serif" font-size="10.00">backend.Grid.getDrawable</text>
<text text-anchor="middle" x="72" y="-7" font-family="Helvetica,sans-Serif" font-size="10.00">Images</text>
</g>
<!-- Node2 -->
<g id="node2" class="node"><title>Node2</title>
<g id="a_node2"><a xlink:href="../../d3/dac/classbackend_1_1_model.html#ac8e09433edb54716ae3e5d4bc5955d34" target="_top" xlink:title="backend.Model.printDrawable\lImages">
<polygon fill="white" stroke="black" points="180,-0 180,-30 338,-30 338,-0 180,-0"/>
<text text-anchor="start" x="188" y="-18" font-family="Helvetica,sans-Serif" font-size="10.00">backend.Model.printDrawable</text>
<text text-anchor="middle" x="259" y="-7" font-family="Helvetica,sans-Serif" font-size="10.00">Images</text>
</a>
</g>
</g>
<!-- Node1&#45;&gt;Node2 -->
<g id="edge1" class="edge"><title>Node1&#45;&gt;Node2</title>
<path fill="none" stroke="midnightblue" d="M153.817,-15C162.478,-15 171.278,-15 179.906,-15"/>
<polygon fill="midnightblue" stroke="midnightblue" points="153.732,-11.5001 143.732,-15 153.732,-18.5001 153.732,-11.5001"/>
</g>
</g>
</svg>
