<?xml version="1.0" encoding="UTF-8" standalone="no"?>
<!DOCTYPE svg PUBLIC "-//W3C//DTD SVG 1.1//EN"
 "http://www.w3.org/Graphics/SVG/1.1/DTD/svg11.dtd">
<!-- Generated by graphviz version 2.36.0 (20140111.2315)
 -->
<!-- Title: backend.Grid.getActiveTurtles Pages: 1 -->
<svg width="628pt" height="77pt"
 viewBox="0.00 0.00 628.00 77.00" xmlns="http://www.w3.org/2000/svg" xmlns:xlink="http://www.w3.org/1999/xlink">
<g id="graph0" class="graph" transform="scale(1 1) rotate(0) translate(4 73)">
<title>backend.Grid.getActiveTurtles</title>
<polygon fill="white" stroke="none" points="-4,4 -4,-73 624,-73 624,4 -4,4"/>
<!-- Node1 -->
<g id="node1" class="node"><title>Node1</title>
<polygon fill="#bfbfbf" stroke="black" points="0,-22.5 0,-41.5 158,-41.5 158,-22.5 0,-22.5"/>
<text text-anchor="middle" x="79" y="-29.5" font-family="Helvetica,sans-Serif" font-size="10.00">backend.Grid.getActiveTurtles</text>
</g>
<!-- Node2 -->
<g id="node2" class="node"><title>Node2</title>
<g id="a_node2"><a xlink:href="../../d5/dfc/classbackend_1_1command_1_1_turtle_command.html#abc5335b628982bd9ef9c3602d6b2b60e" target="_top" xlink:title="backend.command.TurtleCommand.active\lTurtles">
<polygon fill="white" stroke="black" points="194.5,-17 194.5,-47 413.5,-47 413.5,-17 194.5,-17"/>
<text text-anchor="start" x="202.5" y="-35" font-family="Helvetica,sans-Serif" font-size="10.00">backend.command.TurtleCommand.active</text>
<text text-anchor="middle" x="304" y="-24" font-family="Helvetica,sans-Serif" font-size="10.00">Turtles</text>
</a>
</g>
</g>
<!-- Node1&#45;&gt;Node2 -->
<g id="edge1" class="edge"><title>Node1&#45;&gt;Node2</title>
<path fill="none" stroke="midnightblue" d="M168.549,-32C177.032,-32 185.7,-32 194.345,-32"/>
<polygon fill="midnightblue" stroke="midnightblue" points="168.308,-28.5001 158.308,-32 168.308,-35.5001 168.308,-28.5001"/>
</g>
<!-- Node3 -->
<g id="node3" class="node"><title>Node3</title>
<g id="a_node3"><a xlink:href="../../d8/db4/classbackend_1_1command_1_1_active_turtle_command.html#a57112668aa5ac898122c5bd1a426afcd" target="_top" xlink:title="backend.command.ActiveTurtle\lCommand.execute">
<polygon fill="white" stroke="black" points="451.5,-39 451.5,-69 618.5,-69 618.5,-39 451.5,-39"/>
<text text-anchor="start" x="459.5" y="-57" font-family="Helvetica,sans-Serif" font-size="10.00">backend.command.ActiveTurtle</text>
<text text-anchor="middle" x="535" y="-46" font-family="Helvetica,sans-Serif" font-size="10.00">Command.execute</text>
</a>
</g>
</g>
<!-- Node2&#45;&gt;Node3 -->
<g id="edge2" class="edge"><title>Node2&#45;&gt;Node3</title>
<path fill="none" stroke="midnightblue" d="M423.831,-43.4161C433.073,-44.304 442.277,-45.1882 451.202,-46.0457"/>
<polygon fill="midnightblue" stroke="midnightblue" points="424.088,-39.9248 413.799,-42.4523 423.419,-46.8927 424.088,-39.9248"/>
</g>
<!-- Node4 -->
<g id="node4" class="node"><title>Node4</title>
<g id="a_node4"><a xlink:href="../../d4/d75/classbackend_1_1command_1_1_ask.html#a453b95a58b91a82a2cca53f444a31ff6" target="_top" xlink:title="backend.command.Ask.execute">
<polygon fill="white" stroke="black" points="450,-0.5 450,-19.5 620,-19.5 620,-0.5 450,-0.5"/>
<text text-anchor="middle" x="535" y="-7.5" font-family="Helvetica,sans-Serif" font-size="10.00">backend.command.Ask.execute</text>
</a>
</g>
</g>
<!-- Node2&#45;&gt;Node4 -->
<g id="edge3" class="edge"><title>Node2&#45;&gt;Node4</title>
<path fill="none" stroke="midnightblue" d="M424.031,-20.5647C432.744,-19.7276 441.422,-18.894 449.862,-18.0831"/>
<polygon fill="midnightblue" stroke="midnightblue" points="423.419,-17.1073 413.799,-21.5477 424.088,-24.0752 423.419,-17.1073"/>
</g>
</g>
</svg>
