<?xml version="1.0" encoding="UTF-8" standalone="no"?>
<!DOCTYPE svg PUBLIC "-//W3C//DTD SVG 1.1//EN"
 "http://www.w3.org/Graphics/SVG/1.1/DTD/svg11.dtd">
<!-- Generated by graphviz version 2.36.0 (20140111.2315)
 -->
<!-- Title: gui.TabPanel.TabPanel Pages: 1 -->
<svg width="464pt" height="28pt"
 viewBox="0.00 0.00 464.00 28.00" xmlns="http://www.w3.org/2000/svg" xmlns:xlink="http://www.w3.org/1999/xlink">
<g id="graph0" class="graph" transform="scale(1 1) rotate(0) translate(4 24)">
<title>gui.TabPanel.TabPanel</title>
<polygon fill="white" stroke="none" points="-4,4 -4,-24 460,-24 460,4 -4,4"/>
<!-- Node1 -->
<g id="node1" class="node"><title>Node1</title>
<polygon fill="#bfbfbf" stroke="black" points="0.5,-0.5 0.5,-19.5 119.5,-19.5 119.5,-0.5 0.5,-0.5"/>
<text text-anchor="middle" x="60" y="-7.5" font-family="Helvetica,sans-Serif" font-size="10.00">gui.TabPanel.TabPanel</text>
</g>
<!-- Node2 -->
<g id="node2" class="node"><title>Node2</title>
<g id="a_node2"><a xlink:href="../../d5/d23/classgui_1_1_tab_panel.html#ab83601f6975c8ba9e8d3de2f271ace94" target="_top" xlink:title="gui.TabPanel.makeTabPane">
<polygon fill="white" stroke="black" points="156,-0.5 156,-19.5 300,-19.5 300,-0.5 156,-0.5"/>
<text text-anchor="middle" x="228" y="-7.5" font-family="Helvetica,sans-Serif" font-size="10.00">gui.TabPanel.makeTabPane</text>
</a>
</g>
</g>
<!-- Node1&#45;&gt;Node2 -->
<g id="edge1" class="edge"><title>Node1&#45;&gt;Node2</title>
<path fill="none" stroke="midnightblue" d="M119.525,-10C128.071,-10 136.996,-10 145.893,-10"/>
<polygon fill="midnightblue" stroke="midnightblue" points="145.903,-13.5001 155.903,-10 145.903,-6.5001 145.903,-13.5001"/>
</g>
<!-- Node3 -->
<g id="node3" class="node"><title>Node3</title>
<g id="a_node3"><a xlink:href="../../df/dc3/classgui_1_1_main.html#ad9b02558bc225d0ee0bf37fb04d5c4b6" target="_top" xlink:title="gui.Main.setActiveTab">
<polygon fill="white" stroke="black" points="336.5,-0.5 336.5,-19.5 455.5,-19.5 455.5,-0.5 336.5,-0.5"/>
<text text-anchor="middle" x="396" y="-7.5" font-family="Helvetica,sans-Serif" font-size="10.00">gui.Main.setActiveTab</text>
</a>
</g>
</g>
<!-- Node2&#45;&gt;Node3 -->
<g id="edge2" class="edge"><title>Node2&#45;&gt;Node3</title>
<path fill="none" stroke="midnightblue" d="M300.362,-10C308.921,-10 317.648,-10 326.17,-10"/>
<polygon fill="midnightblue" stroke="midnightblue" points="326.438,-13.5001 336.438,-10 326.438,-6.5001 326.438,-13.5001"/>
</g>
</g>
</svg>
