<?xml version="1.0" encoding="UTF-8" standalone="no"?>
<!DOCTYPE svg PUBLIC "-//W3C//DTD SVG 1.1//EN"
 "http://www.w3.org/Graphics/SVG/1.1/DTD/svg11.dtd">
<!-- Generated by graphviz version 2.36.0 (20140111.2315)
 -->
<!-- Title: gui.TabPanel.makeNewTab Pages: 1 -->
<svg width="672pt" height="77pt"
 viewBox="0.00 0.00 672.00 77.00" xmlns="http://www.w3.org/2000/svg" xmlns:xlink="http://www.w3.org/1999/xlink">
<g id="graph0" class="graph" transform="scale(1 1) rotate(0) translate(4 73)">
<title>gui.TabPanel.makeNewTab</title>
<polygon fill="white" stroke="none" points="-4,4 -4,-73 668,-73 668,4 -4,4"/>
<!-- Node1 -->
<g id="node1" class="node"><title>Node1</title>
<polygon fill="#bfbfbf" stroke="black" points="0.5,-22.5 0.5,-41.5 141.5,-41.5 141.5,-22.5 0.5,-22.5"/>
<text text-anchor="middle" x="71" y="-29.5" font-family="Helvetica,sans-Serif" font-size="10.00">gui.TabPanel.makeNewTab</text>
</g>
<!-- Node2 -->
<g id="node2" class="node"><title>Node2</title>
<g id="a_node2"><a xlink:href="../../dd/d24/classgui_1_1_top_menu.html#ad230c298835163fed6e9f41a18b168cd" target="_top" xlink:title="gui.TopMenu.createFileMenu\lItems">
<polygon fill="white" stroke="black" points="178.5,-39 178.5,-69 329.5,-69 329.5,-39 178.5,-39"/>
<text text-anchor="start" x="186.5" y="-57" font-family="Helvetica,sans-Serif" font-size="10.00">gui.TopMenu.createFileMenu</text>
<text text-anchor="middle" x="254" y="-46" font-family="Helvetica,sans-Serif" font-size="10.00">Items</text>
</a>
</g>
</g>
<!-- Node1&#45;&gt;Node2 -->
<g id="edge1" class="edge"><title>Node1&#45;&gt;Node2</title>
<path fill="none" stroke="midnightblue" d="M151.905,-41.7122C160.65,-42.7751 169.529,-43.8543 178.209,-44.9093"/>
<polygon fill="midnightblue" stroke="midnightblue" points="152.07,-38.2066 141.72,-40.4743 151.225,-45.1554 152.07,-38.2066"/>
</g>
<!-- Node5 -->
<g id="node5" class="node"><title>Node5</title>
<g id="a_node5"><a xlink:href="../../df/dc3/classgui_1_1_main.html#a81b36f2aea2f0cb5823e1e7b1546487c" target="_top" xlink:title="gui.Main.start">
<polygon fill="white" stroke="black" points="213,-0.5 213,-19.5 295,-19.5 295,-0.5 213,-0.5"/>
<text text-anchor="middle" x="254" y="-7.5" font-family="Helvetica,sans-Serif" font-size="10.00">gui.Main.start</text>
</a>
</g>
</g>
<!-- Node1&#45;&gt;Node5 -->
<g id="edge4" class="edge"><title>Node1&#45;&gt;Node5</title>
<path fill="none" stroke="midnightblue" d="M151.703,-22.3123C172.88,-19.7383 194.857,-17.0671 212.907,-14.8732"/>
<polygon fill="midnightblue" stroke="midnightblue" points="151.225,-18.8446 141.72,-23.5257 152.07,-25.7934 151.225,-18.8446"/>
</g>
<!-- Node3 -->
<g id="node3" class="node"><title>Node3</title>
<g id="a_node3"><a xlink:href="../../dd/d24/classgui_1_1_top_menu.html#a2b756e05f495e2d1a4f7ea156ae612d2" target="_top" xlink:title="gui.TopMenu.addMenuBar">
<polygon fill="white" stroke="black" points="366,-44.5 366,-63.5 506,-63.5 506,-44.5 366,-44.5"/>
<text text-anchor="middle" x="436" y="-51.5" font-family="Helvetica,sans-Serif" font-size="10.00">gui.TopMenu.addMenuBar</text>
</a>
</g>
</g>
<!-- Node2&#45;&gt;Node3 -->
<g id="edge2" class="edge"><title>Node2&#45;&gt;Node3</title>
<path fill="none" stroke="midnightblue" d="M339.701,-54C348.424,-54 357.213,-54 365.739,-54"/>
<polygon fill="midnightblue" stroke="midnightblue" points="339.512,-50.5001 329.512,-54 339.512,-57.5001 339.512,-50.5001"/>
</g>
<!-- Node4 -->
<g id="node4" class="node"><title>Node4</title>
<g id="a_node4"><a xlink:href="../../dd/d24/classgui_1_1_top_menu.html#a842402ab5dfa877cfac4e5677809675a" target="_top" xlink:title="gui.TopMenu.TopMenu">
<polygon fill="white" stroke="black" points="542.5,-44.5 542.5,-63.5 663.5,-63.5 663.5,-44.5 542.5,-44.5"/>
<text text-anchor="middle" x="603" y="-51.5" font-family="Helvetica,sans-Serif" font-size="10.00">gui.TopMenu.TopMenu</text>
</a>
</g>
</g>
<!-- Node3&#45;&gt;Node4 -->
<g id="edge3" class="edge"><title>Node3&#45;&gt;Node4</title>
<path fill="none" stroke="midnightblue" d="M516.297,-54C525.092,-54 533.936,-54 542.428,-54"/>
<polygon fill="midnightblue" stroke="midnightblue" points="516.019,-50.5001 506.019,-54 516.019,-57.5001 516.019,-50.5001"/>
</g>
</g>
</svg>
