<?xml version="1.0" encoding="UTF-8" standalone="no"?>
<!DOCTYPE svg PUBLIC "-//W3C//DTD SVG 1.1//EN"
 "http://www.w3.org/Graphics/SVG/1.1/DTD/svg11.dtd">
<!-- Generated by graphviz version 2.36.0 (20140111.2315)
 -->
<!-- Title: backend.command.SetHeading Pages: 1 -->
<svg width="198pt" height="332pt"
 viewBox="0.00 0.00 198.00 332.00" xmlns="http://www.w3.org/2000/svg" xmlns:xlink="http://www.w3.org/1999/xlink">
<g id="graph0" class="graph" transform="scale(1 1) rotate(0) translate(4 328)">
<title>backend.command.SetHeading</title>
<polygon fill="white" stroke="none" points="-4,4 -4,-328 194,-328 194,4 -4,4"/>
<!-- Node1 -->
<g id="node1" class="node"><title>Node1</title>
<polygon fill="#bfbfbf" stroke="black" points="11,-0.5 11,-19.5 179,-19.5 179,-0.5 11,-0.5"/>
<text text-anchor="middle" x="95" y="-7.5" font-family="Helvetica,sans-Serif" font-size="10.00">backend.command.SetHeading</text>
</g>
<!-- Node2 -->
<g id="node2" class="node"><title>Node2</title>
<g id="a_node2"><a xlink:href="../../dd/d3e/classbackend_1_1command_1_1_degrees_turtle_command.html" target="_top" xlink:title="backend.command.DegreesTurtle\lCommand">
<polygon fill="white" stroke="black" points="6,-57 6,-87 184,-87 184,-57 6,-57"/>
<text text-anchor="start" x="14" y="-75" font-family="Helvetica,sans-Serif" font-size="10.00">backend.command.DegreesTurtle</text>
<text text-anchor="middle" x="95" y="-64" font-family="Helvetica,sans-Serif" font-size="10.00">Command</text>
</a>
</g>
</g>
<!-- Node2&#45;&gt;Node1 -->
<g id="edge1" class="edge"><title>Node2&#45;&gt;Node1</title>
<path fill="none" stroke="midnightblue" d="M95,-46.5858C95,-37.0743 95,-26.7864 95,-19.7305"/>
<polygon fill="midnightblue" stroke="midnightblue" points="91.5001,-46.7808 95,-56.7808 98.5001,-46.7809 91.5001,-46.7808"/>
</g>
<!-- Node3 -->
<g id="node3" class="node"><title>Node3</title>
<g id="a_node3"><a xlink:href="../../d8/db4/classbackend_1_1command_1_1_active_turtle_command.html" target="_top" xlink:title="backend.command.ActiveTurtle\lCommand">
<polygon fill="white" stroke="black" points="11.5,-125 11.5,-155 178.5,-155 178.5,-125 11.5,-125"/>
<text text-anchor="start" x="19.5" y="-143" font-family="Helvetica,sans-Serif" font-size="10.00">backend.command.ActiveTurtle</text>
<text text-anchor="middle" x="95" y="-132" font-family="Helvetica,sans-Serif" font-size="10.00">Command</text>
</a>
</g>
</g>
<!-- Node3&#45;&gt;Node2 -->
<g id="edge2" class="edge"><title>Node3&#45;&gt;Node2</title>
<path fill="none" stroke="midnightblue" d="M95,-114.532C95,-105.361 95,-95.2449 95,-87.2931"/>
<polygon fill="midnightblue" stroke="midnightblue" points="91.5001,-114.679 95,-124.679 98.5001,-114.679 91.5001,-114.679"/>
</g>
<!-- Node4 -->
<g id="node4" class="node"><title>Node4</title>
<g id="a_node4"><a xlink:href="../../d5/dfc/classbackend_1_1command_1_1_turtle_command.html" target="_top" xlink:title="backend.command.TurtleCommand">
<polygon fill="white" stroke="black" points="1,-192.5 1,-211.5 189,-211.5 189,-192.5 1,-192.5"/>
<text text-anchor="middle" x="95" y="-199.5" font-family="Helvetica,sans-Serif" font-size="10.00">backend.command.TurtleCommand</text>
</a>
</g>
</g>
<!-- Node4&#45;&gt;Node3 -->
<g id="edge3" class="edge"><title>Node4&#45;&gt;Node3</title>
<path fill="none" stroke="midnightblue" d="M95,-182.371C95,-173.585 95,-163.272 95,-155.141"/>
<polygon fill="midnightblue" stroke="midnightblue" points="91.5001,-182.403 95,-192.403 98.5001,-182.403 91.5001,-182.403"/>
</g>
<!-- Node5 -->
<g id="node5" class="node"><title>Node5</title>
<g id="a_node5"><a xlink:href="../../dc/d67/classbackend_1_1command_1_1_model_command.html" target="_top" xlink:title="backend.command.ModelCommand">
<polygon fill="white" stroke="black" points="-0.5,-248.5 -0.5,-267.5 190.5,-267.5 190.5,-248.5 -0.5,-248.5"/>
<text text-anchor="middle" x="95" y="-255.5" font-family="Helvetica,sans-Serif" font-size="10.00">backend.command.ModelCommand</text>
</a>
</g>
</g>
<!-- Node5&#45;&gt;Node4 -->
<g id="edge4" class="edge"><title>Node5&#45;&gt;Node4</title>
<path fill="none" stroke="midnightblue" d="M95,-237.805C95,-228.91 95,-218.78 95,-211.751"/>
<polygon fill="midnightblue" stroke="midnightblue" points="91.5001,-238.083 95,-248.083 98.5001,-238.083 91.5001,-238.083"/>
</g>
<!-- Node6 -->
<g id="node6" class="node"><title>Node6</title>
<g id="a_node6"><a xlink:href="../../dc/d83/classbackend_1_1command_1_1_command.html" target="_top" xlink:title="backend.command.Command">
<polygon fill="white" stroke="black" points="14,-304.5 14,-323.5 176,-323.5 176,-304.5 14,-304.5"/>
<text text-anchor="middle" x="95" y="-311.5" font-family="Helvetica,sans-Serif" font-size="10.00">backend.command.Command</text>
</a>
</g>
</g>
<!-- Node6&#45;&gt;Node5 -->
<g id="edge5" class="edge"><title>Node6&#45;&gt;Node5</title>
<path fill="none" stroke="midnightblue" d="M95,-293.805C95,-284.91 95,-274.78 95,-267.751"/>
<polygon fill="midnightblue" stroke="midnightblue" points="91.5001,-294.083 95,-304.083 98.5001,-294.083 91.5001,-294.083"/>
</g>
</g>
</svg>
