<?xml version="1.0" encoding="UTF-8" standalone="no"?>
<!DOCTYPE svg PUBLIC "-//W3C//DTD SVG 1.1//EN"
 "http://www.w3.org/Graphics/SVG/1.1/DTD/svg11.dtd">
<!-- Generated by graphviz version 2.36.0 (20140111.2315)
 -->
<!-- Title: backend.command.Or Pages: 1 -->
<svg width="188pt" height="220pt"
 viewBox="0.00 0.00 188.00 220.00" xmlns="http://www.w3.org/2000/svg" xmlns:xlink="http://www.w3.org/1999/xlink">
<g id="graph0" class="graph" transform="scale(1 1) rotate(0) translate(4 216)">
<title>backend.command.Or</title>
<polygon fill="white" stroke="none" points="-4,4 -4,-216 184,-216 184,4 -4,4"/>
<!-- Node1 -->
<g id="node1" class="node"><title>Node1</title>
<polygon fill="#bfbfbf" stroke="black" points="28.5,-0.5 28.5,-19.5 151.5,-19.5 151.5,-0.5 28.5,-0.5"/>
<text text-anchor="middle" x="90" y="-7.5" font-family="Helvetica,sans-Serif" font-size="10.00">backend.command.Or</text>
</g>
<!-- Node2 -->
<g id="node2" class="node"><title>Node2</title>
<g id="a_node2"><a xlink:href="../../d9/d65/classbackend_1_1command_1_1_binary_boolean_operation.html" target="_top" xlink:title="backend.command.BinaryBoolean\lOperation">
<polygon fill="white" stroke="black" points="-0.5,-57 -0.5,-87 180.5,-87 180.5,-57 -0.5,-57"/>
<text text-anchor="start" x="7.5" y="-75" font-family="Helvetica,sans-Serif" font-size="10.00">backend.command.BinaryBoolean</text>
<text text-anchor="middle" x="90" y="-64" font-family="Helvetica,sans-Serif" font-size="10.00">Operation</text>
</a>
</g>
</g>
<!-- Node2&#45;&gt;Node1 -->
<g id="edge1" class="edge"><title>Node2&#45;&gt;Node1</title>
<path fill="none" stroke="midnightblue" d="M90,-46.5858C90,-37.0743 90,-26.7864 90,-19.7305"/>
<polygon fill="midnightblue" stroke="midnightblue" points="86.5001,-46.7808 90,-56.7808 93.5001,-46.7809 86.5001,-46.7808"/>
</g>
<!-- Node3 -->
<g id="node3" class="node"><title>Node3</title>
<g id="a_node3"><a xlink:href="../../dc/d64/classbackend_1_1command_1_1_binary_math_operation.html" target="_top" xlink:title="backend.command.BinaryMath\lOperation">
<polygon fill="white" stroke="black" points="7,-125 7,-155 173,-155 173,-125 7,-125"/>
<text text-anchor="start" x="15" y="-143" font-family="Helvetica,sans-Serif" font-size="10.00">backend.command.BinaryMath</text>
<text text-anchor="middle" x="90" y="-132" font-family="Helvetica,sans-Serif" font-size="10.00">Operation</text>
</a>
</g>
</g>
<!-- Node3&#45;&gt;Node2 -->
<g id="edge2" class="edge"><title>Node3&#45;&gt;Node2</title>
<path fill="none" stroke="midnightblue" d="M90,-114.532C90,-105.361 90,-95.2449 90,-87.2931"/>
<polygon fill="midnightblue" stroke="midnightblue" points="86.5001,-114.679 90,-124.679 93.5001,-114.679 86.5001,-114.679"/>
</g>
<!-- Node4 -->
<g id="node4" class="node"><title>Node4</title>
<g id="a_node4"><a xlink:href="../../dc/d83/classbackend_1_1command_1_1_command.html" target="_top" xlink:title="backend.command.Command">
<polygon fill="white" stroke="black" points="9,-192.5 9,-211.5 171,-211.5 171,-192.5 9,-192.5"/>
<text text-anchor="middle" x="90" y="-199.5" font-family="Helvetica,sans-Serif" font-size="10.00">backend.command.Command</text>
</a>
</g>
</g>
<!-- Node4&#45;&gt;Node3 -->
<g id="edge3" class="edge"><title>Node4&#45;&gt;Node3</title>
<path fill="none" stroke="midnightblue" d="M90,-182.371C90,-173.585 90,-163.272 90,-155.141"/>
<polygon fill="midnightblue" stroke="midnightblue" points="86.5001,-182.403 90,-192.403 93.5001,-182.403 86.5001,-182.403"/>
</g>
</g>
</svg>
