<?xml version="1.0" encoding="UTF-8" standalone="no"?>
<!DOCTYPE svg PUBLIC "-//W3C//DTD SVG 1.1//EN"
 "http://www.w3.org/Graphics/SVG/1.1/DTD/svg11.dtd">
<!-- Generated by graphviz version 2.36.0 (20140111.2315)
 -->
<!-- Title: backend.command.Ask.execute Pages: 1 -->
<svg width="900pt" height="252pt"
 viewBox="0.00 0.00 900.00 252.00" xmlns="http://www.w3.org/2000/svg" xmlns:xlink="http://www.w3.org/1999/xlink">
<g id="graph0" class="graph" transform="scale(1 1) rotate(0) translate(4 248)">
<title>backend.command.Ask.execute</title>
<polygon fill="white" stroke="none" points="-4,4 -4,-248 896,-248 896,4 -4,4"/>
<!-- Node1 -->
<g id="node1" class="node"><title>Node1</title>
<polygon fill="#bfbfbf" stroke="black" points="0,-115.5 0,-134.5 170,-134.5 170,-115.5 0,-115.5"/>
<text text-anchor="middle" x="85" y="-122.5" font-family="Helvetica,sans-Serif" font-size="10.00">backend.command.Ask.execute</text>
</g>
<!-- Node2 -->
<g id="node2" class="node"><title>Node2</title>
<g id="a_node2"><a xlink:href="../../d5/dfc/classbackend_1_1command_1_1_turtle_command.html#abc5335b628982bd9ef9c3602d6b2b60e" target="_top" xlink:title="backend.command.TurtleCommand.active\lTurtles">
<polygon fill="white" stroke="black" points="206.5,-214 206.5,-244 425.5,-244 425.5,-214 206.5,-214"/>
<text text-anchor="start" x="214.5" y="-232" font-family="Helvetica,sans-Serif" font-size="10.00">backend.command.TurtleCommand.active</text>
<text text-anchor="middle" x="316" y="-221" font-family="Helvetica,sans-Serif" font-size="10.00">Turtles</text>
</a>
</g>
</g>
<!-- Node1&#45;&gt;Node2 -->
<g id="edge1" class="edge"><title>Node1&#45;&gt;Node2</title>
<path fill="none" stroke="midnightblue" d="M98.9906,-134.748C120.303,-150.33 164.483,-180.927 206,-199 216.37,-203.514 227.593,-207.516 238.761,-211.007"/>
<polygon fill="midnightblue" stroke="midnightblue" points="237.954,-214.419 248.538,-213.944 239.968,-207.715 237.954,-214.419"/>
</g>
<!-- Node3 -->
<g id="node3" class="node"><title>Node3</title>
<g id="a_node3"><a xlink:href="../../dc/d67/classbackend_1_1command_1_1_model_command.html#ab57d058d26b965a9038487f69f40c066" target="_top" xlink:title="backend.command.ModelCommand.grid">
<polygon fill="white" stroke="black" points="462,-175.5 462,-194.5 674,-194.5 674,-175.5 462,-175.5"/>
<text text-anchor="middle" x="568" y="-182.5" font-family="Helvetica,sans-Serif" font-size="10.00">backend.command.ModelCommand.grid</text>
</a>
</g>
</g>
<!-- Node1&#45;&gt;Node3 -->
<g id="edge6" class="edge"><title>Node1&#45;&gt;Node3</title>
<path fill="none" stroke="midnightblue" d="M108.054,-134.605C131.751,-144.431 170.766,-159.191 206,-166 287.05,-181.664 380.112,-186.247 451.447,-187.002"/>
<polygon fill="midnightblue" stroke="midnightblue" points="451.782,-190.504 461.81,-187.086 451.839,-183.505 451.782,-190.504"/>
</g>
<!-- Node6 -->
<g id="node6" class="node"><title>Node6</title>
<g id="a_node6"><a xlink:href="../../dc/d83/classbackend_1_1command_1_1_command.html#af87287df30654e3519de27f646d0684d" target="_top" xlink:title="backend.command.Command.execute">
<polygon fill="white" stroke="black" points="214.5,-137.5 214.5,-156.5 417.5,-156.5 417.5,-137.5 214.5,-137.5"/>
<text text-anchor="middle" x="316" y="-144.5" font-family="Helvetica,sans-Serif" font-size="10.00">backend.command.Command.execute</text>
</a>
</g>
</g>
<!-- Node1&#45;&gt;Node6 -->
<g id="edge5" class="edge"><title>Node1&#45;&gt;Node6</title>
<path fill="none" stroke="midnightblue" d="M170.296,-133.098C181.853,-134.209 193.853,-135.361 205.776,-136.507"/>
<polygon fill="midnightblue" stroke="midnightblue" points="205.473,-139.994 215.762,-137.466 206.142,-133.026 205.473,-139.994"/>
</g>
<!-- Node7 -->
<g id="node7" class="node"><title>Node7</title>
<g id="a_node7"><a xlink:href="../../d4/d75/classbackend_1_1command_1_1_ask.html#abd50c1cfc9be3d293fe6f46243ae830a" target="_top" xlink:title="backend.command.Ask.param\lCommandList">
<polygon fill="white" stroke="black" points="234,-88 234,-118 398,-118 398,-88 234,-88"/>
<text text-anchor="start" x="242" y="-106" font-family="Helvetica,sans-Serif" font-size="10.00">backend.command.Ask.param</text>
<text text-anchor="middle" x="316" y="-95" font-family="Helvetica,sans-Serif" font-size="10.00">CommandList</text>
</a>
</g>
</g>
<!-- Node1&#45;&gt;Node7 -->
<g id="edge7" class="edge"><title>Node1&#45;&gt;Node7</title>
<path fill="none" stroke="midnightblue" d="M170.296,-116.902C187.673,-115.232 206.049,-113.467 223.662,-111.775"/>
<polygon fill="midnightblue" stroke="midnightblue" points="224.312,-115.229 233.931,-110.788 223.643,-108.261 224.312,-115.229"/>
</g>
<!-- Node8 -->
<g id="node8" class="node"><title>Node8</title>
<g id="a_node8"><a xlink:href="../../d1/d68/classbackend_1_1_grid.html#a808ad576df450a8342f040c2b69b87da" target="_top" xlink:title="backend.Grid.setActiveTurtles">
<polygon fill="white" stroke="black" points="237,-49.5 237,-68.5 395,-68.5 395,-49.5 237,-49.5"/>
<text text-anchor="middle" x="316" y="-56.5" font-family="Helvetica,sans-Serif" font-size="10.00">backend.Grid.setActiveTurtles</text>
</a>
</g>
</g>
<!-- Node1&#45;&gt;Node8 -->
<g id="edge8" class="edge"><title>Node1&#45;&gt;Node8</title>
<path fill="none" stroke="midnightblue" d="M106.804,-115.37C130.395,-104.802 170.234,-88.012 206,-78 216.268,-75.1258 227.207,-72.6047 238.045,-70.4188"/>
<polygon fill="midnightblue" stroke="midnightblue" points="238.793,-73.8391 247.947,-68.505 237.464,-66.9663 238.793,-73.8391"/>
</g>
<!-- Node9 -->
<g id="node9" class="node"><title>Node9</title>
<g id="a_node9"><a xlink:href="../../d4/d68/classbackend_1_1command_1_1_specified_turtle_command.html#abd0266fe718a56aae9fd137321772c0c" target="_top" xlink:title="backend.command.Specified\lTurtleCommand.specifiedTurtles">
<polygon fill="white" stroke="black" points="232,-0 232,-30 400,-30 400,-0 232,-0"/>
<text text-anchor="start" x="240" y="-18" font-family="Helvetica,sans-Serif" font-size="10.00">backend.command.Specified</text>
<text text-anchor="middle" x="316" y="-7" font-family="Helvetica,sans-Serif" font-size="10.00">TurtleCommand.specifiedTurtles</text>
</a>
</g>
</g>
<!-- Node1&#45;&gt;Node9 -->
<g id="edge9" class="edge"><title>Node1&#45;&gt;Node9</title>
<path fill="none" stroke="midnightblue" d="M96.3612,-115.474C116.13,-97.826 161.26,-60.0269 206,-40 211.64,-37.4753 217.563,-35.192 223.61,-33.129"/>
<polygon fill="midnightblue" stroke="midnightblue" points="224.734,-36.4442 233.194,-30.0655 222.603,-29.7766 224.734,-36.4442"/>
</g>
<!-- Node2&#45;&gt;Node3 -->
<g id="edge2" class="edge"><title>Node2&#45;&gt;Node3</title>
<path fill="none" stroke="midnightblue" d="M402.337,-213.981C435.252,-208.188 472.26,-201.674 502.842,-196.292"/>
<polygon fill="midnightblue" stroke="midnightblue" points="503.71,-199.693 512.952,-194.512 502.497,-192.799 503.71,-199.693"/>
</g>
<!-- Node5 -->
<g id="node5" class="node"><title>Node5</title>
<g id="a_node5"><a xlink:href="../../d1/d68/classbackend_1_1_grid.html#af86d95bc9c540e24acaf580162d2f8b1" target="_top" xlink:title="backend.Grid.getActiveTurtles">
<polygon fill="white" stroke="black" points="489,-219.5 489,-238.5 647,-238.5 647,-219.5 489,-219.5"/>
<text text-anchor="middle" x="568" y="-226.5" font-family="Helvetica,sans-Serif" font-size="10.00">backend.Grid.getActiveTurtles</text>
</a>
</g>
</g>
<!-- Node2&#45;&gt;Node5 -->
<g id="edge4" class="edge"><title>Node2&#45;&gt;Node5</title>
<path fill="none" stroke="midnightblue" d="M425.563,-229C443.132,-229 461.142,-229 478.172,-229"/>
<polygon fill="midnightblue" stroke="midnightblue" points="478.636,-232.5 488.636,-229 478.636,-225.5 478.636,-232.5"/>
</g>
<!-- Node4 -->
<g id="node4" class="node"><title>Node4</title>
<g id="a_node4"><a xlink:href="../../d3/dac/classbackend_1_1_model.html#a341c789b1a3e0bf796fb626603928e95" target="_top" xlink:title="backend.Model.getGrid">
<polygon fill="white" stroke="black" points="737.5,-175.5 737.5,-194.5 864.5,-194.5 864.5,-175.5 737.5,-175.5"/>
<text text-anchor="middle" x="801" y="-182.5" font-family="Helvetica,sans-Serif" font-size="10.00">backend.Model.getGrid</text>
</a>
</g>
</g>
<!-- Node3&#45;&gt;Node4 -->
<g id="edge3" class="edge"><title>Node3&#45;&gt;Node4</title>
<path fill="none" stroke="midnightblue" d="M674.023,-185C691.986,-185 710.29,-185 727.178,-185"/>
<polygon fill="midnightblue" stroke="midnightblue" points="727.494,-188.5 737.494,-185 727.494,-181.5 727.494,-188.5"/>
</g>
<!-- Node9&#45;&gt;Node3 -->
<g id="edge12" class="edge"><title>Node9&#45;&gt;Node3</title>
<path fill="none" stroke="midnightblue" d="M400.14,-28.7395C409.155,-31.7742 417.962,-35.4785 426,-40 483.687,-72.4515 532.868,-135.729 554.793,-166.842"/>
<polygon fill="midnightblue" stroke="midnightblue" points="552.138,-169.157 560.701,-175.395 557.898,-165.178 552.138,-169.157"/>
</g>
<!-- Node10 -->
<g id="node10" class="node"><title>Node10</title>
<g id="a_node10"><a xlink:href="../../d4/d68/classbackend_1_1command_1_1_specified_turtle_command.html#ab25fb774fe75fbb22c36d33876d0abeb" target="_top" xlink:title="backend.command.Specified\lTurtleCommand.paramTurtleIds">
<polygon fill="white" stroke="black" points="485,-0 485,-30 651,-30 651,-0 485,-0"/>
<text text-anchor="start" x="493" y="-18" font-family="Helvetica,sans-Serif" font-size="10.00">backend.command.Specified</text>
<text text-anchor="middle" x="568" y="-7" font-family="Helvetica,sans-Serif" font-size="10.00">TurtleCommand.paramTurtleIds</text>
</a>
</g>
</g>
<!-- Node9&#45;&gt;Node10 -->
<g id="edge10" class="edge"><title>Node9&#45;&gt;Node10</title>
<path fill="none" stroke="midnightblue" d="M400.246,-15C424.109,-15 450.266,-15 474.642,-15"/>
<polygon fill="midnightblue" stroke="midnightblue" points="474.968,-18.5001 484.968,-15 474.968,-11.5001 474.968,-18.5001"/>
</g>
<!-- Node11 -->
<g id="node11" class="node"><title>Node11</title>
<g id="a_node11"><a xlink:href="../../dc/d83/classbackend_1_1command_1_1_command.html#a606032e5ef26d465113f65e6e3c09bef" target="_top" xlink:title="backend.command.Command.get\lParam">
<polygon fill="white" stroke="black" points="710.5,-0 710.5,-30 891.5,-30 891.5,-0 710.5,-0"/>
<text text-anchor="start" x="718.5" y="-18" font-family="Helvetica,sans-Serif" font-size="10.00">backend.command.Command.get</text>
<text text-anchor="middle" x="801" y="-7" font-family="Helvetica,sans-Serif" font-size="10.00">Param</text>
</a>
</g>
</g>
<!-- Node10&#45;&gt;Node11 -->
<g id="edge11" class="edge"><title>Node10&#45;&gt;Node11</title>
<path fill="none" stroke="midnightblue" d="M651.092,-15C666.986,-15 683.804,-15 700.192,-15"/>
<polygon fill="midnightblue" stroke="midnightblue" points="700.328,-18.5001 710.328,-15 700.328,-11.5001 700.328,-18.5001"/>
</g>
</g>
</svg>
