<?xml version="1.0" encoding="UTF-8" standalone="no"?>
<!DOCTYPE svg PUBLIC "-//W3C//DTD SVG 1.1//EN"
 "http://www.w3.org/Graphics/SVG/1.1/DTD/svg11.dtd">
<!-- Generated by graphviz version 2.36.0 (20140111.2315)
 -->
<!-- Title: backend.command.PenDown.execute Pages: 1 -->
<svg width="700pt" height="28pt"
 viewBox="0.00 0.00 700.00 28.00" xmlns="http://www.w3.org/2000/svg" xmlns:xlink="http://www.w3.org/1999/xlink">
<g id="graph0" class="graph" transform="scale(1 1) rotate(0) translate(4 24)">
<title>backend.command.PenDown.execute</title>
<polygon fill="white" stroke="none" points="-4,4 -4,-24 696,-24 696,4 -4,4"/>
<!-- Node1 -->
<g id="node1" class="node"><title>Node1</title>
<polygon fill="#bfbfbf" stroke="black" points="0.5,-0.5 0.5,-19.5 197.5,-19.5 197.5,-0.5 0.5,-0.5"/>
<text text-anchor="middle" x="99" y="-7.5" font-family="Helvetica,sans-Serif" font-size="10.00">backend.command.PenDown.execute</text>
</g>
<!-- Node2 -->
<g id="node2" class="node"><title>Node2</title>
<g id="a_node2"><a xlink:href="../../df/de2/classbackend_1_1_turtle.html#afd9a35fc030e1c1316fe461a970787ec" target="_top" xlink:title="backend.Turtle.setPenDown">
<polygon fill="white" stroke="black" points="234,-0.5 234,-19.5 382,-19.5 382,-0.5 234,-0.5"/>
<text text-anchor="middle" x="308" y="-7.5" font-family="Helvetica,sans-Serif" font-size="10.00">backend.Turtle.setPenDown</text>
</a>
</g>
</g>
<!-- Node1&#45;&gt;Node2 -->
<g id="edge1" class="edge"><title>Node1&#45;&gt;Node2</title>
<path fill="none" stroke="midnightblue" d="M197.741,-10C206.374,-10 215.061,-10 223.56,-10"/>
<polygon fill="midnightblue" stroke="midnightblue" points="223.817,-13.5001 233.817,-10 223.817,-6.5001 223.817,-13.5001"/>
</g>
<!-- Node3 -->
<g id="node3" class="node"><title>Node3</title>
<g id="a_node3"><a xlink:href="../../de/dc9/classbackend_1_1_pen.html#a75748f196e519d6d7cbed599f3617d71" target="_top" xlink:title="backend.Pen.setDown">
<polygon fill="white" stroke="black" points="418,-0.5 418,-19.5 540,-19.5 540,-0.5 418,-0.5"/>
<text text-anchor="middle" x="479" y="-7.5" font-family="Helvetica,sans-Serif" font-size="10.00">backend.Pen.setDown</text>
</a>
</g>
</g>
<!-- Node2&#45;&gt;Node3 -->
<g id="edge2" class="edge"><title>Node2&#45;&gt;Node3</title>
<path fill="none" stroke="midnightblue" d="M382.143,-10C390.641,-10 399.296,-10 407.754,-10"/>
<polygon fill="midnightblue" stroke="midnightblue" points="407.95,-13.5001 417.95,-10 407.95,-6.5001 407.95,-13.5001"/>
</g>
<!-- Node4 -->
<g id="node4" class="node"><title>Node4</title>
<g id="a_node4"><a xlink:href="../../de/dc9/classbackend_1_1_pen.html#abfd32c7785accc4f570322aa0b29f650" target="_top" xlink:title="backend.Pen.isDown">
<polygon fill="white" stroke="black" points="576.5,-0.5 576.5,-19.5 691.5,-19.5 691.5,-0.5 576.5,-0.5"/>
<text text-anchor="middle" x="634" y="-7.5" font-family="Helvetica,sans-Serif" font-size="10.00">backend.Pen.isDown</text>
</a>
</g>
</g>
<!-- Node3&#45;&gt;Node4 -->
<g id="edge3" class="edge"><title>Node3&#45;&gt;Node4</title>
<path fill="none" stroke="midnightblue" d="M540.031,-10C548.575,-10 557.407,-10 566.073,-10"/>
<polygon fill="midnightblue" stroke="midnightblue" points="566.142,-13.5001 576.142,-10 566.142,-6.5001 566.142,-13.5001"/>
</g>
</g>
</svg>
