<?xml version="1.0" encoding="UTF-8" standalone="no"?>
<!DOCTYPE svg PUBLIC "-//W3C//DTD SVG 1.1//EN"
 "http://www.w3.org/Graphics/SVG/1.1/DTD/svg11.dtd">
<!-- Generated by graphviz version 2.36.0 (20140111.2315)
 -->
<!-- Title: gui.ColorPickingScreen Pages: 1 -->
<svg width="140pt" height="96pt"
 viewBox="0.00 0.00 140.00 96.00" xmlns="http://www.w3.org/2000/svg" xmlns:xlink="http://www.w3.org/1999/xlink">
<g id="graph0" class="graph" transform="scale(1 1) rotate(0) translate(4 92)">
<title>gui.ColorPickingScreen</title>
<polygon fill="white" stroke="none" points="-4,4 -4,-92 136,-92 136,4 -4,4"/>
<!-- Node1 -->
<g id="node1" class="node"><title>Node1</title>
<polygon fill="#bfbfbf" stroke="black" points="7.5,-0.5 7.5,-19.5 132.5,-19.5 132.5,-0.5 7.5,-0.5"/>
<text text-anchor="middle" x="70" y="-7.5" font-family="Helvetica,sans-Serif" font-size="10.00">gui.ColorPickingScreen</text>
</g>
<!-- Node2 -->
<g id="node2" class="node"><title>Node2</title>
<polygon fill="white" stroke="#bfbfbf" points="-0.5,-68.5 -0.5,-87.5 68.5,-87.5 68.5,-68.5 -0.5,-68.5"/>
<text text-anchor="middle" x="34" y="-75.5" font-family="Helvetica,sans-Serif" font-size="10.00">Application</text>
</g>
<!-- Node2&#45;&gt;Node1 -->
<g id="edge1" class="edge"><title>Node2&#45;&gt;Node1</title>
<path fill="none" stroke="midnightblue" d="M43.5111,-59.563C50.4828,-46.7815 59.6582,-29.9599 65.1776,-19.8411"/>
<polygon fill="midnightblue" stroke="midnightblue" points="40.4223,-57.9167 38.7064,-68.3717 46.5676,-61.2687 40.4223,-57.9167"/>
</g>
<!-- Node3 -->
<g id="node3" class="node"><title>Node3</title>
<polygon fill="white" stroke="#bfbfbf" points="86.5,-68.5 86.5,-87.5 127.5,-87.5 127.5,-68.5 86.5,-68.5"/>
<text text-anchor="middle" x="107" y="-75.5" font-family="Helvetica,sans-Serif" font-size="10.00">Color</text>
</g>
<!-- Node3&#45;&gt;Node1 -->
<g id="edge2" class="edge"><title>Node3&#45;&gt;Node1</title>
<path fill="none" stroke="#9a32cd" stroke-dasharray="5,2" d="M97.2247,-59.563C90.0593,-46.7815 80.629,-29.9599 74.9564,-19.8411"/>
<polygon fill="#9a32cd" stroke="#9a32cd" points="94.2198,-61.3604 102.163,-68.3717 100.326,-57.9373 94.2198,-61.3604"/>
<text text-anchor="middle" x="104.5" y="-41.5" font-family="Helvetica,sans-Serif" font-size="10.00"> color</text>
</g>
</g>
</svg>
