<?xml version="1.0" encoding="UTF-8" standalone="no"?>
<!DOCTYPE svg PUBLIC "-//W3C//DTD SVG 1.1//EN"
 "http://www.w3.org/Graphics/SVG/1.1/DTD/svg11.dtd">
<!-- Generated by graphviz version 2.36.0 (20140111.2315)
 -->
<!-- Title: backend.command.ActiveTurtleCommand.execute Pages: 1 -->
<svg width="844pt" height="113pt"
 viewBox="0.00 0.00 844.00 113.00" xmlns="http://www.w3.org/2000/svg" xmlns:xlink="http://www.w3.org/1999/xlink">
<g id="graph0" class="graph" transform="scale(1 1) rotate(0) translate(4 109)">
<title>backend.command.ActiveTurtleCommand.execute</title>
<polygon fill="white" stroke="none" points="-4,4 -4,-109 840,-109 840,4 -4,4"/>
<!-- Node1 -->
<g id="node1" class="node"><title>Node1</title>
<polygon fill="#bfbfbf" stroke="black" points="0.5,-39 0.5,-69 167.5,-69 167.5,-39 0.5,-39"/>
<text text-anchor="start" x="8.5" y="-57" font-family="Helvetica,sans-Serif" font-size="10.00">backend.command.ActiveTurtle</text>
<text text-anchor="middle" x="84" y="-46" font-family="Helvetica,sans-Serif" font-size="10.00">Command.execute</text>
</g>
<!-- Node2 -->
<g id="node2" class="node"><title>Node2</title>
<g id="a_node2"><a xlink:href="../../d5/dfc/classbackend_1_1command_1_1_turtle_command.html#abc5335b628982bd9ef9c3602d6b2b60e" target="_top" xlink:title="backend.command.TurtleCommand.active\lTurtles">
<polygon fill="white" stroke="black" points="204.5,-39 204.5,-69 423.5,-69 423.5,-39 204.5,-39"/>
<text text-anchor="start" x="212.5" y="-57" font-family="Helvetica,sans-Serif" font-size="10.00">backend.command.TurtleCommand.active</text>
<text text-anchor="middle" x="314" y="-46" font-family="Helvetica,sans-Serif" font-size="10.00">Turtles</text>
</a>
</g>
</g>
<!-- Node1&#45;&gt;Node2 -->
<g id="edge1" class="edge"><title>Node1&#45;&gt;Node2</title>
<path fill="none" stroke="midnightblue" d="M167.636,-54C176.339,-54 185.308,-54 194.315,-54"/>
<polygon fill="midnightblue" stroke="midnightblue" points="194.489,-57.5001 204.489,-54 194.489,-50.5001 194.489,-57.5001"/>
</g>
<!-- Node3 -->
<g id="node3" class="node"><title>Node3</title>
<g id="a_node3"><a xlink:href="../../dc/d67/classbackend_1_1command_1_1_model_command.html#ab57d058d26b965a9038487f69f40c066" target="_top" xlink:title="backend.command.ModelCommand.grid">
<polygon fill="white" stroke="black" points="460,-85.5 460,-104.5 672,-104.5 672,-85.5 460,-85.5"/>
<text text-anchor="middle" x="566" y="-92.5" font-family="Helvetica,sans-Serif" font-size="10.00">backend.command.ModelCommand.grid</text>
</a>
</g>
</g>
<!-- Node1&#45;&gt;Node3 -->
<g id="edge5" class="edge"><title>Node1&#45;&gt;Node3</title>
<path fill="none" stroke="midnightblue" d="M150.177,-69.0015C167.578,-72.4965 186.43,-75.8274 204,-78 285.755,-88.1096 378.605,-92.321 449.665,-94.0251"/>
<polygon fill="midnightblue" stroke="midnightblue" points="449.911,-97.5314 459.988,-94.2587 450.07,-90.5332 449.911,-97.5314"/>
</g>
<!-- Node6 -->
<g id="node6" class="node"><title>Node6</title>
<g id="a_node6"><a xlink:href="../../d1/d68/classbackend_1_1_grid.html#acd7f7a689b8cfea76f059debb83a1cf4" target="_top" xlink:title="backend.Grid.setActiveTurtle">
<polygon fill="white" stroke="black" points="238,-0.5 238,-19.5 390,-19.5 390,-0.5 238,-0.5"/>
<text text-anchor="middle" x="314" y="-7.5" font-family="Helvetica,sans-Serif" font-size="10.00">backend.Grid.setActiveTurtle</text>
</a>
</g>
</g>
<!-- Node1&#45;&gt;Node6 -->
<g id="edge6" class="edge"><title>Node1&#45;&gt;Node6</title>
<path fill="none" stroke="midnightblue" d="M154.451,-38.989C170.688,-35.5962 187.933,-32.0871 204,-29 217.586,-26.3897 232.154,-23.7443 246.077,-21.2902"/>
<polygon fill="midnightblue" stroke="midnightblue" points="246.831,-24.7116 256.078,-19.5403 245.624,-17.8163 246.831,-24.7116"/>
</g>
<!-- Node2&#45;&gt;Node3 -->
<g id="edge2" class="edge"><title>Node2&#45;&gt;Node3</title>
<path fill="none" stroke="midnightblue" d="M406.671,-69.0341C436.458,-73.9192 468.97,-79.251 496.739,-83.8051"/>
<polygon fill="midnightblue" stroke="midnightblue" points="496.306,-87.2809 506.741,-85.4455 497.439,-80.3732 496.306,-87.2809"/>
</g>
<!-- Node5 -->
<g id="node5" class="node"><title>Node5</title>
<g id="a_node5"><a xlink:href="../../d1/d68/classbackend_1_1_grid.html#af86d95bc9c540e24acaf580162d2f8b1" target="_top" xlink:title="backend.Grid.getActiveTurtles">
<polygon fill="white" stroke="black" points="487,-44.5 487,-63.5 645,-63.5 645,-44.5 487,-44.5"/>
<text text-anchor="middle" x="566" y="-51.5" font-family="Helvetica,sans-Serif" font-size="10.00">backend.Grid.getActiveTurtles</text>
</a>
</g>
</g>
<!-- Node2&#45;&gt;Node5 -->
<g id="edge4" class="edge"><title>Node2&#45;&gt;Node5</title>
<path fill="none" stroke="midnightblue" d="M423.563,-54C441.132,-54 459.142,-54 476.172,-54"/>
<polygon fill="midnightblue" stroke="midnightblue" points="476.636,-57.5001 486.636,-54 476.636,-50.5001 476.636,-57.5001"/>
</g>
<!-- Node4 -->
<g id="node4" class="node"><title>Node4</title>
<g id="a_node4"><a xlink:href="../../d3/dac/classbackend_1_1_model.html#a341c789b1a3e0bf796fb626603928e95" target="_top" xlink:title="backend.Model.getGrid">
<polygon fill="white" stroke="black" points="708.5,-85.5 708.5,-104.5 835.5,-104.5 835.5,-85.5 708.5,-85.5"/>
<text text-anchor="middle" x="772" y="-92.5" font-family="Helvetica,sans-Serif" font-size="10.00">backend.Model.getGrid</text>
</a>
</g>
</g>
<!-- Node3&#45;&gt;Node4 -->
<g id="edge3" class="edge"><title>Node3&#45;&gt;Node4</title>
<path fill="none" stroke="midnightblue" d="M672.287,-95C681.083,-95 689.847,-95 698.316,-95"/>
<polygon fill="midnightblue" stroke="midnightblue" points="698.482,-98.5001 708.482,-95 698.482,-91.5001 698.482,-98.5001"/>
</g>
</g>
</svg>
