<?xml version="1.0" encoding="UTF-8" standalone="no"?>
<!DOCTYPE svg PUBLIC "-//W3C//DTD SVG 1.1//EN"
 "http://www.w3.org/Graphics/SVG/1.1/DTD/svg11.dtd">
<!-- Generated by graphviz version 2.36.0 (20140111.2315)
 -->
<!-- Title: backend.command.Heading.execute Pages: 1 -->
<svg width="384pt" height="66pt"
 viewBox="0.00 0.00 384.00 66.00" xmlns="http://www.w3.org/2000/svg" xmlns:xlink="http://www.w3.org/1999/xlink">
<g id="graph0" class="graph" transform="scale(1 1) rotate(0) translate(4 62)">
<title>backend.command.Heading.execute</title>
<polygon fill="white" stroke="none" points="-4,4 -4,-62 380,-62 380,4 -4,4"/>
<!-- Node1 -->
<g id="node1" class="node"><title>Node1</title>
<polygon fill="#bfbfbf" stroke="black" points="0.5,-19.5 0.5,-38.5 193.5,-38.5 193.5,-19.5 0.5,-19.5"/>
<text text-anchor="middle" x="97" y="-26.5" font-family="Helvetica,sans-Serif" font-size="10.00">backend.command.Heading.execute</text>
</g>
<!-- Node2 -->
<g id="node2" class="node"><title>Node2</title>
<g id="a_node2"><a xlink:href="../../d8/d98/classbackend_1_1_heading.html#a184d1ef92b62ea73e6edc57e07d3c0d4" target="_top" xlink:title="backend.Heading.getAngle">
<polygon fill="white" stroke="black" points="230,-38.5 230,-57.5 376,-57.5 376,-38.5 230,-38.5"/>
<text text-anchor="middle" x="303" y="-45.5" font-family="Helvetica,sans-Serif" font-size="10.00">backend.Heading.getAngle</text>
</a>
</g>
</g>
<!-- Node1&#45;&gt;Node2 -->
<g id="edge1" class="edge"><title>Node1&#45;&gt;Node2</title>
<path fill="none" stroke="midnightblue" d="M193.728,-37.9159C202.434,-38.7267 211.2,-39.5431 219.773,-40.3416"/>
<polygon fill="midnightblue" stroke="midnightblue" points="219.451,-43.8267 229.732,-41.2692 220.1,-36.8568 219.451,-43.8267"/>
</g>
<!-- Node3 -->
<g id="node3" class="node"><title>Node3</title>
<g id="a_node3"><a xlink:href="../../df/de2/classbackend_1_1_turtle.html#aaefef90d2377833d5e721222660deccc" target="_top" xlink:title="backend.Turtle.getHeading">
<polygon fill="white" stroke="black" points="231,-0.5 231,-19.5 375,-19.5 375,-0.5 231,-0.5"/>
<text text-anchor="middle" x="303" y="-7.5" font-family="Helvetica,sans-Serif" font-size="10.00">backend.Turtle.getHeading</text>
</a>
</g>
</g>
<!-- Node1&#45;&gt;Node3 -->
<g id="edge2" class="edge"><title>Node1&#45;&gt;Node3</title>
<path fill="none" stroke="midnightblue" d="M193.728,-20.0841C202.829,-19.2365 211.997,-18.3827 220.94,-17.5497"/>
<polygon fill="midnightblue" stroke="midnightblue" points="221.294,-21.032 230.926,-16.6196 220.645,-14.0621 221.294,-21.032"/>
</g>
</g>
</svg>
