<?xml version="1.0" encoding="UTF-8" standalone="no"?>
<!DOCTYPE svg PUBLIC "-//W3C//DTD SVG 1.1//EN"
 "http://www.w3.org/Graphics/SVG/1.1/DTD/svg11.dtd">
<!-- Generated by graphviz version 2.36.0 (20140111.2315)
 -->
<!-- Title: backend.Model Pages: 1 -->
<svg width="1156pt" height="443pt"
 viewBox="0.00 0.00 1156.00 442.83" xmlns="http://www.w3.org/2000/svg" xmlns:xlink="http://www.w3.org/1999/xlink">
<g id="graph0" class="graph" transform="scale(1 1) rotate(0) translate(4 438.83)">
<title>backend.Model</title>
<polygon fill="white" stroke="none" points="-4,4 -4,-438.83 1152,-438.83 1152,4 -4,4"/>
<!-- Node1 -->
<g id="node1" class="node"><title>Node1</title>
<polygon fill="#bfbfbf" stroke="black" points="548.5,-277.33 548.5,-296.33 637.5,-296.33 637.5,-277.33 548.5,-277.33"/>
<text text-anchor="middle" x="593" y="-284.33" font-family="Helvetica,sans-Serif" font-size="10.00">backend.Model</text>
</g>
<!-- Node7 -->
<g id="node7" class="node"><title>Node7</title>
<g id="a_node7"><a xlink:href="../../d3/dd9/classbackend_1_1command_1_1_command_factory.html" target="_top" xlink:title="backend.command.CommandFactory">
<polygon fill="white" stroke="black" points="734.5,-243.33 734.5,-262.33 931.5,-262.33 931.5,-243.33 734.5,-243.33"/>
<text text-anchor="middle" x="833" y="-250.33" font-family="Helvetica,sans-Serif" font-size="10.00">backend.command.CommandFactory</text>
</a>
</g>
</g>
<!-- Node1&#45;&gt;Node7 -->
<g id="edge7" class="edge"><title>Node1&#45;&gt;Node7</title>
<path fill="none" stroke="#9a32cd" stroke-dasharray="5,2" d="M616.248,-271.603C627.606,-264.733 641.961,-257.376 656,-253.83 680.886,-247.545 708.389,-245.277 734.113,-245.066"/>
<polygon fill="#9a32cd" stroke="#9a32cd" points="614.054,-268.85 607.486,-277.164 617.805,-274.76 614.054,-268.85"/>
<text text-anchor="middle" x="686" y="-256.83" font-family="Helvetica,sans-Serif" font-size="10.00"> model</text>
</g>
<!-- Node2 -->
<g id="node2" class="node"><title>Node2</title>
<polygon fill="white" stroke="#bfbfbf" points="256.5,-404.83 256.5,-434.83 407.5,-434.83 407.5,-404.83 256.5,-404.83"/>
<text text-anchor="start" x="264.5" y="-422.83" font-family="Helvetica,sans-Serif" font-size="10.00">HashMap&lt; String, backend.</text>
<text text-anchor="middle" x="332" y="-411.83" font-family="Helvetica,sans-Serif" font-size="10.00">Variable &gt;</text>
</g>
<!-- Node2&#45;&gt;Node1 -->
<g id="edge1" class="edge"><title>Node2&#45;&gt;Node1</title>
<path fill="none" stroke="#9a32cd" stroke-dasharray="5,2" d="M418.138,-415.763C455.052,-410.604 497.228,-399.839 530,-377.83 560.788,-357.154 580.518,-315.556 588.269,-296.619"/>
<polygon fill="#9a32cd" stroke="#9a32cd" points="417.354,-412.335 407.878,-417.074 418.241,-419.278 417.354,-412.335"/>
<text text-anchor="middle" x="478" y="-416.83" font-family="Helvetica,sans-Serif" font-size="10.00"> userVariables</text>
</g>
<!-- Node3 -->
<g id="node3" class="node"><title>Node3</title>
<polygon fill="white" stroke="#bfbfbf" points="274,-366.33 274,-385.33 390,-385.33 390,-366.33 274,-366.33"/>
<text text-anchor="middle" x="332" y="-373.33" font-family="Helvetica,sans-Serif" font-size="10.00">Stack&lt; Command &gt;</text>
</g>
<!-- Node3&#45;&gt;Node1 -->
<g id="edge2" class="edge"><title>Node3&#45;&gt;Node1</title>
<path fill="none" stroke="#9a32cd" stroke-dasharray="5,2" d="M400.185,-368.349C439.35,-362.254 488.956,-351.486 530,-332.83 550.255,-323.624 570.311,-307.015 581.909,-296.475"/>
<polygon fill="#9a32cd" stroke="#9a32cd" points="399.581,-364.9 390.207,-369.836 400.613,-371.824 399.581,-364.9"/>
<text text-anchor="middle" x="478" y="-365.83" font-family="Helvetica,sans-Serif" font-size="10.00"> executedCommands</text>
</g>
<!-- Node4 -->
<g id="node4" class="node"><title>Node4</title>
<polygon fill="white" stroke="#bfbfbf" points="256.5,-316.83 256.5,-346.83 407.5,-346.83 407.5,-316.83 256.5,-316.83"/>
<text text-anchor="start" x="264.5" y="-334.83" font-family="Helvetica,sans-Serif" font-size="10.00">HashMap&lt; String, backend.</text>
<text text-anchor="middle" x="332" y="-323.83" font-family="Helvetica,sans-Serif" font-size="10.00">UserInstructionContainer &gt;</text>
</g>
<!-- Node4&#45;&gt;Node1 -->
<g id="edge3" class="edge"><title>Node4&#45;&gt;Node1</title>
<path fill="none" stroke="#9a32cd" stroke-dasharray="5,2" d="M417.716,-319.752C452.585,-314.456 493.324,-307.849 530,-300.83 536.936,-299.503 544.28,-297.964 551.393,-296.403"/>
<polygon fill="#9a32cd" stroke="#9a32cd" points="416.938,-316.33 407.571,-321.282 417.981,-323.252 416.938,-316.33"/>
<text text-anchor="middle" x="478" y="-320.83" font-family="Helvetica,sans-Serif" font-size="10.00"> userInstructions</text>
</g>
<!-- Node5 -->
<g id="node5" class="node"><title>Node5</title>
<g id="a_node5"><a xlink:href="../../da/d26/classbackend_1_1_s_logo_parser.html" target="_top" xlink:title="backend.SLogoParser">
<polygon fill="white" stroke="black" points="1028,-287.33 1028,-306.33 1148,-306.33 1148,-287.33 1028,-287.33"/>
<text text-anchor="middle" x="1088" y="-294.33" font-family="Helvetica,sans-Serif" font-size="10.00">backend.SLogoParser</text>
</a>
</g>
</g>
<!-- Node5&#45;&gt;Node1 -->
<g id="edge4" class="edge"><title>Node5&#45;&gt;Node1</title>
<path fill="none" stroke="#9a32cd" stroke-dasharray="5,2" d="M1030.9,-308.283C1023.88,-309.562 1016.78,-310.78 1010,-311.83 888.714,-330.612 855.862,-335.416 734,-320.83 695.506,-316.223 652.303,-304.731 624.205,-296.38"/>
<polygon fill="#9a32cd" stroke="#9a32cd" points="1031.91,-311.656 1041.09,-306.378 1030.62,-304.775 1031.91,-311.656"/>
<text text-anchor="middle" x="833" y="-331.83" font-family="Helvetica,sans-Serif" font-size="10.00"> parser</text>
</g>
<!-- Node6 -->
<g id="node6" class="node"><title>Node6</title>
<polygon fill="white" stroke="#bfbfbf" points="777,-281.83 777,-311.83 889,-311.83 889,-281.83 777,-281.83"/>
<text text-anchor="start" x="785" y="-299.83" font-family="Helvetica,sans-Serif" font-size="10.00">List&lt; Entry&lt; String,</text>
<text text-anchor="middle" x="833" y="-288.83" font-family="Helvetica,sans-Serif" font-size="10.00"> Pattern &gt; &gt;</text>
</g>
<!-- Node6&#45;&gt;Node5 -->
<g id="edge5" class="edge"><title>Node6&#45;&gt;Node5</title>
<path fill="none" stroke="#9a32cd" stroke-dasharray="5,2" d="M899.33,-296.83C939.064,-296.83 989.403,-296.83 1027.94,-296.83"/>
<polygon fill="#9a32cd" stroke="#9a32cd" points="899.209,-293.33 889.209,-296.83 899.209,-300.33 899.209,-293.33"/>
<text text-anchor="middle" x="980" y="-299.83" font-family="Helvetica,sans-Serif" font-size="10.00"> patterns</text>
</g>
<!-- Node7&#45;&gt;Node1 -->
<g id="edge16" class="edge"><title>Node7&#45;&gt;Node1</title>
<path fill="none" stroke="#9a32cd" stroke-dasharray="5,2" d="M754.999,-263.83C716.137,-269.382 670.421,-275.913 637.653,-280.594"/>
<polygon fill="#9a32cd" stroke="#9a32cd" points="755.834,-267.247 765.239,-262.368 754.844,-260.317 755.834,-267.247"/>
<text text-anchor="middle" x="686" y="-279.83" font-family="Helvetica,sans-Serif" font-size="10.00"> comFactory</text>
</g>
<!-- Node7&#45;&gt;Node5 -->
<g id="edge6" class="edge"><title>Node7&#45;&gt;Node5</title>
<path fill="none" stroke="#9a32cd" stroke-dasharray="5,2" d="M904.95,-264.039C937.065,-269.236 975.484,-275.626 1010,-281.83 1019.38,-283.517 1029.39,-285.403 1038.98,-287.253"/>
<polygon fill="#9a32cd" stroke="#9a32cd" points="905.187,-260.532 894.758,-262.395 904.073,-267.443 905.187,-260.532"/>
<text text-anchor="middle" x="980" y="-284.83" font-family="Helvetica,sans-Serif" font-size="10.00"> comFactory</text>
</g>
<!-- Node8 -->
<g id="node8" class="node"><title>Node8</title>
<g id="a_node8"><a xlink:href="../../d1/d68/classbackend_1_1_grid.html" target="_top" xlink:title="backend.Grid">
<polygon fill="white" stroke="black" points="292,-183.33 292,-202.33 372,-202.33 372,-183.33 292,-183.33"/>
<text text-anchor="middle" x="332" y="-190.33" font-family="Helvetica,sans-Serif" font-size="10.00">backend.Grid</text>
</a>
</g>
</g>
<!-- Node8&#45;&gt;Node1 -->
<g id="edge8" class="edge"><title>Node8&#45;&gt;Node1</title>
<path fill="none" stroke="#9a32cd" stroke-dasharray="5,2" d="M371.11,-205.593C410.931,-219.066 475.13,-241.171 530,-261.83 543.034,-266.738 557.472,-272.538 569.133,-277.315"/>
<polygon fill="#9a32cd" stroke="#9a32cd" points="372.126,-202.242 361.532,-202.36 369.887,-208.875 372.126,-202.242"/>
<text text-anchor="middle" x="478" y="-264.83" font-family="Helvetica,sans-Serif" font-size="10.00"> grid</text>
</g>
<!-- Node9 -->
<g id="node9" class="node"><title>Node9</title>
<polygon fill="white" stroke="#bfbfbf" points="57.5,-223.33 57.5,-242.33 98.5,-242.33 98.5,-223.33 57.5,-223.33"/>
<text text-anchor="middle" x="78" y="-230.33" font-family="Helvetica,sans-Serif" font-size="10.00">Color</text>
</g>
<!-- Node9&#45;&gt;Node8 -->
<g id="edge9" class="edge"><title>Node9&#45;&gt;Node8</title>
<path fill="none" stroke="#9a32cd" stroke-dasharray="5,2" d="M108.899,-228.084C154.475,-220.85 241.35,-207.061 291.884,-199.039"/>
<polygon fill="#9a32cd" stroke="#9a32cd" points="108.102,-224.667 98.774,-229.692 109.199,-231.581 108.102,-224.667"/>
<text text-anchor="middle" x="206" y="-220.83" font-family="Helvetica,sans-Serif" font-size="10.00"> bgColor</text>
</g>
<!-- Node10 -->
<g id="node10" class="node"><title>Node10</title>
<g id="a_node10"><a xlink:href="../../df/d77/classbackend_1_1_bi_index.html" target="_top" xlink:title="backend.BiIndex\&lt; String \&gt;">
<polygon fill="white" stroke="black" points="5,-270.33 5,-289.33 151,-289.33 151,-270.33 5,-270.33"/>
<text text-anchor="middle" x="78" y="-277.33" font-family="Helvetica,sans-Serif" font-size="10.00">backend.BiIndex&lt; String &gt;</text>
</a>
</g>
</g>
<!-- Node10&#45;&gt;Node1 -->
<g id="edge15" class="edge"><title>Node10&#45;&gt;Node1</title>
<path fill="none" stroke="#9a32cd" stroke-dasharray="5,2" d="M161.202,-280.952C271.225,-282.453 462.439,-285.062 548.19,-286.233"/>
<polygon fill="#9a32cd" stroke="#9a32cd" points="161.188,-277.452 151.141,-280.815 161.093,-284.451 161.188,-277.452"/>
<text text-anchor="middle" x="332" y="-286.83" font-family="Helvetica,sans-Serif" font-size="10.00"> imageMap</text>
</g>
<!-- Node10&#45;&gt;Node8 -->
<g id="edge10" class="edge"><title>Node10&#45;&gt;Node8</title>
<path fill="none" stroke="#9a32cd" stroke-dasharray="5,2" d="M125.664,-267.61C157.603,-258.863 200.748,-246.293 238,-232.83 263.455,-223.631 291.939,-211.024 310.596,-202.439"/>
<polygon fill="#9a32cd" stroke="#9a32cd" points="124.443,-264.314 115.709,-270.311 126.277,-271.07 124.443,-264.314"/>
<text text-anchor="middle" x="206" y="-255.83" font-family="Helvetica,sans-Serif" font-size="10.00"> imageMap</text>
</g>
<!-- Node11 -->
<g id="node11" class="node"><title>Node11</title>
<polygon fill="white" stroke="#bfbfbf" points="3,-185.33 3,-204.33 153,-204.33 153,-185.33 3,-185.33"/>
<text text-anchor="middle" x="78" y="-192.33" font-family="Helvetica,sans-Serif" font-size="10.00">ArrayList&lt; backend.Turtle &gt;</text>
</g>
<!-- Node11&#45;&gt;Node8 -->
<g id="edge11" class="edge"><title>Node11&#45;&gt;Node8</title>
<path fill="none" stroke="#9a32cd" stroke-dasharray="5,2" d="M163.359,-193.924C166.954,-193.891 170.513,-193.86 174,-193.83 214.203,-193.491 260.199,-193.21 291.965,-193.034"/>
<polygon fill="#9a32cd" stroke="#9a32cd" points="163.128,-190.426 153.161,-194.02 163.194,-197.426 163.128,-190.426"/>
<text text-anchor="middle" x="206" y="-196.83" font-family="Helvetica,sans-Serif" font-size="10.00"> activeTurtles</text>
</g>
<!-- Node12 -->
<g id="node12" class="node"><title>Node12</title>
<polygon fill="white" stroke="#bfbfbf" points="44,-147.33 44,-166.33 112,-166.33 112,-147.33 44,-147.33"/>
<text text-anchor="middle" x="78" y="-154.33" font-family="Helvetica,sans-Serif" font-size="10.00">Dimension</text>
</g>
<!-- Node12&#45;&gt;Node8 -->
<g id="edge12" class="edge"><title>Node12&#45;&gt;Node8</title>
<path fill="none" stroke="#9a32cd" stroke-dasharray="5,2" d="M122.129,-162.656C154.123,-167.013 198.802,-173.168 238,-178.83 255.614,-181.375 275.089,-184.29 291.646,-186.8"/>
<polygon fill="#9a32cd" stroke="#9a32cd" points="122.59,-159.187 112.21,-161.308 121.648,-166.123 122.59,-159.187"/>
<text text-anchor="middle" x="206" y="-181.83" font-family="Helvetica,sans-Serif" font-size="10.00"> size</text>
</g>
<!-- Node13 -->
<g id="node13" class="node"><title>Node13</title>
<polygon fill="white" stroke="#bfbfbf" points="0,-97.8303 0,-127.83 156,-127.83 156,-97.8303 0,-97.8303"/>
<text text-anchor="start" x="8" y="-115.83" font-family="Helvetica,sans-Serif" font-size="10.00">HashMap&lt; Integer, backend.</text>
<text text-anchor="middle" x="78" y="-104.83" font-family="Helvetica,sans-Serif" font-size="10.00">Turtle &gt;</text>
</g>
<!-- Node13&#45;&gt;Node8 -->
<g id="edge13" class="edge"><title>Node13&#45;&gt;Node8</title>
<path fill="none" stroke="#9a32cd" stroke-dasharray="5,2" d="M150.947,-130.421C178.398,-137.619 209.849,-146.458 238,-155.83 262.731,-164.064 290.409,-175.352 309.09,-183.288"/>
<polygon fill="#9a32cd" stroke="#9a32cd" points="151.586,-126.971 141.028,-127.846 149.827,-133.747 151.586,-126.971"/>
<text text-anchor="middle" x="206" y="-158.83" font-family="Helvetica,sans-Serif" font-size="10.00"> allTurtles</text>
</g>
<!-- Node14 -->
<g id="node14" class="node"><title>Node14</title>
<g id="a_node14"><a xlink:href="../../df/d77/classbackend_1_1_bi_index.html" target="_top" xlink:title="backend.BiIndex\&lt; Color \&gt;">
<polygon fill="white" stroke="black" points="7,-55.3303 7,-74.3303 149,-74.3303 149,-55.3303 7,-55.3303"/>
<text text-anchor="middle" x="78" y="-62.3303" font-family="Helvetica,sans-Serif" font-size="10.00">backend.BiIndex&lt; Color &gt;</text>
</a>
</g>
</g>
<!-- Node14&#45;&gt;Node1 -->
<g id="edge18" class="edge"><title>Node14&#45;&gt;Node1</title>
<path fill="none" stroke="#9a32cd" stroke-dasharray="5,2" d="M159.07,-74.1154C184.583,-78.0831 212.736,-83.5285 238,-90.8303 374.647,-130.324 415.044,-138.062 530,-221.83 552.435,-238.179 573.646,-263.217 584.488,-276.958"/>
<polygon fill="#9a32cd" stroke="#9a32cd" points="159.472,-70.6366 149.063,-72.6126 158.432,-77.5589 159.472,-70.6366"/>
<text text-anchor="middle" x="332" y="-148.83" font-family="Helvetica,sans-Serif" font-size="10.00"> colorMap</text>
</g>
<!-- Node14&#45;&gt;Node8 -->
<g id="edge14" class="edge"><title>Node14&#45;&gt;Node8</title>
<path fill="none" stroke="#9a32cd" stroke-dasharray="5,2" d="M124.045,-77.3539C134.604,-80.5459 145.759,-84.1285 156,-87.8303 193.266,-101.3 203.698,-102.993 238,-122.83 269.838,-141.243 303.412,-168.855 320.161,-183.28"/>
<polygon fill="#9a32cd" stroke="#9a32cd" points="124.736,-73.9083 114.154,-74.4221 122.747,-80.6197 124.736,-73.9083"/>
<text text-anchor="middle" x="206" y="-125.83" font-family="Helvetica,sans-Serif" font-size="10.00"> colorMap</text>
</g>
<!-- Node15 -->
<g id="node15" class="node"><title>Node15</title>
<polygon fill="white" stroke="#bfbfbf" points="271.5,-2.33034 271.5,-21.3303 392.5,-21.3303 392.5,-2.33034 271.5,-2.33034"/>
<text text-anchor="middle" x="332" y="-9.33034" font-family="Helvetica,sans-Serif" font-size="10.00">Queue&lt; Command &gt;</text>
</g>
<!-- Node15&#45;&gt;Node1 -->
<g id="edge17" class="edge"><title>Node15&#45;&gt;Node1</title>
<path fill="none" stroke="#9a32cd" stroke-dasharray="5,2" d="M395.131,-1.34655C438.037,2.19727 493.694,-1.0647 530,-32.8303 568.176,-66.2318 586.95,-234.913 591.102,-277.204"/>
<polygon fill="#9a32cd" stroke="#9a32cd" points="394.691,2.12733 385.075,-2.3189 395.365,-4.84018 394.691,2.12733"/>
<text text-anchor="middle" x="478" y="-35.8303" font-family="Helvetica,sans-Serif" font-size="10.00"> pendingCommands</text>
</g>
</g>
</svg>
