<?xml version="1.0" encoding="UTF-8" standalone="no"?>
<!DOCTYPE svg PUBLIC "-//W3C//DTD SVG 1.1//EN"
 "http://www.w3.org/Graphics/SVG/1.1/DTD/svg11.dtd">
<!-- Generated by graphviz version 2.36.0 (20140111.2315)
 -->
<!-- Title: gui.textAreas.UserFunctionsAndCommands Pages: 1 -->
<svg width="170pt" height="164pt"
 viewBox="0.00 0.00 170.00 164.00" xmlns="http://www.w3.org/2000/svg" xmlns:xlink="http://www.w3.org/1999/xlink">
<g id="graph0" class="graph" transform="scale(1 1) rotate(0) translate(4 160)">
<title>gui.textAreas.UserFunctionsAndCommands</title>
<polygon fill="white" stroke="none" points="-4,4 -4,-160 166,-160 166,4 -4,4"/>
<!-- Node1 -->
<g id="node1" class="node"><title>Node1</title>
<polygon fill="#bfbfbf" stroke="black" points="5.5,-1 5.5,-31 156.5,-31 156.5,-1 5.5,-1"/>
<text text-anchor="start" x="13.5" y="-19" font-family="Helvetica,sans-Serif" font-size="10.00">gui.textAreas.UserFunctions</text>
<text text-anchor="middle" x="81" y="-8" font-family="Helvetica,sans-Serif" font-size="10.00">AndCommands</text>
</g>
<!-- Node2 -->
<g id="node2" class="node"><title>Node2</title>
<g id="a_node2"><a xlink:href="../../d8/d85/classgui_1_1text_areas_1_1_abstract_editable_text_box.html" target="_top" xlink:title="gui.textAreas.AbstractEditable\lTextBox">
<polygon fill="white" stroke="black" points="0,-69 0,-99 162,-99 162,-69 0,-69"/>
<text text-anchor="start" x="8" y="-87" font-family="Helvetica,sans-Serif" font-size="10.00">gui.textAreas.AbstractEditable</text>
<text text-anchor="middle" x="81" y="-76" font-family="Helvetica,sans-Serif" font-size="10.00">TextBox</text>
</a>
</g>
</g>
<!-- Node2&#45;&gt;Node1 -->
<g id="edge1" class="edge"><title>Node2&#45;&gt;Node1</title>
<path fill="none" stroke="midnightblue" d="M81,-58.5322C81,-49.3606 81,-39.2449 81,-31.2931"/>
<polygon fill="midnightblue" stroke="midnightblue" points="77.5001,-58.6789 81,-68.679 84.5001,-58.679 77.5001,-58.6789"/>
</g>
<!-- Node3 -->
<g id="node3" class="node"><title>Node3</title>
<polygon fill="white" stroke="#bfbfbf" points="57,-136.5 57,-155.5 105,-155.5 105,-136.5 57,-136.5"/>
<text text-anchor="middle" x="81" y="-143.5" font-family="Helvetica,sans-Serif" font-size="10.00">Region</text>
</g>
<!-- Node3&#45;&gt;Node2 -->
<g id="edge2" class="edge"><title>Node3&#45;&gt;Node2</title>
<path fill="none" stroke="midnightblue" d="M81,-126.371C81,-117.585 81,-107.272 81,-99.1408"/>
<polygon fill="midnightblue" stroke="midnightblue" points="77.5001,-126.403 81,-136.403 84.5001,-126.403 77.5001,-126.403"/>
</g>
</g>
</svg>
