<?xml version="1.0" encoding="UTF-8" standalone="no"?>
<!DOCTYPE svg PUBLIC "-//W3C//DTD SVG 1.1//EN"
 "http://www.w3.org/Graphics/SVG/1.1/DTD/svg11.dtd">
<!-- Generated by graphviz version 2.36.0 (20140111.2315)
 -->
<!-- Title: backend.command.ModelCommand.colorMap Pages: 1 -->
<svg width="772pt" height="129pt"
 viewBox="0.00 0.00 772.00 129.00" xmlns="http://www.w3.org/2000/svg" xmlns:xlink="http://www.w3.org/1999/xlink">
<g id="graph0" class="graph" transform="scale(1 1) rotate(0) translate(4 125)">
<title>backend.command.ModelCommand.colorMap</title>
<polygon fill="white" stroke="none" points="-4,4 -4,-125 768,-125 768,4 -4,4"/>
<!-- Node1 -->
<g id="node1" class="node"><title>Node1</title>
<polygon fill="#bfbfbf" stroke="black" points="0.5,-63.5 0.5,-82.5 237.5,-82.5 237.5,-63.5 0.5,-63.5"/>
<text text-anchor="middle" x="119" y="-70.5" font-family="Helvetica,sans-Serif" font-size="10.00">backend.command.ModelCommand.colorMap</text>
</g>
<!-- Node2 -->
<g id="node2" class="node"><title>Node2</title>
<g id="a_node2"><a xlink:href="../../d9/d61/classbackend_1_1command_1_1_get_pen_color.html#a51ab64bb7cf54b848f05198278a3b20f" target="_top" xlink:title="backend.command.GetPenColor.execute">
<polygon fill="white" stroke="black" points="281,-101.5 281,-120.5 493,-120.5 493,-101.5 281,-101.5"/>
<text text-anchor="middle" x="387" y="-108.5" font-family="Helvetica,sans-Serif" font-size="10.00">backend.command.GetPenColor.execute</text>
</a>
</g>
</g>
<!-- Node1&#45;&gt;Node2 -->
<g id="edge1" class="edge"><title>Node1&#45;&gt;Node2</title>
<path fill="none" stroke="midnightblue" d="M196.95,-83.9928C235.623,-89.5175 282.034,-96.1477 319.193,-101.456"/>
<polygon fill="midnightblue" stroke="midnightblue" points="197.174,-80.4894 186.78,-82.54 196.184,-87.4191 197.174,-80.4894"/>
</g>
<!-- Node3 -->
<g id="node3" class="node"><title>Node3</title>
<g id="a_node3"><a xlink:href="../../d6/db5/classbackend_1_1command_1_1_set_palette.html#af4a93cf60d2c74b3de7c350e690f0911" target="_top" xlink:title="backend.command.SetPalette.execute">
<polygon fill="white" stroke="black" points="285.5,-63.5 285.5,-82.5 488.5,-82.5 488.5,-63.5 285.5,-63.5"/>
<text text-anchor="middle" x="387" y="-70.5" font-family="Helvetica,sans-Serif" font-size="10.00">backend.command.SetPalette.execute</text>
</a>
</g>
</g>
<!-- Node1&#45;&gt;Node3 -->
<g id="edge2" class="edge"><title>Node1&#45;&gt;Node3</title>
<path fill="none" stroke="midnightblue" d="M247.888,-73C260.453,-73 273.079,-73 285.317,-73"/>
<polygon fill="midnightblue" stroke="midnightblue" points="247.833,-69.5001 237.833,-73 247.833,-76.5001 247.833,-69.5001"/>
</g>
<!-- Node4 -->
<g id="node4" class="node"><title>Node4</title>
<g id="a_node4"><a xlink:href="../../dc/d67/classbackend_1_1command_1_1_model_command.html#ab1aeefecd317fb74afe685c140d17c55" target="_top" xlink:title="backend.command.ModelCommand.param\lToColor">
<polygon fill="white" stroke="black" points="274.5,-14 274.5,-44 499.5,-44 499.5,-14 274.5,-14"/>
<text text-anchor="start" x="282.5" y="-32" font-family="Helvetica,sans-Serif" font-size="10.00">backend.command.ModelCommand.param</text>
<text text-anchor="middle" x="387" y="-21" font-family="Helvetica,sans-Serif" font-size="10.00">ToColor</text>
</a>
</g>
</g>
<!-- Node1&#45;&gt;Node4 -->
<g id="edge3" class="edge"><title>Node1&#45;&gt;Node4</title>
<path fill="none" stroke="midnightblue" d="M187.616,-61.8154C220.274,-56.4133 259.933,-49.8531 295.183,-44.0224"/>
<polygon fill="midnightblue" stroke="midnightblue" points="187.013,-58.3675 177.718,-63.4527 188.155,-65.2737 187.013,-58.3675"/>
</g>
<!-- Node5 -->
<g id="node5" class="node"><title>Node5</title>
<g id="a_node5"><a xlink:href="../../de/d47/classbackend_1_1command_1_1_set_background.html#a32cf6de8fa8a7b154fa1124e2efb6c5c" target="_top" xlink:title="backend.command.SetBackground.execute">
<polygon fill="white" stroke="black" points="536.5,-38.5 536.5,-57.5 763.5,-57.5 763.5,-38.5 536.5,-38.5"/>
<text text-anchor="middle" x="650" y="-45.5" font-family="Helvetica,sans-Serif" font-size="10.00">backend.command.SetBackground.execute</text>
</a>
</g>
</g>
<!-- Node4&#45;&gt;Node5 -->
<g id="edge4" class="edge"><title>Node4&#45;&gt;Node5</title>
<path fill="none" stroke="midnightblue" d="M510.022,-37.8828C518.737,-38.5173 527.503,-39.1554 536.163,-39.7858"/>
<polygon fill="midnightblue" stroke="midnightblue" points="510.051,-34.3758 499.823,-37.1404 509.543,-41.3573 510.051,-34.3758"/>
</g>
<!-- Node6 -->
<g id="node6" class="node"><title>Node6</title>
<g id="a_node6"><a xlink:href="../../df/df8/classbackend_1_1command_1_1_set_pen_color.html#ae59f12abe2013dd21d4090d7c94c669d" target="_top" xlink:title="backend.command.SetPenColor.execute">
<polygon fill="white" stroke="black" points="544,-0.5 544,-19.5 756,-19.5 756,-0.5 544,-0.5"/>
<text text-anchor="middle" x="650" y="-7.5" font-family="Helvetica,sans-Serif" font-size="10.00">backend.command.SetPenColor.execute</text>
</a>
</g>
</g>
<!-- Node4&#45;&gt;Node6 -->
<g id="edge5" class="edge"><title>Node4&#45;&gt;Node6</title>
<path fill="none" stroke="midnightblue" d="M510.081,-20.1129C521.285,-19.2972 532.573,-18.4755 543.612,-17.6719"/>
<polygon fill="midnightblue" stroke="midnightblue" points="509.543,-16.6427 499.823,-20.8596 510.051,-23.6242 509.543,-16.6427"/>
</g>
</g>
</svg>
