<?xml version="1.0" encoding="UTF-8" standalone="no"?>
<!DOCTYPE svg PUBLIC "-//W3C//DTD SVG 1.1//EN"
 "http://www.w3.org/Graphics/SVG/1.1/DTD/svg11.dtd">
<!-- Generated by graphviz version 2.36.0 (20140111.2315)
 -->
<!-- Title: backend.command.ModelCommand.userInstructions Pages: 1 -->
<svg width="890pt" height="175pt"
 viewBox="0.00 0.00 890.00 175.00" xmlns="http://www.w3.org/2000/svg" xmlns:xlink="http://www.w3.org/1999/xlink">
<g id="graph0" class="graph" transform="scale(1 1) rotate(0) translate(4 171)">
<title>backend.command.ModelCommand.userInstructions</title>
<polygon fill="white" stroke="none" points="-4,4 -4,-171 886,-171 886,4 -4,4"/>
<!-- Node1 -->
<g id="node1" class="node"><title>Node1</title>
<polygon fill="#bfbfbf" stroke="black" points="0.5,-93 0.5,-123 215.5,-123 215.5,-93 0.5,-93"/>
<text text-anchor="start" x="8.5" y="-111" font-family="Helvetica,sans-Serif" font-size="10.00">backend.command.ModelCommand.user</text>
<text text-anchor="middle" x="108" y="-100" font-family="Helvetica,sans-Serif" font-size="10.00">Instructions</text>
</g>
<!-- Node2 -->
<g id="node2" class="node"><title>Node2</title>
<g id="a_node2"><a xlink:href="../../d0/d1f/classbackend_1_1command_1_1_make_user_instruction.html#a7e3e6ee2e96187d9bbbcef435311b39c" target="_top" xlink:title="backend.command.MakeUser\lInstruction.addToInstrList">
<polygon fill="white" stroke="black" points="265,-127 265,-157 425,-157 425,-127 265,-127"/>
<text text-anchor="start" x="273" y="-145" font-family="Helvetica,sans-Serif" font-size="10.00">backend.command.MakeUser</text>
<text text-anchor="middle" x="345" y="-134" font-family="Helvetica,sans-Serif" font-size="10.00">Instruction.addToInstrList</text>
</a>
</g>
</g>
<!-- Node1&#45;&gt;Node2 -->
<g id="edge1" class="edge"><title>Node1&#45;&gt;Node2</title>
<path fill="none" stroke="midnightblue" d="M223.024,-124.497C237.154,-126.541 251.352,-128.596 264.798,-130.541"/>
<polygon fill="midnightblue" stroke="midnightblue" points="223.157,-120.98 212.758,-123.012 222.154,-127.908 223.157,-120.98"/>
</g>
<!-- Node4 -->
<g id="node4" class="node"><title>Node4</title>
<g id="a_node4"><a xlink:href="../../d4/d4b/classbackend_1_1command_1_1_user_instruction_retriever.html#a0c307c83fd2ddbf0ad044af5e903daa9" target="_top" xlink:title="backend.command.UserInstruction\lRetriever.uic">
<polygon fill="white" stroke="black" points="252.5,-59 252.5,-89 437.5,-89 437.5,-59 252.5,-59"/>
<text text-anchor="start" x="260.5" y="-77" font-family="Helvetica,sans-Serif" font-size="10.00">backend.command.UserInstruction</text>
<text text-anchor="middle" x="345" y="-66" font-family="Helvetica,sans-Serif" font-size="10.00">Retriever.uic</text>
</a>
</g>
</g>
<!-- Node1&#45;&gt;Node4 -->
<g id="edge3" class="edge"><title>Node1&#45;&gt;Node4</title>
<path fill="none" stroke="midnightblue" d="M222.659,-91.5557C232.582,-90.1201 242.542,-88.6791 252.254,-87.2739"/>
<polygon fill="midnightblue" stroke="midnightblue" points="222.154,-88.0922 212.758,-92.9881 223.157,-95.0201 222.154,-88.0922"/>
</g>
<!-- Node3 -->
<g id="node3" class="node"><title>Node3</title>
<g id="a_node3"><a xlink:href="../../d0/d1f/classbackend_1_1command_1_1_make_user_instruction.html#a1e05c622cac9efddd5628bef0a9c6de9" target="_top" xlink:title="backend.command.MakeUser\lInstruction.setParam">
<polygon fill="white" stroke="black" points="487,-137 487,-167 647,-167 647,-137 487,-137"/>
<text text-anchor="start" x="495" y="-155" font-family="Helvetica,sans-Serif" font-size="10.00">backend.command.MakeUser</text>
<text text-anchor="middle" x="567" y="-144" font-family="Helvetica,sans-Serif" font-size="10.00">Instruction.setParam</text>
</a>
</g>
</g>
<!-- Node2&#45;&gt;Node3 -->
<g id="edge2" class="edge"><title>Node2&#45;&gt;Node3</title>
<path fill="none" stroke="midnightblue" d="M435.105,-146.05C452.232,-146.829 470.062,-147.639 486.849,-148.402"/>
<polygon fill="midnightblue" stroke="midnightblue" points="435.263,-142.554 425.114,-145.596 434.945,-149.547 435.263,-142.554"/>
</g>
<!-- Node5 -->
<g id="node5" class="node"><title>Node5</title>
<g id="a_node5"><a xlink:href="../../d4/d4b/classbackend_1_1command_1_1_user_instruction_retriever.html#a19a54335927c20b9d9121db5c8b2aea2" target="_top" xlink:title="backend.command.UserInstruction\lRetriever.UserInstructionRetriever">
<polygon fill="white" stroke="black" points="696.5,-71 696.5,-101 881.5,-101 881.5,-71 696.5,-71"/>
<text text-anchor="start" x="704.5" y="-89" font-family="Helvetica,sans-Serif" font-size="10.00">backend.command.UserInstruction</text>
<text text-anchor="middle" x="789" y="-78" font-family="Helvetica,sans-Serif" font-size="10.00">Retriever.UserInstructionRetriever</text>
</a>
</g>
</g>
<!-- Node4&#45;&gt;Node5 -->
<g id="edge4" class="edge"><title>Node4&#45;&gt;Node5</title>
<path fill="none" stroke="midnightblue" d="M447.823,-86.1515C456.667,-86.899 465.486,-87.5357 474,-88 548.711,-92.0736 633.567,-91.2043 696.216,-89.5214"/>
<polygon fill="midnightblue" stroke="midnightblue" points="448.113,-82.6636 437.843,-85.2638 447.493,-89.6361 448.113,-82.6636"/>
</g>
<!-- Node6 -->
<g id="node6" class="node"><title>Node6</title>
<g id="a_node6"><a xlink:href="../../d4/d4b/classbackend_1_1command_1_1_user_instruction_retriever.html#a6684b5a57a7bccaf574babfb865c2a9b" target="_top" xlink:title="backend.command.UserInstruction\lRetriever.getNumParams">
<polygon fill="white" stroke="black" points="474.5,-49 474.5,-79 659.5,-79 659.5,-49 474.5,-49"/>
<text text-anchor="start" x="482.5" y="-67" font-family="Helvetica,sans-Serif" font-size="10.00">backend.command.UserInstruction</text>
<text text-anchor="middle" x="567" y="-56" font-family="Helvetica,sans-Serif" font-size="10.00">Retriever.getNumParams</text>
</a>
</g>
</g>
<!-- Node4&#45;&gt;Node6 -->
<g id="edge5" class="edge"><title>Node4&#45;&gt;Node6</title>
<path fill="none" stroke="midnightblue" d="M447.725,-69.3762C456.636,-68.9711 465.62,-68.5627 474.442,-68.1617"/>
<polygon fill="midnightblue" stroke="midnightblue" points="447.537,-65.8809 437.707,-69.8315 447.855,-72.8737 447.537,-65.8809"/>
</g>
<!-- Node7 -->
<g id="node7" class="node"><title>Node7</title>
<g id="a_node7"><a xlink:href="../../d4/d4b/classbackend_1_1command_1_1_user_instruction_retriever.html#ad63b2a8c91a5c60e4157a89830a3e6ef" target="_top" xlink:title="backend.command.UserInstruction\lRetriever.execute">
<polygon fill="white" stroke="black" points="474.5,-0 474.5,-30 659.5,-30 659.5,-0 474.5,-0"/>
<text text-anchor="start" x="482.5" y="-18" font-family="Helvetica,sans-Serif" font-size="10.00">backend.command.UserInstruction</text>
<text text-anchor="middle" x="567" y="-7" font-family="Helvetica,sans-Serif" font-size="10.00">Retriever.execute</text>
</a>
</g>
</g>
<!-- Node4&#45;&gt;Node7 -->
<g id="edge7" class="edge"><title>Node4&#45;&gt;Node7</title>
<path fill="none" stroke="midnightblue" d="M410.262,-56.2701C430.63,-50.6928 453.247,-44.5441 474,-39 485.004,-36.0604 496.759,-32.9619 508.062,-30.0037"/>
<polygon fill="midnightblue" stroke="midnightblue" points="409.18,-52.9375 400.461,-58.957 411.031,-59.6884 409.18,-52.9375"/>
</g>
<!-- Node6&#45;&gt;Node5 -->
<g id="edge6" class="edge"><title>Node6&#45;&gt;Node5</title>
<path fill="none" stroke="midnightblue" d="M669.725,-74.1725C678.636,-75.0636 687.62,-75.962 696.442,-76.8442"/>
<polygon fill="midnightblue" stroke="midnightblue" points="670.005,-70.6832 659.707,-73.1707 669.309,-77.6484 670.005,-70.6832"/>
</g>
</g>
</svg>
