<?xml version="1.0" encoding="UTF-8" standalone="no"?>
<!DOCTYPE svg PUBLIC "-//W3C//DTD SVG 1.1//EN"
 "http://www.w3.org/Graphics/SVG/1.1/DTD/svg11.dtd">
<!-- Generated by graphviz version 2.36.0 (20140111.2315)
 -->
<!-- Title: backend.command.ModelCommand.imageMap Pages: 1 -->
<svg width="750pt" height="77pt"
 viewBox="0.00 0.00 750.00 77.00" xmlns="http://www.w3.org/2000/svg" xmlns:xlink="http://www.w3.org/1999/xlink">
<g id="graph0" class="graph" transform="scale(1 1) rotate(0) translate(4 73)">
<title>backend.command.ModelCommand.imageMap</title>
<polygon fill="white" stroke="none" points="-4,4 -4,-73 746,-73 746,4 -4,4"/>
<!-- Node1 -->
<g id="node1" class="node"><title>Node1</title>
<polygon fill="#bfbfbf" stroke="black" points="0,-27.5 0,-46.5 244,-46.5 244,-27.5 0,-27.5"/>
<text text-anchor="middle" x="122" y="-34.5" font-family="Helvetica,sans-Serif" font-size="10.00">backend.command.ModelCommand.imageMap</text>
</g>
<!-- Node2 -->
<g id="node2" class="node"><title>Node2</title>
<g id="a_node2"><a xlink:href="../../df/d1e/classbackend_1_1command_1_1_get_shape.html#a6287c20e525d441f564a490bd27171fb" target="_top" xlink:title="backend.command.GetShape.execute">
<polygon fill="white" stroke="black" points="292.5,-49.5 292.5,-68.5 493.5,-68.5 493.5,-49.5 292.5,-49.5"/>
<text text-anchor="middle" x="393" y="-56.5" font-family="Helvetica,sans-Serif" font-size="10.00">backend.command.GetShape.execute</text>
</a>
</g>
</g>
<!-- Node1&#45;&gt;Node2 -->
<g id="edge1" class="edge"><title>Node1&#45;&gt;Node2</title>
<path fill="none" stroke="midnightblue" d="M249.778,-47.3685C264.041,-48.535 278.42,-49.7109 292.27,-50.8437"/>
<polygon fill="midnightblue" stroke="midnightblue" points="249.675,-43.8484 239.423,-46.5216 249.104,-50.8251 249.675,-43.8484"/>
</g>
<!-- Node3 -->
<g id="node3" class="node"><title>Node3</title>
<g id="a_node3"><a xlink:href="../../dc/d67/classbackend_1_1command_1_1_model_command.html#a539e1c4b7488f1f4833db3a5e2883723" target="_top" xlink:title="backend.command.ModelCommand.param\lToImage">
<polygon fill="white" stroke="black" points="280.5,-0 280.5,-30 505.5,-30 505.5,-0 280.5,-0"/>
<text text-anchor="start" x="288.5" y="-18" font-family="Helvetica,sans-Serif" font-size="10.00">backend.command.ModelCommand.param</text>
<text text-anchor="middle" x="393" y="-7" font-family="Helvetica,sans-Serif" font-size="10.00">ToImage</text>
</a>
</g>
</g>
<!-- Node1&#45;&gt;Node3 -->
<g id="edge2" class="edge"><title>Node1&#45;&gt;Node3</title>
<path fill="none" stroke="midnightblue" d="M249.685,-26.6392C259.976,-25.7975 270.328,-24.9508 280.5,-24.119"/>
<polygon fill="midnightblue" stroke="midnightblue" points="249.104,-23.1749 239.423,-27.4784 249.675,-30.1516 249.104,-23.1749"/>
</g>
<!-- Node4 -->
<g id="node4" class="node"><title>Node4</title>
<g id="a_node4"><a xlink:href="../../d5/dfe/classbackend_1_1command_1_1_set_shape.html#a45d3d7dfe3b3b7853d1818c84bf29be2" target="_top" xlink:title="backend.command.SetShape.execute">
<polygon fill="white" stroke="black" points="542,-5.5 542,-24.5 742,-24.5 742,-5.5 542,-5.5"/>
<text text-anchor="middle" x="642" y="-12.5" font-family="Helvetica,sans-Serif" font-size="10.00">backend.command.SetShape.execute</text>
</a>
</g>
</g>
<!-- Node3&#45;&gt;Node4 -->
<g id="edge3" class="edge"><title>Node3&#45;&gt;Node4</title>
<path fill="none" stroke="midnightblue" d="M515.742,-15C524.415,-15 533.099,-15 541.624,-15"/>
<polygon fill="midnightblue" stroke="midnightblue" points="515.577,-11.5001 505.577,-15 515.577,-18.5001 515.577,-11.5001"/>
</g>
</g>
</svg>
