<?xml version="1.0" encoding="UTF-8" standalone="no"?>
<!DOCTYPE svg PUBLIC "-//W3C//DTD SVG 1.1//EN"
 "http://www.w3.org/Graphics/SVG/1.1/DTD/svg11.dtd">
<!-- Generated by graphviz version 2.36.0 (20140111.2315)
 -->
<!-- Title: backend.command.ModelCommand.paramToColor Pages: 1 -->
<svg width="696pt" height="77pt"
 viewBox="0.00 0.00 696.00 77.00" xmlns="http://www.w3.org/2000/svg" xmlns:xlink="http://www.w3.org/1999/xlink">
<g id="graph0" class="graph" transform="scale(1 1) rotate(0) translate(4 73)">
<title>backend.command.ModelCommand.paramToColor</title>
<polygon fill="white" stroke="none" points="-4,4 -4,-73 692,-73 692,4 -4,4"/>
<!-- Node1 -->
<g id="node1" class="node"><title>Node1</title>
<polygon fill="#bfbfbf" stroke="black" points="0.5,-22 0.5,-52 225.5,-52 225.5,-22 0.5,-22"/>
<text text-anchor="start" x="8.5" y="-40" font-family="Helvetica,sans-Serif" font-size="10.00">backend.command.ModelCommand.param</text>
<text text-anchor="middle" x="113" y="-29" font-family="Helvetica,sans-Serif" font-size="10.00">ToColor</text>
</g>
<!-- Node2 -->
<g id="node2" class="node"><title>Node2</title>
<g id="a_node2"><a xlink:href="../../dc/d67/classbackend_1_1command_1_1_model_command.html#aa459b6ae4744fa0705aa08b95f7d9b0f" target="_top" xlink:title="backend.command.ModelCommand.colorMap">
<polygon fill="white" stroke="black" points="262.5,-49.5 262.5,-68.5 499.5,-68.5 499.5,-49.5 262.5,-49.5"/>
<text text-anchor="middle" x="381" y="-56.5" font-family="Helvetica,sans-Serif" font-size="10.00">backend.command.ModelCommand.colorMap</text>
</a>
</g>
</g>
<!-- Node1&#45;&gt;Node2 -->
<g id="edge1" class="edge"><title>Node1&#45;&gt;Node2</title>
<path fill="none" stroke="midnightblue" d="M225.652,-46.2344C235.254,-47.0285 245.009,-47.8353 254.709,-48.6376"/>
<polygon fill="midnightblue" stroke="midnightblue" points="254.534,-52.135 264.789,-49.4713 255.111,-45.1588 254.534,-52.135"/>
</g>
<!-- Node4 -->
<g id="node4" class="node"><title>Node4</title>
<g id="a_node4"><a xlink:href="../../dc/d83/classbackend_1_1command_1_1_command.html#ae218516ae55b1b0d4820d55c901793ea" target="_top" xlink:title="backend.command.Command.execute\lParam">
<polygon fill="white" stroke="black" points="279.5,-0 279.5,-30 482.5,-30 482.5,-0 279.5,-0"/>
<text text-anchor="start" x="287.5" y="-18" font-family="Helvetica,sans-Serif" font-size="10.00">backend.command.Command.execute</text>
<text text-anchor="middle" x="381" y="-7" font-family="Helvetica,sans-Serif" font-size="10.00">Param</text>
</a>
</g>
</g>
<!-- Node1&#45;&gt;Node4 -->
<g id="edge3" class="edge"><title>Node1&#45;&gt;Node4</title>
<path fill="none" stroke="midnightblue" d="M225.652,-27.7656C239.953,-26.5829 254.592,-25.3721 268.884,-24.1901"/>
<polygon fill="midnightblue" stroke="midnightblue" points="269.542,-27.6476 279.22,-23.3352 268.965,-20.6715 269.542,-27.6476"/>
</g>
<!-- Node3 -->
<g id="node3" class="node"><title>Node3</title>
<g id="a_node3"><a xlink:href="../../d3/dac/classbackend_1_1_model.html#ae02bd05f40dd7ecd9be30847d70faf89" target="_top" xlink:title="backend.Model.getColorMap">
<polygon fill="white" stroke="black" points="536,-49.5 536,-68.5 688,-68.5 688,-49.5 536,-49.5"/>
<text text-anchor="middle" x="612" y="-56.5" font-family="Helvetica,sans-Serif" font-size="10.00">backend.Model.getColorMap</text>
</a>
</g>
</g>
<!-- Node2&#45;&gt;Node3 -->
<g id="edge2" class="edge"><title>Node2&#45;&gt;Node3</title>
<path fill="none" stroke="midnightblue" d="M499.519,-59C508.263,-59 516.984,-59 525.477,-59"/>
<polygon fill="midnightblue" stroke="midnightblue" points="525.71,-62.5001 535.71,-59 525.71,-55.5001 525.71,-62.5001"/>
</g>
</g>
</svg>
