<?xml version="1.0" encoding="UTF-8" standalone="no"?>
<!DOCTYPE svg PUBLIC "-//W3C//DTD SVG 1.1//EN"
 "http://www.w3.org/Graphics/SVG/1.1/DTD/svg11.dtd">
<!-- Generated by graphviz version 2.36.0 (20140111.2315)
 -->
<!-- Title: backend.command.ModelCommand.paramToImage Pages: 1 -->
<svg width="708pt" height="77pt"
 viewBox="0.00 0.00 708.00 77.00" xmlns="http://www.w3.org/2000/svg" xmlns:xlink="http://www.w3.org/1999/xlink">
<g id="graph0" class="graph" transform="scale(1 1) rotate(0) translate(4 73)">
<title>backend.command.ModelCommand.paramToImage</title>
<polygon fill="white" stroke="none" points="-4,4 -4,-73 704,-73 704,4 -4,4"/>
<!-- Node1 -->
<g id="node1" class="node"><title>Node1</title>
<polygon fill="#bfbfbf" stroke="black" points="0.5,-17 0.5,-47 225.5,-47 225.5,-17 0.5,-17"/>
<text text-anchor="start" x="8.5" y="-35" font-family="Helvetica,sans-Serif" font-size="10.00">backend.command.ModelCommand.param</text>
<text text-anchor="middle" x="113" y="-24" font-family="Helvetica,sans-Serif" font-size="10.00">ToImage</text>
</g>
<!-- Node2 -->
<g id="node2" class="node"><title>Node2</title>
<g id="a_node2"><a xlink:href="../../dc/d83/classbackend_1_1command_1_1_command.html#ae218516ae55b1b0d4820d55c901793ea" target="_top" xlink:title="backend.command.Command.execute\lParam">
<polygon fill="white" stroke="black" points="282.5,-39 282.5,-69 485.5,-69 485.5,-39 282.5,-39"/>
<text text-anchor="start" x="290.5" y="-57" font-family="Helvetica,sans-Serif" font-size="10.00">backend.command.Command.execute</text>
<text text-anchor="middle" x="384" y="-46" font-family="Helvetica,sans-Serif" font-size="10.00">Param</text>
</a>
</g>
</g>
<!-- Node1&#45;&gt;Node2 -->
<g id="edge1" class="edge"><title>Node1&#45;&gt;Node2</title>
<path fill="none" stroke="midnightblue" d="M225.743,-41.1389C241.137,-42.3978 256.94,-43.6903 272.315,-44.9477"/>
<polygon fill="midnightblue" stroke="midnightblue" points="272.095,-48.4413 282.347,-45.7682 272.666,-41.4646 272.095,-48.4413"/>
</g>
<!-- Node3 -->
<g id="node3" class="node"><title>Node3</title>
<g id="a_node3"><a xlink:href="../../dc/d67/classbackend_1_1command_1_1_model_command.html#a3154dab6e0552c7d13b825dab24d1a54" target="_top" xlink:title="backend.command.ModelCommand.imageMap">
<polygon fill="white" stroke="black" points="262,-0.5 262,-19.5 506,-19.5 506,-0.5 262,-0.5"/>
<text text-anchor="middle" x="384" y="-7.5" font-family="Helvetica,sans-Serif" font-size="10.00">backend.command.ModelCommand.imageMap</text>
</a>
</g>
</g>
<!-- Node1&#45;&gt;Node3 -->
<g id="edge2" class="edge"><title>Node1&#45;&gt;Node3</title>
<path fill="none" stroke="midnightblue" d="M225.743,-22.8611C235.92,-22.0288 246.276,-21.1819 256.568,-20.3401"/>
<polygon fill="midnightblue" stroke="midnightblue" points="257.149,-23.8044 266.831,-19.5008 256.579,-16.8277 257.149,-23.8044"/>
</g>
<!-- Node4 -->
<g id="node4" class="node"><title>Node4</title>
<g id="a_node4"><a xlink:href="../../d3/dac/classbackend_1_1_model.html#ab973b5efcf575443127eeb36485cec29" target="_top" xlink:title="backend.Model.getImageMap">
<polygon fill="white" stroke="black" points="542,-0.5 542,-19.5 700,-19.5 700,-0.5 542,-0.5"/>
<text text-anchor="middle" x="621" y="-7.5" font-family="Helvetica,sans-Serif" font-size="10.00">backend.Model.getImageMap</text>
</a>
</g>
</g>
<!-- Node3&#45;&gt;Node4 -->
<g id="edge3" class="edge"><title>Node3&#45;&gt;Node4</title>
<path fill="none" stroke="midnightblue" d="M506.286,-10C514.903,-10 523.493,-10 531.87,-10"/>
<polygon fill="midnightblue" stroke="midnightblue" points="531.97,-13.5001 541.97,-10 531.97,-6.5001 531.97,-13.5001"/>
</g>
</g>
</svg>
