<?xml version="1.0" encoding="UTF-8" standalone="no"?>
<!DOCTYPE svg PUBLIC "-//W3C//DTD SVG 1.1//EN"
 "http://www.w3.org/Graphics/SVG/1.1/DTD/svg11.dtd">
<!-- Generated by graphviz version 2.36.0 (20140111.2315)
 -->
<!-- Title: backend.command.ModelCommand.colorMap Pages: 1 -->
<!--zoomable 129 -->
<svg id="main" version="1.1" xmlns="http://www.w3.org/2000/svg" xmlns:xlink="http://www.w3.org/1999/xlink" xml:space="preserve" onload="init(evt)">
<style type="text/css"><![CDATA[
.edge:hover path { stroke: red; }
.edge:hover polygon { stroke: red; fill: red; }
]]></style>
<script type="text/javascript"><![CDATA[
var edges = document.getElementsByTagName('g');
if (edges && edges.length) {
  for (var i=0;i<edges.length;i++) {
    if (edges[i].id.substr(0,4)=='edge') {
      edges[i].setAttribute('class','edge');
    }
  }
}
]]></script>
        <defs>
                <circle id="rim" cx="0" cy="0" r="7"/>
                <circle id="rim2" cx="0" cy="0" r="3.5"/>
                <g id="zoomPlus">
                        <use xlink:href="#rim" fill="#404040">
                                <set attributeName="fill" to="#808080" begin="zoomplus.mouseover" end="zoomplus.mouseout"/>
                        </use>
                        <path d="M-4,0h8M0,-4v8" fill="none" stroke="white" stroke-width="1.5" pointer-events="none"/>
                </g>
                <g id="zoomMin">
                        <use xlink:href="#rim" fill="#404040">
                                <set attributeName="fill" to="#808080" begin="zoomminus.mouseover" end="zoomminus.mouseout"/>
                        </use>
                        <path d="M-4,0h8" fill="none" stroke="white" stroke-width="1.5" pointer-events="none"/>
                </g>
                <g id="dirArrow">
                        <path fill="none" stroke="white" stroke-width="1.5" d="M0,-3.0v7 M-2.5,-0.5L0,-3.0L2.5,-0.5"/>
                </g>
               <g id="resetDef">
                       <use xlink:href="#rim2" fill="#404040">
                               <set attributeName="fill" to="#808080" begin="reset.mouseover" end="reset.mouseout"/>
                       </use>
               </g>
        </defs>

<script type="text/javascript">
var viewWidth = 772;
var viewHeight = 129;
var sectionId = 'dynsection-3';
</script>
<script xlink:href="../../svgpan.js"/>
<svg id="graph" class="graph">
<g id="viewport">
<title>backend.command.ModelCommand.colorMap</title>
<polygon fill="white" stroke="none" points="-4,4 -4,-125 768,-125 768,4 -4,4"/>
<!-- Node1 -->
<g id="node1" class="node"><title>Node1</title>
<polygon fill="#bfbfbf" stroke="black" points="0.5,-63.5 0.5,-82.5 237.5,-82.5 237.5,-63.5 0.5,-63.5"/>
<text text-anchor="middle" x="119" y="-70.5" font-family="Helvetica,sans-Serif" font-size="10.00">backend.command.ModelCommand.colorMap</text>
</g>
<!-- Node2 -->
<g id="node2" class="node"><title>Node2</title>
<g id="a_node2"><a xlink:href="../../d9/d61/classbackend_1_1command_1_1_get_pen_color.html#a51ab64bb7cf54b848f05198278a3b20f" target="_top" xlink:title="backend.command.GetPenColor.execute">
<polygon fill="white" stroke="black" points="281,-101.5 281,-120.5 493,-120.5 493,-101.5 281,-101.5"/>
<text text-anchor="middle" x="387" y="-108.5" font-family="Helvetica,sans-Serif" font-size="10.00">backend.command.GetPenColor.execute</text>
</a>
</g>
</g>
<!-- Node1&#45;&gt;Node2 -->
<g id="edge1" class="edge"><title>Node1&#45;&gt;Node2</title>
<path fill="none" stroke="midnightblue" d="M196.95,-83.9928C235.623,-89.5175 282.034,-96.1477 319.193,-101.456"/>
<polygon fill="midnightblue" stroke="midnightblue" points="197.174,-80.4894 186.78,-82.54 196.184,-87.4191 197.174,-80.4894"/>
</g>
<!-- Node3 -->
<g id="node3" class="node"><title>Node3</title>
<g id="a_node3"><a xlink:href="../../d6/db5/classbackend_1_1command_1_1_set_palette.html#af4a93cf60d2c74b3de7c350e690f0911" target="_top" xlink:title="backend.command.SetPalette.execute">
<polygon fill="white" stroke="black" points="285.5,-63.5 285.5,-82.5 488.5,-82.5 488.5,-63.5 285.5,-63.5"/>
<text text-anchor="middle" x="387" y="-70.5" font-family="Helvetica,sans-Serif" font-size="10.00">backend.command.SetPalette.execute</text>
</a>
</g>
</g>
<!-- Node1&#45;&gt;Node3 -->
<g id="edge2" class="edge"><title>Node1&#45;&gt;Node3</title>
<path fill="none" stroke="midnightblue" d="M247.888,-73C260.453,-73 273.079,-73 285.317,-73"/>
<polygon fill="midnightblue" stroke="midnightblue" points="247.833,-69.5001 237.833,-73 247.833,-76.5001 247.833,-69.5001"/>
</g>
<!-- Node4 -->
<g id="node4" class="node"><title>Node4</title>
<g id="a_node4"><a xlink:href="../../dc/d67/classbackend_1_1command_1_1_model_command.html#ab1aeefecd317fb74afe685c140d17c55" target="_top" xlink:title="backend.command.ModelCommand.param\lToColor">
<polygon fill="white" stroke="black" points="274.5,-14 274.5,-44 499.5,-44 499.5,-14 274.5,-14"/>
<text text-anchor="start" x="282.5" y="-32" font-family="Helvetica,sans-Serif" font-size="10.00">backend.command.ModelCommand.param</text>
<text text-anchor="middle" x="387" y="-21" font-family="Helvetica,sans-Serif" font-size="10.00">ToColor</text>
</a>
</g>
</g>
<!-- Node1&#45;&gt;Node4 -->
<g id="edge3" class="edge"><title>Node1&#45;&gt;Node4</title>
<path fill="none" stroke="midnightblue" d="M187.616,-61.8154C220.274,-56.4133 259.933,-49.8531 295.183,-44.0224"/>
<polygon fill="midnightblue" stroke="midnightblue" points="187.013,-58.3675 177.718,-63.4527 188.155,-65.2737 187.013,-58.3675"/>
</g>
<!-- Node5 -->
<g id="node5" class="node"><title>Node5</title>
<g id="a_node5"><a xlink:href="../../de/d47/classbackend_1_1command_1_1_set_background.html#a32cf6de8fa8a7b154fa1124e2efb6c5c" target="_top" xlink:title="backend.command.SetBackground.execute">
<polygon fill="white" stroke="black" points="536.5,-38.5 536.5,-57.5 763.5,-57.5 763.5,-38.5 536.5,-38.5"/>
<text text-anchor="middle" x="650" y="-45.5" font-family="Helvetica,sans-Serif" font-size="10.00">backend.command.SetBackground.execute</text>
</a>
</g>
</g>
<!-- Node4&#45;&gt;Node5 -->
<g id="edge4" class="edge"><title>Node4&#45;&gt;Node5</title>
<path fill="none" stroke="midnightblue" d="M510.022,-37.8828C518.737,-38.5173 527.503,-39.1554 536.163,-39.7858"/>
<polygon fill="midnightblue" stroke="midnightblue" points="510.051,-34.3758 499.823,-37.1404 509.543,-41.3573 510.051,-34.3758"/>
</g>
<!-- Node6 -->
<g id="node6" class="node"><title>Node6</title>
<g id="a_node6"><a xlink:href="../../df/df8/classbackend_1_1command_1_1_set_pen_color.html#ae59f12abe2013dd21d4090d7c94c669d" target="_top" xlink:title="backend.command.SetPenColor.execute">
<polygon fill="white" stroke="black" points="544,-0.5 544,-19.5 756,-19.5 756,-0.5 544,-0.5"/>
<text text-anchor="middle" x="650" y="-7.5" font-family="Helvetica,sans-Serif" font-size="10.00">backend.command.SetPenColor.execute</text>
</a>
</g>
</g>
<!-- Node4&#45;&gt;Node6 -->
<g id="edge5" class="edge"><title>Node4&#45;&gt;Node6</title>
<path fill="none" stroke="midnightblue" d="M510.081,-20.1129C521.285,-19.2972 532.573,-18.4755 543.612,-17.6719"/>
<polygon fill="midnightblue" stroke="midnightblue" points="509.543,-16.6427 499.823,-20.8596 510.051,-23.6242 509.543,-16.6427"/>
</g>
</g>
</svg>
        <g id="navigator" transform="translate(0 0)" fill="#404254">
                <rect fill="#f2f5e9" fill-opacity="0.5" stroke="#606060" stroke-width=".5" x="0" y="0" width="60" height="60"/>
                <use id="zoomplus" xlink:href="#zoomPlus" x="17" y="9" onmousedown="handleZoom(evt,'in')"/>
                <use id="zoomminus" xlink:href="#zoomMin" x="42" y="9" onmousedown="handleZoom(evt,'out')"/>
                <use id="reset" xlink:href="#resetDef" x="30" y="36" onmousedown="handleReset()"/>
                <g id="arrowUp" xlink:href="#dirArrow" transform="translate(30 24)" onmousedown="handlePan(0,-1)">
                  <use xlink:href="#rim" fill="#404040">
                        <set attributeName="fill" to="#808080" begin="arrowUp.mouseover" end="arrowUp.mouseout"/>
                  </use>
                  <path fill="none" stroke="white" stroke-width="1.5" d="M0,-3.0v7 M-2.5,-0.5L0,-3.0L2.5,-0.5"/>
                </g>
                <g id="arrowRight" xlink:href="#dirArrow" transform="rotate(90) translate(36 -43)" onmousedown="handlePan(1,0)">
                  <use xlink:href="#rim" fill="#404040">
                        <set attributeName="fill" to="#808080" begin="arrowRight.mouseover" end="arrowRight.mouseout"/>
                  </use>
                  <path fill="none" stroke="white" stroke-width="1.5" d="M0,-3.0v7 M-2.5,-0.5L0,-3.0L2.5,-0.5"/>
                </g>
                <g id="arrowDown" xlink:href="#dirArrow" transform="rotate(180) translate(-30 -48)" onmousedown="handlePan(0,1)">
                  <use xlink:href="#rim" fill="#404040">
                        <set attributeName="fill" to="#808080" begin="arrowDown.mouseover" end="arrowDown.mouseout"/>
                  </use>
                  <path fill="none" stroke="white" stroke-width="1.5" d="M0,-3.0v7 M-2.5,-0.5L0,-3.0L2.5,-0.5"/>
                </g>
                <g id="arrowLeft" xlink:href="#dirArrow" transform="rotate(270) translate(-36 17)" onmousedown="handlePan(-1,0)">
                  <use xlink:href="#rim" fill="#404040">
                        <set attributeName="fill" to="#808080" begin="arrowLeft.mouseover" end="arrowLeft.mouseout"/>
                  </use>
                  <path fill="none" stroke="white" stroke-width="1.5" d="M0,-3.0v7 M-2.5,-0.5L0,-3.0L2.5,-0.5"/>
                </g>
        </g>
        <svg viewBox="0 0 15 15" width="100%" height="30px" preserveAspectRatio="xMaxYMin meet">
         <g id="arrow_out" transform="scale(0.3 0.3)">
          <a xlink:href="classbackend_1_1command_1_1_model_command_aa459b6ae4744fa0705aa08b95f7d9b0f_icgraph_org.svg" target="_base">
           <rect id="button" ry="5" rx="5" y="6" x="6" height="38" width="38"
                fill="#f2f5e9" fill-opacity="0.5" stroke="#606060" stroke-width="1.0"/>
           <path id="arrow"
             d="M 11.500037,31.436501 C 11.940474,20.09759 22.043105,11.32322 32.158766,21.979434 L 37.068811,17.246167 C 37.068811,17.246167 37.088388,32 37.088388,32 L 22.160133,31.978069 C 22.160133,31.978069 26.997745,27.140456 26.997745,27.140456 C 18.528582,18.264221 13.291696,25.230495 11.500037,31.436501 z"
             style="fill:#404040;"/>
          </a>
         </g>
        </svg>
</svg>
