<?xml version="1.0" encoding="UTF-8" standalone="no"?>
<!DOCTYPE svg PUBLIC "-//W3C//DTD SVG 1.1//EN"
 "http://www.w3.org/Graphics/SVG/1.1/DTD/svg11.dtd">
<!-- Generated by graphviz version 2.36.0 (20140111.2315)
 -->
<!-- Title: backend.command.ModelCommand.grid Pages: 1 -->
<!--zoomable 286 -->
<svg id="main" version="1.1" xmlns="http://www.w3.org/2000/svg" xmlns:xlink="http://www.w3.org/1999/xlink" xml:space="preserve" onload="init(evt)">
<style type="text/css"><![CDATA[
.edge:hover path { stroke: red; }
.edge:hover polygon { stroke: red; fill: red; }
]]></style>
<script type="text/javascript"><![CDATA[
var edges = document.getElementsByTagName('g');
if (edges && edges.length) {
  for (var i=0;i<edges.length;i++) {
    if (edges[i].id.substr(0,4)=='edge') {
      edges[i].setAttribute('class','edge');
    }
  }
}
]]></script>
        <defs>
                <circle id="rim" cx="0" cy="0" r="7"/>
                <circle id="rim2" cx="0" cy="0" r="3.5"/>
                <g id="zoomPlus">
                        <use xlink:href="#rim" fill="#404040">
                                <set attributeName="fill" to="#808080" begin="zoomplus.mouseover" end="zoomplus.mouseout"/>
                        </use>
                        <path d="M-4,0h8M0,-4v8" fill="none" stroke="white" stroke-width="1.5" pointer-events="none"/>
                </g>
                <g id="zoomMin">
                        <use xlink:href="#rim" fill="#404040">
                                <set attributeName="fill" to="#808080" begin="zoomminus.mouseover" end="zoomminus.mouseout"/>
                        </use>
                        <path d="M-4,0h8" fill="none" stroke="white" stroke-width="1.5" pointer-events="none"/>
                </g>
                <g id="dirArrow">
                        <path fill="none" stroke="white" stroke-width="1.5" d="M0,-3.0v7 M-2.5,-0.5L0,-3.0L2.5,-0.5"/>
                </g>
               <g id="resetDef">
                       <use xlink:href="#rim2" fill="#404040">
                               <set attributeName="fill" to="#808080" begin="reset.mouseover" end="reset.mouseout"/>
                       </use>
               </g>
        </defs>

<script type="text/javascript">
var viewWidth = 736;
var viewHeight = 286;
var sectionId = 'dynsection-5';
</script>
<script xlink:href="../../svgpan.js"/>
<svg id="graph" class="graph">
<g id="viewport">
<title>backend.command.ModelCommand.grid</title>
<polygon fill="white" stroke="none" points="-4,4 -4,-281.839 732,-281.839 732,4 -4,4"/>
<!-- Node1 -->
<g id="node1" class="node"><title>Node1</title>
<polygon fill="#bfbfbf" stroke="black" points="0,-132.5 0,-151.5 212,-151.5 212,-132.5 0,-132.5"/>
<text text-anchor="middle" x="106" y="-139.5" font-family="Helvetica,sans-Serif" font-size="10.00">backend.command.ModelCommand.grid</text>
</g>
<!-- Node2 -->
<g id="node2" class="node"><title>Node2</title>
<g id="a_node2"><a xlink:href="../../d5/dfc/classbackend_1_1command_1_1_turtle_command.html#abc5335b628982bd9ef9c3602d6b2b60e" target="_top" xlink:title="backend.command.TurtleCommand.active\lTurtles">
<polygon fill="white" stroke="black" points="252.5,-215 252.5,-245 471.5,-245 471.5,-215 252.5,-215"/>
<text text-anchor="start" x="260.5" y="-233" font-family="Helvetica,sans-Serif" font-size="10.00">backend.command.TurtleCommand.active</text>
<text text-anchor="middle" x="362" y="-222" font-family="Helvetica,sans-Serif" font-size="10.00">Turtles</text>
</a>
</g>
</g>
<!-- Node1&#45;&gt;Node2 -->
<g id="edge1" class="edge"><title>Node1&#45;&gt;Node2</title>
<path fill="none" stroke="midnightblue" d="M137.014,-155.688C165.267,-168.25 208.956,-186.85 248,-200 264.158,-205.442 281.879,-210.543 298.397,-214.94"/>
<polygon fill="midnightblue" stroke="midnightblue" points="138.255,-152.408 127.697,-151.515 135.393,-158.797 138.255,-152.408"/>
</g>
<!-- Node3 -->
<g id="node3" class="node"><title>Node3</title>
<g id="a_node3"><a xlink:href="../../d8/db4/classbackend_1_1command_1_1_active_turtle_command.html#a57112668aa5ac898122c5bd1a426afcd" target="_top" xlink:title="backend.command.ActiveTurtle\lCommand.execute">
<polygon fill="white" stroke="black" points="536.5,-237 536.5,-267 703.5,-267 703.5,-237 536.5,-237"/>
<text text-anchor="start" x="544.5" y="-255" font-family="Helvetica,sans-Serif" font-size="10.00">backend.command.ActiveTurtle</text>
<text text-anchor="middle" x="620" y="-244" font-family="Helvetica,sans-Serif" font-size="10.00">Command.execute</text>
</a>
</g>
</g>
<!-- Node1&#45;&gt;Node3 -->
<g id="edge10" class="edge"><title>Node1&#45;&gt;Node3</title>
<path fill="none" stroke="midnightblue" d="M121.612,-159.455C145.048,-185.927 193.931,-235.139 248,-254 345.155,-287.891 465.525,-278.706 542.304,-267.008"/>
<polygon fill="midnightblue" stroke="midnightblue" points="124.114,-156.997 114.923,-151.726 118.821,-161.578 124.114,-156.997"/>
</g>
<!-- Node4 -->
<g id="node4" class="node"><title>Node4</title>
<g id="a_node4"><a xlink:href="../../d4/d75/classbackend_1_1command_1_1_ask.html#a453b95a58b91a82a2cca53f444a31ff6" target="_top" xlink:title="backend.command.Ask.execute">
<polygon fill="white" stroke="black" points="535,-176.5 535,-195.5 705,-195.5 705,-176.5 535,-176.5"/>
<text text-anchor="middle" x="620" y="-183.5" font-family="Helvetica,sans-Serif" font-size="10.00">backend.command.Ask.execute</text>
</a>
</g>
</g>
<!-- Node1&#45;&gt;Node4 -->
<g id="edge8" class="edge"><title>Node1&#45;&gt;Node4</title>
<path fill="none" stroke="midnightblue" d="M164.636,-153.348C190.094,-157.962 220.441,-162.922 248,-166 346.08,-176.954 459.442,-181.959 534.786,-184.212"/>
<polygon fill="midnightblue" stroke="midnightblue" points="165.242,-149.901 154.774,-151.534 163.976,-156.786 165.242,-149.901"/>
</g>
<!-- Node5 -->
<g id="node5" class="node"><title>Node5</title>
<g id="a_node5"><a xlink:href="../../d5/dfc/classbackend_1_1command_1_1_turtle_command.html#a7f974873733f7c940acf4ffa8d6bd32b" target="_top" xlink:title="backend.command.TurtleCommand.all\lTurtles">
<polygon fill="white" stroke="black" points="261.5,-39 261.5,-69 462.5,-69 462.5,-39 261.5,-39"/>
<text text-anchor="start" x="269.5" y="-57" font-family="Helvetica,sans-Serif" font-size="10.00">backend.command.TurtleCommand.all</text>
<text text-anchor="middle" x="362" y="-46" font-family="Helvetica,sans-Serif" font-size="10.00">Turtles</text>
</a>
</g>
</g>
<!-- Node1&#45;&gt;Node5 -->
<g id="edge4" class="edge"><title>Node1&#45;&gt;Node5</title>
<path fill="none" stroke="midnightblue" d="M137.014,-128.312C165.267,-115.75 208.956,-97.1503 248,-84 264.158,-78.5578 281.879,-73.457 298.397,-69.0596"/>
<polygon fill="midnightblue" stroke="midnightblue" points="135.393,-125.203 127.697,-132.485 138.255,-131.592 135.393,-125.203"/>
</g>
<!-- Node8 -->
<g id="node8" class="node"><title>Node8</title>
<g id="a_node8"><a xlink:href="../../de/dcc/classbackend_1_1command_1_1_tell.html#a9efd790cb410947936aed1289e7fc246" target="_top" xlink:title="backend.command.Tell.execute">
<polygon fill="white" stroke="black" points="536.5,-110.5 536.5,-129.5 703.5,-129.5 703.5,-110.5 536.5,-110.5"/>
<text text-anchor="middle" x="620" y="-117.5" font-family="Helvetica,sans-Serif" font-size="10.00">backend.command.Tell.execute</text>
</a>
</g>
</g>
<!-- Node1&#45;&gt;Node8 -->
<g id="edge7" class="edge"><title>Node1&#45;&gt;Node8</title>
<path fill="none" stroke="midnightblue" d="M161.573,-130.505C187.608,-125.588 219.276,-120.427 248,-118 346.84,-109.648 461.02,-112.068 536.316,-115.323"/>
<polygon fill="midnightblue" stroke="midnightblue" points="160.679,-127.113 151.523,-132.443 162.004,-133.986 160.679,-127.113"/>
</g>
<!-- Node9 -->
<g id="node9" class="node"><title>Node9</title>
<g id="a_node9"><a xlink:href="../../de/d47/classbackend_1_1command_1_1_set_background.html#a32cf6de8fa8a7b154fa1124e2efb6c5c" target="_top" xlink:title="backend.command.SetBackground.execute">
<polygon fill="white" stroke="black" points="248.5,-0.5 248.5,-19.5 475.5,-19.5 475.5,-0.5 248.5,-0.5"/>
<text text-anchor="middle" x="362" y="-7.5" font-family="Helvetica,sans-Serif" font-size="10.00">backend.command.SetBackground.execute</text>
</a>
</g>
</g>
<!-- Node1&#45;&gt;Node9 -->
<g id="edge9" class="edge"><title>Node1&#45;&gt;Node9</title>
<path fill="none" stroke="midnightblue" d="M122.781,-124.932C147.084,-99.795 196.302,-53.287 248,-30 257.718,-25.6224 268.31,-22.201 278.985,-19.5274"/>
<polygon fill="midnightblue" stroke="midnightblue" points="120.145,-122.625 115.795,-132.286 125.22,-127.447 120.145,-122.625"/>
</g>
<!-- Node10 -->
<g id="node10" class="node"><title>Node10</title>
<g id="a_node10"><a xlink:href="../../d4/d68/classbackend_1_1command_1_1_specified_turtle_command.html#abd0266fe718a56aae9fd137321772c0c" target="_top" xlink:title="backend.command.Specified\lTurtleCommand.specifiedTurtles">
<polygon fill="white" stroke="black" points="278,-127 278,-157 446,-157 446,-127 278,-127"/>
<text text-anchor="start" x="286" y="-145" font-family="Helvetica,sans-Serif" font-size="10.00">backend.command.Specified</text>
<text text-anchor="middle" x="362" y="-134" font-family="Helvetica,sans-Serif" font-size="10.00">TurtleCommand.specifiedTurtles</text>
</a>
</g>
</g>
<!-- Node1&#45;&gt;Node10 -->
<g id="edge11" class="edge"><title>Node1&#45;&gt;Node10</title>
<path fill="none" stroke="midnightblue" d="M222.177,-142C240.864,-142 259.895,-142 277.633,-142"/>
<polygon fill="midnightblue" stroke="midnightblue" points="222.145,-138.5 212.145,-142 222.145,-145.5 222.145,-138.5"/>
</g>
<!-- Node2&#45;&gt;Node3 -->
<g id="edge2" class="edge"><title>Node2&#45;&gt;Node3</title>
<path fill="none" stroke="midnightblue" d="M481.77,-240.207C500.2,-241.791 518.886,-243.396 536.29,-244.892"/>
<polygon fill="midnightblue" stroke="midnightblue" points="481.83,-236.699 471.567,-239.33 481.231,-243.673 481.83,-236.699"/>
</g>
<!-- Node2&#45;&gt;Node4 -->
<g id="edge3" class="edge"><title>Node2&#45;&gt;Node4</title>
<path fill="none" stroke="midnightblue" d="M460.611,-213.223C495.496,-207.227 533.577,-200.682 563.655,-195.512"/>
<polygon fill="midnightblue" stroke="midnightblue" points="459.647,-209.837 450.385,-214.981 460.833,-216.736 459.647,-209.837"/>
</g>
<!-- Node6 -->
<g id="node6" class="node"><title>Node6</title>
<g id="a_node6"><a xlink:href="../../d9/d32/classbackend_1_1command_1_1_clear_stamps.html#a72929c501b515e1a35243bdc05f14f8d" target="_top" xlink:title="backend.command.ClearStamps.execute">
<polygon fill="white" stroke="black" points="512.5,-58.5 512.5,-77.5 727.5,-77.5 727.5,-58.5 512.5,-58.5"/>
<text text-anchor="middle" x="620" y="-65.5" font-family="Helvetica,sans-Serif" font-size="10.00">backend.command.ClearStamps.execute</text>
</a>
</g>
</g>
<!-- Node5&#45;&gt;Node6 -->
<g id="edge5" class="edge"><title>Node5&#45;&gt;Node6</title>
<path fill="none" stroke="midnightblue" d="M472.703,-59.9994C485.852,-60.7185 499.264,-61.4519 512.368,-62.1685"/>
<polygon fill="midnightblue" stroke="midnightblue" points="472.886,-56.5042 462.709,-59.4529 472.503,-63.4938 472.886,-56.5042"/>
</g>
<!-- Node7 -->
<g id="node7" class="node"><title>Node7</title>
<g id="a_node7"><a xlink:href="../../da/d05/classbackend_1_1command_1_1_turtles.html#a0b113f00307be40c09e2e917f1982d62" target="_top" xlink:title="backend.command.Turtles.execute">
<polygon fill="white" stroke="black" points="528,-20.5 528,-39.5 712,-39.5 712,-20.5 528,-20.5"/>
<text text-anchor="middle" x="620" y="-27.5" font-family="Helvetica,sans-Serif" font-size="10.00">backend.command.Turtles.execute</text>
</a>
</g>
</g>
<!-- Node5&#45;&gt;Node7 -->
<g id="edge6" class="edge"><title>Node5&#45;&gt;Node7</title>
<path fill="none" stroke="midnightblue" d="M472.85,-43.7016C491.216,-41.9798 510.09,-40.2103 527.919,-38.5389"/>
<polygon fill="midnightblue" stroke="midnightblue" points="472.339,-40.234 462.709,-44.6523 472.992,-47.2035 472.339,-40.234"/>
</g>
<!-- Node10&#45;&gt;Node4 -->
<g id="edge12" class="edge"><title>Node10&#45;&gt;Node4</title>
<path fill="none" stroke="midnightblue" d="M456.141,-158.009C492.097,-164.189 532.025,-171.051 563.347,-176.435"/>
<polygon fill="midnightblue" stroke="midnightblue" points="456.564,-154.53 446.116,-156.286 455.378,-161.429 456.564,-154.53"/>
</g>
<!-- Node10&#45;&gt;Node8 -->
<g id="edge13" class="edge"><title>Node10&#45;&gt;Node8</title>
<path fill="none" stroke="midnightblue" d="M456.411,-133.972C482.57,-131.724 510.811,-129.297 536.301,-127.107"/>
<polygon fill="midnightblue" stroke="midnightblue" points="455.779,-130.514 446.116,-134.857 456.379,-137.488 455.779,-130.514"/>
</g>
</g>
</svg>
        <g id="navigator" transform="translate(0 0)" fill="#404254">
                <rect fill="#f2f5e9" fill-opacity="0.5" stroke="#606060" stroke-width=".5" x="0" y="0" width="60" height="60"/>
                <use id="zoomplus" xlink:href="#zoomPlus" x="17" y="9" onmousedown="handleZoom(evt,'in')"/>
                <use id="zoomminus" xlink:href="#zoomMin" x="42" y="9" onmousedown="handleZoom(evt,'out')"/>
                <use id="reset" xlink:href="#resetDef" x="30" y="36" onmousedown="handleReset()"/>
                <g id="arrowUp" xlink:href="#dirArrow" transform="translate(30 24)" onmousedown="handlePan(0,-1)">
                  <use xlink:href="#rim" fill="#404040">
                        <set attributeName="fill" to="#808080" begin="arrowUp.mouseover" end="arrowUp.mouseout"/>
                  </use>
                  <path fill="none" stroke="white" stroke-width="1.5" d="M0,-3.0v7 M-2.5,-0.5L0,-3.0L2.5,-0.5"/>
                </g>
                <g id="arrowRight" xlink:href="#dirArrow" transform="rotate(90) translate(36 -43)" onmousedown="handlePan(1,0)">
                  <use xlink:href="#rim" fill="#404040">
                        <set attributeName="fill" to="#808080" begin="arrowRight.mouseover" end="arrowRight.mouseout"/>
                  </use>
                  <path fill="none" stroke="white" stroke-width="1.5" d="M0,-3.0v7 M-2.5,-0.5L0,-3.0L2.5,-0.5"/>
                </g>
                <g id="arrowDown" xlink:href="#dirArrow" transform="rotate(180) translate(-30 -48)" onmousedown="handlePan(0,1)">
                  <use xlink:href="#rim" fill="#404040">
                        <set attributeName="fill" to="#808080" begin="arrowDown.mouseover" end="arrowDown.mouseout"/>
                  </use>
                  <path fill="none" stroke="white" stroke-width="1.5" d="M0,-3.0v7 M-2.5,-0.5L0,-3.0L2.5,-0.5"/>
                </g>
                <g id="arrowLeft" xlink:href="#dirArrow" transform="rotate(270) translate(-36 17)" onmousedown="handlePan(-1,0)">
                  <use xlink:href="#rim" fill="#404040">
                        <set attributeName="fill" to="#808080" begin="arrowLeft.mouseover" end="arrowLeft.mouseout"/>
                  </use>
                  <path fill="none" stroke="white" stroke-width="1.5" d="M0,-3.0v7 M-2.5,-0.5L0,-3.0L2.5,-0.5"/>
                </g>
        </g>
        <svg viewBox="0 0 15 15" width="100%" height="30px" preserveAspectRatio="xMaxYMin meet">
         <g id="arrow_out" transform="scale(0.3 0.3)">
          <a xlink:href="classbackend_1_1command_1_1_model_command_ab57d058d26b965a9038487f69f40c066_icgraph_org.svg" target="_base">
           <rect id="button" ry="5" rx="5" y="6" x="6" height="38" width="38"
                fill="#f2f5e9" fill-opacity="0.5" stroke="#606060" stroke-width="1.0"/>
           <path id="arrow"
             d="M 11.500037,31.436501 C 11.940474,20.09759 22.043105,11.32322 32.158766,21.979434 L 37.068811,17.246167 C 37.068811,17.246167 37.088388,32 37.088388,32 L 22.160133,31.978069 C 22.160133,31.978069 26.997745,27.140456 26.997745,27.140456 C 18.528582,18.264221 13.291696,25.230495 11.500037,31.436501 z"
             style="fill:#404040;"/>
          </a>
         </g>
        </svg>
</svg>
