<?xml version="1.0" encoding="UTF-8" standalone="no"?>
<!DOCTYPE svg PUBLIC "-//W3C//DTD SVG 1.1//EN"
 "http://www.w3.org/Graphics/SVG/1.1/DTD/svg11.dtd">
<!-- Generated by graphviz version 2.36.0 (20140111.2315)
 -->
<!-- Title: backend.command.ModelCommand.userVariables Pages: 1 -->
<svg width="700pt" height="164pt"
 viewBox="0.00 0.00 700.00 164.00" xmlns="http://www.w3.org/2000/svg" xmlns:xlink="http://www.w3.org/1999/xlink">
<g id="graph0" class="graph" transform="scale(1 1) rotate(0) translate(4 160)">
<title>backend.command.ModelCommand.userVariables</title>
<polygon fill="white" stroke="none" points="-4,4 -4,-160 696,-160 696,4 -4,4"/>
<!-- Node1 -->
<g id="node1" class="node"><title>Node1</title>
<polygon fill="#bfbfbf" stroke="black" points="0.5,-63 0.5,-93 215.5,-93 215.5,-63 0.5,-63"/>
<text text-anchor="start" x="8.5" y="-81" font-family="Helvetica,sans-Serif" font-size="10.00">backend.command.ModelCommand.user</text>
<text text-anchor="middle" x="108" y="-70" font-family="Helvetica,sans-Serif" font-size="10.00">Variables</text>
</g>
<!-- Node2 -->
<g id="node2" class="node"><title>Node2</title>
<g id="a_node2"><a xlink:href="../../de/dc9/classbackend_1_1command_1_1_variable_retriever.html#a8a0e1a59be79d1e08cd4d1d44227fc27" target="_top" xlink:title="backend.command.Variable\lRetriever.execute">
<polygon fill="white" stroke="black" points="286,-126 286,-156 436,-156 436,-126 286,-126"/>
<text text-anchor="start" x="294" y="-144" font-family="Helvetica,sans-Serif" font-size="10.00">backend.command.Variable</text>
<text text-anchor="middle" x="361" y="-133" font-family="Helvetica,sans-Serif" font-size="10.00">Retriever.execute</text>
</a>
</g>
</g>
<!-- Node1&#45;&gt;Node2 -->
<g id="edge1" class="edge"><title>Node1&#45;&gt;Node2</title>
<path fill="none" stroke="midnightblue" d="M173.785,-95.6891C198.25,-102.244 226.364,-109.629 252,-116 265.354,-119.319 279.674,-122.734 293.378,-125.933"/>
<polygon fill="midnightblue" stroke="midnightblue" points="174.463,-92.247 163.897,-93.0316 172.646,-99.0071 174.463,-92.247"/>
</g>
<!-- Node3 -->
<g id="node3" class="node"><title>Node3</title>
<g id="a_node3"><a xlink:href="../../d5/d51/classbackend_1_1command_1_1_make_variable.html#a46293667b91eaef383df43ebde1445c1" target="_top" xlink:title="backend.command.MakeVariable.execute">
<polygon fill="white" stroke="black" points="252.5,-87.5 252.5,-106.5 469.5,-106.5 469.5,-87.5 252.5,-87.5"/>
<text text-anchor="middle" x="361" y="-94.5" font-family="Helvetica,sans-Serif" font-size="10.00">backend.command.MakeVariable.execute</text>
</a>
</g>
</g>
<!-- Node1&#45;&gt;Node3 -->
<g id="edge2" class="edge"><title>Node1&#45;&gt;Node3</title>
<path fill="none" stroke="midnightblue" d="M225.815,-86.8426C234.706,-87.5156 243.656,-88.1931 252.485,-88.8614"/>
<polygon fill="midnightblue" stroke="midnightblue" points="226.046,-83.3502 215.811,-86.0853 225.518,-90.3302 226.046,-83.3502"/>
</g>
<!-- Node4 -->
<g id="node4" class="node"><title>Node4</title>
<g id="a_node4"><a xlink:href="../../de/d1a/classbackend_1_1command_1_1_for.html#ab76f75506018a6dc4787ded9ba77212a" target="_top" xlink:title="backend.command.For.forLoop">
<polygon fill="white" stroke="black" points="278.5,-49.5 278.5,-68.5 443.5,-68.5 443.5,-49.5 278.5,-49.5"/>
<text text-anchor="middle" x="361" y="-56.5" font-family="Helvetica,sans-Serif" font-size="10.00">backend.command.For.forLoop</text>
</a>
</g>
</g>
<!-- Node1&#45;&gt;Node4 -->
<g id="edge3" class="edge"><title>Node1&#45;&gt;Node4</title>
<path fill="none" stroke="midnightblue" d="M226.168,-69.1307C243.82,-67.7945 261.693,-66.4415 278.382,-65.1782"/>
<polygon fill="midnightblue" stroke="midnightblue" points="225.518,-65.6698 215.811,-69.9147 226.046,-72.6499 225.518,-65.6698"/>
</g>
<!-- Node7 -->
<g id="node7" class="node"><title>Node7</title>
<g id="a_node7"><a xlink:href="../../d4/d4b/classbackend_1_1command_1_1_user_instruction_retriever.html#ab3f52c78c36f90b0e945239a316d6ecb" target="_top" xlink:title="backend.command.UserInstruction\lRetriever.genVariables">
<polygon fill="white" stroke="black" points="268.5,-0 268.5,-30 453.5,-30 453.5,-0 268.5,-0"/>
<text text-anchor="start" x="276.5" y="-18" font-family="Helvetica,sans-Serif" font-size="10.00">backend.command.UserInstruction</text>
<text text-anchor="middle" x="361" y="-7" font-family="Helvetica,sans-Serif" font-size="10.00">Retriever.genVariables</text>
</a>
</g>
</g>
<!-- Node1&#45;&gt;Node7 -->
<g id="edge6" class="edge"><title>Node1&#45;&gt;Node7</title>
<path fill="none" stroke="midnightblue" d="M173.785,-60.3109C198.25,-53.7556 226.364,-46.3714 252,-40 265.354,-36.6809 279.674,-33.2657 293.378,-30.0669"/>
<polygon fill="midnightblue" stroke="midnightblue" points="172.646,-56.9929 163.897,-62.9684 174.463,-63.753 172.646,-56.9929"/>
</g>
<!-- Node5 -->
<g id="node5" class="node"><title>Node5</title>
<g id="a_node5"><a xlink:href="../../d0/dca/classbackend_1_1command_1_1_repeat.html#a3dc2bb1a70043d7405283e7263e158ab" target="_top" xlink:title="backend.command.Repeat.execute">
<polygon fill="white" stroke="black" points="506,-87.5 506,-106.5 692,-106.5 692,-87.5 506,-87.5"/>
<text text-anchor="middle" x="599" y="-94.5" font-family="Helvetica,sans-Serif" font-size="10.00">backend.command.Repeat.execute</text>
</a>
</g>
</g>
<!-- Node4&#45;&gt;Node5 -->
<g id="edge4" class="edge"><title>Node4&#45;&gt;Node5</title>
<path fill="none" stroke="midnightblue" d="M431.149,-70.1341C465.283,-75.6303 506.04,-82.1929 538.727,-87.4561"/>
<polygon fill="midnightblue" stroke="midnightblue" points="431.677,-66.6742 421.248,-68.54 430.565,-73.5852 431.677,-66.6742"/>
</g>
<!-- Node6 -->
<g id="node6" class="node"><title>Node6</title>
<g id="a_node6"><a xlink:href="../../de/d1a/classbackend_1_1command_1_1_for.html#a49269498727ff3b774f81d3203262ea7" target="_top" xlink:title="backend.command.For.execute">
<polygon fill="white" stroke="black" points="515.5,-49.5 515.5,-68.5 682.5,-68.5 682.5,-49.5 515.5,-49.5"/>
<text text-anchor="middle" x="599" y="-56.5" font-family="Helvetica,sans-Serif" font-size="10.00">backend.command.For.execute</text>
</a>
</g>
</g>
<!-- Node4&#45;&gt;Node6 -->
<g id="edge5" class="edge"><title>Node4&#45;&gt;Node6</title>
<path fill="none" stroke="midnightblue" d="M453.718,-59C473.991,-59 495.355,-59 515.248,-59"/>
<polygon fill="midnightblue" stroke="midnightblue" points="453.548,-55.5001 443.548,-59 453.548,-62.5001 453.548,-55.5001"/>
</g>
<!-- Node8 -->
<g id="node8" class="node"><title>Node8</title>
<g id="a_node8"><a xlink:href="../../d4/d4b/classbackend_1_1command_1_1_user_instruction_retriever.html#ad63b2a8c91a5c60e4157a89830a3e6ef" target="_top" xlink:title="backend.command.UserInstruction\lRetriever.execute">
<polygon fill="white" stroke="black" points="506.5,-0 506.5,-30 691.5,-30 691.5,-0 506.5,-0"/>
<text text-anchor="start" x="514.5" y="-18" font-family="Helvetica,sans-Serif" font-size="10.00">backend.command.UserInstruction</text>
<text text-anchor="middle" x="599" y="-7" font-family="Helvetica,sans-Serif" font-size="10.00">Retriever.execute</text>
</a>
</g>
</g>
<!-- Node7&#45;&gt;Node8 -->
<g id="edge7" class="edge"><title>Node7&#45;&gt;Node8</title>
<path fill="none" stroke="midnightblue" d="M463.835,-15C478.009,-15 492.5,-15 506.47,-15"/>
<polygon fill="midnightblue" stroke="midnightblue" points="463.582,-11.5001 453.582,-15 463.582,-18.5001 463.582,-11.5001"/>
</g>
</g>
</svg>
