<?xml version="1.0" encoding="UTF-8" standalone="no"?>
<!DOCTYPE svg PUBLIC "-//W3C//DTD SVG 1.1//EN"
 "http://www.w3.org/Graphics/SVG/1.1/DTD/svg11.dtd">
<!-- Generated by graphviz version 2.36.0 (20140111.2315)
 -->
<!-- Title: backend.command.ActiveTurtleCommand Pages: 1 -->
<svg width="1428pt" height="621pt"
 viewBox="0.00 0.00 1428.00 621.00" xmlns="http://www.w3.org/2000/svg" xmlns:xlink="http://www.w3.org/1999/xlink">
<g id="graph0" class="graph" transform="scale(1 1) rotate(0) translate(4 617)">
<title>backend.command.ActiveTurtleCommand</title>
<polygon fill="white" stroke="none" points="-4,4 -4,-617 1424,-617 1424,4 -4,4"/>
<!-- Node1 -->
<g id="node1" class="node"><title>Node1</title>
<polygon fill="#bfbfbf" stroke="black" points="650.5,-386 650.5,-416 817.5,-416 817.5,-386 650.5,-386"/>
<text text-anchor="start" x="658.5" y="-404" font-family="Helvetica,sans-Serif" font-size="10.00">backend.command.ActiveTurtle</text>
<text text-anchor="middle" x="734" y="-393" font-family="Helvetica,sans-Serif" font-size="10.00">Command</text>
</g>
<!-- Node5 -->
<g id="node5" class="node"><title>Node5</title>
<g id="a_node5"><a xlink:href="../../d0/d99/classbackend_1_1command_1_1_clear_screen.html" target="_top" xlink:title="backend.command.ClearScreen">
<polygon fill="white" stroke="black" points="858,-593.5 858,-612.5 1028,-612.5 1028,-593.5 858,-593.5"/>
<text text-anchor="middle" x="943" y="-600.5" font-family="Helvetica,sans-Serif" font-size="10.00">backend.command.ClearScreen</text>
</a>
</g>
</g>
<!-- Node1&#45;&gt;Node5 -->
<g id="edge4" class="edge"><title>Node1&#45;&gt;Node5</title>
<path fill="none" stroke="midnightblue" d="M743.94,-425.502C759.722,-465.148 796.404,-542.95 854,-583 860.174,-587.293 867.127,-590.68 874.349,-593.349"/>
<polygon fill="midnightblue" stroke="midnightblue" points="747.163,-424.132 740.293,-416.066 740.633,-426.656 747.163,-424.132"/>
</g>
<!-- Node6 -->
<g id="node6" class="node"><title>Node6</title>
<g id="a_node6"><a xlink:href="../../dd/d3e/classbackend_1_1command_1_1_degrees_turtle_command.html" target="_top" xlink:title="backend.command.DegreesTurtle\lCommand">
<polygon fill="white" stroke="black" points="854,-544 854,-574 1032,-574 1032,-544 854,-544"/>
<text text-anchor="start" x="862" y="-562" font-family="Helvetica,sans-Serif" font-size="10.00">backend.command.DegreesTurtle</text>
<text text-anchor="middle" x="943" y="-551" font-family="Helvetica,sans-Serif" font-size="10.00">Command</text>
</a>
</g>
</g>
<!-- Node1&#45;&gt;Node6 -->
<g id="edge5" class="edge"><title>Node1&#45;&gt;Node6</title>
<path fill="none" stroke="midnightblue" d="M750.051,-424.865C770.144,-454.778 808.528,-505.564 854,-534 860.194,-537.874 867.004,-541.162 874.008,-543.951"/>
<polygon fill="midnightblue" stroke="midnightblue" points="752.836,-422.73 744.415,-416.3 746.988,-426.578 752.836,-422.73"/>
</g>
<!-- Node10 -->
<g id="node10" class="node"><title>Node10</title>
<g id="a_node10"><a xlink:href="../../df/d00/classbackend_1_1command_1_1_home.html" target="_top" xlink:title="backend.command.Home">
<polygon fill="white" stroke="black" points="872.5,-505.5 872.5,-524.5 1013.5,-524.5 1013.5,-505.5 872.5,-505.5"/>
<text text-anchor="middle" x="943" y="-512.5" font-family="Helvetica,sans-Serif" font-size="10.00">backend.command.Home</text>
</a>
</g>
</g>
<!-- Node1&#45;&gt;Node10 -->
<g id="edge9" class="edge"><title>Node1&#45;&gt;Node10</title>
<path fill="none" stroke="midnightblue" d="M756.481,-423.357C778.802,-445.238 815.76,-477.849 854,-496 862.19,-499.887 871.185,-502.988 880.202,-505.46"/>
<polygon fill="midnightblue" stroke="midnightblue" points="758.769,-420.695 749.219,-416.106 753.823,-425.649 758.769,-420.695"/>
</g>
<!-- Node11 -->
<g id="node11" class="node"><title>Node11</title>
<g id="a_node11"><a xlink:href="../../d7/dae/classbackend_1_1command_1_1_i_d.html" target="_top" xlink:title="backend.command.ID">
<polygon fill="white" stroke="black" points="882,-467.5 882,-486.5 1004,-486.5 1004,-467.5 882,-467.5"/>
<text text-anchor="middle" x="943" y="-474.5" font-family="Helvetica,sans-Serif" font-size="10.00">backend.command.ID</text>
</a>
</g>
</g>
<!-- Node1&#45;&gt;Node11 -->
<g id="edge10" class="edge"><title>Node1&#45;&gt;Node11</title>
<path fill="none" stroke="midnightblue" d="M771.201,-421.078C794.313,-433.201 825.236,-448.158 854,-458 864.795,-461.694 876.59,-464.826 887.935,-467.416"/>
<polygon fill="midnightblue" stroke="midnightblue" points="772.591,-417.854 762.118,-416.25 769.305,-424.034 772.591,-417.854"/>
</g>
<!-- Node12 -->
<g id="node12" class="node"><title>Node12</title>
<g id="a_node12"><a xlink:href="../../df/df5/classbackend_1_1command_1_1_pen_down.html" target="_top" xlink:title="backend.command.PenDown">
<polygon fill="white" stroke="black" points="865,-429.5 865,-448.5 1021,-448.5 1021,-429.5 865,-429.5"/>
<text text-anchor="middle" x="943" y="-436.5" font-family="Helvetica,sans-Serif" font-size="10.00">backend.command.PenDown</text>
</a>
</g>
</g>
<!-- Node1&#45;&gt;Node12 -->
<g id="edge11" class="edge"><title>Node1&#45;&gt;Node12</title>
<path fill="none" stroke="midnightblue" d="M826.75,-417.843C848.519,-421.839 870.99,-425.964 890.245,-429.499"/>
<polygon fill="midnightblue" stroke="midnightblue" points="827.28,-414.382 816.812,-416.019 826.016,-421.267 827.28,-414.382"/>
</g>
<!-- Node13 -->
<g id="node13" class="node"><title>Node13</title>
<g id="a_node13"><a xlink:href="../../d9/d98/classbackend_1_1command_1_1_pen_up.html" target="_top" xlink:title="backend.command.PenUp">
<polygon fill="white" stroke="black" points="871.5,-391.5 871.5,-410.5 1014.5,-410.5 1014.5,-391.5 871.5,-391.5"/>
<text text-anchor="middle" x="943" y="-398.5" font-family="Helvetica,sans-Serif" font-size="10.00">backend.command.PenUp</text>
</a>
</g>
</g>
<!-- Node1&#45;&gt;Node13 -->
<g id="edge12" class="edge"><title>Node1&#45;&gt;Node13</title>
<path fill="none" stroke="midnightblue" d="M827.788,-401C842.442,-401 857.385,-401 871.426,-401"/>
<polygon fill="midnightblue" stroke="midnightblue" points="827.704,-397.5 817.704,-401 827.704,-404.5 827.704,-397.5"/>
</g>
<!-- Node14 -->
<g id="node14" class="node"><title>Node14</title>
<g id="a_node14"><a xlink:href="../../df/d09/classbackend_1_1command_1_1_pixels_turtle_command.html" target="_top" xlink:title="backend.command.PixelsTurtle\lCommand">
<polygon fill="white" stroke="black" points="861,-342 861,-372 1025,-372 1025,-342 861,-342"/>
<text text-anchor="start" x="869" y="-360" font-family="Helvetica,sans-Serif" font-size="10.00">backend.command.PixelsTurtle</text>
<text text-anchor="middle" x="943" y="-349" font-family="Helvetica,sans-Serif" font-size="10.00">Command</text>
</a>
</g>
</g>
<!-- Node1&#45;&gt;Node14 -->
<g id="edge13" class="edge"><title>Node1&#45;&gt;Node14</title>
<path fill="none" stroke="midnightblue" d="M815.476,-383.894C833.894,-379.979 853.337,-375.846 871.309,-372.026"/>
<polygon fill="midnightblue" stroke="midnightblue" points="814.712,-380.478 805.659,-385.981 816.168,-387.325 814.712,-380.478"/>
</g>
<!-- Node18 -->
<g id="node18" class="node"><title>Node18</title>
<g id="a_node18"><a xlink:href="../../d5/dcb/classbackend_1_1command_1_1_point_turtle_command.html" target="_top" xlink:title="backend.command.PointTurtle\lCommand">
<polygon fill="white" stroke="black" points="862.5,-293 862.5,-323 1023.5,-323 1023.5,-293 862.5,-293"/>
<text text-anchor="start" x="870.5" y="-311" font-family="Helvetica,sans-Serif" font-size="10.00">backend.command.PointTurtle</text>
<text text-anchor="middle" x="943" y="-300" font-family="Helvetica,sans-Serif" font-size="10.00">Command</text>
</a>
</g>
</g>
<!-- Node1&#45;&gt;Node18 -->
<g id="edge17" class="edge"><title>Node1&#45;&gt;Node18</title>
<path fill="none" stroke="midnightblue" d="M765.354,-380.439C788.748,-365.336 822.348,-345.228 854,-332 861.89,-328.703 870.367,-325.728 878.832,-323.088"/>
<polygon fill="midnightblue" stroke="midnightblue" points="763.367,-377.556 756.912,-385.957 767.198,-383.415 763.367,-377.556"/>
</g>
<!-- Node21 -->
<g id="node21" class="node"><title>Node21</title>
<g id="a_node21"><a xlink:href="../../df/df8/classbackend_1_1command_1_1_set_pen_color.html" target="_top" xlink:title="backend.command.SetPenColor">
<polygon fill="white" stroke="black" points="857.5,-254.5 857.5,-273.5 1028.5,-273.5 1028.5,-254.5 857.5,-254.5"/>
<text text-anchor="middle" x="943" y="-261.5" font-family="Helvetica,sans-Serif" font-size="10.00">backend.command.SetPenColor</text>
</a>
</g>
</g>
<!-- Node1&#45;&gt;Node21 -->
<g id="edge20" class="edge"><title>Node1&#45;&gt;Node21</title>
<path fill="none" stroke="midnightblue" d="M751.677,-377.808C772.472,-350.69 810.613,-306.529 854,-283 861.145,-279.126 869.017,-276.041 877.028,-273.586"/>
<polygon fill="midnightblue" stroke="midnightblue" points="748.757,-375.867 745.551,-385.965 754.355,-380.071 748.757,-375.867"/>
</g>
<!-- Node22 -->
<g id="node22" class="node"><title>Node22</title>
<g id="a_node22"><a xlink:href="../../d5/dfe/classbackend_1_1command_1_1_set_shape.html" target="_top" xlink:title="backend.command.SetShape">
<polygon fill="white" stroke="black" points="863.5,-216.5 863.5,-235.5 1022.5,-235.5 1022.5,-216.5 863.5,-216.5"/>
<text text-anchor="middle" x="943" y="-223.5" font-family="Helvetica,sans-Serif" font-size="10.00">backend.command.SetShape</text>
</a>
</g>
</g>
<!-- Node1&#45;&gt;Node22 -->
<g id="edge21" class="edge"><title>Node1&#45;&gt;Node22</title>
<path fill="none" stroke="midnightblue" d="M746.531,-376.65C764.408,-341.693 802.224,-277.888 854,-245 860.069,-241.145 866.798,-238.062 873.754,-235.598"/>
<polygon fill="midnightblue" stroke="midnightblue" points="743.352,-375.183 742.023,-385.694 749.616,-378.306 743.352,-375.183"/>
</g>
<!-- Node23 -->
<g id="node23" class="node"><title>Node23</title>
<g id="a_node23"><a xlink:href="../../d9/d76/classbackend_1_1command_1_1_turtle_query.html" target="_top" xlink:title="backend.command.TurtleQuery">
<polygon fill="white" stroke="black" points="860,-133.5 860,-152.5 1026,-152.5 1026,-133.5 860,-133.5"/>
<text text-anchor="middle" x="943" y="-140.5" font-family="Helvetica,sans-Serif" font-size="10.00">backend.command.TurtleQuery</text>
</a>
</g>
</g>
<!-- Node1&#45;&gt;Node23 -->
<g id="edge22" class="edge"><title>Node1&#45;&gt;Node23</title>
<path fill="none" stroke="midnightblue" d="M746.218,-376.298C764.743,-337.295 804.637,-260.403 854,-207 875.286,-183.972 905.968,-163.898 924.911,-152.63"/>
<polygon fill="midnightblue" stroke="midnightblue" points="742.839,-375.261 741.772,-385.802 749.179,-378.227 742.839,-375.261"/>
</g>
<!-- Node2 -->
<g id="node2" class="node"><title>Node2</title>
<g id="a_node2"><a xlink:href="../../d5/dfc/classbackend_1_1command_1_1_turtle_command.html" target="_top" xlink:title="backend.command.TurtleCommand">
<polygon fill="white" stroke="black" points="426,-391.5 426,-410.5 614,-410.5 614,-391.5 426,-391.5"/>
<text text-anchor="middle" x="520" y="-398.5" font-family="Helvetica,sans-Serif" font-size="10.00">backend.command.TurtleCommand</text>
</a>
</g>
</g>
<!-- Node2&#45;&gt;Node1 -->
<g id="edge1" class="edge"><title>Node2&#45;&gt;Node1</title>
<path fill="none" stroke="midnightblue" d="M624.456,-401C633.133,-401 641.832,-401 650.321,-401"/>
<polygon fill="midnightblue" stroke="midnightblue" points="624.295,-397.5 614.295,-401 624.295,-404.5 624.295,-397.5"/>
</g>
<!-- Node3 -->
<g id="node3" class="node"><title>Node3</title>
<g id="a_node3"><a xlink:href="../../dc/d67/classbackend_1_1command_1_1_model_command.html" target="_top" xlink:title="backend.command.ModelCommand">
<polygon fill="white" stroke="black" points="198.5,-391.5 198.5,-410.5 389.5,-410.5 389.5,-391.5 198.5,-391.5"/>
<text text-anchor="middle" x="294" y="-398.5" font-family="Helvetica,sans-Serif" font-size="10.00">backend.command.ModelCommand</text>
</a>
</g>
</g>
<!-- Node3&#45;&gt;Node2 -->
<g id="edge2" class="edge"><title>Node3&#45;&gt;Node2</title>
<path fill="none" stroke="midnightblue" d="M399.798,-401C408.457,-401 417.174,-401 425.74,-401"/>
<polygon fill="midnightblue" stroke="midnightblue" points="399.672,-397.5 389.671,-401 399.671,-404.5 399.672,-397.5"/>
</g>
<!-- Node4 -->
<g id="node4" class="node"><title>Node4</title>
<g id="a_node4"><a xlink:href="../../dc/d83/classbackend_1_1command_1_1_command.html" target="_top" xlink:title="backend.command.Command">
<polygon fill="white" stroke="black" points="0,-391.5 0,-410.5 162,-410.5 162,-391.5 0,-391.5"/>
<text text-anchor="middle" x="81" y="-398.5" font-family="Helvetica,sans-Serif" font-size="10.00">backend.command.Command</text>
</a>
</g>
</g>
<!-- Node4&#45;&gt;Node3 -->
<g id="edge3" class="edge"><title>Node4&#45;&gt;Node3</title>
<path fill="none" stroke="midnightblue" d="M172.199,-401C180.894,-401 189.73,-401 198.466,-401"/>
<polygon fill="midnightblue" stroke="midnightblue" points="172.071,-397.5 162.071,-401 172.071,-404.5 172.071,-397.5"/>
</g>
<!-- Node7 -->
<g id="node7" class="node"><title>Node7</title>
<g id="a_node7"><a xlink:href="../../d1/d93/classbackend_1_1command_1_1_left.html" target="_top" xlink:title="backend.command.Left">
<polygon fill="white" stroke="black" points="1089,-587.5 1089,-606.5 1219,-606.5 1219,-587.5 1089,-587.5"/>
<text text-anchor="middle" x="1154" y="-594.5" font-family="Helvetica,sans-Serif" font-size="10.00">backend.command.Left</text>
</a>
</g>
</g>
<!-- Node6&#45;&gt;Node7 -->
<g id="edge6" class="edge"><title>Node6&#45;&gt;Node7</title>
<path fill="none" stroke="midnightblue" d="M1036.64,-575.843C1058.62,-579.839 1081.3,-583.964 1100.74,-587.499"/>
<polygon fill="midnightblue" stroke="midnightblue" points="1037.07,-572.364 1026.6,-574.019 1035.81,-579.251 1037.07,-572.364"/>
</g>
<!-- Node8 -->
<g id="node8" class="node"><title>Node8</title>
<g id="a_node8"><a xlink:href="../../d6/dcb/classbackend_1_1command_1_1_right.html" target="_top" xlink:title="backend.command.Right">
<polygon fill="white" stroke="black" points="1086,-549.5 1086,-568.5 1222,-568.5 1222,-549.5 1086,-549.5"/>
<text text-anchor="middle" x="1154" y="-556.5" font-family="Helvetica,sans-Serif" font-size="10.00">backend.command.Right</text>
</a>
</g>
</g>
<!-- Node6&#45;&gt;Node8 -->
<g id="edge7" class="edge"><title>Node6&#45;&gt;Node8</title>
<path fill="none" stroke="midnightblue" d="M1042.19,-559C1056.92,-559 1071.82,-559 1085.72,-559"/>
<polygon fill="midnightblue" stroke="midnightblue" points="1042.03,-555.5 1032.03,-559 1042.03,-562.5 1042.03,-555.5"/>
</g>
<!-- Node9 -->
<g id="node9" class="node"><title>Node9</title>
<g id="a_node9"><a xlink:href="../../d8/d92/classbackend_1_1command_1_1_set_heading.html" target="_top" xlink:title="backend.command.SetHeading">
<polygon fill="white" stroke="black" points="1070,-511.5 1070,-530.5 1238,-530.5 1238,-511.5 1070,-511.5"/>
<text text-anchor="middle" x="1154" y="-518.5" font-family="Helvetica,sans-Serif" font-size="10.00">backend.command.SetHeading</text>
</a>
</g>
</g>
<!-- Node6&#45;&gt;Node9 -->
<g id="edge8" class="edge"><title>Node6&#45;&gt;Node9</title>
<path fill="none" stroke="midnightblue" d="M1036.64,-542.157C1058.62,-538.161 1081.3,-534.036 1100.74,-530.501"/>
<polygon fill="midnightblue" stroke="midnightblue" points="1035.81,-538.749 1026.6,-543.981 1037.07,-545.636 1035.81,-538.749"/>
</g>
<!-- Node15 -->
<g id="node15" class="node"><title>Node15</title>
<g id="a_node15"><a xlink:href="../../dc/d25/classbackend_1_1command_1_1_backward.html" target="_top" xlink:title="backend.command.Backward">
<polygon fill="white" stroke="black" points="1075,-418.5 1075,-437.5 1233,-437.5 1233,-418.5 1075,-418.5"/>
<text text-anchor="middle" x="1154" y="-425.5" font-family="Helvetica,sans-Serif" font-size="10.00">backend.command.Backward</text>
</a>
</g>
</g>
<!-- Node14&#45;&gt;Node15 -->
<g id="edge14" class="edge"><title>Node14&#45;&gt;Node15</title>
<path fill="none" stroke="midnightblue" d="M1016.96,-375.429C1022.13,-377.432 1027.2,-379.62 1032,-382 1049.92,-390.882 1049.83,-400.632 1068,-409 1076.38,-412.859 1085.59,-415.958 1094.76,-418.44"/>
<polygon fill="midnightblue" stroke="midnightblue" points="1018.15,-372.138 1007.55,-372.018 1015.76,-378.718 1018.15,-372.138"/>
</g>
<!-- Node16 -->
<g id="node16" class="node"><title>Node16</title>
<g id="a_node16"><a xlink:href="../../d8/d49/classbackend_1_1command_1_1_forward.html" target="_top" xlink:title="backend.command.Forward">
<polygon fill="white" stroke="black" points="1079.5,-380.5 1079.5,-399.5 1228.5,-399.5 1228.5,-380.5 1079.5,-380.5"/>
<text text-anchor="middle" x="1154" y="-387.5" font-family="Helvetica,sans-Serif" font-size="10.00">backend.command.Forward</text>
</a>
</g>
</g>
<!-- Node14&#45;&gt;Node16 -->
<g id="edge15" class="edge"><title>Node14&#45;&gt;Node16</title>
<path fill="none" stroke="midnightblue" d="M1035.21,-371.401C1054.66,-374.472 1074.74,-377.642 1092.68,-380.476"/>
<polygon fill="midnightblue" stroke="midnightblue" points="1035.53,-367.908 1025.1,-369.806 1034.44,-374.823 1035.53,-367.908"/>
</g>
<!-- Node17 -->
<g id="node17" class="node"><title>Node17</title>
<g id="a_node17"><a xlink:href="../../d8/d3e/classbackend_1_1command_1_1_set_pen_size.html" target="_top" xlink:title="backend.command.SetPenSize">
<polygon fill="white" stroke="black" points="1070.5,-342.5 1070.5,-361.5 1237.5,-361.5 1237.5,-342.5 1070.5,-342.5"/>
<text text-anchor="middle" x="1154" y="-349.5" font-family="Helvetica,sans-Serif" font-size="10.00">backend.command.SetPenSize</text>
</a>
</g>
</g>
<!-- Node14&#45;&gt;Node17 -->
<g id="edge16" class="edge"><title>Node14&#45;&gt;Node17</title>
<path fill="none" stroke="midnightblue" d="M1035.25,-354.817C1046.88,-354.539 1058.73,-354.255 1070.22,-353.98"/>
<polygon fill="midnightblue" stroke="midnightblue" points="1035.02,-351.321 1025.1,-355.06 1035.18,-358.319 1035.02,-351.321"/>
</g>
<!-- Node19 -->
<g id="node19" class="node"><title>Node19</title>
<g id="a_node19"><a xlink:href="../../d5/db7/classbackend_1_1command_1_1_set_position.html" target="_top" xlink:title="backend.command.SetPosition">
<polygon fill="white" stroke="black" points="1071,-304.5 1071,-323.5 1237,-323.5 1237,-304.5 1071,-304.5"/>
<text text-anchor="middle" x="1154" y="-311.5" font-family="Helvetica,sans-Serif" font-size="10.00">backend.command.SetPosition</text>
</a>
</g>
</g>
<!-- Node18&#45;&gt;Node19 -->
<g id="edge18" class="edge"><title>Node18&#45;&gt;Node19</title>
<path fill="none" stroke="midnightblue" d="M1033.85,-310.579C1046.14,-310.932 1058.7,-311.293 1070.84,-311.641"/>
<polygon fill="midnightblue" stroke="midnightblue" points="1033.71,-307.074 1023.61,-310.285 1033.51,-314.071 1033.71,-307.074"/>
</g>
<!-- Node20 -->
<g id="node20" class="node"><title>Node20</title>
<g id="a_node20"><a xlink:href="../../d7/d1a/classbackend_1_1command_1_1_set_towards.html" target="_top" xlink:title="backend.command.SetTowards">
<polygon fill="white" stroke="black" points="1071,-266.5 1071,-285.5 1237,-285.5 1237,-266.5 1071,-266.5"/>
<text text-anchor="middle" x="1154" y="-273.5" font-family="Helvetica,sans-Serif" font-size="10.00">backend.command.SetTowards</text>
</a>
</g>
</g>
<!-- Node18&#45;&gt;Node20 -->
<g id="edge19" class="edge"><title>Node18&#45;&gt;Node20</title>
<path fill="none" stroke="midnightblue" d="M1033.62,-294.279C1052.9,-291.327 1072.87,-288.269 1090.83,-285.518"/>
<polygon fill="midnightblue" stroke="midnightblue" points="1032.97,-290.838 1023.61,-295.811 1034.02,-297.757 1032.97,-290.838"/>
</g>
<!-- Node24 -->
<g id="node24" class="node"><title>Node24</title>
<g id="a_node24"><a xlink:href="../../d9/d61/classbackend_1_1command_1_1_get_pen_color.html" target="_top" xlink:title="backend.command.GetPenColor">
<polygon fill="white" stroke="black" points="1068,-228.5 1068,-247.5 1240,-247.5 1240,-228.5 1068,-228.5"/>
<text text-anchor="middle" x="1154" y="-235.5" font-family="Helvetica,sans-Serif" font-size="10.00">backend.command.GetPenColor</text>
</a>
</g>
</g>
<!-- Node23&#45;&gt;Node24 -->
<g id="edge23" class="edge"><title>Node23&#45;&gt;Node24</title>
<path fill="none" stroke="midnightblue" d="M964.876,-158.797C988.636,-176.04 1029.2,-203.281 1068,-219 1077.39,-222.804 1087.69,-225.918 1097.77,-228.443"/>
<polygon fill="midnightblue" stroke="midnightblue" points="966.758,-155.837 956.631,-152.724 962.607,-161.473 966.758,-155.837"/>
</g>
<!-- Node25 -->
<g id="node25" class="node"><title>Node25</title>
<g id="a_node25"><a xlink:href="../../df/d1e/classbackend_1_1command_1_1_get_shape.html" target="_top" xlink:title="backend.command.GetShape">
<polygon fill="white" stroke="black" points="1074,-190.5 1074,-209.5 1234,-209.5 1234,-190.5 1074,-190.5"/>
<text text-anchor="middle" x="1154" y="-197.5" font-family="Helvetica,sans-Serif" font-size="10.00">backend.command.GetShape</text>
</a>
</g>
</g>
<!-- Node23&#45;&gt;Node25 -->
<g id="edge24" class="edge"><title>Node23&#45;&gt;Node25</title>
<path fill="none" stroke="midnightblue" d="M982.477,-155.633C1006.85,-163.426 1039.11,-173.357 1068,-181 1080.72,-184.365 1094.61,-187.637 1107.41,-190.491"/>
<polygon fill="midnightblue" stroke="midnightblue" points="983.472,-152.277 972.881,-152.545 981.328,-158.94 983.472,-152.277"/>
</g>
<!-- Node27 -->
<g id="node27" class="node"><title>Node27</title>
<g id="a_node27"><a xlink:href="../../d7/da5/classbackend_1_1command_1_1_heading.html" target="_top" xlink:title="backend.command.Heading">
<polygon fill="white" stroke="black" points="1078,-152.5 1078,-171.5 1230,-171.5 1230,-152.5 1078,-152.5"/>
<text text-anchor="middle" x="1154" y="-159.5" font-family="Helvetica,sans-Serif" font-size="10.00">backend.command.Heading</text>
</a>
</g>
</g>
<!-- Node23&#45;&gt;Node27 -->
<g id="edge26" class="edge"><title>Node23&#45;&gt;Node27</title>
<path fill="none" stroke="midnightblue" d="M1036.07,-151.37C1049.98,-152.635 1064.2,-153.927 1077.7,-155.155"/>
<polygon fill="midnightblue" stroke="midnightblue" points="1036.28,-147.875 1026,-150.455 1035.64,-154.846 1036.28,-147.875"/>
</g>
<!-- Node28 -->
<g id="node28" class="node"><title>Node28</title>
<g id="a_node28"><a xlink:href="../../d8/d32/classbackend_1_1command_1_1_is_pen_down.html" target="_top" xlink:title="backend.command.IsPenDown">
<polygon fill="white" stroke="black" points="1072,-114.5 1072,-133.5 1236,-133.5 1236,-114.5 1072,-114.5"/>
<text text-anchor="middle" x="1154" y="-121.5" font-family="Helvetica,sans-Serif" font-size="10.00">backend.command.IsPenDown</text>
</a>
</g>
</g>
<!-- Node23&#45;&gt;Node28 -->
<g id="edge27" class="edge"><title>Node23&#45;&gt;Node28</title>
<path fill="none" stroke="midnightblue" d="M1035.99,-134.637C1047.96,-133.549 1060.15,-132.441 1071.92,-131.371"/>
<polygon fill="midnightblue" stroke="midnightblue" points="1035.64,-131.154 1026,-135.545 1036.28,-138.125 1035.64,-131.154"/>
</g>
<!-- Node29 -->
<g id="node29" class="node"><title>Node29</title>
<g id="a_node29"><a xlink:href="../../df/d51/classbackend_1_1command_1_1_is_showing.html" target="_top" xlink:title="backend.command.IsShowing">
<polygon fill="white" stroke="black" points="1074.5,-76.5 1074.5,-95.5 1233.5,-95.5 1233.5,-76.5 1074.5,-76.5"/>
<text text-anchor="middle" x="1154" y="-83.5" font-family="Helvetica,sans-Serif" font-size="10.00">backend.command.IsShowing</text>
</a>
</g>
</g>
<!-- Node23&#45;&gt;Node29 -->
<g id="edge28" class="edge"><title>Node23&#45;&gt;Node29</title>
<path fill="none" stroke="midnightblue" d="M982.477,-130.367C1006.85,-122.574 1039.11,-112.643 1068,-105 1080.72,-101.635 1094.61,-98.3632 1107.41,-95.5093"/>
<polygon fill="midnightblue" stroke="midnightblue" points="981.328,-127.06 972.881,-133.455 983.472,-133.723 981.328,-127.06"/>
</g>
<!-- Node30 -->
<g id="node30" class="node"><title>Node30</title>
<g id="a_node30"><a xlink:href="../../d5/d68/classbackend_1_1command_1_1_x_coordinate.html" target="_top" xlink:title="backend.command.XCoordinate">
<polygon fill="white" stroke="black" points="1069,-38.5 1069,-57.5 1239,-57.5 1239,-38.5 1069,-38.5"/>
<text text-anchor="middle" x="1154" y="-45.5" font-family="Helvetica,sans-Serif" font-size="10.00">backend.command.XCoordinate</text>
</a>
</g>
</g>
<!-- Node23&#45;&gt;Node30 -->
<g id="edge29" class="edge"><title>Node23&#45;&gt;Node30</title>
<path fill="none" stroke="midnightblue" d="M964.876,-127.203C988.636,-109.96 1029.2,-82.7193 1068,-67 1077.39,-63.1962 1087.69,-60.0821 1097.77,-57.5571"/>
<polygon fill="midnightblue" stroke="midnightblue" points="962.607,-124.527 956.631,-133.276 966.758,-130.163 962.607,-124.527"/>
</g>
<!-- Node31 -->
<g id="node31" class="node"><title>Node31</title>
<g id="a_node31"><a xlink:href="../../d4/da7/classbackend_1_1command_1_1_y_coordinate.html" target="_top" xlink:title="backend.command.YCoordinate">
<polygon fill="white" stroke="black" points="1069.5,-0.5 1069.5,-19.5 1238.5,-19.5 1238.5,-0.5 1069.5,-0.5"/>
<text text-anchor="middle" x="1154" y="-7.5" font-family="Helvetica,sans-Serif" font-size="10.00">backend.command.YCoordinate</text>
</a>
</g>
</g>
<!-- Node23&#45;&gt;Node31 -->
<g id="edge30" class="edge"><title>Node23&#45;&gt;Node31</title>
<path fill="none" stroke="midnightblue" d="M958.033,-125.186C979.092,-99.7353 1021.4,-53.3574 1068,-29 1075.37,-25.1473 1083.5,-22.0731 1091.72,-19.6206"/>
<polygon fill="midnightblue" stroke="midnightblue" points="955.078,-123.274 951.498,-133.246 960.515,-127.683 955.078,-123.274"/>
</g>
<!-- Node26 -->
<g id="node26" class="node"><title>Node26</title>
<g id="a_node26"><a xlink:href="../../de/d8f/classbackend_1_1command_1_1_stamp.html" target="_top" xlink:title="backend.command.Stamp">
<polygon fill="white" stroke="black" points="1276,-190.5 1276,-209.5 1420,-209.5 1420,-190.5 1276,-190.5"/>
<text text-anchor="middle" x="1348" y="-197.5" font-family="Helvetica,sans-Serif" font-size="10.00">backend.command.Stamp</text>
</a>
</g>
</g>
<!-- Node25&#45;&gt;Node26 -->
<g id="edge25" class="edge"><title>Node25&#45;&gt;Node26</title>
<path fill="none" stroke="midnightblue" d="M1244.33,-200C1254.94,-200 1265.66,-200 1275.97,-200"/>
<polygon fill="midnightblue" stroke="midnightblue" points="1244.2,-196.5 1234.2,-200 1244.2,-203.5 1244.2,-196.5"/>
</g>
</g>
</svg>
