<?xml version="1.0" encoding="UTF-8" standalone="no"?>
<!DOCTYPE svg PUBLIC "-//W3C//DTD SVG 1.1//EN"
 "http://www.w3.org/Graphics/SVG/1.1/DTD/svg11.dtd">
<!-- Generated by graphviz version 2.36.0 (20140111.2315)
 -->
<!-- Title: backend.command.CommandFactory Pages: 1 -->
<!--zoomable 577 -->
<svg id="main" version="1.1" xmlns="http://www.w3.org/2000/svg" xmlns:xlink="http://www.w3.org/1999/xlink" xml:space="preserve" onload="init(evt)">
<style type="text/css"><![CDATA[
.edge:hover path { stroke: red; }
.edge:hover polygon { stroke: red; fill: red; }
]]></style>
<script type="text/javascript"><![CDATA[
var edges = document.getElementsByTagName('g');
if (edges && edges.length) {
  for (var i=0;i<edges.length;i++) {
    if (edges[i].id.substr(0,4)=='edge') {
      edges[i].setAttribute('class','edge');
    }
  }
}
]]></script>
        <defs>
                <circle id="rim" cx="0" cy="0" r="7"/>
                <circle id="rim2" cx="0" cy="0" r="3.5"/>
                <g id="zoomPlus">
                        <use xlink:href="#rim" fill="#404040">
                                <set attributeName="fill" to="#808080" begin="zoomplus.mouseover" end="zoomplus.mouseout"/>
                        </use>
                        <path d="M-4,0h8M0,-4v8" fill="none" stroke="white" stroke-width="1.5" pointer-events="none"/>
                </g>
                <g id="zoomMin">
                        <use xlink:href="#rim" fill="#404040">
                                <set attributeName="fill" to="#808080" begin="zoomminus.mouseover" end="zoomminus.mouseout"/>
                        </use>
                        <path d="M-4,0h8" fill="none" stroke="white" stroke-width="1.5" pointer-events="none"/>
                </g>
                <g id="dirArrow">
                        <path fill="none" stroke="white" stroke-width="1.5" d="M0,-3.0v7 M-2.5,-0.5L0,-3.0L2.5,-0.5"/>
                </g>
               <g id="resetDef">
                       <use xlink:href="#rim2" fill="#404040">
                               <set attributeName="fill" to="#808080" begin="reset.mouseover" end="reset.mouseout"/>
                       </use>
               </g>
        </defs>

<script type="text/javascript">
var viewWidth = 688;
var viewHeight = 577;
var sectionId = 'dynsection-0';
</script>
<script xlink:href="../../svgpan.js"/>
<svg id="graph" class="graph">
<g id="viewport">
<title>backend.command.CommandFactory</title>
<polygon fill="white" stroke="none" points="-4,4 -4,-573.383 684,-573.383 684,4 -4,4"/>
<!-- Node1 -->
<g id="node1" class="node"><title>Node1</title>
<polygon fill="#bfbfbf" stroke="black" points="0.5,-500.883 0.5,-519.883 197.5,-519.883 197.5,-500.883 0.5,-500.883"/>
<text text-anchor="middle" x="99" y="-507.883" font-family="Helvetica,sans-Serif" font-size="10.00">backend.command.CommandFactory</text>
</g>
<!-- Node2 -->
<g id="node2" class="node"><title>Node2</title>
<g id="a_node2"><a xlink:href="../../d3/dac/classbackend_1_1_model.html" target="_top" xlink:title="backend.Model">
<polygon fill="white" stroke="black" points="590.5,-340.883 590.5,-359.883 679.5,-359.883 679.5,-340.883 590.5,-340.883"/>
<text text-anchor="middle" x="635" y="-347.883" font-family="Helvetica,sans-Serif" font-size="10.00">backend.Model</text>
</a>
</g>
</g>
<!-- Node1&#45;&gt;Node2 -->
<g id="edge16" class="edge"><title>Node1&#45;&gt;Node2</title>
<path fill="none" stroke="#9a32cd" stroke-dasharray="5,2" d="M137.64,-522.996C225.499,-549.829 446.173,-601.779 572,-494.383 614.855,-457.806 628.943,-386.23 632.765,-360.171"/>
<polygon fill="#9a32cd" stroke="#9a32cd" points="138.431,-519.576 127.842,-519.938 136.345,-526.258 138.431,-519.576"/>
<text text-anchor="middle" x="374" y="-561.383" font-family="Helvetica,sans-Serif" font-size="10.00"> comFactory</text>
</g>
<!-- Node6 -->
<g id="node6" class="node"><title>Node6</title>
<g id="a_node6"><a xlink:href="../../da/d26/classbackend_1_1_s_logo_parser.html" target="_top" xlink:title="backend.SLogoParser">
<polygon fill="white" stroke="black" points="314,-316.883 314,-335.883 434,-335.883 434,-316.883 314,-316.883"/>
<text text-anchor="middle" x="374" y="-323.883" font-family="Helvetica,sans-Serif" font-size="10.00">backend.SLogoParser</text>
</a>
</g>
</g>
<!-- Node1&#45;&gt;Node6 -->
<g id="edge7" class="edge"><title>Node1&#45;&gt;Node6</title>
<path fill="none" stroke="#9a32cd" stroke-dasharray="5,2" d="M115.359,-493.243C146.439,-459.632 220.456,-384.913 298,-345.383 305.539,-341.54 313.91,-338.438 322.246,-335.945"/>
<polygon fill="#9a32cd" stroke="#9a32cd" points="112.565,-491.111 108.406,-500.856 117.734,-495.832 112.565,-491.111"/>
<text text-anchor="middle" x="248" y="-398.383" font-family="Helvetica,sans-Serif" font-size="10.00"> comFactory</text>
</g>
<!-- Node2&#45;&gt;Node1 -->
<g id="edge1" class="edge"><title>Node2&#45;&gt;Node1</title>
<path fill="none" stroke="#9a32cd" stroke-dasharray="5,2" d="M629.318,-370.044C621.937,-396.397 604.92,-442.503 572,-465.383 513.448,-506.08 317.97,-512.303 197.715,-512.074"/>
<polygon fill="#9a32cd" stroke="#9a32cd" points="632.779,-370.644 631.91,-360.085 626.004,-368.881 632.779,-370.644"/>
<text text-anchor="middle" x="374" y="-513.383" font-family="Helvetica,sans-Serif" font-size="10.00"> model</text>
</g>
<!-- Node3 -->
<g id="node3" class="node"><title>Node3</title>
<polygon fill="white" stroke="#bfbfbf" points="298.5,-443.383 298.5,-473.383 449.5,-473.383 449.5,-443.383 298.5,-443.383"/>
<text text-anchor="start" x="306.5" y="-461.383" font-family="Helvetica,sans-Serif" font-size="10.00">HashMap&lt; String, backend.</text>
<text text-anchor="middle" x="374" y="-450.383" font-family="Helvetica,sans-Serif" font-size="10.00">Variable &gt;</text>
</g>
<!-- Node3&#45;&gt;Node2 -->
<g id="edge2" class="edge"><title>Node3&#45;&gt;Node2</title>
<path fill="none" stroke="#9a32cd" stroke-dasharray="5,2" d="M460.017,-452.271C496.341,-446.809 538.089,-436.56 572,-417.383 597.383,-403.029 618.307,-374.697 628.069,-359.895"/>
<polygon fill="#9a32cd" stroke="#9a32cd" points="459.343,-448.831 449.927,-453.687 460.317,-455.763 459.343,-448.831"/>
<text text-anchor="middle" x="520" y="-453.383" font-family="Helvetica,sans-Serif" font-size="10.00"> userVariables</text>
</g>
<!-- Node4 -->
<g id="node4" class="node"><title>Node4</title>
<polygon fill="white" stroke="#bfbfbf" points="316,-404.883 316,-423.883 432,-423.883 432,-404.883 316,-404.883"/>
<text text-anchor="middle" x="374" y="-411.883" font-family="Helvetica,sans-Serif" font-size="10.00">Stack&lt; Command &gt;</text>
</g>
<!-- Node4&#45;&gt;Node2 -->
<g id="edge3" class="edge"><title>Node4&#45;&gt;Node2</title>
<path fill="none" stroke="#9a32cd" stroke-dasharray="5,2" d="M442.419,-406.211C480.93,-400.519 529.803,-391.551 572,-378.383 587.333,-373.599 603.873,-365.995 616.01,-359.919"/>
<polygon fill="#9a32cd" stroke="#9a32cd" points="441.755,-402.77 432.356,-407.659 442.752,-409.699 441.755,-402.77"/>
<text text-anchor="middle" x="520" y="-405.383" font-family="Helvetica,sans-Serif" font-size="10.00"> executedCommands</text>
</g>
<!-- Node5 -->
<g id="node5" class="node"><title>Node5</title>
<polygon fill="white" stroke="#bfbfbf" points="298.5,-355.383 298.5,-385.383 449.5,-385.383 449.5,-355.383 298.5,-355.383"/>
<text text-anchor="start" x="306.5" y="-373.383" font-family="Helvetica,sans-Serif" font-size="10.00">HashMap&lt; String, backend.</text>
<text text-anchor="middle" x="374" y="-362.383" font-family="Helvetica,sans-Serif" font-size="10.00">UserInstructionContainer &gt;</text>
</g>
<!-- Node5&#45;&gt;Node2 -->
<g id="edge4" class="edge"><title>Node5&#45;&gt;Node2</title>
<path fill="none" stroke="#9a32cd" stroke-dasharray="5,2" d="M459.611,-363.85C503.248,-360.48 554.646,-356.511 590.287,-353.759"/>
<polygon fill="#9a32cd" stroke="#9a32cd" points="459.267,-360.366 449.566,-364.625 459.806,-367.345 459.267,-360.366"/>
<text text-anchor="middle" x="520" y="-366.383" font-family="Helvetica,sans-Serif" font-size="10.00"> userInstructions</text>
</g>
<!-- Node6&#45;&gt;Node2 -->
<g id="edge5" class="edge"><title>Node6&#45;&gt;Node2</title>
<path fill="none" stroke="#9a32cd" stroke-dasharray="5,2" d="M444.562,-329.814C482.337,-332.057 529.815,-335.492 572,-340.383 577.957,-341.074 584.216,-341.93 590.372,-342.847"/>
<polygon fill="#9a32cd" stroke="#9a32cd" points="444.363,-326.296 434.177,-329.212 443.958,-333.285 444.363,-326.296"/>
<text text-anchor="middle" x="520" y="-343.383" font-family="Helvetica,sans-Serif" font-size="10.00"> parser</text>
</g>
<!-- Node7 -->
<g id="node7" class="node"><title>Node7</title>
<polygon fill="white" stroke="#bfbfbf" points="43,-311.383 43,-341.383 155,-341.383 155,-311.383 43,-311.383"/>
<text text-anchor="start" x="51" y="-329.383" font-family="Helvetica,sans-Serif" font-size="10.00">List&lt; Entry&lt; String,</text>
<text text-anchor="middle" x="99" y="-318.383" font-family="Helvetica,sans-Serif" font-size="10.00"> Pattern &gt; &gt;</text>
</g>
<!-- Node7&#45;&gt;Node6 -->
<g id="edge6" class="edge"><title>Node7&#45;&gt;Node6</title>
<path fill="none" stroke="#9a32cd" stroke-dasharray="5,2" d="M165.499,-326.383C210.549,-326.383 269.897,-326.383 313.579,-326.383"/>
<polygon fill="#9a32cd" stroke="#9a32cd" points="165.246,-322.884 155.246,-326.383 165.246,-329.884 165.246,-322.884"/>
<text text-anchor="middle" x="248" y="-329.383" font-family="Helvetica,sans-Serif" font-size="10.00"> patterns</text>
</g>
<!-- Node8 -->
<g id="node8" class="node"><title>Node8</title>
<g id="a_node8"><a xlink:href="../../d1/d68/classbackend_1_1_grid.html" target="_top" xlink:title="backend.Grid">
<polygon fill="white" stroke="black" points="334,-183.883 334,-202.883 414,-202.883 414,-183.883 334,-183.883"/>
<text text-anchor="middle" x="374" y="-190.883" font-family="Helvetica,sans-Serif" font-size="10.00">backend.Grid</text>
</a>
</g>
</g>
<!-- Node8&#45;&gt;Node2 -->
<g id="edge8" class="edge"><title>Node8&#45;&gt;Node2</title>
<path fill="none" stroke="#9a32cd" stroke-dasharray="5,2" d="M424.117,-201.802C466.605,-211.012 527.964,-229.118 572,-262.383 600.631,-284.012 621.191,-322.698 629.681,-340.689"/>
<polygon fill="#9a32cd" stroke="#9a32cd" points="424.784,-198.366 414.28,-199.755 423.358,-205.219 424.784,-198.366"/>
<text text-anchor="middle" x="520" y="-265.383" font-family="Helvetica,sans-Serif" font-size="10.00"> grid</text>
</g>
<!-- Node9 -->
<g id="node9" class="node"><title>Node9</title>
<polygon fill="white" stroke="#bfbfbf" points="78.5,-98.8835 78.5,-117.883 119.5,-117.883 119.5,-98.8835 78.5,-98.8835"/>
<text text-anchor="middle" x="99" y="-105.883" font-family="Helvetica,sans-Serif" font-size="10.00">Color</text>
</g>
<!-- Node9&#45;&gt;Node8 -->
<g id="edge9" class="edge"><title>Node9&#45;&gt;Node8</title>
<path fill="none" stroke="#9a32cd" stroke-dasharray="5,2" d="M129.854,-112.987C149.406,-116.292 175.425,-121.24 198,-127.383 254.866,-142.86 319.063,-169.567 351.612,-183.8"/>
<polygon fill="#9a32cd" stroke="#9a32cd" points="130.155,-109.49 119.72,-111.323 129.021,-116.397 130.155,-109.49"/>
<text text-anchor="middle" x="248" y="-156.383" font-family="Helvetica,sans-Serif" font-size="10.00"> bgColor</text>
</g>
<!-- Node10 -->
<g id="node10" class="node"><title>Node10</title>
<g id="a_node10"><a xlink:href="../../df/d77/classbackend_1_1_bi_index.html" target="_top" xlink:title="backend.BiIndex\&lt; String \&gt;">
<polygon fill="white" stroke="black" points="26,-266.883 26,-285.883 172,-285.883 172,-266.883 26,-266.883"/>
<text text-anchor="middle" x="99" y="-273.883" font-family="Helvetica,sans-Serif" font-size="10.00">backend.BiIndex&lt; String &gt;</text>
</a>
</g>
</g>
<!-- Node10&#45;&gt;Node2 -->
<g id="edge15" class="edge"><title>Node10&#45;&gt;Node2</title>
<path fill="none" stroke="#9a32cd" stroke-dasharray="5,2" d="M182.427,-276.473C253.667,-277.648 359.182,-282.025 450,-296.383 508.368,-305.611 574.253,-328.003 609.172,-340.868"/>
<polygon fill="#9a32cd" stroke="#9a32cd" points="182.221,-272.969 172.171,-276.322 182.118,-279.969 182.221,-272.969"/>
<text text-anchor="middle" x="374" y="-299.383" font-family="Helvetica,sans-Serif" font-size="10.00"> imageMap</text>
</g>
<!-- Node10&#45;&gt;Node8 -->
<g id="edge10" class="edge"><title>Node10&#45;&gt;Node8</title>
<path fill="none" stroke="#9a32cd" stroke-dasharray="5,2" d="M156.616,-264.675C192.406,-256.675 239.402,-245.063 280,-231.383 305.123,-222.918 333.199,-211.109 351.864,-202.911"/>
<polygon fill="#9a32cd" stroke="#9a32cd" points="155.843,-261.261 146.833,-266.834 157.352,-268.096 155.843,-261.261"/>
<text text-anchor="middle" x="248" y="-253.383" font-family="Helvetica,sans-Serif" font-size="10.00"> imageMap</text>
</g>
<!-- Node11 -->
<g id="node11" class="node"><title>Node11</title>
<polygon fill="white" stroke="#bfbfbf" points="24,-224.883 24,-243.883 174,-243.883 174,-224.883 24,-224.883"/>
<text text-anchor="middle" x="99" y="-231.883" font-family="Helvetica,sans-Serif" font-size="10.00">ArrayList&lt; backend.Turtle &gt;</text>
</g>
<!-- Node11&#45;&gt;Node8 -->
<g id="edge11" class="edge"><title>Node11&#45;&gt;Node8</title>
<path fill="none" stroke="#9a32cd" stroke-dasharray="5,2" d="M173.411,-223.358C224.966,-215.616 291.912,-205.561 333.668,-199.29"/>
<polygon fill="#9a32cd" stroke="#9a32cd" points="172.687,-219.928 163.318,-224.874 173.727,-226.85 172.687,-219.928"/>
<text text-anchor="middle" x="248" y="-219.383" font-family="Helvetica,sans-Serif" font-size="10.00"> activeTurtles</text>
</g>
<!-- Node12 -->
<g id="node12" class="node"><title>Node12</title>
<polygon fill="white" stroke="#bfbfbf" points="65,-186.883 65,-205.883 133,-205.883 133,-186.883 65,-186.883"/>
<text text-anchor="middle" x="99" y="-193.883" font-family="Helvetica,sans-Serif" font-size="10.00">Dimension</text>
</g>
<!-- Node12&#45;&gt;Node8 -->
<g id="edge12" class="edge"><title>Node12&#45;&gt;Node8</title>
<path fill="none" stroke="#9a32cd" stroke-dasharray="5,2" d="M143.502,-195.521C165.272,-195.119 192.028,-194.666 216,-194.383 256.202,-193.909 302.197,-193.649 333.964,-193.514"/>
<polygon fill="#9a32cd" stroke="#9a32cd" points="143.182,-192.027 133.25,-195.714 143.314,-199.026 143.182,-192.027"/>
<text text-anchor="middle" x="248" y="-197.383" font-family="Helvetica,sans-Serif" font-size="10.00"> size</text>
</g>
<!-- Node13 -->
<g id="node13" class="node"><title>Node13</title>
<polygon fill="white" stroke="#bfbfbf" points="21,-137.383 21,-167.383 177,-167.383 177,-137.383 21,-137.383"/>
<text text-anchor="start" x="29" y="-155.383" font-family="Helvetica,sans-Serif" font-size="10.00">HashMap&lt; Integer, backend.</text>
<text text-anchor="middle" x="99" y="-144.383" font-family="Helvetica,sans-Serif" font-size="10.00">Turtle &gt;</text>
</g>
<!-- Node13&#45;&gt;Node8 -->
<g id="edge13" class="edge"><title>Node13&#45;&gt;Node8</title>
<path fill="none" stroke="#9a32cd" stroke-dasharray="5,2" d="M187.335,-165.474C216.772,-169.889 249.811,-174.847 280,-179.383 297.6,-182.028 317.072,-184.959 333.632,-187.452"/>
<polygon fill="#9a32cd" stroke="#9a32cd" points="187.491,-161.959 177.083,-163.937 186.453,-168.881 187.491,-161.959"/>
<text text-anchor="middle" x="248" y="-182.383" font-family="Helvetica,sans-Serif" font-size="10.00"> allTurtles</text>
</g>
<!-- Node14 -->
<g id="node14" class="node"><title>Node14</title>
<g id="a_node14"><a xlink:href="../../df/d77/classbackend_1_1_bi_index.html" target="_top" xlink:title="backend.BiIndex\&lt; Color \&gt;">
<polygon fill="white" stroke="black" points="28,-56.8835 28,-75.8835 170,-75.8835 170,-56.8835 28,-56.8835"/>
<text text-anchor="middle" x="99" y="-63.8835" font-family="Helvetica,sans-Serif" font-size="10.00">backend.BiIndex&lt; Color &gt;</text>
</a>
</g>
</g>
<!-- Node14&#45;&gt;Node2 -->
<g id="edge18" class="edge"><title>Node14&#45;&gt;Node2</title>
<path fill="none" stroke="#9a32cd" stroke-dasharray="5,2" d="M180.248,-69.0493C284.297,-76.8216 465.064,-105.684 572,-210.383 611.128,-248.693 627.431,-316.001 632.306,-340.832"/>
<polygon fill="#9a32cd" stroke="#9a32cd" points="180.334,-65.5469 170.114,-68.341 179.846,-72.5299 180.334,-65.5469"/>
<text text-anchor="middle" x="374" y="-133.383" font-family="Helvetica,sans-Serif" font-size="10.00"> colorMap</text>
</g>
<!-- Node14&#45;&gt;Node8 -->
<g id="edge14" class="edge"><title>Node14&#45;&gt;Node8</title>
<path fill="none" stroke="#9a32cd" stroke-dasharray="5,2" d="M167.096,-78.1357C202.241,-86.137 245.105,-98.8968 280,-118.383 313.684,-137.194 347.515,-168.262 363.498,-183.847"/>
<polygon fill="#9a32cd" stroke="#9a32cd" points="167.447,-74.6294 156.929,-75.9034 165.946,-81.4666 167.447,-74.6294"/>
<text text-anchor="middle" x="248" y="-121.383" font-family="Helvetica,sans-Serif" font-size="10.00"> colorMap</text>
</g>
<!-- Node15 -->
<g id="node15" class="node"><title>Node15</title>
<polygon fill="white" stroke="#bfbfbf" points="313.5,-2.88346 313.5,-21.8835 434.5,-21.8835 434.5,-2.88346 313.5,-2.88346"/>
<text text-anchor="middle" x="374" y="-9.88346" font-family="Helvetica,sans-Serif" font-size="10.00">Queue&lt; Command &gt;</text>
</g>
<!-- Node15&#45;&gt;Node2 -->
<g id="edge17" class="edge"><title>Node15&#45;&gt;Node2</title>
<path fill="none" stroke="#9a32cd" stroke-dasharray="5,2" d="M434.199,-1.70386C477.753,2.54343 535.499,0.0741649 572,-33.3835 618.919,-76.3909 631.379,-292.375 633.6,-340.757"/>
<polygon fill="#9a32cd" stroke="#9a32cd" points="433.565,1.74715 424.016,-2.84236 434.343,-5.20951 433.565,1.74715"/>
<text text-anchor="middle" x="520" y="-36.3835" font-family="Helvetica,sans-Serif" font-size="10.00"> pendingCommands</text>
</g>
</g>
</svg>
        <g id="navigator" transform="translate(0 0)" fill="#404254">
                <rect fill="#f2f5e9" fill-opacity="0.5" stroke="#606060" stroke-width=".5" x="0" y="0" width="60" height="60"/>
                <use id="zoomplus" xlink:href="#zoomPlus" x="17" y="9" onmousedown="handleZoom(evt,'in')"/>
                <use id="zoomminus" xlink:href="#zoomMin" x="42" y="9" onmousedown="handleZoom(evt,'out')"/>
                <use id="reset" xlink:href="#resetDef" x="30" y="36" onmousedown="handleReset()"/>
                <g id="arrowUp" xlink:href="#dirArrow" transform="translate(30 24)" onmousedown="handlePan(0,-1)">
                  <use xlink:href="#rim" fill="#404040">
                        <set attributeName="fill" to="#808080" begin="arrowUp.mouseover" end="arrowUp.mouseout"/>
                  </use>
                  <path fill="none" stroke="white" stroke-width="1.5" d="M0,-3.0v7 M-2.5,-0.5L0,-3.0L2.5,-0.5"/>
                </g>
                <g id="arrowRight" xlink:href="#dirArrow" transform="rotate(90) translate(36 -43)" onmousedown="handlePan(1,0)">
                  <use xlink:href="#rim" fill="#404040">
                        <set attributeName="fill" to="#808080" begin="arrowRight.mouseover" end="arrowRight.mouseout"/>
                  </use>
                  <path fill="none" stroke="white" stroke-width="1.5" d="M0,-3.0v7 M-2.5,-0.5L0,-3.0L2.5,-0.5"/>
                </g>
                <g id="arrowDown" xlink:href="#dirArrow" transform="rotate(180) translate(-30 -48)" onmousedown="handlePan(0,1)">
                  <use xlink:href="#rim" fill="#404040">
                        <set attributeName="fill" to="#808080" begin="arrowDown.mouseover" end="arrowDown.mouseout"/>
                  </use>
                  <path fill="none" stroke="white" stroke-width="1.5" d="M0,-3.0v7 M-2.5,-0.5L0,-3.0L2.5,-0.5"/>
                </g>
                <g id="arrowLeft" xlink:href="#dirArrow" transform="rotate(270) translate(-36 17)" onmousedown="handlePan(-1,0)">
                  <use xlink:href="#rim" fill="#404040">
                        <set attributeName="fill" to="#808080" begin="arrowLeft.mouseover" end="arrowLeft.mouseout"/>
                  </use>
                  <path fill="none" stroke="white" stroke-width="1.5" d="M0,-3.0v7 M-2.5,-0.5L0,-3.0L2.5,-0.5"/>
                </g>
        </g>
        <svg viewBox="0 0 15 15" width="100%" height="30px" preserveAspectRatio="xMaxYMin meet">
         <g id="arrow_out" transform="scale(0.3 0.3)">
          <a xlink:href="classbackend_1_1command_1_1_command_factory__coll__graph_org.svg" target="_base">
           <rect id="button" ry="5" rx="5" y="6" x="6" height="38" width="38"
                fill="#f2f5e9" fill-opacity="0.5" stroke="#606060" stroke-width="1.0"/>
           <path id="arrow"
             d="M 11.500037,31.436501 C 11.940474,20.09759 22.043105,11.32322 32.158766,21.979434 L 37.068811,17.246167 C 37.068811,17.246167 37.088388,32 37.088388,32 L 22.160133,31.978069 C 22.160133,31.978069 26.997745,27.140456 26.997745,27.140456 C 18.528582,18.264221 13.291696,25.230495 11.500037,31.436501 z"
             style="fill:#404040;"/>
          </a>
         </g>
        </svg>
</svg>
