<?xml version="1.0" encoding="UTF-8" standalone="no"?>
<!DOCTYPE svg PUBLIC "-//W3C//DTD SVG 1.1//EN"
 "http://www.w3.org/Graphics/SVG/1.1/DTD/svg11.dtd">
<!-- Generated by graphviz version 2.36.0 (20140111.2315)
 -->
<!-- Title: backend.command.DoTimes.end Pages: 1 -->
<svg width="642pt" height="82pt"
 viewBox="0.00 0.00 642.00 82.00" xmlns="http://www.w3.org/2000/svg" xmlns:xlink="http://www.w3.org/1999/xlink">
<g id="graph0" class="graph" transform="scale(1 1) rotate(0) translate(4 78)">
<title>backend.command.DoTimes.end</title>
<polygon fill="white" stroke="none" points="-4,4 -4,-78 638,-78 638,4 -4,4"/>
<!-- Node1 -->
<g id="node1" class="node"><title>Node1</title>
<polygon fill="#bfbfbf" stroke="black" points="0.5,-27.5 0.5,-46.5 175.5,-46.5 175.5,-27.5 0.5,-27.5"/>
<text text-anchor="middle" x="88" y="-34.5" font-family="Helvetica,sans-Serif" font-size="10.00">backend.command.DoTimes.end</text>
</g>
<!-- Node2 -->
<g id="node2" class="node"><title>Node2</title>
<g id="a_node2"><a xlink:href="../../dc/d83/classbackend_1_1command_1_1_command.html#ae218516ae55b1b0d4820d55c901793ea" target="_top" xlink:title="backend.command.Command.execute\lParam">
<polygon fill="white" stroke="black" points="212.5,-44 212.5,-74 415.5,-74 415.5,-44 212.5,-44"/>
<text text-anchor="start" x="220.5" y="-62" font-family="Helvetica,sans-Serif" font-size="10.00">backend.command.Command.execute</text>
<text text-anchor="middle" x="314" y="-51" font-family="Helvetica,sans-Serif" font-size="10.00">Param</text>
</a>
</g>
</g>
<!-- Node1&#45;&gt;Node2 -->
<g id="edge1" class="edge"><title>Node1&#45;&gt;Node2</title>
<path fill="none" stroke="midnightblue" d="M175.604,-45.5058C184.37,-46.3667 193.355,-47.2492 202.329,-48.1305"/>
<polygon fill="midnightblue" stroke="midnightblue" points="202.149,-51.6296 212.444,-49.1239 202.834,-44.6631 202.149,-51.6296"/>
</g>
<!-- Node3 -->
<g id="node3" class="node"><title>Node3</title>
<g id="a_node3"><a xlink:href="../../de/d1a/classbackend_1_1command_1_1_for.html#abf257ca6f2249bf7a47998beec1ac0cc" target="_top" xlink:title="backend.command.For.forVarList">
<polygon fill="white" stroke="black" points="227,-5.5 227,-24.5 401,-24.5 401,-5.5 227,-5.5"/>
<text text-anchor="middle" x="314" y="-12.5" font-family="Helvetica,sans-Serif" font-size="10.00">backend.command.For.forVarList</text>
</a>
</g>
</g>
<!-- Node1&#45;&gt;Node3 -->
<g id="edge2" class="edge"><title>Node1&#45;&gt;Node3</title>
<path fill="none" stroke="midnightblue" d="M175.604,-28.4942C189.176,-27.1612 203.274,-25.7767 217.041,-24.4245"/>
<polygon fill="midnightblue" stroke="midnightblue" points="217.385,-27.9077 226.995,-23.4469 216.701,-20.9412 217.385,-27.9077"/>
</g>
<!-- Node4 -->
<g id="node4" class="node"><title>Node4</title>
<g id="a_node4"><a xlink:href="../../dc/d83/classbackend_1_1command_1_1_command.html#a606032e5ef26d465113f65e6e3c09bef" target="_top" xlink:title="backend.command.Command.get\lParam">
<polygon fill="white" stroke="black" points="452.5,-0 452.5,-30 633.5,-30 633.5,-0 452.5,-0"/>
<text text-anchor="start" x="460.5" y="-18" font-family="Helvetica,sans-Serif" font-size="10.00">backend.command.Command.get</text>
<text text-anchor="middle" x="543" y="-7" font-family="Helvetica,sans-Serif" font-size="10.00">Param</text>
</a>
</g>
</g>
<!-- Node3&#45;&gt;Node4 -->
<g id="edge3" class="edge"><title>Node3&#45;&gt;Node4</title>
<path fill="none" stroke="midnightblue" d="M401.143,-15C414.436,-15 428.261,-15 441.828,-15"/>
<polygon fill="midnightblue" stroke="midnightblue" points="442.14,-18.5001 452.14,-15 442.14,-11.5001 442.14,-18.5001"/>
</g>
</g>
</svg>
