<?xml version="1.0" encoding="UTF-8" standalone="no"?>
<!DOCTYPE svg PUBLIC "-//W3C//DTD SVG 1.1//EN"
 "http://www.w3.org/Graphics/SVG/1.1/DTD/svg11.dtd">
<!-- Generated by graphviz version 2.36.0 (20140111.2315)
 -->
<!-- Title: backend.command.SetBackground.execute Pages: 1 -->
<svg width="960pt" height="167pt"
 viewBox="0.00 0.00 960.00 167.00" xmlns="http://www.w3.org/2000/svg" xmlns:xlink="http://www.w3.org/1999/xlink">
<g id="graph0" class="graph" transform="scale(1 1) rotate(0) translate(4 163)">
<title>backend.command.SetBackground.execute</title>
<polygon fill="white" stroke="none" points="-4,4 -4,-163 956,-163 956,4 -4,4"/>
<!-- Node1 -->
<g id="node1" class="node"><title>Node1</title>
<polygon fill="#bfbfbf" stroke="black" points="0.5,-68.5 0.5,-87.5 227.5,-87.5 227.5,-68.5 0.5,-68.5"/>
<text text-anchor="middle" x="114" y="-75.5" font-family="Helvetica,sans-Serif" font-size="10.00">backend.command.SetBackground.execute</text>
</g>
<!-- Node2 -->
<g id="node2" class="node"><title>Node2</title>
<g id="a_node2"><a xlink:href="../../dc/d83/classbackend_1_1command_1_1_command.html#a7e08258fd275e150b04b6a7745f5d6c9" target="_top" xlink:title="backend.command.Command.get\lParamReturnVal">
<polygon fill="white" stroke="black" points="286.5,-129 286.5,-159 467.5,-159 467.5,-129 286.5,-129"/>
<text text-anchor="start" x="294.5" y="-147" font-family="Helvetica,sans-Serif" font-size="10.00">backend.command.Command.get</text>
<text text-anchor="middle" x="377" y="-136" font-family="Helvetica,sans-Serif" font-size="10.00">ParamReturnVal</text>
</a>
</g>
</g>
<!-- Node1&#45;&gt;Node2 -->
<g id="edge1" class="edge"><title>Node1&#45;&gt;Node2</title>
<path fill="none" stroke="midnightblue" d="M147.726,-87.5008C177.834,-96.1235 223.777,-108.983 264,-119 274.435,-121.599 285.449,-124.213 296.333,-126.721"/>
<polygon fill="midnightblue" stroke="midnightblue" points="295.744,-130.176 306.273,-128.99 297.303,-123.352 295.744,-130.176"/>
</g>
<!-- Node4 -->
<g id="node4" class="node"><title>Node4</title>
<g id="a_node4"><a xlink:href="../../dc/d67/classbackend_1_1command_1_1_model_command.html#ab57d058d26b965a9038487f69f40c066" target="_top" xlink:title="backend.command.ModelCommand.grid">
<polygon fill="white" stroke="black" points="271,-90.5 271,-109.5 483,-109.5 483,-90.5 271,-90.5"/>
<text text-anchor="middle" x="377" y="-97.5" font-family="Helvetica,sans-Serif" font-size="10.00">backend.command.ModelCommand.grid</text>
</a>
</g>
</g>
<!-- Node1&#45;&gt;Node4 -->
<g id="edge3" class="edge"><title>Node1&#45;&gt;Node4</title>
<path fill="none" stroke="midnightblue" d="M227.581,-87.4896C238.567,-88.4156 249.725,-89.3562 260.737,-90.2843"/>
<polygon fill="midnightblue" stroke="midnightblue" points="260.541,-93.7801 270.799,-91.1325 261.129,-86.8048 260.541,-93.7801"/>
</g>
<!-- Node6 -->
<g id="node6" class="node"><title>Node6</title>
<g id="a_node6"><a xlink:href="../../dc/d67/classbackend_1_1command_1_1_model_command.html#ab1aeefecd317fb74afe685c140d17c55" target="_top" xlink:title="backend.command.ModelCommand.param\lToColor">
<polygon fill="white" stroke="black" points="264.5,-41 264.5,-71 489.5,-71 489.5,-41 264.5,-41"/>
<text text-anchor="start" x="272.5" y="-59" font-family="Helvetica,sans-Serif" font-size="10.00">backend.command.ModelCommand.param</text>
<text text-anchor="middle" x="377" y="-48" font-family="Helvetica,sans-Serif" font-size="10.00">ToColor</text>
</a>
</g>
</g>
<!-- Node1&#45;&gt;Node6 -->
<g id="edge5" class="edge"><title>Node1&#45;&gt;Node6</title>
<path fill="none" stroke="midnightblue" d="M227.581,-68.5104C236.403,-67.7668 245.335,-67.0139 254.214,-66.2655"/>
<polygon fill="midnightblue" stroke="midnightblue" points="254.536,-69.7509 264.206,-65.4232 253.948,-62.7756 254.536,-69.7509"/>
</g>
<!-- Node10 -->
<g id="node10" class="node"><title>Node10</title>
<g id="a_node10"><a xlink:href="../../d1/d68/classbackend_1_1_grid.html#af06e934cea64d0c5a1bbb6ddffa88b69" target="_top" xlink:title="backend.Grid.setBGColor">
<polygon fill="white" stroke="black" points="308.5,-2.5 308.5,-21.5 445.5,-21.5 445.5,-2.5 308.5,-2.5"/>
<text text-anchor="middle" x="377" y="-9.5" font-family="Helvetica,sans-Serif" font-size="10.00">backend.Grid.setBGColor</text>
</a>
</g>
</g>
<!-- Node1&#45;&gt;Node10 -->
<g id="edge9" class="edge"><title>Node1&#45;&gt;Node10</title>
<path fill="none" stroke="midnightblue" d="M141.337,-68.48C170.873,-58.0891 220.362,-41.5311 264,-31 275.683,-28.1806 288.15,-25.6269 300.366,-23.3721"/>
<polygon fill="midnightblue" stroke="midnightblue" points="301.319,-26.7571 310.545,-21.5491 300.085,-19.8668 301.319,-26.7571"/>
</g>
<!-- Node3 -->
<g id="node3" class="node"><title>Node3</title>
<g id="a_node3"><a xlink:href="../../dc/d83/classbackend_1_1command_1_1_command.html#a606032e5ef26d465113f65e6e3c09bef" target="_top" xlink:title="backend.command.Command.get\lParam">
<polygon fill="white" stroke="black" points="554.5,-129 554.5,-159 735.5,-159 735.5,-129 554.5,-129"/>
<text text-anchor="start" x="562.5" y="-147" font-family="Helvetica,sans-Serif" font-size="10.00">backend.command.Command.get</text>
<text text-anchor="middle" x="645" y="-136" font-family="Helvetica,sans-Serif" font-size="10.00">Param</text>
</a>
</g>
</g>
<!-- Node2&#45;&gt;Node3 -->
<g id="edge2" class="edge"><title>Node2&#45;&gt;Node3</title>
<path fill="none" stroke="midnightblue" d="M467.685,-144C492.208,-144 518.938,-144 543.999,-144"/>
<polygon fill="midnightblue" stroke="midnightblue" points="544.252,-147.5 554.252,-144 544.252,-140.5 544.252,-147.5"/>
</g>
<!-- Node5 -->
<g id="node5" class="node"><title>Node5</title>
<g id="a_node5"><a xlink:href="../../d3/dac/classbackend_1_1_model.html#a341c789b1a3e0bf796fb626603928e95" target="_top" xlink:title="backend.Model.getGrid">
<polygon fill="white" stroke="black" points="581.5,-90.5 581.5,-109.5 708.5,-109.5 708.5,-90.5 581.5,-90.5"/>
<text text-anchor="middle" x="645" y="-97.5" font-family="Helvetica,sans-Serif" font-size="10.00">backend.Model.getGrid</text>
</a>
</g>
</g>
<!-- Node4&#45;&gt;Node5 -->
<g id="edge4" class="edge"><title>Node4&#45;&gt;Node5</title>
<path fill="none" stroke="midnightblue" d="M483.13,-100C512.618,-100 544.019,-100 571.178,-100"/>
<polygon fill="midnightblue" stroke="midnightblue" points="571.367,-103.5 581.367,-100 571.367,-96.5001 571.367,-103.5"/>
</g>
<!-- Node7 -->
<g id="node7" class="node"><title>Node7</title>
<g id="a_node7"><a xlink:href="../../dc/d67/classbackend_1_1command_1_1_model_command.html#aa459b6ae4744fa0705aa08b95f7d9b0f" target="_top" xlink:title="backend.command.ModelCommand.colorMap">
<polygon fill="white" stroke="black" points="526.5,-49.5 526.5,-68.5 763.5,-68.5 763.5,-49.5 526.5,-49.5"/>
<text text-anchor="middle" x="645" y="-56.5" font-family="Helvetica,sans-Serif" font-size="10.00">backend.command.ModelCommand.colorMap</text>
</a>
</g>
</g>
<!-- Node6&#45;&gt;Node7 -->
<g id="edge6" class="edge"><title>Node6&#45;&gt;Node7</title>
<path fill="none" stroke="midnightblue" d="M489.652,-57.2592C498.432,-57.3583 507.34,-57.4587 516.217,-57.5588"/>
<polygon fill="midnightblue" stroke="midnightblue" points="516.179,-61.0585 526.218,-57.6716 516.258,-54.059 516.179,-61.0585"/>
</g>
<!-- Node9 -->
<g id="node9" class="node"><title>Node9</title>
<g id="a_node9"><a xlink:href="../../dc/d83/classbackend_1_1command_1_1_command.html#ae218516ae55b1b0d4820d55c901793ea" target="_top" xlink:title="backend.command.Command.execute\lParam">
<polygon fill="white" stroke="black" points="543.5,-0 543.5,-30 746.5,-30 746.5,-0 543.5,-0"/>
<text text-anchor="start" x="551.5" y="-18" font-family="Helvetica,sans-Serif" font-size="10.00">backend.command.Command.execute</text>
<text text-anchor="middle" x="645" y="-7" font-family="Helvetica,sans-Serif" font-size="10.00">Param</text>
</a>
</g>
</g>
<!-- Node6&#45;&gt;Node9 -->
<g id="edge8" class="edge"><title>Node6&#45;&gt;Node9</title>
<path fill="none" stroke="midnightblue" d="M475.538,-40.9659C495.326,-37.916 516.243,-34.6918 536.357,-31.5916"/>
<polygon fill="midnightblue" stroke="midnightblue" points="537.124,-35.0149 546.474,-30.0323 536.057,-28.0966 537.124,-35.0149"/>
</g>
<!-- Node8 -->
<g id="node8" class="node"><title>Node8</title>
<g id="a_node8"><a xlink:href="../../d3/dac/classbackend_1_1_model.html#ae02bd05f40dd7ecd9be30847d70faf89" target="_top" xlink:title="backend.Model.getColorMap">
<polygon fill="white" stroke="black" points="800,-49.5 800,-68.5 952,-68.5 952,-49.5 800,-49.5"/>
<text text-anchor="middle" x="876" y="-56.5" font-family="Helvetica,sans-Serif" font-size="10.00">backend.Model.getColorMap</text>
</a>
</g>
</g>
<!-- Node7&#45;&gt;Node8 -->
<g id="edge7" class="edge"><title>Node7&#45;&gt;Node8</title>
<path fill="none" stroke="midnightblue" d="M763.519,-59C772.263,-59 780.984,-59 789.477,-59"/>
<polygon fill="midnightblue" stroke="midnightblue" points="789.71,-62.5001 799.71,-59 789.71,-55.5001 789.71,-62.5001"/>
</g>
</g>
</svg>
