<?xml version="1.0" encoding="UTF-8" standalone="no"?>
<!DOCTYPE svg PUBLIC "-//W3C//DTD SVG 1.1//EN"
 "http://www.w3.org/Graphics/SVG/1.1/DTD/svg11.dtd">
<!-- Generated by graphviz version 2.36.0 (20140111.2315)
 -->
<!-- Title: backend.command.CommandList.executeList Pages: 1 -->
<svg width="722pt" height="38pt"
 viewBox="0.00 0.00 722.00 38.00" xmlns="http://www.w3.org/2000/svg" xmlns:xlink="http://www.w3.org/1999/xlink">
<g id="graph0" class="graph" transform="scale(1 1) rotate(0) translate(4 34)">
<title>backend.command.CommandList.executeList</title>
<polygon fill="white" stroke="none" points="-4,4 -4,-34 718,-34 718,4 -4,4"/>
<!-- Node1 -->
<g id="node1" class="node"><title>Node1</title>
<polygon fill="#bfbfbf" stroke="black" points="0,-5.5 0,-24.5 236,-24.5 236,-5.5 0,-5.5"/>
<text text-anchor="middle" x="118" y="-12.5" font-family="Helvetica,sans-Serif" font-size="10.00">backend.command.CommandList.executeList</text>
</g>
<!-- Node2 -->
<g id="node2" class="node"><title>Node2</title>
<g id="a_node2"><a xlink:href="../../d5/d3e/classbackend_1_1command_1_1_command_list.html#ae5beded9a63a3c832a596cee8177a6d1" target="_top" xlink:title="backend.command.CommandList.execute">
<polygon fill="white" stroke="black" points="272,-5.5 272,-24.5 492,-24.5 492,-5.5 272,-5.5"/>
<text text-anchor="middle" x="382" y="-12.5" font-family="Helvetica,sans-Serif" font-size="10.00">backend.command.CommandList.execute</text>
</a>
</g>
</g>
<!-- Node1&#45;&gt;Node2 -->
<g id="edge1" class="edge"><title>Node1&#45;&gt;Node2</title>
<path fill="none" stroke="midnightblue" d="M246.235,-15C254.794,-15 263.374,-15 271.83,-15"/>
<polygon fill="midnightblue" stroke="midnightblue" points="246.206,-11.5001 236.206,-15 246.206,-18.5001 246.206,-11.5001"/>
</g>
<!-- Node3 -->
<g id="node3" class="node"><title>Node3</title>
<g id="a_node3"><a xlink:href="../../d4/d4b/classbackend_1_1command_1_1_user_instruction_retriever.html#ad63b2a8c91a5c60e4157a89830a3e6ef" target="_top" xlink:title="backend.command.UserInstruction\lRetriever.execute">
<polygon fill="white" stroke="black" points="528.5,-0 528.5,-30 713.5,-30 713.5,-0 528.5,-0"/>
<text text-anchor="start" x="536.5" y="-18" font-family="Helvetica,sans-Serif" font-size="10.00">backend.command.UserInstruction</text>
<text text-anchor="middle" x="621" y="-7" font-family="Helvetica,sans-Serif" font-size="10.00">Retriever.execute</text>
</a>
</g>
</g>
<!-- Node2&#45;&gt;Node3 -->
<g id="edge2" class="edge"><title>Node2&#45;&gt;Node3</title>
<path fill="none" stroke="midnightblue" d="M502.405,-15C511.161,-15 519.911,-15 528.462,-15"/>
<polygon fill="midnightblue" stroke="midnightblue" points="502.135,-11.5001 492.135,-15 502.135,-18.5001 502.135,-11.5001"/>
</g>
</g>
</svg>
