<?xml version="1.0" encoding="UTF-8" standalone="no"?>
<!DOCTYPE svg PUBLIC "-//W3C//DTD SVG 1.1//EN"
 "http://www.w3.org/Graphics/SVG/1.1/DTD/svg11.dtd">
<!-- Generated by graphviz version 2.36.0 (20140111.2315)
 -->
<!-- Title: backend.command.CommandList.postParamsFormatString Pages: 1 -->
<svg width="896pt" height="38pt"
 viewBox="0.00 0.00 896.00 38.00" xmlns="http://www.w3.org/2000/svg" xmlns:xlink="http://www.w3.org/1999/xlink">
<g id="graph0" class="graph" transform="scale(1 1) rotate(0) translate(4 34)">
<title>backend.command.CommandList.postParamsFormatString</title>
<polygon fill="white" stroke="none" points="-4,4 -4,-34 892,-34 892,4 -4,4"/>
<!-- Node1 -->
<g id="node1" class="node"><title>Node1</title>
<polygon fill="#bfbfbf" stroke="black" points="0.5,-0 0.5,-30 203.5,-30 203.5,-0 0.5,-0"/>
<text text-anchor="start" x="8.5" y="-18" font-family="Helvetica,sans-Serif" font-size="10.00">backend.command.CommandList.post</text>
<text text-anchor="middle" x="102" y="-7" font-family="Helvetica,sans-Serif" font-size="10.00">ParamsFormatString</text>
</g>
<!-- Node2 -->
<g id="node2" class="node"><title>Node2</title>
<g id="a_node2"><a xlink:href="../../dc/d83/classbackend_1_1command_1_1_command.html#ae6daac55e32c39adcf91e40d0ae80d19" target="_top" xlink:title="backend.command.Command.indent\lString">
<polygon fill="white" stroke="black" points="240.5,-0 240.5,-30 435.5,-30 435.5,-0 240.5,-0"/>
<text text-anchor="start" x="248.5" y="-18" font-family="Helvetica,sans-Serif" font-size="10.00">backend.command.Command.indent</text>
<text text-anchor="middle" x="338" y="-7" font-family="Helvetica,sans-Serif" font-size="10.00">String</text>
</a>
</g>
</g>
<!-- Node1&#45;&gt;Node2 -->
<g id="edge1" class="edge"><title>Node1&#45;&gt;Node2</title>
<path fill="none" stroke="midnightblue" d="M203.595,-15C212.32,-15 221.17,-15 229.944,-15"/>
<polygon fill="midnightblue" stroke="midnightblue" points="230.198,-18.5001 240.198,-15 230.197,-11.5001 230.198,-18.5001"/>
</g>
<!-- Node3 -->
<g id="node3" class="node"><title>Node3</title>
<g id="a_node3"><a xlink:href="../../dc/d83/classbackend_1_1command_1_1_command.html#ae4958d8f2f7acc24eba656f35be19a84" target="_top" xlink:title="backend.command.Command.parent\lIsList">
<polygon fill="white" stroke="black" points="472.5,-0 472.5,-30 669.5,-30 669.5,-0 472.5,-0"/>
<text text-anchor="start" x="480.5" y="-18" font-family="Helvetica,sans-Serif" font-size="10.00">backend.command.Command.parent</text>
<text text-anchor="middle" x="571" y="-7" font-family="Helvetica,sans-Serif" font-size="10.00">IsList</text>
</a>
</g>
</g>
<!-- Node2&#45;&gt;Node3 -->
<g id="edge2" class="edge"><title>Node2&#45;&gt;Node3</title>
<path fill="none" stroke="midnightblue" d="M435.626,-15C444.429,-15 453.383,-15 462.274,-15"/>
<polygon fill="midnightblue" stroke="midnightblue" points="462.276,-18.5001 472.276,-15 462.276,-11.5001 462.276,-18.5001"/>
</g>
<!-- Node4 -->
<g id="node4" class="node"><title>Node4</title>
<g id="a_node4"><a xlink:href="../../dc/d83/classbackend_1_1command_1_1_command.html#ac25177ccf23f2721bbe77b69a31c1bf7" target="_top" xlink:title="backend.command.Command.has\lParent">
<polygon fill="white" stroke="black" points="706,-0 706,-30 888,-30 888,-0 706,-0"/>
<text text-anchor="start" x="714" y="-18" font-family="Helvetica,sans-Serif" font-size="10.00">backend.command.Command.has</text>
<text text-anchor="middle" x="797" y="-7" font-family="Helvetica,sans-Serif" font-size="10.00">Parent</text>
</a>
</g>
</g>
<!-- Node3&#45;&gt;Node4 -->
<g id="edge3" class="edge"><title>Node3&#45;&gt;Node4</title>
<path fill="none" stroke="midnightblue" d="M669.598,-15C678.241,-15 687.001,-15 695.667,-15"/>
<polygon fill="midnightblue" stroke="midnightblue" points="695.783,-18.5001 705.783,-15 695.783,-11.5001 695.783,-18.5001"/>
</g>
</g>
</svg>
