<?xml version="1.0" encoding="UTF-8" standalone="no"?>
<!DOCTYPE svg PUBLIC "-//W3C//DTD SVG 1.1//EN"
 "http://www.w3.org/Graphics/SVG/1.1/DTD/svg11.dtd">
<!-- Generated by graphviz version 2.36.0 (20140111.2315)
 -->
<!-- Title: backend.command.SetPenColor.execute Pages: 1 -->
<svg width="944pt" height="165pt"
 viewBox="0.00 0.00 944.00 165.00" xmlns="http://www.w3.org/2000/svg" xmlns:xlink="http://www.w3.org/1999/xlink">
<g id="graph0" class="graph" transform="scale(1 1) rotate(0) translate(4 161)">
<title>backend.command.SetPenColor.execute</title>
<polygon fill="white" stroke="none" points="-4,4 -4,-161 940,-161 940,4 -4,4"/>
<!-- Node1 -->
<g id="node1" class="node"><title>Node1</title>
<polygon fill="#bfbfbf" stroke="black" points="0,-66.5 0,-85.5 212,-85.5 212,-66.5 0,-66.5"/>
<text text-anchor="middle" x="106" y="-73.5" font-family="Helvetica,sans-Serif" font-size="10.00">backend.command.SetPenColor.execute</text>
</g>
<!-- Node2 -->
<g id="node2" class="node"><title>Node2</title>
<g id="a_node2"><a xlink:href="../../dc/d83/classbackend_1_1command_1_1_command.html#a7e08258fd275e150b04b6a7745f5d6c9" target="_top" xlink:title="backend.command.Command.get\lParamReturnVal">
<polygon fill="white" stroke="black" points="270.5,-127 270.5,-157 451.5,-157 451.5,-127 270.5,-127"/>
<text text-anchor="start" x="278.5" y="-145" font-family="Helvetica,sans-Serif" font-size="10.00">backend.command.Command.get</text>
<text text-anchor="middle" x="361" y="-134" font-family="Helvetica,sans-Serif" font-size="10.00">ParamReturnVal</text>
</a>
</g>
</g>
<!-- Node1&#45;&gt;Node2 -->
<g id="edge1" class="edge"><title>Node1&#45;&gt;Node2</title>
<path fill="none" stroke="midnightblue" d="M137.652,-85.5217C166.111,-94.2167 209.727,-107.174 248,-117 258.09,-119.59 268.731,-122.166 279.277,-124.624"/>
<polygon fill="midnightblue" stroke="midnightblue" points="278.807,-128.107 289.338,-126.941 280.378,-121.286 278.807,-128.107"/>
</g>
<!-- Node4 -->
<g id="node4" class="node"><title>Node4</title>
<g id="a_node4"><a xlink:href="../../df/de2/classbackend_1_1_turtle.html#af7565ec48a667f209aec621b2dbe3505" target="_top" xlink:title="backend.Turtle.getPen">
<polygon fill="white" stroke="black" points="300,-88.5 300,-107.5 422,-107.5 422,-88.5 300,-88.5"/>
<text text-anchor="middle" x="361" y="-95.5" font-family="Helvetica,sans-Serif" font-size="10.00">backend.Turtle.getPen</text>
</a>
</g>
</g>
<!-- Node1&#45;&gt;Node4 -->
<g id="edge3" class="edge"><title>Node1&#45;&gt;Node4</title>
<path fill="none" stroke="midnightblue" d="M212.097,-85.1389C238.231,-87.4114 265.621,-89.7932 289.628,-91.8807"/>
<polygon fill="midnightblue" stroke="midnightblue" points="289.431,-95.3767 299.697,-92.7562 290.037,-88.403 289.431,-95.3767"/>
</g>
<!-- Node5 -->
<g id="node5" class="node"><title>Node5</title>
<g id="a_node5"><a xlink:href="../../dc/d67/classbackend_1_1command_1_1_model_command.html#ab1aeefecd317fb74afe685c140d17c55" target="_top" xlink:title="backend.command.ModelCommand.param\lToColor">
<polygon fill="white" stroke="black" points="248.5,-39 248.5,-69 473.5,-69 473.5,-39 248.5,-39"/>
<text text-anchor="start" x="256.5" y="-57" font-family="Helvetica,sans-Serif" font-size="10.00">backend.command.ModelCommand.param</text>
<text text-anchor="middle" x="361" y="-46" font-family="Helvetica,sans-Serif" font-size="10.00">ToColor</text>
</a>
</g>
</g>
<!-- Node1&#45;&gt;Node5 -->
<g id="edge4" class="edge"><title>Node1&#45;&gt;Node5</title>
<path fill="none" stroke="midnightblue" d="M212.097,-66.8611C220.684,-66.1144 229.407,-65.356 238.1,-64.6"/>
<polygon fill="midnightblue" stroke="midnightblue" points="238.623,-68.0678 248.283,-63.7146 238.017,-61.0941 238.623,-68.0678"/>
</g>
<!-- Node9 -->
<g id="node9" class="node"><title>Node9</title>
<g id="a_node9"><a xlink:href="../../de/dc9/classbackend_1_1_pen.html#a006e507f1003963222834dbc1436f965" target="_top" xlink:title="backend.Pen.setColor">
<polygon fill="white" stroke="black" points="300.5,-0.5 300.5,-19.5 421.5,-19.5 421.5,-0.5 300.5,-0.5"/>
<text text-anchor="middle" x="361" y="-7.5" font-family="Helvetica,sans-Serif" font-size="10.00">backend.Pen.setColor</text>
</a>
</g>
</g>
<!-- Node1&#45;&gt;Node9 -->
<g id="edge8" class="edge"><title>Node1&#45;&gt;Node9</title>
<path fill="none" stroke="midnightblue" d="M131.872,-66.4136C159.778,-55.9639 206.57,-39.354 248,-29 261.549,-25.6139 276.172,-22.6473 290.238,-20.1272"/>
<polygon fill="midnightblue" stroke="midnightblue" points="291.104,-23.5294 300.359,-18.3715 289.908,-16.6324 291.104,-23.5294"/>
</g>
<!-- Node3 -->
<g id="node3" class="node"><title>Node3</title>
<g id="a_node3"><a xlink:href="../../dc/d83/classbackend_1_1command_1_1_command.html#a606032e5ef26d465113f65e6e3c09bef" target="_top" xlink:title="backend.command.Command.get\lParam">
<polygon fill="white" stroke="black" points="538.5,-127 538.5,-157 719.5,-157 719.5,-127 538.5,-127"/>
<text text-anchor="start" x="546.5" y="-145" font-family="Helvetica,sans-Serif" font-size="10.00">backend.command.Command.get</text>
<text text-anchor="middle" x="629" y="-134" font-family="Helvetica,sans-Serif" font-size="10.00">Param</text>
</a>
</g>
</g>
<!-- Node2&#45;&gt;Node3 -->
<g id="edge2" class="edge"><title>Node2&#45;&gt;Node3</title>
<path fill="none" stroke="midnightblue" d="M451.685,-142C476.208,-142 502.938,-142 527.999,-142"/>
<polygon fill="midnightblue" stroke="midnightblue" points="528.252,-145.5 538.252,-142 528.252,-138.5 528.252,-145.5"/>
</g>
<!-- Node6 -->
<g id="node6" class="node"><title>Node6</title>
<g id="a_node6"><a xlink:href="../../dc/d67/classbackend_1_1command_1_1_model_command.html#aa459b6ae4744fa0705aa08b95f7d9b0f" target="_top" xlink:title="backend.command.ModelCommand.colorMap">
<polygon fill="white" stroke="black" points="510.5,-66.5 510.5,-85.5 747.5,-85.5 747.5,-66.5 510.5,-66.5"/>
<text text-anchor="middle" x="629" y="-73.5" font-family="Helvetica,sans-Serif" font-size="10.00">backend.command.ModelCommand.colorMap</text>
</a>
</g>
</g>
<!-- Node5&#45;&gt;Node6 -->
<g id="edge5" class="edge"><title>Node5&#45;&gt;Node6</title>
<path fill="none" stroke="midnightblue" d="M473.652,-63.2344C483.254,-64.0285 493.009,-64.8353 502.709,-65.6376"/>
<polygon fill="midnightblue" stroke="midnightblue" points="502.534,-69.135 512.789,-66.4713 503.111,-62.1588 502.534,-69.135"/>
</g>
<!-- Node8 -->
<g id="node8" class="node"><title>Node8</title>
<g id="a_node8"><a xlink:href="../../dc/d83/classbackend_1_1command_1_1_command.html#ae218516ae55b1b0d4820d55c901793ea" target="_top" xlink:title="backend.command.Command.execute\lParam">
<polygon fill="white" stroke="black" points="527.5,-17 527.5,-47 730.5,-47 730.5,-17 527.5,-17"/>
<text text-anchor="start" x="535.5" y="-35" font-family="Helvetica,sans-Serif" font-size="10.00">backend.command.Command.execute</text>
<text text-anchor="middle" x="629" y="-24" font-family="Helvetica,sans-Serif" font-size="10.00">Param</text>
</a>
</g>
</g>
<!-- Node5&#45;&gt;Node8 -->
<g id="edge7" class="edge"><title>Node5&#45;&gt;Node8</title>
<path fill="none" stroke="midnightblue" d="M473.652,-44.7656C487.953,-43.5829 502.592,-42.3721 516.884,-41.1901"/>
<polygon fill="midnightblue" stroke="midnightblue" points="517.542,-44.6476 527.22,-40.3352 516.965,-37.6715 517.542,-44.6476"/>
</g>
<!-- Node7 -->
<g id="node7" class="node"><title>Node7</title>
<g id="a_node7"><a xlink:href="../../d3/dac/classbackend_1_1_model.html#ae02bd05f40dd7ecd9be30847d70faf89" target="_top" xlink:title="backend.Model.getColorMap">
<polygon fill="white" stroke="black" points="784,-66.5 784,-85.5 936,-85.5 936,-66.5 784,-66.5"/>
<text text-anchor="middle" x="860" y="-73.5" font-family="Helvetica,sans-Serif" font-size="10.00">backend.Model.getColorMap</text>
</a>
</g>
</g>
<!-- Node6&#45;&gt;Node7 -->
<g id="edge6" class="edge"><title>Node6&#45;&gt;Node7</title>
<path fill="none" stroke="midnightblue" d="M747.519,-76C756.263,-76 764.984,-76 773.477,-76"/>
<polygon fill="midnightblue" stroke="midnightblue" points="773.71,-79.5001 783.71,-76 773.71,-72.5001 773.71,-79.5001"/>
</g>
</g>
</svg>
