<?xml version="1.0" encoding="UTF-8" standalone="no"?>
<!DOCTYPE svg PUBLIC "-//W3C//DTD SVG 1.1//EN"
 "http://www.w3.org/Graphics/SVG/1.1/DTD/svg11.dtd">
<!-- Generated by graphviz version 2.36.0 (20140111.2315)
 -->
<!-- Title: backend.command.DegreesTurtleCommand.degrees Pages: 1 -->
<svg width="432pt" height="104pt"
 viewBox="0.00 0.00 432.00 104.00" xmlns="http://www.w3.org/2000/svg" xmlns:xlink="http://www.w3.org/1999/xlink">
<g id="graph0" class="graph" transform="scale(1 1) rotate(0) translate(4 100)">
<title>backend.command.DegreesTurtleCommand.degrees</title>
<polygon fill="white" stroke="none" points="-4,4 -4,-100 428,-100 428,4 -4,4"/>
<!-- Node1 -->
<g id="node1" class="node"><title>Node1</title>
<polygon fill="#bfbfbf" stroke="black" points="0,-33 0,-63 178,-63 178,-33 0,-33"/>
<text text-anchor="start" x="8" y="-51" font-family="Helvetica,sans-Serif" font-size="10.00">backend.command.DegreesTurtle</text>
<text text-anchor="middle" x="89" y="-40" font-family="Helvetica,sans-Serif" font-size="10.00">Command.degrees</text>
</g>
<!-- Node2 -->
<g id="node2" class="node"><title>Node2</title>
<g id="a_node2"><a xlink:href="../../d1/d93/classbackend_1_1command_1_1_left.html#a06ab89eec275560592d65c8eaf3fc61c" target="_top" xlink:title="backend.command.Left.execute">
<polygon fill="white" stroke="black" points="233.5,-76.5 233.5,-95.5 404.5,-95.5 404.5,-76.5 233.5,-76.5"/>
<text text-anchor="middle" x="319" y="-83.5" font-family="Helvetica,sans-Serif" font-size="10.00">backend.command.Left.execute</text>
</a>
</g>
</g>
<!-- Node1&#45;&gt;Node2 -->
<g id="edge1" class="edge"><title>Node1&#45;&gt;Node2</title>
<path fill="none" stroke="midnightblue" d="M188.293,-64.3822C213,-68.5001 238.711,-72.7852 260.663,-76.4438"/>
<polygon fill="midnightblue" stroke="midnightblue" points="188.59,-60.8835 178.151,-62.6918 187.439,-67.7882 188.59,-60.8835"/>
</g>
<!-- Node3 -->
<g id="node3" class="node"><title>Node3</title>
<g id="a_node3"><a xlink:href="../../d8/d92/classbackend_1_1command_1_1_set_heading.html#aae201c4671003d1ad516dfd4886db55d" target="_top" xlink:title="backend.command.SetHeading.execute">
<polygon fill="white" stroke="black" points="214.5,-38.5 214.5,-57.5 423.5,-57.5 423.5,-38.5 214.5,-38.5"/>
<text text-anchor="middle" x="319" y="-45.5" font-family="Helvetica,sans-Serif" font-size="10.00">backend.command.SetHeading.execute</text>
</a>
</g>
</g>
<!-- Node1&#45;&gt;Node3 -->
<g id="edge2" class="edge"><title>Node1&#45;&gt;Node3</title>
<path fill="none" stroke="midnightblue" d="M188.277,-48C196.962,-48 205.772,-48 214.498,-48"/>
<polygon fill="midnightblue" stroke="midnightblue" points="188.151,-44.5001 178.151,-48 188.151,-51.5001 188.151,-44.5001"/>
</g>
<!-- Node4 -->
<g id="node4" class="node"><title>Node4</title>
<g id="a_node4"><a xlink:href="../../d6/dcb/classbackend_1_1command_1_1_right.html#acdc2fa5040cde9b0ffabb1013a7dda38" target="_top" xlink:title="backend.command.Right.execute">
<polygon fill="white" stroke="black" points="230.5,-0.5 230.5,-19.5 407.5,-19.5 407.5,-0.5 230.5,-0.5"/>
<text text-anchor="middle" x="319" y="-7.5" font-family="Helvetica,sans-Serif" font-size="10.00">backend.command.Right.execute</text>
</a>
</g>
</g>
<!-- Node1&#45;&gt;Node4 -->
<g id="edge3" class="edge"><title>Node1&#45;&gt;Node4</title>
<path fill="none" stroke="midnightblue" d="M188.293,-31.6178C213,-27.4999 238.711,-23.2148 260.663,-19.5562"/>
<polygon fill="midnightblue" stroke="midnightblue" points="187.439,-28.2118 178.151,-33.3082 188.59,-35.1165 187.439,-28.2118"/>
</g>
</g>
</svg>
