<?xml version="1.0" encoding="UTF-8" standalone="no"?>
<!DOCTYPE svg PUBLIC "-//W3C//DTD SVG 1.1//EN"
 "http://www.w3.org/Graphics/SVG/1.1/DTD/svg11.dtd">
<!-- Generated by graphviz version 2.36.0 (20140111.2315)
 -->
<!-- Title: gui.DrawingArea.awtToPaint Pages: 1 -->
<svg width="874pt" height="47pt"
 viewBox="0.00 0.00 874.00 47.00" xmlns="http://www.w3.org/2000/svg" xmlns:xlink="http://www.w3.org/1999/xlink">
<g id="graph0" class="graph" transform="scale(1 1) rotate(0) translate(4 43)">
<title>gui.DrawingArea.awtToPaint</title>
<polygon fill="white" stroke="none" points="-4,4 -4,-43 870,-43 870,4 -4,4"/>
<!-- Node1 -->
<g id="node1" class="node"><title>Node1</title>
<polygon fill="#bfbfbf" stroke="black" points="0.5,-0.5 0.5,-19.5 147.5,-19.5 147.5,-0.5 0.5,-0.5"/>
<text text-anchor="middle" x="74" y="-7.5" font-family="Helvetica,sans-Serif" font-size="10.00">gui.DrawingArea.awtToPaint</text>
</g>
<!-- Node2 -->
<g id="node2" class="node"><title>Node2</title>
<g id="a_node2"><a xlink:href="../../d8/d8d/classgui_1_1_drawing_area.html#a1522d175379504dfbf03fe9e6b75f53d" target="_top" xlink:title="gui.DrawingArea.drawLines">
<polygon fill="white" stroke="black" points="184.5,-0.5 184.5,-19.5 329.5,-19.5 329.5,-0.5 184.5,-0.5"/>
<text text-anchor="middle" x="257" y="-7.5" font-family="Helvetica,sans-Serif" font-size="10.00">gui.DrawingArea.drawLines</text>
</a>
</g>
</g>
<!-- Node1&#45;&gt;Node2 -->
<g id="edge1" class="edge"><title>Node1&#45;&gt;Node2</title>
<path fill="none" stroke="midnightblue" d="M157.581,-10C166.498,-10 175.518,-10 184.291,-10"/>
<polygon fill="midnightblue" stroke="midnightblue" points="157.577,-6.5001 147.577,-10 157.577,-13.5001 157.577,-6.5001"/>
</g>
<!-- Node3 -->
<g id="node3" class="node"><title>Node3</title>
<g id="a_node3"><a xlink:href="../../d5/d8a/classgui_1_1_slogo_tab.html#a9ccb322bec15528476c85f84e53f14d9" target="_top" xlink:title="gui.SlogoTab.updatePanels">
<polygon fill="white" stroke="black" points="366,-19.5 366,-38.5 510,-38.5 510,-19.5 366,-19.5"/>
<text text-anchor="middle" x="438" y="-26.5" font-family="Helvetica,sans-Serif" font-size="10.00">gui.SlogoTab.updatePanels</text>
</a>
</g>
</g>
<!-- Node2&#45;&gt;Node3 -->
<g id="edge2" class="edge"><title>Node2&#45;&gt;Node3</title>
<path fill="none" stroke="midnightblue" d="M339.71,-18.6731C348.448,-19.6007 357.287,-20.5388 365.888,-21.4518"/>
<polygon fill="midnightblue" stroke="midnightblue" points="339.831,-15.1664 329.517,-17.5912 339.092,-22.1273 339.831,-15.1664"/>
</g>
<!-- Node4 -->
<g id="node4" class="node"><title>Node4</title>
<g id="a_node4"><a xlink:href="../../d5/d8a/classgui_1_1_slogo_tab.html#a2a016875b2ea48fa761cd4408a78dd21" target="_top" xlink:title="gui.SlogoTab.setButtonActions">
<polygon fill="white" stroke="black" points="546,-0.5 546,-19.5 708,-19.5 708,-0.5 546,-0.5"/>
<text text-anchor="middle" x="627" y="-7.5" font-family="Helvetica,sans-Serif" font-size="10.00">gui.SlogoTab.setButtonActions</text>
</a>
</g>
</g>
<!-- Node2&#45;&gt;Node4 -->
<g id="edge5" class="edge"><title>Node2&#45;&gt;Node4</title>
<path fill="none" stroke="midnightblue" d="M339.861,-10C401.217,-10 484.753,-10 545.723,-10"/>
<polygon fill="midnightblue" stroke="midnightblue" points="339.828,-6.5001 329.828,-10 339.828,-13.5001 339.828,-6.5001"/>
</g>
<!-- Node3&#45;&gt;Node4 -->
<g id="edge3" class="edge"><title>Node3&#45;&gt;Node4</title>
<path fill="none" stroke="midnightblue" d="M520.449,-20.7245C528.896,-19.8662 537.476,-18.9944 545.908,-18.1377"/>
<polygon fill="midnightblue" stroke="midnightblue" points="519.825,-17.2697 510.23,-21.7627 520.533,-24.2339 519.825,-17.2697"/>
</g>
<!-- Node5 -->
<g id="node5" class="node"><title>Node5</title>
<g id="a_node5"><a xlink:href="../../d5/d8a/classgui_1_1_slogo_tab.html#adaa134bc95e1dcf4eb30b3a185c75175" target="_top" xlink:title="gui.SlogoTab.SlogoTab">
<polygon fill="white" stroke="black" points="744,-0.5 744,-19.5 866,-19.5 866,-0.5 744,-0.5"/>
<text text-anchor="middle" x="805" y="-7.5" font-family="Helvetica,sans-Serif" font-size="10.00">gui.SlogoTab.SlogoTab</text>
</a>
</g>
</g>
<!-- Node4&#45;&gt;Node5 -->
<g id="edge4" class="edge"><title>Node4&#45;&gt;Node5</title>
<path fill="none" stroke="midnightblue" d="M718.235,-10C726.945,-10 735.626,-10 743.936,-10"/>
<polygon fill="midnightblue" stroke="midnightblue" points="718.018,-6.5001 708.018,-10 718.018,-13.5001 718.018,-6.5001"/>
</g>
</g>
</svg>
