<?xml version="1.0" encoding="UTF-8" standalone="no"?>
<!DOCTYPE svg PUBLIC "-//W3C//DTD SVG 1.1//EN"
 "http://www.w3.org/Graphics/SVG/1.1/DTD/svg11.dtd">
<!-- Generated by graphviz version 2.36.0 (20140111.2315)
 -->
<!-- Title: gui.DrawingArea.convertCoordinates Pages: 1 -->
<svg width="924pt" height="66pt"
 viewBox="0.00 0.00 924.00 66.00" xmlns="http://www.w3.org/2000/svg" xmlns:xlink="http://www.w3.org/1999/xlink">
<g id="graph0" class="graph" transform="scale(1 1) rotate(0) translate(4 62)">
<title>gui.DrawingArea.convertCoordinates</title>
<polygon fill="white" stroke="none" points="-4,4 -4,-62 920,-62 920,4 -4,4"/>
<!-- Node1 -->
<g id="node1" class="node"><title>Node1</title>
<polygon fill="#bfbfbf" stroke="black" points="0.5,-19.5 0.5,-38.5 191.5,-38.5 191.5,-19.5 0.5,-19.5"/>
<text text-anchor="middle" x="96" y="-26.5" font-family="Helvetica,sans-Serif" font-size="10.00">gui.DrawingArea.convertCoordinates</text>
</g>
<!-- Node2 -->
<g id="node2" class="node"><title>Node2</title>
<g id="a_node2"><a xlink:href="../../d8/d8d/classgui_1_1_drawing_area.html#a1522d175379504dfbf03fe9e6b75f53d" target="_top" xlink:title="gui.DrawingArea.drawLines">
<polygon fill="white" stroke="black" points="231.5,-38.5 231.5,-57.5 376.5,-57.5 376.5,-38.5 231.5,-38.5"/>
<text text-anchor="middle" x="304" y="-45.5" font-family="Helvetica,sans-Serif" font-size="10.00">gui.DrawingArea.drawLines</text>
</a>
</g>
</g>
<!-- Node1&#45;&gt;Node2 -->
<g id="edge1" class="edge"><title>Node1&#45;&gt;Node2</title>
<path fill="none" stroke="midnightblue" d="M201.576,-38.6454C211.6,-39.5699 221.604,-40.4926 231.209,-41.3785"/>
<polygon fill="midnightblue" stroke="midnightblue" points="201.838,-35.1548 191.559,-37.7215 201.195,-42.1252 201.838,-35.1548"/>
</g>
<!-- Node6 -->
<g id="node6" class="node"><title>Node6</title>
<g id="a_node6"><a xlink:href="../../d8/d8d/classgui_1_1_drawing_area.html#aaf94ae2627b15ef5a3224dd5fa042aae" target="_top" xlink:title="gui.DrawingArea.drawTurtles">
<polygon fill="white" stroke="black" points="228.5,-0.5 228.5,-19.5 379.5,-19.5 379.5,-0.5 228.5,-0.5"/>
<text text-anchor="middle" x="304" y="-7.5" font-family="Helvetica,sans-Serif" font-size="10.00">gui.DrawingArea.drawTurtles</text>
</a>
</g>
</g>
<!-- Node1&#45;&gt;Node6 -->
<g id="edge6" class="edge"><title>Node1&#45;&gt;Node6</title>
<path fill="none" stroke="midnightblue" d="M201.733,-19.3402C210.75,-18.5085 219.749,-17.6785 228.454,-16.8756"/>
<polygon fill="midnightblue" stroke="midnightblue" points="201.195,-15.8748 191.559,-20.2785 201.838,-22.8452 201.195,-15.8748"/>
</g>
<!-- Node3 -->
<g id="node3" class="node"><title>Node3</title>
<g id="a_node3"><a xlink:href="../../d5/d8a/classgui_1_1_slogo_tab.html#a9ccb322bec15528476c85f84e53f14d9" target="_top" xlink:title="gui.SlogoTab.updatePanels">
<polygon fill="white" stroke="black" points="416,-19.5 416,-38.5 560,-38.5 560,-19.5 416,-19.5"/>
<text text-anchor="middle" x="488" y="-26.5" font-family="Helvetica,sans-Serif" font-size="10.00">gui.SlogoTab.updatePanels</text>
</a>
</g>
</g>
<!-- Node2&#45;&gt;Node3 -->
<g id="edge2" class="edge"><title>Node2&#45;&gt;Node3</title>
<path fill="none" stroke="midnightblue" d="M386.762,-39.4645C396.513,-38.4464 406.408,-37.4134 415.992,-36.413"/>
<polygon fill="midnightblue" stroke="midnightblue" points="386.252,-35.9985 376.67,-40.518 386.979,-42.9607 386.252,-35.9985"/>
</g>
<!-- Node4 -->
<g id="node4" class="node"><title>Node4</title>
<g id="a_node4"><a xlink:href="../../d5/d8a/classgui_1_1_slogo_tab.html#a2a016875b2ea48fa761cd4408a78dd21" target="_top" xlink:title="gui.SlogoTab.setButtonActions">
<polygon fill="white" stroke="black" points="596,-19.5 596,-38.5 758,-38.5 758,-19.5 596,-19.5"/>
<text text-anchor="middle" x="677" y="-26.5" font-family="Helvetica,sans-Serif" font-size="10.00">gui.SlogoTab.setButtonActions</text>
</a>
</g>
</g>
<!-- Node2&#45;&gt;Node4 -->
<g id="edge5" class="edge"><title>Node2&#45;&gt;Node4</title>
<path fill="none" stroke="midnightblue" d="M386.701,-51.3642C436.801,-52.5924 502.207,-52.7018 560,-48 582.781,-46.1467 607.832,-42.2783 628.806,-38.5128"/>
<polygon fill="midnightblue" stroke="midnightblue" points="386.661,-47.862 376.571,-51.0957 386.475,-54.8596 386.661,-47.862"/>
</g>
<!-- Node3&#45;&gt;Node4 -->
<g id="edge3" class="edge"><title>Node3&#45;&gt;Node4</title>
<path fill="none" stroke="midnightblue" d="M570.449,-29C578.896,-29 587.476,-29 595.908,-29"/>
<polygon fill="midnightblue" stroke="midnightblue" points="570.23,-25.5001 560.23,-29 570.23,-32.5001 570.23,-25.5001"/>
</g>
<!-- Node5 -->
<g id="node5" class="node"><title>Node5</title>
<g id="a_node5"><a xlink:href="../../d5/d8a/classgui_1_1_slogo_tab.html#adaa134bc95e1dcf4eb30b3a185c75175" target="_top" xlink:title="gui.SlogoTab.SlogoTab">
<polygon fill="white" stroke="black" points="794,-19.5 794,-38.5 916,-38.5 916,-19.5 794,-19.5"/>
<text text-anchor="middle" x="855" y="-26.5" font-family="Helvetica,sans-Serif" font-size="10.00">gui.SlogoTab.SlogoTab</text>
</a>
</g>
</g>
<!-- Node4&#45;&gt;Node5 -->
<g id="edge4" class="edge"><title>Node4&#45;&gt;Node5</title>
<path fill="none" stroke="midnightblue" d="M768.235,-29C776.945,-29 785.626,-29 793.936,-29"/>
<polygon fill="midnightblue" stroke="midnightblue" points="768.018,-25.5001 758.018,-29 768.018,-32.5001 768.018,-25.5001"/>
</g>
<!-- Node6&#45;&gt;Node3 -->
<g id="edge7" class="edge"><title>Node6&#45;&gt;Node3</title>
<path fill="none" stroke="midnightblue" d="M389.731,-18.8455C398.448,-19.7556 407.243,-20.6737 415.793,-21.5663"/>
<polygon fill="midnightblue" stroke="midnightblue" points="389.861,-15.3402 379.551,-17.7828 389.134,-22.3023 389.861,-15.3402"/>
</g>
<!-- Node6&#45;&gt;Node4 -->
<g id="edge8" class="edge"><title>Node6&#45;&gt;Node4</title>
<path fill="none" stroke="midnightblue" d="M389.671,-6.56472C439.368,-5.40514 503.342,-5.3906 560,-10 582.781,-11.8533 607.832,-15.7217 628.806,-19.4872"/>
<polygon fill="midnightblue" stroke="midnightblue" points="389.518,-3.06738 379.61,-6.81956 389.695,-10.0651 389.518,-3.06738"/>
</g>
</g>
</svg>
