<?xml version="1.0" encoding="UTF-8" standalone="no"?>
<!DOCTYPE svg PUBLIC "-//W3C//DTD SVG 1.1//EN"
 "http://www.w3.org/Graphics/SVG/1.1/DTD/svg11.dtd">
<!-- Generated by graphviz version 2.36.0 (20140111.2315)
 -->
<!-- Title: gui.DrawingArea.positionPointRelativeToLines Pages: 1 -->
<svg width="868pt" height="52pt"
 viewBox="0.00 0.00 868.00 52.00" xmlns="http://www.w3.org/2000/svg" xmlns:xlink="http://www.w3.org/1999/xlink">
<g id="graph0" class="graph" transform="scale(1 1) rotate(0) translate(4 48)">
<title>gui.DrawingArea.positionPointRelativeToLines</title>
<polygon fill="white" stroke="none" points="-4,4 -4,-48 864,-48 864,4 -4,4"/>
<!-- Node1 -->
<g id="node1" class="node"><title>Node1</title>
<polygon fill="#bfbfbf" stroke="black" points="0.5,-14 0.5,-44 135.5,-44 135.5,-14 0.5,-14"/>
<text text-anchor="start" x="8.5" y="-32" font-family="Helvetica,sans-Serif" font-size="10.00">gui.DrawingArea.position</text>
<text text-anchor="middle" x="68" y="-21" font-family="Helvetica,sans-Serif" font-size="10.00">PointRelativeToLines</text>
</g>
<!-- Node2 -->
<g id="node2" class="node"><title>Node2</title>
<g id="a_node2"><a xlink:href="../../d8/d8d/classgui_1_1_drawing_area.html#aaf94ae2627b15ef5a3224dd5fa042aae" target="_top" xlink:title="gui.DrawingArea.drawTurtles">
<polygon fill="white" stroke="black" points="172.5,-19.5 172.5,-38.5 323.5,-38.5 323.5,-19.5 172.5,-19.5"/>
<text text-anchor="middle" x="248" y="-26.5" font-family="Helvetica,sans-Serif" font-size="10.00">gui.DrawingArea.drawTurtles</text>
</a>
</g>
</g>
<!-- Node1&#45;&gt;Node2 -->
<g id="edge1" class="edge"><title>Node1&#45;&gt;Node2</title>
<path fill="none" stroke="midnightblue" d="M145.816,-29C154.658,-29 163.663,-29 172.474,-29"/>
<polygon fill="midnightblue" stroke="midnightblue" points="145.534,-25.5001 135.534,-29 145.534,-32.5001 145.534,-25.5001"/>
</g>
<!-- Node3 -->
<g id="node3" class="node"><title>Node3</title>
<g id="a_node3"><a xlink:href="../../d5/d8a/classgui_1_1_slogo_tab.html#a2a016875b2ea48fa761cd4408a78dd21" target="_top" xlink:title="gui.SlogoTab.setButtonActions">
<polygon fill="white" stroke="black" points="540,-19.5 540,-38.5 702,-38.5 702,-19.5 540,-19.5"/>
<text text-anchor="middle" x="621" y="-26.5" font-family="Helvetica,sans-Serif" font-size="10.00">gui.SlogoTab.setButtonActions</text>
</a>
</g>
</g>
<!-- Node2&#45;&gt;Node3 -->
<g id="edge2" class="edge"><title>Node2&#45;&gt;Node3</title>
<path fill="none" stroke="midnightblue" d="M333.754,-29C395.609,-29 478.917,-29 539.706,-29"/>
<polygon fill="midnightblue" stroke="midnightblue" points="333.631,-25.5001 323.631,-29 333.631,-32.5001 333.631,-25.5001"/>
</g>
<!-- Node5 -->
<g id="node5" class="node"><title>Node5</title>
<g id="a_node5"><a xlink:href="../../d5/d8a/classgui_1_1_slogo_tab.html#a9ccb322bec15528476c85f84e53f14d9" target="_top" xlink:title="gui.SlogoTab.updatePanels">
<polygon fill="white" stroke="black" points="360,-0.5 360,-19.5 504,-19.5 504,-0.5 360,-0.5"/>
<text text-anchor="middle" x="432" y="-7.5" font-family="Helvetica,sans-Serif" font-size="10.00">gui.SlogoTab.updatePanels</text>
</a>
</g>
</g>
<!-- Node2&#45;&gt;Node5 -->
<g id="edge4" class="edge"><title>Node2&#45;&gt;Node5</title>
<path fill="none" stroke="midnightblue" d="M333.731,-20.1545C342.448,-19.2444 351.243,-18.3263 359.793,-17.4337"/>
<polygon fill="midnightblue" stroke="midnightblue" points="333.134,-16.6977 323.551,-21.2172 333.861,-23.6598 333.134,-16.6977"/>
</g>
<!-- Node4 -->
<g id="node4" class="node"><title>Node4</title>
<g id="a_node4"><a xlink:href="../../d5/d8a/classgui_1_1_slogo_tab.html#adaa134bc95e1dcf4eb30b3a185c75175" target="_top" xlink:title="gui.SlogoTab.SlogoTab">
<polygon fill="white" stroke="black" points="738,-19.5 738,-38.5 860,-38.5 860,-19.5 738,-19.5"/>
<text text-anchor="middle" x="799" y="-26.5" font-family="Helvetica,sans-Serif" font-size="10.00">gui.SlogoTab.SlogoTab</text>
</a>
</g>
</g>
<!-- Node3&#45;&gt;Node4 -->
<g id="edge3" class="edge"><title>Node3&#45;&gt;Node4</title>
<path fill="none" stroke="midnightblue" d="M712.235,-29C720.945,-29 729.626,-29 737.936,-29"/>
<polygon fill="midnightblue" stroke="midnightblue" points="712.018,-25.5001 702.018,-29 712.018,-32.5001 712.018,-25.5001"/>
</g>
<!-- Node5&#45;&gt;Node3 -->
<g id="edge5" class="edge"><title>Node5&#45;&gt;Node3</title>
<path fill="none" stroke="midnightblue" d="M514.449,-18.2755C522.896,-19.1338 531.476,-20.0056 539.908,-20.8623"/>
<polygon fill="midnightblue" stroke="midnightblue" points="514.533,-14.7661 504.23,-17.2373 513.825,-21.7303 514.533,-14.7661"/>
</g>
</g>
</svg>
