<?xml version="1.0" encoding="UTF-8" standalone="no"?>
<!DOCTYPE svg PUBLIC "-//W3C//DTD SVG 1.1//EN"
 "http://www.w3.org/Graphics/SVG/1.1/DTD/svg11.dtd">
<!-- Generated by graphviz version 2.36.0 (20140111.2315)
 -->
<!-- Title: gui.DrawingArea.drawTurtles Pages: 1 -->
<svg width="580pt" height="230pt"
 viewBox="0.00 0.00 580.00 230.00" xmlns="http://www.w3.org/2000/svg" xmlns:xlink="http://www.w3.org/1999/xlink">
<g id="graph0" class="graph" transform="scale(1 1) rotate(0) translate(4 226)">
<title>gui.DrawingArea.drawTurtles</title>
<polygon fill="white" stroke="none" points="-4,4 -4,-226 576,-226 576,4 -4,4"/>
<!-- Node1 -->
<g id="node1" class="node"><title>Node1</title>
<polygon fill="#bfbfbf" stroke="black" points="0.5,-98.5 0.5,-117.5 151.5,-117.5 151.5,-98.5 0.5,-98.5"/>
<text text-anchor="middle" x="76" y="-105.5" font-family="Helvetica,sans-Serif" font-size="10.00">gui.DrawingArea.drawTurtles</text>
</g>
<!-- Node2 -->
<g id="node2" class="node"><title>Node2</title>
<g id="a_node2"><a xlink:href="../../d8/d8d/classgui_1_1_drawing_area.html#a32586c1f6aee95492f73590ffc366546" target="_top" xlink:title="gui.DrawingArea.convertCoordinates">
<polygon fill="white" stroke="black" points="188.5,-202.5 188.5,-221.5 379.5,-221.5 379.5,-202.5 188.5,-202.5"/>
<text text-anchor="middle" x="284" y="-209.5" font-family="Helvetica,sans-Serif" font-size="10.00">gui.DrawingArea.convertCoordinates</text>
</a>
</g>
</g>
<!-- Node1&#45;&gt;Node2 -->
<g id="edge1" class="edge"><title>Node1&#45;&gt;Node2</title>
<path fill="none" stroke="midnightblue" d="M86.3848,-117.675C104.339,-135.57 145.552,-173.766 188,-193 193.63,-195.551 199.602,-197.762 205.7,-199.676"/>
<polygon fill="midnightblue" stroke="midnightblue" points="204.781,-203.053 215.358,-202.448 206.712,-196.325 204.781,-203.053"/>
</g>
<!-- Node3 -->
<g id="node3" class="node"><title>Node3</title>
<g id="a_node3"><a xlink:href="../../d2/d89/classgui_1_1_turtle_image.html#a632edfc5b5937c0ad906304ba225aadb" target="_top" xlink:title="gui.TurtleImage.orientTurtle">
<polygon fill="white" stroke="black" points="211,-164.5 211,-183.5 357,-183.5 357,-164.5 211,-164.5"/>
<text text-anchor="middle" x="284" y="-171.5" font-family="Helvetica,sans-Serif" font-size="10.00">gui.TurtleImage.orientTurtle</text>
</a>
</g>
</g>
<!-- Node1&#45;&gt;Node3 -->
<g id="edge2" class="edge"><title>Node1&#45;&gt;Node3</title>
<path fill="none" stroke="midnightblue" d="M97.0411,-117.633C118.956,-127.851 155.319,-143.884 188,-154 197.883,-157.059 208.489,-159.801 218.902,-162.202"/>
<polygon fill="midnightblue" stroke="midnightblue" points="218.276,-165.648 228.797,-164.399 219.793,-158.815 218.276,-165.648"/>
</g>
<!-- Node6 -->
<g id="node6" class="node"><title>Node6</title>
<g id="a_node6"><a xlink:href="../../d8/d8d/classgui_1_1_drawing_area.html#a0f39c1d3d8302435454d2cdc3366e2fd" target="_top" xlink:title="gui.DrawingArea.position\lPointRelativeToLines">
<polygon fill="white" stroke="black" points="216.5,-115 216.5,-145 351.5,-145 351.5,-115 216.5,-115"/>
<text text-anchor="start" x="224.5" y="-133" font-family="Helvetica,sans-Serif" font-size="10.00">gui.DrawingArea.position</text>
<text text-anchor="middle" x="284" y="-122" font-family="Helvetica,sans-Serif" font-size="10.00">PointRelativeToLines</text>
</a>
</g>
</g>
<!-- Node1&#45;&gt;Node6 -->
<g id="edge5" class="edge"><title>Node1&#45;&gt;Node6</title>
<path fill="none" stroke="midnightblue" d="M151.662,-115.974C169.373,-117.865 188.295,-119.886 206.103,-121.788"/>
<polygon fill="midnightblue" stroke="midnightblue" points="206.127,-125.31 216.442,-122.892 206.87,-118.35 206.127,-125.31"/>
</g>
<!-- Node7 -->
<g id="node7" class="node"><title>Node7</title>
<g id="a_node7"><a xlink:href="../../d2/d89/classgui_1_1_turtle_image.html#af95ae9f6f053b6e1877c48c4532c871b" target="_top" xlink:title="gui.TurtleImage.setLocation">
<polygon fill="white" stroke="black" points="210,-76.5 210,-95.5 358,-95.5 358,-76.5 210,-76.5"/>
<text text-anchor="middle" x="284" y="-83.5" font-family="Helvetica,sans-Serif" font-size="10.00">gui.TurtleImage.setLocation</text>
</a>
</g>
</g>
<!-- Node1&#45;&gt;Node7 -->
<g id="edge6" class="edge"><title>Node1&#45;&gt;Node7</title>
<path fill="none" stroke="midnightblue" d="M151.662,-100.026C167.247,-98.362 183.77,-96.5973 199.647,-94.9018"/>
<polygon fill="midnightblue" stroke="midnightblue" points="200.399,-98.3415 209.971,-93.7993 199.655,-91.3811 200.399,-98.3415"/>
</g>
<!-- Node8 -->
<g id="node8" class="node"><title>Node8</title>
<g id="a_node8"><a xlink:href="../../d2/d89/classgui_1_1_turtle_image.html#a7efec119de1fb36ed2cbf71ecc80ac4b" target="_top" xlink:title="gui.TurtleImage.sizeTurtle">
<polygon fill="white" stroke="black" points="215.5,-38.5 215.5,-57.5 352.5,-57.5 352.5,-38.5 215.5,-38.5"/>
<text text-anchor="middle" x="284" y="-45.5" font-family="Helvetica,sans-Serif" font-size="10.00">gui.TurtleImage.sizeTurtle</text>
</a>
</g>
</g>
<!-- Node1&#45;&gt;Node8 -->
<g id="edge7" class="edge"><title>Node1&#45;&gt;Node8</title>
<path fill="none" stroke="midnightblue" d="M99.6141,-98.4584C121.805,-89.3806 156.766,-75.8331 188,-67 197.59,-64.288 207.829,-61.8136 217.904,-59.6121"/>
<polygon fill="midnightblue" stroke="midnightblue" points="218.833,-62.9932 227.894,-57.5028 217.386,-56.1442 218.833,-62.9932"/>
</g>
<!-- Node9 -->
<g id="node9" class="node"><title>Node9</title>
<g id="a_node9"><a xlink:href="../../d2/d89/classgui_1_1_turtle_image.html#af1e79192e9a4ec13ef28b42e4f354124" target="_top" xlink:title="gui.TurtleImage.updateImage">
<polygon fill="white" stroke="black" points="206,-0.5 206,-19.5 362,-19.5 362,-0.5 206,-0.5"/>
<text text-anchor="middle" x="284" y="-7.5" font-family="Helvetica,sans-Serif" font-size="10.00">gui.TurtleImage.updateImage</text>
</a>
</g>
</g>
<!-- Node1&#45;&gt;Node9 -->
<g id="edge8" class="edge"><title>Node1&#45;&gt;Node9</title>
<path fill="none" stroke="midnightblue" d="M87.3972,-98.2434C106.019,-81.3436 146.964,-46.7364 188,-29 194.068,-26.3771 200.513,-24.1118 207.075,-22.156"/>
<polygon fill="midnightblue" stroke="midnightblue" points="208.023,-25.5252 216.742,-19.5065 206.173,-18.7741 208.023,-25.5252"/>
</g>
<!-- Node4 -->
<g id="node4" class="node"><title>Node4</title>
<g id="a_node4"><a xlink:href="../../df/de2/classbackend_1_1_turtle.html#aaefef90d2377833d5e721222660deccc" target="_top" xlink:title="backend.Turtle.getHeading">
<polygon fill="white" stroke="black" points="422,-183.5 422,-202.5 566,-202.5 566,-183.5 422,-183.5"/>
<text text-anchor="middle" x="494" y="-190.5" font-family="Helvetica,sans-Serif" font-size="10.00">backend.Turtle.getHeading</text>
</a>
</g>
</g>
<!-- Node3&#45;&gt;Node4 -->
<g id="edge3" class="edge"><title>Node3&#45;&gt;Node4</title>
<path fill="none" stroke="midnightblue" d="M357.165,-180.592C374.705,-182.194 393.583,-183.919 411.522,-185.557"/>
<polygon fill="midnightblue" stroke="midnightblue" points="411.389,-189.06 421.666,-186.484 412.026,-182.089 411.389,-189.06"/>
</g>
<!-- Node5 -->
<g id="node5" class="node"><title>Node5</title>
<g id="a_node5"><a xlink:href="../../d8/d98/classbackend_1_1_heading.html#a184d1ef92b62ea73e6edc57e07d3c0d4" target="_top" xlink:title="backend.Heading.getAngle">
<polygon fill="white" stroke="black" points="421,-145.5 421,-164.5 567,-164.5 567,-145.5 421,-145.5"/>
<text text-anchor="middle" x="494" y="-152.5" font-family="Helvetica,sans-Serif" font-size="10.00">backend.Heading.getAngle</text>
</a>
</g>
</g>
<!-- Node3&#45;&gt;Node5 -->
<g id="edge4" class="edge"><title>Node3&#45;&gt;Node5</title>
<path fill="none" stroke="midnightblue" d="M357.165,-167.408C374.427,-165.831 392.985,-164.136 410.669,-162.521"/>
<polygon fill="midnightblue" stroke="midnightblue" points="411.323,-165.976 420.963,-161.58 410.686,-159.005 411.323,-165.976"/>
</g>
<!-- Node10 -->
<g id="node10" class="node"><title>Node10</title>
<g id="a_node10"><a xlink:href="../../df/de2/classbackend_1_1_turtle.html#a6ee2aa85c5d0c1138e49e243dc751332" target="_top" xlink:title="backend.Turtle.getImagePath">
<polygon fill="white" stroke="black" points="416.5,-0.5 416.5,-19.5 571.5,-19.5 571.5,-0.5 416.5,-0.5"/>
<text text-anchor="middle" x="494" y="-7.5" font-family="Helvetica,sans-Serif" font-size="10.00">backend.Turtle.getImagePath</text>
</a>
</g>
</g>
<!-- Node9&#45;&gt;Node10 -->
<g id="edge9" class="edge"><title>Node9&#45;&gt;Node10</title>
<path fill="none" stroke="midnightblue" d="M362.156,-10C376.528,-10 391.635,-10 406.272,-10"/>
<polygon fill="midnightblue" stroke="midnightblue" points="406.315,-13.5001 416.315,-10 406.315,-6.5001 406.315,-13.5001"/>
</g>
</g>
</svg>
