<?xml version="1.0" encoding="UTF-8" standalone="no"?>
<!DOCTYPE svg PUBLIC "-//W3C//DTD SVG 1.1//EN"
 "http://www.w3.org/Graphics/SVG/1.1/DTD/svg11.dtd">
<!-- Generated by graphviz version 2.36.0 (20140111.2315)
 -->
<!-- Title: gui.DrawingArea.drawLines Pages: 1 -->
<svg width="382pt" height="66pt"
 viewBox="0.00 0.00 382.00 66.00" xmlns="http://www.w3.org/2000/svg" xmlns:xlink="http://www.w3.org/1999/xlink">
<g id="graph0" class="graph" transform="scale(1 1) rotate(0) translate(4 62)">
<title>gui.DrawingArea.drawLines</title>
<polygon fill="white" stroke="none" points="-4,4 -4,-62 378,-62 378,4 -4,4"/>
<!-- Node1 -->
<g id="node1" class="node"><title>Node1</title>
<polygon fill="#bfbfbf" stroke="black" points="0.5,-19.5 0.5,-38.5 145.5,-38.5 145.5,-19.5 0.5,-19.5"/>
<text text-anchor="middle" x="73" y="-26.5" font-family="Helvetica,sans-Serif" font-size="10.00">gui.DrawingArea.drawLines</text>
</g>
<!-- Node2 -->
<g id="node2" class="node"><title>Node2</title>
<g id="a_node2"><a xlink:href="../../d8/d8d/classgui_1_1_drawing_area.html#a131e998a866309e9767e17fa903b82f0" target="_top" xlink:title="gui.DrawingArea.awtToPaint">
<polygon fill="white" stroke="black" points="204.5,-38.5 204.5,-57.5 351.5,-57.5 351.5,-38.5 204.5,-38.5"/>
<text text-anchor="middle" x="278" y="-45.5" font-family="Helvetica,sans-Serif" font-size="10.00">gui.DrawingArea.awtToPaint</text>
</a>
</g>
</g>
<!-- Node1&#45;&gt;Node2 -->
<g id="edge1" class="edge"><title>Node1&#45;&gt;Node2</title>
<path fill="none" stroke="midnightblue" d="M145.57,-35.6987C161.357,-37.1763 178.204,-38.7531 194.388,-40.2678"/>
<polygon fill="midnightblue" stroke="midnightblue" points="194.08,-43.7542 204.363,-41.2015 194.733,-36.7847 194.08,-43.7542"/>
</g>
<!-- Node3 -->
<g id="node3" class="node"><title>Node3</title>
<g id="a_node3"><a xlink:href="../../d8/d8d/classgui_1_1_drawing_area.html#a32586c1f6aee95492f73590ffc366546" target="_top" xlink:title="gui.DrawingArea.convertCoordinates">
<polygon fill="white" stroke="black" points="182.5,-0.5 182.5,-19.5 373.5,-19.5 373.5,-0.5 182.5,-0.5"/>
<text text-anchor="middle" x="278" y="-7.5" font-family="Helvetica,sans-Serif" font-size="10.00">gui.DrawingArea.convertCoordinates</text>
</a>
</g>
</g>
<!-- Node1&#45;&gt;Node3 -->
<g id="edge2" class="edge"><title>Node1&#45;&gt;Node3</title>
<path fill="none" stroke="midnightblue" d="M145.57,-22.3013C154.196,-21.494 163.138,-20.657 172.115,-19.8168"/>
<polygon fill="midnightblue" stroke="midnightblue" points="172.621,-23.2849 182.251,-18.8681 171.969,-16.3153 172.621,-23.2849"/>
</g>
</g>
</svg>
