<?xml version="1.0" encoding="UTF-8" standalone="no"?>
<!DOCTYPE svg PUBLIC "-//W3C//DTD SVG 1.1//EN"
 "http://www.w3.org/Graphics/SVG/1.1/DTD/svg11.dtd">
<!-- Generated by graphviz version 2.36.0 (20140111.2315)
 -->
<!-- Title: gui.textAreas.StatusBox Pages: 1 -->
<svg width="192pt" height="166pt"
 viewBox="0.00 0.00 192.00 166.00" xmlns="http://www.w3.org/2000/svg" xmlns:xlink="http://www.w3.org/1999/xlink">
<g id="graph0" class="graph" transform="scale(1 1) rotate(0) translate(4 162)">
<title>gui.textAreas.StatusBox</title>
<polygon fill="white" stroke="none" points="-4,4 -4,-162 188,-162 188,4 -4,4"/>
<!-- Node1 -->
<g id="node1" class="node"><title>Node1</title>
<polygon fill="#bfbfbf" stroke="black" points="20.5,-0.5 20.5,-19.5 153.5,-19.5 153.5,-0.5 20.5,-0.5"/>
<text text-anchor="middle" x="87" y="-7.5" font-family="Helvetica,sans-Serif" font-size="10.00">gui.textAreas.StatusBox</text>
</g>
<!-- Node2 -->
<g id="node2" class="node"><title>Node2</title>
<g id="a_node2"><a xlink:href="../../d8/d85/classgui_1_1text_areas_1_1_abstract_editable_text_box.html" target="_top" xlink:title="gui.textAreas.AbstractEditable\lTextBox">
<polygon fill="white" stroke="black" points="6,-59 6,-89 168,-89 168,-59 6,-59"/>
<text text-anchor="start" x="14" y="-77" font-family="Helvetica,sans-Serif" font-size="10.00">gui.textAreas.AbstractEditable</text>
<text text-anchor="middle" x="87" y="-66" font-family="Helvetica,sans-Serif" font-size="10.00">TextBox</text>
</a>
</g>
</g>
<!-- Node2&#45;&gt;Node1 -->
<g id="edge1" class="edge"><title>Node2&#45;&gt;Node1</title>
<path fill="none" stroke="midnightblue" d="M87,-48.8706C87,-38.6625 87,-27.4077 87,-19.8419"/>
<polygon fill="midnightblue" stroke="midnightblue" points="83.5001,-48.9312 87,-58.9312 90.5001,-48.9313 83.5001,-48.9312"/>
</g>
<!-- Node3 -->
<g id="node3" class="node"><title>Node3</title>
<polygon fill="white" stroke="#bfbfbf" points="0,-138.5 0,-157.5 48,-157.5 48,-138.5 0,-138.5"/>
<text text-anchor="middle" x="24" y="-145.5" font-family="Helvetica,sans-Serif" font-size="10.00">Region</text>
</g>
<!-- Node3&#45;&gt;Node2 -->
<g id="edge2" class="edge"><title>Node3&#45;&gt;Node2</title>
<path fill="none" stroke="midnightblue" d="M38.2945,-130.663C49.2141,-118.184 64.1131,-101.156 74.5473,-89.2316"/>
<polygon fill="midnightblue" stroke="midnightblue" points="35.4254,-128.627 31.4743,-138.458 40.6934,-133.237 35.4254,-128.627"/>
</g>
<!-- Node4 -->
<g id="node4" class="node"><title>Node4</title>
<polygon fill="white" stroke="#bfbfbf" points="66,-138.5 66,-157.5 108,-157.5 108,-138.5 66,-138.5"/>
<text text-anchor="middle" x="87" y="-145.5" font-family="Helvetica,sans-Serif" font-size="10.00">Label</text>
</g>
<!-- Node4&#45;&gt;Node2 -->
<g id="edge3" class="edge"><title>Node4&#45;&gt;Node2</title>
<path fill="none" stroke="#9a32cd" stroke-dasharray="5,2" d="M87,-128.085C87,-115.915 87,-100.354 87,-89.2316"/>
<polygon fill="#9a32cd" stroke="#9a32cd" points="83.5001,-128.458 87,-138.458 90.5001,-128.458 83.5001,-128.458"/>
<text text-anchor="middle" x="100" y="-111.5" font-family="Helvetica,sans-Serif" font-size="10.00"> label</text>
</g>
<!-- Node5 -->
<g id="node5" class="node"><title>Node5</title>
<polygon fill="white" stroke="#bfbfbf" points="126,-138.5 126,-157.5 184,-157.5 184,-138.5 126,-138.5"/>
<text text-anchor="middle" x="155" y="-145.5" font-family="Helvetica,sans-Serif" font-size="10.00">TextArea</text>
</g>
<!-- Node5&#45;&gt;Node2 -->
<g id="edge4" class="edge"><title>Node5&#45;&gt;Node2</title>
<path fill="none" stroke="#9a32cd" stroke-dasharray="5,2" d="M139.91,-131.022C128.094,-118.512 111.812,-101.271 100.441,-89.2316"/>
<polygon fill="#9a32cd" stroke="#9a32cd" points="137.522,-133.591 146.932,-138.458 142.611,-128.785 137.522,-133.591"/>
<text text-anchor="middle" x="151.5" y="-111.5" font-family="Helvetica,sans-Serif" font-size="10.00"> textArea</text>
</g>
</g>
</svg>
