<?xml version="1.0" encoding="UTF-8" standalone="no"?>
<!DOCTYPE svg PUBLIC "-//W3C//DTD SVG 1.1//EN"
 "http://www.w3.org/Graphics/SVG/1.1/DTD/svg11.dtd">
<!-- Generated by graphviz version 2.36.0 (20140111.2315)
 -->
<!-- Title: backend.Model.executeAllCommands Pages: 1 -->
<svg width="578pt" height="38pt"
 viewBox="0.00 0.00 578.00 38.00" xmlns="http://www.w3.org/2000/svg" xmlns:xlink="http://www.w3.org/1999/xlink">
<g id="graph0" class="graph" transform="scale(1 1) rotate(0) translate(4 34)">
<title>backend.Model.executeAllCommands</title>
<polygon fill="white" stroke="none" points="-4,4 -4,-34 574,-34 574,4 -4,4"/>
<!-- Node1 -->
<g id="node1" class="node"><title>Node1</title>
<polygon fill="#bfbfbf" stroke="black" points="0.5,-0 0.5,-30 141.5,-30 141.5,-0 0.5,-0"/>
<text text-anchor="start" x="8.5" y="-18" font-family="Helvetica,sans-Serif" font-size="10.00">backend.Model.executeAll</text>
<text text-anchor="middle" x="71" y="-7" font-family="Helvetica,sans-Serif" font-size="10.00">Commands</text>
</g>
<!-- Node2 -->
<g id="node2" class="node"><title>Node2</title>
<g id="a_node2"><a xlink:href="../../d3/dac/classbackend_1_1_model.html#a35eb5f238db8bb7d76ebf7f820643a2b" target="_top" xlink:title="backend.Model.executeNext\lCommand">
<polygon fill="white" stroke="black" points="178,-0 178,-30 330,-30 330,-0 178,-0"/>
<text text-anchor="start" x="186" y="-18" font-family="Helvetica,sans-Serif" font-size="10.00">backend.Model.executeNext</text>
<text text-anchor="middle" x="254" y="-7" font-family="Helvetica,sans-Serif" font-size="10.00">Command</text>
</a>
</g>
</g>
<!-- Node1&#45;&gt;Node2 -->
<g id="edge1" class="edge"><title>Node1&#45;&gt;Node2</title>
<path fill="none" stroke="midnightblue" d="M141.72,-15C150.238,-15 159.016,-15 167.728,-15"/>
<polygon fill="midnightblue" stroke="midnightblue" points="167.907,-18.5001 177.907,-15 167.907,-11.5001 167.907,-18.5001"/>
</g>
<!-- Node3 -->
<g id="node3" class="node"><title>Node3</title>
<g id="a_node3"><a xlink:href="../../dc/d83/classbackend_1_1command_1_1_command.html#af87287df30654e3519de27f646d0684d" target="_top" xlink:title="backend.command.Command.execute">
<polygon fill="white" stroke="black" points="366.5,-5.5 366.5,-24.5 569.5,-24.5 569.5,-5.5 366.5,-5.5"/>
<text text-anchor="middle" x="468" y="-12.5" font-family="Helvetica,sans-Serif" font-size="10.00">backend.command.Command.execute</text>
</a>
</g>
</g>
<!-- Node2&#45;&gt;Node3 -->
<g id="edge2" class="edge"><title>Node2&#45;&gt;Node3</title>
<path fill="none" stroke="midnightblue" d="M330.042,-15C338.609,-15 347.473,-15 356.38,-15"/>
<polygon fill="midnightblue" stroke="midnightblue" points="356.442,-18.5001 366.442,-15 356.442,-11.5001 356.442,-18.5001"/>
</g>
</g>
</svg>
