<?xml version="1.0" encoding="UTF-8" standalone="no"?>
<!DOCTYPE svg PUBLIC "-//W3C//DTD SVG 1.1//EN"
 "http://www.w3.org/Graphics/SVG/1.1/DTD/svg11.dtd">
<!-- Generated by graphviz version 2.36.0 (20140111.2315)
 -->
<!-- Title: backend.Model.getUserVariables Pages: 1 -->
<svg width="1068pt" height="202pt"
 viewBox="0.00 0.00 1068.00 202.00" xmlns="http://www.w3.org/2000/svg" xmlns:xlink="http://www.w3.org/1999/xlink">
<g id="graph0" class="graph" transform="scale(1 1) rotate(0) translate(4 198)">
<title>backend.Model.getUserVariables</title>
<polygon fill="white" stroke="none" points="-4,4 -4,-198 1064,-198 1064,4 -4,4"/>
<!-- Node1 -->
<g id="node1" class="node"><title>Node1</title>
<polygon fill="#bfbfbf" stroke="black" points="0.5,-128.5 0.5,-147.5 173.5,-147.5 173.5,-128.5 0.5,-128.5"/>
<text text-anchor="middle" x="87" y="-135.5" font-family="Helvetica,sans-Serif" font-size="10.00">backend.Model.getUserVariables</text>
</g>
<!-- Node2 -->
<g id="node2" class="node"><title>Node2</title>
<g id="a_node2"><a xlink:href="../../d5/d8a/classgui_1_1_slogo_tab.html#a03a42aa384aecd96eb89297dd88de728" target="_top" xlink:title="gui.SlogoTab.setVariablesBox">
<polygon fill="white" stroke="black" points="240,-158.5 240,-177.5 396,-177.5 396,-158.5 240,-158.5"/>
<text text-anchor="middle" x="318" y="-165.5" font-family="Helvetica,sans-Serif" font-size="10.00">gui.SlogoTab.setVariablesBox</text>
</a>
</g>
</g>
<!-- Node1&#45;&gt;Node2 -->
<g id="edge1" class="edge"><title>Node1&#45;&gt;Node2</title>
<path fill="none" stroke="midnightblue" d="M170.941,-148.866C194.991,-152.016 221.055,-155.431 244.418,-158.491"/>
<polygon fill="midnightblue" stroke="midnightblue" points="171.142,-145.362 160.772,-147.533 170.232,-152.303 171.142,-145.362"/>
</g>
<!-- Node6 -->
<g id="node6" class="node"><title>Node6</title>
<g id="a_node6"><a xlink:href="../../dc/d67/classbackend_1_1command_1_1_model_command.html#a1900a3c4024fdcd4f3b82e1916a4bb3e" target="_top" xlink:title="backend.command.ModelCommand.user\lVariables">
<polygon fill="white" stroke="black" points="210.5,-93 210.5,-123 425.5,-123 425.5,-93 210.5,-93"/>
<text text-anchor="start" x="218.5" y="-111" font-family="Helvetica,sans-Serif" font-size="10.00">backend.command.ModelCommand.user</text>
<text text-anchor="middle" x="318" y="-100" font-family="Helvetica,sans-Serif" font-size="10.00">Variables</text>
</a>
</g>
</g>
<!-- Node1&#45;&gt;Node6 -->
<g id="edge5" class="edge"><title>Node1&#45;&gt;Node6</title>
<path fill="none" stroke="midnightblue" d="M170.866,-127.144C183.621,-125.473 196.944,-123.728 210.132,-122"/>
<polygon fill="midnightblue" stroke="midnightblue" points="170.232,-123.697 160.772,-128.467 171.142,-130.638 170.232,-123.697"/>
</g>
<!-- Node3 -->
<g id="node3" class="node"><title>Node3</title>
<g id="a_node3"><a xlink:href="../../d5/d8a/classgui_1_1_slogo_tab.html#a9ccb322bec15528476c85f84e53f14d9" target="_top" xlink:title="gui.SlogoTab.updatePanels">
<polygon fill="white" stroke="black" points="499,-174.5 499,-193.5 643,-193.5 643,-174.5 499,-174.5"/>
<text text-anchor="middle" x="571" y="-181.5" font-family="Helvetica,sans-Serif" font-size="10.00">gui.SlogoTab.updatePanels</text>
</a>
</g>
</g>
<!-- Node2&#45;&gt;Node3 -->
<g id="edge2" class="edge"><title>Node2&#45;&gt;Node3</title>
<path fill="none" stroke="midnightblue" d="M406.13,-173.554C436.366,-175.481 469.888,-177.618 498.696,-179.455"/>
<polygon fill="midnightblue" stroke="midnightblue" points="406.216,-170.053 396.014,-172.909 405.771,-177.038 406.216,-170.053"/>
</g>
<!-- Node4 -->
<g id="node4" class="node"><title>Node4</title>
<g id="a_node4"><a xlink:href="../../d5/d8a/classgui_1_1_slogo_tab.html#a2a016875b2ea48fa761cd4408a78dd21" target="_top" xlink:title="gui.SlogoTab.setButtonActions">
<polygon fill="white" stroke="black" points="728,-174.5 728,-193.5 890,-193.5 890,-174.5 728,-174.5"/>
<text text-anchor="middle" x="809" y="-181.5" font-family="Helvetica,sans-Serif" font-size="10.00">gui.SlogoTab.setButtonActions</text>
</a>
</g>
</g>
<!-- Node3&#45;&gt;Node4 -->
<g id="edge3" class="edge"><title>Node3&#45;&gt;Node4</title>
<path fill="none" stroke="midnightblue" d="M653.32,-184C677.459,-184 703.872,-184 727.931,-184"/>
<polygon fill="midnightblue" stroke="midnightblue" points="653.128,-180.5 643.128,-184 653.128,-187.5 653.128,-180.5"/>
</g>
<!-- Node5 -->
<g id="node5" class="node"><title>Node5</title>
<g id="a_node5"><a xlink:href="../../d5/d8a/classgui_1_1_slogo_tab.html#adaa134bc95e1dcf4eb30b3a185c75175" target="_top" xlink:title="gui.SlogoTab.SlogoTab">
<polygon fill="white" stroke="black" points="938,-174.5 938,-193.5 1060,-193.5 1060,-174.5 938,-174.5"/>
<text text-anchor="middle" x="999" y="-181.5" font-family="Helvetica,sans-Serif" font-size="10.00">gui.SlogoTab.SlogoTab</text>
</a>
</g>
</g>
<!-- Node4&#45;&gt;Node5 -->
<g id="edge4" class="edge"><title>Node4&#45;&gt;Node5</title>
<path fill="none" stroke="midnightblue" d="M900.176,-184C912.911,-184 925.739,-184 937.724,-184"/>
<polygon fill="midnightblue" stroke="midnightblue" points="900.002,-180.5 890.002,-184 900.001,-187.5 900.002,-180.5"/>
</g>
<!-- Node7 -->
<g id="node7" class="node"><title>Node7</title>
<g id="a_node7"><a xlink:href="../../de/d1a/classbackend_1_1command_1_1_for.html#ab76f75506018a6dc4787ded9ba77212a" target="_top" xlink:title="backend.command.For.forLoop">
<polygon fill="white" stroke="black" points="488.5,-136.5 488.5,-155.5 653.5,-155.5 653.5,-136.5 488.5,-136.5"/>
<text text-anchor="middle" x="571" y="-143.5" font-family="Helvetica,sans-Serif" font-size="10.00">backend.command.For.forLoop</text>
</a>
</g>
</g>
<!-- Node6&#45;&gt;Node7 -->
<g id="edge6" class="edge"><title>Node6&#45;&gt;Node7</title>
<path fill="none" stroke="midnightblue" d="M428.115,-124.519C455.173,-128.616 483.266,-132.869 507.244,-136.499"/>
<polygon fill="midnightblue" stroke="midnightblue" points="428.613,-121.055 418.202,-123.019 427.565,-127.976 428.613,-121.055"/>
</g>
<!-- Node10 -->
<g id="node10" class="node"><title>Node10</title>
<g id="a_node10"><a xlink:href="../../d5/d51/classbackend_1_1command_1_1_make_variable.html#a46293667b91eaef383df43ebde1445c1" target="_top" xlink:title="backend.command.MakeVariable.execute">
<polygon fill="white" stroke="black" points="462.5,-98.5 462.5,-117.5 679.5,-117.5 679.5,-98.5 462.5,-98.5"/>
<text text-anchor="middle" x="571" y="-105.5" font-family="Helvetica,sans-Serif" font-size="10.00">backend.command.MakeVariable.execute</text>
</a>
</g>
</g>
<!-- Node6&#45;&gt;Node10 -->
<g id="edge9" class="edge"><title>Node6&#45;&gt;Node10</title>
<path fill="none" stroke="midnightblue" d="M435.815,-108C444.706,-108 453.656,-108 462.485,-108"/>
<polygon fill="midnightblue" stroke="midnightblue" points="435.811,-104.5 425.811,-108 435.811,-111.5 435.811,-104.5"/>
</g>
<!-- Node11 -->
<g id="node11" class="node"><title>Node11</title>
<g id="a_node11"><a xlink:href="../../d4/d4b/classbackend_1_1command_1_1_user_instruction_retriever.html#ab3f52c78c36f90b0e945239a316d6ecb" target="_top" xlink:title="backend.command.UserInstruction\lRetriever.genVariables">
<polygon fill="white" stroke="black" points="478.5,-49 478.5,-79 663.5,-79 663.5,-49 478.5,-49"/>
<text text-anchor="start" x="486.5" y="-67" font-family="Helvetica,sans-Serif" font-size="10.00">backend.command.UserInstruction</text>
<text text-anchor="middle" x="571" y="-56" font-family="Helvetica,sans-Serif" font-size="10.00">Retriever.genVariables</text>
</a>
</g>
</g>
<!-- Node6&#45;&gt;Node11 -->
<g id="edge10" class="edge"><title>Node6&#45;&gt;Node11</title>
<path fill="none" stroke="midnightblue" d="M414.732,-91.2183C437.61,-87.2078 461.889,-82.9518 484.282,-79.0262"/>
<polygon fill="midnightblue" stroke="midnightblue" points="413.923,-87.8066 404.678,-92.9808 415.132,-94.7015 413.923,-87.8066"/>
</g>
<!-- Node13 -->
<g id="node13" class="node"><title>Node13</title>
<g id="a_node13"><a xlink:href="../../de/dc9/classbackend_1_1command_1_1_variable_retriever.html#a8a0e1a59be79d1e08cd4d1d44227fc27" target="_top" xlink:title="backend.command.Variable\lRetriever.execute">
<polygon fill="white" stroke="black" points="496,-0 496,-30 646,-30 646,-0 496,-0"/>
<text text-anchor="start" x="504" y="-18" font-family="Helvetica,sans-Serif" font-size="10.00">backend.command.Variable</text>
<text text-anchor="middle" x="571" y="-7" font-family="Helvetica,sans-Serif" font-size="10.00">Retriever.execute</text>
</a>
</g>
</g>
<!-- Node6&#45;&gt;Node13 -->
<g id="edge12" class="edge"><title>Node6&#45;&gt;Node13</title>
<path fill="none" stroke="midnightblue" d="M354.461,-88.0384C382.817,-72.7835 423.981,-52.1975 462,-39 472.796,-35.2522 484.408,-31.9501 495.873,-29.0889"/>
<polygon fill="midnightblue" stroke="midnightblue" points="352.471,-85.1365 345.358,-92.989 355.815,-91.2858 352.471,-85.1365"/>
</g>
<!-- Node8 -->
<g id="node8" class="node"><title>Node8</title>
<g id="a_node8"><a xlink:href="../../de/d1a/classbackend_1_1command_1_1_for.html#a49269498727ff3b774f81d3203262ea7" target="_top" xlink:title="backend.command.For.execute">
<polygon fill="white" stroke="black" points="725.5,-136.5 725.5,-155.5 892.5,-155.5 892.5,-136.5 725.5,-136.5"/>
<text text-anchor="middle" x="809" y="-143.5" font-family="Helvetica,sans-Serif" font-size="10.00">backend.command.For.execute</text>
</a>
</g>
</g>
<!-- Node7&#45;&gt;Node8 -->
<g id="edge7" class="edge"><title>Node7&#45;&gt;Node8</title>
<path fill="none" stroke="midnightblue" d="M663.718,-146C683.991,-146 705.355,-146 725.248,-146"/>
<polygon fill="midnightblue" stroke="midnightblue" points="663.548,-142.5 653.548,-146 663.548,-149.5 663.548,-142.5"/>
</g>
<!-- Node9 -->
<g id="node9" class="node"><title>Node9</title>
<g id="a_node9"><a xlink:href="../../d0/dca/classbackend_1_1command_1_1_repeat.html#a3dc2bb1a70043d7405283e7263e158ab" target="_top" xlink:title="backend.command.Repeat.execute">
<polygon fill="white" stroke="black" points="716,-98.5 716,-117.5 902,-117.5 902,-98.5 716,-98.5"/>
<text text-anchor="middle" x="809" y="-105.5" font-family="Helvetica,sans-Serif" font-size="10.00">backend.command.Repeat.execute</text>
</a>
</g>
</g>
<!-- Node7&#45;&gt;Node9 -->
<g id="edge8" class="edge"><title>Node7&#45;&gt;Node9</title>
<path fill="none" stroke="midnightblue" d="M641.149,-134.866C675.283,-129.37 716.04,-122.807 748.727,-117.544"/>
<polygon fill="midnightblue" stroke="midnightblue" points="640.565,-131.415 631.248,-136.46 641.677,-138.326 640.565,-131.415"/>
</g>
<!-- Node12 -->
<g id="node12" class="node"><title>Node12</title>
<g id="a_node12"><a xlink:href="../../d4/d4b/classbackend_1_1command_1_1_user_instruction_retriever.html#ad63b2a8c91a5c60e4157a89830a3e6ef" target="_top" xlink:title="backend.command.UserInstruction\lRetriever.execute">
<polygon fill="white" stroke="black" points="716.5,-49 716.5,-79 901.5,-79 901.5,-49 716.5,-49"/>
<text text-anchor="start" x="724.5" y="-67" font-family="Helvetica,sans-Serif" font-size="10.00">backend.command.UserInstruction</text>
<text text-anchor="middle" x="809" y="-56" font-family="Helvetica,sans-Serif" font-size="10.00">Retriever.execute</text>
</a>
</g>
</g>
<!-- Node11&#45;&gt;Node12 -->
<g id="edge11" class="edge"><title>Node11&#45;&gt;Node12</title>
<path fill="none" stroke="midnightblue" d="M673.835,-64C688.009,-64 702.5,-64 716.47,-64"/>
<polygon fill="midnightblue" stroke="midnightblue" points="673.582,-60.5001 663.582,-64 673.582,-67.5001 673.582,-60.5001"/>
</g>
</g>
</svg>
