<?xml version="1.0" encoding="UTF-8" standalone="no"?>
<!DOCTYPE svg PUBLIC "-//W3C//DTD SVG 1.1//EN"
 "http://www.w3.org/Graphics/SVG/1.1/DTD/svg11.dtd">
<!-- Generated by graphviz version 2.36.0 (20140111.2315)
 -->
<!-- Title: backend.Model.setLanguage Pages: 1 -->
<svg width="770pt" height="38pt"
 viewBox="0.00 0.00 770.00 38.00" xmlns="http://www.w3.org/2000/svg" xmlns:xlink="http://www.w3.org/1999/xlink">
<g id="graph0" class="graph" transform="scale(1 1) rotate(0) translate(4 34)">
<title>backend.Model.setLanguage</title>
<polygon fill="white" stroke="none" points="-4,4 -4,-34 766,-34 766,4 -4,4"/>
<!-- Node1 -->
<g id="node1" class="node"><title>Node1</title>
<polygon fill="#bfbfbf" stroke="black" points="0,-5.5 0,-24.5 154,-24.5 154,-5.5 0,-5.5"/>
<text text-anchor="middle" x="77" y="-12.5" font-family="Helvetica,sans-Serif" font-size="10.00">backend.Model.setLanguage</text>
</g>
<!-- Node2 -->
<g id="node2" class="node"><title>Node2</title>
<g id="a_node2"><a xlink:href="../../da/d26/classbackend_1_1_s_logo_parser.html#a83c48627f6266e49569fe3300cb464fd" target="_top" xlink:title="backend.SLogoParser.change\lLanguage">
<polygon fill="white" stroke="black" points="190,-0 190,-30 348,-30 348,-0 190,-0"/>
<text text-anchor="start" x="198" y="-18" font-family="Helvetica,sans-Serif" font-size="10.00">backend.SLogoParser.change</text>
<text text-anchor="middle" x="269" y="-7" font-family="Helvetica,sans-Serif" font-size="10.00">Language</text>
</a>
</g>
</g>
<!-- Node1&#45;&gt;Node2 -->
<g id="edge1" class="edge"><title>Node1&#45;&gt;Node2</title>
<path fill="none" stroke="midnightblue" d="M154.185,-15C162.645,-15 171.311,-15 179.902,-15"/>
<polygon fill="midnightblue" stroke="midnightblue" points="179.936,-18.5001 189.936,-15 179.936,-11.5001 179.936,-18.5001"/>
</g>
<!-- Node3 -->
<g id="node3" class="node"><title>Node3</title>
<g id="a_node3"><a xlink:href="../../da/d26/classbackend_1_1_s_logo_parser.html#a82d15a04544ef7a74f5108c32efe777c" target="_top" xlink:title="backend.SLogoParser.genPatternList">
<polygon fill="white" stroke="black" points="384.5,-5.5 384.5,-24.5 575.5,-24.5 575.5,-5.5 384.5,-5.5"/>
<text text-anchor="middle" x="480" y="-12.5" font-family="Helvetica,sans-Serif" font-size="10.00">backend.SLogoParser.genPatternList</text>
</a>
</g>
</g>
<!-- Node2&#45;&gt;Node3 -->
<g id="edge2" class="edge"><title>Node2&#45;&gt;Node3</title>
<path fill="none" stroke="midnightblue" d="M348.121,-15C356.621,-15 365.371,-15 374.123,-15"/>
<polygon fill="midnightblue" stroke="midnightblue" points="374.385,-18.5001 384.385,-15 374.385,-11.5001 374.385,-18.5001"/>
</g>
<!-- Node4 -->
<g id="node4" class="node"><title>Node4</title>
<g id="a_node4"><a xlink:href="../../da/d26/classbackend_1_1_s_logo_parser.html#a4c0e26367900e18f0f12c0d3382927c3" target="_top" xlink:title="backend.SLogoParser.make\lPatterns">
<polygon fill="white" stroke="black" points="612.5,-0 612.5,-30 761.5,-30 761.5,-0 612.5,-0"/>
<text text-anchor="start" x="620.5" y="-18" font-family="Helvetica,sans-Serif" font-size="10.00">backend.SLogoParser.make</text>
<text text-anchor="middle" x="687" y="-7" font-family="Helvetica,sans-Serif" font-size="10.00">Patterns</text>
</a>
</g>
</g>
<!-- Node3&#45;&gt;Node4 -->
<g id="edge3" class="edge"><title>Node3&#45;&gt;Node4</title>
<path fill="none" stroke="midnightblue" d="M575.699,-15C584.521,-15 593.421,-15 602.135,-15"/>
<polygon fill="midnightblue" stroke="midnightblue" points="602.263,-18.5001 612.263,-15 602.263,-11.5001 602.263,-18.5001"/>
</g>
</g>
</svg>
