<?xml version="1.0" encoding="UTF-8" standalone="no"?>
<!DOCTYPE svg PUBLIC "-//W3C//DTD SVG 1.1//EN"
 "http://www.w3.org/Graphics/SVG/1.1/DTD/svg11.dtd">
<!-- Generated by graphviz version 2.36.0 (20140111.2315)
 -->
<!-- Title: backend.Model.getImageMap Pages: 1 -->
<svg width="944pt" height="77pt"
 viewBox="0.00 0.00 944.00 77.00" xmlns="http://www.w3.org/2000/svg" xmlns:xlink="http://www.w3.org/1999/xlink">
<g id="graph0" class="graph" transform="scale(1 1) rotate(0) translate(4 73)">
<title>backend.Model.getImageMap</title>
<polygon fill="white" stroke="none" points="-4,4 -4,-73 940,-73 940,4 -4,4"/>
<!-- Node1 -->
<g id="node1" class="node"><title>Node1</title>
<polygon fill="#bfbfbf" stroke="black" points="0,-27.5 0,-46.5 158,-46.5 158,-27.5 0,-27.5"/>
<text text-anchor="middle" x="79" y="-34.5" font-family="Helvetica,sans-Serif" font-size="10.00">backend.Model.getImageMap</text>
</g>
<!-- Node2 -->
<g id="node2" class="node"><title>Node2</title>
<g id="a_node2"><a xlink:href="../../dc/d67/classbackend_1_1command_1_1_model_command.html#a3154dab6e0552c7d13b825dab24d1a54" target="_top" xlink:title="backend.command.ModelCommand.imageMap">
<polygon fill="white" stroke="black" points="194,-27.5 194,-46.5 438,-46.5 438,-27.5 194,-27.5"/>
<text text-anchor="middle" x="316" y="-34.5" font-family="Helvetica,sans-Serif" font-size="10.00">backend.command.ModelCommand.imageMap</text>
</a>
</g>
</g>
<!-- Node1&#45;&gt;Node2 -->
<g id="edge1" class="edge"><title>Node1&#45;&gt;Node2</title>
<path fill="none" stroke="midnightblue" d="M168.338,-37C176.704,-37 185.279,-37 193.881,-37"/>
<polygon fill="midnightblue" stroke="midnightblue" points="168.252,-33.5001 158.252,-37 168.252,-40.5001 168.252,-33.5001"/>
</g>
<!-- Node3 -->
<g id="node3" class="node"><title>Node3</title>
<g id="a_node3"><a xlink:href="../../df/d1e/classbackend_1_1command_1_1_get_shape.html#a6287c20e525d441f564a490bd27171fb" target="_top" xlink:title="backend.command.GetShape.execute">
<polygon fill="white" stroke="black" points="486.5,-49.5 486.5,-68.5 687.5,-68.5 687.5,-49.5 486.5,-49.5"/>
<text text-anchor="middle" x="587" y="-56.5" font-family="Helvetica,sans-Serif" font-size="10.00">backend.command.GetShape.execute</text>
</a>
</g>
</g>
<!-- Node2&#45;&gt;Node3 -->
<g id="edge2" class="edge"><title>Node2&#45;&gt;Node3</title>
<path fill="none" stroke="midnightblue" d="M443.778,-47.3685C458.041,-48.535 472.42,-49.7109 486.27,-50.8437"/>
<polygon fill="midnightblue" stroke="midnightblue" points="443.675,-43.8484 433.423,-46.5216 443.104,-50.8251 443.675,-43.8484"/>
</g>
<!-- Node4 -->
<g id="node4" class="node"><title>Node4</title>
<g id="a_node4"><a xlink:href="../../dc/d67/classbackend_1_1command_1_1_model_command.html#a539e1c4b7488f1f4833db3a5e2883723" target="_top" xlink:title="backend.command.ModelCommand.param\lToImage">
<polygon fill="white" stroke="black" points="474.5,-0 474.5,-30 699.5,-30 699.5,-0 474.5,-0"/>
<text text-anchor="start" x="482.5" y="-18" font-family="Helvetica,sans-Serif" font-size="10.00">backend.command.ModelCommand.param</text>
<text text-anchor="middle" x="587" y="-7" font-family="Helvetica,sans-Serif" font-size="10.00">ToImage</text>
</a>
</g>
</g>
<!-- Node2&#45;&gt;Node4 -->
<g id="edge3" class="edge"><title>Node2&#45;&gt;Node4</title>
<path fill="none" stroke="midnightblue" d="M443.685,-26.6392C453.976,-25.7975 464.328,-24.9508 474.5,-24.119"/>
<polygon fill="midnightblue" stroke="midnightblue" points="443.104,-23.1749 433.423,-27.4784 443.675,-30.1516 443.104,-23.1749"/>
</g>
<!-- Node5 -->
<g id="node5" class="node"><title>Node5</title>
<g id="a_node5"><a xlink:href="../../d5/dfe/classbackend_1_1command_1_1_set_shape.html#a45d3d7dfe3b3b7853d1818c84bf29be2" target="_top" xlink:title="backend.command.SetShape.execute">
<polygon fill="white" stroke="black" points="736,-5.5 736,-24.5 936,-24.5 936,-5.5 736,-5.5"/>
<text text-anchor="middle" x="836" y="-12.5" font-family="Helvetica,sans-Serif" font-size="10.00">backend.command.SetShape.execute</text>
</a>
</g>
</g>
<!-- Node4&#45;&gt;Node5 -->
<g id="edge4" class="edge"><title>Node4&#45;&gt;Node5</title>
<path fill="none" stroke="midnightblue" d="M709.742,-15C718.415,-15 727.099,-15 735.624,-15"/>
<polygon fill="midnightblue" stroke="midnightblue" points="709.577,-11.5001 699.577,-15 709.577,-18.5001 709.577,-11.5001"/>
</g>
</g>
</svg>
