<?xml version="1.0" encoding="UTF-8" standalone="no"?>
<!DOCTYPE svg PUBLIC "-//W3C//DTD SVG 1.1//EN"
 "http://www.w3.org/Graphics/SVG/1.1/DTD/svg11.dtd">
<!-- Generated by graphviz version 2.36.0 (20140111.2315)
 -->
<!-- Title: backend.Model.setLanguage Pages: 1 -->
<svg width="690pt" height="38pt"
 viewBox="0.00 0.00 690.00 38.00" xmlns="http://www.w3.org/2000/svg" xmlns:xlink="http://www.w3.org/1999/xlink">
<g id="graph0" class="graph" transform="scale(1 1) rotate(0) translate(4 34)">
<title>backend.Model.setLanguage</title>
<polygon fill="white" stroke="none" points="-4,4 -4,-34 686,-34 686,4 -4,4"/>
<!-- Node1 -->
<g id="node1" class="node"><title>Node1</title>
<polygon fill="#bfbfbf" stroke="black" points="0,-5.5 0,-24.5 154,-24.5 154,-5.5 0,-5.5"/>
<text text-anchor="middle" x="77" y="-12.5" font-family="Helvetica,sans-Serif" font-size="10.00">backend.Model.setLanguage</text>
</g>
<!-- Node2 -->
<g id="node2" class="node"><title>Node2</title>
<g id="a_node2"><a xlink:href="../../dd/d24/classgui_1_1_top_menu.html#aa9f461ca1d36369a75efbb935391e413" target="_top" xlink:title="gui.TopMenu.createLanguage\lMenuItems">
<polygon fill="white" stroke="black" points="190.5,-0 190.5,-30 347.5,-30 347.5,-0 190.5,-0"/>
<text text-anchor="start" x="198.5" y="-18" font-family="Helvetica,sans-Serif" font-size="10.00">gui.TopMenu.createLanguage</text>
<text text-anchor="middle" x="269" y="-7" font-family="Helvetica,sans-Serif" font-size="10.00">MenuItems</text>
</a>
</g>
</g>
<!-- Node1&#45;&gt;Node2 -->
<g id="edge1" class="edge"><title>Node1&#45;&gt;Node2</title>
<path fill="none" stroke="midnightblue" d="M164.283,-15C172.937,-15 181.688,-15 190.246,-15"/>
<polygon fill="midnightblue" stroke="midnightblue" points="164.186,-11.5001 154.185,-15 164.185,-18.5001 164.186,-11.5001"/>
</g>
<!-- Node3 -->
<g id="node3" class="node"><title>Node3</title>
<g id="a_node3"><a xlink:href="../../dd/d24/classgui_1_1_top_menu.html#a2b756e05f495e2d1a4f7ea156ae612d2" target="_top" xlink:title="gui.TopMenu.addMenuBar">
<polygon fill="white" stroke="black" points="384,-5.5 384,-24.5 524,-24.5 524,-5.5 384,-5.5"/>
<text text-anchor="middle" x="454" y="-12.5" font-family="Helvetica,sans-Serif" font-size="10.00">gui.TopMenu.addMenuBar</text>
</a>
</g>
</g>
<!-- Node2&#45;&gt;Node3 -->
<g id="edge2" class="edge"><title>Node2&#45;&gt;Node3</title>
<path fill="none" stroke="midnightblue" d="M357.86,-15C366.626,-15 375.437,-15 383.97,-15"/>
<polygon fill="midnightblue" stroke="midnightblue" points="357.609,-11.5001 347.608,-15 357.608,-18.5001 357.609,-11.5001"/>
</g>
<!-- Node4 -->
<g id="node4" class="node"><title>Node4</title>
<g id="a_node4"><a xlink:href="../../dd/d24/classgui_1_1_top_menu.html#a842402ab5dfa877cfac4e5677809675a" target="_top" xlink:title="gui.TopMenu.TopMenu">
<polygon fill="white" stroke="black" points="560.5,-5.5 560.5,-24.5 681.5,-24.5 681.5,-5.5 560.5,-5.5"/>
<text text-anchor="middle" x="621" y="-12.5" font-family="Helvetica,sans-Serif" font-size="10.00">gui.TopMenu.TopMenu</text>
</a>
</g>
</g>
<!-- Node3&#45;&gt;Node4 -->
<g id="edge3" class="edge"><title>Node3&#45;&gt;Node4</title>
<path fill="none" stroke="midnightblue" d="M534.297,-15C543.092,-15 551.936,-15 560.428,-15"/>
<polygon fill="midnightblue" stroke="midnightblue" points="534.019,-11.5001 524.019,-15 534.019,-18.5001 534.019,-11.5001"/>
</g>
</g>
</svg>
