<?xml version="1.0" encoding="UTF-8" standalone="no"?>
<!DOCTYPE svg PUBLIC "-//W3C//DTD SVG 1.1//EN"
 "http://www.w3.org/Graphics/SVG/1.1/DTD/svg11.dtd">
<!-- Generated by graphviz version 2.36.0 (20140111.2315)
 -->
<!-- Title: backend.Model.getColorMap Pages: 1 -->
<svg width="960pt" height="116pt"
 viewBox="0.00 0.00 960.00 116.00" xmlns="http://www.w3.org/2000/svg" xmlns:xlink="http://www.w3.org/1999/xlink">
<g id="graph0" class="graph" transform="scale(1 1) rotate(0) translate(4 112)">
<title>backend.Model.getColorMap</title>
<polygon fill="white" stroke="none" points="-4,4 -4,-112 956,-112 956,4 -4,4"/>
<!-- Node1 -->
<g id="node1" class="node"><title>Node1</title>
<polygon fill="#bfbfbf" stroke="black" points="0,-44.5 0,-63.5 152,-63.5 152,-44.5 0,-44.5"/>
<text text-anchor="middle" x="76" y="-51.5" font-family="Helvetica,sans-Serif" font-size="10.00">backend.Model.getColorMap</text>
</g>
<!-- Node2 -->
<g id="node2" class="node"><title>Node2</title>
<g id="a_node2"><a xlink:href="../../dc/d67/classbackend_1_1command_1_1_model_command.html#aa459b6ae4744fa0705aa08b95f7d9b0f" target="_top" xlink:title="backend.command.ModelCommand.colorMap">
<polygon fill="white" stroke="black" points="188.5,-44.5 188.5,-63.5 425.5,-63.5 425.5,-44.5 188.5,-44.5"/>
<text text-anchor="middle" x="307" y="-51.5" font-family="Helvetica,sans-Serif" font-size="10.00">backend.command.ModelCommand.colorMap</text>
</a>
</g>
</g>
<!-- Node1&#45;&gt;Node2 -->
<g id="edge1" class="edge"><title>Node1&#45;&gt;Node2</title>
<path fill="none" stroke="midnightblue" d="M162.501,-54C170.967,-54 179.659,-54 188.376,-54"/>
<polygon fill="midnightblue" stroke="midnightblue" points="162.3,-50.5001 152.3,-54 162.3,-57.5001 162.3,-50.5001"/>
</g>
<!-- Node3 -->
<g id="node3" class="node"><title>Node3</title>
<g id="a_node3"><a xlink:href="../../d9/d61/classbackend_1_1command_1_1_get_pen_color.html#a51ab64bb7cf54b848f05198278a3b20f" target="_top" xlink:title="backend.command.GetPenColor.execute">
<polygon fill="white" stroke="black" points="469,-88.5 469,-107.5 681,-107.5 681,-88.5 469,-88.5"/>
<text text-anchor="middle" x="575" y="-95.5" font-family="Helvetica,sans-Serif" font-size="10.00">backend.command.GetPenColor.execute</text>
</a>
</g>
</g>
<!-- Node2&#45;&gt;Node3 -->
<g id="edge2" class="edge"><title>Node2&#45;&gt;Node3</title>
<path fill="none" stroke="midnightblue" d="M375.642,-65.1889C419.131,-72.3826 475.028,-81.6287 516.395,-88.4713"/>
<polygon fill="midnightblue" stroke="midnightblue" points="376.155,-61.7263 365.718,-63.5473 375.013,-68.6325 376.155,-61.7263"/>
</g>
<!-- Node4 -->
<g id="node4" class="node"><title>Node4</title>
<g id="a_node4"><a xlink:href="../../dc/d67/classbackend_1_1command_1_1_model_command.html#ab1aeefecd317fb74afe685c140d17c55" target="_top" xlink:title="backend.command.ModelCommand.param\lToColor">
<polygon fill="white" stroke="black" points="462.5,-39 462.5,-69 687.5,-69 687.5,-39 462.5,-39"/>
<text text-anchor="start" x="470.5" y="-57" font-family="Helvetica,sans-Serif" font-size="10.00">backend.command.ModelCommand.param</text>
<text text-anchor="middle" x="575" y="-46" font-family="Helvetica,sans-Serif" font-size="10.00">ToColor</text>
</a>
</g>
</g>
<!-- Node2&#45;&gt;Node4 -->
<g id="edge3" class="edge"><title>Node2&#45;&gt;Node4</title>
<path fill="none" stroke="midnightblue" d="M436.065,-54C444.8,-54 453.564,-54 462.205,-54"/>
<polygon fill="midnightblue" stroke="midnightblue" points="435.833,-50.5001 425.833,-54 435.833,-57.5001 435.833,-50.5001"/>
</g>
<!-- Node7 -->
<g id="node7" class="node"><title>Node7</title>
<g id="a_node7"><a xlink:href="../../d6/db5/classbackend_1_1command_1_1_set_palette.html#af4a93cf60d2c74b3de7c350e690f0911" target="_top" xlink:title="backend.command.SetPalette.execute">
<polygon fill="white" stroke="black" points="473.5,-0.5 473.5,-19.5 676.5,-19.5 676.5,-0.5 473.5,-0.5"/>
<text text-anchor="middle" x="575" y="-7.5" font-family="Helvetica,sans-Serif" font-size="10.00">backend.command.SetPalette.execute</text>
</a>
</g>
</g>
<!-- Node2&#45;&gt;Node7 -->
<g id="edge6" class="edge"><title>Node2&#45;&gt;Node7</title>
<path fill="none" stroke="midnightblue" d="M375.642,-42.8111C419.131,-35.6174 475.028,-26.3713 516.395,-19.5287"/>
<polygon fill="midnightblue" stroke="midnightblue" points="375.013,-39.3675 365.718,-44.4527 376.155,-46.2737 375.013,-39.3675"/>
</g>
<!-- Node5 -->
<g id="node5" class="node"><title>Node5</title>
<g id="a_node5"><a xlink:href="../../de/d47/classbackend_1_1command_1_1_set_background.html#a32cf6de8fa8a7b154fa1124e2efb6c5c" target="_top" xlink:title="backend.command.SetBackground.execute">
<polygon fill="white" stroke="black" points="724.5,-63.5 724.5,-82.5 951.5,-82.5 951.5,-63.5 724.5,-63.5"/>
<text text-anchor="middle" x="838" y="-70.5" font-family="Helvetica,sans-Serif" font-size="10.00">backend.command.SetBackground.execute</text>
</a>
</g>
</g>
<!-- Node4&#45;&gt;Node5 -->
<g id="edge4" class="edge"><title>Node4&#45;&gt;Node5</title>
<path fill="none" stroke="midnightblue" d="M698.022,-62.8828C706.737,-63.5173 715.503,-64.1554 724.163,-64.7858"/>
<polygon fill="midnightblue" stroke="midnightblue" points="698.051,-59.3758 687.823,-62.1404 697.543,-66.3573 698.051,-59.3758"/>
</g>
<!-- Node6 -->
<g id="node6" class="node"><title>Node6</title>
<g id="a_node6"><a xlink:href="../../df/df8/classbackend_1_1command_1_1_set_pen_color.html#ae59f12abe2013dd21d4090d7c94c669d" target="_top" xlink:title="backend.command.SetPenColor.execute">
<polygon fill="white" stroke="black" points="732,-25.5 732,-44.5 944,-44.5 944,-25.5 732,-25.5"/>
<text text-anchor="middle" x="838" y="-32.5" font-family="Helvetica,sans-Serif" font-size="10.00">backend.command.SetPenColor.execute</text>
</a>
</g>
</g>
<!-- Node4&#45;&gt;Node6 -->
<g id="edge5" class="edge"><title>Node4&#45;&gt;Node6</title>
<path fill="none" stroke="midnightblue" d="M698.081,-45.1129C709.285,-44.2972 720.573,-43.4755 731.612,-42.6719"/>
<polygon fill="midnightblue" stroke="midnightblue" points="697.543,-41.6427 687.823,-45.8596 698.051,-48.6242 697.543,-41.6427"/>
</g>
</g>
</svg>
