<?xml version="1.0" encoding="UTF-8" standalone="no"?>
<!DOCTYPE svg PUBLIC "-//W3C//DTD SVG 1.1//EN"
 "http://www.w3.org/Graphics/SVG/1.1/DTD/svg11.dtd">
<!-- Generated by graphviz version 2.36.0 (20140111.2315)
 -->
<!-- Title: backend.Model.getUserFunctions Pages: 1 -->
<svg width="1102pt" height="175pt"
 viewBox="0.00 0.00 1102.00 175.00" xmlns="http://www.w3.org/2000/svg" xmlns:xlink="http://www.w3.org/1999/xlink">
<g id="graph0" class="graph" transform="scale(1 1) rotate(0) translate(4 171)">
<title>backend.Model.getUserFunctions</title>
<polygon fill="white" stroke="none" points="-4,4 -4,-171 1098,-171 1098,4 -4,4"/>
<!-- Node1 -->
<g id="node1" class="node"><title>Node1</title>
<polygon fill="#bfbfbf" stroke="black" points="0.5,-98.5 0.5,-117.5 175.5,-117.5 175.5,-98.5 0.5,-98.5"/>
<text text-anchor="middle" x="88" y="-105.5" font-family="Helvetica,sans-Serif" font-size="10.00">backend.Model.getUserFunctions</text>
</g>
<!-- Node2 -->
<g id="node2" class="node"><title>Node2</title>
<g id="a_node2"><a xlink:href="../../dc/d67/classbackend_1_1command_1_1_model_command.html#a73e8a709d97712856afafc9b8557d0cf" target="_top" xlink:title="backend.command.ModelCommand.user\lInstructions">
<polygon fill="white" stroke="black" points="212.5,-93 212.5,-123 427.5,-123 427.5,-93 212.5,-93"/>
<text text-anchor="start" x="220.5" y="-111" font-family="Helvetica,sans-Serif" font-size="10.00">backend.command.ModelCommand.user</text>
<text text-anchor="middle" x="320" y="-100" font-family="Helvetica,sans-Serif" font-size="10.00">Instructions</text>
</a>
</g>
</g>
<!-- Node1&#45;&gt;Node2 -->
<g id="edge1" class="edge"><title>Node1&#45;&gt;Node2</title>
<path fill="none" stroke="midnightblue" d="M185.816,-108C194.565,-108 203.457,-108 212.284,-108"/>
<polygon fill="midnightblue" stroke="midnightblue" points="185.625,-104.5 175.625,-108 185.625,-111.5 185.625,-104.5"/>
</g>
<!-- Node3 -->
<g id="node3" class="node"><title>Node3</title>
<g id="a_node3"><a xlink:href="../../d0/d1f/classbackend_1_1command_1_1_make_user_instruction.html#a7e3e6ee2e96187d9bbbcef435311b39c" target="_top" xlink:title="backend.command.MakeUser\lInstruction.addToInstrList">
<polygon fill="white" stroke="black" points="477,-127 477,-157 637,-157 637,-127 477,-127"/>
<text text-anchor="start" x="485" y="-145" font-family="Helvetica,sans-Serif" font-size="10.00">backend.command.MakeUser</text>
<text text-anchor="middle" x="557" y="-134" font-family="Helvetica,sans-Serif" font-size="10.00">Instruction.addToInstrList</text>
</a>
</g>
</g>
<!-- Node2&#45;&gt;Node3 -->
<g id="edge2" class="edge"><title>Node2&#45;&gt;Node3</title>
<path fill="none" stroke="midnightblue" d="M435.024,-124.497C449.154,-126.541 463.352,-128.596 476.798,-130.541"/>
<polygon fill="midnightblue" stroke="midnightblue" points="435.157,-120.98 424.758,-123.012 434.154,-127.908 435.157,-120.98"/>
</g>
<!-- Node5 -->
<g id="node5" class="node"><title>Node5</title>
<g id="a_node5"><a xlink:href="../../d4/d4b/classbackend_1_1command_1_1_user_instruction_retriever.html#a0c307c83fd2ddbf0ad044af5e903daa9" target="_top" xlink:title="backend.command.UserInstruction\lRetriever.uic">
<polygon fill="white" stroke="black" points="464.5,-59 464.5,-89 649.5,-89 649.5,-59 464.5,-59"/>
<text text-anchor="start" x="472.5" y="-77" font-family="Helvetica,sans-Serif" font-size="10.00">backend.command.UserInstruction</text>
<text text-anchor="middle" x="557" y="-66" font-family="Helvetica,sans-Serif" font-size="10.00">Retriever.uic</text>
</a>
</g>
</g>
<!-- Node2&#45;&gt;Node5 -->
<g id="edge4" class="edge"><title>Node2&#45;&gt;Node5</title>
<path fill="none" stroke="midnightblue" d="M434.659,-91.5557C444.582,-90.1201 454.542,-88.6791 464.254,-87.2739"/>
<polygon fill="midnightblue" stroke="midnightblue" points="434.154,-88.0922 424.758,-92.9881 435.157,-95.0201 434.154,-88.0922"/>
</g>
<!-- Node4 -->
<g id="node4" class="node"><title>Node4</title>
<g id="a_node4"><a xlink:href="../../d0/d1f/classbackend_1_1command_1_1_make_user_instruction.html#a1e05c622cac9efddd5628bef0a9c6de9" target="_top" xlink:title="backend.command.MakeUser\lInstruction.setParam">
<polygon fill="white" stroke="black" points="699,-137 699,-167 859,-167 859,-137 699,-137"/>
<text text-anchor="start" x="707" y="-155" font-family="Helvetica,sans-Serif" font-size="10.00">backend.command.MakeUser</text>
<text text-anchor="middle" x="779" y="-144" font-family="Helvetica,sans-Serif" font-size="10.00">Instruction.setParam</text>
</a>
</g>
</g>
<!-- Node3&#45;&gt;Node4 -->
<g id="edge3" class="edge"><title>Node3&#45;&gt;Node4</title>
<path fill="none" stroke="midnightblue" d="M647.105,-146.05C664.232,-146.829 682.062,-147.639 698.849,-148.402"/>
<polygon fill="midnightblue" stroke="midnightblue" points="647.263,-142.554 637.114,-145.596 646.945,-149.547 647.263,-142.554"/>
</g>
<!-- Node6 -->
<g id="node6" class="node"><title>Node6</title>
<g id="a_node6"><a xlink:href="../../d4/d4b/classbackend_1_1command_1_1_user_instruction_retriever.html#a19a54335927c20b9d9121db5c8b2aea2" target="_top" xlink:title="backend.command.UserInstruction\lRetriever.UserInstructionRetriever">
<polygon fill="white" stroke="black" points="908.5,-71 908.5,-101 1093.5,-101 1093.5,-71 908.5,-71"/>
<text text-anchor="start" x="916.5" y="-89" font-family="Helvetica,sans-Serif" font-size="10.00">backend.command.UserInstruction</text>
<text text-anchor="middle" x="1001" y="-78" font-family="Helvetica,sans-Serif" font-size="10.00">Retriever.UserInstructionRetriever</text>
</a>
</g>
</g>
<!-- Node5&#45;&gt;Node6 -->
<g id="edge5" class="edge"><title>Node5&#45;&gt;Node6</title>
<path fill="none" stroke="midnightblue" d="M659.823,-86.1515C668.667,-86.899 677.486,-87.5357 686,-88 760.711,-92.0736 845.567,-91.2043 908.216,-89.5214"/>
<polygon fill="midnightblue" stroke="midnightblue" points="660.113,-82.6636 649.843,-85.2638 659.493,-89.6361 660.113,-82.6636"/>
</g>
<!-- Node7 -->
<g id="node7" class="node"><title>Node7</title>
<g id="a_node7"><a xlink:href="../../d4/d4b/classbackend_1_1command_1_1_user_instruction_retriever.html#a6684b5a57a7bccaf574babfb865c2a9b" target="_top" xlink:title="backend.command.UserInstruction\lRetriever.getNumParams">
<polygon fill="white" stroke="black" points="686.5,-49 686.5,-79 871.5,-79 871.5,-49 686.5,-49"/>
<text text-anchor="start" x="694.5" y="-67" font-family="Helvetica,sans-Serif" font-size="10.00">backend.command.UserInstruction</text>
<text text-anchor="middle" x="779" y="-56" font-family="Helvetica,sans-Serif" font-size="10.00">Retriever.getNumParams</text>
</a>
</g>
</g>
<!-- Node5&#45;&gt;Node7 -->
<g id="edge6" class="edge"><title>Node5&#45;&gt;Node7</title>
<path fill="none" stroke="midnightblue" d="M659.725,-69.3762C668.636,-68.9711 677.62,-68.5627 686.442,-68.1617"/>
<polygon fill="midnightblue" stroke="midnightblue" points="659.537,-65.8809 649.707,-69.8315 659.855,-72.8737 659.537,-65.8809"/>
</g>
<!-- Node8 -->
<g id="node8" class="node"><title>Node8</title>
<g id="a_node8"><a xlink:href="../../d4/d4b/classbackend_1_1command_1_1_user_instruction_retriever.html#ad63b2a8c91a5c60e4157a89830a3e6ef" target="_top" xlink:title="backend.command.UserInstruction\lRetriever.execute">
<polygon fill="white" stroke="black" points="686.5,-0 686.5,-30 871.5,-30 871.5,-0 686.5,-0"/>
<text text-anchor="start" x="694.5" y="-18" font-family="Helvetica,sans-Serif" font-size="10.00">backend.command.UserInstruction</text>
<text text-anchor="middle" x="779" y="-7" font-family="Helvetica,sans-Serif" font-size="10.00">Retriever.execute</text>
</a>
</g>
</g>
<!-- Node5&#45;&gt;Node8 -->
<g id="edge8" class="edge"><title>Node5&#45;&gt;Node8</title>
<path fill="none" stroke="midnightblue" d="M622.262,-56.2701C642.63,-50.6928 665.247,-44.5441 686,-39 697.004,-36.0604 708.759,-32.9619 720.062,-30.0037"/>
<polygon fill="midnightblue" stroke="midnightblue" points="621.18,-52.9375 612.461,-58.957 623.031,-59.6884 621.18,-52.9375"/>
</g>
<!-- Node7&#45;&gt;Node6 -->
<g id="edge7" class="edge"><title>Node7&#45;&gt;Node6</title>
<path fill="none" stroke="midnightblue" d="M881.725,-74.1725C890.636,-75.0636 899.62,-75.962 908.442,-76.8442"/>
<polygon fill="midnightblue" stroke="midnightblue" points="882.005,-70.6832 871.707,-73.1707 881.309,-77.6484 882.005,-70.6832"/>
</g>
</g>
</svg>
