<?xml version="1.0" encoding="UTF-8" standalone="no"?>
<!DOCTYPE svg PUBLIC "-//W3C//DTD SVG 1.1//EN"
 "http://www.w3.org/Graphics/SVG/1.1/DTD/svg11.dtd">
<!-- Generated by graphviz version 2.36.0 (20140111.2315)
 -->
<!-- Title: backend.Model.setUserVariable Pages: 1 -->
<svg width="380pt" height="66pt"
 viewBox="0.00 0.00 380.00 66.00" xmlns="http://www.w3.org/2000/svg" xmlns:xlink="http://www.w3.org/1999/xlink">
<g id="graph0" class="graph" transform="scale(1 1) rotate(0) translate(4 62)">
<title>backend.Model.setUserVariable</title>
<polygon fill="white" stroke="none" points="-4,4 -4,-62 376,-62 376,4 -4,4"/>
<!-- Node1 -->
<g id="node1" class="node"><title>Node1</title>
<polygon fill="#bfbfbf" stroke="black" points="0.5,-19.5 0.5,-38.5 167.5,-38.5 167.5,-19.5 0.5,-19.5"/>
<text text-anchor="middle" x="84" y="-26.5" font-family="Helvetica,sans-Serif" font-size="10.00">backend.Model.setUserVariable</text>
</g>
<!-- Node2 -->
<g id="node2" class="node"><title>Node2</title>
<g id="a_node2"><a xlink:href="../../d6/d9f/classbackend_1_1_variable.html#a63ab66e0ad71a93e753f3380dc62f8f9" target="_top" xlink:title="backend.Variable.getName">
<polygon fill="white" stroke="black" points="215,-38.5 215,-57.5 361,-57.5 361,-38.5 215,-38.5"/>
<text text-anchor="middle" x="288" y="-45.5" font-family="Helvetica,sans-Serif" font-size="10.00">backend.Variable.getName</text>
</a>
</g>
</g>
<!-- Node1&#45;&gt;Node2 -->
<g id="edge1" class="edge"><title>Node1&#45;&gt;Node2</title>
<path fill="none" stroke="midnightblue" d="M167.744,-36.7828C179.916,-37.9278 192.455,-39.1071 204.62,-40.2513"/>
<polygon fill="midnightblue" stroke="midnightblue" points="204.45,-43.7508 214.734,-41.2027 205.106,-36.7815 204.45,-43.7508"/>
</g>
<!-- Node3 -->
<g id="node3" class="node"><title>Node3</title>
<g id="a_node3"><a xlink:href="../../d3/dac/classbackend_1_1_model.html#a222c40805c83296a76bd758f7f12dd43" target="_top" xlink:title="backend.Model.setUserVariable">
<polygon fill="white" stroke="black" points="204.5,-0.5 204.5,-19.5 371.5,-19.5 371.5,-0.5 204.5,-0.5"/>
<text text-anchor="middle" x="288" y="-7.5" font-family="Helvetica,sans-Serif" font-size="10.00">backend.Model.setUserVariable</text>
</a>
</g>
</g>
<!-- Node1&#45;&gt;Node3 -->
<g id="edge2" class="edge"><title>Node1&#45;&gt;Node3</title>
<path fill="none" stroke="midnightblue" d="M167.744,-21.2172C176.531,-20.3906 185.509,-19.5462 194.399,-18.71"/>
<polygon fill="midnightblue" stroke="midnightblue" points="194.756,-22.1919 204.385,-17.7707 194.101,-15.2227 194.756,-22.1919"/>
</g>
</g>
</svg>
