<?xml version="1.0" encoding="UTF-8" standalone="no"?>
<!DOCTYPE svg PUBLIC "-//W3C//DTD SVG 1.1//EN"
 "http://www.w3.org/Graphics/SVG/1.1/DTD/svg11.dtd">
<!-- Generated by graphviz version 2.36.0 (20140111.2315)
 -->
<!-- Title: backend.Model.executeNextCommand Pages: 1 -->
<svg width="694pt" height="61pt"
 viewBox="0.00 0.00 694.00 61.00" xmlns="http://www.w3.org/2000/svg" xmlns:xlink="http://www.w3.org/1999/xlink">
<g id="graph0" class="graph" transform="scale(1 1) rotate(0) translate(4 57)">
<title>backend.Model.executeNextCommand</title>
<polygon fill="white" stroke="none" points="-4,4 -4,-57 690,-57 690,4 -4,4"/>
<!-- Node1 -->
<g id="node1" class="node"><title>Node1</title>
<polygon fill="#bfbfbf" stroke="black" points="0,-1 0,-31 152,-31 152,-1 0,-1"/>
<text text-anchor="start" x="8" y="-19" font-family="Helvetica,sans-Serif" font-size="10.00">backend.Model.executeNext</text>
<text text-anchor="middle" x="76" y="-8" font-family="Helvetica,sans-Serif" font-size="10.00">Command</text>
</g>
<!-- Node2 -->
<g id="node2" class="node"><title>Node2</title>
<g id="a_node2"><a xlink:href="../../d3/dac/classbackend_1_1_model.html#a6f4aa1ad8c07ad86d249671d525fbea3" target="_top" xlink:title="backend.Model.executeAll\lCommands">
<polygon fill="white" stroke="black" points="188.5,-23 188.5,-53 329.5,-53 329.5,-23 188.5,-23"/>
<text text-anchor="start" x="196.5" y="-41" font-family="Helvetica,sans-Serif" font-size="10.00">backend.Model.executeAll</text>
<text text-anchor="middle" x="259" y="-30" font-family="Helvetica,sans-Serif" font-size="10.00">Commands</text>
</a>
</g>
</g>
<!-- Node1&#45;&gt;Node2 -->
<g id="edge1" class="edge"><title>Node1&#45;&gt;Node2</title>
<path fill="none" stroke="midnightblue" d="M162.336,-26.3723C171.021,-27.428 179.771,-28.4915 188.262,-29.5236"/>
<polygon fill="midnightblue" stroke="midnightblue" points="162.537,-22.8711 152.188,-25.1389 161.692,-29.82 162.537,-22.8711"/>
</g>
<!-- Node3 -->
<g id="node3" class="node"><title>Node3</title>
<g id="a_node3"><a xlink:href="../../d5/d8a/classgui_1_1_slogo_tab.html#a2a016875b2ea48fa761cd4408a78dd21" target="_top" xlink:title="gui.SlogoTab.setButtonActions">
<polygon fill="white" stroke="black" points="366,-6.5 366,-25.5 528,-25.5 528,-6.5 366,-6.5"/>
<text text-anchor="middle" x="447" y="-13.5" font-family="Helvetica,sans-Serif" font-size="10.00">gui.SlogoTab.setButtonActions</text>
</a>
</g>
</g>
<!-- Node1&#45;&gt;Node3 -->
<g id="edge4" class="edge"><title>Node1&#45;&gt;Node3</title>
<path fill="none" stroke="midnightblue" d="M162.37,-14.3065C171.027,-14.1813 179.688,-14.0749 188,-14 251.109,-13.4315 266.891,-13.456 330,-14 341.581,-14.0998 353.812,-14.2557 365.816,-14.4374"/>
<polygon fill="midnightblue" stroke="midnightblue" points="162.176,-10.8089 152.23,-14.4613 162.283,-17.8081 162.176,-10.8089"/>
</g>
<!-- Node2&#45;&gt;Node3 -->
<g id="edge2" class="edge"><title>Node2&#45;&gt;Node3</title>
<path fill="none" stroke="midnightblue" d="M339.647,-28.5794C348.348,-27.5502 357.209,-26.5021 365.916,-25.4723"/>
<polygon fill="midnightblue" stroke="midnightblue" points="339.044,-25.1263 329.524,-29.7767 339.866,-32.0778 339.044,-25.1263"/>
</g>
<!-- Node4 -->
<g id="node4" class="node"><title>Node4</title>
<g id="a_node4"><a xlink:href="../../d5/d8a/classgui_1_1_slogo_tab.html#adaa134bc95e1dcf4eb30b3a185c75175" target="_top" xlink:title="gui.SlogoTab.SlogoTab">
<polygon fill="white" stroke="black" points="564,-6.5 564,-25.5 686,-25.5 686,-6.5 564,-6.5"/>
<text text-anchor="middle" x="625" y="-13.5" font-family="Helvetica,sans-Serif" font-size="10.00">gui.SlogoTab.SlogoTab</text>
</a>
</g>
</g>
<!-- Node3&#45;&gt;Node4 -->
<g id="edge3" class="edge"><title>Node3&#45;&gt;Node4</title>
<path fill="none" stroke="midnightblue" d="M538.235,-16C546.945,-16 555.626,-16 563.936,-16"/>
<polygon fill="midnightblue" stroke="midnightblue" points="538.018,-12.5001 528.018,-16 538.018,-19.5001 538.018,-12.5001"/>
</g>
</g>
</svg>
