<?xml version="1.0" encoding="UTF-8" standalone="no"?>
<!DOCTYPE svg PUBLIC "-//W3C//DTD SVG 1.1//EN"
 "http://www.w3.org/Graphics/SVG/1.1/DTD/svg11.dtd">
<!-- Generated by graphviz version 2.36.0 (20140111.2315)
 -->
<!-- Title: backend.Model.parseProgram Pages: 1 -->
<svg width="834pt" height="216pt"
 viewBox="0.00 0.00 834.00 216.00" xmlns="http://www.w3.org/2000/svg" xmlns:xlink="http://www.w3.org/1999/xlink">
<g id="graph0" class="graph" transform="scale(1 1) rotate(0) translate(4 212)">
<title>backend.Model.parseProgram</title>
<polygon fill="white" stroke="none" points="-4,4 -4,-212 830,-212 830,4 -4,4"/>
<!-- Node1 -->
<g id="node1" class="node"><title>Node1</title>
<polygon fill="#bfbfbf" stroke="black" points="0,-98.5 0,-117.5 160,-117.5 160,-98.5 0,-98.5"/>
<text text-anchor="middle" x="80" y="-105.5" font-family="Helvetica,sans-Serif" font-size="10.00">backend.Model.parseProgram</text>
</g>
<!-- Node2 -->
<g id="node2" class="node"><title>Node2</title>
<g id="a_node2"><a xlink:href="../../da/d26/classbackend_1_1_s_logo_parser.html#a86664390860bb0e249880e3116024485" target="_top" xlink:title="backend.SLogoParser.parse\lProgram">
<polygon fill="white" stroke="black" points="196.5,-93 196.5,-123 345.5,-123 345.5,-93 196.5,-93"/>
<text text-anchor="start" x="204.5" y="-111" font-family="Helvetica,sans-Serif" font-size="10.00">backend.SLogoParser.parse</text>
<text text-anchor="middle" x="271" y="-100" font-family="Helvetica,sans-Serif" font-size="10.00">Program</text>
</a>
</g>
</g>
<!-- Node1&#45;&gt;Node2 -->
<g id="edge1" class="edge"><title>Node1&#45;&gt;Node2</title>
<path fill="none" stroke="midnightblue" d="M160.058,-108C168.71,-108 177.539,-108 186.245,-108"/>
<polygon fill="midnightblue" stroke="midnightblue" points="186.391,-111.5 196.391,-108 186.391,-104.5 186.391,-111.5"/>
</g>
<!-- Node3 -->
<g id="node3" class="node"><title>Node3</title>
<g id="a_node3"><a xlink:href="../../da/d26/classbackend_1_1_s_logo_parser.html#a92ec53b6f04874545e5907a2127a2ec6" target="_top" xlink:title="backend.SLogoParser.genPropertyList">
<polygon fill="white" stroke="black" points="390.5,-182.5 390.5,-201.5 587.5,-201.5 587.5,-182.5 390.5,-182.5"/>
<text text-anchor="middle" x="489" y="-189.5" font-family="Helvetica,sans-Serif" font-size="10.00">backend.SLogoParser.genPropertyList</text>
</a>
</g>
</g>
<!-- Node2&#45;&gt;Node3 -->
<g id="edge2" class="edge"><title>Node2&#45;&gt;Node3</title>
<path fill="none" stroke="midnightblue" d="M297.016,-123.069C318.83,-135.69 351.647,-153.445 382,-165 397.653,-170.959 415.101,-176.017 431.251,-180.087"/>
<polygon fill="midnightblue" stroke="midnightblue" points="430.566,-183.522 441.11,-182.493 432.225,-176.722 430.566,-183.522"/>
</g>
<!-- Node5 -->
<g id="node5" class="node"><title>Node5</title>
<g id="a_node5"><a xlink:href="../../da/d26/classbackend_1_1_s_logo_parser.html#abf912baf814309e272be917bb52deb44" target="_top" xlink:title="backend.SLogoParser.bubbleUp">
<polygon fill="white" stroke="black" points="405,-98.5 405,-117.5 573,-117.5 573,-98.5 405,-98.5"/>
<text text-anchor="middle" x="489" y="-105.5" font-family="Helvetica,sans-Serif" font-size="10.00">backend.SLogoParser.bubbleUp</text>
</a>
</g>
</g>
<!-- Node2&#45;&gt;Node5 -->
<g id="edge4" class="edge"><title>Node2&#45;&gt;Node5</title>
<path fill="none" stroke="midnightblue" d="M345.731,-108C361.519,-108 378.398,-108 394.811,-108"/>
<polygon fill="midnightblue" stroke="midnightblue" points="394.957,-111.5 404.957,-108 394.957,-104.5 394.957,-111.5"/>
</g>
<!-- Node6 -->
<g id="node6" class="node"><title>Node6</title>
<g id="a_node6"><a xlink:href="../../dc/d83/classbackend_1_1command_1_1_command.html#a797a1969764a5e1f6c4f1c546900467f" target="_top" xlink:title="backend.command.Command.needs\lParams">
<polygon fill="white" stroke="black" points="632,-139 632,-169 826,-169 826,-139 632,-139"/>
<text text-anchor="start" x="640" y="-157" font-family="Helvetica,sans-Serif" font-size="10.00">backend.command.Command.needs</text>
<text text-anchor="middle" x="729" y="-146" font-family="Helvetica,sans-Serif" font-size="10.00">Params</text>
</a>
</g>
</g>
<!-- Node2&#45;&gt;Node6 -->
<g id="edge11" class="edge"><title>Node2&#45;&gt;Node6</title>
<path fill="none" stroke="midnightblue" d="M345.525,-121.675C357.681,-123.655 370.173,-125.52 382,-127 462.04,-137.013 552.991,-143.938 621.551,-148.265"/>
<polygon fill="midnightblue" stroke="midnightblue" points="621.73,-151.783 631.928,-148.911 622.165,-144.797 621.73,-151.783"/>
</g>
<!-- Node9 -->
<g id="node9" class="node"><title>Node9</title>
<g id="a_node9"><a xlink:href="../../d3/dd9/classbackend_1_1command_1_1_command_factory.html#a9bab90874aa013a30c13ea158ca54a1b" target="_top" xlink:title="backend.command.CommandFactory.get\lCommand">
<polygon fill="white" stroke="black" points="382,-49 382,-79 596,-79 596,-49 382,-49"/>
<text text-anchor="start" x="390" y="-67" font-family="Helvetica,sans-Serif" font-size="10.00">backend.command.CommandFactory.get</text>
<text text-anchor="middle" x="489" y="-56" font-family="Helvetica,sans-Serif" font-size="10.00">Command</text>
</a>
</g>
</g>
<!-- Node2&#45;&gt;Node9 -->
<g id="edge8" class="edge"><title>Node2&#45;&gt;Node9</title>
<path fill="none" stroke="midnightblue" d="M345.731,-92.9808C364.568,-89.1436 384.957,-84.9903 404.256,-81.0589"/>
<polygon fill="midnightblue" stroke="midnightblue" points="405.135,-84.4519 414.235,-79.0262 403.738,-77.5928 405.135,-84.4519"/>
</g>
<!-- Node11 -->
<g id="node11" class="node"><title>Node11</title>
<g id="a_node11"><a xlink:href="../../dc/d83/classbackend_1_1command_1_1_command.html#a9ef994d5348efbb5d5d07aae9e95f8c7" target="_top" xlink:title="backend.command.Command.set\lParam">
<polygon fill="white" stroke="black" points="399,-0 399,-30 579,-30 579,-0 399,-0"/>
<text text-anchor="start" x="407" y="-18" font-family="Helvetica,sans-Serif" font-size="10.00">backend.command.Command.set</text>
<text text-anchor="middle" x="489" y="-7" font-family="Helvetica,sans-Serif" font-size="10.00">Param</text>
</a>
</g>
</g>
<!-- Node2&#45;&gt;Node11 -->
<g id="edge10" class="edge"><title>Node2&#45;&gt;Node11</title>
<path fill="none" stroke="midnightblue" d="M291.556,-92.8483C312.726,-77.1593 348.034,-53.0194 382,-39 387.307,-36.8094 392.851,-34.8005 398.499,-32.961"/>
<polygon fill="midnightblue" stroke="midnightblue" points="399.546,-36.301 408.08,-30.0231 397.493,-29.6085 399.546,-36.301"/>
</g>
<!-- Node4 -->
<g id="node4" class="node"><title>Node4</title>
<g id="a_node4"><a xlink:href="../../da/d26/classbackend_1_1_s_logo_parser.html#a41ac32c750f00046deec48038e19664c" target="_top" xlink:title="backend.SLogoParser.match">
<polygon fill="white" stroke="black" points="652.5,-188.5 652.5,-207.5 805.5,-207.5 805.5,-188.5 652.5,-188.5"/>
<text text-anchor="middle" x="729" y="-195.5" font-family="Helvetica,sans-Serif" font-size="10.00">backend.SLogoParser.match</text>
</a>
</g>
</g>
<!-- Node3&#45;&gt;Node4 -->
<g id="edge3" class="edge"><title>Node3&#45;&gt;Node4</title>
<path fill="none" stroke="midnightblue" d="M587.834,-194.466C605.84,-194.92 624.513,-195.391 642.133,-195.835"/>
<polygon fill="midnightblue" stroke="midnightblue" points="642.288,-199.34 652.373,-196.093 642.465,-192.342 642.288,-199.34"/>
</g>
<!-- Node5&#45;&gt;Node6 -->
<g id="edge5" class="edge"><title>Node5&#45;&gt;Node6</title>
<path fill="none" stroke="midnightblue" d="M539.314,-117.531C568.436,-123.16 606.155,-130.45 640.206,-137.031"/>
<polygon fill="midnightblue" stroke="midnightblue" points="639.688,-140.496 650.17,-138.957 641.016,-133.623 639.688,-140.496"/>
</g>
<!-- Node7 -->
<g id="node7" class="node"><title>Node7</title>
<g id="a_node7"><a xlink:href="../../dc/d83/classbackend_1_1command_1_1_command.html#ac25177ccf23f2721bbe77b69a31c1bf7" target="_top" xlink:title="backend.command.Command.has\lParent">
<polygon fill="white" stroke="black" points="638,-90 638,-120 820,-120 820,-90 638,-90"/>
<text text-anchor="start" x="646" y="-108" font-family="Helvetica,sans-Serif" font-size="10.00">backend.command.Command.has</text>
<text text-anchor="middle" x="729" y="-97" font-family="Helvetica,sans-Serif" font-size="10.00">Parent</text>
</a>
</g>
</g>
<!-- Node5&#45;&gt;Node7 -->
<g id="edge6" class="edge"><title>Node5&#45;&gt;Node7</title>
<path fill="none" stroke="midnightblue" d="M573.241,-106.951C590.885,-106.728 609.685,-106.491 627.881,-106.262"/>
<polygon fill="midnightblue" stroke="midnightblue" points="627.961,-109.761 637.916,-106.136 627.873,-102.762 627.961,-109.761"/>
</g>
<!-- Node8 -->
<g id="node8" class="node"><title>Node8</title>
<g id="a_node8"><a xlink:href="../../dc/d83/classbackend_1_1command_1_1_command.html#a31b43fc38f3817b961dd64f94b2e8b30" target="_top" xlink:title="backend.command.Command.get\lParent">
<polygon fill="white" stroke="black" points="638.5,-41 638.5,-71 819.5,-71 819.5,-41 638.5,-41"/>
<text text-anchor="start" x="646.5" y="-59" font-family="Helvetica,sans-Serif" font-size="10.00">backend.command.Command.get</text>
<text text-anchor="middle" x="729" y="-48" font-family="Helvetica,sans-Serif" font-size="10.00">Parent</text>
</a>
</g>
</g>
<!-- Node5&#45;&gt;Node8 -->
<g id="edge7" class="edge"><title>Node5&#45;&gt;Node8</title>
<path fill="none" stroke="midnightblue" d="M543.489,-98.4611C560.329,-95.3097 578.974,-91.6675 596,-88 616.503,-83.5835 638.694,-78.373 658.924,-73.4535"/>
<polygon fill="midnightblue" stroke="midnightblue" points="659.8,-76.8425 668.682,-71.0665 658.136,-70.043 659.8,-76.8425"/>
</g>
<!-- Node10 -->
<g id="node10" class="node"><title>Node10</title>
<g id="a_node10"><a xlink:href="../../d0/d6a/classbackend_1_1_string_pair.html#a3c1a0b191da0a8faf50f4da7ca126b58" target="_top" xlink:title="backend.StringPair.getProperty">
<polygon fill="white" stroke="black" points="647,-2.5 647,-21.5 811,-21.5 811,-2.5 647,-2.5"/>
<text text-anchor="middle" x="729" y="-9.5" font-family="Helvetica,sans-Serif" font-size="10.00">backend.StringPair.getProperty</text>
</a>
</g>
</g>
<!-- Node9&#45;&gt;Node10 -->
<g id="edge9" class="edge"><title>Node9&#45;&gt;Node10</title>
<path fill="none" stroke="midnightblue" d="M553.956,-48.9217C584.219,-41.8308 616.968,-34.2333 632,-31 643.679,-28.4879 656.184,-25.9225 668.181,-23.5225"/>
<polygon fill="midnightblue" stroke="midnightblue" points="668.984,-26.9316 678.11,-21.5502 667.62,-20.0657 668.984,-26.9316"/>
</g>
</g>
</svg>
