<?xml version="1.0" encoding="UTF-8" standalone="no"?>
<!DOCTYPE svg PUBLIC "-//W3C//DTD SVG 1.1//EN"
 "http://www.w3.org/Graphics/SVG/1.1/DTD/svg11.dtd">
<!-- Generated by graphviz version 2.36.0 (20140111.2315)
 -->
<!-- Title: backend.Model.printCommandTree Pages: 1 -->
<svg width="410pt" height="77pt"
 viewBox="0.00 0.00 410.00 77.00" xmlns="http://www.w3.org/2000/svg" xmlns:xlink="http://www.w3.org/1999/xlink">
<g id="graph0" class="graph" transform="scale(1 1) rotate(0) translate(4 73)">
<title>backend.Model.printCommandTree</title>
<polygon fill="white" stroke="none" points="-4,4 -4,-73 406,-73 406,4 -4,4"/>
<!-- Node1 -->
<g id="node1" class="node"><title>Node1</title>
<polygon fill="#bfbfbf" stroke="black" points="0.5,-22.5 0.5,-41.5 183.5,-41.5 183.5,-22.5 0.5,-22.5"/>
<text text-anchor="middle" x="92" y="-29.5" font-family="Helvetica,sans-Serif" font-size="10.00">backend.Model.printCommandTree</text>
</g>
<!-- Node2 -->
<g id="node2" class="node"><title>Node2</title>
<g id="a_node2"><a xlink:href="../../dc/d83/classbackend_1_1command_1_1_command.html#af6419d3d08e35f9e1f443b9cee3c4136" target="_top" xlink:title="backend.command.Command.get\lParams">
<polygon fill="white" stroke="black" points="220.5,-39 220.5,-69 401.5,-69 401.5,-39 220.5,-39"/>
<text text-anchor="start" x="228.5" y="-57" font-family="Helvetica,sans-Serif" font-size="10.00">backend.command.Command.get</text>
<text text-anchor="middle" x="311" y="-46" font-family="Helvetica,sans-Serif" font-size="10.00">Params</text>
</a>
</g>
</g>
<!-- Node1&#45;&gt;Node2 -->
<g id="edge1" class="edge"><title>Node1&#45;&gt;Node2</title>
<path fill="none" stroke="midnightblue" d="M183.77,-41.2025C192.546,-42.0922 201.481,-42.9981 210.337,-43.8959"/>
<polygon fill="midnightblue" stroke="midnightblue" points="209.987,-47.3783 220.289,-44.9049 210.693,-40.414 209.987,-47.3783"/>
</g>
<!-- Node3 -->
<g id="node3" class="node"><title>Node3</title>
<g id="a_node3"><a xlink:href="../../d3/dac/classbackend_1_1_model.html#abc953cd68d282a324089ec42346b87ea" target="_top" xlink:title="backend.Model.printCommands">
<polygon fill="white" stroke="black" points="226.5,-0.5 226.5,-19.5 395.5,-19.5 395.5,-0.5 226.5,-0.5"/>
<text text-anchor="middle" x="311" y="-7.5" font-family="Helvetica,sans-Serif" font-size="10.00">backend.Model.printCommands</text>
</a>
</g>
</g>
<!-- Node1&#45;&gt;Node3 -->
<g id="edge2" class="edge"><title>Node1&#45;&gt;Node3</title>
<path fill="none" stroke="midnightblue" d="M183.77,-22.7975C194.42,-21.7178 205.303,-20.6144 215.996,-19.5304"/>
<polygon fill="midnightblue" stroke="midnightblue" points="216.579,-22.9893 226.175,-18.4984 215.873,-16.025 216.579,-22.9893"/>
</g>
</g>
</svg>
