<?xml version="1.0" encoding="UTF-8" standalone="no"?>
<!DOCTYPE svg PUBLIC "-//W3C//DTD SVG 1.1//EN"
 "http://www.w3.org/Graphics/SVG/1.1/DTD/svg11.dtd">
<!-- Generated by graphviz version 2.36.0 (20140111.2315)
 -->
<!-- Title: backend.Model.getGrid Pages: 1 -->
<svg width="900pt" height="415pt"
 viewBox="0.00 0.00 900.00 414.58" xmlns="http://www.w3.org/2000/svg" xmlns:xlink="http://www.w3.org/1999/xlink">
<g id="graph0" class="graph" transform="scale(1 1) rotate(0) translate(4 410.578)">
<title>backend.Model.getGrid</title>
<polygon fill="white" stroke="none" points="-4,4 -4,-410.578 896,-410.578 896,4 -4,4"/>
<!-- Node1 -->
<g id="node1" class="node"><title>Node1</title>
<polygon fill="#bfbfbf" stroke="black" points="0.5,-104.078 0.5,-123.078 127.5,-123.078 127.5,-104.078 0.5,-104.078"/>
<text text-anchor="middle" x="64" y="-111.078" font-family="Helvetica,sans-Serif" font-size="10.00">backend.Model.getGrid</text>
</g>
<!-- Node2 -->
<g id="node2" class="node"><title>Node2</title>
<g id="a_node2"><a xlink:href="../../dd/d24/classgui_1_1_top_menu.html#a0b9572d259c88a1222bf672e6c9f03d3" target="_top" xlink:title="gui.TopMenu.createDisplay\lMenuItems">
<polygon fill="white" stroke="black" points="198,-315.578 198,-345.578 342,-345.578 342,-315.578 198,-315.578"/>
<text text-anchor="start" x="206" y="-333.578" font-family="Helvetica,sans-Serif" font-size="10.00">gui.TopMenu.createDisplay</text>
<text text-anchor="middle" x="270" y="-322.578" font-family="Helvetica,sans-Serif" font-size="10.00">MenuItems</text>
</a>
</g>
</g>
<!-- Node1&#45;&gt;Node2 -->
<g id="edge1" class="edge"><title>Node1&#45;&gt;Node2</title>
<path fill="none" stroke="midnightblue" d="M80.9239,-130.516C119.55,-171.604 217.754,-276.066 254.675,-315.34"/>
<polygon fill="midnightblue" stroke="midnightblue" points="83.4284,-128.071 74.0288,-123.182 78.3282,-132.865 83.4284,-128.071"/>
</g>
<!-- Node5 -->
<g id="node5" class="node"><title>Node5</title>
<g id="a_node5"><a xlink:href="../../dc/d67/classbackend_1_1command_1_1_model_command.html#ab57d058d26b965a9038487f69f40c066" target="_top" xlink:title="backend.command.ModelCommand.grid">
<polygon fill="white" stroke="black" points="164,-189.078 164,-208.078 376,-208.078 376,-189.078 164,-189.078"/>
<text text-anchor="middle" x="270" y="-196.078" font-family="Helvetica,sans-Serif" font-size="10.00">backend.command.ModelCommand.grid</text>
</a>
</g>
</g>
<!-- Node1&#45;&gt;Node5 -->
<g id="edge4" class="edge"><title>Node1&#45;&gt;Node5</title>
<path fill="none" stroke="midnightblue" d="M97.3843,-127.071C138.877,-144.36 209.764,-173.896 246.079,-189.028"/>
<polygon fill="midnightblue" stroke="midnightblue" points="98.5818,-123.779 88.0048,-123.163 95.8894,-130.24 98.5818,-123.779"/>
</g>
<!-- Node15 -->
<g id="node15" class="node"><title>Node15</title>
<g id="a_node15"><a xlink:href="../../d3/dac/classbackend_1_1_model.html#a982b678868b80d568a91f8d9dabcc9b0" target="_top" xlink:title="backend.Model.printLines">
<polygon fill="white" stroke="black" points="201,-123.078 201,-142.078 339,-142.078 339,-123.078 201,-123.078"/>
<text text-anchor="middle" x="270" y="-130.078" font-family="Helvetica,sans-Serif" font-size="10.00">backend.Model.printLines</text>
</a>
</g>
</g>
<!-- Node1&#45;&gt;Node15 -->
<g id="edge18" class="edge"><title>Node1&#45;&gt;Node15</title>
<path fill="none" stroke="midnightblue" d="M137.55,-120.335C158.155,-122.254 180.512,-124.336 200.846,-126.23"/>
<polygon fill="midnightblue" stroke="midnightblue" points="137.875,-116.85 127.593,-119.408 137.225,-123.82 137.875,-116.85"/>
</g>
<!-- Node16 -->
<g id="node16" class="node"><title>Node16</title>
<g id="a_node16"><a xlink:href="../../d5/d8a/classgui_1_1_slogo_tab.html#a2a016875b2ea48fa761cd4408a78dd21" target="_top" xlink:title="gui.SlogoTab.setButtonActions">
<polygon fill="white" stroke="black" points="445,-47.0779 445,-66.0779 607,-66.0779 607,-47.0779 445,-47.0779"/>
<text text-anchor="middle" x="526" y="-54.0779" font-family="Helvetica,sans-Serif" font-size="10.00">gui.SlogoTab.setButtonActions</text>
</a>
</g>
</g>
<!-- Node1&#45;&gt;Node16 -->
<g id="edge19" class="edge"><title>Node1&#45;&gt;Node16</title>
<path fill="none" stroke="midnightblue" d="M137.794,-104.793C200.83,-97.1593 294.449,-85.7596 376,-75.5779 400.324,-72.541 426.874,-69.1726 450.736,-66.1256"/>
<polygon fill="midnightblue" stroke="midnightblue" points="137.065,-101.355 127.558,-106.032 137.907,-108.305 137.065,-101.355"/>
</g>
<!-- Node17 -->
<g id="node17" class="node"><title>Node17</title>
<g id="a_node17"><a xlink:href="../../d5/d8a/classgui_1_1_slogo_tab.html#adaa134bc95e1dcf4eb30b3a185c75175" target="_top" xlink:title="gui.SlogoTab.SlogoTab">
<polygon fill="white" stroke="black" points="723,-36.0779 723,-55.0779 845,-55.0779 845,-36.0779 723,-36.0779"/>
<text text-anchor="middle" x="784" y="-43.0779" font-family="Helvetica,sans-Serif" font-size="10.00">gui.SlogoTab.SlogoTab</text>
</a>
</g>
</g>
<!-- Node1&#45;&gt;Node17 -->
<g id="edge21" class="edge"><title>Node1&#45;&gt;Node17</title>
<path fill="none" stroke="midnightblue" d="M80.3533,-96.4184C98.2819,-77.796 129.863,-49.1698 164,-37.5779 371.859,33.0062 642.072,-14.1335 742.824,-36.0763"/>
<polygon fill="midnightblue" stroke="midnightblue" points="77.5951,-94.2438 73.3269,-103.941 82.7107,-99.022 77.5951,-94.2438"/>
</g>
<!-- Node18 -->
<g id="node18" class="node"><title>Node18</title>
<g id="a_node18"><a xlink:href="../../d5/d8a/classgui_1_1_slogo_tab.html#a9ccb322bec15528476c85f84e53f14d9" target="_top" xlink:title="gui.SlogoTab.updatePanels">
<polygon fill="white" stroke="black" points="198,-47.0779 198,-66.0779 342,-66.0779 342,-47.0779 198,-47.0779"/>
<text text-anchor="middle" x="270" y="-54.0779" font-family="Helvetica,sans-Serif" font-size="10.00">gui.SlogoTab.updatePanels</text>
</a>
</g>
</g>
<!-- Node1&#45;&gt;Node18 -->
<g id="edge22" class="edge"><title>Node1&#45;&gt;Node18</title>
<path fill="none" stroke="midnightblue" d="M100.847,-100.695C119.537,-94.2165 142.854,-86.5038 164,-80.5779 183.086,-75.2292 204.368,-70.1952 222.756,-66.1322"/>
<polygon fill="midnightblue" stroke="midnightblue" points="99.5395,-97.4445 91.2569,-104.051 101.852,-104.052 99.5395,-97.4445"/>
</g>
<!-- Node3 -->
<g id="node3" class="node"><title>Node3</title>
<g id="a_node3"><a xlink:href="../../dd/d24/classgui_1_1_top_menu.html#a2b756e05f495e2d1a4f7ea156ae612d2" target="_top" xlink:title="gui.TopMenu.addMenuBar">
<polygon fill="white" stroke="black" points="456,-387.078 456,-406.078 596,-406.078 596,-387.078 456,-387.078"/>
<text text-anchor="middle" x="526" y="-394.078" font-family="Helvetica,sans-Serif" font-size="10.00">gui.TopMenu.addMenuBar</text>
</a>
</g>
</g>
<!-- Node2&#45;&gt;Node3 -->
<g id="edge2" class="edge"><title>Node2&#45;&gt;Node3</title>
<path fill="none" stroke="midnightblue" d="M321.395,-348.921C348.067,-358.143 381.523,-368.949 412,-376.578 428.138,-380.617 445.77,-384.149 462.205,-387.075"/>
<polygon fill="midnightblue" stroke="midnightblue" points="322.489,-345.595 311.894,-345.604 320.181,-352.204 322.489,-345.595"/>
</g>
<!-- Node4 -->
<g id="node4" class="node"><title>Node4</title>
<g id="a_node4"><a xlink:href="../../dd/d24/classgui_1_1_top_menu.html#a842402ab5dfa877cfac4e5677809675a" target="_top" xlink:title="gui.TopMenu.TopMenu">
<polygon fill="white" stroke="black" points="723.5,-387.078 723.5,-406.078 844.5,-406.078 844.5,-387.078 723.5,-387.078"/>
<text text-anchor="middle" x="784" y="-394.078" font-family="Helvetica,sans-Serif" font-size="10.00">gui.TopMenu.TopMenu</text>
</a>
</g>
</g>
<!-- Node3&#45;&gt;Node4 -->
<g id="edge3" class="edge"><title>Node3&#45;&gt;Node4</title>
<path fill="none" stroke="midnightblue" d="M606.708,-396.578C644.352,-396.578 688.525,-396.578 723.237,-396.578"/>
<polygon fill="midnightblue" stroke="midnightblue" points="606.277,-393.078 596.277,-396.578 606.277,-400.078 606.277,-393.078"/>
</g>
<!-- Node6 -->
<g id="node6" class="node"><title>Node6</title>
<g id="a_node6"><a xlink:href="../../d8/db4/classbackend_1_1command_1_1_active_turtle_command.html#a57112668aa5ac898122c5bd1a426afcd" target="_top" xlink:title="backend.command.ActiveTurtle\lCommand.execute">
<polygon fill="white" stroke="black" points="700.5,-90.5779 700.5,-120.578 867.5,-120.578 867.5,-90.5779 700.5,-90.5779"/>
<text text-anchor="start" x="708.5" y="-108.578" font-family="Helvetica,sans-Serif" font-size="10.00">backend.command.ActiveTurtle</text>
<text text-anchor="middle" x="784" y="-97.5779" font-family="Helvetica,sans-Serif" font-size="10.00">Command.execute</text>
</a>
</g>
</g>
<!-- Node5&#45;&gt;Node6 -->
<g id="edge5" class="edge"><title>Node5&#45;&gt;Node6</title>
<path fill="none" stroke="midnightblue" d="M309.689,-185.46C330.402,-177.432 355.745,-165.936 376,-151.578 394.98,-138.124 390.729,-123 412,-113.578 506.394,-71.7644 627.986,-79.1647 705.738,-90.5499"/>
<polygon fill="midnightblue" stroke="midnightblue" points="308.365,-182.219 300.235,-189.011 310.827,-188.772 308.365,-182.219"/>
</g>
<!-- Node7 -->
<g id="node7" class="node"><title>Node7</title>
<g id="a_node7"><a xlink:href="../../d4/d75/classbackend_1_1command_1_1_ask.html#a453b95a58b91a82a2cca53f444a31ff6" target="_top" xlink:title="backend.command.Ask.execute">
<polygon fill="white" stroke="black" points="699,-211.078 699,-230.078 869,-230.078 869,-211.078 699,-211.078"/>
<text text-anchor="middle" x="784" y="-218.078" font-family="Helvetica,sans-Serif" font-size="10.00">backend.command.Ask.execute</text>
</a>
</g>
</g>
<!-- Node5&#45;&gt;Node7 -->
<g id="edge6" class="edge"><title>Node5&#45;&gt;Node7</title>
<path fill="none" stroke="midnightblue" d="M386.375,-203.535C481.261,-207.612 613.516,-213.295 698.706,-216.956"/>
<polygon fill="midnightblue" stroke="midnightblue" points="386.297,-200.029 376.156,-203.096 385.996,-207.022 386.297,-200.029"/>
</g>
<!-- Node8 -->
<g id="node8" class="node"><title>Node8</title>
<g id="a_node8"><a xlink:href="../../de/d47/classbackend_1_1command_1_1_set_background.html#a32cf6de8fa8a7b154fa1124e2efb6c5c" target="_top" xlink:title="backend.command.SetBackground.execute">
<polygon fill="white" stroke="black" points="412.5,-123.078 412.5,-142.078 639.5,-142.078 639.5,-123.078 412.5,-123.078"/>
<text text-anchor="middle" x="526" y="-130.078" font-family="Helvetica,sans-Serif" font-size="10.00">backend.command.SetBackground.execute</text>
</a>
</g>
</g>
<!-- Node5&#45;&gt;Node8 -->
<g id="edge7" class="edge"><title>Node5&#45;&gt;Node8</title>
<path fill="none" stroke="midnightblue" d="M305.044,-185.574C333.333,-175.171 374.821,-160.841 412,-151.578 426.671,-147.923 442.59,-144.763 457.723,-142.128"/>
<polygon fill="midnightblue" stroke="midnightblue" points="303.773,-182.312 295.617,-189.075 306.21,-188.874 303.773,-182.312"/>
</g>
<!-- Node9 -->
<g id="node9" class="node"><title>Node9</title>
<g id="a_node9"><a xlink:href="../../d4/d68/classbackend_1_1command_1_1_specified_turtle_command.html#abd0266fe718a56aae9fd137321772c0c" target="_top" xlink:title="backend.command.Specified\lTurtleCommand.specifiedTurtles">
<polygon fill="white" stroke="black" points="442,-249.578 442,-279.578 610,-279.578 610,-249.578 442,-249.578"/>
<text text-anchor="start" x="450" y="-267.578" font-family="Helvetica,sans-Serif" font-size="10.00">backend.command.Specified</text>
<text text-anchor="middle" x="526" y="-256.578" font-family="Helvetica,sans-Serif" font-size="10.00">TurtleCommand.specifiedTurtles</text>
</a>
</g>
</g>
<!-- Node5&#45;&gt;Node9 -->
<g id="edge8" class="edge"><title>Node5&#45;&gt;Node9</title>
<path fill="none" stroke="midnightblue" d="M317.389,-210.632C359.529,-221.581 421.853,-237.776 467.215,-249.563"/>
<polygon fill="midnightblue" stroke="midnightblue" points="318.221,-207.232 307.663,-208.104 316.461,-214.007 318.221,-207.232"/>
</g>
<!-- Node10 -->
<g id="node10" class="node"><title>Node10</title>
<g id="a_node10"><a xlink:href="../../de/dcc/classbackend_1_1command_1_1_tell.html#a9efd790cb410947936aed1289e7fc246" target="_top" xlink:title="backend.command.Tell.execute">
<polygon fill="white" stroke="black" points="700.5,-262.078 700.5,-281.078 867.5,-281.078 867.5,-262.078 700.5,-262.078"/>
<text text-anchor="middle" x="784" y="-269.078" font-family="Helvetica,sans-Serif" font-size="10.00">backend.command.Tell.execute</text>
</a>
</g>
</g>
<!-- Node5&#45;&gt;Node10 -->
<g id="edge11" class="edge"><title>Node5&#45;&gt;Node10</title>
<path fill="none" stroke="midnightblue" d="M288.902,-214.888C314.147,-236.667 362.66,-274.173 412,-288.578 529.907,-323.001 677.775,-296.779 745.723,-281.107"/>
<polygon fill="midnightblue" stroke="midnightblue" points="291.082,-212.144 281.265,-208.161 286.455,-217.397 291.082,-212.144"/>
</g>
<!-- Node11 -->
<g id="node11" class="node"><title>Node11</title>
<g id="a_node11"><a xlink:href="../../d5/dfc/classbackend_1_1command_1_1_turtle_command.html#a7f974873733f7c940acf4ffa8d6bd32b" target="_top" xlink:title="backend.command.TurtleCommand.all\lTurtles">
<polygon fill="white" stroke="black" points="425.5,-337.578 425.5,-367.578 626.5,-367.578 626.5,-337.578 425.5,-337.578"/>
<text text-anchor="start" x="433.5" y="-355.578" font-family="Helvetica,sans-Serif" font-size="10.00">backend.command.TurtleCommand.all</text>
<text text-anchor="middle" x="526" y="-344.578" font-family="Helvetica,sans-Serif" font-size="10.00">Turtles</text>
</a>
</g>
</g>
<!-- Node5&#45;&gt;Node11 -->
<g id="edge12" class="edge"><title>Node5&#45;&gt;Node11</title>
<path fill="none" stroke="midnightblue" d="M285.951,-216.144C309.841,-243.091 359.325,-294.453 412,-322.578 423.37,-328.649 436.052,-333.553 448.695,-337.497"/>
<polygon fill="midnightblue" stroke="midnightblue" points="288.332,-213.55 279.122,-208.314 283.057,-218.151 288.332,-213.55"/>
</g>
<!-- Node14 -->
<g id="node14" class="node"><title>Node14</title>
<g id="a_node14"><a xlink:href="../../d5/dfc/classbackend_1_1command_1_1_turtle_command.html#abc5335b628982bd9ef9c3602d6b2b60e" target="_top" xlink:title="backend.command.TurtleCommand.active\lTurtles">
<polygon fill="white" stroke="black" points="416.5,-161.578 416.5,-191.578 635.5,-191.578 635.5,-161.578 416.5,-161.578"/>
<text text-anchor="start" x="424.5" y="-179.578" font-family="Helvetica,sans-Serif" font-size="10.00">backend.command.TurtleCommand.active</text>
<text text-anchor="middle" x="526" y="-168.578" font-family="Helvetica,sans-Serif" font-size="10.00">Turtles</text>
</a>
</g>
</g>
<!-- Node5&#45;&gt;Node14 -->
<g id="edge15" class="edge"><title>Node5&#45;&gt;Node14</title>
<path fill="none" stroke="midnightblue" d="M386.126,-188.606C396.149,-187.738 406.272,-186.861 416.241,-185.998"/>
<polygon fill="midnightblue" stroke="midnightblue" points="385.806,-185.121 376.145,-189.471 386.41,-192.095 385.806,-185.121"/>
</g>
<!-- Node9&#45;&gt;Node7 -->
<g id="edge9" class="edge"><title>Node9&#45;&gt;Node7</title>
<path fill="none" stroke="midnightblue" d="M620.141,-248.569C656.097,-242.389 696.025,-235.527 727.347,-230.143"/>
<polygon fill="midnightblue" stroke="midnightblue" points="619.378,-245.149 610.116,-250.292 620.564,-252.048 619.378,-245.149"/>
</g>
<!-- Node9&#45;&gt;Node10 -->
<g id="edge10" class="edge"><title>Node9&#45;&gt;Node10</title>
<path fill="none" stroke="midnightblue" d="M620.411,-267.132C646.57,-267.847 674.811,-268.62 700.301,-269.317"/>
<polygon fill="midnightblue" stroke="midnightblue" points="620.208,-263.625 610.116,-266.851 620.016,-270.623 620.208,-263.625"/>
</g>
<!-- Node12 -->
<g id="node12" class="node"><title>Node12</title>
<g id="a_node12"><a xlink:href="../../d9/d32/classbackend_1_1command_1_1_clear_stamps.html#a72929c501b515e1a35243bdc05f14f8d" target="_top" xlink:title="backend.command.ClearStamps.execute">
<polygon fill="white" stroke="black" points="676.5,-308.078 676.5,-327.078 891.5,-327.078 891.5,-308.078 676.5,-308.078"/>
<text text-anchor="middle" x="784" y="-315.078" font-family="Helvetica,sans-Serif" font-size="10.00">backend.command.ClearStamps.execute</text>
</a>
</g>
</g>
<!-- Node11&#45;&gt;Node12 -->
<g id="edge13" class="edge"><title>Node11&#45;&gt;Node12</title>
<path fill="none" stroke="midnightblue" d="M636.95,-337.546C662.825,-334.008 689.704,-330.333 713.242,-327.115"/>
<polygon fill="midnightblue" stroke="midnightblue" points="636.143,-334.123 626.709,-338.946 637.091,-341.059 636.143,-334.123"/>
</g>
<!-- Node13 -->
<g id="node13" class="node"><title>Node13</title>
<g id="a_node13"><a xlink:href="../../da/d05/classbackend_1_1command_1_1_turtles.html#a0b113f00307be40c09e2e917f1982d62" target="_top" xlink:title="backend.command.Turtles.execute">
<polygon fill="white" stroke="black" points="692,-346.078 692,-365.078 876,-365.078 876,-346.078 692,-346.078"/>
<text text-anchor="middle" x="784" y="-353.078" font-family="Helvetica,sans-Serif" font-size="10.00">backend.command.Turtles.execute</text>
</a>
</g>
</g>
<!-- Node11&#45;&gt;Node13 -->
<g id="edge14" class="edge"><title>Node11&#45;&gt;Node13</title>
<path fill="none" stroke="midnightblue" d="M636.85,-353.865C655.216,-354.08 674.09,-354.302 691.919,-354.511"/>
<polygon fill="midnightblue" stroke="midnightblue" points="636.75,-350.364 626.709,-353.746 636.668,-357.363 636.75,-350.364"/>
</g>
<!-- Node14&#45;&gt;Node6 -->
<g id="edge16" class="edge"><title>Node14&#45;&gt;Node6</title>
<path fill="none" stroke="midnightblue" d="M609.443,-159.28C619.767,-156.837 630.153,-154.245 640,-151.578 673.857,-142.409 711.611,-130.177 739.821,-120.631"/>
<polygon fill="midnightblue" stroke="midnightblue" points="608.531,-155.898 599.584,-161.573 610.117,-162.716 608.531,-155.898"/>
</g>
<!-- Node14&#45;&gt;Node7 -->
<g id="edge17" class="edge"><title>Node14&#45;&gt;Node7</title>
<path fill="none" stroke="midnightblue" d="M624.611,-193.355C659.496,-199.351 697.577,-205.896 727.655,-211.065"/>
<polygon fill="midnightblue" stroke="midnightblue" points="624.833,-189.842 614.385,-191.597 623.647,-196.741 624.833,-189.842"/>
</g>
<!-- Node16&#45;&gt;Node17 -->
<g id="edge20" class="edge"><title>Node16&#45;&gt;Node17</title>
<path fill="none" stroke="midnightblue" d="M617.518,-52.6884C652.472,-51.1865 691.516,-49.5088 722.897,-48.1604"/>
<polygon fill="midnightblue" stroke="midnightblue" points="617.138,-49.2014 607.298,-53.1276 617.439,-56.195 617.138,-49.2014"/>
</g>
<!-- Node18&#45;&gt;Node16 -->
<g id="edge23" class="edge"><title>Node18&#45;&gt;Node16</title>
<path fill="none" stroke="midnightblue" d="M352.399,-56.5779C382.027,-56.5779 415.473,-56.5779 444.98,-56.5779"/>
<polygon fill="midnightblue" stroke="midnightblue" points="352.091,-53.078 342.091,-56.5779 352.091,-60.078 352.091,-53.078"/>
</g>
</g>
</svg>
