<?xml version="1.0" encoding="UTF-8" standalone="no"?>
<!DOCTYPE svg PUBLIC "-//W3C//DTD SVG 1.1//EN"
 "http://www.w3.org/Graphics/SVG/1.1/DTD/svg11.dtd">
<!-- Generated by graphviz version 2.36.0 (20140111.2315)
 -->
<!-- Title: gui.DrawingArea Pages: 1 -->
<svg width="295pt" height="108pt"
 viewBox="0.00 0.00 295.00 108.00" xmlns="http://www.w3.org/2000/svg" xmlns:xlink="http://www.w3.org/1999/xlink">
<g id="graph0" class="graph" transform="scale(1 1) rotate(0) translate(4 104)">
<title>gui.DrawingArea</title>
<polygon fill="white" stroke="none" points="-4,4 -4,-104 291,-104 291,4 -4,4"/>
<!-- Node1 -->
<g id="node1" class="node"><title>Node1</title>
<polygon fill="#bfbfbf" stroke="black" points="91.5,-0.5 91.5,-19.5 186.5,-19.5 186.5,-0.5 91.5,-0.5"/>
<text text-anchor="middle" x="139" y="-7.5" font-family="Helvetica,sans-Serif" font-size="10.00">gui.DrawingArea</text>
</g>
<!-- Node2 -->
<g id="node2" class="node"><title>Node2</title>
<polygon fill="white" stroke="#bfbfbf" points="0,-74.5 0,-93.5 48,-93.5 48,-74.5 0,-74.5"/>
<text text-anchor="middle" x="24" y="-81.5" font-family="Helvetica,sans-Serif" font-size="10.00">Region</text>
</g>
<!-- Node2&#45;&gt;Node1 -->
<g id="edge1" class="edge"><title>Node2&#45;&gt;Node1</title>
<path fill="none" stroke="midnightblue" d="M46.2353,-69.0788C69.6729,-54.4048 105.845,-31.7578 125.374,-19.531"/>
<polygon fill="midnightblue" stroke="midnightblue" points="44.2621,-66.1847 37.6436,-74.4579 47.9768,-72.1178 44.2621,-66.1847"/>
</g>
<!-- Node3 -->
<g id="node3" class="node"><title>Node3</title>
<polygon fill="white" stroke="#bfbfbf" points="66.5,-69 66.5,-99 211.5,-99 211.5,-69 66.5,-69"/>
<text text-anchor="start" x="74.5" y="-87" font-family="Helvetica,sans-Serif" font-size="10.00">HashMap&lt; backend.Turtle,</text>
<text text-anchor="middle" x="139" y="-76" font-family="Helvetica,sans-Serif" font-size="10.00"> gui.TurtleImage &gt;</text>
</g>
<!-- Node3&#45;&gt;Node1 -->
<g id="edge2" class="edge"><title>Node3&#45;&gt;Node1</title>
<path fill="none" stroke="#9a32cd" stroke-dasharray="5,2" d="M139,-58.6883C139,-45.2526 139,-29.3805 139,-19.7589"/>
<polygon fill="#9a32cd" stroke="#9a32cd" points="135.5,-58.7751 139,-68.7751 142.5,-58.7752 135.5,-58.7751"/>
<text text-anchor="middle" x="163.5" y="-41.5" font-family="Helvetica,sans-Serif" font-size="10.00"> turtleMap</text>
</g>
<!-- Node4 -->
<g id="node4" class="node"><title>Node4</title>
<polygon fill="white" stroke="#bfbfbf" points="230,-74.5 230,-93.5 282,-93.5 282,-74.5 230,-74.5"/>
<text text-anchor="middle" x="256" y="-81.5" font-family="Helvetica,sans-Serif" font-size="10.00">Canvas</text>
</g>
<!-- Node4&#45;&gt;Node1 -->
<g id="edge3" class="edge"><title>Node4&#45;&gt;Node1</title>
<path fill="none" stroke="#9a32cd" stroke-dasharray="5,2" d="M236.302,-68.0576C223.887,-58.9183 207.356,-47.2465 192,-38 180.853,-31.2881 167.84,-24.6425 157.498,-19.6239"/>
<polygon fill="#9a32cd" stroke="#9a32cd" points="234.428,-71.026 244.538,-74.194 238.61,-65.4127 234.428,-71.026"/>
<text text-anchor="middle" x="249" y="-41.5" font-family="Helvetica,sans-Serif" font-size="10.00"> drawingCanvas</text>
</g>
</g>
</svg>
