<?xml version="1.0" encoding="UTF-8" standalone="no"?>
<!DOCTYPE svg PUBLIC "-//W3C//DTD SVG 1.1//EN"
 "http://www.w3.org/Graphics/SVG/1.1/DTD/svg11.dtd">
<!-- Generated by graphviz version 2.36.0 (20140111.2315)
 -->
<!-- Title: backend.Model.printDrawableImages Pages: 1 -->
<svg width="728pt" height="66pt"
 viewBox="0.00 0.00 728.00 66.00" xmlns="http://www.w3.org/2000/svg" xmlns:xlink="http://www.w3.org/1999/xlink">
<g id="graph0" class="graph" transform="scale(1 1) rotate(0) translate(4 62)">
<title>backend.Model.printDrawableImages</title>
<polygon fill="white" stroke="none" points="-4,4 -4,-62 724,-62 724,4 -4,4"/>
<!-- Node1 -->
<g id="node1" class="node"><title>Node1</title>
<polygon fill="#bfbfbf" stroke="black" points="0,-14 0,-44 158,-44 158,-14 0,-14"/>
<text text-anchor="start" x="8" y="-32" font-family="Helvetica,sans-Serif" font-size="10.00">backend.Model.printDrawable</text>
<text text-anchor="middle" x="79" y="-21" font-family="Helvetica,sans-Serif" font-size="10.00">Images</text>
</g>
<!-- Node2 -->
<g id="node2" class="node"><title>Node2</title>
<g id="a_node2"><a xlink:href="../../d1/d68/classbackend_1_1_grid.html#a76f49502892f69c6f9b7449ab579a179" target="_top" xlink:title="backend.Grid.getDrawable\lImages">
<polygon fill="white" stroke="black" points="194.5,-14 194.5,-44 337.5,-44 337.5,-14 194.5,-14"/>
<text text-anchor="start" x="202.5" y="-32" font-family="Helvetica,sans-Serif" font-size="10.00">backend.Grid.getDrawable</text>
<text text-anchor="middle" x="266" y="-21" font-family="Helvetica,sans-Serif" font-size="10.00">Images</text>
</a>
</g>
</g>
<!-- Node1&#45;&gt;Node2 -->
<g id="edge1" class="edge"><title>Node1&#45;&gt;Node2</title>
<path fill="none" stroke="midnightblue" d="M158.189,-29C166.836,-29 175.654,-29 184.331,-29"/>
<polygon fill="midnightblue" stroke="midnightblue" points="184.434,-32.5001 194.434,-29 184.434,-25.5001 184.434,-32.5001"/>
</g>
<!-- Node3 -->
<g id="node3" class="node"><title>Node3</title>
<g id="a_node3"><a xlink:href="../../d1/d68/classbackend_1_1_grid.html#a523fd99c5d2ae8145c0b8f8a12bb53ce" target="_top" xlink:title="backend.Grid.getShowingTurtles">
<polygon fill="white" stroke="black" points="374.5,-38.5 374.5,-57.5 543.5,-57.5 543.5,-38.5 374.5,-38.5"/>
<text text-anchor="middle" x="459" y="-45.5" font-family="Helvetica,sans-Serif" font-size="10.00">backend.Grid.getShowingTurtles</text>
</a>
</g>
</g>
<!-- Node2&#45;&gt;Node3 -->
<g id="edge2" class="edge"><title>Node2&#45;&gt;Node3</title>
<path fill="none" stroke="midnightblue" d="M337.579,-36.0209C346.303,-36.8888 355.326,-37.7864 364.328,-38.6818"/>
<polygon fill="midnightblue" stroke="midnightblue" points="364.167,-42.183 374.464,-39.6902 364.86,-35.2174 364.167,-42.183"/>
</g>
<!-- Node5 -->
<g id="node5" class="node"><title>Node5</title>
<g id="a_node5"><a xlink:href="../../d1/d68/classbackend_1_1_grid.html#ac00d6f94ec04b6031de67557147249ea" target="_top" xlink:title="backend.Grid.getStamps">
<polygon fill="white" stroke="black" points="391,-0.5 391,-19.5 527,-19.5 527,-0.5 391,-0.5"/>
<text text-anchor="middle" x="459" y="-7.5" font-family="Helvetica,sans-Serif" font-size="10.00">backend.Grid.getStamps</text>
</a>
</g>
</g>
<!-- Node2&#45;&gt;Node5 -->
<g id="edge4" class="edge"><title>Node2&#45;&gt;Node5</title>
<path fill="none" stroke="midnightblue" d="M337.579,-21.9791C351.603,-20.584 366.397,-19.1123 380.634,-17.6961"/>
<polygon fill="midnightblue" stroke="midnightblue" points="381.279,-21.1493 390.883,-16.6766 380.586,-14.1837 381.279,-21.1493"/>
</g>
<!-- Node4 -->
<g id="node4" class="node"><title>Node4</title>
<g id="a_node4"><a xlink:href="../../d1/d68/classbackend_1_1_grid.html#ac089ef72a1531ec8e0cf131de056d0b2" target="_top" xlink:title="backend.Grid.getAllTurtles">
<polygon fill="white" stroke="black" points="580,-38.5 580,-57.5 720,-57.5 720,-38.5 580,-38.5"/>
<text text-anchor="middle" x="650" y="-45.5" font-family="Helvetica,sans-Serif" font-size="10.00">backend.Grid.getAllTurtles</text>
</a>
</g>
</g>
<!-- Node3&#45;&gt;Node4 -->
<g id="edge3" class="edge"><title>Node3&#45;&gt;Node4</title>
<path fill="none" stroke="midnightblue" d="M543.724,-48C552.382,-48 561.162,-48 569.769,-48"/>
<polygon fill="midnightblue" stroke="midnightblue" points="569.775,-51.5001 579.775,-48 569.775,-44.5001 569.775,-51.5001"/>
</g>
</g>
</svg>
