<?xml version="1.0" encoding="UTF-8" standalone="no"?>
<!DOCTYPE svg PUBLIC "-//W3C//DTD SVG 1.1//EN"
 "http://www.w3.org/Graphics/SVG/1.1/DTD/svg11.dtd">
<!-- Generated by graphviz version 2.36.0 (20140111.2315)
 -->
<!-- Title: backend.command.Or Pages: 1 -->
<svg width="297pt" height="306pt"
 viewBox="0.00 0.00 297.00 306.00" xmlns="http://www.w3.org/2000/svg" xmlns:xlink="http://www.w3.org/1999/xlink">
<g id="graph0" class="graph" transform="scale(1 1) rotate(0) translate(4 302)">
<title>backend.command.Or</title>
<polygon fill="white" stroke="none" points="-4,4 -4,-302 293,-302 293,4 -4,4"/>
<!-- Node1 -->
<g id="node1" class="node"><title>Node1</title>
<polygon fill="#bfbfbf" stroke="black" points="68.5,-0.5 68.5,-19.5 191.5,-19.5 191.5,-0.5 68.5,-0.5"/>
<text text-anchor="middle" x="130" y="-7.5" font-family="Helvetica,sans-Serif" font-size="10.00">backend.command.Or</text>
</g>
<!-- Node2 -->
<g id="node2" class="node"><title>Node2</title>
<g id="a_node2"><a xlink:href="../../d9/d65/classbackend_1_1command_1_1_binary_boolean_operation.html" target="_top" xlink:title="backend.command.BinaryBoolean\lOperation">
<polygon fill="white" stroke="black" points="39.5,-59 39.5,-89 220.5,-89 220.5,-59 39.5,-59"/>
<text text-anchor="start" x="47.5" y="-77" font-family="Helvetica,sans-Serif" font-size="10.00">backend.command.BinaryBoolean</text>
<text text-anchor="middle" x="130" y="-66" font-family="Helvetica,sans-Serif" font-size="10.00">Operation</text>
</a>
</g>
</g>
<!-- Node2&#45;&gt;Node1 -->
<g id="edge1" class="edge"><title>Node2&#45;&gt;Node1</title>
<path fill="none" stroke="midnightblue" d="M130,-48.8706C130,-38.6625 130,-27.4077 130,-19.8419"/>
<polygon fill="midnightblue" stroke="midnightblue" points="126.5,-48.9312 130,-58.9312 133.5,-48.9313 126.5,-48.9312"/>
</g>
<!-- Node3 -->
<g id="node3" class="node"><title>Node3</title>
<g id="a_node3"><a xlink:href="../../dc/d64/classbackend_1_1command_1_1_binary_math_operation.html" target="_top" xlink:title="backend.command.BinaryMath\lOperation">
<polygon fill="white" stroke="black" points="47,-129 47,-159 213,-159 213,-129 47,-129"/>
<text text-anchor="start" x="55" y="-147" font-family="Helvetica,sans-Serif" font-size="10.00">backend.command.BinaryMath</text>
<text text-anchor="middle" x="130" y="-136" font-family="Helvetica,sans-Serif" font-size="10.00">Operation</text>
</a>
</g>
</g>
<!-- Node3&#45;&gt;Node2 -->
<g id="edge2" class="edge"><title>Node3&#45;&gt;Node2</title>
<path fill="none" stroke="midnightblue" d="M130,-118.769C130,-108.814 130,-97.6384 130,-89.0716"/>
<polygon fill="midnightblue" stroke="midnightblue" points="126.5,-118.91 130,-128.91 133.5,-118.91 126.5,-118.91"/>
</g>
<!-- Node4 -->
<g id="node4" class="node"><title>Node4</title>
<g id="a_node4"><a xlink:href="../../dc/d83/classbackend_1_1command_1_1_command.html" target="_top" xlink:title="backend.command.Command">
<polygon fill="white" stroke="black" points="49,-198.5 49,-217.5 211,-217.5 211,-198.5 49,-198.5"/>
<text text-anchor="middle" x="130" y="-205.5" font-family="Helvetica,sans-Serif" font-size="10.00">backend.command.Command</text>
</a>
</g>
</g>
<!-- Node4&#45;&gt;Node3 -->
<g id="edge3" class="edge"><title>Node4&#45;&gt;Node3</title>
<path fill="none" stroke="midnightblue" d="M130,-188.183C130,-178.886 130,-167.851 130,-159.263"/>
<polygon fill="midnightblue" stroke="midnightblue" points="126.5,-188.379 130,-198.379 133.5,-188.379 126.5,-188.379"/>
</g>
<!-- Node4&#45;&gt;Node4 -->
<g id="edge5" class="edge"><title>Node4&#45;&gt;Node4</title>
<path fill="none" stroke="#9a32cd" stroke-dasharray="5,2" d="M221.171,-211.486C226.084,-210.634 229,-209.471 229,-208 229,-205.703 221.894,-204.16 211.18,-203.37"/>
<polygon fill="#9a32cd" stroke="#9a32cd" points="220.717,-208.015 211.18,-212.63 221.513,-214.97 220.717,-208.015"/>
<text text-anchor="middle" x="246.5" y="-205.5" font-family="Helvetica,sans-Serif" font-size="10.00"> parent</text>
</g>
<!-- Node5 -->
<g id="node5" class="node"><title>Node5</title>
<g id="a_node5"><a xlink:href="../../d0/d6a/classbackend_1_1_string_pair.html" target="_top" xlink:title="backend.StringPair">
<polygon fill="white" stroke="black" points="0,-272.5 0,-291.5 106,-291.5 106,-272.5 0,-272.5"/>
<text text-anchor="middle" x="53" y="-279.5" font-family="Helvetica,sans-Serif" font-size="10.00">backend.StringPair</text>
</a>
</g>
</g>
<!-- Node5&#45;&gt;Node4 -->
<g id="edge4" class="edge"><title>Node5&#45;&gt;Node4</title>
<path fill="none" stroke="#9a32cd" stroke-dasharray="5,2" d="M69.5857,-265.491C85.2817,-250.815 108.264,-229.325 120.877,-217.531"/>
<polygon fill="#9a32cd" stroke="#9a32cd" points="67.0491,-263.071 62.1353,-272.458 71.83,-268.184 67.0491,-263.071"/>
<text text-anchor="middle" x="125" y="-239.5" font-family="Helvetica,sans-Serif" font-size="10.00"> stringPair</text>
</g>
<!-- Node6 -->
<g id="node6" class="node"><title>Node6</title>
<polygon fill="white" stroke="#bfbfbf" points="124.5,-267 124.5,-297 289.5,-297 289.5,-267 124.5,-267"/>
<text text-anchor="start" x="132.5" y="-285" font-family="Helvetica,sans-Serif" font-size="10.00">ArrayList&lt; backend.command.</text>
<text text-anchor="middle" x="207" y="-274" font-family="Helvetica,sans-Serif" font-size="10.00">Command &gt;</text>
</g>
<!-- Node6&#45;&gt;Node4 -->
<g id="edge6" class="edge"><title>Node6&#45;&gt;Node4</title>
<path fill="none" stroke="#9a32cd" stroke-dasharray="5,2" d="M184.361,-259.831C169.362,-245.806 150.472,-228.143 139.367,-217.759"/>
<polygon fill="#9a32cd" stroke="#9a32cd" points="182.093,-262.502 191.787,-266.775 186.874,-257.389 182.093,-262.502"/>
<text text-anchor="middle" x="191" y="-239.5" font-family="Helvetica,sans-Serif" font-size="10.00"> params</text>
</g>
</g>
</svg>
