<?xml version="1.0" encoding="UTF-8" standalone="no"?>
<!DOCTYPE svg PUBLIC "-//W3C//DTD SVG 1.1//EN"
 "http://www.w3.org/Graphics/SVG/1.1/DTD/svg11.dtd">
<!-- Generated by graphviz version 2.36.0 (20140111.2315)
 -->
<!-- Title: backend.command.For.forLoop Pages: 1 -->
<svg width="884pt" height="164pt"
 viewBox="0.00 0.00 884.00 164.00" xmlns="http://www.w3.org/2000/svg" xmlns:xlink="http://www.w3.org/1999/xlink">
<g id="graph0" class="graph" transform="scale(1 1) rotate(0) translate(4 160)">
<title>backend.command.For.forLoop</title>
<polygon fill="white" stroke="none" points="-4,4 -4,-160 880,-160 880,4 -4,4"/>
<!-- Node1 -->
<g id="node1" class="node"><title>Node1</title>
<polygon fill="#bfbfbf" stroke="black" points="0.5,-68.5 0.5,-87.5 165.5,-87.5 165.5,-68.5 0.5,-68.5"/>
<text text-anchor="middle" x="83" y="-75.5" font-family="Helvetica,sans-Serif" font-size="10.00">backend.command.For.forLoop</text>
</g>
<!-- Node2 -->
<g id="node2" class="node"><title>Node2</title>
<g id="a_node2"><a xlink:href="../../de/d1a/classbackend_1_1command_1_1_for.html#af670f94af1ef47bb0bf1128faa43b8bd" target="_top" xlink:title="backend.command.For.end">
<polygon fill="white" stroke="black" points="236.5,-125.5 236.5,-144.5 383.5,-144.5 383.5,-125.5 236.5,-125.5"/>
<text text-anchor="middle" x="310" y="-132.5" font-family="Helvetica,sans-Serif" font-size="10.00">backend.command.For.end</text>
</a>
</g>
</g>
<!-- Node1&#45;&gt;Node2 -->
<g id="edge1" class="edge"><title>Node1&#45;&gt;Node2</title>
<path fill="none" stroke="midnightblue" d="M110.415,-87.6466C134.136,-96.0344 170.044,-108.056 202,-116 213.301,-118.809 225.371,-121.368 237.185,-123.634"/>
<polygon fill="midnightblue" stroke="midnightblue" points="236.552,-127.077 247.024,-125.468 237.835,-120.195 236.552,-127.077"/>
</g>
<!-- Node5 -->
<g id="node5" class="node"><title>Node5</title>
<g id="a_node5"><a xlink:href="../../dc/d83/classbackend_1_1command_1_1_command.html#a606032e5ef26d465113f65e6e3c09bef" target="_top" xlink:title="backend.command.Command.get\lParam">
<polygon fill="white" stroke="black" points="694.5,-63 694.5,-93 875.5,-93 875.5,-63 694.5,-63"/>
<text text-anchor="start" x="702.5" y="-81" font-family="Helvetica,sans-Serif" font-size="10.00">backend.command.Command.get</text>
<text text-anchor="middle" x="785" y="-70" font-family="Helvetica,sans-Serif" font-size="10.00">Param</text>
</a>
</g>
</g>
<!-- Node1&#45;&gt;Node5 -->
<g id="edge5" class="edge"><title>Node1&#45;&gt;Node5</title>
<path fill="none" stroke="midnightblue" d="M165.669,-78C294.532,-78 544.675,-78 684.065,-78"/>
<polygon fill="midnightblue" stroke="midnightblue" points="684.318,-81.5001 694.318,-78 684.318,-74.5001 684.318,-81.5001"/>
</g>
<!-- Node6 -->
<g id="node6" class="node"><title>Node6</title>
<g id="a_node6"><a xlink:href="../../de/d1a/classbackend_1_1command_1_1_for.html#a1ef90c6eeba84aa760be374aff817eea" target="_top" xlink:title="backend.command.For.increment">
<polygon fill="white" stroke="black" points="221,-87.5 221,-106.5 399,-106.5 399,-87.5 221,-87.5"/>
<text text-anchor="middle" x="310" y="-94.5" font-family="Helvetica,sans-Serif" font-size="10.00">backend.command.For.increment</text>
</a>
</g>
</g>
<!-- Node1&#45;&gt;Node6 -->
<g id="edge6" class="edge"><title>Node1&#45;&gt;Node6</title>
<path fill="none" stroke="midnightblue" d="M165.548,-84.8863C180.16,-86.1202 195.528,-87.4179 210.556,-88.6869"/>
<polygon fill="midnightblue" stroke="midnightblue" points="210.633,-92.2058 220.892,-89.5598 211.222,-85.2306 210.633,-92.2058"/>
</g>
<!-- Node7 -->
<g id="node7" class="node"><title>Node7</title>
<g id="a_node7"><a xlink:href="../../dc/d67/classbackend_1_1command_1_1_model_command.html#a1900a3c4024fdcd4f3b82e1916a4bb3e" target="_top" xlink:title="backend.command.ModelCommand.user\lVariables">
<polygon fill="white" stroke="black" points="202.5,-0 202.5,-30 417.5,-30 417.5,-0 202.5,-0"/>
<text text-anchor="start" x="210.5" y="-18" font-family="Helvetica,sans-Serif" font-size="10.00">backend.command.ModelCommand.user</text>
<text text-anchor="middle" x="310" y="-7" font-family="Helvetica,sans-Serif" font-size="10.00">Variables</text>
</a>
</g>
</g>
<!-- Node1&#45;&gt;Node7 -->
<g id="edge9" class="edge"><title>Node1&#45;&gt;Node7</title>
<path fill="none" stroke="midnightblue" d="M118.173,-68.4317C151.861,-58.999 204.152,-44.3574 245.483,-32.7849"/>
<polygon fill="midnightblue" stroke="midnightblue" points="246.51,-36.1318 255.196,-30.065 244.623,-29.391 246.51,-36.1318"/>
</g>
<!-- Node3 -->
<g id="node3" class="node"><title>Node3</title>
<g id="a_node3"><a xlink:href="../../dc/d83/classbackend_1_1command_1_1_command.html#ae218516ae55b1b0d4820d55c901793ea" target="_top" xlink:title="backend.command.Command.execute\lParam">
<polygon fill="white" stroke="black" points="454.5,-126 454.5,-156 657.5,-156 657.5,-126 454.5,-126"/>
<text text-anchor="start" x="462.5" y="-144" font-family="Helvetica,sans-Serif" font-size="10.00">backend.command.Command.execute</text>
<text text-anchor="middle" x="556" y="-133" font-family="Helvetica,sans-Serif" font-size="10.00">Param</text>
</a>
</g>
</g>
<!-- Node2&#45;&gt;Node3 -->
<g id="edge2" class="edge"><title>Node2&#45;&gt;Node3</title>
<path fill="none" stroke="midnightblue" d="M383.547,-136.784C402.622,-137.253 423.637,-137.77 444.223,-138.276"/>
<polygon fill="midnightblue" stroke="midnightblue" points="444.201,-141.776 454.284,-138.523 444.373,-134.779 444.201,-141.776"/>
</g>
<!-- Node4 -->
<g id="node4" class="node"><title>Node4</title>
<g id="a_node4"><a xlink:href="../../de/d1a/classbackend_1_1command_1_1_for.html#abf257ca6f2249bf7a47998beec1ac0cc" target="_top" xlink:title="backend.command.For.forVarList">
<polygon fill="white" stroke="black" points="469,-87.5 469,-106.5 643,-106.5 643,-87.5 469,-87.5"/>
<text text-anchor="middle" x="556" y="-94.5" font-family="Helvetica,sans-Serif" font-size="10.00">backend.command.For.forVarList</text>
</a>
</g>
</g>
<!-- Node2&#45;&gt;Node4 -->
<g id="edge3" class="edge"><title>Node2&#45;&gt;Node4</title>
<path fill="none" stroke="midnightblue" d="M372.257,-125.46C406.048,-120.197 448.186,-113.635 483.481,-108.138"/>
<polygon fill="midnightblue" stroke="midnightblue" points="484.376,-111.541 493.718,-106.544 483.299,-104.624 484.376,-111.541"/>
</g>
<!-- Node4&#45;&gt;Node5 -->
<g id="edge4" class="edge"><title>Node4&#45;&gt;Node5</title>
<path fill="none" stroke="midnightblue" d="M643.143,-89.7898C656.436,-88.6772 670.261,-87.52 683.828,-86.3844"/>
<polygon fill="midnightblue" stroke="midnightblue" points="684.467,-89.8433 694.14,-85.5213 683.883,-82.8677 684.467,-89.8433"/>
</g>
<!-- Node6&#45;&gt;Node3 -->
<g id="edge8" class="edge"><title>Node6&#45;&gt;Node3</title>
<path fill="none" stroke="midnightblue" d="M364.894,-106.518C381.888,-109.534 400.731,-112.891 418,-116 432.639,-118.635 448.155,-121.448 463.28,-124.201"/>
<polygon fill="midnightblue" stroke="midnightblue" points="462.685,-127.65 473.15,-125.998 463.939,-120.763 462.685,-127.65"/>
</g>
<!-- Node6&#45;&gt;Node4 -->
<g id="edge7" class="edge"><title>Node6&#45;&gt;Node4</title>
<path fill="none" stroke="midnightblue" d="M399.09,-97C418.386,-97 438.912,-97 458.517,-97"/>
<polygon fill="midnightblue" stroke="midnightblue" points="458.674,-100.5 468.674,-97 458.674,-93.5001 458.674,-100.5"/>
</g>
<!-- Node8 -->
<g id="node8" class="node"><title>Node8</title>
<g id="a_node8"><a xlink:href="../../d3/dac/classbackend_1_1_model.html#a834151b5a74c7a2a136f51ed6a1a709f" target="_top" xlink:title="backend.Model.getUserVariables">
<polygon fill="white" stroke="black" points="469.5,-5.5 469.5,-24.5 642.5,-24.5 642.5,-5.5 469.5,-5.5"/>
<text text-anchor="middle" x="556" y="-12.5" font-family="Helvetica,sans-Serif" font-size="10.00">backend.Model.getUserVariables</text>
</a>
</g>
</g>
<!-- Node7&#45;&gt;Node8 -->
<g id="edge10" class="edge"><title>Node7&#45;&gt;Node8</title>
<path fill="none" stroke="midnightblue" d="M417.667,-15C431.462,-15 445.523,-15 459.13,-15"/>
<polygon fill="midnightblue" stroke="midnightblue" points="459.434,-18.5001 469.434,-15 459.434,-11.5001 459.434,-18.5001"/>
</g>
</g>
</svg>
