<?xml version="1.0" encoding="UTF-8" standalone="no"?>
<!DOCTYPE svg PUBLIC "-//W3C//DTD SVG 1.1//EN"
 "http://www.w3.org/Graphics/SVG/1.1/DTD/svg11.dtd">
<!-- Generated by graphviz version 2.36.0 (20140111.2315)
 -->
<!-- Title: backend.command.For.execute Pages: 1 -->
<!--zoomable 237 -->
<svg id="main" version="1.1" xmlns="http://www.w3.org/2000/svg" xmlns:xlink="http://www.w3.org/1999/xlink" xml:space="preserve" onload="init(evt)">
<style type="text/css"><![CDATA[
.edge:hover path { stroke: red; }
.edge:hover polygon { stroke: red; fill: red; }
]]></style>
<script type="text/javascript"><![CDATA[
var edges = document.getElementsByTagName('g');
if (edges && edges.length) {
  for (var i=0;i<edges.length;i++) {
    if (edges[i].id.substr(0,4)=='edge') {
      edges[i].setAttribute('class','edge');
    }
  }
}
]]></script>
        <defs>
                <circle id="rim" cx="0" cy="0" r="7"/>
                <circle id="rim2" cx="0" cy="0" r="3.5"/>
                <g id="zoomPlus">
                        <use xlink:href="#rim" fill="#404040">
                                <set attributeName="fill" to="#808080" begin="zoomplus.mouseover" end="zoomplus.mouseout"/>
                        </use>
                        <path d="M-4,0h8M0,-4v8" fill="none" stroke="white" stroke-width="1.5" pointer-events="none"/>
                </g>
                <g id="zoomMin">
                        <use xlink:href="#rim" fill="#404040">
                                <set attributeName="fill" to="#808080" begin="zoomminus.mouseover" end="zoomminus.mouseout"/>
                        </use>
                        <path d="M-4,0h8" fill="none" stroke="white" stroke-width="1.5" pointer-events="none"/>
                </g>
                <g id="dirArrow">
                        <path fill="none" stroke="white" stroke-width="1.5" d="M0,-3.0v7 M-2.5,-0.5L0,-3.0L2.5,-0.5"/>
                </g>
               <g id="resetDef">
                       <use xlink:href="#rim2" fill="#404040">
                               <set attributeName="fill" to="#808080" begin="reset.mouseover" end="reset.mouseout"/>
                       </use>
               </g>
        </defs>

<script type="text/javascript">
var viewWidth = 1088;
var viewHeight = 237;
var sectionId = 'dynsection-6';
</script>
<script xlink:href="../../svgpan.js"/>
<svg id="graph" class="graph">
<g id="viewport">
<title>backend.command.For.execute</title>
<polygon fill="white" stroke="none" points="-4,4 -4,-232.76 1084,-232.76 1084,4 -4,4"/>
<!-- Node1 -->
<g id="node1" class="node"><title>Node1</title>
<polygon fill="#bfbfbf" stroke="black" points="0.5,-76.5 0.5,-95.5 167.5,-95.5 167.5,-76.5 0.5,-76.5"/>
<text text-anchor="middle" x="84" y="-83.5" font-family="Helvetica,sans-Serif" font-size="10.00">backend.command.For.execute</text>
</g>
<!-- Node2 -->
<g id="node2" class="node"><title>Node2</title>
<g id="a_node2"><a xlink:href="../../de/d1a/classbackend_1_1command_1_1_for.html#ad30392f9d7ec36ad35d6306ea4eba72f" target="_top" xlink:title="backend.command.For.countVar">
<polygon fill="white" stroke="black" points="428,-0.5 428,-19.5 600,-19.5 600,-0.5 428,-0.5"/>
<text text-anchor="middle" x="514" y="-7.5" font-family="Helvetica,sans-Serif" font-size="10.00">backend.command.For.countVar</text>
</a>
</g>
</g>
<!-- Node1&#45;&gt;Node2 -->
<g id="edge1" class="edge"><title>Node1&#45;&gt;Node2</title>
<path fill="none" stroke="midnightblue" d="M122.092,-76.4962C145.49,-70.6944 176.398,-63.3828 204,-58 280.723,-43.0378 368.89,-29.722 431.358,-20.9338"/>
<polygon fill="midnightblue" stroke="midnightblue" points="432.127,-24.3604 441.545,-19.5087 431.157,-17.4279 432.127,-24.3604"/>
</g>
<!-- Node5 -->
<g id="node5" class="node"><title>Node5</title>
<g id="a_node5"><a xlink:href="../../de/d1a/classbackend_1_1command_1_1_for.html#af670f94af1ef47bb0bf1128faa43b8bd" target="_top" xlink:title="backend.command.For.end">
<polygon fill="white" stroke="black" points="440.5,-114.5 440.5,-133.5 587.5,-133.5 587.5,-114.5 440.5,-114.5"/>
<text text-anchor="middle" x="514" y="-121.5" font-family="Helvetica,sans-Serif" font-size="10.00">backend.command.For.end</text>
</a>
</g>
</g>
<!-- Node1&#45;&gt;Node5 -->
<g id="edge5" class="edge"><title>Node1&#45;&gt;Node5</title>
<path fill="none" stroke="midnightblue" d="M162.088,-95.5203C176.027,-97.1133 190.439,-98.6762 204,-100 280.474,-107.465 367.778,-114.07 430.036,-118.451"/>
<polygon fill="midnightblue" stroke="midnightblue" points="429.974,-121.955 440.194,-119.162 430.463,-114.972 429.974,-121.955"/>
</g>
<!-- Node7 -->
<g id="node7" class="node"><title>Node7</title>
<g id="a_node7"><a xlink:href="../../de/d1a/classbackend_1_1command_1_1_for.html#ab76f75506018a6dc4787ded9ba77212a" target="_top" xlink:title="backend.command.For.forLoop">
<polygon fill="white" stroke="black" points="204.5,-152.5 204.5,-171.5 369.5,-171.5 369.5,-152.5 204.5,-152.5"/>
<text text-anchor="middle" x="287" y="-159.5" font-family="Helvetica,sans-Serif" font-size="10.00">backend.command.For.forLoop</text>
</a>
</g>
</g>
<!-- Node1&#45;&gt;Node7 -->
<g id="edge8" class="edge"><title>Node1&#45;&gt;Node7</title>
<path fill="none" stroke="midnightblue" d="M104.897,-95.6259C128.274,-106.717 168.398,-125.071 204,-138 215.546,-142.193 228.203,-146.185 240.044,-149.667"/>
<polygon fill="midnightblue" stroke="midnightblue" points="239.177,-153.059 249.756,-152.465 241.115,-146.333 239.177,-153.059"/>
</g>
<!-- Node8 -->
<g id="node8" class="node"><title>Node8</title>
<g id="a_node8"><a xlink:href="../../de/d1a/classbackend_1_1command_1_1_for.html#a1ef90c6eeba84aa760be374aff817eea" target="_top" xlink:title="backend.command.For.increment">
<polygon fill="white" stroke="black" points="425,-76.5 425,-95.5 603,-95.5 603,-76.5 425,-76.5"/>
<text text-anchor="middle" x="514" y="-83.5" font-family="Helvetica,sans-Serif" font-size="10.00">backend.command.For.increment</text>
</a>
</g>
</g>
<!-- Node1&#45;&gt;Node8 -->
<g id="edge16" class="edge"><title>Node1&#45;&gt;Node8</title>
<path fill="none" stroke="midnightblue" d="M167.523,-86C238.051,-86 339.687,-86 414.469,-86"/>
<polygon fill="midnightblue" stroke="midnightblue" points="414.837,-89.5001 424.837,-86 414.837,-82.5001 414.837,-89.5001"/>
</g>
<!-- Node11 -->
<g id="node11" class="node"><title>Node11</title>
<g id="a_node11"><a xlink:href="../../de/d1a/classbackend_1_1command_1_1_for.html#a659c098aec0f5968be646f0fed371577" target="_top" xlink:title="backend.command.For.start">
<polygon fill="white" stroke="black" points="438,-38.5 438,-57.5 590,-57.5 590,-38.5 438,-38.5"/>
<text text-anchor="middle" x="514" y="-45.5" font-family="Helvetica,sans-Serif" font-size="10.00">backend.command.For.start</text>
</a>
</g>
</g>
<!-- Node1&#45;&gt;Node11 -->
<g id="edge17" class="edge"><title>Node1&#45;&gt;Node11</title>
<path fill="none" stroke="midnightblue" d="M167.523,-78.6732C242.38,-72.027 352.28,-62.2695 427.922,-55.5537"/>
<polygon fill="midnightblue" stroke="midnightblue" points="428.246,-59.0388 437.897,-54.668 427.627,-52.0662 428.246,-59.0388"/>
</g>
<!-- Node3 -->
<g id="node3" class="node"><title>Node3</title>
<g id="a_node3"><a xlink:href="../../de/d1a/classbackend_1_1command_1_1_for.html#abf257ca6f2249bf7a47998beec1ac0cc" target="_top" xlink:title="backend.command.For.forVarList">
<polygon fill="white" stroke="black" points="673,-38.5 673,-57.5 847,-57.5 847,-38.5 673,-38.5"/>
<text text-anchor="middle" x="760" y="-45.5" font-family="Helvetica,sans-Serif" font-size="10.00">backend.command.For.forVarList</text>
</a>
</g>
</g>
<!-- Node2&#45;&gt;Node3 -->
<g id="edge2" class="edge"><title>Node2&#45;&gt;Node3</title>
<path fill="none" stroke="midnightblue" d="M576.257,-19.54C610.048,-24.8025 652.186,-31.3651 687.481,-36.8618"/>
<polygon fill="midnightblue" stroke="midnightblue" points="687.299,-40.3755 697.718,-38.4561 688.376,-33.4589 687.299,-40.3755"/>
</g>
<!-- Node4 -->
<g id="node4" class="node"><title>Node4</title>
<g id="a_node4"><a xlink:href="../../dc/d83/classbackend_1_1command_1_1_command.html#a606032e5ef26d465113f65e6e3c09bef" target="_top" xlink:title="backend.command.Command.get\lParam">
<polygon fill="white" stroke="black" points="898.5,-33 898.5,-63 1079.5,-63 1079.5,-33 898.5,-33"/>
<text text-anchor="start" x="906.5" y="-51" font-family="Helvetica,sans-Serif" font-size="10.00">backend.command.Command.get</text>
<text text-anchor="middle" x="989" y="-40" font-family="Helvetica,sans-Serif" font-size="10.00">Param</text>
</a>
</g>
</g>
<!-- Node2&#45;&gt;Node4 -->
<g id="edge4" class="edge"><title>Node2&#45;&gt;Node4</title>
<path fill="none" stroke="midnightblue" d="M600.027,-12.4026C670.384,-14.9312 772.872,-19.8608 862,-29 870.554,-29.8772 879.416,-30.926 888.294,-32.0742"/>
<polygon fill="midnightblue" stroke="midnightblue" points="887.935,-35.5571 898.309,-33.4088 888.859,-28.6185 887.935,-35.5571"/>
</g>
<!-- Node3&#45;&gt;Node4 -->
<g id="edge3" class="edge"><title>Node3&#45;&gt;Node4</title>
<path fill="none" stroke="midnightblue" d="M847.143,-48C860.436,-48 874.261,-48 887.828,-48"/>
<polygon fill="midnightblue" stroke="midnightblue" points="888.14,-51.5001 898.14,-48 888.14,-44.5001 888.14,-51.5001"/>
</g>
<!-- Node5&#45;&gt;Node3 -->
<g id="edge7" class="edge"><title>Node5&#45;&gt;Node3</title>
<path fill="none" stroke="midnightblue" d="M587.624,-117.564C599.554,-114.713 611.452,-110.681 622,-105 642.482,-93.9675 637.574,-78.1369 658,-67 662.232,-64.6925 666.696,-62.6605 671.295,-60.8714"/>
<polygon fill="midnightblue" stroke="midnightblue" points="672.601,-64.1228 680.895,-57.53 670.3,-57.5118 672.601,-64.1228"/>
</g>
<!-- Node6 -->
<g id="node6" class="node"><title>Node6</title>
<g id="a_node6"><a xlink:href="../../dc/d83/classbackend_1_1command_1_1_command.html#ae218516ae55b1b0d4820d55c901793ea" target="_top" xlink:title="backend.command.Command.execute\lParam">
<polygon fill="white" stroke="black" points="658.5,-77 658.5,-107 861.5,-107 861.5,-77 658.5,-77"/>
<text text-anchor="start" x="666.5" y="-95" font-family="Helvetica,sans-Serif" font-size="10.00">backend.command.Command.execute</text>
<text text-anchor="middle" x="760" y="-84" font-family="Helvetica,sans-Serif" font-size="10.00">Param</text>
</a>
</g>
</g>
<!-- Node5&#45;&gt;Node6 -->
<g id="edge6" class="edge"><title>Node5&#45;&gt;Node6</title>
<path fill="none" stroke="midnightblue" d="M587.547,-114.486C606.622,-111.984 627.637,-109.228 648.223,-106.528"/>
<polygon fill="midnightblue" stroke="midnightblue" points="648.824,-109.979 658.284,-105.209 647.914,-103.039 648.824,-109.979"/>
</g>
<!-- Node7&#45;&gt;Node4 -->
<g id="edge15" class="edge"><title>Node7&#45;&gt;Node4</title>
<path fill="none" stroke="midnightblue" d="M315.381,-171.534C400.949,-199.648 669.123,-274.903 862,-187 914.602,-163.027 954.829,-105.485 974.556,-72.442"/>
<polygon fill="midnightblue" stroke="midnightblue" points="977.796,-73.8339 979.792,-63.4288 971.742,-70.3181 977.796,-73.8339"/>
</g>
<!-- Node7&#45;&gt;Node5 -->
<g id="edge9" class="edge"><title>Node7&#45;&gt;Node5</title>
<path fill="none" stroke="midnightblue" d="M344.487,-152.46C375.379,-147.243 413.837,-140.747 446.21,-135.28"/>
<polygon fill="midnightblue" stroke="midnightblue" points="447.213,-138.66 456.49,-133.544 446.047,-131.758 447.213,-138.66"/>
</g>
<!-- Node7&#45;&gt;Node8 -->
<g id="edge10" class="edge"><title>Node7&#45;&gt;Node8</title>
<path fill="none" stroke="midnightblue" d="M304.207,-152.39C326.415,-139.644 367.902,-117.324 406,-105 414.701,-102.185 423.942,-99.7555 433.208,-97.6655"/>
<polygon fill="midnightblue" stroke="midnightblue" points="434.195,-101.034 443.248,-95.529 432.738,-94.1873 434.195,-101.034"/>
</g>
<!-- Node9 -->
<g id="node9" class="node"><title>Node9</title>
<g id="a_node9"><a xlink:href="../../dc/d67/classbackend_1_1command_1_1_model_command.html#a1900a3c4024fdcd4f3b82e1916a4bb3e" target="_top" xlink:title="backend.command.ModelCommand.user\lVariables">
<polygon fill="white" stroke="black" points="406.5,-153 406.5,-183 621.5,-183 621.5,-153 406.5,-153"/>
<text text-anchor="start" x="414.5" y="-171" font-family="Helvetica,sans-Serif" font-size="10.00">backend.command.ModelCommand.user</text>
<text text-anchor="middle" x="514" y="-160" font-family="Helvetica,sans-Serif" font-size="10.00">Variables</text>
</a>
</g>
</g>
<!-- Node7&#45;&gt;Node9 -->
<g id="edge13" class="edge"><title>Node7&#45;&gt;Node9</title>
<path fill="none" stroke="midnightblue" d="M369.548,-164.175C378.229,-164.406 387.176,-164.645 396.16,-164.884"/>
<polygon fill="midnightblue" stroke="midnightblue" points="396.218,-168.387 406.307,-165.155 396.404,-161.389 396.218,-168.387"/>
</g>
<!-- Node8&#45;&gt;Node3 -->
<g id="edge11" class="edge"><title>Node8&#45;&gt;Node3</title>
<path fill="none" stroke="midnightblue" d="M576.257,-76.46C610.048,-71.1975 652.186,-64.6349 687.481,-59.1382"/>
<polygon fill="midnightblue" stroke="midnightblue" points="688.376,-62.5411 697.718,-57.5439 687.299,-55.6245 688.376,-62.5411"/>
</g>
<!-- Node8&#45;&gt;Node6 -->
<g id="edge12" class="edge"><title>Node8&#45;&gt;Node6</title>
<path fill="none" stroke="midnightblue" d="M603.09,-88.1661C617.619,-88.5234 632.845,-88.8978 647.851,-89.2668"/>
<polygon fill="midnightblue" stroke="midnightblue" points="648.11,-92.7742 658.193,-89.5211 648.282,-85.7763 648.11,-92.7742"/>
</g>
<!-- Node10 -->
<g id="node10" class="node"><title>Node10</title>
<g id="a_node10"><a xlink:href="../../d3/dac/classbackend_1_1_model.html#a834151b5a74c7a2a136f51ed6a1a709f" target="_top" xlink:title="backend.Model.getUserVariables">
<polygon fill="white" stroke="black" points="673.5,-158.5 673.5,-177.5 846.5,-177.5 846.5,-158.5 673.5,-158.5"/>
<text text-anchor="middle" x="760" y="-165.5" font-family="Helvetica,sans-Serif" font-size="10.00">backend.Model.getUserVariables</text>
</a>
</g>
</g>
<!-- Node9&#45;&gt;Node10 -->
<g id="edge14" class="edge"><title>Node9&#45;&gt;Node10</title>
<path fill="none" stroke="midnightblue" d="M621.667,-168C635.462,-168 649.523,-168 663.13,-168"/>
<polygon fill="midnightblue" stroke="midnightblue" points="663.434,-171.5 673.434,-168 663.434,-164.5 663.434,-171.5"/>
</g>
<!-- Node11&#45;&gt;Node3 -->
<g id="edge18" class="edge"><title>Node11&#45;&gt;Node3</title>
<path fill="none" stroke="midnightblue" d="M590.199,-48C613.111,-48 638.618,-48 662.722,-48"/>
<polygon fill="midnightblue" stroke="midnightblue" points="662.955,-51.5001 672.955,-48 662.955,-44.5001 662.955,-51.5001"/>
</g>
<!-- Node11&#45;&gt;Node6 -->
<g id="edge19" class="edge"><title>Node11&#45;&gt;Node6</title>
<path fill="none" stroke="midnightblue" d="M568.894,-57.5184C585.888,-60.5337 604.731,-63.8912 622,-67 636.639,-69.6355 652.155,-72.4481 667.28,-75.2006"/>
<polygon fill="midnightblue" stroke="midnightblue" points="666.685,-78.6496 677.15,-76.9981 667.939,-71.7629 666.685,-78.6496"/>
</g>
</g>
</svg>
        <g id="navigator" transform="translate(0 0)" fill="#404254">
                <rect fill="#f2f5e9" fill-opacity="0.5" stroke="#606060" stroke-width=".5" x="0" y="0" width="60" height="60"/>
                <use id="zoomplus" xlink:href="#zoomPlus" x="17" y="9" onmousedown="handleZoom(evt,'in')"/>
                <use id="zoomminus" xlink:href="#zoomMin" x="42" y="9" onmousedown="handleZoom(evt,'out')"/>
                <use id="reset" xlink:href="#resetDef" x="30" y="36" onmousedown="handleReset()"/>
                <g id="arrowUp" xlink:href="#dirArrow" transform="translate(30 24)" onmousedown="handlePan(0,-1)">
                  <use xlink:href="#rim" fill="#404040">
                        <set attributeName="fill" to="#808080" begin="arrowUp.mouseover" end="arrowUp.mouseout"/>
                  </use>
                  <path fill="none" stroke="white" stroke-width="1.5" d="M0,-3.0v7 M-2.5,-0.5L0,-3.0L2.5,-0.5"/>
                </g>
                <g id="arrowRight" xlink:href="#dirArrow" transform="rotate(90) translate(36 -43)" onmousedown="handlePan(1,0)">
                  <use xlink:href="#rim" fill="#404040">
                        <set attributeName="fill" to="#808080" begin="arrowRight.mouseover" end="arrowRight.mouseout"/>
                  </use>
                  <path fill="none" stroke="white" stroke-width="1.5" d="M0,-3.0v7 M-2.5,-0.5L0,-3.0L2.5,-0.5"/>
                </g>
                <g id="arrowDown" xlink:href="#dirArrow" transform="rotate(180) translate(-30 -48)" onmousedown="handlePan(0,1)">
                  <use xlink:href="#rim" fill="#404040">
                        <set attributeName="fill" to="#808080" begin="arrowDown.mouseover" end="arrowDown.mouseout"/>
                  </use>
                  <path fill="none" stroke="white" stroke-width="1.5" d="M0,-3.0v7 M-2.5,-0.5L0,-3.0L2.5,-0.5"/>
                </g>
                <g id="arrowLeft" xlink:href="#dirArrow" transform="rotate(270) translate(-36 17)" onmousedown="handlePan(-1,0)">
                  <use xlink:href="#rim" fill="#404040">
                        <set attributeName="fill" to="#808080" begin="arrowLeft.mouseover" end="arrowLeft.mouseout"/>
                  </use>
                  <path fill="none" stroke="white" stroke-width="1.5" d="M0,-3.0v7 M-2.5,-0.5L0,-3.0L2.5,-0.5"/>
                </g>
        </g>
        <svg viewBox="0 0 15 15" width="100%" height="30px" preserveAspectRatio="xMaxYMin meet">
         <g id="arrow_out" transform="scale(0.3 0.3)">
          <a xlink:href="classbackend_1_1command_1_1_for_a49269498727ff3b774f81d3203262ea7_cgraph_org.svg" target="_base">
           <rect id="button" ry="5" rx="5" y="6" x="6" height="38" width="38"
                fill="#f2f5e9" fill-opacity="0.5" stroke="#606060" stroke-width="1.0"/>
           <path id="arrow"
             d="M 11.500037,31.436501 C 11.940474,20.09759 22.043105,11.32322 32.158766,21.979434 L 37.068811,17.246167 C 37.068811,17.246167 37.088388,32 37.088388,32 L 22.160133,31.978069 C 22.160133,31.978069 26.997745,27.140456 26.997745,27.140456 C 18.528582,18.264221 13.291696,25.230495 11.500037,31.436501 z"
             style="fill:#404040;"/>
          </a>
         </g>
        </svg>
</svg>
