<?xml version="1.0" encoding="UTF-8" standalone="no"?>
<!DOCTYPE svg PUBLIC "-//W3C//DTD SVG 1.1//EN"
 "http://www.w3.org/Graphics/SVG/1.1/DTD/svg11.dtd">
<!-- Generated by graphviz version 2.36.0 (20140111.2315)
 -->
<!-- Title: backend.command.For.end Pages: 1 -->
<svg width="614pt" height="82pt"
 viewBox="0.00 0.00 614.00 82.00" xmlns="http://www.w3.org/2000/svg" xmlns:xlink="http://www.w3.org/1999/xlink">
<g id="graph0" class="graph" transform="scale(1 1) rotate(0) translate(4 78)">
<title>backend.command.For.end</title>
<polygon fill="white" stroke="none" points="-4,4 -4,-78 610,-78 610,4 -4,4"/>
<!-- Node1 -->
<g id="node1" class="node"><title>Node1</title>
<polygon fill="#bfbfbf" stroke="black" points="0.5,-27.5 0.5,-46.5 147.5,-46.5 147.5,-27.5 0.5,-27.5"/>
<text text-anchor="middle" x="74" y="-34.5" font-family="Helvetica,sans-Serif" font-size="10.00">backend.command.For.end</text>
</g>
<!-- Node2 -->
<g id="node2" class="node"><title>Node2</title>
<g id="a_node2"><a xlink:href="../../dc/d83/classbackend_1_1command_1_1_command.html#ae218516ae55b1b0d4820d55c901793ea" target="_top" xlink:title="backend.command.Command.execute\lParam">
<polygon fill="white" stroke="black" points="184.5,-44 184.5,-74 387.5,-74 387.5,-44 184.5,-44"/>
<text text-anchor="start" x="192.5" y="-62" font-family="Helvetica,sans-Serif" font-size="10.00">backend.command.Command.execute</text>
<text text-anchor="middle" x="286" y="-51" font-family="Helvetica,sans-Serif" font-size="10.00">Param</text>
</a>
</g>
</g>
<!-- Node1&#45;&gt;Node2 -->
<g id="edge1" class="edge"><title>Node1&#45;&gt;Node2</title>
<path fill="none" stroke="midnightblue" d="M147.564,-44.602C156.178,-45.5043 165.114,-46.4406 174.109,-47.3828"/>
<polygon fill="midnightblue" stroke="midnightblue" points="173.964,-50.8867 184.274,-48.4478 174.693,-43.9248 173.964,-50.8867"/>
</g>
<!-- Node3 -->
<g id="node3" class="node"><title>Node3</title>
<g id="a_node3"><a xlink:href="../../de/d1a/classbackend_1_1command_1_1_for.html#abf257ca6f2249bf7a47998beec1ac0cc" target="_top" xlink:title="backend.command.For.forVarList">
<polygon fill="white" stroke="black" points="199,-5.5 199,-24.5 373,-24.5 373,-5.5 199,-5.5"/>
<text text-anchor="middle" x="286" y="-12.5" font-family="Helvetica,sans-Serif" font-size="10.00">backend.command.For.forVarList</text>
</a>
</g>
</g>
<!-- Node1&#45;&gt;Node3 -->
<g id="edge2" class="edge"><title>Node1&#45;&gt;Node3</title>
<path fill="none" stroke="midnightblue" d="M147.564,-29.398C160.825,-28.0089 174.85,-26.5395 188.674,-25.0913"/>
<polygon fill="midnightblue" stroke="midnightblue" points="189.11,-28.5649 198.691,-24.0419 188.38,-21.603 189.11,-28.5649"/>
</g>
<!-- Node4 -->
<g id="node4" class="node"><title>Node4</title>
<g id="a_node4"><a xlink:href="../../dc/d83/classbackend_1_1command_1_1_command.html#a606032e5ef26d465113f65e6e3c09bef" target="_top" xlink:title="backend.command.Command.get\lParam">
<polygon fill="white" stroke="black" points="424.5,-0 424.5,-30 605.5,-30 605.5,-0 424.5,-0"/>
<text text-anchor="start" x="432.5" y="-18" font-family="Helvetica,sans-Serif" font-size="10.00">backend.command.Command.get</text>
<text text-anchor="middle" x="515" y="-7" font-family="Helvetica,sans-Serif" font-size="10.00">Param</text>
</a>
</g>
</g>
<!-- Node3&#45;&gt;Node4 -->
<g id="edge3" class="edge"><title>Node3&#45;&gt;Node4</title>
<path fill="none" stroke="midnightblue" d="M373.143,-15C386.436,-15 400.261,-15 413.828,-15"/>
<polygon fill="midnightblue" stroke="midnightblue" points="414.14,-18.5001 424.14,-15 414.14,-11.5001 414.14,-18.5001"/>
</g>
</g>
</svg>
