<?xml version="1.0" encoding="UTF-8" standalone="no"?>
<!DOCTYPE svg PUBLIC "-//W3C//DTD SVG 1.1//EN"
 "http://www.w3.org/Graphics/SVG/1.1/DTD/svg11.dtd">
<!-- Generated by graphviz version 2.36.0 (20140111.2315)
 -->
<!-- Title: backend.command.For.increment Pages: 1 -->
<svg width="644pt" height="82pt"
 viewBox="0.00 0.00 644.00 82.00" xmlns="http://www.w3.org/2000/svg" xmlns:xlink="http://www.w3.org/1999/xlink">
<g id="graph0" class="graph" transform="scale(1 1) rotate(0) translate(4 78)">
<title>backend.command.For.increment</title>
<polygon fill="white" stroke="none" points="-4,4 -4,-78 640,-78 640,4 -4,4"/>
<!-- Node1 -->
<g id="node1" class="node"><title>Node1</title>
<polygon fill="#bfbfbf" stroke="black" points="0,-27.5 0,-46.5 178,-46.5 178,-27.5 0,-27.5"/>
<text text-anchor="middle" x="89" y="-34.5" font-family="Helvetica,sans-Serif" font-size="10.00">backend.command.For.increment</text>
</g>
<!-- Node2 -->
<g id="node2" class="node"><title>Node2</title>
<g id="a_node2"><a xlink:href="../../dc/d83/classbackend_1_1command_1_1_command.html#ae218516ae55b1b0d4820d55c901793ea" target="_top" xlink:title="backend.command.Command.execute\lParam">
<polygon fill="white" stroke="black" points="214.5,-44 214.5,-74 417.5,-74 417.5,-44 214.5,-44"/>
<text text-anchor="start" x="222.5" y="-62" font-family="Helvetica,sans-Serif" font-size="10.00">backend.command.Command.execute</text>
<text text-anchor="middle" x="316" y="-51" font-family="Helvetica,sans-Serif" font-size="10.00">Param</text>
</a>
</g>
</g>
<!-- Node1&#45;&gt;Node2 -->
<g id="edge1" class="edge"><title>Node1&#45;&gt;Node2</title>
<path fill="none" stroke="midnightblue" d="M178.28,-45.6318C186.775,-46.4625 195.464,-47.312 204.139,-48.1602"/>
<polygon fill="midnightblue" stroke="midnightblue" points="204.012,-51.6644 214.305,-49.1542 204.693,-44.6976 204.012,-51.6644"/>
</g>
<!-- Node3 -->
<g id="node3" class="node"><title>Node3</title>
<g id="a_node3"><a xlink:href="../../de/d1a/classbackend_1_1command_1_1_for.html#abf257ca6f2249bf7a47998beec1ac0cc" target="_top" xlink:title="backend.command.For.forVarList">
<polygon fill="white" stroke="black" points="229,-5.5 229,-24.5 403,-24.5 403,-5.5 229,-5.5"/>
<text text-anchor="middle" x="316" y="-12.5" font-family="Helvetica,sans-Serif" font-size="10.00">backend.command.For.forVarList</text>
</a>
</g>
</g>
<!-- Node1&#45;&gt;Node3 -->
<g id="edge2" class="edge"><title>Node1&#45;&gt;Node3</title>
<path fill="none" stroke="midnightblue" d="M178.28,-28.3682C191.525,-27.0731 205.239,-25.7322 218.642,-24.4217"/>
<polygon fill="midnightblue" stroke="midnightblue" points="219.205,-27.8834 228.817,-23.4268 218.524,-20.9166 219.205,-27.8834"/>
</g>
<!-- Node4 -->
<g id="node4" class="node"><title>Node4</title>
<g id="a_node4"><a xlink:href="../../dc/d83/classbackend_1_1command_1_1_command.html#a606032e5ef26d465113f65e6e3c09bef" target="_top" xlink:title="backend.command.Command.get\lParam">
<polygon fill="white" stroke="black" points="454.5,-0 454.5,-30 635.5,-30 635.5,-0 454.5,-0"/>
<text text-anchor="start" x="462.5" y="-18" font-family="Helvetica,sans-Serif" font-size="10.00">backend.command.Command.get</text>
<text text-anchor="middle" x="545" y="-7" font-family="Helvetica,sans-Serif" font-size="10.00">Param</text>
</a>
</g>
</g>
<!-- Node3&#45;&gt;Node4 -->
<g id="edge3" class="edge"><title>Node3&#45;&gt;Node4</title>
<path fill="none" stroke="midnightblue" d="M403.143,-15C416.436,-15 430.261,-15 443.828,-15"/>
<polygon fill="midnightblue" stroke="midnightblue" points="444.14,-18.5001 454.14,-15 444.14,-11.5001 444.14,-18.5001"/>
</g>
</g>
</svg>
