<?xml version="1.0" encoding="UTF-8" standalone="no"?>
<!DOCTYPE svg PUBLIC "-//W3C//DTD SVG 1.1//EN"
 "http://www.w3.org/Graphics/SVG/1.1/DTD/svg11.dtd">
<!-- Generated by graphviz version 2.36.0 (20140111.2315)
 -->
<!-- Title: backend.command.For.countVar Pages: 1 -->
<svg width="608pt" height="53pt"
 viewBox="0.00 0.00 608.00 53.00" xmlns="http://www.w3.org/2000/svg" xmlns:xlink="http://www.w3.org/1999/xlink">
<g id="graph0" class="graph" transform="scale(1 1) rotate(0) translate(4 49)">
<title>backend.command.For.countVar</title>
<polygon fill="white" stroke="none" points="-4,4 -4,-49 604,-49 604,4 -4,4"/>
<!-- Node1 -->
<g id="node1" class="node"><title>Node1</title>
<polygon fill="#bfbfbf" stroke="black" points="0,-6.5 0,-25.5 172,-25.5 172,-6.5 0,-6.5"/>
<text text-anchor="middle" x="86" y="-13.5" font-family="Helvetica,sans-Serif" font-size="10.00">backend.command.For.countVar</text>
</g>
<!-- Node2 -->
<g id="node2" class="node"><title>Node2</title>
<g id="a_node2"><a xlink:href="../../de/d1a/classbackend_1_1command_1_1_for.html#abf257ca6f2249bf7a47998beec1ac0cc" target="_top" xlink:title="backend.command.For.forVarList">
<polygon fill="white" stroke="black" points="208,-25.5 208,-44.5 382,-44.5 382,-25.5 208,-25.5"/>
<text text-anchor="middle" x="295" y="-32.5" font-family="Helvetica,sans-Serif" font-size="10.00">backend.command.For.forVarList</text>
</a>
</g>
</g>
<!-- Node1&#45;&gt;Node2 -->
<g id="edge1" class="edge"><title>Node1&#45;&gt;Node2</title>
<path fill="none" stroke="midnightblue" d="M172.091,-23.8103C180.587,-24.5901 189.253,-25.3856 197.852,-26.1748"/>
<polygon fill="midnightblue" stroke="midnightblue" points="197.623,-29.6684 207.901,-27.0972 198.262,-22.6977 197.623,-29.6684"/>
</g>
<!-- Node3 -->
<g id="node3" class="node"><title>Node3</title>
<g id="a_node3"><a xlink:href="../../dc/d83/classbackend_1_1command_1_1_command.html#a606032e5ef26d465113f65e6e3c09bef" target="_top" xlink:title="backend.command.Command.get\lParam">
<polygon fill="white" stroke="black" points="418.5,-1 418.5,-31 599.5,-31 599.5,-1 418.5,-1"/>
<text text-anchor="start" x="426.5" y="-19" font-family="Helvetica,sans-Serif" font-size="10.00">backend.command.Command.get</text>
<text text-anchor="middle" x="509" y="-8" font-family="Helvetica,sans-Serif" font-size="10.00">Param</text>
</a>
</g>
</g>
<!-- Node1&#45;&gt;Node3 -->
<g id="edge3" class="edge"><title>Node1&#45;&gt;Node3</title>
<path fill="none" stroke="midnightblue" d="M172.196,-16C240.325,-16 335.988,-16 407.791,-16"/>
<polygon fill="midnightblue" stroke="midnightblue" points="408.205,-19.5001 418.205,-16 408.205,-12.5001 408.205,-19.5001"/>
</g>
<!-- Node2&#45;&gt;Node3 -->
<g id="edge2" class="edge"><title>Node2&#45;&gt;Node3</title>
<path fill="none" stroke="midnightblue" d="M382.229,-27.272C390.798,-26.504 399.545,-25.72 408.237,-24.941"/>
<polygon fill="midnightblue" stroke="midnightblue" points="408.753,-28.4089 418.4,-24.0302 408.128,-21.4369 408.753,-28.4089"/>
</g>
</g>
</svg>
