<?xml version="1.0" encoding="UTF-8" standalone="no"?>
<!DOCTYPE svg PUBLIC "-//W3C//DTD SVG 1.1//EN"
 "http://www.w3.org/Graphics/SVG/1.1/DTD/svg11.dtd">
<!-- Generated by graphviz version 2.36.0 (20140111.2315)
 -->
<!-- Title: backend.command.For.forVarList Pages: 1 -->
<svg width="826pt" height="180pt"
 viewBox="0.00 0.00 826.00 180.00" xmlns="http://www.w3.org/2000/svg" xmlns:xlink="http://www.w3.org/1999/xlink">
<g id="graph0" class="graph" transform="scale(1 1) rotate(0) translate(4 176)">
<title>backend.command.For.forVarList</title>
<polygon fill="white" stroke="none" points="-4,4 -4,-176 822,-176 822,4 -4,4"/>
<!-- Node1 -->
<g id="node1" class="node"><title>Node1</title>
<polygon fill="#bfbfbf" stroke="black" points="0,-76.5 0,-95.5 174,-95.5 174,-76.5 0,-76.5"/>
<text text-anchor="middle" x="87" y="-83.5" font-family="Helvetica,sans-Serif" font-size="10.00">backend.command.For.forVarList</text>
</g>
<!-- Node2 -->
<g id="node2" class="node"><title>Node2</title>
<g id="a_node2"><a xlink:href="../../de/d1a/classbackend_1_1command_1_1_for.html#ad30392f9d7ec36ad35d6306ea4eba72f" target="_top" xlink:title="backend.command.For.countVar">
<polygon fill="white" stroke="black" points="424,-114.5 424,-133.5 596,-133.5 596,-114.5 424,-114.5"/>
<text text-anchor="middle" x="510" y="-121.5" font-family="Helvetica,sans-Serif" font-size="10.00">backend.command.For.countVar</text>
</a>
</g>
</g>
<!-- Node1&#45;&gt;Node2 -->
<g id="edge1" class="edge"><title>Node1&#45;&gt;Node2</title>
<path fill="none" stroke="midnightblue" d="M152.327,-97.1404C170.893,-100.051 191.212,-102.944 210,-105 281.871,-112.864 363.844,-117.789 423.761,-120.649"/>
<polygon fill="midnightblue" stroke="midnightblue" points="152.641,-93.6462 142.214,-95.527 151.538,-100.559 152.641,-93.6462"/>
</g>
<!-- Node4 -->
<g id="node4" class="node"><title>Node4</title>
<g id="a_node4"><a xlink:href="../../db/d27/classbackend_1_1command_1_1_do_times.html#a8d10f828a5eaf6cac481123bb93d1946" target="_top" xlink:title="backend.command.DoTimes.end">
<polygon fill="white" stroke="black" points="211.5,-0.5 211.5,-19.5 386.5,-19.5 386.5,-0.5 211.5,-0.5"/>
<text text-anchor="middle" x="299" y="-7.5" font-family="Helvetica,sans-Serif" font-size="10.00">backend.command.DoTimes.end</text>
</a>
</g>
</g>
<!-- Node1&#45;&gt;Node4 -->
<g id="edge3" class="edge"><title>Node1&#45;&gt;Node4</title>
<path fill="none" stroke="midnightblue" d="M114.188,-71.659C138.424,-58.901 175.772,-40.5279 210,-29 220.961,-25.3084 232.938,-22.1634 244.428,-19.5575"/>
<polygon fill="midnightblue" stroke="midnightblue" points="112.446,-68.6213 105.268,-76.4137 115.739,-74.7987 112.446,-68.6213"/>
</g>
<!-- Node5 -->
<g id="node5" class="node"><title>Node5</title>
<g id="a_node5"><a xlink:href="../../de/d1a/classbackend_1_1command_1_1_for.html#af670f94af1ef47bb0bf1128faa43b8bd" target="_top" xlink:title="backend.command.For.end">
<polygon fill="white" stroke="black" points="225.5,-76.5 225.5,-95.5 372.5,-95.5 372.5,-76.5 225.5,-76.5"/>
<text text-anchor="middle" x="299" y="-83.5" font-family="Helvetica,sans-Serif" font-size="10.00">backend.command.For.end</text>
</a>
</g>
</g>
<!-- Node1&#45;&gt;Node5 -->
<g id="edge4" class="edge"><title>Node1&#45;&gt;Node5</title>
<path fill="none" stroke="midnightblue" d="M184.041,-86C197.872,-86 211.911,-86 225.19,-86"/>
<polygon fill="midnightblue" stroke="midnightblue" points="184.021,-82.5001 174.021,-86 184.021,-89.5001 184.021,-82.5001"/>
</g>
<!-- Node8 -->
<g id="node8" class="node"><title>Node8</title>
<g id="a_node8"><a xlink:href="../../de/d1a/classbackend_1_1command_1_1_for.html#a1ef90c6eeba84aa760be374aff817eea" target="_top" xlink:title="backend.command.For.increment">
<polygon fill="white" stroke="black" points="210,-38.5 210,-57.5 388,-57.5 388,-38.5 210,-38.5"/>
<text text-anchor="middle" x="299" y="-45.5" font-family="Helvetica,sans-Serif" font-size="10.00">backend.command.For.increment</text>
</a>
</g>
</g>
<!-- Node1&#45;&gt;Node8 -->
<g id="edge9" class="edge"><title>Node1&#45;&gt;Node8</title>
<path fill="none" stroke="midnightblue" d="M150.707,-74.653C180.837,-69.2009 216.546,-62.7393 245.258,-57.5439"/>
<polygon fill="midnightblue" stroke="midnightblue" points="149.938,-71.2353 140.721,-76.46 151.184,-78.1234 149.938,-71.2353"/>
</g>
<!-- Node9 -->
<g id="node9" class="node"><title>Node9</title>
<g id="a_node9"><a xlink:href="../../de/d1a/classbackend_1_1command_1_1_for.html#a659c098aec0f5968be646f0fed371577" target="_top" xlink:title="backend.command.For.start">
<polygon fill="white" stroke="black" points="434,-152.5 434,-171.5 586,-171.5 586,-152.5 434,-152.5"/>
<text text-anchor="middle" x="510" y="-159.5" font-family="Helvetica,sans-Serif" font-size="10.00">backend.command.For.start</text>
</a>
</g>
</g>
<!-- Node1&#45;&gt;Node9 -->
<g id="edge12" class="edge"><title>Node1&#45;&gt;Node9</title>
<path fill="none" stroke="midnightblue" d="M122.769,-99.0247C146.924,-107.599 180.031,-118.416 210,-125 285.226,-141.527 372.837,-151.283 433.696,-156.589"/>
<polygon fill="midnightblue" stroke="midnightblue" points="123.92,-95.7194 113.326,-95.6254 121.549,-102.306 123.92,-95.7194"/>
</g>
<!-- Node3 -->
<g id="node3" class="node"><title>Node3</title>
<g id="a_node3"><a xlink:href="../../de/d1a/classbackend_1_1command_1_1_for.html#a49269498727ff3b774f81d3203262ea7" target="_top" xlink:title="backend.command.For.execute">
<polygon fill="white" stroke="black" points="641.5,-76.5 641.5,-95.5 808.5,-95.5 808.5,-76.5 641.5,-76.5"/>
<text text-anchor="middle" x="725" y="-83.5" font-family="Helvetica,sans-Serif" font-size="10.00">backend.command.For.execute</text>
</a>
</g>
</g>
<!-- Node2&#45;&gt;Node3 -->
<g id="edge2" class="edge"><title>Node2&#45;&gt;Node3</title>
<path fill="none" stroke="midnightblue" d="M574.603,-112.653C605.163,-107.201 641.382,-100.739 670.504,-95.5439"/>
<polygon fill="midnightblue" stroke="midnightblue" points="573.704,-109.258 564.474,-114.46 574.933,-116.149 573.704,-109.258"/>
</g>
<!-- Node5&#45;&gt;Node3 -->
<g id="edge5" class="edge"><title>Node5&#45;&gt;Node3</title>
<path fill="none" stroke="midnightblue" d="M383.181,-86C457.792,-86 566.687,-86 641.185,-86"/>
<polygon fill="midnightblue" stroke="midnightblue" points="382.888,-82.5001 372.888,-86 382.888,-89.5001 382.888,-82.5001"/>
</g>
<!-- Node6 -->
<g id="node6" class="node"><title>Node6</title>
<g id="a_node6"><a xlink:href="../../de/d1a/classbackend_1_1command_1_1_for.html#ab76f75506018a6dc4787ded9ba77212a" target="_top" xlink:title="backend.command.For.forLoop">
<polygon fill="white" stroke="black" points="427.5,-38.5 427.5,-57.5 592.5,-57.5 592.5,-38.5 427.5,-38.5"/>
<text text-anchor="middle" x="510" y="-45.5" font-family="Helvetica,sans-Serif" font-size="10.00">backend.command.For.forLoop</text>
</a>
</g>
</g>
<!-- Node5&#45;&gt;Node6 -->
<g id="edge6" class="edge"><title>Node5&#45;&gt;Node6</title>
<path fill="none" stroke="midnightblue" d="M362.408,-74.653C392.395,-69.2009 427.934,-62.7393 456.509,-57.5439"/>
<polygon fill="midnightblue" stroke="midnightblue" points="361.682,-71.2276 352.47,-76.46 362.935,-78.1147 361.682,-71.2276"/>
</g>
<!-- Node6&#45;&gt;Node3 -->
<g id="edge8" class="edge"><title>Node6&#45;&gt;Node3</title>
<path fill="none" stroke="midnightblue" d="M574.603,-59.347C605.163,-64.7991 641.382,-71.2607 670.504,-76.4561"/>
<polygon fill="midnightblue" stroke="midnightblue" points="574.933,-55.8507 564.474,-57.54 573.704,-62.7419 574.933,-55.8507"/>
</g>
<!-- Node7 -->
<g id="node7" class="node"><title>Node7</title>
<g id="a_node7"><a xlink:href="../../d0/dca/classbackend_1_1command_1_1_repeat.html#a3dc2bb1a70043d7405283e7263e158ab" target="_top" xlink:title="backend.command.Repeat.execute">
<polygon fill="white" stroke="black" points="632,-38.5 632,-57.5 818,-57.5 818,-38.5 632,-38.5"/>
<text text-anchor="middle" x="725" y="-45.5" font-family="Helvetica,sans-Serif" font-size="10.00">backend.command.Repeat.execute</text>
</a>
</g>
</g>
<!-- Node6&#45;&gt;Node7 -->
<g id="edge7" class="edge"><title>Node6&#45;&gt;Node7</title>
<path fill="none" stroke="midnightblue" d="M603.024,-48C612.571,-48 622.275,-48 631.824,-48"/>
<polygon fill="midnightblue" stroke="midnightblue" points="602.742,-44.5001 592.742,-48 602.742,-51.5001 602.742,-44.5001"/>
</g>
<!-- Node8&#45;&gt;Node3 -->
<g id="edge10" class="edge"><title>Node8&#45;&gt;Node3</title>
<path fill="none" stroke="midnightblue" d="M365.724,-36.9129C440.094,-25.5633 556.073,-11.826 596,-29 617.371,-38.1925 611.674,-55.6827 632,-67 638.982,-70.8876 646.662,-73.9831 654.517,-76.4472"/>
<polygon fill="midnightblue" stroke="midnightblue" points="364.864,-33.5043 355.518,-38.4951 365.937,-40.4217 364.864,-33.5043"/>
</g>
<!-- Node8&#45;&gt;Node6 -->
<g id="edge11" class="edge"><title>Node8&#45;&gt;Node6</title>
<path fill="none" stroke="midnightblue" d="M398.18,-48C407.96,-48 417.815,-48 427.399,-48"/>
<polygon fill="midnightblue" stroke="midnightblue" points="398.029,-44.5001 388.029,-48 398.029,-51.5001 398.029,-44.5001"/>
</g>
<!-- Node9&#45;&gt;Node3 -->
<g id="edge13" class="edge"><title>Node9&#45;&gt;Node3</title>
<path fill="none" stroke="midnightblue" d="M571.156,-150.124C579.572,-148.008 588.055,-145.628 596,-143 636.186,-129.708 680.877,-108.152 705.384,-95.7069"/>
<polygon fill="midnightblue" stroke="midnightblue" points="570.246,-146.743 561.343,-152.485 571.884,-153.548 570.246,-146.743"/>
</g>
</g>
</svg>
