<?xml version="1.0" encoding="UTF-8" standalone="no"?>
<!DOCTYPE svg PUBLIC "-//W3C//DTD SVG 1.1//EN"
 "http://www.w3.org/Graphics/SVG/1.1/DTD/svg11.dtd">
<!-- Generated by graphviz version 2.36.0 (20140111.2315)
 -->
<!-- Title: backend.SLogoParser Pages: 1 -->
<svg width="940pt" height="476pt"
 viewBox="0.00 0.00 940.00 476.00" xmlns="http://www.w3.org/2000/svg" xmlns:xlink="http://www.w3.org/1999/xlink">
<g id="graph0" class="graph" transform="scale(1 1) rotate(0) translate(4 472)">
<title>backend.SLogoParser</title>
<polygon fill="white" stroke="none" points="-4,4 -4,-472 936,-472 936,4 -4,4"/>
<!-- Node1 -->
<g id="node1" class="node"><title>Node1</title>
<polygon fill="#bfbfbf" stroke="black" points="272,-443.5 272,-462.5 392,-462.5 392,-443.5 272,-443.5"/>
<text text-anchor="middle" x="332" y="-450.5" font-family="Helvetica,sans-Serif" font-size="10.00">backend.SLogoParser</text>
</g>
<!-- Node4 -->
<g id="node4" class="node"><title>Node4</title>
<g id="a_node4"><a xlink:href="../../d3/dac/classbackend_1_1_model.html" target="_top" xlink:title="backend.Model">
<polygon fill="white" stroke="black" points="548.5,-316.5 548.5,-335.5 637.5,-335.5 637.5,-316.5 548.5,-316.5"/>
<text text-anchor="middle" x="593" y="-323.5" font-family="Helvetica,sans-Serif" font-size="10.00">backend.Model</text>
</a>
</g>
</g>
<!-- Node1&#45;&gt;Node4 -->
<g id="edge7" class="edge"><title>Node1&#45;&gt;Node4</title>
<path fill="none" stroke="#9a32cd" stroke-dasharray="5,2" d="M389.725,-441.412C446.848,-429.668 526.99,-412.952 530,-411 559.424,-391.918 579.587,-353.647 587.83,-335.703"/>
<polygon fill="#9a32cd" stroke="#9a32cd" points="388.798,-438.03 379.706,-443.47 390.206,-444.887 388.798,-438.03"/>
<text text-anchor="middle" x="478" y="-437" font-family="Helvetica,sans-Serif" font-size="10.00"> parser</text>
</g>
<!-- Node2 -->
<g id="node2" class="node"><title>Node2</title>
<polygon fill="white" stroke="#bfbfbf" points="22,-438 22,-468 134,-468 134,-438 22,-438"/>
<text text-anchor="start" x="30" y="-456" font-family="Helvetica,sans-Serif" font-size="10.00">List&lt; Entry&lt; String,</text>
<text text-anchor="middle" x="78" y="-445" font-family="Helvetica,sans-Serif" font-size="10.00"> Pattern &gt; &gt;</text>
</g>
<!-- Node2&#45;&gt;Node1 -->
<g id="edge1" class="edge"><title>Node2&#45;&gt;Node1</title>
<path fill="none" stroke="#9a32cd" stroke-dasharray="5,2" d="M144.349,-453C183.779,-453 233.617,-453 271.874,-453"/>
<polygon fill="#9a32cd" stroke="#9a32cd" points="144.303,-449.5 134.302,-453 144.302,-456.5 144.303,-449.5"/>
<text text-anchor="middle" x="206" y="-456" font-family="Helvetica,sans-Serif" font-size="10.00"> patterns</text>
</g>
<!-- Node3 -->
<g id="node3" class="node"><title>Node3</title>
<g id="a_node3"><a xlink:href="../../d3/dd9/classbackend_1_1command_1_1_command_factory.html" target="_top" xlink:title="backend.command.CommandFactory">
<polygon fill="white" stroke="black" points="734.5,-350.5 734.5,-369.5 931.5,-369.5 931.5,-350.5 734.5,-350.5"/>
<text text-anchor="middle" x="833" y="-357.5" font-family="Helvetica,sans-Serif" font-size="10.00">backend.command.CommandFactory</text>
</a>
</g>
</g>
<!-- Node3&#45;&gt;Node1 -->
<g id="edge2" class="edge"><title>Node3&#45;&gt;Node1</title>
<path fill="none" stroke="#9a32cd" stroke-dasharray="5,2" d="M796.36,-372.976C740.48,-392.645 628.449,-429.368 530,-445 484.193,-452.274 431.686,-454.089 392.405,-454.186"/>
<polygon fill="#9a32cd" stroke="#9a32cd" points="797.548,-376.268 805.802,-369.626 795.208,-369.671 797.548,-376.268"/>
<text text-anchor="middle" x="593" y="-445" font-family="Helvetica,sans-Serif" font-size="10.00"> comFactory</text>
</g>
<!-- Node3&#45;&gt;Node4 -->
<g id="edge16" class="edge"><title>Node3&#45;&gt;Node4</title>
<path fill="none" stroke="#9a32cd" stroke-dasharray="5,2" d="M736.1,-349.192C710.063,-345.936 681.907,-342.122 656,-338 650.045,-337.053 643.787,-335.958 637.631,-334.824"/>
<polygon fill="#9a32cd" stroke="#9a32cd" points="735.993,-352.705 746.347,-350.459 736.852,-345.758 735.993,-352.705"/>
<text text-anchor="middle" x="686" y="-350" font-family="Helvetica,sans-Serif" font-size="10.00"> comFactory</text>
</g>
<!-- Node4&#45;&gt;Node3 -->
<g id="edge3" class="edge"><title>Node4&#45;&gt;Node3</title>
<path fill="none" stroke="#9a32cd" stroke-dasharray="5,2" d="M647.861,-323.337C669.178,-323.091 693.838,-323.816 716,-327 747.71,-331.555 782.951,-342.453 806.176,-350.485"/>
<polygon fill="#9a32cd" stroke="#9a32cd" points="647.623,-319.841 637.691,-323.53 647.755,-326.84 647.623,-319.841"/>
<text text-anchor="middle" x="686" y="-330" font-family="Helvetica,sans-Serif" font-size="10.00"> model</text>
</g>
<!-- Node5 -->
<g id="node5" class="node"><title>Node5</title>
<polygon fill="white" stroke="#bfbfbf" points="256.5,-355 256.5,-385 407.5,-385 407.5,-355 256.5,-355"/>
<text text-anchor="start" x="264.5" y="-373" font-family="Helvetica,sans-Serif" font-size="10.00">HashMap&lt; String, backend.</text>
<text text-anchor="middle" x="332" y="-362" font-family="Helvetica,sans-Serif" font-size="10.00">Variable &gt;</text>
</g>
<!-- Node5&#45;&gt;Node4 -->
<g id="edge4" class="edge"><title>Node5&#45;&gt;Node4</title>
<path fill="none" stroke="#9a32cd" stroke-dasharray="5,2" d="M417.791,-359.244C452.671,-354.372 493.399,-348.106 530,-341 538.154,-339.417 546.851,-337.474 555.074,-335.518"/>
<polygon fill="#9a32cd" stroke="#9a32cd" points="417.069,-355.811 407.642,-360.646 418.027,-362.745 417.069,-355.811"/>
<text text-anchor="middle" x="478" y="-361" font-family="Helvetica,sans-Serif" font-size="10.00"> userVariables</text>
</g>
<!-- Node6 -->
<g id="node6" class="node"><title>Node6</title>
<polygon fill="white" stroke="#bfbfbf" points="274,-316.5 274,-335.5 390,-335.5 390,-316.5 274,-316.5"/>
<text text-anchor="middle" x="332" y="-323.5" font-family="Helvetica,sans-Serif" font-size="10.00">Stack&lt; Command &gt;</text>
</g>
<!-- Node6&#45;&gt;Node4 -->
<g id="edge5" class="edge"><title>Node6&#45;&gt;Node4</title>
<path fill="none" stroke="#9a32cd" stroke-dasharray="5,2" d="M400.192,-326C446.87,-326 507.729,-326 548.247,-326"/>
<polygon fill="#9a32cd" stroke="#9a32cd" points="400.159,-322.5 390.159,-326 400.159,-329.5 400.159,-322.5"/>
<text text-anchor="middle" x="478" y="-329" font-family="Helvetica,sans-Serif" font-size="10.00"> executedCommands</text>
</g>
<!-- Node7 -->
<g id="node7" class="node"><title>Node7</title>
<polygon fill="white" stroke="#bfbfbf" points="256.5,-267 256.5,-297 407.5,-297 407.5,-267 256.5,-267"/>
<text text-anchor="start" x="264.5" y="-285" font-family="Helvetica,sans-Serif" font-size="10.00">HashMap&lt; String, backend.</text>
<text text-anchor="middle" x="332" y="-274" font-family="Helvetica,sans-Serif" font-size="10.00">UserInstructionContainer &gt;</text>
</g>
<!-- Node7&#45;&gt;Node4 -->
<g id="edge6" class="edge"><title>Node7&#45;&gt;Node4</title>
<path fill="none" stroke="#9a32cd" stroke-dasharray="5,2" d="M417.791,-292.756C452.671,-297.628 493.399,-303.894 530,-311 538.154,-312.583 546.851,-314.526 555.074,-316.482"/>
<polygon fill="#9a32cd" stroke="#9a32cd" points="418.027,-289.255 407.642,-291.354 417.069,-296.189 418.027,-289.255"/>
<text text-anchor="middle" x="478" y="-314" font-family="Helvetica,sans-Serif" font-size="10.00"> userInstructions</text>
</g>
<!-- Node8 -->
<g id="node8" class="node"><title>Node8</title>
<g id="a_node8"><a xlink:href="../../d1/d68/classbackend_1_1_grid.html" target="_top" xlink:title="backend.Grid">
<polygon fill="white" stroke="black" points="292,-133.5 292,-152.5 372,-152.5 372,-133.5 292,-133.5"/>
<text text-anchor="middle" x="332" y="-140.5" font-family="Helvetica,sans-Serif" font-size="10.00">backend.Grid</text>
</a>
</g>
</g>
<!-- Node8&#45;&gt;Node4 -->
<g id="edge8" class="edge"><title>Node8&#45;&gt;Node4</title>
<path fill="none" stroke="#9a32cd" stroke-dasharray="5,2" d="M382.315,-150.041C425.471,-158.398 487.705,-176.028 530,-212 564.323,-241.192 582.858,-294.352 589.325,-316.212"/>
<polygon fill="#9a32cd" stroke="#9a32cd" points="382.792,-146.57 372.324,-148.205 381.527,-153.454 382.792,-146.57"/>
<text text-anchor="middle" x="478" y="-215" font-family="Helvetica,sans-Serif" font-size="10.00"> grid</text>
</g>
<!-- Node9 -->
<g id="node9" class="node"><title>Node9</title>
<polygon fill="white" stroke="#bfbfbf" points="57.5,-91.5 57.5,-110.5 98.5,-110.5 98.5,-91.5 57.5,-91.5"/>
<text text-anchor="middle" x="78" y="-98.5" font-family="Helvetica,sans-Serif" font-size="10.00">Color</text>
</g>
<!-- Node9&#45;&gt;Node8 -->
<g id="edge9" class="edge"><title>Node9&#45;&gt;Node8</title>
<path fill="none" stroke="#9a32cd" stroke-dasharray="5,2" d="M108.899,-105.983C154.475,-113.579 241.35,-128.058 291.884,-136.481"/>
<polygon fill="#9a32cd" stroke="#9a32cd" points="109.213,-102.487 98.774,-104.296 108.063,-109.392 109.213,-102.487"/>
<text text-anchor="middle" x="206" y="-130" font-family="Helvetica,sans-Serif" font-size="10.00"> bgColor</text>
</g>
<!-- Node10 -->
<g id="node10" class="node"><title>Node10</title>
<g id="a_node10"><a xlink:href="../../df/d77/classbackend_1_1_bi_index.html" target="_top" xlink:title="backend.BiIndex\&lt; String \&gt;">
<polygon fill="white" stroke="black" points="5,-223.5 5,-242.5 151,-242.5 151,-223.5 5,-223.5"/>
<text text-anchor="middle" x="78" y="-230.5" font-family="Helvetica,sans-Serif" font-size="10.00">backend.BiIndex&lt; String &gt;</text>
</a>
</g>
</g>
<!-- Node10&#45;&gt;Node4 -->
<g id="edge15" class="edge"><title>Node10&#45;&gt;Node4</title>
<path fill="none" stroke="#9a32cd" stroke-dasharray="5,2" d="M161.406,-229.163C228.463,-227.731 325.212,-229.525 408,-246 464.682,-257.28 477.556,-266.716 530,-291 546.376,-298.583 564.239,-308.9 576.567,-316.367"/>
<polygon fill="#9a32cd" stroke="#9a32cd" points="161.232,-225.666 151.32,-229.408 161.402,-232.664 161.232,-225.666"/>
<text text-anchor="middle" x="332" y="-249" font-family="Helvetica,sans-Serif" font-size="10.00"> imageMap</text>
</g>
<!-- Node10&#45;&gt;Node8 -->
<g id="edge10" class="edge"><title>Node10&#45;&gt;Node8</title>
<path fill="none" stroke="#9a32cd" stroke-dasharray="5,2" d="M128.378,-220.901C160.111,-212.593 201.986,-200.628 238,-187 264.729,-176.885 294.375,-162.226 312.85,-152.655"/>
<polygon fill="#9a32cd" stroke="#9a32cd" points="127.257,-217.576 118.452,-223.468 129.009,-224.353 127.257,-217.576"/>
<text text-anchor="middle" x="206" y="-211" font-family="Helvetica,sans-Serif" font-size="10.00"> imageMap</text>
</g>
<!-- Node11 -->
<g id="node11" class="node"><title>Node11</title>
<polygon fill="white" stroke="#bfbfbf" points="3,-53.5 3,-72.5 153,-72.5 153,-53.5 3,-53.5"/>
<text text-anchor="middle" x="78" y="-60.5" font-family="Helvetica,sans-Serif" font-size="10.00">ArrayList&lt; backend.Turtle &gt;</text>
</g>
<!-- Node11&#45;&gt;Node8 -->
<g id="edge11" class="edge"><title>Node11&#45;&gt;Node8</title>
<path fill="none" stroke="#9a32cd" stroke-dasharray="5,2" d="M127.774,-74.9665C137.146,-77.2852 146.88,-79.7071 156,-82 192.485,-91.1731 202.39,-90.8645 238,-103 263.786,-111.788 292.44,-124.598 311.036,-133.338"/>
<polygon fill="#9a32cd" stroke="#9a32cd" points="128.341,-71.5014 117.793,-72.5019 126.663,-78.2973 128.341,-71.5014"/>
<text text-anchor="middle" x="206" y="-106" font-family="Helvetica,sans-Serif" font-size="10.00"> activeTurtles</text>
</g>
<!-- Node12 -->
<g id="node12" class="node"><title>Node12</title>
<polygon fill="white" stroke="#bfbfbf" points="44,-179.5 44,-198.5 112,-198.5 112,-179.5 44,-179.5"/>
<text text-anchor="middle" x="78" y="-186.5" font-family="Helvetica,sans-Serif" font-size="10.00">Dimension</text>
</g>
<!-- Node12&#45;&gt;Node8 -->
<g id="edge12" class="edge"><title>Node12&#45;&gt;Node8</title>
<path fill="none" stroke="#9a32cd" stroke-dasharray="5,2" d="M122.219,-181.111C169.904,-172.406 245.966,-158.522 291.926,-150.133"/>
<polygon fill="#9a32cd" stroke="#9a32cd" points="121.413,-177.7 112.204,-182.939 122.67,-184.586 121.413,-177.7"/>
<text text-anchor="middle" x="206" y="-175" font-family="Helvetica,sans-Serif" font-size="10.00"> size</text>
</g>
<!-- Node13 -->
<g id="node13" class="node"><title>Node13</title>
<polygon fill="white" stroke="#bfbfbf" points="0,-130 0,-160 156,-160 156,-130 0,-130"/>
<text text-anchor="start" x="8" y="-148" font-family="Helvetica,sans-Serif" font-size="10.00">HashMap&lt; Integer, backend.</text>
<text text-anchor="middle" x="78" y="-137" font-family="Helvetica,sans-Serif" font-size="10.00">Turtle &gt;</text>
</g>
<!-- Node13&#45;&gt;Node8 -->
<g id="edge13" class="edge"><title>Node13&#45;&gt;Node8</title>
<path fill="none" stroke="#9a32cd" stroke-dasharray="5,2" d="M166.324,-144.067C168.911,-144.044 171.474,-144.021 174,-144 214.203,-143.66 260.199,-143.38 291.965,-143.204"/>
<polygon fill="#9a32cd" stroke="#9a32cd" points="166.219,-140.568 156.252,-144.16 166.284,-147.567 166.219,-140.568"/>
<text text-anchor="middle" x="206" y="-147" font-family="Helvetica,sans-Serif" font-size="10.00"> allTurtles</text>
</g>
<!-- Node14 -->
<g id="node14" class="node"><title>Node14</title>
<g id="a_node14"><a xlink:href="../../df/d77/classbackend_1_1_bi_index.html" target="_top" xlink:title="backend.BiIndex\&lt; Color \&gt;">
<polygon fill="white" stroke="black" points="7,-0.5 7,-19.5 149,-19.5 149,-0.5 7,-0.5"/>
<text text-anchor="middle" x="78" y="-7.5" font-family="Helvetica,sans-Serif" font-size="10.00">backend.BiIndex&lt; Color &gt;</text>
</a>
</g>
</g>
<!-- Node14&#45;&gt;Node4 -->
<g id="edge18" class="edge"><title>Node14&#45;&gt;Node4</title>
<path fill="none" stroke="#9a32cd" stroke-dasharray="5,2" d="M159.13,-14.2576C259.66,-23.9393 430.859,-55.4872 530,-158 575.387,-204.931 588.032,-287.915 591.11,-316.222"/>
<polygon fill="#9a32cd" stroke="#9a32cd" points="159.305,-10.7591 149.029,-13.3355 158.669,-17.7301 159.305,-10.7591"/>
<text text-anchor="middle" x="332" y="-79" font-family="Helvetica,sans-Serif" font-size="10.00"> colorMap</text>
</g>
<!-- Node14&#45;&gt;Node8 -->
<g id="edge14" class="edge"><title>Node14&#45;&gt;Node8</title>
<path fill="none" stroke="#9a32cd" stroke-dasharray="5,2" d="M120.71,-22.6869C153.647,-33.5393 200.195,-50.7578 238,-72 270.408,-90.2095 304.006,-118.666 320.532,-133.415"/>
<polygon fill="#9a32cd" stroke="#9a32cd" points="121.541,-19.2774 110.949,-19.5259 119.384,-25.9369 121.541,-19.2774"/>
<text text-anchor="middle" x="206" y="-75" font-family="Helvetica,sans-Serif" font-size="10.00"> colorMap</text>
</g>
<!-- Node15 -->
<g id="node15" class="node"><title>Node15</title>
<polygon fill="white" stroke="#bfbfbf" points="271.5,-404.5 271.5,-423.5 392.5,-423.5 392.5,-404.5 271.5,-404.5"/>
<text text-anchor="middle" x="332" y="-411.5" font-family="Helvetica,sans-Serif" font-size="10.00">Queue&lt; Command &gt;</text>
</g>
<!-- Node15&#45;&gt;Node4 -->
<g id="edge17" class="edge"><title>Node15&#45;&gt;Node4</title>
<path fill="none" stroke="#9a32cd" stroke-dasharray="5,2" d="M402.534,-402.862C449.738,-394.671 507.512,-383.23 530,-373 550.655,-363.604 570.902,-346.299 582.38,-335.512"/>
<polygon fill="#9a32cd" stroke="#9a32cd" points="401.902,-399.42 392.638,-404.56 403.085,-406.319 401.902,-399.42"/>
<text text-anchor="middle" x="478" y="-402" font-family="Helvetica,sans-Serif" font-size="10.00"> pendingCommands</text>
</g>
</g>
</svg>
