<?xml version="1.0" encoding="UTF-8" standalone="no"?>
<!DOCTYPE svg PUBLIC "-//W3C//DTD SVG 1.1//EN"
 "http://www.w3.org/Graphics/SVG/1.1/DTD/svg11.dtd">
<!-- Generated by graphviz version 2.36.0 (20140111.2315)
 -->
<!-- Title: backend.command.CommandList Pages: 1 -->
<svg width="297pt" height="166pt"
 viewBox="0.00 0.00 297.00 166.00" xmlns="http://www.w3.org/2000/svg" xmlns:xlink="http://www.w3.org/1999/xlink">
<g id="graph0" class="graph" transform="scale(1 1) rotate(0) translate(4 162)">
<title>backend.command.CommandList</title>
<polygon fill="white" stroke="none" points="-4,4 -4,-162 293,-162 293,4 -4,4"/>
<!-- Node1 -->
<g id="node1" class="node"><title>Node1</title>
<polygon fill="#bfbfbf" stroke="black" points="40.5,-0.5 40.5,-19.5 219.5,-19.5 219.5,-0.5 40.5,-0.5"/>
<text text-anchor="middle" x="130" y="-7.5" font-family="Helvetica,sans-Serif" font-size="10.00">backend.command.CommandList</text>
</g>
<!-- Node2 -->
<g id="node2" class="node"><title>Node2</title>
<g id="a_node2"><a xlink:href="../../dc/d83/classbackend_1_1command_1_1_command.html" target="_top" xlink:title="backend.command.Command">
<polygon fill="white" stroke="black" points="49,-58.5 49,-77.5 211,-77.5 211,-58.5 49,-58.5"/>
<text text-anchor="middle" x="130" y="-65.5" font-family="Helvetica,sans-Serif" font-size="10.00">backend.command.Command</text>
</a>
</g>
</g>
<!-- Node2&#45;&gt;Node1 -->
<g id="edge1" class="edge"><title>Node2&#45;&gt;Node1</title>
<path fill="none" stroke="midnightblue" d="M130,-47.953C130,-38.2875 130,-27.0312 130,-19.5052"/>
<polygon fill="midnightblue" stroke="midnightblue" points="126.5,-48.25 130,-58.25 133.5,-48.25 126.5,-48.25"/>
</g>
<!-- Node2&#45;&gt;Node2 -->
<g id="edge3" class="edge"><title>Node2&#45;&gt;Node2</title>
<path fill="none" stroke="#9a32cd" stroke-dasharray="5,2" d="M221.171,-71.4864C226.084,-70.6336 229,-69.4714 229,-68 229,-65.7031 221.894,-64.1599 211.18,-63.3704"/>
<polygon fill="#9a32cd" stroke="#9a32cd" points="220.717,-68.0154 211.18,-72.6296 221.513,-74.97 220.717,-68.0154"/>
<text text-anchor="middle" x="246.5" y="-65.5" font-family="Helvetica,sans-Serif" font-size="10.00"> parent</text>
</g>
<!-- Node3 -->
<g id="node3" class="node"><title>Node3</title>
<g id="a_node3"><a xlink:href="../../d0/d6a/classbackend_1_1_string_pair.html" target="_top" xlink:title="backend.StringPair">
<polygon fill="white" stroke="black" points="0,-132.5 0,-151.5 106,-151.5 106,-132.5 0,-132.5"/>
<text text-anchor="middle" x="53" y="-139.5" font-family="Helvetica,sans-Serif" font-size="10.00">backend.StringPair</text>
</a>
</g>
</g>
<!-- Node3&#45;&gt;Node2 -->
<g id="edge2" class="edge"><title>Node3&#45;&gt;Node2</title>
<path fill="none" stroke="#9a32cd" stroke-dasharray="5,2" d="M69.5857,-125.491C85.2817,-110.815 108.264,-89.325 120.877,-77.531"/>
<polygon fill="#9a32cd" stroke="#9a32cd" points="67.0491,-123.071 62.1353,-132.458 71.83,-128.184 67.0491,-123.071"/>
<text text-anchor="middle" x="125" y="-99.5" font-family="Helvetica,sans-Serif" font-size="10.00"> stringPair</text>
</g>
<!-- Node4 -->
<g id="node4" class="node"><title>Node4</title>
<polygon fill="white" stroke="#bfbfbf" points="124.5,-127 124.5,-157 289.5,-157 289.5,-127 124.5,-127"/>
<text text-anchor="start" x="132.5" y="-145" font-family="Helvetica,sans-Serif" font-size="10.00">ArrayList&lt; backend.command.</text>
<text text-anchor="middle" x="207" y="-134" font-family="Helvetica,sans-Serif" font-size="10.00">Command &gt;</text>
</g>
<!-- Node4&#45;&gt;Node2 -->
<g id="edge4" class="edge"><title>Node4&#45;&gt;Node2</title>
<path fill="none" stroke="#9a32cd" stroke-dasharray="5,2" d="M184.361,-119.831C169.362,-105.806 150.472,-88.1426 139.367,-77.7589"/>
<polygon fill="#9a32cd" stroke="#9a32cd" points="182.093,-122.502 191.787,-126.775 186.874,-117.389 182.093,-122.502"/>
<text text-anchor="middle" x="191" y="-99.5" font-family="Helvetica,sans-Serif" font-size="10.00"> params</text>
</g>
</g>
</svg>
