<?xml version="1.0" encoding="UTF-8" standalone="no"?>
<!DOCTYPE svg PUBLIC "-//W3C//DTD SVG 1.1//EN"
 "http://www.w3.org/Graphics/SVG/1.1/DTD/svg11.dtd">
<!-- Generated by graphviz version 2.36.0 (20140111.2315)
 -->
<!-- Title: /tmp/git/duke&#45;compsci308&#45;spring2015/slogo_team14/repository/src Pages: 1 -->
<svg width="258pt" height="111pt"
 viewBox="0.00 0.00 258.00 111.00" xmlns="http://www.w3.org/2000/svg" xmlns:xlink="http://www.w3.org/1999/xlink">
<g id="graph0" class="graph" transform="scale(1 1) rotate(0) translate(4 107)">
<title>/tmp/git/duke&#45;compsci308&#45;spring2015/slogo_team14/repository/src</title>
<polygon fill="white" stroke="none" points="-4,4 -4,-107 254,-107 254,4 -4,4"/>
<g id="clust1" class="cluster"><title>clusterdir_e535f369cfa6bc215cf6eb3d93cd5544</title>
<g id="a_clust1"><a xlink:href="dir_e535f369cfa6bc215cf6eb3d93cd5544.html" target="_top" xlink:title="repository">
<polygon fill="#ddddee" stroke="black" points="8,-8 8,-95 242,-95 242,-8 8,-8"/>
<text text-anchor="middle" x="125" y="-83" font-family="Helvetica,sans-Serif" font-size="10.00">repository</text>
</a>
</g>
</g>
<g id="clust2" class="cluster"><title>clusterdir_e9f209d48cf29a17450ccc272c56ce96</title>
<g id="a_clust2"><a xlink:href="dir_e9f209d48cf29a17450ccc272c56ce96.html" target="_top">
<polygon fill="#eeeeff" stroke="black" points="16,-16 16,-68 234,-68 234,-16 16,-16"/>
</a>
</g>
</g>
<!-- dir_e9f209d48cf29a17450ccc272c56ce96 -->
<g id="node1" class="node"><title>dir_e9f209d48cf29a17450ccc272c56ce96</title>
<text text-anchor="middle" x="199" y="-39.5" font-family="Helvetica,sans-Serif" font-size="10.00">src</text>
</g>
<!-- dir_726efa7b41e4b77acaf05d5793a714ba -->
<g id="node2" class="node"><title>dir_726efa7b41e4b77acaf05d5793a714ba</title>
<g id="a_node2"><a xlink:href="dir_726efa7b41e4b77acaf05d5793a714ba.html" target="_top" xlink:title="backend">
<polygon fill="white" stroke="red" points="153.25,-60 96.75,-60 96.75,-24 153.25,-24 153.25,-60"/>
<text text-anchor="middle" x="125" y="-39.5" font-family="Helvetica,sans-Serif" font-size="10.00">backend</text>
</a>
</g>
</g>
<!-- dir_73b45bbae203c7ada10209852dd3ed49 -->
<g id="node3" class="node"><title>dir_73b45bbae203c7ada10209852dd3ed49</title>
<g id="a_node3"><a xlink:href="dir_73b45bbae203c7ada10209852dd3ed49.html" target="_top" xlink:title="gui">
<polygon fill="white" stroke="red" points="78,-60 24,-60 24,-24 78,-24 78,-60"/>
<text text-anchor="middle" x="51" y="-39.5" font-family="Helvetica,sans-Serif" font-size="10.00">gui</text>
</a>
</g>
</g>
</g>
</svg>
