<?xml version="1.0" encoding="UTF-8" standalone="no"?>
<!DOCTYPE svg PUBLIC "-//W3C//DTD SVG 1.1//EN"
 "http://www.w3.org/Graphics/SVG/1.1/DTD/svg11.dtd">
<!-- Generated by graphviz version 2.36.0 (20140111.2315)
 -->
<!-- Title: Graphical Class Hierarchy Pages: 1 -->
<svg width="270pt" height="66pt"
 viewBox="0.00 0.00 270.00 66.00" xmlns="http://www.w3.org/2000/svg" xmlns:xlink="http://www.w3.org/1999/xlink">
<g id="graph0" class="graph" transform="scale(1 1) rotate(0) translate(4 62)">
<title>Graphical Class Hierarchy</title>
<polygon fill="white" stroke="none" points="-4,4 -4,-62 266,-62 266,4 -4,4"/>
<!-- Node1 -->
<g id="node1" class="node"><title>Node1</title>
<g id="a_node1"><a xlink:href="d6/d7e/interfacebackend_1_1_drawable_image.html" target="_top" xlink:title="backend.DrawableImage">
<polygon fill="white" stroke="black" points="0,-19.5 0,-38.5 134,-38.5 134,-19.5 0,-19.5"/>
<text text-anchor="middle" x="67" y="-26.5" font-family="Helvetica,sans-Serif" font-size="10.00">backend.DrawableImage</text>
</a>
</g>
</g>
<!-- Node2 -->
<g id="node2" class="node"><title>Node2</title>
<g id="a_node2"><a xlink:href="df/d41/classbackend_1_1_stamp.html" target="_top" xlink:title="backend.Stamp">
<polygon fill="white" stroke="black" points="170,-38.5 170,-57.5 262,-57.5 262,-38.5 170,-38.5"/>
<text text-anchor="middle" x="216" y="-45.5" font-family="Helvetica,sans-Serif" font-size="10.00">backend.Stamp</text>
</a>
</g>
</g>
<!-- Node1&#45;&gt;Node2 -->
<g id="edge1" class="edge"><title>Node1&#45;&gt;Node2</title>
<path fill="none" stroke="midnightblue" d="M144.382,-38.8725C153.069,-39.9953 161.702,-41.1111 169.794,-42.1571"/>
<polygon fill="midnightblue" stroke="midnightblue" points="144.556,-35.3659 134.189,-37.5551 143.658,-42.3082 144.556,-35.3659"/>
</g>
<!-- Node3 -->
<g id="node3" class="node"><title>Node3</title>
<g id="a_node3"><a xlink:href="df/de2/classbackend_1_1_turtle.html" target="_top" xlink:title="backend.Turtle">
<polygon fill="white" stroke="black" points="173,-0.5 173,-19.5 259,-19.5 259,-0.5 173,-0.5"/>
<text text-anchor="middle" x="216" y="-7.5" font-family="Helvetica,sans-Serif" font-size="10.00">backend.Turtle</text>
</a>
</g>
</g>
<!-- Node1&#45;&gt;Node3 -->
<g id="edge2" class="edge"><title>Node1&#45;&gt;Node3</title>
<path fill="none" stroke="midnightblue" d="M144.361,-19.1302C154.126,-17.8681 163.823,-16.6147 172.762,-15.4594"/>
<polygon fill="midnightblue" stroke="midnightblue" points="143.658,-15.6918 134.189,-20.4449 144.556,-22.6341 143.658,-15.6918"/>
</g>
</g>
</svg>
