<?xml version="1.0" encoding="UTF-8" standalone="no"?>
<!DOCTYPE svg PUBLIC "-//W3C//DTD SVG 1.1//EN"
 "http://www.w3.org/Graphics/SVG/1.1/DTD/svg11.dtd">
<!-- Generated by graphviz version 2.36.0 (20140111.2315)
 -->
<!-- Title: Graphical Class Hierarchy Pages: 1 -->
<svg width="240pt" height="66pt"
 viewBox="0.00 0.00 240.00 66.00" xmlns="http://www.w3.org/2000/svg" xmlns:xlink="http://www.w3.org/1999/xlink">
<g id="graph0" class="graph" transform="scale(1 1) rotate(0) translate(4 62)">
<title>Graphical Class Hierarchy</title>
<polygon fill="white" stroke="none" points="-4,4 -4,-62 236,-62 236,4 -4,4"/>
<!-- Node1 -->
<g id="node1" class="node"><title>Node1</title>
<polygon fill="white" stroke="#bfbfbf" points="0.5,-19.5 0.5,-38.5 69.5,-38.5 69.5,-19.5 0.5,-19.5"/>
<text text-anchor="middle" x="35" y="-26.5" font-family="Helvetica,sans-Serif" font-size="10.00">Application</text>
</g>
<!-- Node2 -->
<g id="node2" class="node"><title>Node2</title>
<g id="a_node2"><a xlink:href="d1/d13/classgui_1_1_color_picking_screen.html" target="_top" xlink:title="gui.ColorPickingScreen">
<polygon fill="white" stroke="black" points="106.5,-38.5 106.5,-57.5 231.5,-57.5 231.5,-38.5 106.5,-38.5"/>
<text text-anchor="middle" x="169" y="-45.5" font-family="Helvetica,sans-Serif" font-size="10.00">gui.ColorPickingScreen</text>
</a>
</g>
</g>
<!-- Node1&#45;&gt;Node2 -->
<g id="edge1" class="edge"><title>Node1&#45;&gt;Node2</title>
<path fill="none" stroke="midnightblue" d="M79.7584,-35.2986C88.3116,-36.5297 97.4291,-37.8421 106.436,-39.1385"/>
<polygon fill="midnightblue" stroke="midnightblue" points="80.0474,-31.8042 69.6507,-33.8437 79.05,-38.7328 80.0474,-31.8042"/>
</g>
<!-- Node3 -->
<g id="node3" class="node"><title>Node3</title>
<g id="a_node3"><a xlink:href="df/dc3/classgui_1_1_main.html" target="_top" xlink:title="gui.Main">
<polygon fill="white" stroke="black" points="141,-0.5 141,-19.5 197,-19.5 197,-0.5 141,-0.5"/>
<text text-anchor="middle" x="169" y="-7.5" font-family="Helvetica,sans-Serif" font-size="10.00">gui.Main</text>
</a>
</g>
</g>
<!-- Node1&#45;&gt;Node3 -->
<g id="edge2" class="edge"><title>Node1&#45;&gt;Node3</title>
<path fill="none" stroke="midnightblue" d="M79.8218,-22.6923C99.9001,-19.8023 123.077,-16.4662 140.629,-13.9397"/>
<polygon fill="midnightblue" stroke="midnightblue" points="79.05,-19.2672 69.6507,-24.1563 80.0474,-26.1958 79.05,-19.2672"/>
</g>
</g>
</svg>
