<?xml version="1.0" encoding="UTF-8" standalone="no"?>
<!DOCTYPE svg PUBLIC "-//W3C//DTD SVG 1.1//EN"
 "http://www.w3.org/Graphics/SVG/1.1/DTD/svg11.dtd">
<!-- Generated by graphviz version 2.36.0 (20140111.2315)
 -->
<!-- Title: Graphical Class Hierarchy Pages: 1 -->
<svg width="488pt" height="236pt"
 viewBox="0.00 0.00 488.00 236.00" xmlns="http://www.w3.org/2000/svg" xmlns:xlink="http://www.w3.org/1999/xlink">
<g id="graph0" class="graph" transform="scale(1 1) rotate(0) translate(4 232)">
<title>Graphical Class Hierarchy</title>
<polygon fill="white" stroke="none" points="-4,4 -4,-232 484,-232 484,4 -4,4"/>
<!-- Node1 -->
<g id="node1" class="node"><title>Node1</title>
<polygon fill="white" stroke="#bfbfbf" points="0,-132.5 0,-151.5 48,-151.5 48,-132.5 0,-132.5"/>
<text text-anchor="middle" x="24" y="-139.5" font-family="Helvetica,sans-Serif" font-size="10.00">Region</text>
</g>
<!-- Node2 -->
<g id="node2" class="node"><title>Node2</title>
<g id="a_node2"><a xlink:href="d8/d8d/classgui_1_1_drawing_area.html" target="_top" xlink:title="gui.DrawingArea">
<polygon fill="white" stroke="black" points="117.5,-208.5 117.5,-227.5 212.5,-227.5 212.5,-208.5 117.5,-208.5"/>
<text text-anchor="middle" x="165" y="-215.5" font-family="Helvetica,sans-Serif" font-size="10.00">gui.DrawingArea</text>
</a>
</g>
</g>
<!-- Node1&#45;&gt;Node2 -->
<g id="edge1" class="edge"><title>Node1&#45;&gt;Node2</title>
<path fill="none" stroke="midnightblue" d="M38.5811,-159.431C49.5036,-172.263 65.9613,-189.13 84,-199 94.1437,-204.55 105.877,-208.491 117.179,-211.284"/>
<polygon fill="midnightblue" stroke="midnightblue" points="41.2872,-157.211 32.2417,-151.695 35.8729,-161.648 41.2872,-157.211"/>
</g>
<!-- Node3 -->
<g id="node3" class="node"><title>Node3</title>
<g id="a_node3"><a xlink:href="db/d89/classgui_1_1_run_buttons.html" target="_top" xlink:title="gui.RunButtons">
<polygon fill="white" stroke="black" points="120.5,-170.5 120.5,-189.5 209.5,-189.5 209.5,-170.5 120.5,-170.5"/>
<text text-anchor="middle" x="165" y="-177.5" font-family="Helvetica,sans-Serif" font-size="10.00">gui.RunButtons</text>
</a>
</g>
</g>
<!-- Node1&#45;&gt;Node3 -->
<g id="edge2" class="edge"><title>Node1&#45;&gt;Node3</title>
<path fill="none" stroke="midnightblue" d="M57.7362,-153.046C66.2477,-155.779 75.4332,-158.607 84,-161 95.9616,-164.341 109.033,-167.605 121.077,-170.46"/>
<polygon fill="midnightblue" stroke="midnightblue" points="58.7238,-149.686 48.1314,-149.913 56.5529,-156.341 58.7238,-149.686"/>
</g>
<!-- Node4 -->
<g id="node4" class="node"><title>Node4</title>
<g id="a_node4"><a xlink:href="d5/d8a/classgui_1_1_slogo_tab.html" target="_top" xlink:title="gui.SlogoTab">
<polygon fill="white" stroke="black" points="126.5,-132.5 126.5,-151.5 203.5,-151.5 203.5,-132.5 126.5,-132.5"/>
<text text-anchor="middle" x="165" y="-139.5" font-family="Helvetica,sans-Serif" font-size="10.00">gui.SlogoTab</text>
</a>
</g>
</g>
<!-- Node1&#45;&gt;Node4 -->
<g id="edge3" class="edge"><title>Node1&#45;&gt;Node4</title>
<path fill="none" stroke="midnightblue" d="M58.4094,-142C78.9308,-142 105.262,-142 126.496,-142"/>
<polygon fill="midnightblue" stroke="midnightblue" points="58.2655,-138.5 48.2655,-142 58.2654,-145.5 58.2655,-138.5"/>
</g>
<!-- Node5 -->
<g id="node5" class="node"><title>Node5</title>
<g id="a_node5"><a xlink:href="d8/d85/classgui_1_1text_areas_1_1_abstract_editable_text_box.html" target="_top" xlink:title="gui.textAreas.AbstractEditable\lTextBox">
<polygon fill="white" stroke="black" points="84,-83 84,-113 246,-113 246,-83 84,-83"/>
<text text-anchor="start" x="92" y="-101" font-family="Helvetica,sans-Serif" font-size="10.00">gui.textAreas.AbstractEditable</text>
<text text-anchor="middle" x="165" y="-90" font-family="Helvetica,sans-Serif" font-size="10.00">TextBox</text>
</a>
</g>
</g>
<!-- Node1&#45;&gt;Node5 -->
<g id="edge4" class="edge"><title>Node1&#45;&gt;Node5</title>
<path fill="none" stroke="midnightblue" d="M57.858,-131.363C66.3677,-128.623 75.5217,-125.69 84,-123 94.2638,-119.744 105.278,-116.281 115.752,-113.003"/>
<polygon fill="midnightblue" stroke="midnightblue" points="56.6866,-128.063 48.2435,-134.464 58.8351,-134.725 56.6866,-128.063"/>
</g>
<!-- Node11 -->
<g id="node11" class="node"><title>Node11</title>
<g id="a_node11"><a xlink:href="dd/d24/classgui_1_1_top_menu.html" target="_top" xlink:title="gui.TopMenu">
<polygon fill="white" stroke="black" points="127,-44.5 127,-63.5 203,-63.5 203,-44.5 127,-44.5"/>
<text text-anchor="middle" x="165" y="-51.5" font-family="Helvetica,sans-Serif" font-size="10.00">gui.TopMenu</text>
</a>
</g>
</g>
<!-- Node1&#45;&gt;Node11 -->
<g id="edge10" class="edge"><title>Node1&#45;&gt;Node11</title>
<path fill="none" stroke="midnightblue" d="M36.1985,-123.719C46.6659,-108.178 63.7033,-86.4597 84,-74 96.8109,-66.1357 112.571,-61.358 126.706,-58.4579"/>
<polygon fill="midnightblue" stroke="midnightblue" points="33.0399,-122.159 30.5596,-132.459 38.922,-125.954 33.0399,-122.159"/>
</g>
<!-- Node6 -->
<g id="node6" class="node"><title>Node6</title>
<g id="a_node6"><a xlink:href="db/dbc/classgui_1_1text_areas_1_1_command_box.html" target="_top" xlink:title="gui.textAreas.CommandBox">
<polygon fill="white" stroke="black" points="305,-164.5 305,-183.5 457,-183.5 457,-164.5 305,-164.5"/>
<text text-anchor="middle" x="381" y="-171.5" font-family="Helvetica,sans-Serif" font-size="10.00">gui.textAreas.CommandBox</text>
</a>
</g>
</g>
<!-- Node5&#45;&gt;Node6 -->
<g id="edge5" class="edge"><title>Node5&#45;&gt;Node6</title>
<path fill="none" stroke="midnightblue" d="M233.814,-116.908C238.021,-118.777 242.119,-120.805 246,-123 264.633,-133.539 262.809,-145.514 282,-155 289.924,-158.917 298.579,-162.027 307.362,-164.496"/>
<polygon fill="midnightblue" stroke="midnightblue" points="235.05,-113.632 224.47,-113.067 232.388,-120.106 235.05,-113.632"/>
</g>
<!-- Node7 -->
<g id="node7" class="node"><title>Node7</title>
<g id="a_node7"><a xlink:href="de/da4/classgui_1_1text_areas_1_1_previous_commands_box.html" target="_top" xlink:title="gui.textAreas.PreviousCommandsBox">
<polygon fill="white" stroke="black" points="282.5,-126.5 282.5,-145.5 479.5,-145.5 479.5,-126.5 282.5,-126.5"/>
<text text-anchor="middle" x="381" y="-133.5" font-family="Helvetica,sans-Serif" font-size="10.00">gui.textAreas.PreviousCommandsBox</text>
</a>
</g>
</g>
<!-- Node5&#45;&gt;Node7 -->
<g id="edge6" class="edge"><title>Node5&#45;&gt;Node7</title>
<path fill="none" stroke="midnightblue" d="M256.398,-114.052C280.167,-118.273 305.055,-122.692 326.218,-126.45"/>
<polygon fill="midnightblue" stroke="midnightblue" points="256.752,-110.56 246.295,-112.258 255.529,-117.452 256.752,-110.56"/>
</g>
<!-- Node8 -->
<g id="node8" class="node"><title>Node8</title>
<g id="a_node8"><a xlink:href="db/d0f/classgui_1_1text_areas_1_1_status_box.html" target="_top" xlink:title="gui.textAreas.StatusBox">
<polygon fill="white" stroke="black" points="314.5,-88.5 314.5,-107.5 447.5,-107.5 447.5,-88.5 314.5,-88.5"/>
<text text-anchor="middle" x="381" y="-95.5" font-family="Helvetica,sans-Serif" font-size="10.00">gui.textAreas.StatusBox</text>
</a>
</g>
</g>
<!-- Node5&#45;&gt;Node8 -->
<g id="edge7" class="edge"><title>Node5&#45;&gt;Node8</title>
<path fill="none" stroke="midnightblue" d="M256.373,-98C275.803,-98 295.983,-98 314.265,-98"/>
<polygon fill="midnightblue" stroke="midnightblue" points="256.295,-94.5001 246.295,-98 256.295,-101.5 256.295,-94.5001"/>
</g>
<!-- Node9 -->
<g id="node9" class="node"><title>Node9</title>
<g id="a_node9"><a xlink:href="da/dce/classgui_1_1text_areas_1_1_user_functions_and_commands.html" target="_top" xlink:title="gui.textAreas.UserFunctions\lAndCommands">
<polygon fill="white" stroke="black" points="305.5,-39 305.5,-69 456.5,-69 456.5,-39 305.5,-39"/>
<text text-anchor="start" x="313.5" y="-57" font-family="Helvetica,sans-Serif" font-size="10.00">gui.textAreas.UserFunctions</text>
<text text-anchor="middle" x="381" y="-46" font-family="Helvetica,sans-Serif" font-size="10.00">AndCommands</text>
</a>
</g>
</g>
<!-- Node5&#45;&gt;Node9 -->
<g id="edge8" class="edge"><title>Node5&#45;&gt;Node9</title>
<path fill="none" stroke="midnightblue" d="M248.934,-80.9482C268.053,-77.0171 288.253,-72.8638 306.918,-69.0262"/>
<polygon fill="midnightblue" stroke="midnightblue" points="248.138,-77.5384 239.048,-82.9808 249.548,-84.395 248.138,-77.5384"/>
</g>
<!-- Node10 -->
<g id="node10" class="node"><title>Node10</title>
<g id="a_node10"><a xlink:href="d3/d45/classgui_1_1text_areas_1_1_user_variables_box.html" target="_top" xlink:title="gui.textAreas.UserVariablesBox">
<polygon fill="white" stroke="black" points="297.5,-0.5 297.5,-19.5 464.5,-19.5 464.5,-0.5 297.5,-0.5"/>
<text text-anchor="middle" x="381" y="-7.5" font-family="Helvetica,sans-Serif" font-size="10.00">gui.textAreas.UserVariablesBox</text>
</a>
</g>
</g>
<!-- Node5&#45;&gt;Node10 -->
<g id="edge9" class="edge"><title>Node5&#45;&gt;Node10</title>
<path fill="none" stroke="midnightblue" d="M236.27,-78.7031C239.648,-76.9563 242.913,-75.0593 246,-73 266.734,-59.1675 260.591,-42.7621 282,-30 289.309,-25.6433 297.41,-22.2217 305.732,-19.5368"/>
<polygon fill="midnightblue" stroke="midnightblue" points="234.688,-75.579 227.11,-82.9839 237.651,-81.9206 234.688,-75.579"/>
</g>
</g>
</svg>
