<?xml version="1.0" encoding="UTF-8" standalone="no"?>
<!DOCTYPE svg PUBLIC "-//W3C//DTD SVG 1.1//EN"
 "http://www.w3.org/Graphics/SVG/1.1/DTD/svg11.dtd">
<!-- Generated by graphviz version 2.36.0 (20140111.2315)
 -->
<!-- Title: backend.command.SetShape.execute Pages: 1 -->
<!--zoomable 175 -->
<svg id="main" version="1.1" xmlns="http://www.w3.org/2000/svg" xmlns:xlink="http://www.w3.org/1999/xlink" xml:space="preserve" onload="init(evt)">
<style type="text/css"><![CDATA[
.edge:hover path { stroke: red; }
.edge:hover polygon { stroke: red; fill: red; }
]]></style>
<script type="text/javascript"><![CDATA[
var edges = document.getElementsByTagName('g');
if (edges && edges.length) {
  for (var i=0;i<edges.length;i++) {
    if (edges[i].id.substr(0,4)=='edge') {
      edges[i].setAttribute('class','edge');
    }
  }
}
]]></script>
        <defs>
                <circle id="rim" cx="0" cy="0" r="7"/>
                <circle id="rim2" cx="0" cy="0" r="3.5"/>
                <g id="zoomPlus">
                        <use xlink:href="#rim" fill="#404040">
                                <set attributeName="fill" to="#808080" begin="zoomplus.mouseover" end="zoomplus.mouseout"/>
                        </use>
                        <path d="M-4,0h8M0,-4v8" fill="none" stroke="white" stroke-width="1.5" pointer-events="none"/>
                </g>
                <g id="zoomMin">
                        <use xlink:href="#rim" fill="#404040">
                                <set attributeName="fill" to="#808080" begin="zoomminus.mouseover" end="zoomminus.mouseout"/>
                        </use>
                        <path d="M-4,0h8" fill="none" stroke="white" stroke-width="1.5" pointer-events="none"/>
                </g>
                <g id="dirArrow">
                        <path fill="none" stroke="white" stroke-width="1.5" d="M0,-3.0v7 M-2.5,-0.5L0,-3.0L2.5,-0.5"/>
                </g>
               <g id="resetDef">
                       <use xlink:href="#rim2" fill="#404040">
                               <set attributeName="fill" to="#808080" begin="reset.mouseover" end="reset.mouseout"/>
                       </use>
               </g>
        </defs>

<script type="text/javascript">
var viewWidth = 944;
var viewHeight = 175;
var sectionId = 'dynsection-2';
</script>
<script xlink:href="../../svgpan.js"/>
<svg id="graph" class="graph">
<g id="viewport">
<title>backend.command.SetShape.execute</title>
<polygon fill="white" stroke="none" points="-4,4 -4,-171 940,-171 940,4 -4,4"/>
<!-- Node1 -->
<g id="node1" class="node"><title>Node1</title>
<polygon fill="#bfbfbf" stroke="black" points="0,-82.5 0,-101.5 200,-101.5 200,-82.5 0,-82.5"/>
<text text-anchor="middle" x="100" y="-89.5" font-family="Helvetica,sans-Serif" font-size="10.00">backend.command.SetShape.execute</text>
</g>
<!-- Node2 -->
<g id="node2" class="node"><title>Node2</title>
<g id="a_node2"><a xlink:href="../../dc/d83/classbackend_1_1command_1_1_command.html#a7e08258fd275e150b04b6a7745f5d6c9" target="_top" xlink:title="backend.command.Command.get\lParamReturnVal">
<polygon fill="white" stroke="black" points="258.5,-131 258.5,-161 439.5,-161 439.5,-131 258.5,-131"/>
<text text-anchor="start" x="266.5" y="-149" font-family="Helvetica,sans-Serif" font-size="10.00">backend.command.Command.get</text>
<text text-anchor="middle" x="349" y="-138" font-family="Helvetica,sans-Serif" font-size="10.00">ParamReturnVal</text>
</a>
</g>
</g>
<!-- Node1&#45;&gt;Node2 -->
<g id="edge1" class="edge"><title>Node1&#45;&gt;Node2</title>
<path fill="none" stroke="midnightblue" d="M144.59,-101.53C179.08,-109.07 228.141,-119.796 269.44,-128.825"/>
<polygon fill="midnightblue" stroke="midnightblue" points="268.694,-132.244 279.211,-130.961 270.189,-125.406 268.694,-132.244"/>
</g>
<!-- Node4 -->
<g id="node4" class="node"><title>Node4</title>
<g id="a_node4"><a xlink:href="../../dc/d67/classbackend_1_1command_1_1_model_command.html#a539e1c4b7488f1f4833db3a5e2883723" target="_top" xlink:title="backend.command.ModelCommand.param\lToImage">
<polygon fill="white" stroke="black" points="236.5,-77 236.5,-107 461.5,-107 461.5,-77 236.5,-77"/>
<text text-anchor="start" x="244.5" y="-95" font-family="Helvetica,sans-Serif" font-size="10.00">backend.command.ModelCommand.param</text>
<text text-anchor="middle" x="349" y="-84" font-family="Helvetica,sans-Serif" font-size="10.00">ToImage</text>
</a>
</g>
</g>
<!-- Node1&#45;&gt;Node4 -->
<g id="edge3" class="edge"><title>Node1&#45;&gt;Node4</title>
<path fill="none" stroke="midnightblue" d="M200.041,-92C208.627,-92 217.376,-92 226.115,-92"/>
<polygon fill="midnightblue" stroke="midnightblue" points="226.359,-95.5001 236.359,-92 226.359,-88.5001 226.359,-95.5001"/>
</g>
<!-- Node8 -->
<g id="node8" class="node"><title>Node8</title>
<g id="a_node8"><a xlink:href="../../df/de2/classbackend_1_1_turtle.html#af532e9713b2bf676153170ac8b9a786e" target="_top" xlink:title="backend.Turtle.setImageByName">
<polygon fill="white" stroke="black" points="261.5,-27.5 261.5,-46.5 436.5,-46.5 436.5,-27.5 261.5,-27.5"/>
<text text-anchor="middle" x="349" y="-34.5" font-family="Helvetica,sans-Serif" font-size="10.00">backend.Turtle.setImageByName</text>
</a>
</g>
</g>
<!-- Node1&#45;&gt;Node8 -->
<g id="edge7" class="edge"><title>Node1&#45;&gt;Node8</title>
<path fill="none" stroke="midnightblue" d="M143.742,-82.4825C185.718,-73.1356 249.859,-58.8533 295.044,-48.7918"/>
<polygon fill="midnightblue" stroke="midnightblue" points="295.953,-52.1752 304.953,-46.5853 294.432,-45.3425 295.953,-52.1752"/>
</g>
<!-- Node3 -->
<g id="node3" class="node"><title>Node3</title>
<g id="a_node3"><a xlink:href="../../dc/d83/classbackend_1_1command_1_1_command.html#a606032e5ef26d465113f65e6e3c09bef" target="_top" xlink:title="backend.command.Command.get\lParam">
<polygon fill="white" stroke="black" points="529.5,-137 529.5,-167 710.5,-167 710.5,-137 529.5,-137"/>
<text text-anchor="start" x="537.5" y="-155" font-family="Helvetica,sans-Serif" font-size="10.00">backend.command.Command.get</text>
<text text-anchor="middle" x="620" y="-144" font-family="Helvetica,sans-Serif" font-size="10.00">Param</text>
</a>
</g>
</g>
<!-- Node2&#45;&gt;Node3 -->
<g id="edge2" class="edge"><title>Node2&#45;&gt;Node3</title>
<path fill="none" stroke="midnightblue" d="M439.573,-147.998C465.074,-148.567 493.009,-149.19 519.084,-149.771"/>
<polygon fill="midnightblue" stroke="midnightblue" points="519.284,-153.277 529.36,-150.001 519.44,-146.278 519.284,-153.277"/>
</g>
<!-- Node5 -->
<g id="node5" class="node"><title>Node5</title>
<g id="a_node5"><a xlink:href="../../dc/d83/classbackend_1_1command_1_1_command.html#ae218516ae55b1b0d4820d55c901793ea" target="_top" xlink:title="backend.command.Command.execute\lParam">
<polygon fill="white" stroke="black" points="518.5,-88 518.5,-118 721.5,-118 721.5,-88 518.5,-88"/>
<text text-anchor="start" x="526.5" y="-106" font-family="Helvetica,sans-Serif" font-size="10.00">backend.command.Command.execute</text>
<text text-anchor="middle" x="620" y="-95" font-family="Helvetica,sans-Serif" font-size="10.00">Param</text>
</a>
</g>
</g>
<!-- Node4&#45;&gt;Node5 -->
<g id="edge4" class="edge"><title>Node4&#45;&gt;Node5</title>
<path fill="none" stroke="midnightblue" d="M461.743,-96.5694C477.137,-97.1989 492.94,-97.8451 508.315,-98.4738"/>
<polygon fill="midnightblue" stroke="midnightblue" points="508.212,-101.972 518.347,-98.8841 508.499,-94.9783 508.212,-101.972"/>
</g>
<!-- Node6 -->
<g id="node6" class="node"><title>Node6</title>
<g id="a_node6"><a xlink:href="../../dc/d67/classbackend_1_1command_1_1_model_command.html#a3154dab6e0552c7d13b825dab24d1a54" target="_top" xlink:title="backend.command.ModelCommand.imageMap">
<polygon fill="white" stroke="black" points="498,-49.5 498,-68.5 742,-68.5 742,-49.5 498,-49.5"/>
<text text-anchor="middle" x="620" y="-56.5" font-family="Helvetica,sans-Serif" font-size="10.00">backend.command.ModelCommand.imageMap</text>
</a>
</g>
</g>
<!-- Node4&#45;&gt;Node6 -->
<g id="edge5" class="edge"><title>Node4&#45;&gt;Node6</title>
<path fill="none" stroke="midnightblue" d="M461.743,-78.2917C484.901,-75.4508 508.986,-72.4961 531.144,-69.7779"/>
<polygon fill="midnightblue" stroke="midnightblue" points="531.679,-73.2386 541.179,-68.5469 530.827,-66.2906 531.679,-73.2386"/>
</g>
<!-- Node7 -->
<g id="node7" class="node"><title>Node7</title>
<g id="a_node7"><a xlink:href="../../d3/dac/classbackend_1_1_model.html#ab973b5efcf575443127eeb36485cec29" target="_top" xlink:title="backend.Model.getImageMap">
<polygon fill="white" stroke="black" points="778,-49.5 778,-68.5 936,-68.5 936,-49.5 778,-49.5"/>
<text text-anchor="middle" x="857" y="-56.5" font-family="Helvetica,sans-Serif" font-size="10.00">backend.Model.getImageMap</text>
</a>
</g>
</g>
<!-- Node6&#45;&gt;Node7 -->
<g id="edge6" class="edge"><title>Node6&#45;&gt;Node7</title>
<path fill="none" stroke="midnightblue" d="M742.286,-59C750.903,-59 759.493,-59 767.87,-59"/>
<polygon fill="midnightblue" stroke="midnightblue" points="767.97,-62.5001 777.97,-59 767.97,-55.5001 767.97,-62.5001"/>
</g>
<!-- Node9 -->
<g id="node9" class="node"><title>Node9</title>
<g id="a_node9"><a xlink:href="../../df/de2/classbackend_1_1_turtle.html#ad21ba1e0d4e1a4701840bc6e1d178004" target="_top" xlink:title="backend.Turtle.setImageBy\lFullPath">
<polygon fill="white" stroke="black" points="547,-0 547,-30 693,-30 693,-0 547,-0"/>
<text text-anchor="start" x="555" y="-18" font-family="Helvetica,sans-Serif" font-size="10.00">backend.Turtle.setImageBy</text>
<text text-anchor="middle" x="620" y="-7" font-family="Helvetica,sans-Serif" font-size="10.00">FullPath</text>
</a>
</g>
</g>
<!-- Node8&#45;&gt;Node9 -->
<g id="edge8" class="edge"><title>Node8&#45;&gt;Node9</title>
<path fill="none" stroke="midnightblue" d="M436.594,-29.918C468.747,-27.2884 505.101,-24.3152 536.846,-21.7189"/>
<polygon fill="midnightblue" stroke="midnightblue" points="537.298,-25.1937 546.979,-20.8902 536.727,-18.217 537.298,-25.1937"/>
</g>
</g>
</svg>
        <g id="navigator" transform="translate(0 0)" fill="#404254">
                <rect fill="#f2f5e9" fill-opacity="0.5" stroke="#606060" stroke-width=".5" x="0" y="0" width="60" height="60"/>
                <use id="zoomplus" xlink:href="#zoomPlus" x="17" y="9" onmousedown="handleZoom(evt,'in')"/>
                <use id="zoomminus" xlink:href="#zoomMin" x="42" y="9" onmousedown="handleZoom(evt,'out')"/>
                <use id="reset" xlink:href="#resetDef" x="30" y="36" onmousedown="handleReset()"/>
                <g id="arrowUp" xlink:href="#dirArrow" transform="translate(30 24)" onmousedown="handlePan(0,-1)">
                  <use xlink:href="#rim" fill="#404040">
                        <set attributeName="fill" to="#808080" begin="arrowUp.mouseover" end="arrowUp.mouseout"/>
                  </use>
                  <path fill="none" stroke="white" stroke-width="1.5" d="M0,-3.0v7 M-2.5,-0.5L0,-3.0L2.5,-0.5"/>
                </g>
                <g id="arrowRight" xlink:href="#dirArrow" transform="rotate(90) translate(36 -43)" onmousedown="handlePan(1,0)">
                  <use xlink:href="#rim" fill="#404040">
                        <set attributeName="fill" to="#808080" begin="arrowRight.mouseover" end="arrowRight.mouseout"/>
                  </use>
                  <path fill="none" stroke="white" stroke-width="1.5" d="M0,-3.0v7 M-2.5,-0.5L0,-3.0L2.5,-0.5"/>
                </g>
                <g id="arrowDown" xlink:href="#dirArrow" transform="rotate(180) translate(-30 -48)" onmousedown="handlePan(0,1)">
                  <use xlink:href="#rim" fill="#404040">
                        <set attributeName="fill" to="#808080" begin="arrowDown.mouseover" end="arrowDown.mouseout"/>
                  </use>
                  <path fill="none" stroke="white" stroke-width="1.5" d="M0,-3.0v7 M-2.5,-0.5L0,-3.0L2.5,-0.5"/>
                </g>
                <g id="arrowLeft" xlink:href="#dirArrow" transform="rotate(270) translate(-36 17)" onmousedown="handlePan(-1,0)">
                  <use xlink:href="#rim" fill="#404040">
                        <set attributeName="fill" to="#808080" begin="arrowLeft.mouseover" end="arrowLeft.mouseout"/>
                  </use>
                  <path fill="none" stroke="white" stroke-width="1.5" d="M0,-3.0v7 M-2.5,-0.5L0,-3.0L2.5,-0.5"/>
                </g>
        </g>
        <svg viewBox="0 0 15 15" width="100%" height="30px" preserveAspectRatio="xMaxYMin meet">
         <g id="arrow_out" transform="scale(0.3 0.3)">
          <a xlink:href="classbackend_1_1command_1_1_set_shape_a45d3d7dfe3b3b7853d1818c84bf29be2_cgraph_org.svg" target="_base">
           <rect id="button" ry="5" rx="5" y="6" x="6" height="38" width="38"
                fill="#f2f5e9" fill-opacity="0.5" stroke="#606060" stroke-width="1.0"/>
           <path id="arrow"
             d="M 11.500037,31.436501 C 11.940474,20.09759 22.043105,11.32322 32.158766,21.979434 L 37.068811,17.246167 C 37.068811,17.246167 37.088388,32 37.088388,32 L 22.160133,31.978069 C 22.160133,31.978069 26.997745,27.140456 26.997745,27.140456 C 18.528582,18.264221 13.291696,25.230495 11.500037,31.436501 z"
             style="fill:#404040;"/>
          </a>
         </g>
        </svg>
</svg>
