<?xml version="1.0" encoding="UTF-8" standalone="no"?>
<!DOCTYPE svg PUBLIC "-//W3C//DTD SVG 1.1//EN"
 "http://www.w3.org/Graphics/SVG/1.1/DTD/svg11.dtd">
<!-- Generated by graphviz version 2.36.0 (20140111.2315)
 -->
<!-- Title: gui.TopMenu.createFileMenuItems Pages: 1 -->
<svg width="494pt" height="38pt"
 viewBox="0.00 0.00 494.00 38.00" xmlns="http://www.w3.org/2000/svg" xmlns:xlink="http://www.w3.org/1999/xlink">
<g id="graph0" class="graph" transform="scale(1 1) rotate(0) translate(4 34)">
<title>gui.TopMenu.createFileMenuItems</title>
<polygon fill="white" stroke="none" points="-4,4 -4,-34 490,-34 490,4 -4,4"/>
<!-- Node1 -->
<g id="node1" class="node"><title>Node1</title>
<polygon fill="#bfbfbf" stroke="black" points="0.5,-0 0.5,-30 151.5,-30 151.5,-0 0.5,-0"/>
<text text-anchor="start" x="8.5" y="-18" font-family="Helvetica,sans-Serif" font-size="10.00">gui.TopMenu.createFileMenu</text>
<text text-anchor="middle" x="76" y="-7" font-family="Helvetica,sans-Serif" font-size="10.00">Items</text>
</g>
<!-- Node2 -->
<g id="node2" class="node"><title>Node2</title>
<g id="a_node2"><a xlink:href="../../d5/d23/classgui_1_1_tab_panel.html#adf5298f1b0589f5c363b667b7155e87b" target="_top" xlink:title="gui.TabPanel.makeNewTab">
<polygon fill="white" stroke="black" points="188.5,-5.5 188.5,-24.5 329.5,-24.5 329.5,-5.5 188.5,-5.5"/>
<text text-anchor="middle" x="259" y="-12.5" font-family="Helvetica,sans-Serif" font-size="10.00">gui.TabPanel.makeNewTab</text>
</a>
</g>
</g>
<!-- Node1&#45;&gt;Node2 -->
<g id="edge1" class="edge"><title>Node1&#45;&gt;Node2</title>
<path fill="none" stroke="midnightblue" d="M151.665,-15C160.414,-15 169.366,-15 178.182,-15"/>
<polygon fill="midnightblue" stroke="midnightblue" points="178.447,-18.5001 188.447,-15 178.447,-11.5001 178.447,-18.5001"/>
</g>
<!-- Node3 -->
<g id="node3" class="node"><title>Node3</title>
<g id="a_node3"><a xlink:href="../../df/dc3/classgui_1_1_main.html#ad9b02558bc225d0ee0bf37fb04d5c4b6" target="_top" xlink:title="gui.Main.setActiveTab">
<polygon fill="white" stroke="black" points="366.5,-5.5 366.5,-24.5 485.5,-24.5 485.5,-5.5 366.5,-5.5"/>
<text text-anchor="middle" x="426" y="-12.5" font-family="Helvetica,sans-Serif" font-size="10.00">gui.Main.setActiveTab</text>
</a>
</g>
</g>
<!-- Node2&#45;&gt;Node3 -->
<g id="edge2" class="edge"><title>Node2&#45;&gt;Node3</title>
<path fill="none" stroke="midnightblue" d="M329.975,-15C338.687,-15 347.59,-15 356.282,-15"/>
<polygon fill="midnightblue" stroke="midnightblue" points="356.366,-18.5001 366.366,-15 356.366,-11.5001 356.366,-18.5001"/>
</g>
</g>
</svg>
