<?xml version="1.0" encoding="UTF-8" standalone="no"?>
<!DOCTYPE svg PUBLIC "-//W3C//DTD SVG 1.1//EN"
 "http://www.w3.org/Graphics/SVG/1.1/DTD/svg11.dtd">
<!-- Generated by graphviz version 2.36.0 (20140111.2315)
 -->
<!-- Title: gui.TopMenu.TopMenu Pages: 1 -->
<svg width="1298pt" height="192pt"
 viewBox="0.00 0.00 1298.00 192.00" xmlns="http://www.w3.org/2000/svg" xmlns:xlink="http://www.w3.org/1999/xlink">
<g id="graph0" class="graph" transform="scale(1 1) rotate(0) translate(4 188)">
<title>gui.TopMenu.TopMenu</title>
<polygon fill="white" stroke="none" points="-4,4 -4,-188 1294,-188 1294,4 -4,4"/>
<!-- Node1 -->
<g id="node1" class="node"><title>Node1</title>
<polygon fill="#bfbfbf" stroke="black" points="0.5,-78.5 0.5,-97.5 121.5,-97.5 121.5,-78.5 0.5,-78.5"/>
<text text-anchor="middle" x="61" y="-85.5" font-family="Helvetica,sans-Serif" font-size="10.00">gui.TopMenu.TopMenu</text>
</g>
<!-- Node2 -->
<g id="node2" class="node"><title>Node2</title>
<g id="a_node2"><a xlink:href="../../dd/d24/classgui_1_1_top_menu.html#a2b756e05f495e2d1a4f7ea156ae612d2" target="_top" xlink:title="gui.TopMenu.addMenuBar">
<polygon fill="white" stroke="black" points="158,-78.5 158,-97.5 298,-97.5 298,-78.5 158,-78.5"/>
<text text-anchor="middle" x="228" y="-85.5" font-family="Helvetica,sans-Serif" font-size="10.00">gui.TopMenu.addMenuBar</text>
</a>
</g>
</g>
<!-- Node1&#45;&gt;Node2 -->
<g id="edge1" class="edge"><title>Node1&#45;&gt;Node2</title>
<path fill="none" stroke="midnightblue" d="M121.569,-88C130.061,-88 138.906,-88 147.702,-88"/>
<polygon fill="midnightblue" stroke="midnightblue" points="147.981,-91.5001 157.981,-88 147.981,-84.5001 147.981,-91.5001"/>
</g>
<!-- Node3 -->
<g id="node3" class="node"><title>Node3</title>
<g id="a_node3"><a xlink:href="../../dd/d24/classgui_1_1_top_menu.html#ad230c298835163fed6e9f41a18b168cd" target="_top" xlink:title="gui.TopMenu.createFileMenu\lItems">
<polygon fill="white" stroke="black" points="337.5,-151 337.5,-181 488.5,-181 488.5,-151 337.5,-151"/>
<text text-anchor="start" x="345.5" y="-169" font-family="Helvetica,sans-Serif" font-size="10.00">gui.TopMenu.createFileMenu</text>
<text text-anchor="middle" x="413" y="-158" font-family="Helvetica,sans-Serif" font-size="10.00">Items</text>
</a>
</g>
</g>
<!-- Node2&#45;&gt;Node3 -->
<g id="edge2" class="edge"><title>Node2&#45;&gt;Node3</title>
<path fill="none" stroke="midnightblue" d="M248.144,-97.5026C269.033,-107.737 303.566,-124.265 334,-137 342.417,-140.522 351.429,-144.071 360.229,-147.42"/>
<polygon fill="midnightblue" stroke="midnightblue" points="359.065,-150.721 369.657,-150.964 361.528,-144.169 359.065,-150.721"/>
</g>
<!-- Node6 -->
<g id="node6" class="node"><title>Node6</title>
<g id="a_node6"><a xlink:href="../../dd/d24/classgui_1_1_top_menu.html#a0b9572d259c88a1222bf672e6c9f03d3" target="_top" xlink:title="gui.TopMenu.createDisplay\lMenuItems">
<polygon fill="white" stroke="black" points="341,-98 341,-128 485,-128 485,-98 341,-98"/>
<text text-anchor="start" x="349" y="-116" font-family="Helvetica,sans-Serif" font-size="10.00">gui.TopMenu.createDisplay</text>
<text text-anchor="middle" x="413" y="-105" font-family="Helvetica,sans-Serif" font-size="10.00">MenuItems</text>
</a>
</g>
</g>
<!-- Node2&#45;&gt;Node6 -->
<g id="edge5" class="edge"><title>Node2&#45;&gt;Node6</title>
<path fill="none" stroke="midnightblue" d="M298.184,-97.4514C308.879,-98.9124 320.006,-100.432 330.932,-101.925"/>
<polygon fill="midnightblue" stroke="midnightblue" points="330.51,-105.4 340.891,-103.286 331.457,-98.4643 330.51,-105.4"/>
</g>
<!-- Node9 -->
<g id="node9" class="node"><title>Node9</title>
<g id="a_node9"><a xlink:href="../../dd/d24/classgui_1_1_top_menu.html#aa9f461ca1d36369a75efbb935391e413" target="_top" xlink:title="gui.TopMenu.createLanguage\lMenuItems">
<polygon fill="white" stroke="black" points="334.5,-49 334.5,-79 491.5,-79 491.5,-49 334.5,-49"/>
<text text-anchor="start" x="342.5" y="-67" font-family="Helvetica,sans-Serif" font-size="10.00">gui.TopMenu.createLanguage</text>
<text text-anchor="middle" x="413" y="-56" font-family="Helvetica,sans-Serif" font-size="10.00">MenuItems</text>
</a>
</g>
</g>
<!-- Node2&#45;&gt;Node9 -->
<g id="edge8" class="edge"><title>Node2&#45;&gt;Node9</title>
<path fill="none" stroke="midnightblue" d="M298.184,-78.9266C306.789,-77.7982 315.673,-76.633 324.508,-75.4744"/>
<polygon fill="midnightblue" stroke="midnightblue" points="324.983,-78.9421 334.443,-74.1714 324.073,-72.0015 324.983,-78.9421"/>
</g>
<!-- Node14 -->
<g id="node14" class="node"><title>Node14</title>
<g id="a_node14"><a xlink:href="../../dd/d24/classgui_1_1_top_menu.html#aaf42643020d6c4e3436996cb810d4261" target="_top" xlink:title="gui.TopMenu.createHelpMenu\lItems">
<polygon fill="white" stroke="black" points="334,-0 334,-30 492,-30 492,-0 334,-0"/>
<text text-anchor="start" x="342" y="-18" font-family="Helvetica,sans-Serif" font-size="10.00">gui.TopMenu.createHelpMenu</text>
<text text-anchor="middle" x="413" y="-7" font-family="Helvetica,sans-Serif" font-size="10.00">Items</text>
</a>
</g>
</g>
<!-- Node2&#45;&gt;Node14 -->
<g id="edge13" class="edge"><title>Node2&#45;&gt;Node14</title>
<path fill="none" stroke="midnightblue" d="M248.059,-78.4574C268.876,-68.2313 303.347,-51.8707 334,-40 339.831,-37.7421 345.959,-35.5223 352.112,-33.3942"/>
<polygon fill="midnightblue" stroke="midnightblue" points="353.407,-36.6509 361.76,-30.1331 351.165,-30.0195 353.407,-36.6509"/>
</g>
<!-- Node4 -->
<g id="node4" class="node"><title>Node4</title>
<g id="a_node4"><a xlink:href="../../d5/d23/classgui_1_1_tab_panel.html#adf5298f1b0589f5c363b667b7155e87b" target="_top" xlink:title="gui.TabPanel.makeNewTab">
<polygon fill="white" stroke="black" points="534.5,-164.5 534.5,-183.5 675.5,-183.5 675.5,-164.5 534.5,-164.5"/>
<text text-anchor="middle" x="605" y="-171.5" font-family="Helvetica,sans-Serif" font-size="10.00">gui.TabPanel.makeNewTab</text>
</a>
</g>
</g>
<!-- Node3&#45;&gt;Node4 -->
<g id="edge3" class="edge"><title>Node3&#45;&gt;Node4</title>
<path fill="none" stroke="midnightblue" d="M488.548,-169.139C500.207,-169.63 512.298,-170.139 524.072,-170.635"/>
<polygon fill="midnightblue" stroke="midnightblue" points="524.18,-174.142 534.318,-171.066 524.474,-167.148 524.18,-174.142"/>
</g>
<!-- Node5 -->
<g id="node5" class="node"><title>Node5</title>
<g id="a_node5"><a xlink:href="../../df/dc3/classgui_1_1_main.html#ad9b02558bc225d0ee0bf37fb04d5c4b6" target="_top" xlink:title="gui.Main.setActiveTab">
<polygon fill="white" stroke="black" points="737.5,-164.5 737.5,-183.5 856.5,-183.5 856.5,-164.5 737.5,-164.5"/>
<text text-anchor="middle" x="797" y="-171.5" font-family="Helvetica,sans-Serif" font-size="10.00">gui.Main.setActiveTab</text>
</a>
</g>
</g>
<!-- Node4&#45;&gt;Node5 -->
<g id="edge4" class="edge"><title>Node4&#45;&gt;Node5</title>
<path fill="none" stroke="midnightblue" d="M675.67,-174C692.422,-174 710.308,-174 727.028,-174"/>
<polygon fill="midnightblue" stroke="midnightblue" points="727.267,-177.5 737.267,-174 727.267,-170.5 727.267,-177.5"/>
</g>
<!-- Node7 -->
<g id="node7" class="node"><title>Node7</title>
<g id="a_node7"><a xlink:href="../../d3/dac/classbackend_1_1_model.html#a341c789b1a3e0bf796fb626603928e95" target="_top" xlink:title="backend.Model.getGrid">
<polygon fill="white" stroke="black" points="541.5,-126.5 541.5,-145.5 668.5,-145.5 668.5,-126.5 541.5,-126.5"/>
<text text-anchor="middle" x="605" y="-133.5" font-family="Helvetica,sans-Serif" font-size="10.00">backend.Model.getGrid</text>
</a>
</g>
</g>
<!-- Node6&#45;&gt;Node7 -->
<g id="edge6" class="edge"><title>Node6&#45;&gt;Node7</title>
<path fill="none" stroke="midnightblue" d="M485.019,-121.597C500.092,-123.422 516.026,-125.351 531.166,-127.183"/>
<polygon fill="midnightblue" stroke="midnightblue" points="531.151,-130.707 541.499,-128.434 531.992,-123.758 531.151,-130.707"/>
</g>
<!-- Node8 -->
<g id="node8" class="node"><title>Node8</title>
<g id="a_node8"><a xlink:href="../../d1/d68/classbackend_1_1_grid.html#ac089ef72a1531ec8e0cf131de056d0b2" target="_top" xlink:title="backend.Grid.getAllTurtles">
<polygon fill="white" stroke="black" points="535,-88.5 535,-107.5 675,-107.5 675,-88.5 535,-88.5"/>
<text text-anchor="middle" x="605" y="-95.5" font-family="Helvetica,sans-Serif" font-size="10.00">backend.Grid.getAllTurtles</text>
</a>
</g>
</g>
<!-- Node6&#45;&gt;Node8 -->
<g id="edge7" class="edge"><title>Node6&#45;&gt;Node8</title>
<path fill="none" stroke="midnightblue" d="M485.019,-107.393C498.038,-106.365 511.7,-105.287 524.937,-104.242"/>
<polygon fill="midnightblue" stroke="midnightblue" points="525.266,-107.727 534.959,-103.451 524.715,-100.749 525.266,-107.727"/>
</g>
<!-- Node10 -->
<g id="node10" class="node"><title>Node10</title>
<g id="a_node10"><a xlink:href="../../d3/dac/classbackend_1_1_model.html#af35843b86c053f153827af5c7387eda6" target="_top" xlink:title="backend.Model.setLanguage">
<polygon fill="white" stroke="black" points="528,-50.5 528,-69.5 682,-69.5 682,-50.5 528,-50.5"/>
<text text-anchor="middle" x="605" y="-57.5" font-family="Helvetica,sans-Serif" font-size="10.00">backend.Model.setLanguage</text>
</a>
</g>
</g>
<!-- Node9&#45;&gt;Node10 -->
<g id="edge9" class="edge"><title>Node9&#45;&gt;Node10</title>
<path fill="none" stroke="midnightblue" d="M491.554,-62.3673C500.183,-62.1856 509.011,-61.9998 517.74,-61.816"/>
<polygon fill="midnightblue" stroke="midnightblue" points="517.999,-65.3114 527.923,-61.6016 517.851,-58.313 517.999,-65.3114"/>
</g>
<!-- Node11 -->
<g id="node11" class="node"><title>Node11</title>
<g id="a_node11"><a xlink:href="../../da/d26/classbackend_1_1_s_logo_parser.html#a83c48627f6266e49569fe3300cb464fd" target="_top" xlink:title="backend.SLogoParser.change\lLanguage">
<polygon fill="white" stroke="black" points="718,-45 718,-75 876,-75 876,-45 718,-45"/>
<text text-anchor="start" x="726" y="-63" font-family="Helvetica,sans-Serif" font-size="10.00">backend.SLogoParser.change</text>
<text text-anchor="middle" x="797" y="-52" font-family="Helvetica,sans-Serif" font-size="10.00">Language</text>
</a>
</g>
</g>
<!-- Node10&#45;&gt;Node11 -->
<g id="edge10" class="edge"><title>Node10&#45;&gt;Node11</title>
<path fill="none" stroke="midnightblue" d="M682.185,-60C690.645,-60 699.311,-60 707.902,-60"/>
<polygon fill="midnightblue" stroke="midnightblue" points="707.936,-63.5001 717.936,-60 707.936,-56.5001 707.936,-63.5001"/>
</g>
<!-- Node12 -->
<g id="node12" class="node"><title>Node12</title>
<g id="a_node12"><a xlink:href="../../da/d26/classbackend_1_1_s_logo_parser.html#a82d15a04544ef7a74f5108c32efe777c" target="_top" xlink:title="backend.SLogoParser.genPatternList">
<polygon fill="white" stroke="black" points="912.5,-50.5 912.5,-69.5 1103.5,-69.5 1103.5,-50.5 912.5,-50.5"/>
<text text-anchor="middle" x="1008" y="-57.5" font-family="Helvetica,sans-Serif" font-size="10.00">backend.SLogoParser.genPatternList</text>
</a>
</g>
</g>
<!-- Node11&#45;&gt;Node12 -->
<g id="edge11" class="edge"><title>Node11&#45;&gt;Node12</title>
<path fill="none" stroke="midnightblue" d="M876.121,-60C884.621,-60 893.371,-60 902.123,-60"/>
<polygon fill="midnightblue" stroke="midnightblue" points="902.385,-63.5001 912.385,-60 902.385,-56.5001 902.385,-63.5001"/>
</g>
<!-- Node13 -->
<g id="node13" class="node"><title>Node13</title>
<g id="a_node13"><a xlink:href="../../da/d26/classbackend_1_1_s_logo_parser.html#a4c0e26367900e18f0f12c0d3382927c3" target="_top" xlink:title="backend.SLogoParser.make\lPatterns">
<polygon fill="white" stroke="black" points="1140.5,-45 1140.5,-75 1289.5,-75 1289.5,-45 1140.5,-45"/>
<text text-anchor="start" x="1148.5" y="-63" font-family="Helvetica,sans-Serif" font-size="10.00">backend.SLogoParser.make</text>
<text text-anchor="middle" x="1215" y="-52" font-family="Helvetica,sans-Serif" font-size="10.00">Patterns</text>
</a>
</g>
</g>
<!-- Node12&#45;&gt;Node13 -->
<g id="edge12" class="edge"><title>Node12&#45;&gt;Node13</title>
<path fill="none" stroke="midnightblue" d="M1103.7,-60C1112.52,-60 1121.42,-60 1130.13,-60"/>
<polygon fill="midnightblue" stroke="midnightblue" points="1130.26,-63.5001 1140.26,-60 1130.26,-56.5001 1130.26,-63.5001"/>
</g>
</g>
</svg>
