<?xml version="1.0" encoding="UTF-8" standalone="no"?>
<!DOCTYPE svg PUBLIC "-//W3C//DTD SVG 1.1//EN"
 "http://www.w3.org/Graphics/SVG/1.1/DTD/svg11.dtd">
<!-- Generated by graphviz version 2.36.0 (20140111.2315)
 -->
<!-- Title: gui.TopMenu.openColorPicker Pages: 1 -->
<svg width="532pt" height="82pt"
 viewBox="0.00 0.00 532.00 82.00" xmlns="http://www.w3.org/2000/svg" xmlns:xlink="http://www.w3.org/1999/xlink">
<g id="graph0" class="graph" transform="scale(1 1) rotate(0) translate(4 78)">
<title>gui.TopMenu.openColorPicker</title>
<polygon fill="white" stroke="none" points="-4,4 -4,-78 528,-78 528,4 -4,4"/>
<!-- Node1 -->
<g id="node1" class="node"><title>Node1</title>
<polygon fill="#bfbfbf" stroke="black" points="0,-27.5 0,-46.5 156,-46.5 156,-27.5 0,-27.5"/>
<text text-anchor="middle" x="78" y="-34.5" font-family="Helvetica,sans-Serif" font-size="10.00">gui.TopMenu.openColorPicker</text>
</g>
<!-- Node2 -->
<g id="node2" class="node"><title>Node2</title>
<g id="a_node2"><a xlink:href="../../d1/d13/classgui_1_1_color_picking_screen.html#ab17b04bb72d930e22dc7866650df2cd5" target="_top" xlink:title="gui.ColorPickingScreen.get\lColor">
<polygon fill="white" stroke="black" points="196,-44 196,-74 340,-74 340,-44 196,-44"/>
<text text-anchor="start" x="204" y="-62" font-family="Helvetica,sans-Serif" font-size="10.00">gui.ColorPickingScreen.get</text>
<text text-anchor="middle" x="268" y="-51" font-family="Helvetica,sans-Serif" font-size="10.00">Color</text>
</a>
</g>
</g>
<!-- Node1&#45;&gt;Node2 -->
<g id="edge1" class="edge"><title>Node1&#45;&gt;Node2</title>
<path fill="none" stroke="midnightblue" d="M156.009,-46.0117C165.793,-47.1566 175.831,-48.3313 185.68,-49.4838"/>
<polygon fill="midnightblue" stroke="midnightblue" points="185.517,-52.9886 195.856,-50.6747 186.331,-46.036 185.517,-52.9886"/>
</g>
<!-- Node3 -->
<g id="node3" class="node"><title>Node3</title>
<g id="a_node3"><a xlink:href="../../d1/d13/classgui_1_1_color_picking_screen.html#abbcb8f5c4fde57b70c6163c7110a7471" target="_top" xlink:title="gui.ColorPickingScreen.start">
<polygon fill="white" stroke="black" points="192.5,-5.5 192.5,-24.5 343.5,-24.5 343.5,-5.5 192.5,-5.5"/>
<text text-anchor="middle" x="268" y="-12.5" font-family="Helvetica,sans-Serif" font-size="10.00">gui.ColorPickingScreen.start</text>
</a>
</g>
</g>
<!-- Node1&#45;&gt;Node3 -->
<g id="edge2" class="edge"><title>Node1&#45;&gt;Node3</title>
<path fill="none" stroke="midnightblue" d="M156.009,-27.9883C164.61,-26.9819 173.406,-25.9525 182.098,-24.9353"/>
<polygon fill="midnightblue" stroke="midnightblue" points="182.71,-28.3877 192.235,-23.7491 181.896,-21.4351 182.71,-28.3877"/>
</g>
<!-- Node4 -->
<g id="node4" class="node"><title>Node4</title>
<g id="a_node4"><a xlink:href="../../d1/d13/classgui_1_1_color_picking_screen.html#a028a68b11c04d1e8e179403c50321f6b" target="_top" xlink:title="gui.ColorPickingScreen.set\lColor">
<polygon fill="white" stroke="black" points="380.5,-0 380.5,-30 523.5,-30 523.5,-0 380.5,-0"/>
<text text-anchor="start" x="388.5" y="-18" font-family="Helvetica,sans-Serif" font-size="10.00">gui.ColorPickingScreen.set</text>
<text text-anchor="middle" x="452" y="-7" font-family="Helvetica,sans-Serif" font-size="10.00">Color</text>
</a>
</g>
</g>
<!-- Node3&#45;&gt;Node4 -->
<g id="edge3" class="edge"><title>Node3&#45;&gt;Node4</title>
<path fill="none" stroke="midnightblue" d="M343.551,-15C352.301,-15 361.26,-15 370.09,-15"/>
<polygon fill="midnightblue" stroke="midnightblue" points="370.378,-18.5001 380.378,-15 370.378,-11.5001 370.378,-18.5001"/>
</g>
</g>
</svg>
