<?xml version="1.0" encoding="UTF-8" standalone="no"?>
<!DOCTYPE svg PUBLIC "-//W3C//DTD SVG 1.1//EN"
 "http://www.w3.org/Graphics/SVG/1.1/DTD/svg11.dtd">
<!-- Generated by graphviz version 2.36.0 (20140111.2315)
 -->
<!-- Title: gui.TopMenu.createLanguageMenuItems Pages: 1 -->
<svg width="964pt" height="38pt"
 viewBox="0.00 0.00 964.00 38.00" xmlns="http://www.w3.org/2000/svg" xmlns:xlink="http://www.w3.org/1999/xlink">
<g id="graph0" class="graph" transform="scale(1 1) rotate(0) translate(4 34)">
<title>gui.TopMenu.createLanguageMenuItems</title>
<polygon fill="white" stroke="none" points="-4,4 -4,-34 960,-34 960,4 -4,4"/>
<!-- Node1 -->
<g id="node1" class="node"><title>Node1</title>
<polygon fill="#bfbfbf" stroke="black" points="0.5,-0 0.5,-30 157.5,-30 157.5,-0 0.5,-0"/>
<text text-anchor="start" x="8.5" y="-18" font-family="Helvetica,sans-Serif" font-size="10.00">gui.TopMenu.createLanguage</text>
<text text-anchor="middle" x="79" y="-7" font-family="Helvetica,sans-Serif" font-size="10.00">MenuItems</text>
</g>
<!-- Node2 -->
<g id="node2" class="node"><title>Node2</title>
<g id="a_node2"><a xlink:href="../../d3/dac/classbackend_1_1_model.html#af35843b86c053f153827af5c7387eda6" target="_top" xlink:title="backend.Model.setLanguage">
<polygon fill="white" stroke="black" points="194,-5.5 194,-24.5 348,-24.5 348,-5.5 194,-5.5"/>
<text text-anchor="middle" x="271" y="-12.5" font-family="Helvetica,sans-Serif" font-size="10.00">backend.Model.setLanguage</text>
</a>
</g>
</g>
<!-- Node1&#45;&gt;Node2 -->
<g id="edge1" class="edge"><title>Node1&#45;&gt;Node2</title>
<path fill="none" stroke="midnightblue" d="M157.554,-15C166.183,-15 175.011,-15 183.74,-15"/>
<polygon fill="midnightblue" stroke="midnightblue" points="183.923,-18.5001 193.923,-15 183.923,-11.5001 183.923,-18.5001"/>
</g>
<!-- Node3 -->
<g id="node3" class="node"><title>Node3</title>
<g id="a_node3"><a xlink:href="../../da/d26/classbackend_1_1_s_logo_parser.html#a83c48627f6266e49569fe3300cb464fd" target="_top" xlink:title="backend.SLogoParser.change\lLanguage">
<polygon fill="white" stroke="black" points="384,-0 384,-30 542,-30 542,-0 384,-0"/>
<text text-anchor="start" x="392" y="-18" font-family="Helvetica,sans-Serif" font-size="10.00">backend.SLogoParser.change</text>
<text text-anchor="middle" x="463" y="-7" font-family="Helvetica,sans-Serif" font-size="10.00">Language</text>
</a>
</g>
</g>
<!-- Node2&#45;&gt;Node3 -->
<g id="edge2" class="edge"><title>Node2&#45;&gt;Node3</title>
<path fill="none" stroke="midnightblue" d="M348.185,-15C356.645,-15 365.311,-15 373.902,-15"/>
<polygon fill="midnightblue" stroke="midnightblue" points="373.936,-18.5001 383.936,-15 373.936,-11.5001 373.936,-18.5001"/>
</g>
<!-- Node4 -->
<g id="node4" class="node"><title>Node4</title>
<g id="a_node4"><a xlink:href="../../da/d26/classbackend_1_1_s_logo_parser.html#a82d15a04544ef7a74f5108c32efe777c" target="_top" xlink:title="backend.SLogoParser.genPatternList">
<polygon fill="white" stroke="black" points="578.5,-5.5 578.5,-24.5 769.5,-24.5 769.5,-5.5 578.5,-5.5"/>
<text text-anchor="middle" x="674" y="-12.5" font-family="Helvetica,sans-Serif" font-size="10.00">backend.SLogoParser.genPatternList</text>
</a>
</g>
</g>
<!-- Node3&#45;&gt;Node4 -->
<g id="edge3" class="edge"><title>Node3&#45;&gt;Node4</title>
<path fill="none" stroke="midnightblue" d="M542.121,-15C550.621,-15 559.371,-15 568.123,-15"/>
<polygon fill="midnightblue" stroke="midnightblue" points="568.385,-18.5001 578.385,-15 568.385,-11.5001 568.385,-18.5001"/>
</g>
<!-- Node5 -->
<g id="node5" class="node"><title>Node5</title>
<g id="a_node5"><a xlink:href="../../da/d26/classbackend_1_1_s_logo_parser.html#a4c0e26367900e18f0f12c0d3382927c3" target="_top" xlink:title="backend.SLogoParser.make\lPatterns">
<polygon fill="white" stroke="black" points="806.5,-0 806.5,-30 955.5,-30 955.5,-0 806.5,-0"/>
<text text-anchor="start" x="814.5" y="-18" font-family="Helvetica,sans-Serif" font-size="10.00">backend.SLogoParser.make</text>
<text text-anchor="middle" x="881" y="-7" font-family="Helvetica,sans-Serif" font-size="10.00">Patterns</text>
</a>
</g>
</g>
<!-- Node4&#45;&gt;Node5 -->
<g id="edge4" class="edge"><title>Node4&#45;&gt;Node5</title>
<path fill="none" stroke="midnightblue" d="M769.699,-15C778.521,-15 787.421,-15 796.135,-15"/>
<polygon fill="midnightblue" stroke="midnightblue" points="796.263,-18.5001 806.263,-15 796.263,-11.5001 796.263,-18.5001"/>
</g>
</g>
</svg>
