<?xml version="1.0" encoding="UTF-8" standalone="no"?>
<!DOCTYPE svg PUBLIC "-//W3C//DTD SVG 1.1//EN"
 "http://www.w3.org/Graphics/SVG/1.1/DTD/svg11.dtd">
<!-- Generated by graphviz version 2.36.0 (20140111.2315)
 -->
<!-- Title: gui.TopMenu.addMenuBar Pages: 1 -->
<svg width="1140pt" height="212pt"
 viewBox="0.00 0.00 1140.00 212.00" xmlns="http://www.w3.org/2000/svg" xmlns:xlink="http://www.w3.org/1999/xlink">
<g id="graph0" class="graph" transform="scale(1 1) rotate(0) translate(4 208)">
<title>gui.TopMenu.addMenuBar</title>
<polygon fill="white" stroke="none" points="-4,4 -4,-208 1136,-208 1136,4 -4,4"/>
<!-- Node1 -->
<g id="node1" class="node"><title>Node1</title>
<polygon fill="#bfbfbf" stroke="black" points="0,-78.5 0,-97.5 140,-97.5 140,-78.5 0,-78.5"/>
<text text-anchor="middle" x="70" y="-85.5" font-family="Helvetica,sans-Serif" font-size="10.00">gui.TopMenu.addMenuBar</text>
</g>
<!-- Node2 -->
<g id="node2" class="node"><title>Node2</title>
<g id="a_node2"><a xlink:href="../../dd/d24/classgui_1_1_top_menu.html#a0b9572d259c88a1222bf672e6c9f03d3" target="_top" xlink:title="gui.TopMenu.createDisplay\lMenuItems">
<polygon fill="white" stroke="black" points="183,-147 183,-177 327,-177 327,-147 183,-147"/>
<text text-anchor="start" x="191" y="-165" font-family="Helvetica,sans-Serif" font-size="10.00">gui.TopMenu.createDisplay</text>
<text text-anchor="middle" x="255" y="-154" font-family="Helvetica,sans-Serif" font-size="10.00">MenuItems</text>
</a>
</g>
</g>
<!-- Node1&#45;&gt;Node2 -->
<g id="edge1" class="edge"><title>Node1&#45;&gt;Node2</title>
<path fill="none" stroke="midnightblue" d="M89.6551,-97.5831C110.409,-108.036 145.095,-124.892 176,-137 181.822,-139.281 187.944,-141.516 194.093,-143.653"/>
<polygon fill="midnightblue" stroke="midnightblue" points="193.143,-147.026 203.737,-146.924 195.391,-140.397 193.143,-147.026"/>
</g>
<!-- Node5 -->
<g id="node5" class="node"><title>Node5</title>
<g id="a_node5"><a xlink:href="../../dd/d24/classgui_1_1_top_menu.html#ad230c298835163fed6e9f41a18b168cd" target="_top" xlink:title="gui.TopMenu.createFileMenu\lItems">
<polygon fill="white" stroke="black" points="179.5,-98 179.5,-128 330.5,-128 330.5,-98 179.5,-98"/>
<text text-anchor="start" x="187.5" y="-116" font-family="Helvetica,sans-Serif" font-size="10.00">gui.TopMenu.createFileMenu</text>
<text text-anchor="middle" x="255" y="-105" font-family="Helvetica,sans-Serif" font-size="10.00">Items</text>
</a>
</g>
</g>
<!-- Node1&#45;&gt;Node5 -->
<g id="edge4" class="edge"><title>Node1&#45;&gt;Node5</title>
<path fill="none" stroke="midnightblue" d="M140.184,-97.4514C149.65,-98.7445 159.454,-100.084 169.158,-101.41"/>
<polygon fill="midnightblue" stroke="midnightblue" points="168.835,-104.898 179.216,-102.784 169.782,-97.9622 168.835,-104.898"/>
</g>
<!-- Node8 -->
<g id="node8" class="node"><title>Node8</title>
<g id="a_node8"><a xlink:href="../../dd/d24/classgui_1_1_top_menu.html#aaf42643020d6c4e3436996cb810d4261" target="_top" xlink:title="gui.TopMenu.createHelpMenu\lItems">
<polygon fill="white" stroke="black" points="176,-49 176,-79 334,-79 334,-49 176,-49"/>
<text text-anchor="start" x="184" y="-67" font-family="Helvetica,sans-Serif" font-size="10.00">gui.TopMenu.createHelpMenu</text>
<text text-anchor="middle" x="255" y="-56" font-family="Helvetica,sans-Serif" font-size="10.00">Items</text>
</a>
</g>
</g>
<!-- Node1&#45;&gt;Node8 -->
<g id="edge7" class="edge"><title>Node1&#45;&gt;Node8</title>
<path fill="none" stroke="midnightblue" d="M140.184,-78.9266C148.551,-77.8294 157.182,-76.6975 165.774,-75.5706"/>
<polygon fill="midnightblue" stroke="midnightblue" points="166.366,-79.0231 175.825,-74.2524 165.455,-72.0825 166.366,-79.0231"/>
</g>
<!-- Node9 -->
<g id="node9" class="node"><title>Node9</title>
<g id="a_node9"><a xlink:href="../../dd/d24/classgui_1_1_top_menu.html#aa9f461ca1d36369a75efbb935391e413" target="_top" xlink:title="gui.TopMenu.createLanguage\lMenuItems">
<polygon fill="white" stroke="black" points="176.5,-0 176.5,-30 333.5,-30 333.5,-0 176.5,-0"/>
<text text-anchor="start" x="184.5" y="-18" font-family="Helvetica,sans-Serif" font-size="10.00">gui.TopMenu.createLanguage</text>
<text text-anchor="middle" x="255" y="-7" font-family="Helvetica,sans-Serif" font-size="10.00">MenuItems</text>
</a>
</g>
</g>
<!-- Node1&#45;&gt;Node9 -->
<g id="edge8" class="edge"><title>Node1&#45;&gt;Node9</title>
<path fill="none" stroke="midnightblue" d="M89.6285,-78.3485C110.36,-67.8352 145.025,-50.9273 176,-39 181.123,-37.0271 186.483,-35.1017 191.89,-33.2544"/>
<polygon fill="midnightblue" stroke="midnightblue" points="193.244,-36.4927 201.632,-30.0205 191.039,-29.8492 193.244,-36.4927"/>
</g>
<!-- Node3 -->
<g id="node3" class="node"><title>Node3</title>
<g id="a_node3"><a xlink:href="../../d3/dac/classbackend_1_1_model.html#a341c789b1a3e0bf796fb626603928e95" target="_top" xlink:title="backend.Model.getGrid">
<polygon fill="white" stroke="black" points="383.5,-184.5 383.5,-203.5 510.5,-203.5 510.5,-184.5 383.5,-184.5"/>
<text text-anchor="middle" x="447" y="-191.5" font-family="Helvetica,sans-Serif" font-size="10.00">backend.Model.getGrid</text>
</a>
</g>
</g>
<!-- Node2&#45;&gt;Node3 -->
<g id="edge2" class="edge"><title>Node2&#45;&gt;Node3</title>
<path fill="none" stroke="midnightblue" d="M327.019,-173.961C344.128,-176.843 362.346,-179.911 379.252,-182.758"/>
<polygon fill="midnightblue" stroke="midnightblue" points="379.144,-186.289 389.586,-184.499 380.307,-179.386 379.144,-186.289"/>
</g>
<!-- Node4 -->
<g id="node4" class="node"><title>Node4</title>
<g id="a_node4"><a xlink:href="../../d1/d68/classbackend_1_1_grid.html#ac089ef72a1531ec8e0cf131de056d0b2" target="_top" xlink:title="backend.Grid.getAllTurtles">
<polygon fill="white" stroke="black" points="377,-146.5 377,-165.5 517,-165.5 517,-146.5 377,-146.5"/>
<text text-anchor="middle" x="447" y="-153.5" font-family="Helvetica,sans-Serif" font-size="10.00">backend.Grid.getAllTurtles</text>
</a>
</g>
</g>
<!-- Node2&#45;&gt;Node4 -->
<g id="edge3" class="edge"><title>Node2&#45;&gt;Node4</title>
<path fill="none" stroke="midnightblue" d="M327.019,-159.757C340.038,-159.346 353.7,-158.915 366.937,-158.497"/>
<polygon fill="midnightblue" stroke="midnightblue" points="367.075,-161.994 376.959,-158.18 366.854,-154.998 367.075,-161.994"/>
</g>
<!-- Node6 -->
<g id="node6" class="node"><title>Node6</title>
<g id="a_node6"><a xlink:href="../../d5/d23/classgui_1_1_tab_panel.html#adf5298f1b0589f5c363b667b7155e87b" target="_top" xlink:title="gui.TabPanel.makeNewTab">
<polygon fill="white" stroke="black" points="376.5,-103.5 376.5,-122.5 517.5,-122.5 517.5,-103.5 376.5,-103.5"/>
<text text-anchor="middle" x="447" y="-110.5" font-family="Helvetica,sans-Serif" font-size="10.00">gui.TabPanel.makeNewTab</text>
</a>
</g>
</g>
<!-- Node5&#45;&gt;Node6 -->
<g id="edge5" class="edge"><title>Node5&#45;&gt;Node6</title>
<path fill="none" stroke="midnightblue" d="M330.548,-113C342.207,-113 354.298,-113 366.072,-113"/>
<polygon fill="midnightblue" stroke="midnightblue" points="366.318,-116.5 376.318,-113 366.318,-109.5 366.318,-116.5"/>
</g>
<!-- Node7 -->
<g id="node7" class="node"><title>Node7</title>
<g id="a_node7"><a xlink:href="../../df/dc3/classgui_1_1_main.html#ad9b02558bc225d0ee0bf37fb04d5c4b6" target="_top" xlink:title="gui.Main.setActiveTab">
<polygon fill="white" stroke="black" points="579.5,-103.5 579.5,-122.5 698.5,-122.5 698.5,-103.5 579.5,-103.5"/>
<text text-anchor="middle" x="639" y="-110.5" font-family="Helvetica,sans-Serif" font-size="10.00">gui.Main.setActiveTab</text>
</a>
</g>
</g>
<!-- Node6&#45;&gt;Node7 -->
<g id="edge6" class="edge"><title>Node6&#45;&gt;Node7</title>
<path fill="none" stroke="midnightblue" d="M517.67,-113C534.422,-113 552.308,-113 569.028,-113"/>
<polygon fill="midnightblue" stroke="midnightblue" points="569.267,-116.5 579.267,-113 569.267,-109.5 569.267,-116.5"/>
</g>
<!-- Node10 -->
<g id="node10" class="node"><title>Node10</title>
<g id="a_node10"><a xlink:href="../../d3/dac/classbackend_1_1_model.html#af35843b86c053f153827af5c7387eda6" target="_top" xlink:title="backend.Model.setLanguage">
<polygon fill="white" stroke="black" points="370,-5.5 370,-24.5 524,-24.5 524,-5.5 370,-5.5"/>
<text text-anchor="middle" x="447" y="-12.5" font-family="Helvetica,sans-Serif" font-size="10.00">backend.Model.setLanguage</text>
</a>
</g>
</g>
<!-- Node9&#45;&gt;Node10 -->
<g id="edge9" class="edge"><title>Node9&#45;&gt;Node10</title>
<path fill="none" stroke="midnightblue" d="M333.554,-15C342.183,-15 351.011,-15 359.74,-15"/>
<polygon fill="midnightblue" stroke="midnightblue" points="359.923,-18.5001 369.923,-15 359.923,-11.5001 359.923,-18.5001"/>
</g>
<!-- Node11 -->
<g id="node11" class="node"><title>Node11</title>
<g id="a_node11"><a xlink:href="../../da/d26/classbackend_1_1_s_logo_parser.html#a83c48627f6266e49569fe3300cb464fd" target="_top" xlink:title="backend.SLogoParser.change\lLanguage">
<polygon fill="white" stroke="black" points="560,-0 560,-30 718,-30 718,-0 560,-0"/>
<text text-anchor="start" x="568" y="-18" font-family="Helvetica,sans-Serif" font-size="10.00">backend.SLogoParser.change</text>
<text text-anchor="middle" x="639" y="-7" font-family="Helvetica,sans-Serif" font-size="10.00">Language</text>
</a>
</g>
</g>
<!-- Node10&#45;&gt;Node11 -->
<g id="edge10" class="edge"><title>Node10&#45;&gt;Node11</title>
<path fill="none" stroke="midnightblue" d="M524.185,-15C532.645,-15 541.311,-15 549.902,-15"/>
<polygon fill="midnightblue" stroke="midnightblue" points="549.936,-18.5001 559.936,-15 549.936,-11.5001 549.936,-18.5001"/>
</g>
<!-- Node12 -->
<g id="node12" class="node"><title>Node12</title>
<g id="a_node12"><a xlink:href="../../da/d26/classbackend_1_1_s_logo_parser.html#a82d15a04544ef7a74f5108c32efe777c" target="_top" xlink:title="backend.SLogoParser.genPatternList">
<polygon fill="white" stroke="black" points="754.5,-5.5 754.5,-24.5 945.5,-24.5 945.5,-5.5 754.5,-5.5"/>
<text text-anchor="middle" x="850" y="-12.5" font-family="Helvetica,sans-Serif" font-size="10.00">backend.SLogoParser.genPatternList</text>
</a>
</g>
</g>
<!-- Node11&#45;&gt;Node12 -->
<g id="edge11" class="edge"><title>Node11&#45;&gt;Node12</title>
<path fill="none" stroke="midnightblue" d="M718.121,-15C726.621,-15 735.371,-15 744.123,-15"/>
<polygon fill="midnightblue" stroke="midnightblue" points="744.385,-18.5001 754.385,-15 744.385,-11.5001 744.385,-18.5001"/>
</g>
<!-- Node13 -->
<g id="node13" class="node"><title>Node13</title>
<g id="a_node13"><a xlink:href="../../da/d26/classbackend_1_1_s_logo_parser.html#a4c0e26367900e18f0f12c0d3382927c3" target="_top" xlink:title="backend.SLogoParser.make\lPatterns">
<polygon fill="white" stroke="black" points="982.5,-0 982.5,-30 1131.5,-30 1131.5,-0 982.5,-0"/>
<text text-anchor="start" x="990.5" y="-18" font-family="Helvetica,sans-Serif" font-size="10.00">backend.SLogoParser.make</text>
<text text-anchor="middle" x="1057" y="-7" font-family="Helvetica,sans-Serif" font-size="10.00">Patterns</text>
</a>
</g>
</g>
<!-- Node12&#45;&gt;Node13 -->
<g id="edge12" class="edge"><title>Node12&#45;&gt;Node13</title>
<path fill="none" stroke="midnightblue" d="M945.699,-15C954.521,-15 963.421,-15 972.135,-15"/>
<polygon fill="midnightblue" stroke="midnightblue" points="972.263,-18.5001 982.263,-15 972.263,-11.5001 972.263,-18.5001"/>
</g>
</g>
</svg>
