<?xml version="1.0" encoding="UTF-8" standalone="no"?>
<!DOCTYPE svg PUBLIC "-//W3C//DTD SVG 1.1//EN"
 "http://www.w3.org/Graphics/SVG/1.1/DTD/svg11.dtd">
<!-- Generated by graphviz version 2.36.0 (20140111.2315)
 -->
<!-- Title: gui.TopMenu.createDisplayMenuItems Pages: 1 -->
<svg width="712pt" height="131pt"
 viewBox="0.00 0.00 712.00 131.00" xmlns="http://www.w3.org/2000/svg" xmlns:xlink="http://www.w3.org/1999/xlink">
<g id="graph0" class="graph" transform="scale(1 1) rotate(0) translate(4 127)">
<title>gui.TopMenu.createDisplayMenuItems</title>
<polygon fill="white" stroke="none" points="-4,4 -4,-127 708,-127 708,4 -4,4"/>
<!-- Node1 -->
<g id="node1" class="node"><title>Node1</title>
<polygon fill="#bfbfbf" stroke="black" points="0,-60 0,-90 144,-90 144,-60 0,-60"/>
<text text-anchor="start" x="8" y="-78" font-family="Helvetica,sans-Serif" font-size="10.00">gui.TopMenu.createDisplay</text>
<text text-anchor="middle" x="72" y="-67" font-family="Helvetica,sans-Serif" font-size="10.00">MenuItems</text>
</g>
<!-- Node2 -->
<g id="node2" class="node"><title>Node2</title>
<g id="a_node2"><a xlink:href="../../d1/d68/classbackend_1_1_grid.html#ac089ef72a1531ec8e0cf131de056d0b2" target="_top" xlink:title="backend.Grid.getAllTurtles">
<polygon fill="white" stroke="black" points="188,-103.5 188,-122.5 328,-122.5 328,-103.5 188,-103.5"/>
<text text-anchor="middle" x="258" y="-110.5" font-family="Helvetica,sans-Serif" font-size="10.00">backend.Grid.getAllTurtles</text>
</a>
</g>
</g>
<!-- Node1&#45;&gt;Node2 -->
<g id="edge1" class="edge"><title>Node1&#45;&gt;Node2</title>
<path fill="none" stroke="midnightblue" d="M144.139,-89.6918C162.822,-93.5502 182.716,-97.6587 200.515,-101.335"/>
<polygon fill="midnightblue" stroke="midnightblue" points="200.226,-104.849 210.728,-103.444 201.642,-97.9935 200.226,-104.849"/>
</g>
<!-- Node3 -->
<g id="node3" class="node"><title>Node3</title>
<g id="a_node3"><a xlink:href="../../d3/dac/classbackend_1_1_model.html#a341c789b1a3e0bf796fb626603928e95" target="_top" xlink:title="backend.Model.getGrid">
<polygon fill="white" stroke="black" points="194.5,-65.5 194.5,-84.5 321.5,-84.5 321.5,-65.5 194.5,-65.5"/>
<text text-anchor="middle" x="258" y="-72.5" font-family="Helvetica,sans-Serif" font-size="10.00">backend.Model.getGrid</text>
</a>
</g>
</g>
<!-- Node1&#45;&gt;Node3 -->
<g id="edge2" class="edge"><title>Node1&#45;&gt;Node3</title>
<path fill="none" stroke="midnightblue" d="M144.139,-75C157.355,-75 171.178,-75 184.436,-75"/>
<polygon fill="midnightblue" stroke="midnightblue" points="184.445,-78.5001 194.445,-75 184.445,-71.5001 184.445,-78.5001"/>
</g>
<!-- Node4 -->
<g id="node4" class="node"><title>Node4</title>
<g id="a_node4"><a xlink:href="../../dd/d24/classgui_1_1_top_menu.html#a064cbee3d706b9ccb27b5df43f3e4482" target="_top" xlink:title="gui.TopMenu.openColorPicker">
<polygon fill="white" stroke="black" points="180,-27.5 180,-46.5 336,-46.5 336,-27.5 180,-27.5"/>
<text text-anchor="middle" x="258" y="-34.5" font-family="Helvetica,sans-Serif" font-size="10.00">gui.TopMenu.openColorPicker</text>
</a>
</g>
</g>
<!-- Node1&#45;&gt;Node4 -->
<g id="edge3" class="edge"><title>Node1&#45;&gt;Node4</title>
<path fill="none" stroke="midnightblue" d="M144.139,-60.3082C162.822,-56.4498 182.716,-52.3413 200.515,-48.6654"/>
<polygon fill="midnightblue" stroke="midnightblue" points="201.642,-52.0065 210.728,-46.5562 200.226,-45.1512 201.642,-52.0065"/>
</g>
<!-- Node5 -->
<g id="node5" class="node"><title>Node5</title>
<g id="a_node5"><a xlink:href="../../d1/d13/classgui_1_1_color_picking_screen.html#abbcb8f5c4fde57b70c6163c7110a7471" target="_top" xlink:title="gui.ColorPickingScreen.start">
<polygon fill="white" stroke="black" points="372.5,-49.5 372.5,-68.5 523.5,-68.5 523.5,-49.5 372.5,-49.5"/>
<text text-anchor="middle" x="448" y="-56.5" font-family="Helvetica,sans-Serif" font-size="10.00">gui.ColorPickingScreen.start</text>
</a>
</g>
</g>
<!-- Node4&#45;&gt;Node5 -->
<g id="edge4" class="edge"><title>Node4&#45;&gt;Node5</title>
<path fill="none" stroke="midnightblue" d="M336.009,-46.0117C344.61,-47.0181 353.406,-48.0475 362.098,-49.0647"/>
<polygon fill="midnightblue" stroke="midnightblue" points="361.896,-52.5649 372.235,-50.2509 362.71,-45.6123 361.896,-52.5649"/>
</g>
<!-- Node7 -->
<g id="node7" class="node"><title>Node7</title>
<g id="a_node7"><a xlink:href="../../d1/d13/classgui_1_1_color_picking_screen.html#ab17b04bb72d930e22dc7866650df2cd5" target="_top" xlink:title="gui.ColorPickingScreen.get\lColor">
<polygon fill="white" stroke="black" points="376,-0 376,-30 520,-30 520,-0 376,-0"/>
<text text-anchor="start" x="384" y="-18" font-family="Helvetica,sans-Serif" font-size="10.00">gui.ColorPickingScreen.get</text>
<text text-anchor="middle" x="448" y="-7" font-family="Helvetica,sans-Serif" font-size="10.00">Color</text>
</a>
</g>
</g>
<!-- Node4&#45;&gt;Node7 -->
<g id="edge6" class="edge"><title>Node4&#45;&gt;Node7</title>
<path fill="none" stroke="midnightblue" d="M336.009,-27.9883C345.793,-26.8434 355.831,-25.6687 365.68,-24.5162"/>
<polygon fill="midnightblue" stroke="midnightblue" points="366.331,-27.964 375.856,-23.3253 365.517,-21.0114 366.331,-27.964"/>
</g>
<!-- Node6 -->
<g id="node6" class="node"><title>Node6</title>
<g id="a_node6"><a xlink:href="../../d1/d13/classgui_1_1_color_picking_screen.html#a028a68b11c04d1e8e179403c50321f6b" target="_top" xlink:title="gui.ColorPickingScreen.set\lColor">
<polygon fill="white" stroke="black" points="560.5,-44 560.5,-74 703.5,-74 703.5,-44 560.5,-44"/>
<text text-anchor="start" x="568.5" y="-62" font-family="Helvetica,sans-Serif" font-size="10.00">gui.ColorPickingScreen.set</text>
<text text-anchor="middle" x="632" y="-51" font-family="Helvetica,sans-Serif" font-size="10.00">Color</text>
</a>
</g>
</g>
<!-- Node5&#45;&gt;Node6 -->
<g id="edge5" class="edge"><title>Node5&#45;&gt;Node6</title>
<path fill="none" stroke="midnightblue" d="M523.551,-59C532.301,-59 541.26,-59 550.09,-59"/>
<polygon fill="midnightblue" stroke="midnightblue" points="550.378,-62.5001 560.378,-59 550.378,-55.5001 550.378,-62.5001"/>
</g>
</g>
</svg>
