<?xml version="1.0" encoding="UTF-8" standalone="no"?>
<!DOCTYPE svg PUBLIC "-//W3C//DTD SVG 1.1//EN"
 "http://www.w3.org/Graphics/SVG/1.1/DTD/svg11.dtd">
<!-- Generated by graphviz version 2.36.0 (20140111.2315)
 -->
<!-- Title: gui.TopMenu.addMenuBar Pages: 1 -->
<svg width="1142pt" height="241pt"
 viewBox="0.00 0.00 1142.00 241.00" xmlns="http://www.w3.org/2000/svg" xmlns:xlink="http://www.w3.org/1999/xlink">
<g id="graph0" class="graph" transform="scale(1 1) rotate(0) translate(4 237)">
<title>gui.TopMenu.addMenuBar</title>
<polygon fill="white" stroke="none" points="-4,4 -4,-237 1138,-237 1138,4 -4,4"/>
<!-- Node1 -->
<g id="node1" class="node"><title>Node1</title>
<polygon fill="#bfbfbf" stroke="black" points="0,-78.5 0,-97.5 140,-97.5 140,-78.5 0,-78.5"/>
<text text-anchor="middle" x="70" y="-85.5" font-family="Helvetica,sans-Serif" font-size="10.00">gui.TopMenu.addMenuBar</text>
</g>
<!-- Node2 -->
<g id="node2" class="node"><title>Node2</title>
<g id="a_node2"><a xlink:href="../../dd/d24/classgui_1_1_top_menu.html#a0b9572d259c88a1222bf672e6c9f03d3" target="_top" xlink:title="gui.TopMenu.createDisplay\lMenuItems">
<polygon fill="white" stroke="black" points="183,-154 183,-184 327,-184 327,-154 183,-154"/>
<text text-anchor="start" x="191" y="-172" font-family="Helvetica,sans-Serif" font-size="10.00">gui.TopMenu.createDisplay</text>
<text text-anchor="middle" x="255" y="-161" font-family="Helvetica,sans-Serif" font-size="10.00">MenuItems</text>
</a>
</g>
</g>
<!-- Node1&#45;&gt;Node2 -->
<g id="edge1" class="edge"><title>Node1&#45;&gt;Node2</title>
<path fill="none" stroke="midnightblue" d="M91.0007,-97.6777C112.032,-107.773 146.151,-123.921 176,-137 185.855,-141.318 196.481,-145.795 206.624,-149.983"/>
<polygon fill="midnightblue" stroke="midnightblue" points="205.578,-153.337 216.159,-153.895 208.236,-146.861 205.578,-153.337"/>
</g>
<!-- Node9 -->
<g id="node9" class="node"><title>Node9</title>
<g id="a_node9"><a xlink:href="../../dd/d24/classgui_1_1_top_menu.html#ad230c298835163fed6e9f41a18b168cd" target="_top" xlink:title="gui.TopMenu.createFileMenu\lItems">
<polygon fill="white" stroke="black" points="179.5,-98 179.5,-128 330.5,-128 330.5,-98 179.5,-98"/>
<text text-anchor="start" x="187.5" y="-116" font-family="Helvetica,sans-Serif" font-size="10.00">gui.TopMenu.createFileMenu</text>
<text text-anchor="middle" x="255" y="-105" font-family="Helvetica,sans-Serif" font-size="10.00">Items</text>
</a>
</g>
</g>
<!-- Node1&#45;&gt;Node9 -->
<g id="edge8" class="edge"><title>Node1&#45;&gt;Node9</title>
<path fill="none" stroke="midnightblue" d="M140.184,-97.4514C149.65,-98.7445 159.454,-100.084 169.158,-101.41"/>
<polygon fill="midnightblue" stroke="midnightblue" points="168.835,-104.898 179.216,-102.784 169.782,-97.9622 168.835,-104.898"/>
</g>
<!-- Node12 -->
<g id="node12" class="node"><title>Node12</title>
<g id="a_node12"><a xlink:href="../../dd/d24/classgui_1_1_top_menu.html#aaf42643020d6c4e3436996cb810d4261" target="_top" xlink:title="gui.TopMenu.createHelpMenu\lItems">
<polygon fill="white" stroke="black" points="176,-49 176,-79 334,-79 334,-49 176,-49"/>
<text text-anchor="start" x="184" y="-67" font-family="Helvetica,sans-Serif" font-size="10.00">gui.TopMenu.createHelpMenu</text>
<text text-anchor="middle" x="255" y="-56" font-family="Helvetica,sans-Serif" font-size="10.00">Items</text>
</a>
</g>
</g>
<!-- Node1&#45;&gt;Node12 -->
<g id="edge11" class="edge"><title>Node1&#45;&gt;Node12</title>
<path fill="none" stroke="midnightblue" d="M140.184,-78.9266C148.551,-77.8294 157.182,-76.6975 165.774,-75.5706"/>
<polygon fill="midnightblue" stroke="midnightblue" points="166.366,-79.0231 175.825,-74.2524 165.455,-72.0825 166.366,-79.0231"/>
</g>
<!-- Node13 -->
<g id="node13" class="node"><title>Node13</title>
<g id="a_node13"><a xlink:href="../../dd/d24/classgui_1_1_top_menu.html#aa9f461ca1d36369a75efbb935391e413" target="_top" xlink:title="gui.TopMenu.createLanguage\lMenuItems">
<polygon fill="white" stroke="black" points="176.5,-0 176.5,-30 333.5,-30 333.5,-0 176.5,-0"/>
<text text-anchor="start" x="184.5" y="-18" font-family="Helvetica,sans-Serif" font-size="10.00">gui.TopMenu.createLanguage</text>
<text text-anchor="middle" x="255" y="-7" font-family="Helvetica,sans-Serif" font-size="10.00">MenuItems</text>
</a>
</g>
</g>
<!-- Node1&#45;&gt;Node13 -->
<g id="edge12" class="edge"><title>Node1&#45;&gt;Node13</title>
<path fill="none" stroke="midnightblue" d="M89.6285,-78.3485C110.36,-67.8352 145.025,-50.9273 176,-39 181.123,-37.0271 186.483,-35.1017 191.89,-33.2544"/>
<polygon fill="midnightblue" stroke="midnightblue" points="193.244,-36.4927 201.632,-30.0205 191.039,-29.8492 193.244,-36.4927"/>
</g>
<!-- Node3 -->
<g id="node3" class="node"><title>Node3</title>
<g id="a_node3"><a xlink:href="../../d3/dac/classbackend_1_1_model.html#a341c789b1a3e0bf796fb626603928e95" target="_top" xlink:title="backend.Model.getGrid">
<polygon fill="white" stroke="black" points="384.5,-213.5 384.5,-232.5 511.5,-232.5 511.5,-213.5 384.5,-213.5"/>
<text text-anchor="middle" x="448" y="-220.5" font-family="Helvetica,sans-Serif" font-size="10.00">backend.Model.getGrid</text>
</a>
</g>
</g>
<!-- Node2&#45;&gt;Node3 -->
<g id="edge2" class="edge"><title>Node2&#45;&gt;Node3</title>
<path fill="none" stroke="midnightblue" d="M302.972,-184.068C323.477,-190.479 347.851,-197.872 370,-204 378.581,-206.374 387.74,-208.761 396.638,-211.003"/>
<polygon fill="midnightblue" stroke="midnightblue" points="395.978,-214.445 406.527,-213.464 397.668,-207.653 395.978,-214.445"/>
</g>
<!-- Node4 -->
<g id="node4" class="node"><title>Node4</title>
<g id="a_node4"><a xlink:href="../../d1/d68/classbackend_1_1_grid.html#ac089ef72a1531ec8e0cf131de056d0b2" target="_top" xlink:title="backend.Grid.getAllTurtles">
<polygon fill="white" stroke="black" points="378,-175.5 378,-194.5 518,-194.5 518,-175.5 378,-175.5"/>
<text text-anchor="middle" x="448" y="-182.5" font-family="Helvetica,sans-Serif" font-size="10.00">backend.Grid.getAllTurtles</text>
</a>
</g>
</g>
<!-- Node2&#45;&gt;Node4 -->
<g id="edge3" class="edge"><title>Node2&#45;&gt;Node4</title>
<path fill="none" stroke="midnightblue" d="M327.121,-174.958C340.306,-176.062 354.156,-177.222 367.569,-178.346"/>
<polygon fill="midnightblue" stroke="midnightblue" points="367.467,-181.85 377.724,-179.197 368.051,-174.874 367.467,-181.85"/>
</g>
<!-- Node5 -->
<g id="node5" class="node"><title>Node5</title>
<g id="a_node5"><a xlink:href="../../dd/d24/classgui_1_1_top_menu.html#a064cbee3d706b9ccb27b5df43f3e4482" target="_top" xlink:title="gui.TopMenu.openColorPicker">
<polygon fill="white" stroke="black" points="370,-137.5 370,-156.5 526,-156.5 526,-137.5 370,-137.5"/>
<text text-anchor="middle" x="448" y="-144.5" font-family="Helvetica,sans-Serif" font-size="10.00">gui.TopMenu.openColorPicker</text>
</a>
</g>
</g>
<!-- Node2&#45;&gt;Node5 -->
<g id="edge4" class="edge"><title>Node2&#45;&gt;Node5</title>
<path fill="none" stroke="midnightblue" d="M327.121,-160.808C337.759,-159.583 348.829,-158.308 359.754,-157.049"/>
<polygon fill="midnightblue" stroke="midnightblue" points="360.196,-160.522 369.73,-155.9 359.395,-153.568 360.196,-160.522"/>
</g>
<!-- Node6 -->
<g id="node6" class="node"><title>Node6</title>
<g id="a_node6"><a xlink:href="../../d1/d13/classgui_1_1_color_picking_screen.html#abbcb8f5c4fde57b70c6163c7110a7471" target="_top" xlink:title="gui.ColorPickingScreen.start">
<polygon fill="white" stroke="black" points="565.5,-181.5 565.5,-200.5 716.5,-200.5 716.5,-181.5 565.5,-181.5"/>
<text text-anchor="middle" x="641" y="-188.5" font-family="Helvetica,sans-Serif" font-size="10.00">gui.ColorPickingScreen.start</text>
</a>
</g>
</g>
<!-- Node5&#45;&gt;Node6 -->
<g id="edge5" class="edge"><title>Node5&#45;&gt;Node6</title>
<path fill="none" stroke="midnightblue" d="M490.444,-156.547C519.227,-163.178 557.779,-172.059 588.532,-179.143"/>
<polygon fill="midnightblue" stroke="midnightblue" points="588.106,-182.637 598.637,-181.471 589.678,-175.816 588.106,-182.637"/>
</g>
<!-- Node8 -->
<g id="node8" class="node"><title>Node8</title>
<g id="a_node8"><a xlink:href="../../d1/d13/classgui_1_1_color_picking_screen.html#ab17b04bb72d930e22dc7866650df2cd5" target="_top" xlink:title="gui.ColorPickingScreen.get\lColor">
<polygon fill="white" stroke="black" points="569,-132 569,-162 713,-162 713,-132 569,-132"/>
<text text-anchor="start" x="577" y="-150" font-family="Helvetica,sans-Serif" font-size="10.00">gui.ColorPickingScreen.get</text>
<text text-anchor="middle" x="641" y="-139" font-family="Helvetica,sans-Serif" font-size="10.00">Color</text>
</a>
</g>
</g>
<!-- Node5&#45;&gt;Node8 -->
<g id="edge7" class="edge"><title>Node5&#45;&gt;Node8</title>
<path fill="none" stroke="midnightblue" d="M526.136,-147C536.807,-147 547.795,-147 558.541,-147"/>
<polygon fill="midnightblue" stroke="midnightblue" points="558.751,-150.5 568.751,-147 558.751,-143.5 558.751,-150.5"/>
</g>
<!-- Node7 -->
<g id="node7" class="node"><title>Node7</title>
<g id="a_node7"><a xlink:href="../../d1/d13/classgui_1_1_color_picking_screen.html#a028a68b11c04d1e8e179403c50321f6b" target="_top" xlink:title="gui.ColorPickingScreen.set\lColor">
<polygon fill="white" stroke="black" points="780.5,-176 780.5,-206 923.5,-206 923.5,-176 780.5,-176"/>
<text text-anchor="start" x="788.5" y="-194" font-family="Helvetica,sans-Serif" font-size="10.00">gui.ColorPickingScreen.set</text>
<text text-anchor="middle" x="852" y="-183" font-family="Helvetica,sans-Serif" font-size="10.00">Color</text>
</a>
</g>
</g>
<!-- Node6&#45;&gt;Node7 -->
<g id="edge6" class="edge"><title>Node6&#45;&gt;Node7</title>
<path fill="none" stroke="midnightblue" d="M716.569,-191C733.914,-191 752.461,-191 770.067,-191"/>
<polygon fill="midnightblue" stroke="midnightblue" points="770.308,-194.5 780.308,-191 770.308,-187.5 770.308,-194.5"/>
</g>
<!-- Node10 -->
<g id="node10" class="node"><title>Node10</title>
<g id="a_node10"><a xlink:href="../../d5/d23/classgui_1_1_tab_panel.html#adf5298f1b0589f5c363b667b7155e87b" target="_top" xlink:title="gui.TabPanel.makeNewTab">
<polygon fill="white" stroke="black" points="377.5,-96.5 377.5,-115.5 518.5,-115.5 518.5,-96.5 377.5,-96.5"/>
<text text-anchor="middle" x="448" y="-103.5" font-family="Helvetica,sans-Serif" font-size="10.00">gui.TabPanel.makeNewTab</text>
</a>
</g>
</g>
<!-- Node9&#45;&gt;Node10 -->
<g id="edge9" class="edge"><title>Node9&#45;&gt;Node10</title>
<path fill="none" stroke="midnightblue" d="M330.666,-110.264C342.682,-109.823 355.161,-109.366 367.29,-108.921"/>
<polygon fill="midnightblue" stroke="midnightblue" points="367.513,-112.416 377.378,-108.552 367.257,-105.42 367.513,-112.416"/>
</g>
<!-- Node11 -->
<g id="node11" class="node"><title>Node11</title>
<g id="a_node11"><a xlink:href="../../df/dc3/classgui_1_1_main.html#ad9b02558bc225d0ee0bf37fb04d5c4b6" target="_top" xlink:title="gui.Main.setActiveTab">
<polygon fill="white" stroke="black" points="581.5,-93.5 581.5,-112.5 700.5,-112.5 700.5,-93.5 581.5,-93.5"/>
<text text-anchor="middle" x="641" y="-100.5" font-family="Helvetica,sans-Serif" font-size="10.00">gui.Main.setActiveTab</text>
</a>
</g>
</g>
<!-- Node10&#45;&gt;Node11 -->
<g id="edge10" class="edge"><title>Node10&#45;&gt;Node11</title>
<path fill="none" stroke="midnightblue" d="M518.766,-104.904C535.798,-104.637 554.011,-104.351 571.007,-104.084"/>
<polygon fill="midnightblue" stroke="midnightblue" points="571.467,-107.577 581.41,-103.92 571.357,-100.578 571.467,-107.577"/>
</g>
<!-- Node14 -->
<g id="node14" class="node"><title>Node14</title>
<g id="a_node14"><a xlink:href="../../d3/dac/classbackend_1_1_model.html#af35843b86c053f153827af5c7387eda6" target="_top" xlink:title="backend.Model.setLanguage">
<polygon fill="white" stroke="black" points="371,-5.5 371,-24.5 525,-24.5 525,-5.5 371,-5.5"/>
<text text-anchor="middle" x="448" y="-12.5" font-family="Helvetica,sans-Serif" font-size="10.00">backend.Model.setLanguage</text>
</a>
</g>
</g>
<!-- Node13&#45;&gt;Node14 -->
<g id="edge13" class="edge"><title>Node13&#45;&gt;Node14</title>
<path fill="none" stroke="midnightblue" d="M333.687,-15C342.617,-15 351.762,-15 360.795,-15"/>
<polygon fill="midnightblue" stroke="midnightblue" points="360.929,-18.5001 370.929,-15 360.929,-11.5001 360.929,-18.5001"/>
</g>
<!-- Node15 -->
<g id="node15" class="node"><title>Node15</title>
<g id="a_node15"><a xlink:href="../../da/d26/classbackend_1_1_s_logo_parser.html#a83c48627f6266e49569fe3300cb464fd" target="_top" xlink:title="backend.SLogoParser.change\lLanguage">
<polygon fill="white" stroke="black" points="562,-0 562,-30 720,-30 720,-0 562,-0"/>
<text text-anchor="start" x="570" y="-18" font-family="Helvetica,sans-Serif" font-size="10.00">backend.SLogoParser.change</text>
<text text-anchor="middle" x="641" y="-7" font-family="Helvetica,sans-Serif" font-size="10.00">Language</text>
</a>
</g>
</g>
<!-- Node14&#45;&gt;Node15 -->
<g id="edge14" class="edge"><title>Node14&#45;&gt;Node15</title>
<path fill="none" stroke="midnightblue" d="M525.037,-15C533.805,-15 542.801,-15 551.713,-15"/>
<polygon fill="midnightblue" stroke="midnightblue" points="551.723,-18.5001 561.723,-15 551.723,-11.5001 551.723,-18.5001"/>
</g>
<!-- Node16 -->
<g id="node16" class="node"><title>Node16</title>
<g id="a_node16"><a xlink:href="../../da/d26/classbackend_1_1_s_logo_parser.html#a82d15a04544ef7a74f5108c32efe777c" target="_top" xlink:title="backend.SLogoParser.genPatternList">
<polygon fill="white" stroke="black" points="756.5,-5.5 756.5,-24.5 947.5,-24.5 947.5,-5.5 756.5,-5.5"/>
<text text-anchor="middle" x="852" y="-12.5" font-family="Helvetica,sans-Serif" font-size="10.00">backend.SLogoParser.genPatternList</text>
</a>
</g>
</g>
<!-- Node15&#45;&gt;Node16 -->
<g id="edge15" class="edge"><title>Node15&#45;&gt;Node16</title>
<path fill="none" stroke="midnightblue" d="M720.121,-15C728.621,-15 737.371,-15 746.123,-15"/>
<polygon fill="midnightblue" stroke="midnightblue" points="746.385,-18.5001 756.385,-15 746.385,-11.5001 746.385,-18.5001"/>
</g>
<!-- Node17 -->
<g id="node17" class="node"><title>Node17</title>
<g id="a_node17"><a xlink:href="../../da/d26/classbackend_1_1_s_logo_parser.html#a4c0e26367900e18f0f12c0d3382927c3" target="_top" xlink:title="backend.SLogoParser.make\lPatterns">
<polygon fill="white" stroke="black" points="984.5,-0 984.5,-30 1133.5,-30 1133.5,-0 984.5,-0"/>
<text text-anchor="start" x="992.5" y="-18" font-family="Helvetica,sans-Serif" font-size="10.00">backend.SLogoParser.make</text>
<text text-anchor="middle" x="1059" y="-7" font-family="Helvetica,sans-Serif" font-size="10.00">Patterns</text>
</a>
</g>
</g>
<!-- Node16&#45;&gt;Node17 -->
<g id="edge16" class="edge"><title>Node16&#45;&gt;Node17</title>
<path fill="none" stroke="midnightblue" d="M947.699,-15C956.521,-15 965.421,-15 974.135,-15"/>
<polygon fill="midnightblue" stroke="midnightblue" points="974.263,-18.5001 984.263,-15 974.263,-11.5001 974.263,-18.5001"/>
</g>
</g>
</svg>
