<?xml version="1.0" encoding="UTF-8" standalone="no"?>
<!DOCTYPE svg PUBLIC "-//W3C//DTD SVG 1.1//EN"
 "http://www.w3.org/Graphics/SVG/1.1/DTD/svg11.dtd">
<!-- Generated by graphviz version 2.36.0 (20140111.2315)
 -->
<!-- Title: gui.TopMenu.openColorPicker Pages: 1 -->
<svg width="678pt" height="38pt"
 viewBox="0.00 0.00 678.00 38.00" xmlns="http://www.w3.org/2000/svg" xmlns:xlink="http://www.w3.org/1999/xlink">
<g id="graph0" class="graph" transform="scale(1 1) rotate(0) translate(4 34)">
<title>gui.TopMenu.openColorPicker</title>
<polygon fill="white" stroke="none" points="-4,4 -4,-34 674,-34 674,4 -4,4"/>
<!-- Node1 -->
<g id="node1" class="node"><title>Node1</title>
<polygon fill="#bfbfbf" stroke="black" points="0,-5.5 0,-24.5 156,-24.5 156,-5.5 0,-5.5"/>
<text text-anchor="middle" x="78" y="-12.5" font-family="Helvetica,sans-Serif" font-size="10.00">gui.TopMenu.openColorPicker</text>
</g>
<!-- Node2 -->
<g id="node2" class="node"><title>Node2</title>
<g id="a_node2"><a xlink:href="../../dd/d24/classgui_1_1_top_menu.html#a0b9572d259c88a1222bf672e6c9f03d3" target="_top" xlink:title="gui.TopMenu.createDisplay\lMenuItems">
<polygon fill="white" stroke="black" points="192,-0 192,-30 336,-30 336,-0 192,-0"/>
<text text-anchor="start" x="200" y="-18" font-family="Helvetica,sans-Serif" font-size="10.00">gui.TopMenu.createDisplay</text>
<text text-anchor="middle" x="264" y="-7" font-family="Helvetica,sans-Serif" font-size="10.00">MenuItems</text>
</a>
</g>
</g>
<!-- Node1&#45;&gt;Node2 -->
<g id="edge1" class="edge"><title>Node1&#45;&gt;Node2</title>
<path fill="none" stroke="midnightblue" d="M166.252,-15C174.823,-15 183.449,-15 191.832,-15"/>
<polygon fill="midnightblue" stroke="midnightblue" points="166.233,-11.5001 156.233,-15 166.233,-18.5001 166.233,-11.5001"/>
</g>
<!-- Node3 -->
<g id="node3" class="node"><title>Node3</title>
<g id="a_node3"><a xlink:href="../../dd/d24/classgui_1_1_top_menu.html#a2b756e05f495e2d1a4f7ea156ae612d2" target="_top" xlink:title="gui.TopMenu.addMenuBar">
<polygon fill="white" stroke="black" points="372,-5.5 372,-24.5 512,-24.5 512,-5.5 372,-5.5"/>
<text text-anchor="middle" x="442" y="-12.5" font-family="Helvetica,sans-Serif" font-size="10.00">gui.TopMenu.addMenuBar</text>
</a>
</g>
</g>
<!-- Node2&#45;&gt;Node3 -->
<g id="edge2" class="edge"><title>Node2&#45;&gt;Node3</title>
<path fill="none" stroke="midnightblue" d="M346.141,-15C354.764,-15 363.475,-15 371.941,-15"/>
<polygon fill="midnightblue" stroke="midnightblue" points="346.079,-11.5001 336.079,-15 346.079,-18.5001 346.079,-11.5001"/>
</g>
<!-- Node4 -->
<g id="node4" class="node"><title>Node4</title>
<g id="a_node4"><a xlink:href="../../dd/d24/classgui_1_1_top_menu.html#a842402ab5dfa877cfac4e5677809675a" target="_top" xlink:title="gui.TopMenu.TopMenu">
<polygon fill="white" stroke="black" points="548.5,-5.5 548.5,-24.5 669.5,-24.5 669.5,-5.5 548.5,-5.5"/>
<text text-anchor="middle" x="609" y="-12.5" font-family="Helvetica,sans-Serif" font-size="10.00">gui.TopMenu.TopMenu</text>
</a>
</g>
</g>
<!-- Node3&#45;&gt;Node4 -->
<g id="edge3" class="edge"><title>Node3&#45;&gt;Node4</title>
<path fill="none" stroke="midnightblue" d="M522.297,-15C531.092,-15 539.936,-15 548.428,-15"/>
<polygon fill="midnightblue" stroke="midnightblue" points="522.019,-11.5001 512.019,-15 522.019,-18.5001 522.019,-11.5001"/>
</g>
</g>
</svg>
