<?xml version="1.0" encoding="UTF-8" standalone="no"?>
<!DOCTYPE svg PUBLIC "-//W3C//DTD SVG 1.1//EN"
 "http://www.w3.org/Graphics/SVG/1.1/DTD/svg11.dtd">
<!-- Generated by graphviz version 2.36.0 (20140111.2315)
 -->
<!-- Title: gui.TopMenu.createDisplayMenuItems Pages: 1 -->
<!--zoomable 131 -->
<svg id="main" version="1.1" xmlns="http://www.w3.org/2000/svg" xmlns:xlink="http://www.w3.org/1999/xlink" xml:space="preserve" onload="init(evt)">
<style type="text/css"><![CDATA[
.edge:hover path { stroke: red; }
.edge:hover polygon { stroke: red; fill: red; }
]]></style>
<script type="text/javascript"><![CDATA[
var edges = document.getElementsByTagName('g');
if (edges && edges.length) {
  for (var i=0;i<edges.length;i++) {
    if (edges[i].id.substr(0,4)=='edge') {
      edges[i].setAttribute('class','edge');
    }
  }
}
]]></script>
        <defs>
                <circle id="rim" cx="0" cy="0" r="7"/>
                <circle id="rim2" cx="0" cy="0" r="3.5"/>
                <g id="zoomPlus">
                        <use xlink:href="#rim" fill="#404040">
                                <set attributeName="fill" to="#808080" begin="zoomplus.mouseover" end="zoomplus.mouseout"/>
                        </use>
                        <path d="M-4,0h8M0,-4v8" fill="none" stroke="white" stroke-width="1.5" pointer-events="none"/>
                </g>
                <g id="zoomMin">
                        <use xlink:href="#rim" fill="#404040">
                                <set attributeName="fill" to="#808080" begin="zoomminus.mouseover" end="zoomminus.mouseout"/>
                        </use>
                        <path d="M-4,0h8" fill="none" stroke="white" stroke-width="1.5" pointer-events="none"/>
                </g>
                <g id="dirArrow">
                        <path fill="none" stroke="white" stroke-width="1.5" d="M0,-3.0v7 M-2.5,-0.5L0,-3.0L2.5,-0.5"/>
                </g>
               <g id="resetDef">
                       <use xlink:href="#rim2" fill="#404040">
                               <set attributeName="fill" to="#808080" begin="reset.mouseover" end="reset.mouseout"/>
                       </use>
               </g>
        </defs>

<script type="text/javascript">
var viewWidth = 712;
var viewHeight = 131;
var sectionId = 'dynsection-5';
</script>
<script xlink:href="../../svgpan.js"/>
<svg id="graph" class="graph">
<g id="viewport">
<title>gui.TopMenu.createDisplayMenuItems</title>
<polygon fill="white" stroke="none" points="-4,4 -4,-127 708,-127 708,4 -4,4"/>
<!-- Node1 -->
<g id="node1" class="node"><title>Node1</title>
<polygon fill="#bfbfbf" stroke="black" points="0,-60 0,-90 144,-90 144,-60 0,-60"/>
<text text-anchor="start" x="8" y="-78" font-family="Helvetica,sans-Serif" font-size="10.00">gui.TopMenu.createDisplay</text>
<text text-anchor="middle" x="72" y="-67" font-family="Helvetica,sans-Serif" font-size="10.00">MenuItems</text>
</g>
<!-- Node2 -->
<g id="node2" class="node"><title>Node2</title>
<g id="a_node2"><a xlink:href="../../d1/d68/classbackend_1_1_grid.html#ac089ef72a1531ec8e0cf131de056d0b2" target="_top" xlink:title="backend.Grid.getAllTurtles">
<polygon fill="white" stroke="black" points="188,-103.5 188,-122.5 328,-122.5 328,-103.5 188,-103.5"/>
<text text-anchor="middle" x="258" y="-110.5" font-family="Helvetica,sans-Serif" font-size="10.00">backend.Grid.getAllTurtles</text>
</a>
</g>
</g>
<!-- Node1&#45;&gt;Node2 -->
<g id="edge1" class="edge"><title>Node1&#45;&gt;Node2</title>
<path fill="none" stroke="midnightblue" d="M144.139,-89.6918C162.822,-93.5502 182.716,-97.6587 200.515,-101.335"/>
<polygon fill="midnightblue" stroke="midnightblue" points="200.226,-104.849 210.728,-103.444 201.642,-97.9935 200.226,-104.849"/>
</g>
<!-- Node3 -->
<g id="node3" class="node"><title>Node3</title>
<g id="a_node3"><a xlink:href="../../d3/dac/classbackend_1_1_model.html#a341c789b1a3e0bf796fb626603928e95" target="_top" xlink:title="backend.Model.getGrid">
<polygon fill="white" stroke="black" points="194.5,-65.5 194.5,-84.5 321.5,-84.5 321.5,-65.5 194.5,-65.5"/>
<text text-anchor="middle" x="258" y="-72.5" font-family="Helvetica,sans-Serif" font-size="10.00">backend.Model.getGrid</text>
</a>
</g>
</g>
<!-- Node1&#45;&gt;Node3 -->
<g id="edge2" class="edge"><title>Node1&#45;&gt;Node3</title>
<path fill="none" stroke="midnightblue" d="M144.139,-75C157.355,-75 171.178,-75 184.436,-75"/>
<polygon fill="midnightblue" stroke="midnightblue" points="184.445,-78.5001 194.445,-75 184.445,-71.5001 184.445,-78.5001"/>
</g>
<!-- Node4 -->
<g id="node4" class="node"><title>Node4</title>
<g id="a_node4"><a xlink:href="../../dd/d24/classgui_1_1_top_menu.html#a064cbee3d706b9ccb27b5df43f3e4482" target="_top" xlink:title="gui.TopMenu.openColorPicker">
<polygon fill="white" stroke="black" points="180,-27.5 180,-46.5 336,-46.5 336,-27.5 180,-27.5"/>
<text text-anchor="middle" x="258" y="-34.5" font-family="Helvetica,sans-Serif" font-size="10.00">gui.TopMenu.openColorPicker</text>
</a>
</g>
</g>
<!-- Node1&#45;&gt;Node4 -->
<g id="edge3" class="edge"><title>Node1&#45;&gt;Node4</title>
<path fill="none" stroke="midnightblue" d="M144.139,-60.3082C162.822,-56.4498 182.716,-52.3413 200.515,-48.6654"/>
<polygon fill="midnightblue" stroke="midnightblue" points="201.642,-52.0065 210.728,-46.5562 200.226,-45.1512 201.642,-52.0065"/>
</g>
<!-- Node5 -->
<g id="node5" class="node"><title>Node5</title>
<g id="a_node5"><a xlink:href="../../d1/d13/classgui_1_1_color_picking_screen.html#abbcb8f5c4fde57b70c6163c7110a7471" target="_top" xlink:title="gui.ColorPickingScreen.start">
<polygon fill="white" stroke="black" points="372.5,-49.5 372.5,-68.5 523.5,-68.5 523.5,-49.5 372.5,-49.5"/>
<text text-anchor="middle" x="448" y="-56.5" font-family="Helvetica,sans-Serif" font-size="10.00">gui.ColorPickingScreen.start</text>
</a>
</g>
</g>
<!-- Node4&#45;&gt;Node5 -->
<g id="edge4" class="edge"><title>Node4&#45;&gt;Node5</title>
<path fill="none" stroke="midnightblue" d="M336.009,-46.0117C344.61,-47.0181 353.406,-48.0475 362.098,-49.0647"/>
<polygon fill="midnightblue" stroke="midnightblue" points="361.896,-52.5649 372.235,-50.2509 362.71,-45.6123 361.896,-52.5649"/>
</g>
<!-- Node7 -->
<g id="node7" class="node"><title>Node7</title>
<g id="a_node7"><a xlink:href="../../d1/d13/classgui_1_1_color_picking_screen.html#ab17b04bb72d930e22dc7866650df2cd5" target="_top" xlink:title="gui.ColorPickingScreen.get\lColor">
<polygon fill="white" stroke="black" points="376,-0 376,-30 520,-30 520,-0 376,-0"/>
<text text-anchor="start" x="384" y="-18" font-family="Helvetica,sans-Serif" font-size="10.00">gui.ColorPickingScreen.get</text>
<text text-anchor="middle" x="448" y="-7" font-family="Helvetica,sans-Serif" font-size="10.00">Color</text>
</a>
</g>
</g>
<!-- Node4&#45;&gt;Node7 -->
<g id="edge6" class="edge"><title>Node4&#45;&gt;Node7</title>
<path fill="none" stroke="midnightblue" d="M336.009,-27.9883C345.793,-26.8434 355.831,-25.6687 365.68,-24.5162"/>
<polygon fill="midnightblue" stroke="midnightblue" points="366.331,-27.964 375.856,-23.3253 365.517,-21.0114 366.331,-27.964"/>
</g>
<!-- Node6 -->
<g id="node6" class="node"><title>Node6</title>
<g id="a_node6"><a xlink:href="../../d1/d13/classgui_1_1_color_picking_screen.html#a028a68b11c04d1e8e179403c50321f6b" target="_top" xlink:title="gui.ColorPickingScreen.set\lColor">
<polygon fill="white" stroke="black" points="560.5,-44 560.5,-74 703.5,-74 703.5,-44 560.5,-44"/>
<text text-anchor="start" x="568.5" y="-62" font-family="Helvetica,sans-Serif" font-size="10.00">gui.ColorPickingScreen.set</text>
<text text-anchor="middle" x="632" y="-51" font-family="Helvetica,sans-Serif" font-size="10.00">Color</text>
</a>
</g>
</g>
<!-- Node5&#45;&gt;Node6 -->
<g id="edge5" class="edge"><title>Node5&#45;&gt;Node6</title>
<path fill="none" stroke="midnightblue" d="M523.551,-59C532.301,-59 541.26,-59 550.09,-59"/>
<polygon fill="midnightblue" stroke="midnightblue" points="550.378,-62.5001 560.378,-59 550.378,-55.5001 550.378,-62.5001"/>
</g>
</g>
</svg>
        <g id="navigator" transform="translate(0 0)" fill="#404254">
                <rect fill="#f2f5e9" fill-opacity="0.5" stroke="#606060" stroke-width=".5" x="0" y="0" width="60" height="60"/>
                <use id="zoomplus" xlink:href="#zoomPlus" x="17" y="9" onmousedown="handleZoom(evt,'in')"/>
                <use id="zoomminus" xlink:href="#zoomMin" x="42" y="9" onmousedown="handleZoom(evt,'out')"/>
                <use id="reset" xlink:href="#resetDef" x="30" y="36" onmousedown="handleReset()"/>
                <g id="arrowUp" xlink:href="#dirArrow" transform="translate(30 24)" onmousedown="handlePan(0,-1)">
                  <use xlink:href="#rim" fill="#404040">
                        <set attributeName="fill" to="#808080" begin="arrowUp.mouseover" end="arrowUp.mouseout"/>
                  </use>
                  <path fill="none" stroke="white" stroke-width="1.5" d="M0,-3.0v7 M-2.5,-0.5L0,-3.0L2.5,-0.5"/>
                </g>
                <g id="arrowRight" xlink:href="#dirArrow" transform="rotate(90) translate(36 -43)" onmousedown="handlePan(1,0)">
                  <use xlink:href="#rim" fill="#404040">
                        <set attributeName="fill" to="#808080" begin="arrowRight.mouseover" end="arrowRight.mouseout"/>
                  </use>
                  <path fill="none" stroke="white" stroke-width="1.5" d="M0,-3.0v7 M-2.5,-0.5L0,-3.0L2.5,-0.5"/>
                </g>
                <g id="arrowDown" xlink:href="#dirArrow" transform="rotate(180) translate(-30 -48)" onmousedown="handlePan(0,1)">
                  <use xlink:href="#rim" fill="#404040">
                        <set attributeName="fill" to="#808080" begin="arrowDown.mouseover" end="arrowDown.mouseout"/>
                  </use>
                  <path fill="none" stroke="white" stroke-width="1.5" d="M0,-3.0v7 M-2.5,-0.5L0,-3.0L2.5,-0.5"/>
                </g>
                <g id="arrowLeft" xlink:href="#dirArrow" transform="rotate(270) translate(-36 17)" onmousedown="handlePan(-1,0)">
                  <use xlink:href="#rim" fill="#404040">
                        <set attributeName="fill" to="#808080" begin="arrowLeft.mouseover" end="arrowLeft.mouseout"/>
                  </use>
                  <path fill="none" stroke="white" stroke-width="1.5" d="M0,-3.0v7 M-2.5,-0.5L0,-3.0L2.5,-0.5"/>
                </g>
        </g>
        <svg viewBox="0 0 15 15" width="100%" height="30px" preserveAspectRatio="xMaxYMin meet">
         <g id="arrow_out" transform="scale(0.3 0.3)">
          <a xlink:href="classgui_1_1_top_menu_a0b9572d259c88a1222bf672e6c9f03d3_cgraph_org.svg" target="_base">
           <rect id="button" ry="5" rx="5" y="6" x="6" height="38" width="38"
                fill="#f2f5e9" fill-opacity="0.5" stroke="#606060" stroke-width="1.0"/>
           <path id="arrow"
             d="M 11.500037,31.436501 C 11.940474,20.09759 22.043105,11.32322 32.158766,21.979434 L 37.068811,17.246167 C 37.068811,17.246167 37.088388,32 37.088388,32 L 22.160133,31.978069 C 22.160133,31.978069 26.997745,27.140456 26.997745,27.140456 C 18.528582,18.264221 13.291696,25.230495 11.500037,31.436501 z"
             style="fill:#404040;"/>
          </a>
         </g>
        </svg>
</svg>
