<?xml version="1.0" encoding="UTF-8" standalone="no"?>
<!DOCTYPE svg PUBLIC "-//W3C//DTD SVG 1.1//EN"
 "http://www.w3.org/Graphics/SVG/1.1/DTD/svg11.dtd">
<!-- Generated by graphviz version 2.36.0 (20140111.2315)
 -->
<!-- Title: gui.TopMenu.createDisplayMenuItems Pages: 1 -->
<svg width="328pt" height="66pt"
 viewBox="0.00 0.00 328.00 66.00" xmlns="http://www.w3.org/2000/svg" xmlns:xlink="http://www.w3.org/1999/xlink">
<g id="graph0" class="graph" transform="scale(1 1) rotate(0) translate(4 62)">
<title>gui.TopMenu.createDisplayMenuItems</title>
<polygon fill="white" stroke="none" points="-4,4 -4,-62 324,-62 324,4 -4,4"/>
<!-- Node1 -->
<g id="node1" class="node"><title>Node1</title>
<polygon fill="#bfbfbf" stroke="black" points="0,-14 0,-44 144,-44 144,-14 0,-14"/>
<text text-anchor="start" x="8" y="-32" font-family="Helvetica,sans-Serif" font-size="10.00">gui.TopMenu.createDisplay</text>
<text text-anchor="middle" x="72" y="-21" font-family="Helvetica,sans-Serif" font-size="10.00">MenuItems</text>
</g>
<!-- Node2 -->
<g id="node2" class="node"><title>Node2</title>
<g id="a_node2"><a xlink:href="../../d1/d68/classbackend_1_1_grid.html#ac089ef72a1531ec8e0cf131de056d0b2" target="_top" xlink:title="backend.Grid.getAllTurtles">
<polygon fill="white" stroke="black" points="180,-38.5 180,-57.5 320,-57.5 320,-38.5 180,-38.5"/>
<text text-anchor="middle" x="250" y="-45.5" font-family="Helvetica,sans-Serif" font-size="10.00">backend.Grid.getAllTurtles</text>
</a>
</g>
</g>
<!-- Node1&#45;&gt;Node2 -->
<g id="edge1" class="edge"><title>Node1&#45;&gt;Node2</title>
<path fill="none" stroke="midnightblue" d="M144.079,-36.6733C152.581,-37.5912 161.303,-38.5327 169.91,-39.4619"/>
<polygon fill="midnightblue" stroke="midnightblue" points="169.623,-42.9512 179.941,-40.5448 170.375,-35.9916 169.623,-42.9512"/>
</g>
<!-- Node3 -->
<g id="node3" class="node"><title>Node3</title>
<g id="a_node3"><a xlink:href="../../d3/dac/classbackend_1_1_model.html#a341c789b1a3e0bf796fb626603928e95" target="_top" xlink:title="backend.Model.getGrid">
<polygon fill="white" stroke="black" points="186.5,-0.5 186.5,-19.5 313.5,-19.5 313.5,-0.5 186.5,-0.5"/>
<text text-anchor="middle" x="250" y="-7.5" font-family="Helvetica,sans-Serif" font-size="10.00">backend.Model.getGrid</text>
</a>
</g>
</g>
<!-- Node1&#45;&gt;Node3 -->
<g id="edge2" class="edge"><title>Node1&#45;&gt;Node3</title>
<path fill="none" stroke="midnightblue" d="M144.079,-21.3267C154.706,-20.1794 165.676,-18.9952 176.337,-17.8444"/>
<polygon fill="midnightblue" stroke="midnightblue" points="176.874,-21.3067 186.441,-16.7535 176.123,-14.3472 176.874,-21.3067"/>
</g>
</g>
</svg>
