<?xml version="1.0" encoding="UTF-8" standalone="no"?>
<!DOCTYPE svg PUBLIC "-//W3C//DTD SVG 1.1//EN"
 "http://www.w3.org/Graphics/SVG/1.1/DTD/svg11.dtd">
<!-- Generated by graphviz version 2.36.0 (20140111.2315)
 -->
<!-- Title: backend.command.SetPalette.execute Pages: 1 -->
<svg width="674pt" height="77pt"
 viewBox="0.00 0.00 674.00 77.00" xmlns="http://www.w3.org/2000/svg" xmlns:xlink="http://www.w3.org/1999/xlink">
<g id="graph0" class="graph" transform="scale(1 1) rotate(0) translate(4 73)">
<title>backend.command.SetPalette.execute</title>
<polygon fill="white" stroke="none" points="-4,4 -4,-73 670,-73 670,4 -4,4"/>
<!-- Node1 -->
<g id="node1" class="node"><title>Node1</title>
<polygon fill="#bfbfbf" stroke="black" points="0.5,-27.5 0.5,-46.5 203.5,-46.5 203.5,-27.5 0.5,-27.5"/>
<text text-anchor="middle" x="102" y="-34.5" font-family="Helvetica,sans-Serif" font-size="10.00">backend.command.SetPalette.execute</text>
</g>
<!-- Node2 -->
<g id="node2" class="node"><title>Node2</title>
<g id="a_node2"><a xlink:href="../../dc/d67/classbackend_1_1command_1_1_model_command.html#aa459b6ae4744fa0705aa08b95f7d9b0f" target="_top" xlink:title="backend.command.ModelCommand.colorMap">
<polygon fill="white" stroke="black" points="240.5,-49.5 240.5,-68.5 477.5,-68.5 477.5,-49.5 240.5,-49.5"/>
<text text-anchor="middle" x="359" y="-56.5" font-family="Helvetica,sans-Serif" font-size="10.00">backend.command.ModelCommand.colorMap</text>
</a>
</g>
</g>
<!-- Node1&#45;&gt;Node2 -->
<g id="edge1" class="edge"><title>Node1&#45;&gt;Node2</title>
<path fill="none" stroke="midnightblue" d="M203.783,-45.695C214.981,-46.6611 226.466,-47.652 237.873,-48.6361"/>
<polygon fill="midnightblue" stroke="midnightblue" points="237.604,-52.1258 247.868,-49.4984 238.206,-45.1517 237.604,-52.1258"/>
</g>
<!-- Node4 -->
<g id="node4" class="node"><title>Node4</title>
<g id="a_node4"><a xlink:href="../../dc/d83/classbackend_1_1command_1_1_command.html#ae218516ae55b1b0d4820d55c901793ea" target="_top" xlink:title="backend.command.Command.execute\lParam">
<polygon fill="white" stroke="black" points="257.5,-0 257.5,-30 460.5,-30 460.5,-0 257.5,-0"/>
<text text-anchor="start" x="265.5" y="-18" font-family="Helvetica,sans-Serif" font-size="10.00">backend.command.Command.execute</text>
<text text-anchor="middle" x="359" y="-7" font-family="Helvetica,sans-Serif" font-size="10.00">Param</text>
</a>
</g>
</g>
<!-- Node1&#45;&gt;Node4 -->
<g id="edge3" class="edge"><title>Node1&#45;&gt;Node4</title>
<path fill="none" stroke="midnightblue" d="M203.783,-28.305C217.898,-27.0873 232.47,-25.8301 246.765,-24.5968"/>
<polygon fill="midnightblue" stroke="midnightblue" points="247.452,-28.0506 257.114,-23.7039 246.85,-21.0765 247.452,-28.0506"/>
</g>
<!-- Node3 -->
<g id="node3" class="node"><title>Node3</title>
<g id="a_node3"><a xlink:href="../../d3/dac/classbackend_1_1_model.html#ae02bd05f40dd7ecd9be30847d70faf89" target="_top" xlink:title="backend.Model.getColorMap">
<polygon fill="white" stroke="black" points="514,-49.5 514,-68.5 666,-68.5 666,-49.5 514,-49.5"/>
<text text-anchor="middle" x="590" y="-56.5" font-family="Helvetica,sans-Serif" font-size="10.00">backend.Model.getColorMap</text>
</a>
</g>
</g>
<!-- Node2&#45;&gt;Node3 -->
<g id="edge2" class="edge"><title>Node2&#45;&gt;Node3</title>
<path fill="none" stroke="midnightblue" d="M477.519,-59C486.263,-59 494.984,-59 503.477,-59"/>
<polygon fill="midnightblue" stroke="midnightblue" points="503.71,-62.5001 513.71,-59 503.71,-55.5001 503.71,-62.5001"/>
</g>
</g>
</svg>
