<?xml version="1.0" encoding="UTF-8" standalone="no"?>
<!DOCTYPE svg PUBLIC "-//W3C//DTD SVG 1.1//EN"
 "http://www.w3.org/Graphics/SVG/1.1/DTD/svg11.dtd">
<!-- Generated by graphviz version 2.36.0 (20140111.2315)
 -->
<!-- Title: backend.Line Pages: 1 -->
<svg width="155pt" height="96pt"
 viewBox="0.00 0.00 155.00 96.00" xmlns="http://www.w3.org/2000/svg" xmlns:xlink="http://www.w3.org/1999/xlink">
<g id="graph0" class="graph" transform="scale(1 1) rotate(0) translate(4 92)">
<title>backend.Line</title>
<polygon fill="white" stroke="none" points="-4,4 -4,-92 151,-92 151,4 -4,4"/>
<!-- Node1 -->
<g id="node1" class="node"><title>Node1</title>
<polygon fill="#bfbfbf" stroke="black" points="45,-0.5 45,-19.5 125,-19.5 125,-0.5 45,-0.5"/>
<text text-anchor="middle" x="85" y="-7.5" font-family="Helvetica,sans-Serif" font-size="10.00">backend.Line</text>
</g>
<!-- Node2 -->
<g id="node2" class="node"><title>Node2</title>
<polygon fill="white" stroke="#bfbfbf" points="-0.5,-68.5 -0.5,-87.5 88.5,-87.5 88.5,-68.5 -0.5,-68.5"/>
<text text-anchor="middle" x="44" y="-75.5" font-family="Helvetica,sans-Serif" font-size="10.00">Line2D::Double</text>
</g>
<!-- Node2&#45;&gt;Node1 -->
<g id="edge1" class="edge"><title>Node2&#45;&gt;Node1</title>
<path fill="none" stroke="midnightblue" d="M54.8321,-59.563C62.7721,-46.7815 73.2219,-29.9599 79.5078,-19.8411"/>
<polygon fill="midnightblue" stroke="midnightblue" points="51.6639,-58.0303 49.36,-68.3717 57.61,-61.7241 51.6639,-58.0303"/>
</g>
<!-- Node3 -->
<g id="node3" class="node"><title>Node3</title>
<polygon fill="white" stroke="#bfbfbf" points="106.5,-68.5 106.5,-87.5 147.5,-87.5 147.5,-68.5 106.5,-68.5"/>
<text text-anchor="middle" x="127" y="-75.5" font-family="Helvetica,sans-Serif" font-size="10.00">Color</text>
</g>
<!-- Node3&#45;&gt;Node1 -->
<g id="edge2" class="edge"><title>Node3&#45;&gt;Node1</title>
<path fill="none" stroke="#9a32cd" stroke-dasharray="5,2" d="M115.904,-59.563C107.77,-46.7815 97.0654,-29.9599 90.6262,-19.8411"/>
<polygon fill="#9a32cd" stroke="#9a32cd" points="113.188,-61.8141 121.509,-68.3717 119.093,-58.0559 113.188,-61.8141"/>
<text text-anchor="middle" x="122.5" y="-41.5" font-family="Helvetica,sans-Serif" font-size="10.00"> color</text>
</g>
</g>
</svg>
