<?xml version="1.0" encoding="UTF-8" standalone="no"?>
<!DOCTYPE svg PUBLIC "-//W3C//DTD SVG 1.1//EN"
 "http://www.w3.org/Graphics/SVG/1.1/DTD/svg11.dtd">
<!-- Generated by graphviz version 2.36.0 (20140111.2315)
 -->
<!-- Title: backend.UserInstructionContainer Pages: 1 -->
<svg width="297pt" height="244pt"
 viewBox="0.00 0.00 297.00 244.00" xmlns="http://www.w3.org/2000/svg" xmlns:xlink="http://www.w3.org/1999/xlink">
<g id="graph0" class="graph" transform="scale(1 1) rotate(0) translate(4 240)">
<title>backend.UserInstructionContainer</title>
<polygon fill="white" stroke="none" points="-4,4 -4,-240 293,-240 293,4 -4,4"/>
<!-- Node1 -->
<g id="node1" class="node"><title>Node1</title>
<polygon fill="#bfbfbf" stroke="black" points="40.5,-0.5 40.5,-19.5 219.5,-19.5 219.5,-0.5 40.5,-0.5"/>
<text text-anchor="middle" x="130" y="-7.5" font-family="Helvetica,sans-Serif" font-size="10.00">backend.UserInstructionContainer</text>
</g>
<!-- Node2 -->
<g id="node2" class="node"><title>Node2</title>
<g id="a_node2"><a xlink:href="../../d5/d3e/classbackend_1_1command_1_1_command_list.html" target="_top" xlink:title="backend.command.CommandList">
<polygon fill="white" stroke="black" points="40.5,-78.5 40.5,-97.5 219.5,-97.5 219.5,-78.5 40.5,-78.5"/>
<text text-anchor="middle" x="130" y="-85.5" font-family="Helvetica,sans-Serif" font-size="10.00">backend.command.CommandList</text>
</a>
</g>
</g>
<!-- Node2&#45;&gt;Node1 -->
<g id="edge1" class="edge"><title>Node2&#45;&gt;Node1</title>
<path fill="none" stroke="#9a32cd" stroke-dasharray="5,2" d="M130,-68.2239C130,-52.6974 130,-31.3582 130,-19.6165"/>
<polygon fill="#9a32cd" stroke="#9a32cd" points="126.5,-68.2818 130,-78.2818 133.5,-68.2819 126.5,-68.2818"/>
<text text-anchor="middle" x="159" y="-52" font-family="Helvetica,sans-Serif" font-size="10.00"> commands</text>
<text text-anchor="middle" x="159" y="-41" font-family="Helvetica,sans-Serif" font-size="10.00">varNames</text>
</g>
<!-- Node3 -->
<g id="node3" class="node"><title>Node3</title>
<g id="a_node3"><a xlink:href="../../dc/d83/classbackend_1_1command_1_1_command.html" target="_top" xlink:title="backend.command.Command">
<polygon fill="white" stroke="black" points="49,-136.5 49,-155.5 211,-155.5 211,-136.5 49,-136.5"/>
<text text-anchor="middle" x="130" y="-143.5" font-family="Helvetica,sans-Serif" font-size="10.00">backend.command.Command</text>
</a>
</g>
</g>
<!-- Node3&#45;&gt;Node2 -->
<g id="edge2" class="edge"><title>Node3&#45;&gt;Node2</title>
<path fill="none" stroke="midnightblue" d="M130,-125.953C130,-116.287 130,-105.031 130,-97.5052"/>
<polygon fill="midnightblue" stroke="midnightblue" points="126.5,-126.25 130,-136.25 133.5,-126.25 126.5,-126.25"/>
</g>
<!-- Node3&#45;&gt;Node3 -->
<g id="edge4" class="edge"><title>Node3&#45;&gt;Node3</title>
<path fill="none" stroke="#9a32cd" stroke-dasharray="5,2" d="M221.171,-149.486C226.084,-148.634 229,-147.471 229,-146 229,-143.703 221.894,-142.16 211.18,-141.37"/>
<polygon fill="#9a32cd" stroke="#9a32cd" points="220.717,-146.015 211.18,-150.63 221.513,-152.97 220.717,-146.015"/>
<text text-anchor="middle" x="246.5" y="-143.5" font-family="Helvetica,sans-Serif" font-size="10.00"> parent</text>
</g>
<!-- Node4 -->
<g id="node4" class="node"><title>Node4</title>
<g id="a_node4"><a xlink:href="../../d0/d6a/classbackend_1_1_string_pair.html" target="_top" xlink:title="backend.StringPair">
<polygon fill="white" stroke="black" points="0,-210.5 0,-229.5 106,-229.5 106,-210.5 0,-210.5"/>
<text text-anchor="middle" x="53" y="-217.5" font-family="Helvetica,sans-Serif" font-size="10.00">backend.StringPair</text>
</a>
</g>
</g>
<!-- Node4&#45;&gt;Node3 -->
<g id="edge3" class="edge"><title>Node4&#45;&gt;Node3</title>
<path fill="none" stroke="#9a32cd" stroke-dasharray="5,2" d="M69.5857,-203.491C85.2817,-188.815 108.264,-167.325 120.877,-155.531"/>
<polygon fill="#9a32cd" stroke="#9a32cd" points="67.0491,-201.071 62.1353,-210.458 71.83,-206.184 67.0491,-201.071"/>
<text text-anchor="middle" x="125" y="-177.5" font-family="Helvetica,sans-Serif" font-size="10.00"> stringPair</text>
</g>
<!-- Node5 -->
<g id="node5" class="node"><title>Node5</title>
<polygon fill="white" stroke="#bfbfbf" points="124.5,-205 124.5,-235 289.5,-235 289.5,-205 124.5,-205"/>
<text text-anchor="start" x="132.5" y="-223" font-family="Helvetica,sans-Serif" font-size="10.00">ArrayList&lt; backend.command.</text>
<text text-anchor="middle" x="207" y="-212" font-family="Helvetica,sans-Serif" font-size="10.00">Command &gt;</text>
</g>
<!-- Node5&#45;&gt;Node3 -->
<g id="edge5" class="edge"><title>Node5&#45;&gt;Node3</title>
<path fill="none" stroke="#9a32cd" stroke-dasharray="5,2" d="M184.361,-197.831C169.362,-183.806 150.472,-166.143 139.367,-155.759"/>
<polygon fill="#9a32cd" stroke="#9a32cd" points="182.093,-200.502 191.787,-204.775 186.874,-195.389 182.093,-200.502"/>
<text text-anchor="middle" x="191" y="-177.5" font-family="Helvetica,sans-Serif" font-size="10.00"> params</text>
</g>
</g>
</svg>
