<?xml version="1.0" encoding="UTF-8" standalone="no"?>
<!DOCTYPE svg PUBLIC "-//W3C//DTD SVG 1.1//EN"
 "http://www.w3.org/Graphics/SVG/1.1/DTD/svg11.dtd">
<!-- Generated by graphviz version 2.36.0 (20140111.2315)
 -->
<!-- Title: backend.command.SetHeading.execute Pages: 1 -->
<svg width="672pt" height="77pt"
 viewBox="0.00 0.00 672.00 77.00" xmlns="http://www.w3.org/2000/svg" xmlns:xlink="http://www.w3.org/1999/xlink">
<g id="graph0" class="graph" transform="scale(1 1) rotate(0) translate(4 73)">
<title>backend.command.SetHeading.execute</title>
<polygon fill="white" stroke="none" points="-4,4 -4,-73 668,-73 668,4 -4,4"/>
<!-- Node1 -->
<g id="node1" class="node"><title>Node1</title>
<polygon fill="#bfbfbf" stroke="black" points="0.5,-22.5 0.5,-41.5 209.5,-41.5 209.5,-22.5 0.5,-22.5"/>
<text text-anchor="middle" x="105" y="-29.5" font-family="Helvetica,sans-Serif" font-size="10.00">backend.command.SetHeading.execute</text>
</g>
<!-- Node2 -->
<g id="node2" class="node"><title>Node2</title>
<g id="a_node2"><a xlink:href="../../dd/d3e/classbackend_1_1command_1_1_degrees_turtle_command.html#acd59c2f8fc9e6584311ad0a046a6a6ca" target="_top" xlink:title="backend.command.DegreesTurtle\lCommand.degrees">
<polygon fill="white" stroke="black" points="246,-39 246,-69 424,-69 424,-39 246,-39"/>
<text text-anchor="start" x="254" y="-57" font-family="Helvetica,sans-Serif" font-size="10.00">backend.command.DegreesTurtle</text>
<text text-anchor="middle" x="335" y="-46" font-family="Helvetica,sans-Serif" font-size="10.00">Command.degrees</text>
</a>
</g>
</g>
<!-- Node1&#45;&gt;Node2 -->
<g id="edge1" class="edge"><title>Node1&#45;&gt;Node2</title>
<path fill="none" stroke="midnightblue" d="M204.678,-41.5216C214.968,-42.5145 225.428,-43.5237 235.713,-44.5162"/>
<polygon fill="midnightblue" stroke="midnightblue" points="235.638,-48.0251 245.928,-45.5018 236.311,-41.0575 235.638,-48.0251"/>
</g>
<!-- Node4 -->
<g id="node4" class="node"><title>Node4</title>
<g id="a_node4"><a xlink:href="../../df/de2/classbackend_1_1_turtle.html#a05bda1daddb116c72fb4e62e87d6c88b" target="_top" xlink:title="backend.Turtle.setHeading">
<polygon fill="white" stroke="black" points="263.5,-0.5 263.5,-19.5 406.5,-19.5 406.5,-0.5 263.5,-0.5"/>
<text text-anchor="middle" x="335" y="-7.5" font-family="Helvetica,sans-Serif" font-size="10.00">backend.Turtle.setHeading</text>
</a>
</g>
</g>
<!-- Node1&#45;&gt;Node4 -->
<g id="edge3" class="edge"><title>Node1&#45;&gt;Node4</title>
<path fill="none" stroke="midnightblue" d="M204.678,-22.4784C220.869,-20.9161 237.48,-19.3133 253.172,-17.7992"/>
<polygon fill="midnightblue" stroke="midnightblue" points="253.72,-21.2626 263.338,-16.8183 253.048,-14.295 253.72,-21.2626"/>
</g>
<!-- Node3 -->
<g id="node3" class="node"><title>Node3</title>
<g id="a_node3"><a xlink:href="../../dc/d83/classbackend_1_1command_1_1_command.html#ae218516ae55b1b0d4820d55c901793ea" target="_top" xlink:title="backend.command.Command.execute\lParam">
<polygon fill="white" stroke="black" points="460.5,-39 460.5,-69 663.5,-69 663.5,-39 460.5,-39"/>
<text text-anchor="start" x="468.5" y="-57" font-family="Helvetica,sans-Serif" font-size="10.00">backend.command.Command.execute</text>
<text text-anchor="middle" x="562" y="-46" font-family="Helvetica,sans-Serif" font-size="10.00">Param</text>
</a>
</g>
</g>
<!-- Node2&#45;&gt;Node3 -->
<g id="edge2" class="edge"><title>Node2&#45;&gt;Node3</title>
<path fill="none" stroke="midnightblue" d="M424.28,-54C432.775,-54 441.464,-54 450.139,-54"/>
<polygon fill="midnightblue" stroke="midnightblue" points="450.305,-57.5001 460.305,-54 450.305,-50.5001 450.305,-57.5001"/>
</g>
<!-- Node5 -->
<g id="node5" class="node"><title>Node5</title>
<g id="a_node5"><a xlink:href="../../d8/d98/classbackend_1_1_heading.html#a184d1ef92b62ea73e6edc57e07d3c0d4" target="_top" xlink:title="backend.Heading.getAngle">
<polygon fill="white" stroke="black" points="489,-0.5 489,-19.5 635,-19.5 635,-0.5 489,-0.5"/>
<text text-anchor="middle" x="562" y="-7.5" font-family="Helvetica,sans-Serif" font-size="10.00">backend.Heading.getAngle</text>
</a>
</g>
</g>
<!-- Node4&#45;&gt;Node5 -->
<g id="edge4" class="edge"><title>Node4&#45;&gt;Node5</title>
<path fill="none" stroke="midnightblue" d="M406.574,-10C429.466,-10 455.06,-10 478.727,-10"/>
<polygon fill="midnightblue" stroke="midnightblue" points="478.739,-13.5001 488.738,-10 478.738,-6.5001 478.739,-13.5001"/>
</g>
</g>
</svg>
