<?xml version="1.0" encoding="UTF-8" standalone="no"?>
<!DOCTYPE svg PUBLIC "-//W3C//DTD SVG 1.1//EN"
 "http://www.w3.org/Graphics/SVG/1.1/DTD/svg11.dtd">
<!-- Generated by graphviz version 2.36.0 (20140111.2315)
 -->
<!-- Title: gui.textAreas.UserVariablesBox Pages: 1 -->
<svg width="320pt" height="186pt"
 viewBox="0.00 0.00 320.00 186.00" xmlns="http://www.w3.org/2000/svg" xmlns:xlink="http://www.w3.org/1999/xlink">
<g id="graph0" class="graph" transform="scale(1 1) rotate(0) translate(4 182)">
<title>gui.textAreas.UserVariablesBox</title>
<polygon fill="white" stroke="none" points="-4,4 -4,-182 316,-182 316,4 -4,4"/>
<!-- Node1 -->
<g id="node1" class="node"><title>Node1</title>
<polygon fill="#bfbfbf" stroke="black" points="123.5,-0.5 123.5,-19.5 290.5,-19.5 290.5,-0.5 123.5,-0.5"/>
<text text-anchor="middle" x="207" y="-7.5" font-family="Helvetica,sans-Serif" font-size="10.00">gui.textAreas.UserVariablesBox</text>
</g>
<!-- Node2 -->
<g id="node2" class="node"><title>Node2</title>
<g id="a_node2"><a xlink:href="../../d8/d85/classgui_1_1text_areas_1_1_abstract_editable_text_box.html" target="_top" xlink:title="gui.textAreas.AbstractEditable\lTextBox">
<polygon fill="white" stroke="black" points="6,-79 6,-109 168,-109 168,-79 6,-79"/>
<text text-anchor="start" x="14" y="-97" font-family="Helvetica,sans-Serif" font-size="10.00">gui.textAreas.AbstractEditable</text>
<text text-anchor="middle" x="87" y="-86" font-family="Helvetica,sans-Serif" font-size="10.00">TextBox</text>
</a>
</g>
</g>
<!-- Node2&#45;&gt;Node1 -->
<g id="edge1" class="edge"><title>Node2&#45;&gt;Node1</title>
<path fill="none" stroke="midnightblue" d="M116.015,-73.1732C141.011,-56.0923 175.896,-32.2542 194.365,-19.6337"/>
<polygon fill="midnightblue" stroke="midnightblue" points="113.911,-70.372 107.629,-78.9037 117.86,-76.1515 113.911,-70.372"/>
</g>
<!-- Node3 -->
<g id="node3" class="node"><title>Node3</title>
<polygon fill="white" stroke="#bfbfbf" points="0,-158.5 0,-177.5 48,-177.5 48,-158.5 0,-158.5"/>
<text text-anchor="middle" x="24" y="-165.5" font-family="Helvetica,sans-Serif" font-size="10.00">Region</text>
</g>
<!-- Node3&#45;&gt;Node2 -->
<g id="edge2" class="edge"><title>Node3&#45;&gt;Node2</title>
<path fill="none" stroke="midnightblue" d="M38.2945,-150.663C49.2141,-138.184 64.1131,-121.156 74.5473,-109.232"/>
<polygon fill="midnightblue" stroke="midnightblue" points="35.4254,-148.627 31.4743,-158.458 40.6934,-153.237 35.4254,-148.627"/>
</g>
<!-- Node4 -->
<g id="node4" class="node"><title>Node4</title>
<polygon fill="white" stroke="#bfbfbf" points="66,-158.5 66,-177.5 108,-177.5 108,-158.5 66,-158.5"/>
<text text-anchor="middle" x="87" y="-165.5" font-family="Helvetica,sans-Serif" font-size="10.00">Label</text>
</g>
<!-- Node4&#45;&gt;Node2 -->
<g id="edge3" class="edge"><title>Node4&#45;&gt;Node2</title>
<path fill="none" stroke="#9a32cd" stroke-dasharray="5,2" d="M87,-148.085C87,-135.915 87,-120.354 87,-109.232"/>
<polygon fill="#9a32cd" stroke="#9a32cd" points="83.5001,-148.458 87,-158.458 90.5001,-148.458 83.5001,-148.458"/>
<text text-anchor="middle" x="100" y="-131.5" font-family="Helvetica,sans-Serif" font-size="10.00"> label</text>
</g>
<!-- Node5 -->
<g id="node5" class="node"><title>Node5</title>
<polygon fill="white" stroke="#bfbfbf" points="126,-158.5 126,-177.5 184,-177.5 184,-158.5 126,-158.5"/>
<text text-anchor="middle" x="155" y="-165.5" font-family="Helvetica,sans-Serif" font-size="10.00">TextArea</text>
</g>
<!-- Node5&#45;&gt;Node2 -->
<g id="edge4" class="edge"><title>Node5&#45;&gt;Node2</title>
<path fill="none" stroke="#9a32cd" stroke-dasharray="5,2" d="M139.91,-151.022C128.094,-138.512 111.812,-121.271 100.441,-109.232"/>
<polygon fill="#9a32cd" stroke="#9a32cd" points="137.522,-153.591 146.932,-158.458 142.611,-148.785 137.522,-153.591"/>
<text text-anchor="middle" x="152.5" y="-131.5" font-family="Helvetica,sans-Serif" font-size="10.00"> textArea</text>
</g>
<!-- Node6 -->
<g id="node6" class="node"><title>Node6</title>
<polygon fill="white" stroke="#bfbfbf" points="186.5,-84.5 186.5,-103.5 227.5,-103.5 227.5,-84.5 186.5,-84.5"/>
<text text-anchor="middle" x="207" y="-91.5" font-family="Helvetica,sans-Serif" font-size="10.00">VBox</text>
</g>
<!-- Node6&#45;&gt;Node1 -->
<g id="edge5" class="edge"><title>Node6&#45;&gt;Node1</title>
<path fill="none" stroke="#9a32cd" stroke-dasharray="5,2" d="M207,-73.7589C207,-56.6762 207,-32.4984 207,-19.7123"/>
<polygon fill="#9a32cd" stroke="#9a32cd" points="203.5,-74.2245 207,-84.2246 210.5,-74.2246 203.5,-74.2245"/>
<text text-anchor="middle" x="231.5" y="-52" font-family="Helvetica,sans-Serif" font-size="10.00"> myLabels</text>
<text text-anchor="middle" x="231.5" y="-41" font-family="Helvetica,sans-Serif" font-size="10.00">myFields</text>
</g>
<!-- Node7 -->
<g id="node7" class="node"><title>Node7</title>
<polygon fill="white" stroke="#bfbfbf" points="258,-84.5 258,-103.5 300,-103.5 300,-84.5 258,-84.5"/>
<text text-anchor="middle" x="279" y="-91.5" font-family="Helvetica,sans-Serif" font-size="10.00">HBox</text>
</g>
<!-- Node7&#45;&gt;Node1 -->
<g id="edge6" class="edge"><title>Node7&#45;&gt;Node1</title>
<path fill="none" stroke="#9a32cd" stroke-dasharray="5,2" d="M274.975,-74.2788C271.716,-62.7378 266.128,-48.2387 257,-38 249.844,-29.9733 239.718,-23.887 230.447,-19.5439"/>
<polygon fill="#9a32cd" stroke="#9a32cd" points="271.63,-75.3329 277.426,-84.2019 278.426,-73.6544 271.63,-75.3329"/>
<text text-anchor="middle" x="291" y="-46.5" font-family="Helvetica,sans-Serif" font-size="10.00"> myData</text>
</g>
</g>
</svg>
