<?xml version="1.0" encoding="UTF-8" standalone="no"?>
<!DOCTYPE svg PUBLIC "-//W3C//DTD SVG 1.1//EN"
 "http://www.w3.org/Graphics/SVG/1.1/DTD/svg11.dtd">
<!-- Generated by graphviz version 2.36.0 (20140111.2315)
 -->
<!-- Title: gui.SlogoTab Pages: 1 -->
<!--zoomable 799 -->
<svg id="main" version="1.1" xmlns="http://www.w3.org/2000/svg" xmlns:xlink="http://www.w3.org/1999/xlink" xml:space="preserve" onload="init(evt)">
<style type="text/css"><![CDATA[
.edge:hover path { stroke: red; }
.edge:hover polygon { stroke: red; fill: red; }
]]></style>
<script type="text/javascript"><![CDATA[
var edges = document.getElementsByTagName('g');
if (edges && edges.length) {
  for (var i=0;i<edges.length;i++) {
    if (edges[i].id.substr(0,4)=='edge') {
      edges[i].setAttribute('class','edge');
    }
  }
}
]]></script>
        <defs>
                <circle id="rim" cx="0" cy="0" r="7"/>
                <circle id="rim2" cx="0" cy="0" r="3.5"/>
                <g id="zoomPlus">
                        <use xlink:href="#rim" fill="#404040">
                                <set attributeName="fill" to="#808080" begin="zoomplus.mouseover" end="zoomplus.mouseout"/>
                        </use>
                        <path d="M-4,0h8M0,-4v8" fill="none" stroke="white" stroke-width="1.5" pointer-events="none"/>
                </g>
                <g id="zoomMin">
                        <use xlink:href="#rim" fill="#404040">
                                <set attributeName="fill" to="#808080" begin="zoomminus.mouseover" end="zoomminus.mouseout"/>
                        </use>
                        <path d="M-4,0h8" fill="none" stroke="white" stroke-width="1.5" pointer-events="none"/>
                </g>
                <g id="dirArrow">
                        <path fill="none" stroke="white" stroke-width="1.5" d="M0,-3.0v7 M-2.5,-0.5L0,-3.0L2.5,-0.5"/>
                </g>
               <g id="resetDef">
                       <use xlink:href="#rim2" fill="#404040">
                               <set attributeName="fill" to="#808080" begin="reset.mouseover" end="reset.mouseout"/>
                       </use>
               </g>
        </defs>

<script type="text/javascript">
var viewWidth = 1324;
var viewHeight = 799;
var sectionId = 'dynsection-1';
</script>
<script xlink:href="../../svgpan.js"/>
<svg id="graph" class="graph">
<g id="viewport">
<title>gui.SlogoTab</title>
<polygon fill="white" stroke="none" points="-4,4 -4,-795 1320,-795 1320,4 -4,4"/>
<!-- Node1 -->
<g id="node1" class="node"><title>Node1</title>
<polygon fill="#bfbfbf" stroke="black" points="962.5,-500.5 962.5,-519.5 1039.5,-519.5 1039.5,-500.5 962.5,-500.5"/>
<text text-anchor="middle" x="1001" y="-507.5" font-family="Helvetica,sans-Serif" font-size="10.00">gui.SlogoTab</text>
</g>
<!-- Node2 -->
<g id="node2" class="node"><title>Node2</title>
<polygon fill="white" stroke="#bfbfbf" points="54,-648.5 54,-667.5 102,-667.5 102,-648.5 54,-648.5"/>
<text text-anchor="middle" x="78" y="-655.5" font-family="Helvetica,sans-Serif" font-size="10.00">Region</text>
</g>
<!-- Node2&#45;&gt;Node1 -->
<g id="edge1" class="edge"><title>Node2&#45;&gt;Node1</title>
<path fill="none" stroke="midnightblue" d="M112.697,-658.464C150.499,-658.96 213.644,-659.712 268,-660 339.999,-660.381 358.153,-664.691 430,-660 581.735,-650.093 619.456,-639.5 768,-607 820.132,-595.594 834.626,-596.25 884,-576 922.802,-560.086 964.723,-533.682 985.956,-519.578"/>
<polygon fill="midnightblue" stroke="midnightblue" points="112.322,-654.959 102.277,-658.326 112.229,-661.958 112.322,-654.959"/>
</g>
<!-- Node4 -->
<g id="node4" class="node"><title>Node4</title>
<g id="a_node4"><a xlink:href="../../d8/d85/classgui_1_1text_areas_1_1_abstract_editable_text_box.html" target="_top" xlink:title="gui.textAreas.AbstractEditable\lTextBox">
<polygon fill="white" stroke="black" points="268,-501 268,-531 430,-531 430,-501 268,-501"/>
<text text-anchor="start" x="276" y="-519" font-family="Helvetica,sans-Serif" font-size="10.00">gui.textAreas.AbstractEditable</text>
<text text-anchor="middle" x="349" y="-508" font-family="Helvetica,sans-Serif" font-size="10.00">TextBox</text>
</a>
</g>
</g>
<!-- Node2&#45;&gt;Node4 -->
<g id="edge4" class="edge"><title>Node2&#45;&gt;Node4</title>
<path fill="none" stroke="midnightblue" d="M112.274,-651.847C148.951,-643.762 208.275,-626.712 250,-595 260.901,-586.715 258.173,-579.534 268,-570 283.755,-554.715 304.334,-540.933 320.675,-531.118"/>
<polygon fill="midnightblue" stroke="midnightblue" points="111.178,-648.501 102.113,-653.985 112.619,-655.351 111.178,-648.501"/>
</g>
<!-- Node9 -->
<g id="node9" class="node"><title>Node9</title>
<g id="a_node9"><a xlink:href="../../d8/d8d/classgui_1_1_drawing_area.html" target="_top" xlink:title="gui.DrawingArea">
<polygon fill="white" stroke="black" points="301.5,-724.5 301.5,-743.5 396.5,-743.5 396.5,-724.5 301.5,-724.5"/>
<text text-anchor="middle" x="349" y="-731.5" font-family="Helvetica,sans-Serif" font-size="10.00">gui.DrawingArea</text>
</a>
</g>
</g>
<!-- Node2&#45;&gt;Node9 -->
<g id="edge10" class="edge"><title>Node2&#45;&gt;Node9</title>
<path fill="none" stroke="midnightblue" d="M111.83,-669.755C130.038,-676.099 153.152,-683.863 174,-690 218.986,-703.243 271.215,-716.122 306.624,-724.488"/>
<polygon fill="midnightblue" stroke="midnightblue" points="112.86,-666.407 102.265,-666.397 110.541,-673.012 112.86,-666.407"/>
</g>
<!-- Node15 -->
<g id="node15" class="node"><title>Node15</title>
<g id="a_node15"><a xlink:href="../../db/d89/classgui_1_1_run_buttons.html" target="_top" xlink:title="gui.RunButtons">
<polygon fill="white" stroke="black" points="304.5,-431.5 304.5,-450.5 393.5,-450.5 393.5,-431.5 304.5,-431.5"/>
<text text-anchor="middle" x="349" y="-438.5" font-family="Helvetica,sans-Serif" font-size="10.00">gui.RunButtons</text>
</a>
</g>
</g>
<!-- Node2&#45;&gt;Node15 -->
<g id="edge21" class="edge"><title>Node2&#45;&gt;Node15</title>
<path fill="none" stroke="midnightblue" d="M101.847,-642.73C121.056,-629.92 149.263,-611.176 174,-595 207.637,-573.005 225.448,-577.818 250,-546 265.713,-525.637 252.144,-511.252 268,-491 282.64,-472.301 306.361,-458.743 324.179,-450.502"/>
<polygon fill="midnightblue" stroke="midnightblue" points="99.8217,-639.873 93.4469,-648.336 103.708,-645.696 99.8217,-639.873"/>
</g>
<!-- Node3 -->
<g id="node3" class="node"><title>Node3</title>
<g id="a_node3"><a xlink:href="../../d3/d45/classgui_1_1text_areas_1_1_user_variables_box.html" target="_top" xlink:title="gui.textAreas.UserVariablesBox">
<polygon fill="white" stroke="black" points="585.5,-578.5 585.5,-597.5 752.5,-597.5 752.5,-578.5 585.5,-578.5"/>
<text text-anchor="middle" x="669" y="-585.5" font-family="Helvetica,sans-Serif" font-size="10.00">gui.textAreas.UserVariablesBox</text>
</a>
</g>
</g>
<!-- Node3&#45;&gt;Node1 -->
<g id="edge2" class="edge"><title>Node3&#45;&gt;Node1</title>
<path fill="none" stroke="#9a32cd" stroke-dasharray="5,2" d="M721.195,-576.149C764.564,-566.084 828.382,-551.21 884,-538 910.204,-531.776 939.707,-524.653 962.403,-519.149"/>
<polygon fill="#9a32cd" stroke="#9a32cd" points="720.396,-572.742 711.446,-578.411 721.978,-579.561 720.396,-572.742"/>
<text text-anchor="middle" x="835" y="-564" font-family="Helvetica,sans-Serif" font-size="10.00"> userVariablesBox</text>
</g>
<!-- Node4&#45;&gt;Node3 -->
<g id="edge3" class="edge"><title>Node4&#45;&gt;Node3</title>
<path fill="none" stroke="midnightblue" d="M440.643,-531.773C475.589,-538.305 515.792,-546.371 552,-555 581.126,-561.941 613.908,-571.424 637.173,-578.444"/>
<polygon fill="midnightblue" stroke="midnightblue" points="440.928,-528.266 430.457,-529.884 439.652,-535.149 440.928,-528.266"/>
</g>
<!-- Node12 -->
<g id="node12" class="node"><title>Node12</title>
<g id="a_node12"><a xlink:href="../../de/da4/classgui_1_1text_areas_1_1_previous_commands_box.html" target="_top" xlink:title="gui.textAreas.PreviousCommandsBox">
<polygon fill="white" stroke="black" points="570.5,-519.5 570.5,-538.5 767.5,-538.5 767.5,-519.5 570.5,-519.5"/>
<text text-anchor="middle" x="669" y="-526.5" font-family="Helvetica,sans-Serif" font-size="10.00">gui.textAreas.PreviousCommandsBox</text>
</a>
</g>
</g>
<!-- Node4&#45;&gt;Node12 -->
<g id="edge14" class="edge"><title>Node4&#45;&gt;Node12</title>
<path fill="none" stroke="midnightblue" d="M440.404,-519.696C481.024,-521.356 529.033,-523.319 570.462,-525.013"/>
<polygon fill="midnightblue" stroke="midnightblue" points="440.379,-516.192 430.245,-519.28 440.093,-523.186 440.379,-516.192"/>
</g>
<!-- Node13 -->
<g id="node13" class="node"><title>Node13</title>
<g id="a_node13"><a xlink:href="../../db/d0f/classgui_1_1text_areas_1_1_status_box.html" target="_top" xlink:title="gui.textAreas.StatusBox">
<polygon fill="white" stroke="black" points="602.5,-481.5 602.5,-500.5 735.5,-500.5 735.5,-481.5 602.5,-481.5"/>
<text text-anchor="middle" x="669" y="-488.5" font-family="Helvetica,sans-Serif" font-size="10.00">gui.textAreas.StatusBox</text>
</a>
</g>
</g>
<!-- Node4&#45;&gt;Node13 -->
<g id="edge17" class="edge"><title>Node4&#45;&gt;Node13</title>
<path fill="none" stroke="midnightblue" d="M440.391,-508.894C491.957,-504.84 555.436,-499.849 602.243,-496.17"/>
<polygon fill="midnightblue" stroke="midnightblue" points="439.94,-505.418 430.245,-509.691 440.488,-512.397 439.94,-505.418"/>
</g>
<!-- Node14 -->
<g id="node14" class="node"><title>Node14</title>
<g id="a_node14"><a xlink:href="../../db/dbc/classgui_1_1text_areas_1_1_command_box.html" target="_top" xlink:title="gui.textAreas.CommandBox">
<polygon fill="white" stroke="black" points="593,-390.5 593,-409.5 745,-409.5 745,-390.5 593,-390.5"/>
<text text-anchor="middle" x="669" y="-397.5" font-family="Helvetica,sans-Serif" font-size="10.00">gui.textAreas.CommandBox</text>
</a>
</g>
</g>
<!-- Node4&#45;&gt;Node14 -->
<g id="edge19" class="edge"><title>Node4&#45;&gt;Node14</title>
<path fill="none" stroke="midnightblue" d="M395.424,-496.792C457.232,-470.687 561.205,-426.896 570,-424 586.97,-418.411 605.975,-413.466 622.699,-409.539"/>
<polygon fill="midnightblue" stroke="midnightblue" points="393.737,-493.705 385.887,-500.821 396.461,-500.153 393.737,-493.705"/>
</g>
<!-- Node5 -->
<g id="node5" class="node"><title>Node5</title>
<polygon fill="white" stroke="#bfbfbf" points="57,-491.5 57,-510.5 99,-510.5 99,-491.5 57,-491.5"/>
<text text-anchor="middle" x="78" y="-498.5" font-family="Helvetica,sans-Serif" font-size="10.00">Label</text>
</g>
<!-- Node5&#45;&gt;Node4 -->
<g id="edge5" class="edge"><title>Node5&#45;&gt;Node4</title>
<path fill="none" stroke="#9a32cd" stroke-dasharray="5,2" d="M109.283,-501.223C143.486,-501.63 200.794,-502.774 250,-506 255.802,-506.38 261.792,-506.836 267.817,-507.34"/>
<polygon fill="#9a32cd" stroke="#9a32cd" points="109.066,-497.721 99.03,-501.116 108.993,-504.721 109.066,-497.721"/>
<text text-anchor="middle" x="212" y="-509" font-family="Helvetica,sans-Serif" font-size="10.00"> label</text>
</g>
<!-- Node6 -->
<g id="node6" class="node"><title>Node6</title>
<polygon fill="white" stroke="#bfbfbf" points="49,-529.5 49,-548.5 107,-548.5 107,-529.5 49,-529.5"/>
<text text-anchor="middle" x="78" y="-536.5" font-family="Helvetica,sans-Serif" font-size="10.00">TextArea</text>
</g>
<!-- Node6&#45;&gt;Node4 -->
<g id="edge6" class="edge"><title>Node6&#45;&gt;Node4</title>
<path fill="none" stroke="#9a32cd" stroke-dasharray="5,2" d="M117.415,-535.715C156.477,-532.376 218.163,-527.101 267.907,-522.848"/>
<polygon fill="#9a32cd" stroke="#9a32cd" points="116.692,-532.264 107.026,-536.604 117.288,-539.239 116.692,-532.264"/>
<text text-anchor="middle" x="212" y="-534" font-family="Helvetica,sans-Serif" font-size="10.00"> textArea</text>
</g>
<!-- Node7 -->
<g id="node7" class="node"><title>Node7</title>
<polygon fill="white" stroke="#bfbfbf" points="328.5,-579.5 328.5,-598.5 369.5,-598.5 369.5,-579.5 328.5,-579.5"/>
<text text-anchor="middle" x="349" y="-586.5" font-family="Helvetica,sans-Serif" font-size="10.00">VBox</text>
</g>
<!-- Node7&#45;&gt;Node3 -->
<g id="edge7" class="edge"><title>Node7&#45;&gt;Node3</title>
<path fill="none" stroke="#9a32cd" stroke-dasharray="5,2" d="M379.928,-588.906C426.513,-588.759 518.013,-588.472 585.443,-588.26"/>
<polygon fill="#9a32cd" stroke="#9a32cd" points="379.881,-585.406 369.892,-588.937 379.903,-592.406 379.881,-585.406"/>
<text text-anchor="middle" x="500" y="-603" font-family="Helvetica,sans-Serif" font-size="10.00"> myLabels</text>
<text text-anchor="middle" x="500" y="-592" font-family="Helvetica,sans-Serif" font-size="10.00">myFields</text>
</g>
<!-- Node7&#45;&gt;Node12 -->
<g id="edge15" class="edge"><title>Node7&#45;&gt;Node12</title>
<path fill="none" stroke="#9a32cd" stroke-dasharray="5,2" d="M379.943,-583.35C434.458,-573.065 550.447,-551.18 617.424,-538.543"/>
<polygon fill="#9a32cd" stroke="#9a32cd" points="379.07,-579.953 369.892,-585.247 380.368,-586.832 379.07,-579.953"/>
<text text-anchor="middle" x="500" y="-573" font-family="Helvetica,sans-Serif" font-size="10.00"> col</text>
</g>
<!-- Node8 -->
<g id="node8" class="node"><title>Node8</title>
<polygon fill="white" stroke="#bfbfbf" points="328,-631.5 328,-650.5 370,-650.5 370,-631.5 328,-631.5"/>
<text text-anchor="middle" x="349" y="-638.5" font-family="Helvetica,sans-Serif" font-size="10.00">HBox</text>
</g>
<!-- Node8&#45;&gt;Node3 -->
<g id="edge8" class="edge"><title>Node8&#45;&gt;Node3</title>
<path fill="none" stroke="#9a32cd" stroke-dasharray="5,2" d="M380.232,-638.069C419.857,-634.008 491.437,-625.917 552,-615 578.759,-610.176 608.635,-603.184 631.365,-597.524"/>
<polygon fill="#9a32cd" stroke="#9a32cd" points="379.771,-634.597 370.173,-639.083 380.473,-641.562 379.771,-634.597"/>
<text text-anchor="middle" x="500" y="-632" font-family="Helvetica,sans-Serif" font-size="10.00"> myData</text>
</g>
<!-- Node9&#45;&gt;Node1 -->
<g id="edge9" class="edge"><title>Node9&#45;&gt;Node1</title>
<path fill="none" stroke="#9a32cd" stroke-dasharray="5,2" d="M406.531,-745.137C509.699,-762.31 731.874,-784.444 884,-693 952.993,-651.528 987.698,-551.513 997.229,-519.812"/>
<polygon fill="#9a32cd" stroke="#9a32cd" points="407.074,-741.679 396.627,-743.442 405.894,-748.579 407.074,-741.679"/>
<text text-anchor="middle" x="669" y="-763" font-family="Helvetica,sans-Serif" font-size="10.00"> turtlePanel</text>
</g>
<!-- Node10 -->
<g id="node10" class="node"><title>Node10</title>
<polygon fill="white" stroke="#bfbfbf" points="5.5,-722 5.5,-752 150.5,-752 150.5,-722 5.5,-722"/>
<text text-anchor="start" x="13.5" y="-740" font-family="Helvetica,sans-Serif" font-size="10.00">HashMap&lt; backend.Turtle,</text>
<text text-anchor="middle" x="78" y="-729" font-family="Helvetica,sans-Serif" font-size="10.00"> gui.TurtleImage &gt;</text>
</g>
<!-- Node10&#45;&gt;Node9 -->
<g id="edge11" class="edge"><title>Node10&#45;&gt;Node9</title>
<path fill="none" stroke="#9a32cd" stroke-dasharray="5,2" d="M161.003,-736.085C207.052,-735.572 262.838,-734.95 301.431,-734.519"/>
<polygon fill="#9a32cd" stroke="#9a32cd" points="160.694,-732.589 150.734,-736.2 160.772,-739.588 160.694,-732.589"/>
<text text-anchor="middle" x="212" y="-738" font-family="Helvetica,sans-Serif" font-size="10.00"> turtleMap</text>
</g>
<!-- Node11 -->
<g id="node11" class="node"><title>Node11</title>
<polygon fill="white" stroke="#bfbfbf" points="52,-771.5 52,-790.5 104,-790.5 104,-771.5 52,-771.5"/>
<text text-anchor="middle" x="78" y="-778.5" font-family="Helvetica,sans-Serif" font-size="10.00">Canvas</text>
</g>
<!-- Node11&#45;&gt;Node9 -->
<g id="edge12" class="edge"><title>Node11&#45;&gt;Node9</title>
<path fill="none" stroke="#9a32cd" stroke-dasharray="5,2" d="M114.2,-774.85C162.049,-766.49 247.749,-751.516 301.038,-742.205"/>
<polygon fill="#9a32cd" stroke="#9a32cd" points="113.555,-771.409 104.307,-776.578 114.76,-778.305 113.555,-771.409"/>
<text text-anchor="middle" x="212" y="-766" font-family="Helvetica,sans-Serif" font-size="10.00"> drawingCanvas</text>
</g>
<!-- Node12&#45;&gt;Node1 -->
<g id="edge13" class="edge"><title>Node12&#45;&gt;Node1</title>
<path fill="none" stroke="#9a32cd" stroke-dasharray="5,2" d="M777.756,-522.796C841.329,-519.136 917.842,-514.73 962.491,-512.16"/>
<polygon fill="#9a32cd" stroke="#9a32cd" points="777.454,-519.307 767.671,-523.376 777.856,-526.296 777.454,-519.307"/>
<text text-anchor="middle" x="835" y="-526" font-family="Helvetica,sans-Serif" font-size="10.00"> prevCommandsBox</text>
</g>
<!-- Node13&#45;&gt;Node1 -->
<g id="edge16" class="edge"><title>Node13&#45;&gt;Node1</title>
<path fill="none" stroke="#9a32cd" stroke-dasharray="5,2" d="M745.752,-494.57C786.696,-496.582 838.127,-499.239 884,-502 910.195,-503.576 939.699,-505.615 962.397,-507.239"/>
<polygon fill="#9a32cd" stroke="#9a32cd" points="745.737,-491.066 735.579,-494.073 745.396,-498.057 745.737,-491.066"/>
<text text-anchor="middle" x="835" y="-505" font-family="Helvetica,sans-Serif" font-size="10.00"> statusBox</text>
</g>
<!-- Node14&#45;&gt;Node1 -->
<g id="edge18" class="edge"><title>Node14&#45;&gt;Node1</title>
<path fill="none" stroke="#9a32cd" stroke-dasharray="5,2" d="M755.226,-397.675C795.5,-399.229 843.509,-405.009 884,-421 930.038,-439.182 973.245,-481.304 991.222,-500.345"/>
<polygon fill="#9a32cd" stroke="#9a32cd" points="755.264,-394.175 745.162,-397.368 755.051,-401.172 755.264,-394.175"/>
<text text-anchor="middle" x="835" y="-424" font-family="Helvetica,sans-Serif" font-size="10.00"> commandBox</text>
</g>
<!-- Node15&#45;&gt;Node1 -->
<g id="edge23" class="edge"><title>Node15&#45;&gt;Node1</title>
<path fill="none" stroke="#9a32cd" stroke-dasharray="5,2" d="M403.82,-440.826C483.65,-441.188 638.007,-444.272 768,-461 838.023,-470.011 918.347,-488.939 963.744,-500.454"/>
<polygon fill="#9a32cd" stroke="#9a32cd" points="403.538,-437.325 393.527,-440.793 403.515,-444.325 403.538,-437.325"/>
<text text-anchor="middle" x="669" y="-464" font-family="Helvetica,sans-Serif" font-size="10.00"> runButtons</text>
</g>
<!-- Node15&#45;&gt;Node14 -->
<g id="edge20" class="edge"><title>Node15&#45;&gt;Node14</title>
<path fill="none" stroke="#9a32cd" stroke-dasharray="5,2" d="M391.301,-428.733C408.662,-424.03 429.166,-419.062 448,-416 495.816,-408.225 550.094,-404.227 592.774,-402.172"/>
<polygon fill="#9a32cd" stroke="#9a32cd" points="390.18,-425.412 381.478,-431.455 392.049,-432.157 390.18,-425.412"/>
<text text-anchor="middle" x="500" y="-419" font-family="Helvetica,sans-Serif" font-size="10.00"> runButtons</text>
</g>
<!-- Node16 -->
<g id="node16" class="node"><title>Node16</title>
<polygon fill="white" stroke="#bfbfbf" points="53.5,-431.5 53.5,-450.5 102.5,-450.5 102.5,-431.5 53.5,-431.5"/>
<text text-anchor="middle" x="78" y="-438.5" font-family="Helvetica,sans-Serif" font-size="10.00">Button</text>
</g>
<!-- Node16&#45;&gt;Node15 -->
<g id="edge22" class="edge"><title>Node16&#45;&gt;Node15</title>
<path fill="none" stroke="#9a32cd" stroke-dasharray="5,2" d="M112.875,-441C161.459,-441 250.944,-441 304.407,-441"/>
<polygon fill="#9a32cd" stroke="#9a32cd" points="112.872,-437.5 102.872,-441 112.872,-444.5 112.872,-437.5"/>
<text text-anchor="middle" x="212" y="-455" font-family="Helvetica,sans-Serif" font-size="10.00"> runButton</text>
<text text-anchor="middle" x="212" y="-444" font-family="Helvetica,sans-Serif" font-size="10.00">stepButton</text>
</g>
<!-- Node17 -->
<g id="node17" class="node"><title>Node17</title>
<g id="a_node17"><a xlink:href="../../d3/dac/classbackend_1_1_model.html" target="_top" xlink:title="backend.Model">
<polygon fill="white" stroke="black" points="624.5,-168.5 624.5,-187.5 713.5,-187.5 713.5,-168.5 624.5,-168.5"/>
<text text-anchor="middle" x="669" y="-175.5" font-family="Helvetica,sans-Serif" font-size="10.00">backend.Model</text>
</a>
</g>
</g>
<!-- Node17&#45;&gt;Node1 -->
<g id="edge24" class="edge"><title>Node17&#45;&gt;Node1</title>
<path fill="none" stroke="#9a32cd" stroke-dasharray="5,2" d="M687.98,-194.768C725.179,-229.595 813.048,-312.563 884,-385 925.227,-427.089 972.453,-479.276 991.44,-500.428"/>
<polygon fill="#9a32cd" stroke="#9a32cd" points="690.133,-191.99 680.438,-187.717 685.353,-197.103 690.133,-191.99"/>
<text text-anchor="middle" x="835" y="-388" font-family="Helvetica,sans-Serif" font-size="10.00"> myModel</text>
</g>
<!-- Node23 -->
<g id="node23" class="node"><title>Node23</title>
<g id="a_node23"><a xlink:href="../../d3/dd9/classbackend_1_1command_1_1_command_factory.html" target="_top" xlink:title="backend.command.CommandFactory">
<polygon fill="white" stroke="black" points="902.5,-134.5 902.5,-153.5 1099.5,-153.5 1099.5,-134.5 902.5,-134.5"/>
<text text-anchor="middle" x="1001" y="-141.5" font-family="Helvetica,sans-Serif" font-size="10.00">backend.command.CommandFactory</text>
</a>
</g>
</g>
<!-- Node17&#45;&gt;Node23 -->
<g id="edge31" class="edge"><title>Node17&#45;&gt;Node23</title>
<path fill="none" stroke="#9a32cd" stroke-dasharray="5,2" d="M705.367,-165.222C728.07,-157.702 758.371,-148.919 786,-145 823.796,-139.638 865.727,-138.42 902.384,-138.882"/>
<polygon fill="#9a32cd" stroke="#9a32cd" points="704.168,-161.933 695.821,-168.458 706.415,-168.562 704.168,-161.933"/>
<text text-anchor="middle" x="835" y="-148" font-family="Helvetica,sans-Serif" font-size="10.00"> model</text>
</g>
<!-- Node18 -->
<g id="node18" class="node"><title>Node18</title>
<polygon fill="white" stroke="#bfbfbf" points="273.5,-39 273.5,-69 424.5,-69 424.5,-39 273.5,-39"/>
<text text-anchor="start" x="281.5" y="-57" font-family="Helvetica,sans-Serif" font-size="10.00">HashMap&lt; String, backend.</text>
<text text-anchor="middle" x="349" y="-46" font-family="Helvetica,sans-Serif" font-size="10.00">Variable &gt;</text>
</g>
<!-- Node18&#45;&gt;Node17 -->
<g id="edge25" class="edge"><title>Node18&#45;&gt;Node17</title>
<path fill="none" stroke="#9a32cd" stroke-dasharray="5,2" d="M434.82,-58.3463C472.006,-62.6263 515.417,-70.9443 552,-87 597.705,-107.059 641.086,-149.359 659.165,-168.379"/>
<polygon fill="#9a32cd" stroke="#9a32cd" points="434.823,-54.8268 424.507,-57.2431 434.078,-61.787 434.823,-54.8268"/>
<text text-anchor="middle" x="500" y="-90" font-family="Helvetica,sans-Serif" font-size="10.00"> userVariables</text>
</g>
<!-- Node19 -->
<g id="node19" class="node"><title>Node19</title>
<polygon fill="white" stroke="#bfbfbf" points="291,-0.5 291,-19.5 407,-19.5 407,-0.5 291,-0.5"/>
<text text-anchor="middle" x="349" y="-7.5" font-family="Helvetica,sans-Serif" font-size="10.00">Stack&lt; Command &gt;</text>
</g>
<!-- Node19&#45;&gt;Node17 -->
<g id="edge26" class="edge"><title>Node19&#45;&gt;Node17</title>
<path fill="none" stroke="#9a32cd" stroke-dasharray="5,2" d="M417.594,-10.9228C458.745,-14.0915 511.087,-22.9485 552,-46 606.754,-76.85 648.501,-143.524 662.719,-168.391"/>
<polygon fill="#9a32cd" stroke="#9a32cd" points="417.599,-7.41529 407.386,-10.2345 417.128,-14.3994 417.599,-7.41529"/>
<text text-anchor="middle" x="500" y="-49" font-family="Helvetica,sans-Serif" font-size="10.00"> executedCommands</text>
</g>
<!-- Node20 -->
<g id="node20" class="node"><title>Node20</title>
<polygon fill="white" stroke="#bfbfbf" points="273.5,-372 273.5,-402 424.5,-402 424.5,-372 273.5,-372"/>
<text text-anchor="start" x="281.5" y="-390" font-family="Helvetica,sans-Serif" font-size="10.00">HashMap&lt; String, backend.</text>
<text text-anchor="middle" x="349" y="-379" font-family="Helvetica,sans-Serif" font-size="10.00">UserInstructionContainer &gt;</text>
</g>
<!-- Node20&#45;&gt;Node17 -->
<g id="edge27" class="edge"><title>Node20&#45;&gt;Node17</title>
<path fill="none" stroke="#9a32cd" stroke-dasharray="5,2" d="M434.922,-389.285C473.306,-386.645 517.648,-378.152 552,-356 618.028,-313.421 654.485,-218.471 664.87,-187.775"/>
<polygon fill="#9a32cd" stroke="#9a32cd" points="434.572,-385.799 424.786,-389.859 434.967,-392.788 434.572,-385.799"/>
<text text-anchor="middle" x="500" y="-391" font-family="Helvetica,sans-Serif" font-size="10.00"> userInstructions</text>
</g>
<!-- Node21 -->
<g id="node21" class="node"><title>Node21</title>
<g id="a_node21"><a xlink:href="../../da/d26/classbackend_1_1_s_logo_parser.html" target="_top" xlink:title="backend.SLogoParser">
<polygon fill="white" stroke="black" points="1196,-178.5 1196,-197.5 1316,-197.5 1316,-178.5 1196,-178.5"/>
<text text-anchor="middle" x="1256" y="-185.5" font-family="Helvetica,sans-Serif" font-size="10.00">backend.SLogoParser</text>
</a>
</g>
</g>
<!-- Node21&#45;&gt;Node17 -->
<g id="edge28" class="edge"><title>Node21&#45;&gt;Node17</title>
<path fill="none" stroke="#9a32cd" stroke-dasharray="5,2" d="M1198.9,-199.453C1191.88,-200.732 1184.78,-201.95 1178,-203 1143.51,-208.34 1134.84,-209.997 1100,-212 1012.15,-217.052 989.767,-218.397 902,-212 836.024,-207.191 760.328,-194.788 713.835,-186.369"/>
<polygon fill="#9a32cd" stroke="#9a32cd" points="1199.91,-202.826 1209.09,-197.548 1198.62,-195.945 1199.91,-202.826"/>
<text text-anchor="middle" x="1001" y="-220" font-family="Helvetica,sans-Serif" font-size="10.00"> parser</text>
</g>
<!-- Node22 -->
<g id="node22" class="node"><title>Node22</title>
<polygon fill="white" stroke="#bfbfbf" points="945,-173 945,-203 1057,-203 1057,-173 945,-173"/>
<text text-anchor="start" x="953" y="-191" font-family="Helvetica,sans-Serif" font-size="10.00">List&lt; Entry&lt; String,</text>
<text text-anchor="middle" x="1001" y="-180" font-family="Helvetica,sans-Serif" font-size="10.00"> Pattern &gt; &gt;</text>
</g>
<!-- Node22&#45;&gt;Node21 -->
<g id="edge29" class="edge"><title>Node22&#45;&gt;Node21</title>
<path fill="none" stroke="#9a32cd" stroke-dasharray="5,2" d="M1067.33,-188C1107.06,-188 1157.4,-188 1195.94,-188"/>
<polygon fill="#9a32cd" stroke="#9a32cd" points="1067.21,-184.5 1057.21,-188 1067.21,-191.5 1067.21,-184.5"/>
<text text-anchor="middle" x="1148" y="-191" font-family="Helvetica,sans-Serif" font-size="10.00"> patterns</text>
</g>
<!-- Node23&#45;&gt;Node17 -->
<g id="edge40" class="edge"><title>Node23&#45;&gt;Node17</title>
<path fill="none" stroke="#9a32cd" stroke-dasharray="5,2" d="M897.87,-154.569C893.182,-155.053 888.541,-155.532 884,-156 825.115,-162.073 757.112,-169.059 713.855,-173.5"/>
<polygon fill="#9a32cd" stroke="#9a32cd" points="898.6,-158.012 908.187,-153.503 897.88,-151.049 898.6,-158.012"/>
<text text-anchor="middle" x="835" y="-169" font-family="Helvetica,sans-Serif" font-size="10.00"> comFactory</text>
</g>
<!-- Node23&#45;&gt;Node21 -->
<g id="edge30" class="edge"><title>Node23&#45;&gt;Node21</title>
<path fill="none" stroke="#9a32cd" stroke-dasharray="5,2" d="M1072.95,-155.208C1105.07,-160.406 1143.48,-166.796 1178,-173 1187.38,-174.687 1197.39,-176.572 1206.98,-178.422"/>
<polygon fill="#9a32cd" stroke="#9a32cd" points="1073.19,-151.702 1062.76,-153.565 1072.07,-158.612 1073.19,-151.702"/>
<text text-anchor="middle" x="1148" y="-176" font-family="Helvetica,sans-Serif" font-size="10.00"> comFactory</text>
</g>
<!-- Node24 -->
<g id="node24" class="node"><title>Node24</title>
<g id="a_node24"><a xlink:href="../../d1/d68/classbackend_1_1_grid.html" target="_top" xlink:title="backend.Grid">
<polygon fill="white" stroke="black" points="309,-204.5 309,-223.5 389,-223.5 389,-204.5 309,-204.5"/>
<text text-anchor="middle" x="349" y="-211.5" font-family="Helvetica,sans-Serif" font-size="10.00">backend.Grid</text>
</a>
</g>
</g>
<!-- Node24&#45;&gt;Node17 -->
<g id="edge32" class="edge"><title>Node24&#45;&gt;Node17</title>
<path fill="none" stroke="#9a32cd" stroke-dasharray="5,2" d="M399.576,-208.388C461.285,-201.402 565.695,-189.582 624.456,-182.93"/>
<polygon fill="#9a32cd" stroke="#9a32cd" points="398.855,-204.947 389.312,-209.55 399.642,-211.902 398.855,-204.947"/>
<text text-anchor="middle" x="500" y="-206" font-family="Helvetica,sans-Serif" font-size="10.00"> grid</text>
</g>
<!-- Node25 -->
<g id="node25" class="node"><title>Node25</title>
<polygon fill="white" stroke="#bfbfbf" points="57.5,-155.5 57.5,-174.5 98.5,-174.5 98.5,-155.5 57.5,-155.5"/>
<text text-anchor="middle" x="78" y="-162.5" font-family="Helvetica,sans-Serif" font-size="10.00">Color</text>
</g>
<!-- Node25&#45;&gt;Node24 -->
<g id="edge33" class="edge"><title>Node25&#45;&gt;Node24</title>
<path fill="none" stroke="#9a32cd" stroke-dasharray="5,2" d="M108.978,-170.413C143.123,-176.583 200.586,-186.983 250,-196 269.4,-199.54 290.956,-203.497 308.9,-206.797"/>
<polygon fill="#9a32cd" stroke="#9a32cd" points="109.214,-166.899 98.7509,-168.565 107.969,-173.787 109.214,-166.899"/>
<text text-anchor="middle" x="212" y="-199" font-family="Helvetica,sans-Serif" font-size="10.00"> bgColor</text>
</g>
<!-- Node26 -->
<g id="node26" class="node"><title>Node26</title>
<g id="a_node26"><a xlink:href="../../df/d77/classbackend_1_1_bi_index.html" target="_top" xlink:title="backend.BiIndex\&lt; String \&gt;">
<polygon fill="white" stroke="black" points="5,-328.5 5,-347.5 151,-347.5 151,-328.5 5,-328.5"/>
<text text-anchor="middle" x="78" y="-335.5" font-family="Helvetica,sans-Serif" font-size="10.00">backend.BiIndex&lt; String &gt;</text>
</a>
</g>
</g>
<!-- Node26&#45;&gt;Node17 -->
<g id="edge39" class="edge"><title>Node26&#45;&gt;Node17</title>
<path fill="none" stroke="#9a32cd" stroke-dasharray="5,2" d="M161.405,-337.938C189.715,-336.663 221.455,-333.83 250,-328 408.636,-295.599 588.287,-215.419 647.727,-187.65"/>
<polygon fill="#9a32cd" stroke="#9a32cd" points="160.998,-334.451 151.143,-338.34 161.272,-341.446 160.998,-334.451"/>
<text text-anchor="middle" x="349" y="-327" font-family="Helvetica,sans-Serif" font-size="10.00"> imageMap</text>
</g>
<!-- Node26&#45;&gt;Node24 -->
<g id="edge34" class="edge"><title>Node26&#45;&gt;Node24</title>
<path fill="none" stroke="#9a32cd" stroke-dasharray="5,2" d="M128.573,-325.982C171.085,-315.278 228.738,-299.698 250,-289 285.598,-271.09 321.201,-239.613 338.01,-223.739"/>
<polygon fill="#9a32cd" stroke="#9a32cd" points="127.52,-322.637 118.667,-328.457 129.217,-329.429 127.52,-322.637"/>
<text text-anchor="middle" x="212" y="-317" font-family="Helvetica,sans-Serif" font-size="10.00"> imageMap</text>
</g>
<!-- Node27 -->
<g id="node27" class="node"><title>Node27</title>
<polygon fill="white" stroke="#bfbfbf" points="3,-281.5 3,-300.5 153,-300.5 153,-281.5 3,-281.5"/>
<text text-anchor="middle" x="78" y="-288.5" font-family="Helvetica,sans-Serif" font-size="10.00">ArrayList&lt; backend.Turtle &gt;</text>
</g>
<!-- Node27&#45;&gt;Node24 -->
<g id="edge35" class="edge"><title>Node27&#45;&gt;Node24</title>
<path fill="none" stroke="#9a32cd" stroke-dasharray="5,2" d="M144.851,-279.54C176.917,-273.256 215.833,-264.581 250,-254 277.384,-245.52 307.785,-232.521 327.357,-223.66"/>
<polygon fill="#9a32cd" stroke="#9a32cd" points="143.853,-276.168 134.695,-281.496 145.177,-283.042 143.853,-276.168"/>
<text text-anchor="middle" x="212" y="-277" font-family="Helvetica,sans-Serif" font-size="10.00"> activeTurtles</text>
</g>
<!-- Node28 -->
<g id="node28" class="node"><title>Node28</title>
<polygon fill="white" stroke="#bfbfbf" points="44,-243.5 44,-262.5 112,-262.5 112,-243.5 44,-243.5"/>
<text text-anchor="middle" x="78" y="-250.5" font-family="Helvetica,sans-Serif" font-size="10.00">Dimension</text>
</g>
<!-- Node28&#45;&gt;Node24 -->
<g id="edge36" class="edge"><title>Node28&#45;&gt;Node24</title>
<path fill="none" stroke="#9a32cd" stroke-dasharray="5,2" d="M122.401,-246.708C173.919,-239.239 259.083,-226.891 308.722,-219.695"/>
<polygon fill="#9a32cd" stroke="#9a32cd" points="121.649,-243.28 112.254,-248.179 122.653,-250.208 121.649,-243.28"/>
<text text-anchor="middle" x="212" y="-242" font-family="Helvetica,sans-Serif" font-size="10.00"> size</text>
</g>
<!-- Node29 -->
<g id="node29" class="node"><title>Node29</title>
<polygon fill="white" stroke="#bfbfbf" points="0,-194 0,-224 156,-224 156,-194 0,-194"/>
<text text-anchor="start" x="8" y="-212" font-family="Helvetica,sans-Serif" font-size="10.00">HashMap&lt; Integer, backend.</text>
<text text-anchor="middle" x="78" y="-201" font-family="Helvetica,sans-Serif" font-size="10.00">Turtle &gt;</text>
</g>
<!-- Node29&#45;&gt;Node24 -->
<g id="edge37" class="edge"><title>Node29&#45;&gt;Node24</title>
<path fill="none" stroke="#9a32cd" stroke-dasharray="5,2" d="M166.206,-210.621C214.343,-211.516 271.743,-212.583 308.982,-213.275"/>
<polygon fill="#9a32cd" stroke="#9a32cd" points="166.148,-207.119 156.085,-210.433 166.018,-214.118 166.148,-207.119"/>
<text text-anchor="middle" x="212" y="-216" font-family="Helvetica,sans-Serif" font-size="10.00"> allTurtles</text>
</g>
<!-- Node30 -->
<g id="node30" class="node"><title>Node30</title>
<g id="a_node30"><a xlink:href="../../df/d77/classbackend_1_1_bi_index.html" target="_top" xlink:title="backend.BiIndex\&lt; Color \&gt;">
<polygon fill="white" stroke="black" points="7,-108.5 7,-127.5 149,-127.5 149,-108.5 7,-108.5"/>
<text text-anchor="middle" x="78" y="-115.5" font-family="Helvetica,sans-Serif" font-size="10.00">backend.BiIndex&lt; Color &gt;</text>
</a>
</g>
</g>
<!-- Node30&#45;&gt;Node17 -->
<g id="edge42" class="edge"><title>Node30&#45;&gt;Node17</title>
<path fill="none" stroke="#9a32cd" stroke-dasharray="5,2" d="M159.156,-126.165C285.225,-139.008 525.618,-163.496 624.183,-173.536"/>
<polygon fill="#9a32cd" stroke="#9a32cd" points="159.474,-122.68 149.17,-125.148 158.764,-129.644 159.474,-122.68"/>
<text text-anchor="middle" x="349" y="-156" font-family="Helvetica,sans-Serif" font-size="10.00"> colorMap</text>
</g>
<!-- Node30&#45;&gt;Node24 -->
<g id="edge38" class="edge"><title>Node30&#45;&gt;Node24</title>
<path fill="none" stroke="#9a32cd" stroke-dasharray="5,2" d="M127.78,-130.114C162.351,-139.217 209.583,-152.71 250,-168 278.654,-178.84 310.549,-194.525 329.941,-204.49"/>
<polygon fill="#9a32cd" stroke="#9a32cd" points="128.491,-126.682 117.931,-127.549 126.726,-133.456 128.491,-126.682"/>
<text text-anchor="middle" x="212" y="-171" font-family="Helvetica,sans-Serif" font-size="10.00"> colorMap</text>
</g>
<!-- Node31 -->
<g id="node31" class="node"><title>Node31</title>
<polygon fill="white" stroke="#bfbfbf" points="288.5,-88.5 288.5,-107.5 409.5,-107.5 409.5,-88.5 288.5,-88.5"/>
<text text-anchor="middle" x="349" y="-95.5" font-family="Helvetica,sans-Serif" font-size="10.00">Queue&lt; Command &gt;</text>
</g>
<!-- Node31&#45;&gt;Node17 -->
<g id="edge41" class="edge"><title>Node31&#45;&gt;Node17</title>
<path fill="none" stroke="#9a32cd" stroke-dasharray="5,2" d="M419.946,-98.9908C459.407,-101.097 509.227,-106.373 552,-119 590.789,-130.451 632.047,-154.734 653.357,-168.306"/>
<polygon fill="#9a32cd" stroke="#9a32cd" points="420.044,-95.4915 409.888,-98.51 419.71,-102.484 420.044,-95.4915"/>
<text text-anchor="middle" x="500" y="-122" font-family="Helvetica,sans-Serif" font-size="10.00"> pendingCommands</text>
</g>
</g>
</svg>
        <g id="navigator" transform="translate(0 0)" fill="#404254">
                <rect fill="#f2f5e9" fill-opacity="0.5" stroke="#606060" stroke-width=".5" x="0" y="0" width="60" height="60"/>
                <use id="zoomplus" xlink:href="#zoomPlus" x="17" y="9" onmousedown="handleZoom(evt,'in')"/>
                <use id="zoomminus" xlink:href="#zoomMin" x="42" y="9" onmousedown="handleZoom(evt,'out')"/>
                <use id="reset" xlink:href="#resetDef" x="30" y="36" onmousedown="handleReset()"/>
                <g id="arrowUp" xlink:href="#dirArrow" transform="translate(30 24)" onmousedown="handlePan(0,-1)">
                  <use xlink:href="#rim" fill="#404040">
                        <set attributeName="fill" to="#808080" begin="arrowUp.mouseover" end="arrowUp.mouseout"/>
                  </use>
                  <path fill="none" stroke="white" stroke-width="1.5" d="M0,-3.0v7 M-2.5,-0.5L0,-3.0L2.5,-0.5"/>
                </g>
                <g id="arrowRight" xlink:href="#dirArrow" transform="rotate(90) translate(36 -43)" onmousedown="handlePan(1,0)">
                  <use xlink:href="#rim" fill="#404040">
                        <set attributeName="fill" to="#808080" begin="arrowRight.mouseover" end="arrowRight.mouseout"/>
                  </use>
                  <path fill="none" stroke="white" stroke-width="1.5" d="M0,-3.0v7 M-2.5,-0.5L0,-3.0L2.5,-0.5"/>
                </g>
                <g id="arrowDown" xlink:href="#dirArrow" transform="rotate(180) translate(-30 -48)" onmousedown="handlePan(0,1)">
                  <use xlink:href="#rim" fill="#404040">
                        <set attributeName="fill" to="#808080" begin="arrowDown.mouseover" end="arrowDown.mouseout"/>
                  </use>
                  <path fill="none" stroke="white" stroke-width="1.5" d="M0,-3.0v7 M-2.5,-0.5L0,-3.0L2.5,-0.5"/>
                </g>
                <g id="arrowLeft" xlink:href="#dirArrow" transform="rotate(270) translate(-36 17)" onmousedown="handlePan(-1,0)">
                  <use xlink:href="#rim" fill="#404040">
                        <set attributeName="fill" to="#808080" begin="arrowLeft.mouseover" end="arrowLeft.mouseout"/>
                  </use>
                  <path fill="none" stroke="white" stroke-width="1.5" d="M0,-3.0v7 M-2.5,-0.5L0,-3.0L2.5,-0.5"/>
                </g>
        </g>
        <svg viewBox="0 0 15 15" width="100%" height="30px" preserveAspectRatio="xMaxYMin meet">
         <g id="arrow_out" transform="scale(0.3 0.3)">
          <a xlink:href="classgui_1_1_slogo_tab__coll__graph_org.svg" target="_base">
           <rect id="button" ry="5" rx="5" y="6" x="6" height="38" width="38"
                fill="#f2f5e9" fill-opacity="0.5" stroke="#606060" stroke-width="1.0"/>
           <path id="arrow"
             d="M 11.500037,31.436501 C 11.940474,20.09759 22.043105,11.32322 32.158766,21.979434 L 37.068811,17.246167 C 37.068811,17.246167 37.088388,32 37.088388,32 L 22.160133,31.978069 C 22.160133,31.978069 26.997745,27.140456 26.997745,27.140456 C 18.528582,18.264221 13.291696,25.230495 11.500037,31.436501 z"
             style="fill:#404040;"/>
          </a>
         </g>
        </svg>
</svg>
