<?xml version="1.0" encoding="UTF-8" standalone="no"?>
<!DOCTYPE svg PUBLIC "-//W3C//DTD SVG 1.1//EN"
 "http://www.w3.org/Graphics/SVG/1.1/DTD/svg11.dtd">
<!-- Generated by graphviz version 2.36.0 (20140111.2315)
 -->
<!-- Title: backend.SLogoParser.parseProgram Pages: 1 -->
<svg width="638pt" height="267pt"
 viewBox="0.00 0.00 638.00 267.00" xmlns="http://www.w3.org/2000/svg" xmlns:xlink="http://www.w3.org/1999/xlink">
<g id="graph0" class="graph" transform="scale(1 1) rotate(0) translate(4 263)">
<title>backend.SLogoParser.parseProgram</title>
<polygon fill="white" stroke="none" points="-4,4 -4,-263 634,-263 634,4 -4,4"/>
<!-- Node1 -->
<g id="node1" class="node"><title>Node1</title>
<polygon fill="#bfbfbf" stroke="black" points="0.5,-93 0.5,-123 149.5,-123 149.5,-93 0.5,-93"/>
<text text-anchor="start" x="8.5" y="-111" font-family="Helvetica,sans-Serif" font-size="10.00">backend.SLogoParser.parse</text>
<text text-anchor="middle" x="75" y="-100" font-family="Helvetica,sans-Serif" font-size="10.00">Program</text>
</g>
<!-- Node2 -->
<g id="node2" class="node"><title>Node2</title>
<g id="a_node2"><a xlink:href="../../da/d26/classbackend_1_1_s_logo_parser.html#abf912baf814309e272be917bb52deb44" target="_top" xlink:title="backend.SLogoParser.bubbleUp">
<polygon fill="white" stroke="black" points="209,-180.5 209,-199.5 377,-199.5 377,-180.5 209,-180.5"/>
<text text-anchor="middle" x="293" y="-187.5" font-family="Helvetica,sans-Serif" font-size="10.00">backend.SLogoParser.bubbleUp</text>
</a>
</g>
</g>
<!-- Node1&#45;&gt;Node2 -->
<g id="edge1" class="edge"><title>Node1&#45;&gt;Node2</title>
<path fill="none" stroke="midnightblue" d="M104.386,-123.019C126.274,-134.203 157.518,-149.322 186,-160 204.132,-166.798 224.503,-172.912 242.505,-177.819"/>
<polygon fill="midnightblue" stroke="midnightblue" points="241.668,-181.218 252.233,-180.417 243.475,-174.455 241.668,-181.218"/>
</g>
<!-- Node5 -->
<g id="node5" class="node"><title>Node5</title>
<g id="a_node5"><a xlink:href="../../dc/d83/classbackend_1_1command_1_1_command.html#a797a1969764a5e1f6c4f1c546900467f" target="_top" xlink:title="backend.command.Command.needs\lParams">
<polygon fill="white" stroke="black" points="436,-131 436,-161 630,-161 630,-131 436,-131"/>
<text text-anchor="start" x="444" y="-149" font-family="Helvetica,sans-Serif" font-size="10.00">backend.command.Command.needs</text>
<text text-anchor="middle" x="533" y="-138" font-family="Helvetica,sans-Serif" font-size="10.00">Params</text>
</a>
</g>
</g>
<!-- Node1&#45;&gt;Node5 -->
<g id="edge9" class="edge"><title>Node1&#45;&gt;Node5</title>
<path fill="none" stroke="midnightblue" d="M149.793,-121.958C161.859,-123.891 174.254,-125.668 186,-127 266.027,-136.078 356.979,-140.857 425.542,-143.351"/>
<polygon fill="midnightblue" stroke="midnightblue" points="425.803,-146.862 435.92,-143.718 426.05,-139.867 425.803,-146.862"/>
</g>
<!-- Node6 -->
<g id="node6" class="node"><title>Node6</title>
<g id="a_node6"><a xlink:href="../../da/d26/classbackend_1_1_s_logo_parser.html#a92ec53b6f04874545e5907a2127a2ec6" target="_top" xlink:title="backend.SLogoParser.genPropertyList">
<polygon fill="white" stroke="black" points="194.5,-98.5 194.5,-117.5 391.5,-117.5 391.5,-98.5 194.5,-98.5"/>
<text text-anchor="middle" x="293" y="-105.5" font-family="Helvetica,sans-Serif" font-size="10.00">backend.SLogoParser.genPropertyList</text>
</a>
</g>
</g>
<!-- Node1&#45;&gt;Node6 -->
<g id="edge5" class="edge"><title>Node1&#45;&gt;Node6</title>
<path fill="none" stroke="midnightblue" d="M149.731,-108C160.79,-108 172.384,-108 183.979,-108"/>
<polygon fill="midnightblue" stroke="midnightblue" points="184.155,-111.5 194.155,-108 184.155,-104.5 184.155,-111.5"/>
</g>
<!-- Node8 -->
<g id="node8" class="node"><title>Node8</title>
<g id="a_node8"><a xlink:href="../../d3/dd9/classbackend_1_1command_1_1_command_factory.html#a9bab90874aa013a30c13ea158ca54a1b" target="_top" xlink:title="backend.command.CommandFactory.get\lCommand">
<polygon fill="white" stroke="black" points="186,-49 186,-79 400,-79 400,-49 186,-49"/>
<text text-anchor="start" x="194" y="-67" font-family="Helvetica,sans-Serif" font-size="10.00">backend.command.CommandFactory.get</text>
<text text-anchor="middle" x="293" y="-56" font-family="Helvetica,sans-Serif" font-size="10.00">Command</text>
</a>
</g>
</g>
<!-- Node1&#45;&gt;Node8 -->
<g id="edge7" class="edge"><title>Node1&#45;&gt;Node8</title>
<path fill="none" stroke="midnightblue" d="M149.731,-92.9808C168.568,-89.1436 188.957,-84.9903 208.256,-81.0589"/>
<polygon fill="midnightblue" stroke="midnightblue" points="209.135,-84.4519 218.235,-79.0262 207.738,-77.5928 209.135,-84.4519"/>
</g>
<!-- Node10 -->
<g id="node10" class="node"><title>Node10</title>
<g id="a_node10"><a xlink:href="../../dc/d83/classbackend_1_1command_1_1_command.html#a9ef994d5348efbb5d5d07aae9e95f8c7" target="_top" xlink:title="backend.command.Command.set\lParam">
<polygon fill="white" stroke="black" points="203,-0 203,-30 383,-30 383,-0 203,-0"/>
<text text-anchor="start" x="211" y="-18" font-family="Helvetica,sans-Serif" font-size="10.00">backend.command.Command.set</text>
<text text-anchor="middle" x="293" y="-7" font-family="Helvetica,sans-Serif" font-size="10.00">Param</text>
</a>
</g>
</g>
<!-- Node1&#45;&gt;Node10 -->
<g id="edge10" class="edge"><title>Node1&#45;&gt;Node10</title>
<path fill="none" stroke="midnightblue" d="M95.5557,-92.8483C116.726,-77.1593 152.034,-53.0194 186,-39 191.307,-36.8094 196.851,-34.8005 202.499,-32.961"/>
<polygon fill="midnightblue" stroke="midnightblue" points="203.546,-36.301 212.08,-30.0231 201.493,-29.6085 203.546,-36.301"/>
</g>
<!-- Node3 -->
<g id="node3" class="node"><title>Node3</title>
<g id="a_node3"><a xlink:href="../../dc/d83/classbackend_1_1command_1_1_command.html#a31b43fc38f3817b961dd64f94b2e8b30" target="_top" xlink:title="backend.command.Command.get\lParent">
<polygon fill="white" stroke="black" points="442.5,-229 442.5,-259 623.5,-259 623.5,-229 442.5,-229"/>
<text text-anchor="start" x="450.5" y="-247" font-family="Helvetica,sans-Serif" font-size="10.00">backend.command.Command.get</text>
<text text-anchor="middle" x="533" y="-236" font-family="Helvetica,sans-Serif" font-size="10.00">Parent</text>
</a>
</g>
</g>
<!-- Node2&#45;&gt;Node3 -->
<g id="edge2" class="edge"><title>Node2&#45;&gt;Node3</title>
<path fill="none" stroke="midnightblue" d="M336.002,-199.53C369.095,-207.038 416.11,-217.706 455.798,-226.71"/>
<polygon fill="midnightblue" stroke="midnightblue" points="455.191,-230.162 465.717,-228.961 456.74,-223.335 455.191,-230.162"/>
</g>
<!-- Node4 -->
<g id="node4" class="node"><title>Node4</title>
<g id="a_node4"><a xlink:href="../../dc/d83/classbackend_1_1command_1_1_command.html#ac25177ccf23f2721bbe77b69a31c1bf7" target="_top" xlink:title="backend.command.Command.has\lParent">
<polygon fill="white" stroke="black" points="442,-180 442,-210 624,-210 624,-180 442,-180"/>
<text text-anchor="start" x="450" y="-198" font-family="Helvetica,sans-Serif" font-size="10.00">backend.command.Command.has</text>
<text text-anchor="middle" x="533" y="-187" font-family="Helvetica,sans-Serif" font-size="10.00">Parent</text>
</a>
</g>
</g>
<!-- Node2&#45;&gt;Node4 -->
<g id="edge3" class="edge"><title>Node2&#45;&gt;Node4</title>
<path fill="none" stroke="midnightblue" d="M377.241,-191.749C394.885,-192.119 413.685,-192.514 431.881,-192.897"/>
<polygon fill="midnightblue" stroke="midnightblue" points="431.845,-196.397 441.916,-193.107 431.992,-189.398 431.845,-196.397"/>
</g>
<!-- Node2&#45;&gt;Node5 -->
<g id="edge4" class="edge"><title>Node2&#45;&gt;Node5</title>
<path fill="none" stroke="midnightblue" d="M345.642,-180.453C373.395,-175.322 408.437,-168.844 440.624,-162.893"/>
<polygon fill="midnightblue" stroke="midnightblue" points="441.313,-166.325 450.51,-161.065 440.04,-159.442 441.313,-166.325"/>
</g>
<!-- Node7 -->
<g id="node7" class="node"><title>Node7</title>
<g id="a_node7"><a xlink:href="../../da/d26/classbackend_1_1_s_logo_parser.html#a41ac32c750f00046deec48038e19664c" target="_top" xlink:title="backend.SLogoParser.match">
<polygon fill="white" stroke="black" points="456.5,-92.5 456.5,-111.5 609.5,-111.5 609.5,-92.5 456.5,-92.5"/>
<text text-anchor="middle" x="533" y="-99.5" font-family="Helvetica,sans-Serif" font-size="10.00">backend.SLogoParser.match</text>
</a>
</g>
</g>
<!-- Node6&#45;&gt;Node7 -->
<g id="edge6" class="edge"><title>Node6&#45;&gt;Node7</title>
<path fill="none" stroke="midnightblue" d="M391.834,-105.534C409.84,-105.08 428.513,-104.609 446.133,-104.165"/>
<polygon fill="midnightblue" stroke="midnightblue" points="446.465,-107.658 456.373,-103.907 446.288,-100.66 446.465,-107.658"/>
</g>
<!-- Node9 -->
<g id="node9" class="node"><title>Node9</title>
<g id="a_node9"><a xlink:href="../../d0/d6a/classbackend_1_1_string_pair.html#a3c1a0b191da0a8faf50f4da7ca126b58" target="_top" xlink:title="backend.StringPair.getProperty">
<polygon fill="white" stroke="black" points="451,-54.5 451,-73.5 615,-73.5 615,-54.5 451,-54.5"/>
<text text-anchor="middle" x="533" y="-61.5" font-family="Helvetica,sans-Serif" font-size="10.00">backend.StringPair.getProperty</text>
</a>
</g>
</g>
<!-- Node8&#45;&gt;Node9 -->
<g id="edge8" class="edge"><title>Node8&#45;&gt;Node9</title>
<path fill="none" stroke="midnightblue" d="M400.123,-64C413.656,-64 427.413,-64 440.684,-64"/>
<polygon fill="midnightblue" stroke="midnightblue" points="440.726,-67.5001 450.726,-64 440.726,-60.5001 440.726,-67.5001"/>
</g>
</g>
</svg>
