<?xml version="1.0" encoding="UTF-8" standalone="no"?>
<!DOCTYPE svg PUBLIC "-//W3C//DTD SVG 1.1//EN"
 "http://www.w3.org/Graphics/SVG/1.1/DTD/svg11.dtd">
<!-- Generated by graphviz version 2.36.0 (20140111.2315)
 -->
<!-- Title: backend.SLogoParser.bubbleUp Pages: 1 -->
<svg width="914pt" height="38pt"
 viewBox="0.00 0.00 914.00 38.00" xmlns="http://www.w3.org/2000/svg" xmlns:xlink="http://www.w3.org/1999/xlink">
<g id="graph0" class="graph" transform="scale(1 1) rotate(0) translate(4 34)">
<title>backend.SLogoParser.bubbleUp</title>
<polygon fill="white" stroke="none" points="-4,4 -4,-34 910,-34 910,4 -4,4"/>
<!-- Node1 -->
<g id="node1" class="node"><title>Node1</title>
<polygon fill="#bfbfbf" stroke="black" points="0,-5.5 0,-24.5 168,-24.5 168,-5.5 0,-5.5"/>
<text text-anchor="middle" x="84" y="-12.5" font-family="Helvetica,sans-Serif" font-size="10.00">backend.SLogoParser.bubbleUp</text>
</g>
<!-- Node2 -->
<g id="node2" class="node"><title>Node2</title>
<g id="a_node2"><a xlink:href="../../da/d26/classbackend_1_1_s_logo_parser.html#a86664390860bb0e249880e3116024485" target="_top" xlink:title="backend.SLogoParser.parse\lProgram">
<polygon fill="white" stroke="black" points="204.5,-0 204.5,-30 353.5,-30 353.5,-0 204.5,-0"/>
<text text-anchor="start" x="212.5" y="-18" font-family="Helvetica,sans-Serif" font-size="10.00">backend.SLogoParser.parse</text>
<text text-anchor="middle" x="279" y="-7" font-family="Helvetica,sans-Serif" font-size="10.00">Program</text>
</a>
</g>
</g>
<!-- Node1&#45;&gt;Node2 -->
<g id="edge1" class="edge"><title>Node1&#45;&gt;Node2</title>
<path fill="none" stroke="midnightblue" d="M178.457,-15C187.179,-15 195.935,-15 204.438,-15"/>
<polygon fill="midnightblue" stroke="midnightblue" points="178.25,-11.5001 168.25,-15 178.25,-18.5001 178.25,-11.5001"/>
</g>
<!-- Node3 -->
<g id="node3" class="node"><title>Node3</title>
<g id="a_node3"><a xlink:href="../../d3/dac/classbackend_1_1_model.html#adbef0c902e277446afa17a84278c15ba" target="_top" xlink:title="backend.Model.parseProgram">
<polygon fill="white" stroke="black" points="390,-5.5 390,-24.5 550,-24.5 550,-5.5 390,-5.5"/>
<text text-anchor="middle" x="470" y="-12.5" font-family="Helvetica,sans-Serif" font-size="10.00">backend.Model.parseProgram</text>
</a>
</g>
</g>
<!-- Node2&#45;&gt;Node3 -->
<g id="edge2" class="edge"><title>Node2&#45;&gt;Node3</title>
<path fill="none" stroke="midnightblue" d="M363.763,-15C372.473,-15 381.306,-15 389.961,-15"/>
<polygon fill="midnightblue" stroke="midnightblue" points="363.614,-11.5001 353.614,-15 363.613,-18.5001 363.614,-11.5001"/>
</g>
<!-- Node4 -->
<g id="node4" class="node"><title>Node4</title>
<g id="a_node4"><a xlink:href="../../d5/d8a/classgui_1_1_slogo_tab.html#a2a016875b2ea48fa761cd4408a78dd21" target="_top" xlink:title="gui.SlogoTab.setButtonActions">
<polygon fill="white" stroke="black" points="586,-5.5 586,-24.5 748,-24.5 748,-5.5 586,-5.5"/>
<text text-anchor="middle" x="667" y="-12.5" font-family="Helvetica,sans-Serif" font-size="10.00">gui.SlogoTab.setButtonActions</text>
</a>
</g>
</g>
<!-- Node3&#45;&gt;Node4 -->
<g id="edge3" class="edge"><title>Node3&#45;&gt;Node4</title>
<path fill="none" stroke="midnightblue" d="M560.083,-15C568.692,-15 577.389,-15 585.903,-15"/>
<polygon fill="midnightblue" stroke="midnightblue" points="560.033,-11.5001 550.033,-15 560.033,-18.5001 560.033,-11.5001"/>
</g>
<!-- Node5 -->
<g id="node5" class="node"><title>Node5</title>
<g id="a_node5"><a xlink:href="../../d5/d8a/classgui_1_1_slogo_tab.html#adaa134bc95e1dcf4eb30b3a185c75175" target="_top" xlink:title="gui.SlogoTab.SlogoTab">
<polygon fill="white" stroke="black" points="784,-5.5 784,-24.5 906,-24.5 906,-5.5 784,-5.5"/>
<text text-anchor="middle" x="845" y="-12.5" font-family="Helvetica,sans-Serif" font-size="10.00">gui.SlogoTab.SlogoTab</text>
</a>
</g>
</g>
<!-- Node4&#45;&gt;Node5 -->
<g id="edge4" class="edge"><title>Node4&#45;&gt;Node5</title>
<path fill="none" stroke="midnightblue" d="M758.235,-15C766.945,-15 775.626,-15 783.936,-15"/>
<polygon fill="midnightblue" stroke="midnightblue" points="758.018,-11.5001 748.018,-15 758.018,-18.5001 758.018,-11.5001"/>
</g>
</g>
</svg>
