<?xml version="1.0" encoding="UTF-8" standalone="no"?>
<!DOCTYPE svg PUBLIC "-//W3C//DTD SVG 1.1//EN"
 "http://www.w3.org/Graphics/SVG/1.1/DTD/svg11.dtd">
<!-- Generated by graphviz version 2.36.0 (20140111.2315)
 -->
<!-- Title: backend.SLogoParser.changeLanguage Pages: 1 -->
<svg width="884pt" height="38pt"
 viewBox="0.00 0.00 884.00 38.00" xmlns="http://www.w3.org/2000/svg" xmlns:xlink="http://www.w3.org/1999/xlink">
<g id="graph0" class="graph" transform="scale(1 1) rotate(0) translate(4 34)">
<title>backend.SLogoParser.changeLanguage</title>
<polygon fill="white" stroke="none" points="-4,4 -4,-34 880,-34 880,4 -4,4"/>
<!-- Node1 -->
<g id="node1" class="node"><title>Node1</title>
<polygon fill="#bfbfbf" stroke="black" points="0,-0 0,-30 158,-30 158,-0 0,-0"/>
<text text-anchor="start" x="8" y="-18" font-family="Helvetica,sans-Serif" font-size="10.00">backend.SLogoParser.change</text>
<text text-anchor="middle" x="79" y="-7" font-family="Helvetica,sans-Serif" font-size="10.00">Language</text>
</g>
<!-- Node2 -->
<g id="node2" class="node"><title>Node2</title>
<g id="a_node2"><a xlink:href="../../d3/dac/classbackend_1_1_model.html#af35843b86c053f153827af5c7387eda6" target="_top" xlink:title="backend.Model.setLanguage">
<polygon fill="white" stroke="black" points="194,-5.5 194,-24.5 348,-24.5 348,-5.5 194,-5.5"/>
<text text-anchor="middle" x="271" y="-12.5" font-family="Helvetica,sans-Serif" font-size="10.00">backend.Model.setLanguage</text>
</a>
</g>
</g>
<!-- Node1&#45;&gt;Node2 -->
<g id="edge1" class="edge"><title>Node1&#45;&gt;Node2</title>
<path fill="none" stroke="midnightblue" d="M168.381,-15C176.852,-15 185.393,-15 193.733,-15"/>
<polygon fill="midnightblue" stroke="midnightblue" points="168.103,-11.5001 158.103,-15 168.103,-18.5001 168.103,-11.5001"/>
</g>
<!-- Node3 -->
<g id="node3" class="node"><title>Node3</title>
<g id="a_node3"><a xlink:href="../../dd/d24/classgui_1_1_top_menu.html#aa9f461ca1d36369a75efbb935391e413" target="_top" xlink:title="gui.TopMenu.createLanguage\lMenuItems">
<polygon fill="white" stroke="black" points="384.5,-0 384.5,-30 541.5,-30 541.5,-0 384.5,-0"/>
<text text-anchor="start" x="392.5" y="-18" font-family="Helvetica,sans-Serif" font-size="10.00">gui.TopMenu.createLanguage</text>
<text text-anchor="middle" x="463" y="-7" font-family="Helvetica,sans-Serif" font-size="10.00">MenuItems</text>
</a>
</g>
</g>
<!-- Node2&#45;&gt;Node3 -->
<g id="edge2" class="edge"><title>Node2&#45;&gt;Node3</title>
<path fill="none" stroke="midnightblue" d="M358.283,-15C366.937,-15 375.688,-15 384.246,-15"/>
<polygon fill="midnightblue" stroke="midnightblue" points="358.186,-11.5001 348.185,-15 358.185,-18.5001 358.186,-11.5001"/>
</g>
<!-- Node4 -->
<g id="node4" class="node"><title>Node4</title>
<g id="a_node4"><a xlink:href="../../dd/d24/classgui_1_1_top_menu.html#a2b756e05f495e2d1a4f7ea156ae612d2" target="_top" xlink:title="gui.TopMenu.addMenuBar">
<polygon fill="white" stroke="black" points="578,-5.5 578,-24.5 718,-24.5 718,-5.5 578,-5.5"/>
<text text-anchor="middle" x="648" y="-12.5" font-family="Helvetica,sans-Serif" font-size="10.00">gui.TopMenu.addMenuBar</text>
</a>
</g>
</g>
<!-- Node3&#45;&gt;Node4 -->
<g id="edge3" class="edge"><title>Node3&#45;&gt;Node4</title>
<path fill="none" stroke="midnightblue" d="M551.86,-15C560.626,-15 569.437,-15 577.97,-15"/>
<polygon fill="midnightblue" stroke="midnightblue" points="551.609,-11.5001 541.608,-15 551.608,-18.5001 551.609,-11.5001"/>
</g>
<!-- Node5 -->
<g id="node5" class="node"><title>Node5</title>
<g id="a_node5"><a xlink:href="../../dd/d24/classgui_1_1_top_menu.html#a842402ab5dfa877cfac4e5677809675a" target="_top" xlink:title="gui.TopMenu.TopMenu">
<polygon fill="white" stroke="black" points="754.5,-5.5 754.5,-24.5 875.5,-24.5 875.5,-5.5 754.5,-5.5"/>
<text text-anchor="middle" x="815" y="-12.5" font-family="Helvetica,sans-Serif" font-size="10.00">gui.TopMenu.TopMenu</text>
</a>
</g>
</g>
<!-- Node4&#45;&gt;Node5 -->
<g id="edge4" class="edge"><title>Node4&#45;&gt;Node5</title>
<path fill="none" stroke="midnightblue" d="M728.297,-15C737.092,-15 745.936,-15 754.428,-15"/>
<polygon fill="midnightblue" stroke="midnightblue" points="728.019,-11.5001 718.019,-15 728.019,-18.5001 728.019,-11.5001"/>
</g>
</g>
</svg>
