<?xml version="1.0" encoding="UTF-8" standalone="no"?>
<!DOCTYPE svg PUBLIC "-//W3C//DTD SVG 1.1//EN"
 "http://www.w3.org/Graphics/SVG/1.1/DTD/svg11.dtd">
<!-- Generated by graphviz version 2.36.0 (20140111.2315)
 -->
<!-- Title: backend.SLogoParser.genPatternList Pages: 1 -->
<svg width="1112pt" height="87pt"
 viewBox="0.00 0.00 1112.00 87.00" xmlns="http://www.w3.org/2000/svg" xmlns:xlink="http://www.w3.org/1999/xlink">
<g id="graph0" class="graph" transform="scale(1 1) rotate(0) translate(4 83)">
<title>backend.SLogoParser.genPatternList</title>
<polygon fill="white" stroke="none" points="-4,4 -4,-83 1108,-83 1108,4 -4,4"/>
<!-- Node1 -->
<g id="node1" class="node"><title>Node1</title>
<polygon fill="#bfbfbf" stroke="black" points="0.5,-29.5 0.5,-48.5 191.5,-48.5 191.5,-29.5 0.5,-29.5"/>
<text text-anchor="middle" x="96" y="-36.5" font-family="Helvetica,sans-Serif" font-size="10.00">backend.SLogoParser.genPatternList</text>
</g>
<!-- Node2 -->
<g id="node2" class="node"><title>Node2</title>
<g id="a_node2"><a xlink:href="../../da/d26/classbackend_1_1_s_logo_parser.html#a83c48627f6266e49569fe3300cb464fd" target="_top" xlink:title="backend.SLogoParser.change\lLanguage">
<polygon fill="white" stroke="black" points="228,-49 228,-79 386,-79 386,-49 228,-49"/>
<text text-anchor="start" x="236" y="-67" font-family="Helvetica,sans-Serif" font-size="10.00">backend.SLogoParser.change</text>
<text text-anchor="middle" x="307" y="-56" font-family="Helvetica,sans-Serif" font-size="10.00">Language</text>
</a>
</g>
</g>
<!-- Node1&#45;&gt;Node2 -->
<g id="edge1" class="edge"><title>Node1&#45;&gt;Node2</title>
<path fill="none" stroke="midnightblue" d="M186.569,-49.714C200.352,-51.3627 214.488,-53.0536 227.993,-54.669"/>
<polygon fill="midnightblue" stroke="midnightblue" points="186.955,-46.2353 176.61,-48.5227 186.124,-53.1858 186.955,-46.2353"/>
</g>
<!-- Node7 -->
<g id="node7" class="node"><title>Node7</title>
<g id="a_node7"><a xlink:href="../../da/d26/classbackend_1_1_s_logo_parser.html#a96c2f326bee6a9d8434f43119d4dea12" target="_top" xlink:title="backend.SLogoParser.SLogo\lParser">
<polygon fill="white" stroke="black" points="231,-0 231,-30 383,-30 383,-0 231,-0"/>
<text text-anchor="start" x="239" y="-18" font-family="Helvetica,sans-Serif" font-size="10.00">backend.SLogoParser.SLogo</text>
<text text-anchor="middle" x="307" y="-7" font-family="Helvetica,sans-Serif" font-size="10.00">Parser</text>
</a>
</g>
</g>
<!-- Node1&#45;&gt;Node7 -->
<g id="edge6" class="edge"><title>Node1&#45;&gt;Node7</title>
<path fill="none" stroke="midnightblue" d="M189.862,-28.3365C203.624,-26.7561 217.659,-25.1444 230.996,-23.6129"/>
<polygon fill="midnightblue" stroke="midnightblue" points="189.438,-24.862 179.903,-29.4801 190.237,-31.8163 189.438,-24.862"/>
</g>
<!-- Node3 -->
<g id="node3" class="node"><title>Node3</title>
<g id="a_node3"><a xlink:href="../../d3/dac/classbackend_1_1_model.html#af35843b86c053f153827af5c7387eda6" target="_top" xlink:title="backend.Model.setLanguage">
<polygon fill="white" stroke="black" points="422,-54.5 422,-73.5 576,-73.5 576,-54.5 422,-54.5"/>
<text text-anchor="middle" x="499" y="-61.5" font-family="Helvetica,sans-Serif" font-size="10.00">backend.Model.setLanguage</text>
</a>
</g>
</g>
<!-- Node2&#45;&gt;Node3 -->
<g id="edge2" class="edge"><title>Node2&#45;&gt;Node3</title>
<path fill="none" stroke="midnightblue" d="M396.381,-64C404.852,-64 413.393,-64 421.733,-64"/>
<polygon fill="midnightblue" stroke="midnightblue" points="396.103,-60.5001 386.103,-64 396.103,-67.5001 396.103,-60.5001"/>
</g>
<!-- Node4 -->
<g id="node4" class="node"><title>Node4</title>
<g id="a_node4"><a xlink:href="../../dd/d24/classgui_1_1_top_menu.html#aa9f461ca1d36369a75efbb935391e413" target="_top" xlink:title="gui.TopMenu.createLanguage\lMenuItems">
<polygon fill="white" stroke="black" points="612.5,-49 612.5,-79 769.5,-79 769.5,-49 612.5,-49"/>
<text text-anchor="start" x="620.5" y="-67" font-family="Helvetica,sans-Serif" font-size="10.00">gui.TopMenu.createLanguage</text>
<text text-anchor="middle" x="691" y="-56" font-family="Helvetica,sans-Serif" font-size="10.00">MenuItems</text>
</a>
</g>
</g>
<!-- Node3&#45;&gt;Node4 -->
<g id="edge3" class="edge"><title>Node3&#45;&gt;Node4</title>
<path fill="none" stroke="midnightblue" d="M586.283,-64C594.937,-64 603.688,-64 612.246,-64"/>
<polygon fill="midnightblue" stroke="midnightblue" points="586.186,-60.5001 576.185,-64 586.185,-67.5001 586.186,-60.5001"/>
</g>
<!-- Node5 -->
<g id="node5" class="node"><title>Node5</title>
<g id="a_node5"><a xlink:href="../../dd/d24/classgui_1_1_top_menu.html#a2b756e05f495e2d1a4f7ea156ae612d2" target="_top" xlink:title="gui.TopMenu.addMenuBar">
<polygon fill="white" stroke="black" points="806,-54.5 806,-73.5 946,-73.5 946,-54.5 806,-54.5"/>
<text text-anchor="middle" x="876" y="-61.5" font-family="Helvetica,sans-Serif" font-size="10.00">gui.TopMenu.addMenuBar</text>
</a>
</g>
</g>
<!-- Node4&#45;&gt;Node5 -->
<g id="edge4" class="edge"><title>Node4&#45;&gt;Node5</title>
<path fill="none" stroke="midnightblue" d="M779.86,-64C788.626,-64 797.437,-64 805.97,-64"/>
<polygon fill="midnightblue" stroke="midnightblue" points="779.609,-60.5001 769.608,-64 779.608,-67.5001 779.609,-60.5001"/>
</g>
<!-- Node6 -->
<g id="node6" class="node"><title>Node6</title>
<g id="a_node6"><a xlink:href="../../dd/d24/classgui_1_1_top_menu.html#a842402ab5dfa877cfac4e5677809675a" target="_top" xlink:title="gui.TopMenu.TopMenu">
<polygon fill="white" stroke="black" points="982.5,-54.5 982.5,-73.5 1103.5,-73.5 1103.5,-54.5 982.5,-54.5"/>
<text text-anchor="middle" x="1043" y="-61.5" font-family="Helvetica,sans-Serif" font-size="10.00">gui.TopMenu.TopMenu</text>
</a>
</g>
</g>
<!-- Node5&#45;&gt;Node6 -->
<g id="edge5" class="edge"><title>Node5&#45;&gt;Node6</title>
<path fill="none" stroke="midnightblue" d="M956.297,-64C965.092,-64 973.936,-64 982.428,-64"/>
<polygon fill="midnightblue" stroke="midnightblue" points="956.019,-60.5001 946.019,-64 956.019,-67.5001 956.019,-60.5001"/>
</g>
</g>
</svg>
