<?xml version="1.0" encoding="UTF-8" standalone="no"?>
<!DOCTYPE svg PUBLIC "-//W3C//DTD SVG 1.1//EN"
 "http://www.w3.org/Graphics/SVG/1.1/DTD/svg11.dtd">
<!-- Generated by graphviz version 2.36.0 (20140111.2315)
 -->
<!-- Title: backend.SLogoParser.makePatterns Pages: 1 -->
<svg width="1298pt" height="87pt"
 viewBox="0.00 0.00 1298.00 87.00" xmlns="http://www.w3.org/2000/svg" xmlns:xlink="http://www.w3.org/1999/xlink">
<g id="graph0" class="graph" transform="scale(1 1) rotate(0) translate(4 83)">
<title>backend.SLogoParser.makePatterns</title>
<polygon fill="white" stroke="none" points="-4,4 -4,-83 1294,-83 1294,4 -4,4"/>
<!-- Node1 -->
<g id="node1" class="node"><title>Node1</title>
<polygon fill="#bfbfbf" stroke="black" points="0.5,-24 0.5,-54 149.5,-54 149.5,-24 0.5,-24"/>
<text text-anchor="start" x="8.5" y="-42" font-family="Helvetica,sans-Serif" font-size="10.00">backend.SLogoParser.make</text>
<text text-anchor="middle" x="75" y="-31" font-family="Helvetica,sans-Serif" font-size="10.00">Patterns</text>
</g>
<!-- Node2 -->
<g id="node2" class="node"><title>Node2</title>
<g id="a_node2"><a xlink:href="../../da/d26/classbackend_1_1_s_logo_parser.html#a82d15a04544ef7a74f5108c32efe777c" target="_top" xlink:title="backend.SLogoParser.genPatternList">
<polygon fill="white" stroke="black" points="186.5,-29.5 186.5,-48.5 377.5,-48.5 377.5,-29.5 186.5,-29.5"/>
<text text-anchor="middle" x="282" y="-36.5" font-family="Helvetica,sans-Serif" font-size="10.00">backend.SLogoParser.genPatternList</text>
</a>
</g>
</g>
<!-- Node1&#45;&gt;Node2 -->
<g id="edge1" class="edge"><title>Node1&#45;&gt;Node2</title>
<path fill="none" stroke="midnightblue" d="M159.812,-39C168.495,-39 177.363,-39 186.155,-39"/>
<polygon fill="midnightblue" stroke="midnightblue" points="159.72,-35.5001 149.72,-39 159.72,-42.5001 159.72,-35.5001"/>
</g>
<!-- Node3 -->
<g id="node3" class="node"><title>Node3</title>
<g id="a_node3"><a xlink:href="../../da/d26/classbackend_1_1_s_logo_parser.html#a83c48627f6266e49569fe3300cb464fd" target="_top" xlink:title="backend.SLogoParser.change\lLanguage">
<polygon fill="white" stroke="black" points="414,-49 414,-79 572,-79 572,-49 414,-49"/>
<text text-anchor="start" x="422" y="-67" font-family="Helvetica,sans-Serif" font-size="10.00">backend.SLogoParser.change</text>
<text text-anchor="middle" x="493" y="-56" font-family="Helvetica,sans-Serif" font-size="10.00">Language</text>
</a>
</g>
</g>
<!-- Node2&#45;&gt;Node3 -->
<g id="edge2" class="edge"><title>Node2&#45;&gt;Node3</title>
<path fill="none" stroke="midnightblue" d="M372.569,-49.714C386.352,-51.3627 400.488,-53.0536 413.993,-54.669"/>
<polygon fill="midnightblue" stroke="midnightblue" points="372.955,-46.2353 362.61,-48.5227 372.124,-53.1858 372.955,-46.2353"/>
</g>
<!-- Node8 -->
<g id="node8" class="node"><title>Node8</title>
<g id="a_node8"><a xlink:href="../../da/d26/classbackend_1_1_s_logo_parser.html#a96c2f326bee6a9d8434f43119d4dea12" target="_top" xlink:title="backend.SLogoParser.SLogo\lParser">
<polygon fill="white" stroke="black" points="417,-0 417,-30 569,-30 569,-0 417,-0"/>
<text text-anchor="start" x="425" y="-18" font-family="Helvetica,sans-Serif" font-size="10.00">backend.SLogoParser.SLogo</text>
<text text-anchor="middle" x="493" y="-7" font-family="Helvetica,sans-Serif" font-size="10.00">Parser</text>
</a>
</g>
</g>
<!-- Node2&#45;&gt;Node8 -->
<g id="edge7" class="edge"><title>Node2&#45;&gt;Node8</title>
<path fill="none" stroke="midnightblue" d="M375.862,-28.3365C389.624,-26.7561 403.659,-25.1444 416.996,-23.6129"/>
<polygon fill="midnightblue" stroke="midnightblue" points="375.438,-24.862 365.903,-29.4801 376.237,-31.8163 375.438,-24.862"/>
</g>
<!-- Node4 -->
<g id="node4" class="node"><title>Node4</title>
<g id="a_node4"><a xlink:href="../../d3/dac/classbackend_1_1_model.html#af35843b86c053f153827af5c7387eda6" target="_top" xlink:title="backend.Model.setLanguage">
<polygon fill="white" stroke="black" points="608,-54.5 608,-73.5 762,-73.5 762,-54.5 608,-54.5"/>
<text text-anchor="middle" x="685" y="-61.5" font-family="Helvetica,sans-Serif" font-size="10.00">backend.Model.setLanguage</text>
</a>
</g>
</g>
<!-- Node3&#45;&gt;Node4 -->
<g id="edge3" class="edge"><title>Node3&#45;&gt;Node4</title>
<path fill="none" stroke="midnightblue" d="M582.381,-64C590.852,-64 599.393,-64 607.733,-64"/>
<polygon fill="midnightblue" stroke="midnightblue" points="582.103,-60.5001 572.103,-64 582.103,-67.5001 582.103,-60.5001"/>
</g>
<!-- Node5 -->
<g id="node5" class="node"><title>Node5</title>
<g id="a_node5"><a xlink:href="../../dd/d24/classgui_1_1_top_menu.html#aa9f461ca1d36369a75efbb935391e413" target="_top" xlink:title="gui.TopMenu.createLanguage\lMenuItems">
<polygon fill="white" stroke="black" points="798.5,-49 798.5,-79 955.5,-79 955.5,-49 798.5,-49"/>
<text text-anchor="start" x="806.5" y="-67" font-family="Helvetica,sans-Serif" font-size="10.00">gui.TopMenu.createLanguage</text>
<text text-anchor="middle" x="877" y="-56" font-family="Helvetica,sans-Serif" font-size="10.00">MenuItems</text>
</a>
</g>
</g>
<!-- Node4&#45;&gt;Node5 -->
<g id="edge4" class="edge"><title>Node4&#45;&gt;Node5</title>
<path fill="none" stroke="midnightblue" d="M772.283,-64C780.937,-64 789.688,-64 798.246,-64"/>
<polygon fill="midnightblue" stroke="midnightblue" points="772.186,-60.5001 762.185,-64 772.185,-67.5001 772.186,-60.5001"/>
</g>
<!-- Node6 -->
<g id="node6" class="node"><title>Node6</title>
<g id="a_node6"><a xlink:href="../../dd/d24/classgui_1_1_top_menu.html#a2b756e05f495e2d1a4f7ea156ae612d2" target="_top" xlink:title="gui.TopMenu.addMenuBar">
<polygon fill="white" stroke="black" points="992,-54.5 992,-73.5 1132,-73.5 1132,-54.5 992,-54.5"/>
<text text-anchor="middle" x="1062" y="-61.5" font-family="Helvetica,sans-Serif" font-size="10.00">gui.TopMenu.addMenuBar</text>
</a>
</g>
</g>
<!-- Node5&#45;&gt;Node6 -->
<g id="edge5" class="edge"><title>Node5&#45;&gt;Node6</title>
<path fill="none" stroke="midnightblue" d="M965.86,-64C974.626,-64 983.437,-64 991.97,-64"/>
<polygon fill="midnightblue" stroke="midnightblue" points="965.609,-60.5001 955.608,-64 965.608,-67.5001 965.609,-60.5001"/>
</g>
<!-- Node7 -->
<g id="node7" class="node"><title>Node7</title>
<g id="a_node7"><a xlink:href="../../dd/d24/classgui_1_1_top_menu.html#a842402ab5dfa877cfac4e5677809675a" target="_top" xlink:title="gui.TopMenu.TopMenu">
<polygon fill="white" stroke="black" points="1168.5,-54.5 1168.5,-73.5 1289.5,-73.5 1289.5,-54.5 1168.5,-54.5"/>
<text text-anchor="middle" x="1229" y="-61.5" font-family="Helvetica,sans-Serif" font-size="10.00">gui.TopMenu.TopMenu</text>
</a>
</g>
</g>
<!-- Node6&#45;&gt;Node7 -->
<g id="edge6" class="edge"><title>Node6&#45;&gt;Node7</title>
<path fill="none" stroke="midnightblue" d="M1142.3,-64C1151.09,-64 1159.94,-64 1168.43,-64"/>
<polygon fill="midnightblue" stroke="midnightblue" points="1142.02,-60.5001 1132.02,-64 1142.02,-67.5001 1142.02,-60.5001"/>
</g>
</g>
</svg>
