<?xml version="1.0" encoding="UTF-8" standalone="no"?>
<!DOCTYPE svg PUBLIC "-//W3C//DTD SVG 1.1//EN"
 "http://www.w3.org/Graphics/SVG/1.1/DTD/svg11.dtd">
<!-- Generated by graphviz version 2.36.0 (20140111.2315)
 -->
<!-- Title: backend.SLogoParser.parseProgram Pages: 1 -->
<svg width="710pt" height="38pt"
 viewBox="0.00 0.00 710.00 38.00" xmlns="http://www.w3.org/2000/svg" xmlns:xlink="http://www.w3.org/1999/xlink">
<g id="graph0" class="graph" transform="scale(1 1) rotate(0) translate(4 34)">
<title>backend.SLogoParser.parseProgram</title>
<polygon fill="white" stroke="none" points="-4,4 -4,-34 706,-34 706,4 -4,4"/>
<!-- Node1 -->
<g id="node1" class="node"><title>Node1</title>
<polygon fill="#bfbfbf" stroke="black" points="0.5,-0 0.5,-30 149.5,-30 149.5,-0 0.5,-0"/>
<text text-anchor="start" x="8.5" y="-18" font-family="Helvetica,sans-Serif" font-size="10.00">backend.SLogoParser.parse</text>
<text text-anchor="middle" x="75" y="-7" font-family="Helvetica,sans-Serif" font-size="10.00">Program</text>
</g>
<!-- Node2 -->
<g id="node2" class="node"><title>Node2</title>
<g id="a_node2"><a xlink:href="../../d3/dac/classbackend_1_1_model.html#adbef0c902e277446afa17a84278c15ba" target="_top" xlink:title="backend.Model.parseProgram">
<polygon fill="white" stroke="black" points="186,-5.5 186,-24.5 346,-24.5 346,-5.5 186,-5.5"/>
<text text-anchor="middle" x="266" y="-12.5" font-family="Helvetica,sans-Serif" font-size="10.00">backend.Model.parseProgram</text>
</a>
</g>
</g>
<!-- Node1&#45;&gt;Node2 -->
<g id="edge1" class="edge"><title>Node1&#45;&gt;Node2</title>
<path fill="none" stroke="midnightblue" d="M159.763,-15C168.473,-15 177.306,-15 185.961,-15"/>
<polygon fill="midnightblue" stroke="midnightblue" points="159.614,-11.5001 149.614,-15 159.613,-18.5001 159.614,-11.5001"/>
</g>
<!-- Node3 -->
<g id="node3" class="node"><title>Node3</title>
<g id="a_node3"><a xlink:href="../../d5/d8a/classgui_1_1_slogo_tab.html#a2a016875b2ea48fa761cd4408a78dd21" target="_top" xlink:title="gui.SlogoTab.setButtonActions">
<polygon fill="white" stroke="black" points="382,-5.5 382,-24.5 544,-24.5 544,-5.5 382,-5.5"/>
<text text-anchor="middle" x="463" y="-12.5" font-family="Helvetica,sans-Serif" font-size="10.00">gui.SlogoTab.setButtonActions</text>
</a>
</g>
</g>
<!-- Node2&#45;&gt;Node3 -->
<g id="edge2" class="edge"><title>Node2&#45;&gt;Node3</title>
<path fill="none" stroke="midnightblue" d="M356.083,-15C364.692,-15 373.389,-15 381.903,-15"/>
<polygon fill="midnightblue" stroke="midnightblue" points="356.033,-11.5001 346.033,-15 356.033,-18.5001 356.033,-11.5001"/>
</g>
<!-- Node4 -->
<g id="node4" class="node"><title>Node4</title>
<g id="a_node4"><a xlink:href="../../d5/d8a/classgui_1_1_slogo_tab.html#adaa134bc95e1dcf4eb30b3a185c75175" target="_top" xlink:title="gui.SlogoTab.SlogoTab">
<polygon fill="white" stroke="black" points="580,-5.5 580,-24.5 702,-24.5 702,-5.5 580,-5.5"/>
<text text-anchor="middle" x="641" y="-12.5" font-family="Helvetica,sans-Serif" font-size="10.00">gui.SlogoTab.SlogoTab</text>
</a>
</g>
</g>
<!-- Node3&#45;&gt;Node4 -->
<g id="edge3" class="edge"><title>Node3&#45;&gt;Node4</title>
<path fill="none" stroke="midnightblue" d="M554.235,-15C562.945,-15 571.626,-15 579.936,-15"/>
<polygon fill="midnightblue" stroke="midnightblue" points="554.018,-11.5001 544.018,-15 554.018,-18.5001 554.018,-11.5001"/>
</g>
</g>
</svg>
