<?xml version="1.0" encoding="UTF-8" standalone="no"?>
<!DOCTYPE svg PUBLIC "-//W3C//DTD SVG 1.1//EN"
 "http://www.w3.org/Graphics/SVG/1.1/DTD/svg11.dtd">
<!-- Generated by graphviz version 2.36.0 (20140111.2315)
 -->
<!-- Title: backend.SLogoParser.bubbleUp Pages: 1 -->
<svg width="406pt" height="136pt"
 viewBox="0.00 0.00 406.00 136.00" xmlns="http://www.w3.org/2000/svg" xmlns:xlink="http://www.w3.org/1999/xlink">
<g id="graph0" class="graph" transform="scale(1 1) rotate(0) translate(4 132)">
<title>backend.SLogoParser.bubbleUp</title>
<polygon fill="white" stroke="none" points="-4,4 -4,-132 402,-132 402,4 -4,4"/>
<!-- Node1 -->
<g id="node1" class="node"><title>Node1</title>
<polygon fill="#bfbfbf" stroke="black" points="0,-54.5 0,-73.5 168,-73.5 168,-54.5 0,-54.5"/>
<text text-anchor="middle" x="84" y="-61.5" font-family="Helvetica,sans-Serif" font-size="10.00">backend.SLogoParser.bubbleUp</text>
</g>
<!-- Node2 -->
<g id="node2" class="node"><title>Node2</title>
<g id="a_node2"><a xlink:href="../../dc/d83/classbackend_1_1command_1_1_command.html#a31b43fc38f3817b961dd64f94b2e8b30" target="_top" xlink:title="backend.command.Command.get\lParent">
<polygon fill="white" stroke="black" points="210.5,-98 210.5,-128 391.5,-128 391.5,-98 210.5,-98"/>
<text text-anchor="start" x="218.5" y="-116" font-family="Helvetica,sans-Serif" font-size="10.00">backend.command.Command.get</text>
<text text-anchor="middle" x="301" y="-105" font-family="Helvetica,sans-Serif" font-size="10.00">Parent</text>
</a>
</g>
</g>
<!-- Node1&#45;&gt;Node2 -->
<g id="edge1" class="edge"><title>Node1&#45;&gt;Node2</title>
<path fill="none" stroke="midnightblue" d="M126.709,-73.5058C154.265,-79.786 191.193,-88.2021 223.878,-95.6513"/>
<polygon fill="midnightblue" stroke="midnightblue" points="223.343,-99.119 233.871,-97.9287 224.899,-92.2941 223.343,-99.119"/>
</g>
<!-- Node3 -->
<g id="node3" class="node"><title>Node3</title>
<g id="a_node3"><a xlink:href="../../dc/d83/classbackend_1_1command_1_1_command.html#ac25177ccf23f2721bbe77b69a31c1bf7" target="_top" xlink:title="backend.command.Command.has\lParent">
<polygon fill="white" stroke="black" points="210,-49 210,-79 392,-79 392,-49 210,-49"/>
<text text-anchor="start" x="218" y="-67" font-family="Helvetica,sans-Serif" font-size="10.00">backend.command.Command.has</text>
<text text-anchor="middle" x="301" y="-56" font-family="Helvetica,sans-Serif" font-size="10.00">Parent</text>
</a>
</g>
</g>
<!-- Node1&#45;&gt;Node3 -->
<g id="edge2" class="edge"><title>Node1&#45;&gt;Node3</title>
<path fill="none" stroke="midnightblue" d="M168.125,-64C178.512,-64 189.22,-64 199.833,-64"/>
<polygon fill="midnightblue" stroke="midnightblue" points="199.964,-67.5001 209.964,-64 199.964,-60.5001 199.964,-67.5001"/>
</g>
<!-- Node4 -->
<g id="node4" class="node"><title>Node4</title>
<g id="a_node4"><a xlink:href="../../dc/d83/classbackend_1_1command_1_1_command.html#a797a1969764a5e1f6c4f1c546900467f" target="_top" xlink:title="backend.command.Command.needs\lParams">
<polygon fill="white" stroke="black" points="204,-0 204,-30 398,-30 398,-0 204,-0"/>
<text text-anchor="start" x="212" y="-18" font-family="Helvetica,sans-Serif" font-size="10.00">backend.command.Command.needs</text>
<text text-anchor="middle" x="301" y="-7" font-family="Helvetica,sans-Serif" font-size="10.00">Params</text>
</a>
</g>
</g>
<!-- Node1&#45;&gt;Node4 -->
<g id="edge3" class="edge"><title>Node1&#45;&gt;Node4</title>
<path fill="none" stroke="midnightblue" d="M126.709,-54.4942C154.265,-48.214 191.193,-39.7979 223.878,-32.3487"/>
<polygon fill="midnightblue" stroke="midnightblue" points="224.899,-35.7059 233.871,-30.0713 223.343,-28.881 224.899,-35.7059"/>
</g>
</g>
</svg>
