<?xml version="1.0" encoding="UTF-8" standalone="no"?>
<!DOCTYPE svg PUBLIC "-//W3C//DTD SVG 1.1//EN"
 "http://www.w3.org/Graphics/SVG/1.1/DTD/svg11.dtd">
<!-- Generated by graphviz version 2.36.0 (20140111.2315)
 -->
<!-- Title: backend.command.SpecifiedTurtleCommand Pages: 1 -->
<svg width="281pt" height="264pt"
 viewBox="0.00 0.00 281.00 264.00" xmlns="http://www.w3.org/2000/svg" xmlns:xlink="http://www.w3.org/1999/xlink">
<g id="graph0" class="graph" transform="scale(1 1) rotate(0) translate(4 260)">
<title>backend.command.SpecifiedTurtleCommand</title>
<polygon fill="white" stroke="none" points="-4,4 -4,-260 277,-260 277,4 -4,4"/>
<!-- Node1 -->
<g id="node1" class="node"><title>Node1</title>
<polygon fill="#bfbfbf" stroke="black" points="59.5,-57 59.5,-87 214.5,-87 214.5,-57 59.5,-57"/>
<text text-anchor="start" x="67.5" y="-75" font-family="Helvetica,sans-Serif" font-size="10.00">backend.command.Specified</text>
<text text-anchor="middle" x="137" y="-64" font-family="Helvetica,sans-Serif" font-size="10.00">TurtleCommand</text>
</g>
<!-- Node5 -->
<g id="node5" class="node"><title>Node5</title>
<g id="a_node5"><a xlink:href="../../d4/d75/classbackend_1_1command_1_1_ask.html" target="_top" xlink:title="backend.command.Ask">
<polygon fill="white" stroke="black" points="-0.5,-0.5 -0.5,-19.5 128.5,-19.5 128.5,-0.5 -0.5,-0.5"/>
<text text-anchor="middle" x="64" y="-7.5" font-family="Helvetica,sans-Serif" font-size="10.00">backend.command.Ask</text>
</a>
</g>
</g>
<!-- Node1&#45;&gt;Node5 -->
<g id="edge4" class="edge"><title>Node1&#45;&gt;Node5</title>
<path fill="none" stroke="midnightblue" d="M111.718,-50.2202C99.0194,-39.7831 84.3144,-27.6968 74.6221,-19.7305"/>
<polygon fill="midnightblue" stroke="midnightblue" points="109.752,-53.1351 119.7,-56.7808 114.197,-47.7273 109.752,-53.1351"/>
</g>
<!-- Node6 -->
<g id="node6" class="node"><title>Node6</title>
<g id="a_node6"><a xlink:href="../../de/dcc/classbackend_1_1command_1_1_tell.html" target="_top" xlink:title="backend.command.Tell">
<polygon fill="white" stroke="black" points="147,-0.5 147,-19.5 273,-19.5 273,-0.5 147,-0.5"/>
<text text-anchor="middle" x="210" y="-7.5" font-family="Helvetica,sans-Serif" font-size="10.00">backend.command.Tell</text>
</a>
</g>
</g>
<!-- Node1&#45;&gt;Node6 -->
<g id="edge5" class="edge"><title>Node1&#45;&gt;Node6</title>
<path fill="none" stroke="midnightblue" d="M162.282,-50.2202C174.981,-39.7831 189.686,-27.6968 199.378,-19.7305"/>
<polygon fill="midnightblue" stroke="midnightblue" points="159.803,-47.7273 154.3,-56.7808 164.248,-53.1351 159.803,-47.7273"/>
</g>
<!-- Node2 -->
<g id="node2" class="node"><title>Node2</title>
<g id="a_node2"><a xlink:href="../../d5/dfc/classbackend_1_1command_1_1_turtle_command.html" target="_top" xlink:title="backend.command.TurtleCommand">
<polygon fill="white" stroke="black" points="43,-124.5 43,-143.5 231,-143.5 231,-124.5 43,-124.5"/>
<text text-anchor="middle" x="137" y="-131.5" font-family="Helvetica,sans-Serif" font-size="10.00">backend.command.TurtleCommand</text>
</a>
</g>
</g>
<!-- Node2&#45;&gt;Node1 -->
<g id="edge1" class="edge"><title>Node2&#45;&gt;Node1</title>
<path fill="none" stroke="midnightblue" d="M137,-114.371C137,-105.585 137,-95.2721 137,-87.1408"/>
<polygon fill="midnightblue" stroke="midnightblue" points="133.5,-114.403 137,-124.403 140.5,-114.403 133.5,-114.403"/>
</g>
<!-- Node3 -->
<g id="node3" class="node"><title>Node3</title>
<g id="a_node3"><a xlink:href="../../dc/d67/classbackend_1_1command_1_1_model_command.html" target="_top" xlink:title="backend.command.ModelCommand">
<polygon fill="white" stroke="black" points="41.5,-180.5 41.5,-199.5 232.5,-199.5 232.5,-180.5 41.5,-180.5"/>
<text text-anchor="middle" x="137" y="-187.5" font-family="Helvetica,sans-Serif" font-size="10.00">backend.command.ModelCommand</text>
</a>
</g>
</g>
<!-- Node3&#45;&gt;Node2 -->
<g id="edge2" class="edge"><title>Node3&#45;&gt;Node2</title>
<path fill="none" stroke="midnightblue" d="M137,-169.805C137,-160.91 137,-150.78 137,-143.751"/>
<polygon fill="midnightblue" stroke="midnightblue" points="133.5,-170.083 137,-180.083 140.5,-170.083 133.5,-170.083"/>
</g>
<!-- Node4 -->
<g id="node4" class="node"><title>Node4</title>
<g id="a_node4"><a xlink:href="../../dc/d83/classbackend_1_1command_1_1_command.html" target="_top" xlink:title="backend.command.Command">
<polygon fill="white" stroke="black" points="56,-236.5 56,-255.5 218,-255.5 218,-236.5 56,-236.5"/>
<text text-anchor="middle" x="137" y="-243.5" font-family="Helvetica,sans-Serif" font-size="10.00">backend.command.Command</text>
</a>
</g>
</g>
<!-- Node4&#45;&gt;Node3 -->
<g id="edge3" class="edge"><title>Node4&#45;&gt;Node3</title>
<path fill="none" stroke="midnightblue" d="M137,-225.805C137,-216.91 137,-206.78 137,-199.751"/>
<polygon fill="midnightblue" stroke="midnightblue" points="133.5,-226.083 137,-236.083 140.5,-226.083 133.5,-226.083"/>
</g>
</g>
</svg>
