<?xml version="1.0" encoding="UTF-8" standalone="no"?>
<!DOCTYPE svg PUBLIC "-//W3C//DTD SVG 1.1//EN"
 "http://www.w3.org/Graphics/SVG/1.1/DTD/svg11.dtd">
<!-- Generated by graphviz version 2.36.0 (20140111.2315)
 -->
<!-- Title: backend.command.NaturalLog Pages: 1 -->
<svg width="172pt" height="152pt"
 viewBox="0.00 0.00 172.00 152.00" xmlns="http://www.w3.org/2000/svg" xmlns:xlink="http://www.w3.org/1999/xlink">
<g id="graph0" class="graph" transform="scale(1 1) rotate(0) translate(4 148)">
<title>backend.command.NaturalLog</title>
<polygon fill="white" stroke="none" points="-4,4 -4,-148 168,-148 168,4 -4,4"/>
<!-- Node1 -->
<g id="node1" class="node"><title>Node1</title>
<polygon fill="#bfbfbf" stroke="black" points="0,-0.5 0,-19.5 164,-19.5 164,-0.5 0,-0.5"/>
<text text-anchor="middle" x="82" y="-7.5" font-family="Helvetica,sans-Serif" font-size="10.00">backend.command.NaturalLog</text>
</g>
<!-- Node2 -->
<g id="node2" class="node"><title>Node2</title>
<g id="a_node2"><a xlink:href="../../d3/d64/classbackend_1_1command_1_1_unary_math_operation.html" target="_top" xlink:title="backend.command.UnaryMath\lOperation">
<polygon fill="white" stroke="black" points="0,-57 0,-87 164,-87 164,-57 0,-57"/>
<text text-anchor="start" x="8" y="-75" font-family="Helvetica,sans-Serif" font-size="10.00">backend.command.UnaryMath</text>
<text text-anchor="middle" x="82" y="-64" font-family="Helvetica,sans-Serif" font-size="10.00">Operation</text>
</a>
</g>
</g>
<!-- Node2&#45;&gt;Node1 -->
<g id="edge1" class="edge"><title>Node2&#45;&gt;Node1</title>
<path fill="none" stroke="midnightblue" d="M82,-46.5858C82,-37.0743 82,-26.7864 82,-19.7305"/>
<polygon fill="midnightblue" stroke="midnightblue" points="78.5001,-46.7808 82,-56.7808 85.5001,-46.7809 78.5001,-46.7808"/>
</g>
<!-- Node3 -->
<g id="node3" class="node"><title>Node3</title>
<g id="a_node3"><a xlink:href="../../dc/d83/classbackend_1_1command_1_1_command.html" target="_top" xlink:title="backend.command.Command">
<polygon fill="white" stroke="black" points="1,-124.5 1,-143.5 163,-143.5 163,-124.5 1,-124.5"/>
<text text-anchor="middle" x="82" y="-131.5" font-family="Helvetica,sans-Serif" font-size="10.00">backend.command.Command</text>
</a>
</g>
</g>
<!-- Node3&#45;&gt;Node2 -->
<g id="edge2" class="edge"><title>Node3&#45;&gt;Node2</title>
<path fill="none" stroke="midnightblue" d="M82,-114.371C82,-105.585 82,-95.2721 82,-87.1408"/>
<polygon fill="midnightblue" stroke="midnightblue" points="78.5001,-114.403 82,-124.403 85.5001,-114.403 78.5001,-114.403"/>
</g>
</g>
</svg>
