<?xml version="1.0" encoding="UTF-8" standalone="no"?>
<!DOCTYPE svg PUBLIC "-//W3C//DTD SVG 1.1//EN"
 "http://www.w3.org/Graphics/SVG/1.1/DTD/svg11.dtd">
<!-- Generated by graphviz version 2.36.0 (20140111.2315)
 -->
<!-- Title: gui.ColorPickingScreen.setColor Pages: 1 -->
<svg width="532pt" height="38pt"
 viewBox="0.00 0.00 532.00 38.00" xmlns="http://www.w3.org/2000/svg" xmlns:xlink="http://www.w3.org/1999/xlink">
<g id="graph0" class="graph" transform="scale(1 1) rotate(0) translate(4 34)">
<title>gui.ColorPickingScreen.setColor</title>
<polygon fill="white" stroke="none" points="-4,4 -4,-34 528,-34 528,4 -4,4"/>
<!-- Node1 -->
<g id="node1" class="node"><title>Node1</title>
<polygon fill="#bfbfbf" stroke="black" points="0.5,-0 0.5,-30 143.5,-30 143.5,-0 0.5,-0"/>
<text text-anchor="start" x="8.5" y="-18" font-family="Helvetica,sans-Serif" font-size="10.00">gui.ColorPickingScreen.set</text>
<text text-anchor="middle" x="72" y="-7" font-family="Helvetica,sans-Serif" font-size="10.00">Color</text>
</g>
<!-- Node2 -->
<g id="node2" class="node"><title>Node2</title>
<g id="a_node2"><a xlink:href="../../d1/d13/classgui_1_1_color_picking_screen.html#abbcb8f5c4fde57b70c6163c7110a7471" target="_top" xlink:title="gui.ColorPickingScreen.start">
<polygon fill="white" stroke="black" points="180.5,-5.5 180.5,-24.5 331.5,-24.5 331.5,-5.5 180.5,-5.5"/>
<text text-anchor="middle" x="256" y="-12.5" font-family="Helvetica,sans-Serif" font-size="10.00">gui.ColorPickingScreen.start</text>
</a>
</g>
</g>
<!-- Node1&#45;&gt;Node2 -->
<g id="edge1" class="edge"><title>Node1&#45;&gt;Node2</title>
<path fill="none" stroke="midnightblue" d="M153.842,-15C162.61,-15 171.506,-15 180.198,-15"/>
<polygon fill="midnightblue" stroke="midnightblue" points="153.626,-11.5001 143.626,-15 153.626,-18.5001 153.626,-11.5001"/>
</g>
<!-- Node3 -->
<g id="node3" class="node"><title>Node3</title>
<g id="a_node3"><a xlink:href="../../dd/d24/classgui_1_1_top_menu.html#a064cbee3d706b9ccb27b5df43f3e4482" target="_top" xlink:title="gui.TopMenu.openColorPicker">
<polygon fill="white" stroke="black" points="368,-5.5 368,-24.5 524,-24.5 524,-5.5 368,-5.5"/>
<text text-anchor="middle" x="446" y="-12.5" font-family="Helvetica,sans-Serif" font-size="10.00">gui.TopMenu.openColorPicker</text>
</a>
</g>
</g>
<!-- Node2&#45;&gt;Node3 -->
<g id="edge2" class="edge"><title>Node2&#45;&gt;Node3</title>
<path fill="none" stroke="midnightblue" d="M341.691,-15C350.368,-15 359.152,-15 367.743,-15"/>
<polygon fill="midnightblue" stroke="midnightblue" points="341.573,-11.5001 331.573,-15 341.573,-18.5001 341.573,-11.5001"/>
</g>
</g>
</svg>
