<?xml version="1.0" encoding="UTF-8" standalone="no"?>
<!DOCTYPE svg PUBLIC "-//W3C//DTD SVG 1.1//EN"
 "http://www.w3.org/Graphics/SVG/1.1/DTD/svg11.dtd">
<!-- Generated by graphviz version 2.36.0 (20140111.2315)
 -->
<!-- Title: gui.SlogoTab.updatePanels Pages: 1 -->
<!--zoomable 569 -->
<svg id="main" version="1.1" xmlns="http://www.w3.org/2000/svg" xmlns:xlink="http://www.w3.org/1999/xlink" xml:space="preserve" onload="init(evt)">
<style type="text/css"><![CDATA[
.edge:hover path { stroke: red; }
.edge:hover polygon { stroke: red; fill: red; }
]]></style>
<script type="text/javascript"><![CDATA[
var edges = document.getElementsByTagName('g');
if (edges && edges.length) {
  for (var i=0;i<edges.length;i++) {
    if (edges[i].id.substr(0,4)=='edge') {
      edges[i].setAttribute('class','edge');
    }
  }
}
]]></script>
        <defs>
                <circle id="rim" cx="0" cy="0" r="7"/>
                <circle id="rim2" cx="0" cy="0" r="3.5"/>
                <g id="zoomPlus">
                        <use xlink:href="#rim" fill="#404040">
                                <set attributeName="fill" to="#808080" begin="zoomplus.mouseover" end="zoomplus.mouseout"/>
                        </use>
                        <path d="M-4,0h8M0,-4v8" fill="none" stroke="white" stroke-width="1.5" pointer-events="none"/>
                </g>
                <g id="zoomMin">
                        <use xlink:href="#rim" fill="#404040">
                                <set attributeName="fill" to="#808080" begin="zoomminus.mouseover" end="zoomminus.mouseout"/>
                        </use>
                        <path d="M-4,0h8" fill="none" stroke="white" stroke-width="1.5" pointer-events="none"/>
                </g>
                <g id="dirArrow">
                        <path fill="none" stroke="white" stroke-width="1.5" d="M0,-3.0v7 M-2.5,-0.5L0,-3.0L2.5,-0.5"/>
                </g>
               <g id="resetDef">
                       <use xlink:href="#rim2" fill="#404040">
                               <set attributeName="fill" to="#808080" begin="reset.mouseover" end="reset.mouseout"/>
                       </use>
               </g>
        </defs>

<script type="text/javascript">
var viewWidth = 800;
var viewHeight = 569;
var sectionId = 'dynsection-9';
</script>
<script xlink:href="../../svgpan.js"/>
<svg id="graph" class="graph">
<g id="viewport">
<title>gui.SlogoTab.updatePanels</title>
<polygon fill="white" stroke="none" points="-4,4 -4,-565 796,-565 796,4 -4,4"/>
<!-- Node1 -->
<g id="node1" class="node"><title>Node1</title>
<polygon fill="#bfbfbf" stroke="black" points="0,-257.5 0,-276.5 144,-276.5 144,-257.5 0,-257.5"/>
<text text-anchor="middle" x="72" y="-264.5" font-family="Helvetica,sans-Serif" font-size="10.00">gui.SlogoTab.updatePanels</text>
</g>
<!-- Node2 -->
<g id="node2" class="node"><title>Node2</title>
<g id="a_node2"><a xlink:href="../../d8/d8d/classgui_1_1_drawing_area.html#a1522d175379504dfbf03fe9e6b75f53d" target="_top" xlink:title="gui.DrawingArea.drawLines">
<polygon fill="white" stroke="black" points="197.5,-503.5 197.5,-522.5 342.5,-522.5 342.5,-503.5 197.5,-503.5"/>
<text text-anchor="middle" x="270" y="-510.5" font-family="Helvetica,sans-Serif" font-size="10.00">gui.DrawingArea.drawLines</text>
</a>
</g>
</g>
<!-- Node1&#45;&gt;Node2 -->
<g id="edge1" class="edge"><title>Node1&#45;&gt;Node2</title>
<path fill="none" stroke="midnightblue" d="M78.3554,-276.585C92.9595,-302.35 135.379,-374.752 180,-428 201.757,-453.963 230.699,-480.368 249.583,-496.71"/>
<polygon fill="midnightblue" stroke="midnightblue" points="247.377,-499.428 257.25,-503.27 251.927,-494.11 247.377,-499.428"/>
</g>
<!-- Node5 -->
<g id="node5" class="node"><title>Node5</title>
<g id="a_node5"><a xlink:href="../../d8/d8d/classgui_1_1_drawing_area.html#aaf94ae2627b15ef5a3224dd5fa042aae" target="_top" xlink:title="gui.DrawingArea.drawTurtles">
<polygon fill="white" stroke="black" points="194.5,-399.5 194.5,-418.5 345.5,-418.5 345.5,-399.5 194.5,-399.5"/>
<text text-anchor="middle" x="270" y="-406.5" font-family="Helvetica,sans-Serif" font-size="10.00">gui.DrawingArea.drawTurtles</text>
</a>
</g>
</g>
<!-- Node1&#45;&gt;Node5 -->
<g id="edge4" class="edge"><title>Node1&#45;&gt;Node5</title>
<path fill="none" stroke="midnightblue" d="M78.2939,-276.534C91.8463,-299.983 130.258,-360.682 180,-390 183.675,-392.166 187.565,-394.087 191.583,-395.789"/>
<polygon fill="midnightblue" stroke="midnightblue" points="190.56,-399.144 201.153,-399.38 193.02,-392.59 190.56,-399.144"/>
</g>
<!-- Node14 -->
<g id="node14" class="node"><title>Node14</title>
<g id="a_node14"><a xlink:href="../../d3/dac/classbackend_1_1_model.html#a4ad1ab45a05d4bc905bd82c0cad71c2a" target="_top" xlink:title="backend.Model.executeCommand">
<polygon fill="white" stroke="black" points="180,-361.5 180,-380.5 360,-380.5 360,-361.5 180,-361.5"/>
<text text-anchor="middle" x="270" y="-368.5" font-family="Helvetica,sans-Serif" font-size="10.00">backend.Model.executeCommand</text>
</a>
</g>
</g>
<!-- Node1&#45;&gt;Node14 -->
<g id="edge14" class="edge"><title>Node1&#45;&gt;Node14</title>
<path fill="none" stroke="midnightblue" d="M81.9944,-276.637C99.2143,-294.47 138.804,-332.564 180,-352 185.218,-354.462 190.758,-356.608 196.422,-358.478"/>
<polygon fill="midnightblue" stroke="midnightblue" points="195.452,-361.841 206.037,-361.372 197.47,-355.138 195.452,-361.841"/>
</g>
<!-- Node16 -->
<g id="node16" class="node"><title>Node16</title>
<g id="a_node16"><a xlink:href="../../d1/d68/classbackend_1_1_grid.html#ac089ef72a1531ec8e0cf131de056d0b2" target="_top" xlink:title="backend.Grid.getAllTurtles">
<polygon fill="white" stroke="black" points="200,-323.5 200,-342.5 340,-342.5 340,-323.5 200,-323.5"/>
<text text-anchor="middle" x="270" y="-330.5" font-family="Helvetica,sans-Serif" font-size="10.00">backend.Grid.getAllTurtles</text>
</a>
</g>
</g>
<!-- Node1&#45;&gt;Node16 -->
<g id="edge16" class="edge"><title>Node1&#45;&gt;Node16</title>
<path fill="none" stroke="midnightblue" d="M92.3028,-276.59C113.414,-286.77 148.455,-302.772 180,-313 189.378,-316.041 199.457,-318.785 209.343,-321.197"/>
<polygon fill="midnightblue" stroke="midnightblue" points="208.595,-324.617 219.131,-323.498 210.197,-317.803 208.595,-324.617"/>
</g>
<!-- Node17 -->
<g id="node17" class="node"><title>Node17</title>
<g id="a_node17"><a xlink:href="../../d3/dac/classbackend_1_1_model.html#ab536d347adb5930d937252e7dae551d9" target="_top" xlink:title="backend.Model.getExecuted\lCommands">
<polygon fill="white" stroke="black" points="194,-274 194,-304 346,-304 346,-274 194,-274"/>
<text text-anchor="start" x="202" y="-292" font-family="Helvetica,sans-Serif" font-size="10.00">backend.Model.getExecuted</text>
<text text-anchor="middle" x="270" y="-281" font-family="Helvetica,sans-Serif" font-size="10.00">Commands</text>
</a>
</g>
</g>
<!-- Node1&#45;&gt;Node17 -->
<g id="edge17" class="edge"><title>Node1&#45;&gt;Node17</title>
<path fill="none" stroke="midnightblue" d="M144.038,-274.974C156.958,-276.424 170.557,-277.95 183.835,-279.441"/>
<polygon fill="midnightblue" stroke="midnightblue" points="183.583,-282.934 193.911,-280.572 184.364,-275.978 183.583,-282.934"/>
</g>
<!-- Node18 -->
<g id="node18" class="node"><title>Node18</title>
<g id="a_node18"><a xlink:href="../../d3/dac/classbackend_1_1_model.html#a341c789b1a3e0bf796fb626603928e95" target="_top" xlink:title="backend.Model.getGrid">
<polygon fill="white" stroke="black" points="206.5,-235.5 206.5,-254.5 333.5,-254.5 333.5,-235.5 206.5,-235.5"/>
<text text-anchor="middle" x="270" y="-242.5" font-family="Helvetica,sans-Serif" font-size="10.00">backend.Model.getGrid</text>
</a>
</g>
</g>
<!-- Node1&#45;&gt;Node18 -->
<g id="edge18" class="edge"><title>Node1&#45;&gt;Node18</title>
<path fill="none" stroke="midnightblue" d="M144.038,-259.026C160.912,-257.132 178.944,-255.108 195.909,-253.204"/>
<polygon fill="midnightblue" stroke="midnightblue" points="196.767,-256.63 206.314,-252.036 195.986,-249.674 196.767,-256.63"/>
</g>
<!-- Node19 -->
<g id="node19" class="node"><title>Node19</title>
<g id="a_node19"><a xlink:href="../../d1/d68/classbackend_1_1_grid.html#abea8b5f29bd1bf4d54702a2be66dc3e8" target="_top" xlink:title="backend.Grid.getLines">
<polygon fill="white" stroke="black" points="208.5,-197.5 208.5,-216.5 331.5,-216.5 331.5,-197.5 208.5,-197.5"/>
<text text-anchor="middle" x="270" y="-204.5" font-family="Helvetica,sans-Serif" font-size="10.00">backend.Grid.getLines</text>
</a>
</g>
</g>
<!-- Node1&#45;&gt;Node19 -->
<g id="edge19" class="edge"><title>Node1&#45;&gt;Node19</title>
<path fill="none" stroke="midnightblue" d="M95.1944,-257.329C116.595,-248.285 150.055,-234.875 180,-226 188.994,-223.334 198.604,-220.883 208.06,-218.69"/>
<polygon fill="midnightblue" stroke="midnightblue" points="208.834,-222.104 217.826,-216.5 207.302,-215.273 208.834,-222.104"/>
</g>
<!-- Node20 -->
<g id="node20" class="node"><title>Node20</title>
<g id="a_node20"><a xlink:href="../../de/da4/classgui_1_1text_areas_1_1_previous_commands_box.html#a2912bc8e219d6ec516d85aec6c6381e9" target="_top" xlink:title="gui.textAreas.PreviousCommands\lBox.setBoxes">
<polygon fill="white" stroke="black" points="180.5,-148 180.5,-178 359.5,-178 359.5,-148 180.5,-148"/>
<text text-anchor="start" x="188.5" y="-166" font-family="Helvetica,sans-Serif" font-size="10.00">gui.textAreas.PreviousCommands</text>
<text text-anchor="middle" x="270" y="-155" font-family="Helvetica,sans-Serif" font-size="10.00">Box.setBoxes</text>
</a>
</g>
</g>
<!-- Node1&#45;&gt;Node20 -->
<g id="edge20" class="edge"><title>Node1&#45;&gt;Node20</title>
<path fill="none" stroke="midnightblue" d="M83.3837,-257.277C101.578,-240.738 141.004,-207.074 180,-188 184.866,-185.62 189.996,-183.433 195.235,-181.43"/>
<polygon fill="midnightblue" stroke="midnightblue" points="196.518,-184.688 204.751,-178.019 194.157,-178.098 196.518,-184.688"/>
</g>
<!-- Node21 -->
<g id="node21" class="node"><title>Node21</title>
<g id="a_node21"><a xlink:href="../../d8/d85/classgui_1_1text_areas_1_1_abstract_editable_text_box.html#a6466e6d611f6b1f433c61798231b3c37" target="_top" xlink:title="gui.textAreas.AbstractEditable\lTextBox.setText">
<polygon fill="white" stroke="black" points="189,-99 189,-129 351,-129 351,-99 189,-99"/>
<text text-anchor="start" x="197" y="-117" font-family="Helvetica,sans-Serif" font-size="10.00">gui.textAreas.AbstractEditable</text>
<text text-anchor="middle" x="270" y="-106" font-family="Helvetica,sans-Serif" font-size="10.00">TextBox.setText</text>
</a>
</g>
</g>
<!-- Node1&#45;&gt;Node21 -->
<g id="edge21" class="edge"><title>Node1&#45;&gt;Node21</title>
<path fill="none" stroke="midnightblue" d="M78.2686,-257.165C91.7634,-232.947 130.054,-170.075 180,-138 182.609,-136.325 185.333,-134.765 188.139,-133.314"/>
<polygon fill="midnightblue" stroke="midnightblue" points="189.749,-136.425 197.343,-129.038 186.799,-130.077 189.749,-136.425"/>
</g>
<!-- Node22 -->
<g id="node22" class="node"><title>Node22</title>
<g id="a_node22"><a xlink:href="../../d5/d8a/classgui_1_1_slogo_tab.html#a03a42aa384aecd96eb89297dd88de728" target="_top" xlink:title="gui.SlogoTab.setVariablesBox">
<polygon fill="white" stroke="black" points="192,-60.5 192,-79.5 348,-79.5 348,-60.5 192,-60.5"/>
<text text-anchor="middle" x="270" y="-67.5" font-family="Helvetica,sans-Serif" font-size="10.00">gui.SlogoTab.setVariablesBox</text>
</a>
</g>
</g>
<!-- Node1&#45;&gt;Node22 -->
<g id="edge22" class="edge"><title>Node1&#45;&gt;Node22</title>
<path fill="none" stroke="midnightblue" d="M75.7516,-257.398C84.9274,-227.215 117.491,-133.62 180,-89 182.7,-87.0723 185.557,-85.3331 188.525,-83.7643"/>
<polygon fill="midnightblue" stroke="midnightblue" points="190.089,-86.8978 197.723,-79.5514 187.174,-80.5336 190.089,-86.8978"/>
</g>
<!-- Node3 -->
<g id="node3" class="node"><title>Node3</title>
<g id="a_node3"><a xlink:href="../../d8/d8d/classgui_1_1_drawing_area.html#a131e998a866309e9767e17fa903b82f0" target="_top" xlink:title="gui.DrawingArea.awtToPaint">
<polygon fill="white" stroke="black" points="424.5,-541.5 424.5,-560.5 571.5,-560.5 571.5,-541.5 424.5,-541.5"/>
<text text-anchor="middle" x="498" y="-548.5" font-family="Helvetica,sans-Serif" font-size="10.00">gui.DrawingArea.awtToPaint</text>
</a>
</g>
</g>
<!-- Node2&#45;&gt;Node3 -->
<g id="edge2" class="edge"><title>Node2&#45;&gt;Node3</title>
<path fill="none" stroke="midnightblue" d="M327.738,-522.54C358.902,-527.78 397.731,-534.309 430.336,-539.791"/>
<polygon fill="midnightblue" stroke="midnightblue" points="429.797,-543.249 440.239,-541.456 430.958,-536.346 429.797,-543.249"/>
</g>
<!-- Node4 -->
<g id="node4" class="node"><title>Node4</title>
<g id="a_node4"><a xlink:href="../../d8/d8d/classgui_1_1_drawing_area.html#a32586c1f6aee95492f73590ffc366546" target="_top" xlink:title="gui.DrawingArea.convertCoordinates">
<polygon fill="white" stroke="black" points="402.5,-503.5 402.5,-522.5 593.5,-522.5 593.5,-503.5 402.5,-503.5"/>
<text text-anchor="middle" x="498" y="-510.5" font-family="Helvetica,sans-Serif" font-size="10.00">gui.DrawingArea.convertCoordinates</text>
</a>
</g>
</g>
<!-- Node2&#45;&gt;Node4 -->
<g id="edge3" class="edge"><title>Node2&#45;&gt;Node4</title>
<path fill="none" stroke="midnightblue" d="M342.508,-513C358.25,-513 375.24,-513 391.995,-513"/>
<polygon fill="midnightblue" stroke="midnightblue" points="392.383,-516.5 402.383,-513 392.383,-509.5 392.383,-516.5"/>
</g>
<!-- Node5&#45;&gt;Node4 -->
<g id="edge5" class="edge"><title>Node5&#45;&gt;Node4</title>
<path fill="none" stroke="midnightblue" d="M281.799,-418.676C302.401,-436.573 349.426,-474.771 396,-494 402.316,-496.608 409.002,-498.86 415.807,-500.806"/>
<polygon fill="midnightblue" stroke="midnightblue" points="415.271,-504.284 425.833,-503.442 417.052,-497.514 415.271,-504.284"/>
</g>
<!-- Node6 -->
<g id="node6" class="node"><title>Node6</title>
<g id="a_node6"><a xlink:href="../../d2/d89/classgui_1_1_turtle_image.html#a632edfc5b5937c0ad906304ba225aadb" target="_top" xlink:title="gui.TurtleImage.orientTurtle">
<polygon fill="white" stroke="black" points="425,-465.5 425,-484.5 571,-484.5 571,-465.5 425,-465.5"/>
<text text-anchor="middle" x="498" y="-472.5" font-family="Helvetica,sans-Serif" font-size="10.00">gui.TurtleImage.orientTurtle</text>
</a>
</g>
</g>
<!-- Node5&#45;&gt;Node6 -->
<g id="edge6" class="edge"><title>Node5&#45;&gt;Node6</title>
<path fill="none" stroke="midnightblue" d="M293.683,-418.576C318.46,-428.745 359.492,-444.736 396,-455 407.113,-458.124 419.047,-460.945 430.681,-463.417"/>
<polygon fill="midnightblue" stroke="midnightblue" points="430.298,-466.911 440.798,-465.498 431.708,-460.055 430.298,-466.911"/>
</g>
<!-- Node9 -->
<g id="node9" class="node"><title>Node9</title>
<g id="a_node9"><a xlink:href="../../d8/d8d/classgui_1_1_drawing_area.html#a0f39c1d3d8302435454d2cdc3366e2fd" target="_top" xlink:title="gui.DrawingArea.position\lPointRelativeToLines">
<polygon fill="white" stroke="black" points="430.5,-416 430.5,-446 565.5,-446 565.5,-416 430.5,-416"/>
<text text-anchor="start" x="438.5" y="-434" font-family="Helvetica,sans-Serif" font-size="10.00">gui.DrawingArea.position</text>
<text text-anchor="middle" x="498" y="-423" font-family="Helvetica,sans-Serif" font-size="10.00">PointRelativeToLines</text>
</a>
</g>
</g>
<!-- Node5&#45;&gt;Node9 -->
<g id="edge9" class="edge"><title>Node5&#45;&gt;Node9</title>
<path fill="none" stroke="midnightblue" d="M345.627,-416.265C369.59,-418.597 396.165,-421.184 420.275,-423.531"/>
<polygon fill="midnightblue" stroke="midnightblue" points="420.15,-427.036 430.442,-424.521 420.828,-420.068 420.15,-427.036"/>
</g>
<!-- Node10 -->
<g id="node10" class="node"><title>Node10</title>
<g id="a_node10"><a xlink:href="../../d2/d89/classgui_1_1_turtle_image.html#af95ae9f6f053b6e1877c48c4532c871b" target="_top" xlink:title="gui.TurtleImage.setLocation">
<polygon fill="white" stroke="black" points="424,-377.5 424,-396.5 572,-396.5 572,-377.5 424,-377.5"/>
<text text-anchor="middle" x="498" y="-384.5" font-family="Helvetica,sans-Serif" font-size="10.00">gui.TurtleImage.setLocation</text>
</a>
</g>
</g>
<!-- Node5&#45;&gt;Node10 -->
<g id="edge10" class="edge"><title>Node5&#45;&gt;Node10</title>
<path fill="none" stroke="midnightblue" d="M345.627,-401.735C367.48,-399.608 391.506,-397.269 413.854,-395.094"/>
<polygon fill="midnightblue" stroke="midnightblue" points="414.376,-398.56 423.99,-394.107 413.698,-391.593 414.376,-398.56"/>
</g>
<!-- Node11 -->
<g id="node11" class="node"><title>Node11</title>
<g id="a_node11"><a xlink:href="../../d2/d89/classgui_1_1_turtle_image.html#a7efec119de1fb36ed2cbf71ecc80ac4b" target="_top" xlink:title="gui.TurtleImage.sizeTurtle">
<polygon fill="white" stroke="black" points="429.5,-339.5 429.5,-358.5 566.5,-358.5 566.5,-339.5 429.5,-339.5"/>
<text text-anchor="middle" x="498" y="-346.5" font-family="Helvetica,sans-Serif" font-size="10.00">gui.TurtleImage.sizeTurtle</text>
</a>
</g>
</g>
<!-- Node5&#45;&gt;Node11 -->
<g id="edge11" class="edge"><title>Node5&#45;&gt;Node11</title>
<path fill="none" stroke="midnightblue" d="M329.77,-399.405C340.028,-396.901 350.461,-393.804 360,-390 377.417,-383.055 378.499,-374.733 396,-368 403.518,-365.108 411.525,-362.645 419.615,-360.55"/>
<polygon fill="midnightblue" stroke="midnightblue" points="420.593,-363.914 429.497,-358.172 418.956,-357.109 420.593,-363.914"/>
</g>
<!-- Node12 -->
<g id="node12" class="node"><title>Node12</title>
<g id="a_node12"><a xlink:href="../../d2/d89/classgui_1_1_turtle_image.html#af1e79192e9a4ec13ef28b42e4f354124" target="_top" xlink:title="gui.TurtleImage.updateImage">
<polygon fill="white" stroke="black" points="420,-301.5 420,-320.5 576,-320.5 576,-301.5 420,-301.5"/>
<text text-anchor="middle" x="498" y="-308.5" font-family="Helvetica,sans-Serif" font-size="10.00">gui.TurtleImage.updateImage</text>
</a>
</g>
</g>
<!-- Node5&#45;&gt;Node12 -->
<g id="edge12" class="edge"><title>Node5&#45;&gt;Node12</title>
<path fill="none" stroke="midnightblue" d="M342.28,-399.453C348.577,-396.961 354.601,-393.858 360,-390 385.304,-371.922 370.478,-347.768 396,-330 400.484,-326.878 405.341,-324.231 410.418,-321.99"/>
<polygon fill="midnightblue" stroke="midnightblue" points="411.692,-325.25 419.758,-318.38 409.169,-318.72 411.692,-325.25"/>
</g>
<!-- Node7 -->
<g id="node7" class="node"><title>Node7</title>
<g id="a_node7"><a xlink:href="../../df/de2/classbackend_1_1_turtle.html#aaefef90d2377833d5e721222660deccc" target="_top" xlink:title="backend.Turtle.getHeading">
<polygon fill="white" stroke="black" points="642,-484.5 642,-503.5 786,-503.5 786,-484.5 642,-484.5"/>
<text text-anchor="middle" x="714" y="-491.5" font-family="Helvetica,sans-Serif" font-size="10.00">backend.Turtle.getHeading</text>
</a>
</g>
</g>
<!-- Node6&#45;&gt;Node7 -->
<g id="edge7" class="edge"><title>Node6&#45;&gt;Node7</title>
<path fill="none" stroke="midnightblue" d="M571.152,-481.406C590.667,-483.139 611.918,-485.025 631.889,-486.799"/>
<polygon fill="midnightblue" stroke="midnightblue" points="631.617,-490.288 641.887,-487.686 632.236,-483.316 631.617,-490.288"/>
</g>
<!-- Node8 -->
<g id="node8" class="node"><title>Node8</title>
<g id="a_node8"><a xlink:href="../../d8/d98/classbackend_1_1_heading.html#a184d1ef92b62ea73e6edc57e07d3c0d4" target="_top" xlink:title="backend.Heading.getAngle">
<polygon fill="white" stroke="black" points="641,-446.5 641,-465.5 787,-465.5 787,-446.5 641,-446.5"/>
<text text-anchor="middle" x="714" y="-453.5" font-family="Helvetica,sans-Serif" font-size="10.00">backend.Heading.getAngle</text>
</a>
</g>
</g>
<!-- Node6&#45;&gt;Node8 -->
<g id="edge8" class="edge"><title>Node6&#45;&gt;Node8</title>
<path fill="none" stroke="midnightblue" d="M571.152,-468.594C590.268,-466.897 611.05,-465.052 630.662,-463.31"/>
<polygon fill="midnightblue" stroke="midnightblue" points="631.146,-466.781 640.797,-462.411 630.527,-459.809 631.146,-466.781"/>
</g>
<!-- Node13 -->
<g id="node13" class="node"><title>Node13</title>
<g id="a_node13"><a xlink:href="../../df/de2/classbackend_1_1_turtle.html#a6ee2aa85c5d0c1138e49e243dc751332" target="_top" xlink:title="backend.Turtle.getImagePath">
<polygon fill="white" stroke="black" points="636.5,-301.5 636.5,-320.5 791.5,-320.5 791.5,-301.5 636.5,-301.5"/>
<text text-anchor="middle" x="714" y="-308.5" font-family="Helvetica,sans-Serif" font-size="10.00">backend.Turtle.getImagePath</text>
</a>
</g>
</g>
<!-- Node12&#45;&gt;Node13 -->
<g id="edge13" class="edge"><title>Node12&#45;&gt;Node13</title>
<path fill="none" stroke="midnightblue" d="M576.259,-311C592.42,-311 609.563,-311 626.049,-311"/>
<polygon fill="midnightblue" stroke="midnightblue" points="626.213,-314.5 636.213,-311 626.213,-307.5 626.213,-314.5"/>
</g>
<!-- Node15 -->
<g id="node15" class="node"><title>Node15</title>
<g id="a_node15"><a xlink:href="../../dc/d83/classbackend_1_1command_1_1_command.html#af87287df30654e3519de27f646d0684d" target="_top" xlink:title="backend.command.Command.execute">
<polygon fill="white" stroke="black" points="396.5,-263.5 396.5,-282.5 599.5,-282.5 599.5,-263.5 396.5,-263.5"/>
<text text-anchor="middle" x="498" y="-270.5" font-family="Helvetica,sans-Serif" font-size="10.00">backend.command.Command.execute</text>
</a>
</g>
</g>
<!-- Node14&#45;&gt;Node15 -->
<g id="edge15" class="edge"><title>Node14&#45;&gt;Node15</title>
<path fill="none" stroke="midnightblue" d="M342.28,-361.453C348.577,-358.961 354.601,-355.858 360,-352 385.304,-333.922 370.478,-309.768 396,-292 398.746,-290.089 401.631,-288.355 404.62,-286.784"/>
<polygon fill="midnightblue" stroke="midnightblue" points="406.238,-289.893 413.868,-282.542 403.319,-283.53 406.238,-289.893"/>
</g>
<!-- Node23 -->
<g id="node23" class="node"><title>Node23</title>
<g id="a_node23"><a xlink:href="../../d3/d45/classgui_1_1text_areas_1_1_user_variables_box.html#a278ebe1beb1043521d7bb4b77167722f" target="_top" xlink:title="gui.textAreas.UserVariables\lBox.getFields">
<polygon fill="white" stroke="black" points="423.5,-126 423.5,-156 572.5,-156 572.5,-126 423.5,-126"/>
<text text-anchor="start" x="431.5" y="-144" font-family="Helvetica,sans-Serif" font-size="10.00">gui.textAreas.UserVariables</text>
<text text-anchor="middle" x="498" y="-133" font-family="Helvetica,sans-Serif" font-size="10.00">Box.getFields</text>
</a>
</g>
</g>
<!-- Node22&#45;&gt;Node23 -->
<g id="edge23" class="edge"><title>Node22&#45;&gt;Node23</title>
<path fill="none" stroke="midnightblue" d="M332.923,-79.5805C342.214,-82.0503 351.515,-85.1402 360,-89 378.205,-97.2813 377.931,-107.426 396,-116 401.623,-118.668 407.561,-121.071 413.629,-123.232"/>
<polygon fill="midnightblue" stroke="midnightblue" points="412.649,-126.594 423.243,-126.431 414.86,-119.952 412.649,-126.594"/>
</g>
<!-- Node24 -->
<g id="node24" class="node"><title>Node24</title>
<g id="a_node24"><a xlink:href="../../d3/d45/classgui_1_1text_areas_1_1_user_variables_box.html#a2edcafc51bb0a7512a136b40a856b46c" target="_top" xlink:title="gui.textAreas.UserVariables\lBox.getLabels">
<polygon fill="white" stroke="black" points="423.5,-77 423.5,-107 572.5,-107 572.5,-77 423.5,-77"/>
<text text-anchor="start" x="431.5" y="-95" font-family="Helvetica,sans-Serif" font-size="10.00">gui.textAreas.UserVariables</text>
<text text-anchor="middle" x="498" y="-84" font-family="Helvetica,sans-Serif" font-size="10.00">Box.getLabels</text>
</a>
</g>
</g>
<!-- Node22&#45;&gt;Node24 -->
<g id="edge24" class="edge"><title>Node22&#45;&gt;Node24</title>
<path fill="none" stroke="midnightblue" d="M348.144,-77.5096C369.118,-79.5513 391.931,-81.772 413.251,-83.8475"/>
<polygon fill="midnightblue" stroke="midnightblue" points="412.964,-87.3359 423.256,-84.8214 413.642,-80.3689 412.964,-87.3359"/>
</g>
<!-- Node25 -->
<g id="node25" class="node"><title>Node25</title>
<g id="a_node25"><a xlink:href="../../d3/dac/classbackend_1_1_model.html#a834151b5a74c7a2a136f51ed6a1a709f" target="_top" xlink:title="backend.Model.getUserVariables">
<polygon fill="white" stroke="black" points="411.5,-38.5 411.5,-57.5 584.5,-57.5 584.5,-38.5 411.5,-38.5"/>
<text text-anchor="middle" x="498" y="-45.5" font-family="Helvetica,sans-Serif" font-size="10.00">backend.Model.getUserVariables</text>
</a>
</g>
</g>
<!-- Node22&#45;&gt;Node25 -->
<g id="edge25" class="edge"><title>Node22&#45;&gt;Node25</title>
<path fill="none" stroke="midnightblue" d="M348.144,-62.4904C365.14,-60.8359 383.344,-59.0639 400.982,-57.3469"/>
<polygon fill="midnightblue" stroke="midnightblue" points="401.675,-60.7961 411.288,-56.3436 400.996,-53.829 401.675,-60.7961"/>
</g>
<!-- Node26 -->
<g id="node26" class="node"><title>Node26</title>
<g id="a_node26"><a xlink:href="../../d3/dac/classbackend_1_1_model.html#a222c40805c83296a76bd758f7f12dd43" target="_top" xlink:title="backend.Model.setUserVariable">
<polygon fill="white" stroke="black" points="414.5,-0.5 414.5,-19.5 581.5,-19.5 581.5,-0.5 414.5,-0.5"/>
<text text-anchor="middle" x="498" y="-7.5" font-family="Helvetica,sans-Serif" font-size="10.00">backend.Model.setUserVariable</text>
</a>
</g>
</g>
<!-- Node22&#45;&gt;Node26 -->
<g id="edge26" class="edge"><title>Node22&#45;&gt;Node26</title>
<path fill="none" stroke="midnightblue" d="M297.042,-60.3502C322.125,-51.3208 361.27,-37.9214 396,-29 406.651,-26.264 418.028,-23.7441 429.163,-21.4949"/>
<polygon fill="midnightblue" stroke="midnightblue" points="430.155,-24.867 439.294,-19.5069 428.807,-17.998 430.155,-24.867"/>
</g>
</g>
</svg>
        <g id="navigator" transform="translate(0 0)" fill="#404254">
                <rect fill="#f2f5e9" fill-opacity="0.5" stroke="#606060" stroke-width=".5" x="0" y="0" width="60" height="60"/>
                <use id="zoomplus" xlink:href="#zoomPlus" x="17" y="9" onmousedown="handleZoom(evt,'in')"/>
                <use id="zoomminus" xlink:href="#zoomMin" x="42" y="9" onmousedown="handleZoom(evt,'out')"/>
                <use id="reset" xlink:href="#resetDef" x="30" y="36" onmousedown="handleReset()"/>
                <g id="arrowUp" xlink:href="#dirArrow" transform="translate(30 24)" onmousedown="handlePan(0,-1)">
                  <use xlink:href="#rim" fill="#404040">
                        <set attributeName="fill" to="#808080" begin="arrowUp.mouseover" end="arrowUp.mouseout"/>
                  </use>
                  <path fill="none" stroke="white" stroke-width="1.5" d="M0,-3.0v7 M-2.5,-0.5L0,-3.0L2.5,-0.5"/>
                </g>
                <g id="arrowRight" xlink:href="#dirArrow" transform="rotate(90) translate(36 -43)" onmousedown="handlePan(1,0)">
                  <use xlink:href="#rim" fill="#404040">
                        <set attributeName="fill" to="#808080" begin="arrowRight.mouseover" end="arrowRight.mouseout"/>
                  </use>
                  <path fill="none" stroke="white" stroke-width="1.5" d="M0,-3.0v7 M-2.5,-0.5L0,-3.0L2.5,-0.5"/>
                </g>
                <g id="arrowDown" xlink:href="#dirArrow" transform="rotate(180) translate(-30 -48)" onmousedown="handlePan(0,1)">
                  <use xlink:href="#rim" fill="#404040">
                        <set attributeName="fill" to="#808080" begin="arrowDown.mouseover" end="arrowDown.mouseout"/>
                  </use>
                  <path fill="none" stroke="white" stroke-width="1.5" d="M0,-3.0v7 M-2.5,-0.5L0,-3.0L2.5,-0.5"/>
                </g>
                <g id="arrowLeft" xlink:href="#dirArrow" transform="rotate(270) translate(-36 17)" onmousedown="handlePan(-1,0)">
                  <use xlink:href="#rim" fill="#404040">
                        <set attributeName="fill" to="#808080" begin="arrowLeft.mouseover" end="arrowLeft.mouseout"/>
                  </use>
                  <path fill="none" stroke="white" stroke-width="1.5" d="M0,-3.0v7 M-2.5,-0.5L0,-3.0L2.5,-0.5"/>
                </g>
        </g>
        <svg viewBox="0 0 15 15" width="100%" height="30px" preserveAspectRatio="xMaxYMin meet">
         <g id="arrow_out" transform="scale(0.3 0.3)">
          <a xlink:href="classgui_1_1_slogo_tab_a9ccb322bec15528476c85f84e53f14d9_cgraph_org.svg" target="_base">
           <rect id="button" ry="5" rx="5" y="6" x="6" height="38" width="38"
                fill="#f2f5e9" fill-opacity="0.5" stroke="#606060" stroke-width="1.0"/>
           <path id="arrow"
             d="M 11.500037,31.436501 C 11.940474,20.09759 22.043105,11.32322 32.158766,21.979434 L 37.068811,17.246167 C 37.068811,17.246167 37.088388,32 37.088388,32 L 22.160133,31.978069 C 22.160133,31.978069 26.997745,27.140456 26.997745,27.140456 C 18.528582,18.264221 13.291696,25.230495 11.500037,31.436501 z"
             style="fill:#404040;"/>
          </a>
         </g>
        </svg>
</svg>
