<?xml version="1.0" encoding="UTF-8" standalone="no"?>
<!DOCTYPE svg PUBLIC "-//W3C//DTD SVG 1.1//EN"
 "http://www.w3.org/Graphics/SVG/1.1/DTD/svg11.dtd">
<!-- Generated by graphviz version 2.36.0 (20140111.2315)
 -->
<!-- Title: gui.SlogoTab.setButtonActions Pages: 1 -->
<!--zoomable 831 -->
<svg id="main" version="1.1" xmlns="http://www.w3.org/2000/svg" xmlns:xlink="http://www.w3.org/1999/xlink" xml:space="preserve" onload="init(evt)">
<style type="text/css"><![CDATA[
.edge:hover path { stroke: red; }
.edge:hover polygon { stroke: red; fill: red; }
]]></style>
<script type="text/javascript"><![CDATA[
var edges = document.getElementsByTagName('g');
if (edges && edges.length) {
  for (var i=0;i<edges.length;i++) {
    if (edges[i].id.substr(0,4)=='edge') {
      edges[i].setAttribute('class','edge');
    }
  }
}
]]></script>
        <defs>
                <circle id="rim" cx="0" cy="0" r="7"/>
                <circle id="rim2" cx="0" cy="0" r="3.5"/>
                <g id="zoomPlus">
                        <use xlink:href="#rim" fill="#404040">
                                <set attributeName="fill" to="#808080" begin="zoomplus.mouseover" end="zoomplus.mouseout"/>
                        </use>
                        <path d="M-4,0h8M0,-4v8" fill="none" stroke="white" stroke-width="1.5" pointer-events="none"/>
                </g>
                <g id="zoomMin">
                        <use xlink:href="#rim" fill="#404040">
                                <set attributeName="fill" to="#808080" begin="zoomminus.mouseover" end="zoomminus.mouseout"/>
                        </use>
                        <path d="M-4,0h8" fill="none" stroke="white" stroke-width="1.5" pointer-events="none"/>
                </g>
                <g id="dirArrow">
                        <path fill="none" stroke="white" stroke-width="1.5" d="M0,-3.0v7 M-2.5,-0.5L0,-3.0L2.5,-0.5"/>
                </g>
               <g id="resetDef">
                       <use xlink:href="#rim2" fill="#404040">
                               <set attributeName="fill" to="#808080" begin="reset.mouseover" end="reset.mouseout"/>
                       </use>
               </g>
        </defs>

<script type="text/javascript">
var viewWidth = 1092;
var viewHeight = 831;
var sectionId = 'dynsection-5';
</script>
<script xlink:href="../../svgpan.js"/>
<svg id="graph" class="graph">
<g id="viewport">
<title>gui.SlogoTab.setButtonActions</title>
<polygon fill="white" stroke="none" points="-4,4 -4,-827 1088,-827 1088,4 -4,4"/>
<!-- Node1 -->
<g id="node1" class="node"><title>Node1</title>
<polygon fill="#bfbfbf" stroke="black" points="0,-353.5 0,-372.5 162,-372.5 162,-353.5 0,-353.5"/>
<text text-anchor="middle" x="81" y="-360.5" font-family="Helvetica,sans-Serif" font-size="10.00">gui.SlogoTab.setButtonActions</text>
</g>
<!-- Node2 -->
<g id="node2" class="node"><title>Node2</title>
<g id="a_node2"><a xlink:href="../../d8/d8d/classgui_1_1_drawing_area.html#a1522d175379504dfbf03fe9e6b75f53d" target="_top" xlink:title="gui.DrawingArea.drawLines">
<polygon fill="white" stroke="black" points="441.5,-727.5 441.5,-746.5 586.5,-746.5 586.5,-727.5 441.5,-727.5"/>
<text text-anchor="middle" x="514" y="-734.5" font-family="Helvetica,sans-Serif" font-size="10.00">gui.DrawingArea.drawLines</text>
</a>
</g>
</g>
<!-- Node1&#45;&gt;Node2 -->
<g id="edge1" class="edge"><title>Node1&#45;&gt;Node2</title>
<path fill="none" stroke="midnightblue" d="M83.7898,-372.654C91.0633,-409.271 121.737,-541.139 198,-613 267.104,-678.115 374.438,-710.429 444.23,-725.409"/>
<polygon fill="midnightblue" stroke="midnightblue" points="443.742,-728.883 454.246,-727.495 445.169,-722.03 443.742,-728.883"/>
</g>
<!-- Node5 -->
<g id="node5" class="node"><title>Node5</title>
<g id="a_node5"><a xlink:href="../../d8/d8d/classgui_1_1_drawing_area.html#aaf94ae2627b15ef5a3224dd5fa042aae" target="_top" xlink:title="gui.DrawingArea.drawTurtles">
<polygon fill="white" stroke="black" points="438.5,-645.5 438.5,-664.5 589.5,-664.5 589.5,-645.5 438.5,-645.5"/>
<text text-anchor="middle" x="514" y="-652.5" font-family="Helvetica,sans-Serif" font-size="10.00">gui.DrawingArea.drawTurtles</text>
</a>
</g>
</g>
<!-- Node1&#45;&gt;Node5 -->
<g id="edge4" class="edge"><title>Node1&#45;&gt;Node5</title>
<path fill="none" stroke="midnightblue" d="M85.0159,-372.847C95.2959,-404.781 132.036,-506.492 198,-560 264.065,-613.59 359.867,-636.979 428.451,-647.169"/>
<polygon fill="midnightblue" stroke="midnightblue" points="427.972,-650.636 438.365,-648.579 428.958,-643.706 427.972,-650.636"/>
</g>
<!-- Node14 -->
<g id="node14" class="node"><title>Node14</title>
<g id="a_node14"><a xlink:href="../../d3/dac/classbackend_1_1_model.html#a6f4aa1ad8c07ad86d249671d525fbea3" target="_top" xlink:title="backend.Model.executeAll\lCommands">
<polygon fill="white" stroke="black" points="222.5,-285 222.5,-315 363.5,-315 363.5,-285 222.5,-285"/>
<text text-anchor="start" x="230.5" y="-303" font-family="Helvetica,sans-Serif" font-size="10.00">backend.Model.executeAll</text>
<text text-anchor="middle" x="293" y="-292" font-family="Helvetica,sans-Serif" font-size="10.00">Commands</text>
</a>
</g>
</g>
<!-- Node1&#45;&gt;Node14 -->
<g id="edge14" class="edge"><title>Node1&#45;&gt;Node14</title>
<path fill="none" stroke="midnightblue" d="M113.894,-353.432C145.071,-344.079 193.319,-329.604 231.738,-318.079"/>
<polygon fill="midnightblue" stroke="midnightblue" points="233.211,-321.291 241.783,-315.065 231.199,-314.586 233.211,-321.291"/>
</g>
<!-- Node15 -->
<g id="node15" class="node"><title>Node15</title>
<g id="a_node15"><a xlink:href="../../d3/dac/classbackend_1_1_model.html#a35eb5f238db8bb7d76ebf7f820643a2b" target="_top" xlink:title="backend.Model.executeNext\lCommand">
<polygon fill="white" stroke="black" points="438,-257 438,-287 590,-287 590,-257 438,-257"/>
<text text-anchor="start" x="446" y="-275" font-family="Helvetica,sans-Serif" font-size="10.00">backend.Model.executeNext</text>
<text text-anchor="middle" x="514" y="-264" font-family="Helvetica,sans-Serif" font-size="10.00">Command</text>
</a>
</g>
</g>
<!-- Node1&#45;&gt;Node15 -->
<g id="edge17" class="edge"><title>Node1&#45;&gt;Node15</title>
<path fill="none" stroke="midnightblue" d="M162.07,-357.451C238.69,-351.306 348.295,-340.096 388,-324 406.535,-316.486 406.067,-305.855 424,-297 428.648,-294.705 433.539,-292.591 438.539,-290.649"/>
<polygon fill="midnightblue" stroke="midnightblue" points="440.046,-293.826 448.252,-287.125 437.658,-287.246 440.046,-293.826"/>
</g>
<!-- Node17 -->
<g id="node17" class="node"><title>Node17</title>
<g id="a_node17"><a xlink:href="../../d1/d68/classbackend_1_1_grid.html#ac089ef72a1531ec8e0cf131de056d0b2" target="_top" xlink:title="backend.Grid.getAllTurtles">
<polygon fill="white" stroke="black" points="444,-607.5 444,-626.5 584,-626.5 584,-607.5 444,-607.5"/>
<text text-anchor="middle" x="514" y="-614.5" font-family="Helvetica,sans-Serif" font-size="10.00">backend.Grid.getAllTurtles</text>
</a>
</g>
</g>
<!-- Node1&#45;&gt;Node17 -->
<g id="edge18" class="edge"><title>Node1&#45;&gt;Node17</title>
<path fill="none" stroke="midnightblue" d="M87.5365,-372.594C102.373,-397.541 145.483,-465.194 198,-504 274.113,-560.242 380.896,-590.661 448.506,-605.349"/>
<polygon fill="midnightblue" stroke="midnightblue" points="448.09,-608.838 458.599,-607.488 449.542,-601.99 448.09,-608.838"/>
</g>
<!-- Node18 -->
<g id="node18" class="node"><title>Node18</title>
<g id="a_node18"><a xlink:href="../../d3/dac/classbackend_1_1_model.html#a341c789b1a3e0bf796fb626603928e95" target="_top" xlink:title="backend.Model.getGrid">
<polygon fill="white" stroke="black" points="450.5,-344.5 450.5,-363.5 577.5,-363.5 577.5,-344.5 450.5,-344.5"/>
<text text-anchor="middle" x="514" y="-351.5" font-family="Helvetica,sans-Serif" font-size="10.00">backend.Model.getGrid</text>
</a>
</g>
</g>
<!-- Node1&#45;&gt;Node18 -->
<g id="edge19" class="edge"><title>Node1&#45;&gt;Node18</title>
<path fill="none" stroke="midnightblue" d="M107.815,-372.578C131.035,-380.652 166.272,-391.575 198,-396 281.635,-407.665 306.944,-419.682 388,-396 406.225,-390.675 406.435,-380.208 424,-373 430.285,-370.421 436.97,-368.172 443.743,-366.215"/>
<polygon fill="midnightblue" stroke="midnightblue" points="444.937,-369.519 453.692,-363.553 443.127,-362.757 444.937,-369.519"/>
</g>
<!-- Node19 -->
<g id="node19" class="node"><title>Node19</title>
<g id="a_node19"><a xlink:href="../../d1/d68/classbackend_1_1_grid.html#abea8b5f29bd1bf4d54702a2be66dc3e8" target="_top" xlink:title="backend.Grid.getLines">
<polygon fill="white" stroke="black" points="452.5,-306.5 452.5,-325.5 575.5,-325.5 575.5,-306.5 452.5,-306.5"/>
<text text-anchor="middle" x="514" y="-313.5" font-family="Helvetica,sans-Serif" font-size="10.00">backend.Grid.getLines</text>
</a>
</g>
</g>
<!-- Node1&#45;&gt;Node19 -->
<g id="edge20" class="edge"><title>Node1&#45;&gt;Node19</title>
<path fill="none" stroke="midnightblue" d="M152.017,-372.515C215.138,-378.616 309.778,-381.55 388,-358 406.181,-352.526 406.435,-342.208 424,-335 430.285,-332.421 436.97,-330.172 443.743,-328.215"/>
<polygon fill="midnightblue" stroke="midnightblue" points="444.937,-331.519 453.692,-325.553 443.127,-324.757 444.937,-331.519"/>
</g>
<!-- Node20 -->
<g id="node20" class="node"><title>Node20</title>
<g id="a_node20"><a xlink:href="../../db/d89/classgui_1_1_run_buttons.html#a280d13e6b31c5a6c7ca5b1b696c6ea9a" target="_top" xlink:title="gui.RunButtons.getRunButton">
<polygon fill="white" stroke="black" points="214.5,-246.5 214.5,-265.5 371.5,-265.5 371.5,-246.5 214.5,-246.5"/>
<text text-anchor="middle" x="293" y="-253.5" font-family="Helvetica,sans-Serif" font-size="10.00">gui.RunButtons.getRunButton</text>
</a>
</g>
</g>
<!-- Node1&#45;&gt;Node20 -->
<g id="edge21" class="edge"><title>Node1&#45;&gt;Node20</title>
<path fill="none" stroke="midnightblue" d="M91.5397,-353.283C110.185,-334.901 153.538,-295.081 198,-275 203.676,-272.437 209.7,-270.217 215.849,-268.294"/>
<polygon fill="midnightblue" stroke="midnightblue" points="216.931,-271.626 225.584,-265.512 215.007,-264.895 216.931,-271.626"/>
</g>
<!-- Node21 -->
<g id="node21" class="node"><title>Node21</title>
<g id="a_node21"><a xlink:href="../../db/d89/classgui_1_1_run_buttons.html#a678683cef26a8d138831c266b307daaa" target="_top" xlink:title="gui.RunButtons.getStepButton">
<polygon fill="white" stroke="black" points="212,-208.5 212,-227.5 374,-227.5 374,-208.5 212,-208.5"/>
<text text-anchor="middle" x="293" y="-215.5" font-family="Helvetica,sans-Serif" font-size="10.00">gui.RunButtons.getStepButton</text>
</a>
</g>
</g>
<!-- Node1&#45;&gt;Node21 -->
<g id="edge22" class="edge"><title>Node1&#45;&gt;Node21</title>
<path fill="none" stroke="midnightblue" d="M87.8727,-353.201C102.87,-329.107 145.153,-266.774 198,-237 201.941,-234.779 206.105,-232.816 210.4,-231.081"/>
<polygon fill="midnightblue" stroke="midnightblue" points="211.751,-234.314 219.974,-227.633 209.38,-227.728 211.751,-234.314"/>
</g>
<!-- Node22 -->
<g id="node22" class="node"><title>Node22</title>
<g id="a_node22"><a xlink:href="../../db/dbc/classgui_1_1text_areas_1_1_command_box.html#a85bae46e4cac18f205c1cca54801f4cf" target="_top" xlink:title="gui.textAreas.CommandBox.getText">
<polygon fill="white" stroke="black" points="198.5,-170.5 198.5,-189.5 387.5,-189.5 387.5,-170.5 198.5,-170.5"/>
<text text-anchor="middle" x="293" y="-177.5" font-family="Helvetica,sans-Serif" font-size="10.00">gui.textAreas.CommandBox.getText</text>
</a>
</g>
</g>
<!-- Node1&#45;&gt;Node22 -->
<g id="edge23" class="edge"><title>Node1&#45;&gt;Node22</title>
<path fill="none" stroke="midnightblue" d="M85.7771,-353.302C97.5197,-324.53 136.34,-239.161 198,-199 201.113,-196.973 204.397,-195.154 207.799,-193.524"/>
<polygon fill="midnightblue" stroke="midnightblue" points="209.185,-196.738 217.044,-189.633 206.469,-190.286 209.185,-196.738"/>
</g>
<!-- Node23 -->
<g id="node23" class="node"><title>Node23</title>
<g id="a_node23"><a xlink:href="../../d3/dac/classbackend_1_1_model.html#adbef0c902e277446afa17a84278c15ba" target="_top" xlink:title="backend.Model.parseProgram">
<polygon fill="white" stroke="black" points="213,-132.5 213,-151.5 373,-151.5 373,-132.5 213,-132.5"/>
<text text-anchor="middle" x="293" y="-139.5" font-family="Helvetica,sans-Serif" font-size="10.00">backend.Model.parseProgram</text>
</a>
</g>
</g>
<!-- Node1&#45;&gt;Node23 -->
<g id="edge24" class="edge"><title>Node1&#45;&gt;Node23</title>
<path fill="none" stroke="midnightblue" d="M84.4207,-353.487C93.2725,-320.767 127.134,-212.072 198,-161 200.552,-159.161 203.238,-157.49 206.027,-155.972"/>
<polygon fill="midnightblue" stroke="midnightblue" points="207.685,-159.06 215.235,-151.628 204.698,-152.729 207.685,-159.06"/>
</g>
<!-- Node34 -->
<g id="node34" class="node"><title>Node34</title>
<g id="a_node34"><a xlink:href="../../d5/d8a/classgui_1_1_slogo_tab.html#a9ccb322bec15528476c85f84e53f14d9" target="_top" xlink:title="gui.SlogoTab.updatePanels">
<polygon fill="white" stroke="black" points="221,-475.5 221,-494.5 365,-494.5 365,-475.5 221,-475.5"/>
<text text-anchor="middle" x="293" y="-482.5" font-family="Helvetica,sans-Serif" font-size="10.00">gui.SlogoTab.updatePanels</text>
</a>
</g>
</g>
<!-- Node1&#45;&gt;Node34 -->
<g id="edge36" class="edge"><title>Node1&#45;&gt;Node34</title>
<path fill="none" stroke="midnightblue" d="M97.2336,-372.675C119.263,-386.584 161.389,-412.883 198,-434 220.289,-446.856 245.993,-460.739 264.883,-470.769"/>
<polygon fill="midnightblue" stroke="midnightblue" points="263.349,-473.917 273.825,-475.5 266.622,-467.73 263.349,-473.917"/>
</g>
<!-- Node3 -->
<g id="node3" class="node"><title>Node3</title>
<g id="a_node3"><a xlink:href="../../d8/d8d/classgui_1_1_drawing_area.html#a131e998a866309e9767e17fa903b82f0" target="_top" xlink:title="gui.DrawingArea.awtToPaint">
<polygon fill="white" stroke="black" points="673.5,-803.5 673.5,-822.5 820.5,-822.5 820.5,-803.5 673.5,-803.5"/>
<text text-anchor="middle" x="747" y="-810.5" font-family="Helvetica,sans-Serif" font-size="10.00">gui.DrawingArea.awtToPaint</text>
</a>
</g>
</g>
<!-- Node2&#45;&gt;Node3 -->
<g id="edge2" class="edge"><title>Node2&#45;&gt;Node3</title>
<path fill="none" stroke="midnightblue" d="M532.252,-746.555C555.874,-759.24 599.929,-781.491 640,-794 649.073,-796.833 658.723,-799.289 668.363,-801.408"/>
<polygon fill="midnightblue" stroke="midnightblue" points="667.877,-804.882 678.381,-803.495 669.305,-798.029 667.877,-804.882"/>
</g>
<!-- Node4 -->
<g id="node4" class="node"><title>Node4</title>
<g id="a_node4"><a xlink:href="../../d8/d8d/classgui_1_1_drawing_area.html#a32586c1f6aee95492f73590ffc366546" target="_top" xlink:title="gui.DrawingArea.convertCoordinates">
<polygon fill="white" stroke="black" points="651.5,-765.5 651.5,-784.5 842.5,-784.5 842.5,-765.5 651.5,-765.5"/>
<text text-anchor="middle" x="747" y="-772.5" font-family="Helvetica,sans-Serif" font-size="10.00">gui.DrawingArea.convertCoordinates</text>
</a>
</g>
</g>
<!-- Node2&#45;&gt;Node4 -->
<g id="edge3" class="edge"><title>Node2&#45;&gt;Node4</title>
<path fill="none" stroke="midnightblue" d="M572.993,-746.54C604.847,-751.78 644.535,-758.309 677.861,-763.791"/>
<polygon fill="midnightblue" stroke="midnightblue" points="677.548,-767.286 687.983,-765.456 678.684,-760.379 677.548,-767.286"/>
</g>
<!-- Node5&#45;&gt;Node4 -->
<g id="edge5" class="edge"><title>Node5&#45;&gt;Node4</title>
<path fill="none" stroke="midnightblue" d="M530.426,-664.678C548.688,-676.411 579.687,-697.206 604,-718 621.436,-732.913 619.786,-744.146 640,-755 645.179,-757.781 650.682,-760.181 656.351,-762.251"/>
<polygon fill="midnightblue" stroke="midnightblue" points="655.428,-765.632 666.021,-765.433 657.616,-758.983 655.428,-765.632"/>
</g>
<!-- Node6 -->
<g id="node6" class="node"><title>Node6</title>
<g id="a_node6"><a xlink:href="../../d2/d89/classgui_1_1_turtle_image.html#a632edfc5b5937c0ad906304ba225aadb" target="_top" xlink:title="gui.TurtleImage.orientTurtle">
<polygon fill="white" stroke="black" points="674,-563.5 674,-582.5 820,-582.5 820,-563.5 674,-563.5"/>
<text text-anchor="middle" x="747" y="-570.5" font-family="Helvetica,sans-Serif" font-size="10.00">gui.TurtleImage.orientTurtle</text>
</a>
</g>
</g>
<!-- Node5&#45;&gt;Node6 -->
<g id="edge6" class="edge"><title>Node5&#45;&gt;Node6</title>
<path fill="none" stroke="midnightblue" d="M583.425,-645.418C590.649,-642.954 597.66,-639.867 604,-636 625.571,-622.843 618.215,-604.8 640,-592 647.496,-587.596 655.766,-584.165 664.281,-581.499"/>
<polygon fill="midnightblue" stroke="midnightblue" points="665.276,-584.855 673.972,-578.802 663.399,-578.111 665.276,-584.855"/>
</g>
<!-- Node9 -->
<g id="node9" class="node"><title>Node9</title>
<g id="a_node9"><a xlink:href="../../d8/d8d/classgui_1_1_drawing_area.html#a0f39c1d3d8302435454d2cdc3366e2fd" target="_top" xlink:title="gui.DrawingArea.position\lPointRelativeToLines">
<polygon fill="white" stroke="black" points="679.5,-716 679.5,-746 814.5,-746 814.5,-716 679.5,-716"/>
<text text-anchor="start" x="687.5" y="-734" font-family="Helvetica,sans-Serif" font-size="10.00">gui.DrawingArea.position</text>
<text text-anchor="middle" x="747" y="-723" font-family="Helvetica,sans-Serif" font-size="10.00">PointRelativeToLines</text>
</a>
</g>
</g>
<!-- Node5&#45;&gt;Node9 -->
<g id="edge9" class="edge"><title>Node5&#45;&gt;Node9</title>
<path fill="none" stroke="midnightblue" d="M535.862,-664.684C560.382,-675.791 602.495,-694.007 640,-706 649.455,-709.023 659.49,-711.858 669.469,-714.455"/>
<polygon fill="midnightblue" stroke="midnightblue" points="668.854,-717.909 679.407,-716.97 670.571,-711.123 668.854,-717.909"/>
</g>
<!-- Node10 -->
<g id="node10" class="node"><title>Node10</title>
<g id="a_node10"><a xlink:href="../../d2/d89/classgui_1_1_turtle_image.html#af95ae9f6f053b6e1877c48c4532c871b" target="_top" xlink:title="gui.TurtleImage.setLocation">
<polygon fill="white" stroke="black" points="673,-677.5 673,-696.5 821,-696.5 821,-677.5 673,-677.5"/>
<text text-anchor="middle" x="747" y="-684.5" font-family="Helvetica,sans-Serif" font-size="10.00">gui.TurtleImage.setLocation</text>
</a>
</g>
</g>
<!-- Node5&#45;&gt;Node10 -->
<g id="edge10" class="edge"><title>Node5&#45;&gt;Node10</title>
<path fill="none" stroke="midnightblue" d="M583.682,-664.514C609.862,-668.141 639.905,-672.303 666.97,-676.052"/>
<polygon fill="midnightblue" stroke="midnightblue" points="666.798,-679.562 677.184,-677.467 667.758,-672.628 666.798,-679.562"/>
</g>
<!-- Node11 -->
<g id="node11" class="node"><title>Node11</title>
<g id="a_node11"><a xlink:href="../../d2/d89/classgui_1_1_turtle_image.html#a7efec119de1fb36ed2cbf71ecc80ac4b" target="_top" xlink:title="gui.TurtleImage.sizeTurtle">
<polygon fill="white" stroke="black" points="678.5,-639.5 678.5,-658.5 815.5,-658.5 815.5,-639.5 678.5,-639.5"/>
<text text-anchor="middle" x="747" y="-646.5" font-family="Helvetica,sans-Serif" font-size="10.00">gui.TurtleImage.sizeTurtle</text>
</a>
</g>
</g>
<!-- Node5&#45;&gt;Node11 -->
<g id="edge11" class="edge"><title>Node5&#45;&gt;Node11</title>
<path fill="none" stroke="midnightblue" d="M589.68,-653.06C614.705,-652.41 642.663,-651.684 667.939,-651.028"/>
<polygon fill="midnightblue" stroke="midnightblue" points="668.313,-654.519 678.219,-650.761 668.132,-647.521 668.313,-654.519"/>
</g>
<!-- Node12 -->
<g id="node12" class="node"><title>Node12</title>
<g id="a_node12"><a xlink:href="../../d2/d89/classgui_1_1_turtle_image.html#af1e79192e9a4ec13ef28b42e4f354124" target="_top" xlink:title="gui.TurtleImage.updateImage">
<polygon fill="white" stroke="black" points="669,-601.5 669,-620.5 825,-620.5 825,-601.5 669,-601.5"/>
<text text-anchor="middle" x="747" y="-608.5" font-family="Helvetica,sans-Serif" font-size="10.00">gui.TurtleImage.updateImage</text>
</a>
</g>
</g>
<!-- Node5&#45;&gt;Node12 -->
<g id="edge12" class="edge"><title>Node5&#45;&gt;Node12</title>
<path fill="none" stroke="midnightblue" d="M561.554,-645.459C585.053,-640.701 614.016,-634.927 640,-630 653.525,-627.436 668.038,-624.775 681.853,-622.285"/>
<polygon fill="midnightblue" stroke="midnightblue" points="682.54,-625.717 691.764,-620.506 681.303,-618.828 682.54,-625.717"/>
</g>
<!-- Node7 -->
<g id="node7" class="node"><title>Node7</title>
<g id="a_node7"><a xlink:href="../../df/de2/classbackend_1_1_turtle.html#aaefef90d2377833d5e721222660deccc" target="_top" xlink:title="backend.Turtle.getHeading">
<polygon fill="white" stroke="black" points="915,-525.5 915,-544.5 1059,-544.5 1059,-525.5 915,-525.5"/>
<text text-anchor="middle" x="987" y="-532.5" font-family="Helvetica,sans-Serif" font-size="10.00">backend.Turtle.getHeading</text>
</a>
</g>
</g>
<!-- Node6&#45;&gt;Node7 -->
<g id="edge7" class="edge"><title>Node6&#45;&gt;Node7</title>
<path fill="none" stroke="midnightblue" d="M807.75,-563.46C840.711,-558.197 881.813,-551.635 916.24,-546.138"/>
<polygon fill="midnightblue" stroke="midnightblue" points="916.902,-549.577 926.225,-544.544 915.798,-542.664 916.902,-549.577"/>
</g>
<!-- Node8 -->
<g id="node8" class="node"><title>Node8</title>
<g id="a_node8"><a xlink:href="../../d8/d98/classbackend_1_1_heading.html#a184d1ef92b62ea73e6edc57e07d3c0d4" target="_top" xlink:title="backend.Heading.getAngle">
<polygon fill="white" stroke="black" points="914,-563.5 914,-582.5 1060,-582.5 1060,-563.5 914,-563.5"/>
<text text-anchor="middle" x="987" y="-570.5" font-family="Helvetica,sans-Serif" font-size="10.00">backend.Heading.getAngle</text>
</a>
</g>
</g>
<!-- Node6&#45;&gt;Node8 -->
<g id="edge8" class="edge"><title>Node6&#45;&gt;Node8</title>
<path fill="none" stroke="midnightblue" d="M820.054,-573C846.379,-573 876.356,-573 903.521,-573"/>
<polygon fill="midnightblue" stroke="midnightblue" points="903.781,-576.5 913.781,-573 903.781,-569.5 903.781,-576.5"/>
</g>
<!-- Node13 -->
<g id="node13" class="node"><title>Node13</title>
<g id="a_node13"><a xlink:href="../../df/de2/classbackend_1_1_turtle.html#a6ee2aa85c5d0c1138e49e243dc751332" target="_top" xlink:title="backend.Turtle.getImagePath">
<polygon fill="white" stroke="black" points="909.5,-601.5 909.5,-620.5 1064.5,-620.5 1064.5,-601.5 909.5,-601.5"/>
<text text-anchor="middle" x="987" y="-608.5" font-family="Helvetica,sans-Serif" font-size="10.00">backend.Turtle.getImagePath</text>
</a>
</g>
</g>
<!-- Node12&#45;&gt;Node13 -->
<g id="edge13" class="edge"><title>Node12&#45;&gt;Node13</title>
<path fill="none" stroke="midnightblue" d="M825.272,-611C848.787,-611 874.792,-611 898.909,-611"/>
<polygon fill="midnightblue" stroke="midnightblue" points="899.116,-614.5 909.116,-611 899.116,-607.5 899.116,-614.5"/>
</g>
<!-- Node14&#45;&gt;Node15 -->
<g id="edge15" class="edge"><title>Node14&#45;&gt;Node15</title>
<path fill="none" stroke="midnightblue" d="M363.594,-291.102C384.029,-288.489 406.613,-285.602 427.9,-282.88"/>
<polygon fill="midnightblue" stroke="midnightblue" points="428.427,-286.342 437.903,-281.602 427.539,-279.398 428.427,-286.342"/>
</g>
<!-- Node16 -->
<g id="node16" class="node"><title>Node16</title>
<g id="a_node16"><a xlink:href="../../dc/d83/classbackend_1_1command_1_1_command.html#af87287df30654e3519de27f646d0684d" target="_top" xlink:title="backend.command.Command.execute">
<polygon fill="white" stroke="black" points="645.5,-315.5 645.5,-334.5 848.5,-334.5 848.5,-315.5 645.5,-315.5"/>
<text text-anchor="middle" x="747" y="-322.5" font-family="Helvetica,sans-Serif" font-size="10.00">backend.command.Command.execute</text>
</a>
</g>
</g>
<!-- Node15&#45;&gt;Node16 -->
<g id="edge16" class="edge"><title>Node15&#45;&gt;Node16</title>
<path fill="none" stroke="midnightblue" d="M580.577,-287.046C616.6,-295.311 660.645,-305.416 694.227,-313.121"/>
<polygon fill="midnightblue" stroke="midnightblue" points="693.764,-316.606 704.293,-315.431 695.329,-309.783 693.764,-316.606"/>
</g>
<!-- Node24 -->
<g id="node24" class="node"><title>Node24</title>
<g id="a_node24"><a xlink:href="../../da/d26/classbackend_1_1_s_logo_parser.html#a86664390860bb0e249880e3116024485" target="_top" xlink:title="backend.SLogoParser.parse\lProgram">
<polygon fill="white" stroke="black" points="439.5,-127 439.5,-157 588.5,-157 588.5,-127 439.5,-127"/>
<text text-anchor="start" x="447.5" y="-145" font-family="Helvetica,sans-Serif" font-size="10.00">backend.SLogoParser.parse</text>
<text text-anchor="middle" x="514" y="-134" font-family="Helvetica,sans-Serif" font-size="10.00">Program</text>
</a>
</g>
</g>
<!-- Node23&#45;&gt;Node24 -->
<g id="edge25" class="edge"><title>Node23&#45;&gt;Node24</title>
<path fill="none" stroke="midnightblue" d="M373.064,-142C391.258,-142 410.67,-142 429.063,-142"/>
<polygon fill="midnightblue" stroke="midnightblue" points="429.162,-145.5 439.162,-142 429.162,-138.5 429.162,-145.5"/>
</g>
<!-- Node25 -->
<g id="node25" class="node"><title>Node25</title>
<g id="a_node25"><a xlink:href="../../da/d26/classbackend_1_1_s_logo_parser.html#abf912baf814309e272be917bb52deb44" target="_top" xlink:title="backend.SLogoParser.bubbleUp">
<polygon fill="white" stroke="black" points="663,-44.5 663,-63.5 831,-63.5 831,-44.5 663,-44.5"/>
<text text-anchor="middle" x="747" y="-51.5" font-family="Helvetica,sans-Serif" font-size="10.00">backend.SLogoParser.bubbleUp</text>
</a>
</g>
</g>
<!-- Node24&#45;&gt;Node25 -->
<g id="edge26" class="edge"><title>Node24&#45;&gt;Node25</title>
<path fill="none" stroke="midnightblue" d="M536.983,-126.937C561.162,-111.086 601.686,-86.5904 640,-73 647.852,-70.2147 656.182,-67.8234 664.587,-65.7733"/>
<polygon fill="midnightblue" stroke="midnightblue" points="665.491,-69.157 674.462,-63.5202 663.934,-62.3323 665.491,-69.157"/>
</g>
<!-- Node28 -->
<g id="node28" class="node"><title>Node28</title>
<g id="a_node28"><a xlink:href="../../dc/d83/classbackend_1_1command_1_1_command.html#a797a1969764a5e1f6c4f1c546900467f" target="_top" xlink:title="backend.command.Command.needs\lParams">
<polygon fill="white" stroke="black" points="890,-117 890,-147 1084,-147 1084,-117 890,-117"/>
<text text-anchor="start" x="898" y="-135" font-family="Helvetica,sans-Serif" font-size="10.00">backend.command.Command.needs</text>
<text text-anchor="middle" x="987" y="-124" font-family="Helvetica,sans-Serif" font-size="10.00">Params</text>
</a>
</g>
</g>
<!-- Node24&#45;&gt;Node28 -->
<g id="edge34" class="edge"><title>Node24&#45;&gt;Node28</title>
<path fill="none" stroke="midnightblue" d="M588.594,-140.438C666.695,-138.779 790.843,-136.143 879.593,-134.259"/>
<polygon fill="midnightblue" stroke="midnightblue" points="879.768,-137.756 889.692,-134.045 879.62,-130.758 879.768,-137.756"/>
</g>
<!-- Node29 -->
<g id="node29" class="node"><title>Node29</title>
<g id="a_node29"><a xlink:href="../../da/d26/classbackend_1_1_s_logo_parser.html#a92ec53b6f04874545e5907a2127a2ec6" target="_top" xlink:title="backend.SLogoParser.genPropertyList">
<polygon fill="white" stroke="black" points="648.5,-220.5 648.5,-239.5 845.5,-239.5 845.5,-220.5 648.5,-220.5"/>
<text text-anchor="middle" x="747" y="-227.5" font-family="Helvetica,sans-Serif" font-size="10.00">backend.SLogoParser.genPropertyList</text>
</a>
</g>
</g>
<!-- Node24&#45;&gt;Node29 -->
<g id="edge30" class="edge"><title>Node24&#45;&gt;Node29</title>
<path fill="none" stroke="midnightblue" d="M537.486,-157.05C561.764,-172.61 602.068,-196.482 640,-210 648.968,-213.196 658.555,-215.912 668.161,-218.212"/>
<polygon fill="midnightblue" stroke="midnightblue" points="667.629,-221.679 678.154,-220.46 669.166,-214.85 667.629,-221.679"/>
</g>
<!-- Node31 -->
<g id="node31" class="node"><title>Node31</title>
<g id="a_node31"><a xlink:href="../../d3/dd9/classbackend_1_1command_1_1_command_factory.html#a9bab90874aa013a30c13ea158ca54a1b" target="_top" xlink:title="backend.command.CommandFactory.get\lCommand">
<polygon fill="white" stroke="black" points="640,-171 640,-201 854,-201 854,-171 640,-171"/>
<text text-anchor="start" x="648" y="-189" font-family="Helvetica,sans-Serif" font-size="10.00">backend.command.CommandFactory.get</text>
<text text-anchor="middle" x="747" y="-178" font-family="Helvetica,sans-Serif" font-size="10.00">Command</text>
</a>
</g>
</g>
<!-- Node24&#45;&gt;Node31 -->
<g id="edge32" class="edge"><title>Node24&#45;&gt;Node31</title>
<path fill="none" stroke="midnightblue" d="M588.725,-156.043C610.463,-160.183 634.484,-164.759 657.07,-169.061"/>
<polygon fill="midnightblue" stroke="midnightblue" points="656.513,-172.518 666.991,-170.951 657.823,-165.641 656.513,-172.518"/>
</g>
<!-- Node33 -->
<g id="node33" class="node"><title>Node33</title>
<g id="a_node33"><a xlink:href="../../dc/d83/classbackend_1_1command_1_1_command.html#a9ef994d5348efbb5d5d07aae9e95f8c7" target="_top" xlink:title="backend.command.Command.set\lParam">
<polygon fill="white" stroke="black" points="657,-83 657,-113 837,-113 837,-83 657,-83"/>
<text text-anchor="start" x="665" y="-101" font-family="Helvetica,sans-Serif" font-size="10.00">backend.command.Command.set</text>
<text text-anchor="middle" x="747" y="-90" font-family="Helvetica,sans-Serif" font-size="10.00">Param</text>
</a>
</g>
</g>
<!-- Node24&#45;&gt;Node33 -->
<g id="edge35" class="edge"><title>Node24&#45;&gt;Node33</title>
<path fill="none" stroke="midnightblue" d="M588.725,-127.957C610.463,-123.817 634.484,-119.241 657.07,-114.939"/>
<polygon fill="midnightblue" stroke="midnightblue" points="657.823,-118.359 666.991,-113.049 656.513,-111.482 657.823,-118.359"/>
</g>
<!-- Node26 -->
<g id="node26" class="node"><title>Node26</title>
<g id="a_node26"><a xlink:href="../../dc/d83/classbackend_1_1command_1_1_command.html#a31b43fc38f3817b961dd64f94b2e8b30" target="_top" xlink:title="backend.command.Command.get\lParent">
<polygon fill="white" stroke="black" points="896.5,-0 896.5,-30 1077.5,-30 1077.5,-0 896.5,-0"/>
<text text-anchor="start" x="904.5" y="-18" font-family="Helvetica,sans-Serif" font-size="10.00">backend.command.Command.get</text>
<text text-anchor="middle" x="987" y="-7" font-family="Helvetica,sans-Serif" font-size="10.00">Parent</text>
</a>
</g>
</g>
<!-- Node25&#45;&gt;Node26 -->
<g id="edge27" class="edge"><title>Node25&#45;&gt;Node26</title>
<path fill="none" stroke="midnightblue" d="M806.221,-44.4595C830.367,-40.503 859.075,-35.7986 886.384,-31.3236"/>
<polygon fill="midnightblue" stroke="midnightblue" points="887.068,-34.7582 896.371,-29.6871 885.936,-27.8504 887.068,-34.7582"/>
</g>
<!-- Node27 -->
<g id="node27" class="node"><title>Node27</title>
<g id="a_node27"><a xlink:href="../../dc/d83/classbackend_1_1command_1_1_command.html#ac25177ccf23f2721bbe77b69a31c1bf7" target="_top" xlink:title="backend.command.Command.has\lParent">
<polygon fill="white" stroke="black" points="896,-49 896,-79 1078,-79 1078,-49 896,-49"/>
<text text-anchor="start" x="904" y="-67" font-family="Helvetica,sans-Serif" font-size="10.00">backend.command.Command.has</text>
<text text-anchor="middle" x="987" y="-56" font-family="Helvetica,sans-Serif" font-size="10.00">Parent</text>
</a>
</g>
</g>
<!-- Node25&#45;&gt;Node27 -->
<g id="edge28" class="edge"><title>Node25&#45;&gt;Node27</title>
<path fill="none" stroke="midnightblue" d="M831.241,-57.4975C848.885,-58.2389 867.685,-59.0288 885.881,-59.7933"/>
<polygon fill="midnightblue" stroke="midnightblue" points="885.778,-63.292 895.916,-60.215 886.072,-56.2982 885.778,-63.292"/>
</g>
<!-- Node25&#45;&gt;Node28 -->
<g id="edge29" class="edge"><title>Node25&#45;&gt;Node28</title>
<path fill="none" stroke="midnightblue" d="M815.314,-63.5234C828.288,-66.071 841.671,-69.2019 854,-73 863.249,-75.8493 909.258,-96.6772 944.381,-112.788"/>
<polygon fill="midnightblue" stroke="midnightblue" points="942.954,-115.984 953.502,-116.978 945.876,-109.623 942.954,-115.984"/>
</g>
<!-- Node30 -->
<g id="node30" class="node"><title>Node30</title>
<g id="a_node30"><a xlink:href="../../da/d26/classbackend_1_1_s_logo_parser.html#a41ac32c750f00046deec48038e19664c" target="_top" xlink:title="backend.SLogoParser.match">
<polygon fill="white" stroke="black" points="910.5,-220.5 910.5,-239.5 1063.5,-239.5 1063.5,-220.5 910.5,-220.5"/>
<text text-anchor="middle" x="987" y="-227.5" font-family="Helvetica,sans-Serif" font-size="10.00">backend.SLogoParser.match</text>
</a>
</g>
</g>
<!-- Node29&#45;&gt;Node30 -->
<g id="edge31" class="edge"><title>Node29&#45;&gt;Node30</title>
<path fill="none" stroke="midnightblue" d="M845.834,-230C863.84,-230 882.513,-230 900.133,-230"/>
<polygon fill="midnightblue" stroke="midnightblue" points="900.373,-233.5 910.373,-230 900.373,-226.5 900.373,-233.5"/>
</g>
<!-- Node32 -->
<g id="node32" class="node"><title>Node32</title>
<g id="a_node32"><a xlink:href="../../d0/d6a/classbackend_1_1_string_pair.html#a3c1a0b191da0a8faf50f4da7ca126b58" target="_top" xlink:title="backend.StringPair.getProperty">
<polygon fill="white" stroke="black" points="905,-176.5 905,-195.5 1069,-195.5 1069,-176.5 905,-176.5"/>
<text text-anchor="middle" x="987" y="-183.5" font-family="Helvetica,sans-Serif" font-size="10.00">backend.StringPair.getProperty</text>
</a>
</g>
</g>
<!-- Node31&#45;&gt;Node32 -->
<g id="edge33" class="edge"><title>Node31&#45;&gt;Node32</title>
<path fill="none" stroke="midnightblue" d="M854.123,-186C867.656,-186 881.413,-186 894.684,-186"/>
<polygon fill="midnightblue" stroke="midnightblue" points="894.726,-189.5 904.726,-186 894.726,-182.5 894.726,-189.5"/>
</g>
<!-- Node34&#45;&gt;Node2 -->
<g id="edge47" class="edge"><title>Node34&#45;&gt;Node2</title>
<path fill="none" stroke="midnightblue" d="M298.946,-494.504C314.464,-523.726 364.703,-613.899 424,-674 442.967,-693.224 468.432,-710.586 487.264,-722.192"/>
<polygon fill="midnightblue" stroke="midnightblue" points="485.547,-725.244 495.918,-727.41 489.161,-719.249 485.547,-725.244"/>
</g>
<!-- Node34&#45;&gt;Node5 -->
<g id="edge49" class="edge"><title>Node34&#45;&gt;Node5</title>
<path fill="none" stroke="midnightblue" d="M299.248,-494.672C314.517,-521.817 361.81,-599.13 424,-636 427.669,-638.176 431.555,-640.103 435.57,-641.812"/>
<polygon fill="midnightblue" stroke="midnightblue" points="434.541,-645.164 445.133,-645.413 437.008,-638.613 434.541,-645.164"/>
</g>
<!-- Node34&#45;&gt;Node17 -->
<g id="edge48" class="edge"><title>Node34&#45;&gt;Node17</title>
<path fill="none" stroke="midnightblue" d="M308.401,-494.51C327.48,-507.407 361.778,-531.642 388,-556 405.767,-572.504 403.147,-584.623 424,-597 428.481,-599.66 433.281,-601.966 438.244,-603.966"/>
<polygon fill="midnightblue" stroke="midnightblue" points="437.351,-607.365 447.946,-607.447 439.715,-600.776 437.351,-607.365"/>
</g>
<!-- Node34&#45;&gt;Node18 -->
<g id="edge45" class="edge"><title>Node34&#45;&gt;Node18</title>
<path fill="none" stroke="midnightblue" d="M319.928,-475.441C340.278,-466.952 368.356,-452.948 388,-434 410.658,-412.145 398.452,-391.393 424,-373 429.133,-369.305 434.837,-366.3 440.808,-363.861"/>
<polygon fill="midnightblue" stroke="midnightblue" points="442.108,-367.114 450.366,-360.476 439.771,-360.515 442.108,-367.114"/>
</g>
<!-- Node34&#45;&gt;Node19 -->
<g id="edge46" class="edge"><title>Node34&#45;&gt;Node19</title>
<path fill="none" stroke="midnightblue" d="M306.318,-475.262C325.347,-459.821 362.366,-428.161 388,-396 407.621,-371.382 398.452,-353.393 424,-335 429.6,-330.969 435.879,-327.76 442.443,-325.21"/>
<polygon fill="midnightblue" stroke="midnightblue" points="443.852,-328.429 452.218,-321.927 441.624,-321.793 443.852,-328.429"/>
</g>
<!-- Node35 -->
<g id="node35" class="node"><title>Node35</title>
<g id="a_node35"><a xlink:href="../../d5/d8a/classgui_1_1_slogo_tab.html#a03a42aa384aecd96eb89297dd88de728" target="_top" xlink:title="gui.SlogoTab.setVariablesBox">
<polygon fill="white" stroke="black" points="436,-519.5 436,-538.5 592,-538.5 592,-519.5 436,-519.5"/>
<text text-anchor="middle" x="514" y="-526.5" font-family="Helvetica,sans-Serif" font-size="10.00">gui.SlogoTab.setVariablesBox</text>
</a>
</g>
</g>
<!-- Node34&#45;&gt;Node35 -->
<g id="edge37" class="edge"><title>Node34&#45;&gt;Node35</title>
<path fill="none" stroke="midnightblue" d="M341.52,-494.547C374.953,-501.265 419.881,-510.291 455.362,-517.42"/>
<polygon fill="midnightblue" stroke="midnightblue" points="455.079,-520.933 465.573,-519.471 456.458,-514.07 455.079,-520.933"/>
</g>
<!-- Node40 -->
<g id="node40" class="node"><title>Node40</title>
<g id="a_node40"><a xlink:href="../../d3/dac/classbackend_1_1_model.html#ab536d347adb5930d937252e7dae551d9" target="_top" xlink:title="backend.Model.getExecuted\lCommands">
<polygon fill="white" stroke="black" points="438,-558 438,-588 590,-588 590,-558 438,-558"/>
<text text-anchor="start" x="446" y="-576" font-family="Helvetica,sans-Serif" font-size="10.00">backend.Model.getExecuted</text>
<text text-anchor="middle" x="514" y="-565" font-family="Helvetica,sans-Serif" font-size="10.00">Commands</text>
</a>
</g>
</g>
<!-- Node34&#45;&gt;Node40 -->
<g id="edge42" class="edge"><title>Node34&#45;&gt;Node40</title>
<path fill="none" stroke="midnightblue" d="M311.226,-494.572C335.715,-507.894 382.26,-532.167 424,-548 430.352,-550.409 437.036,-552.705 443.77,-554.86"/>
<polygon fill="midnightblue" stroke="midnightblue" points="443.049,-558.301 453.637,-557.912 445.118,-551.613 443.049,-558.301"/>
</g>
<!-- Node41 -->
<g id="node41" class="node"><title>Node41</title>
<g id="a_node41"><a xlink:href="../../d3/dac/classbackend_1_1_model.html#a4ad1ab45a05d4bc905bd82c0cad71c2a" target="_top" xlink:title="backend.Model.executeCommand">
<polygon fill="white" stroke="black" points="424,-382.5 424,-401.5 604,-401.5 604,-382.5 424,-382.5"/>
<text text-anchor="middle" x="514" y="-389.5" font-family="Helvetica,sans-Serif" font-size="10.00">backend.Model.executeCommand</text>
</a>
</g>
</g>
<!-- Node34&#45;&gt;Node41 -->
<g id="edge43" class="edge"><title>Node34&#45;&gt;Node41</title>
<path fill="none" stroke="midnightblue" d="M312.589,-475.416C331.711,-465.441 362.251,-449.184 388,-434 404.355,-424.356 406.435,-418.208 424,-411 430.285,-408.421 436.97,-406.172 443.743,-404.215"/>
<polygon fill="midnightblue" stroke="midnightblue" points="444.937,-407.519 453.692,-401.553 443.127,-400.757 444.937,-407.519"/>
</g>
<!-- Node42 -->
<g id="node42" class="node"><title>Node42</title>
<g id="a_node42"><a xlink:href="../../de/da4/classgui_1_1text_areas_1_1_previous_commands_box.html#a2912bc8e219d6ec516d85aec6c6381e9" target="_top" xlink:title="gui.textAreas.PreviousCommands\lBox.setBoxes">
<polygon fill="white" stroke="black" points="424.5,-470 424.5,-500 603.5,-500 603.5,-470 424.5,-470"/>
<text text-anchor="start" x="432.5" y="-488" font-family="Helvetica,sans-Serif" font-size="10.00">gui.textAreas.PreviousCommands</text>
<text text-anchor="middle" x="514" y="-477" font-family="Helvetica,sans-Serif" font-size="10.00">Box.setBoxes</text>
</a>
</g>
</g>
<!-- Node34&#45;&gt;Node42 -->
<g id="edge50" class="edge"><title>Node34&#45;&gt;Node42</title>
<path fill="none" stroke="midnightblue" d="M365.103,-485C380.721,-485 397.532,-485 414.022,-485"/>
<polygon fill="midnightblue" stroke="midnightblue" points="414.234,-488.5 424.234,-485 414.234,-481.5 414.234,-488.5"/>
</g>
<!-- Node43 -->
<g id="node43" class="node"><title>Node43</title>
<g id="a_node43"><a xlink:href="../../d8/d85/classgui_1_1text_areas_1_1_abstract_editable_text_box.html#a6466e6d611f6b1f433c61798231b3c37" target="_top" xlink:title="gui.textAreas.AbstractEditable\lTextBox.setText">
<polygon fill="white" stroke="black" points="433,-421 433,-451 595,-451 595,-421 433,-421"/>
<text text-anchor="start" x="441" y="-439" font-family="Helvetica,sans-Serif" font-size="10.00">gui.textAreas.AbstractEditable</text>
<text text-anchor="middle" x="514" y="-428" font-family="Helvetica,sans-Serif" font-size="10.00">TextBox.setText</text>
</a>
</g>
</g>
<!-- Node34&#45;&gt;Node43 -->
<g id="edge51" class="edge"><title>Node34&#45;&gt;Node43</title>
<path fill="none" stroke="midnightblue" d="M336.485,-475.494C364.554,-469.214 402.168,-460.798 435.462,-453.349"/>
<polygon fill="midnightblue" stroke="midnightblue" points="436.646,-456.67 445.641,-451.071 435.118,-449.839 436.646,-456.67"/>
</g>
<!-- Node36 -->
<g id="node36" class="node"><title>Node36</title>
<g id="a_node36"><a xlink:href="../../d3/d45/classgui_1_1text_areas_1_1_user_variables_box.html#a2edcafc51bb0a7512a136b40a856b46c" target="_top" xlink:title="gui.textAreas.UserVariables\lBox.getLabels">
<polygon fill="white" stroke="black" points="672.5,-438 672.5,-468 821.5,-468 821.5,-438 672.5,-438"/>
<text text-anchor="start" x="680.5" y="-456" font-family="Helvetica,sans-Serif" font-size="10.00">gui.textAreas.UserVariables</text>
<text text-anchor="middle" x="747" y="-445" font-family="Helvetica,sans-Serif" font-size="10.00">Box.getLabels</text>
</a>
</g>
</g>
<!-- Node35&#45;&gt;Node36 -->
<g id="edge38" class="edge"><title>Node35&#45;&gt;Node36</title>
<path fill="none" stroke="midnightblue" d="M576.226,-519.421C585.799,-516.748 595.37,-513.34 604,-509 622.863,-499.513 621.187,-487.586 640,-478 647.126,-474.369 654.792,-471.255 662.623,-468.587"/>
<polygon fill="midnightblue" stroke="midnightblue" points="663.754,-471.9 672.234,-465.548 661.644,-465.226 663.754,-471.9"/>
</g>
<!-- Node37 -->
<g id="node37" class="node"><title>Node37</title>
<g id="a_node37"><a xlink:href="../../d3/d45/classgui_1_1text_areas_1_1_user_variables_box.html#a278ebe1beb1043521d7bb4b77167722f" target="_top" xlink:title="gui.textAreas.UserVariables\lBox.getFields">
<polygon fill="white" stroke="black" points="672.5,-389 672.5,-419 821.5,-419 821.5,-389 672.5,-389"/>
<text text-anchor="start" x="680.5" y="-407" font-family="Helvetica,sans-Serif" font-size="10.00">gui.textAreas.UserVariables</text>
<text text-anchor="middle" x="747" y="-396" font-family="Helvetica,sans-Serif" font-size="10.00">Box.getFields</text>
</a>
</g>
</g>
<!-- Node35&#45;&gt;Node37 -->
<g id="edge39" class="edge"><title>Node35&#45;&gt;Node37</title>
<path fill="none" stroke="midnightblue" d="M586.374,-519.471C592.726,-516.75 598.734,-513.318 604,-509 634.463,-484.02 609.557,-453.004 640,-428 646.78,-422.431 654.594,-418.094 662.844,-414.724"/>
<polygon fill="midnightblue" stroke="midnightblue" points="664.086,-417.996 672.31,-411.316 661.715,-411.41 664.086,-417.996"/>
</g>
<!-- Node38 -->
<g id="node38" class="node"><title>Node38</title>
<g id="a_node38"><a xlink:href="../../d3/dac/classbackend_1_1_model.html#a834151b5a74c7a2a136f51ed6a1a709f" target="_top" xlink:title="backend.Model.getUserVariables">
<polygon fill="white" stroke="black" points="660.5,-525.5 660.5,-544.5 833.5,-544.5 833.5,-525.5 660.5,-525.5"/>
<text text-anchor="middle" x="747" y="-532.5" font-family="Helvetica,sans-Serif" font-size="10.00">backend.Model.getUserVariables</text>
</a>
</g>
</g>
<!-- Node35&#45;&gt;Node38 -->
<g id="edge40" class="edge"><title>Node35&#45;&gt;Node38</title>
<path fill="none" stroke="midnightblue" d="M592.241,-531.006C610.893,-531.491 631.046,-532.014 650.427,-532.518"/>
<polygon fill="midnightblue" stroke="midnightblue" points="650.392,-536.018 660.48,-532.779 650.574,-529.02 650.392,-536.018"/>
</g>
<!-- Node39 -->
<g id="node39" class="node"><title>Node39</title>
<g id="a_node39"><a xlink:href="../../d3/dac/classbackend_1_1_model.html#a222c40805c83296a76bd758f7f12dd43" target="_top" xlink:title="backend.Model.setUserVariable">
<polygon fill="white" stroke="black" points="663.5,-487.5 663.5,-506.5 830.5,-506.5 830.5,-487.5 663.5,-487.5"/>
<text text-anchor="middle" x="747" y="-494.5" font-family="Helvetica,sans-Serif" font-size="10.00">backend.Model.setUserVariable</text>
</a>
</g>
</g>
<!-- Node35&#45;&gt;Node39 -->
<g id="edge41" class="edge"><title>Node35&#45;&gt;Node39</title>
<path fill="none" stroke="midnightblue" d="M583.682,-519.486C609.862,-515.859 639.905,-511.697 666.97,-507.948"/>
<polygon fill="midnightblue" stroke="midnightblue" points="667.758,-511.372 677.184,-506.533 666.798,-504.438 667.758,-511.372"/>
</g>
<!-- Node41&#45;&gt;Node16 -->
<g id="edge44" class="edge"><title>Node41&#45;&gt;Node16</title>
<path fill="none" stroke="midnightblue" d="M564.676,-382.457C577.554,-379.693 591.355,-376.474 604,-373 641.037,-362.824 682.569,-348.426 711.101,-338.057"/>
<polygon fill="midnightblue" stroke="midnightblue" points="712.436,-341.296 720.623,-334.571 710.029,-334.723 712.436,-341.296"/>
</g>
</g>
</svg>
        <g id="navigator" transform="translate(0 0)" fill="#404254">
                <rect fill="#f2f5e9" fill-opacity="0.5" stroke="#606060" stroke-width=".5" x="0" y="0" width="60" height="60"/>
                <use id="zoomplus" xlink:href="#zoomPlus" x="17" y="9" onmousedown="handleZoom(evt,'in')"/>
                <use id="zoomminus" xlink:href="#zoomMin" x="42" y="9" onmousedown="handleZoom(evt,'out')"/>
                <use id="reset" xlink:href="#resetDef" x="30" y="36" onmousedown="handleReset()"/>
                <g id="arrowUp" xlink:href="#dirArrow" transform="translate(30 24)" onmousedown="handlePan(0,-1)">
                  <use xlink:href="#rim" fill="#404040">
                        <set attributeName="fill" to="#808080" begin="arrowUp.mouseover" end="arrowUp.mouseout"/>
                  </use>
                  <path fill="none" stroke="white" stroke-width="1.5" d="M0,-3.0v7 M-2.5,-0.5L0,-3.0L2.5,-0.5"/>
                </g>
                <g id="arrowRight" xlink:href="#dirArrow" transform="rotate(90) translate(36 -43)" onmousedown="handlePan(1,0)">
                  <use xlink:href="#rim" fill="#404040">
                        <set attributeName="fill" to="#808080" begin="arrowRight.mouseover" end="arrowRight.mouseout"/>
                  </use>
                  <path fill="none" stroke="white" stroke-width="1.5" d="M0,-3.0v7 M-2.5,-0.5L0,-3.0L2.5,-0.5"/>
                </g>
                <g id="arrowDown" xlink:href="#dirArrow" transform="rotate(180) translate(-30 -48)" onmousedown="handlePan(0,1)">
                  <use xlink:href="#rim" fill="#404040">
                        <set attributeName="fill" to="#808080" begin="arrowDown.mouseover" end="arrowDown.mouseout"/>
                  </use>
                  <path fill="none" stroke="white" stroke-width="1.5" d="M0,-3.0v7 M-2.5,-0.5L0,-3.0L2.5,-0.5"/>
                </g>
                <g id="arrowLeft" xlink:href="#dirArrow" transform="rotate(270) translate(-36 17)" onmousedown="handlePan(-1,0)">
                  <use xlink:href="#rim" fill="#404040">
                        <set attributeName="fill" to="#808080" begin="arrowLeft.mouseover" end="arrowLeft.mouseout"/>
                  </use>
                  <path fill="none" stroke="white" stroke-width="1.5" d="M0,-3.0v7 M-2.5,-0.5L0,-3.0L2.5,-0.5"/>
                </g>
        </g>
        <svg viewBox="0 0 15 15" width="100%" height="30px" preserveAspectRatio="xMaxYMin meet">
         <g id="arrow_out" transform="scale(0.3 0.3)">
          <a xlink:href="classgui_1_1_slogo_tab_a2a016875b2ea48fa761cd4408a78dd21_cgraph_org.svg" target="_base">
           <rect id="button" ry="5" rx="5" y="6" x="6" height="38" width="38"
                fill="#f2f5e9" fill-opacity="0.5" stroke="#606060" stroke-width="1.0"/>
           <path id="arrow"
             d="M 11.500037,31.436501 C 11.940474,20.09759 22.043105,11.32322 32.158766,21.979434 L 37.068811,17.246167 C 37.068811,17.246167 37.088388,32 37.088388,32 L 22.160133,31.978069 C 22.160133,31.978069 26.997745,27.140456 26.997745,27.140456 C 18.528582,18.264221 13.291696,25.230495 11.500037,31.436501 z"
             style="fill:#404040;"/>
          </a>
         </g>
        </svg>
</svg>
