<?xml version="1.0" encoding="UTF-8" standalone="no"?>
<!DOCTYPE svg PUBLIC "-//W3C//DTD SVG 1.1//EN"
 "http://www.w3.org/Graphics/SVG/1.1/DTD/svg11.dtd">
<!-- Generated by graphviz version 2.36.0 (20140111.2315)
 -->
<!-- Title: gui.SlogoTab.SlogoTab Pages: 1 -->
<svg width="1250pt" height="865pt"
 viewBox="0.00 0.00 1250.00 865.00" xmlns="http://www.w3.org/2000/svg" xmlns:xlink="http://www.w3.org/1999/xlink">
<g id="graph0" class="graph" transform="scale(1 1) rotate(0) translate(4 861)">
<title>gui.SlogoTab.SlogoTab</title>
<polygon fill="white" stroke="none" points="-4,4 -4,-861 1246,-861 1246,4 -4,4"/>
<!-- Node1 -->
<g id="node1" class="node"><title>Node1</title>
<polygon fill="#bfbfbf" stroke="black" points="0,-510.5 0,-529.5 122,-529.5 122,-510.5 0,-510.5"/>
<text text-anchor="middle" x="61" y="-517.5" font-family="Helvetica,sans-Serif" font-size="10.00">gui.SlogoTab.SlogoTab</text>
</g>
<!-- Node2 -->
<g id="node2" class="node"><title>Node2</title>
<g id="a_node2"><a xlink:href="../../d3/dac/classbackend_1_1_model.html#a341c789b1a3e0bf796fb626603928e95" target="_top" xlink:title="backend.Model.getGrid">
<polygon fill="white" stroke="black" points="608.5,-837.5 608.5,-856.5 735.5,-856.5 735.5,-837.5 608.5,-837.5"/>
<text text-anchor="middle" x="672" y="-844.5" font-family="Helvetica,sans-Serif" font-size="10.00">backend.Model.getGrid</text>
</a>
</g>
</g>
<!-- Node1&#45;&gt;Node2 -->
<g id="edge1" class="edge"><title>Node1&#45;&gt;Node2</title>
<path fill="none" stroke="midnightblue" d="M68.2501,-529.642C95.9524,-571.454 212.643,-738.076 356,-807 432.752,-843.902 531.582,-850.833 597.893,-850.527"/>
<polygon fill="midnightblue" stroke="midnightblue" points="598.285,-854.023 608.248,-850.419 598.212,-847.023 598.285,-854.023"/>
</g>
<!-- Node3 -->
<g id="node3" class="node"><title>Node3</title>
<g id="a_node3"><a xlink:href="../../d5/d8a/classgui_1_1_slogo_tab.html#ad634cbe4565723fe6886c27ac14eb4ea" target="_top" xlink:title="gui.SlogoTab.getScreenHeight">
<polygon fill="white" stroke="black" points="158.5,-548.5 158.5,-567.5 319.5,-567.5 319.5,-548.5 158.5,-548.5"/>
<text text-anchor="middle" x="239" y="-555.5" font-family="Helvetica,sans-Serif" font-size="10.00">gui.SlogoTab.getScreenHeight</text>
</a>
</g>
</g>
<!-- Node1&#45;&gt;Node3 -->
<g id="edge2" class="edge"><title>Node1&#45;&gt;Node3</title>
<path fill="none" stroke="midnightblue" d="M106.412,-529.589C129.951,-534.671 159.057,-540.955 183.905,-546.32"/>
<polygon fill="midnightblue" stroke="midnightblue" points="183.394,-549.791 193.907,-548.48 184.871,-542.948 183.394,-549.791"/>
</g>
<!-- Node4 -->
<g id="node4" class="node"><title>Node4</title>
<g id="a_node4"><a xlink:href="../../d5/d8a/classgui_1_1_slogo_tab.html#aafc2cc7e6c6d3b196ce1ba66353d453a" target="_top" xlink:title="gui.SlogoTab.getScreenWidth">
<polygon fill="white" stroke="black" points="161.5,-510.5 161.5,-529.5 316.5,-529.5 316.5,-510.5 161.5,-510.5"/>
<text text-anchor="middle" x="239" y="-517.5" font-family="Helvetica,sans-Serif" font-size="10.00">gui.SlogoTab.getScreenWidth</text>
</a>
</g>
</g>
<!-- Node1&#45;&gt;Node4 -->
<g id="edge3" class="edge"><title>Node1&#45;&gt;Node4</title>
<path fill="none" stroke="midnightblue" d="M122.077,-520C131.463,-520 141.323,-520 151.162,-520"/>
<polygon fill="midnightblue" stroke="midnightblue" points="151.389,-523.5 161.389,-520 151.389,-516.5 151.389,-523.5"/>
</g>
<!-- Node5 -->
<g id="node5" class="node"><title>Node5</title>
<g id="a_node5"><a xlink:href="../../d8/d85/classgui_1_1text_areas_1_1_abstract_editable_text_box.html#aa685701242b14242aa198d60c671661f" target="_top" xlink:title="gui.textAreas.AbstractEditable\lTextBox.getxLocation">
<polygon fill="white" stroke="black" points="158,-461 158,-491 320,-491 320,-461 158,-461"/>
<text text-anchor="start" x="166" y="-479" font-family="Helvetica,sans-Serif" font-size="10.00">gui.textAreas.AbstractEditable</text>
<text text-anchor="middle" x="239" y="-468" font-family="Helvetica,sans-Serif" font-size="10.00">TextBox.getxLocation</text>
</a>
</g>
</g>
<!-- Node1&#45;&gt;Node5 -->
<g id="edge4" class="edge"><title>Node1&#45;&gt;Node5</title>
<path fill="none" stroke="midnightblue" d="M100.189,-510.453C120.005,-505.499 144.845,-499.289 167.958,-493.51"/>
<polygon fill="midnightblue" stroke="midnightblue" points="168.886,-496.886 177.739,-491.065 167.188,-490.095 168.886,-496.886"/>
</g>
<!-- Node6 -->
<g id="node6" class="node"><title>Node6</title>
<g id="a_node6"><a xlink:href="../../d8/d85/classgui_1_1text_areas_1_1_abstract_editable_text_box.html#a09341e1fd12281e08f2406192d4f97cc" target="_top" xlink:title="gui.textAreas.AbstractEditable\lTextBox.getyLocation">
<polygon fill="white" stroke="black" points="158,-412 158,-442 320,-442 320,-412 158,-412"/>
<text text-anchor="start" x="166" y="-430" font-family="Helvetica,sans-Serif" font-size="10.00">gui.textAreas.AbstractEditable</text>
<text text-anchor="middle" x="239" y="-419" font-family="Helvetica,sans-Serif" font-size="10.00">TextBox.getyLocation</text>
</a>
</g>
</g>
<!-- Node1&#45;&gt;Node6 -->
<g id="edge5" class="edge"><title>Node1&#45;&gt;Node6</title>
<path fill="none" stroke="midnightblue" d="M72.7454,-510.414C89.7238,-495.718 124.299,-467.585 158,-451 161.806,-449.127 165.786,-447.369 169.851,-445.724"/>
<polygon fill="midnightblue" stroke="midnightblue" points="171.337,-448.904 179.45,-442.089 168.858,-442.357 171.337,-448.904"/>
</g>
<!-- Node7 -->
<g id="node7" class="node"><title>Node7</title>
<g id="a_node7"><a xlink:href="../../d5/d8a/classgui_1_1_slogo_tab.html#a2a016875b2ea48fa761cd4408a78dd21" target="_top" xlink:title="gui.SlogoTab.setButtonActions">
<polygon fill="white" stroke="black" points="158,-586.5 158,-605.5 320,-605.5 320,-586.5 158,-586.5"/>
<text text-anchor="middle" x="239" y="-593.5" font-family="Helvetica,sans-Serif" font-size="10.00">gui.SlogoTab.setButtonActions</text>
</a>
</g>
</g>
<!-- Node1&#45;&gt;Node7 -->
<g id="edge6" class="edge"><title>Node1&#45;&gt;Node7</title>
<path fill="none" stroke="midnightblue" d="M75.3069,-529.687C93.2411,-542.312 126.556,-564.277 158,-577 164.224,-579.518 170.861,-581.753 177.549,-583.722"/>
<polygon fill="midnightblue" stroke="midnightblue" points="176.772,-587.139 187.343,-586.421 178.632,-580.39 176.772,-587.139"/>
</g>
<!-- Node49 -->
<g id="node49" class="node"><title>Node49</title>
<g id="a_node49"><a xlink:href="../../d1/d68/classbackend_1_1_grid.html#a1d2d0a78530c66f82800b044270a73b0" target="_top" xlink:title="backend.Grid.setDimensions">
<polygon fill="white" stroke="black" points="162,-373.5 162,-392.5 316,-392.5 316,-373.5 162,-373.5"/>
<text text-anchor="middle" x="239" y="-380.5" font-family="Helvetica,sans-Serif" font-size="10.00">backend.Grid.setDimensions</text>
</a>
</g>
</g>
<!-- Node1&#45;&gt;Node49 -->
<g id="edge58" class="edge"><title>Node1&#45;&gt;Node49</title>
<path fill="none" stroke="midnightblue" d="M66.9811,-510.25C79.1665,-487.434 112.816,-430.36 158,-402 161.372,-399.883 164.959,-398.002 168.674,-396.331"/>
<polygon fill="midnightblue" stroke="midnightblue" points="170.112,-399.526 178.123,-392.593 167.536,-393.017 170.112,-399.526"/>
</g>
<!-- Node7&#45;&gt;Node2 -->
<g id="edge25" class="edge"><title>Node7&#45;&gt;Node2</title>
<path fill="none" stroke="midnightblue" d="M243.589,-605.573C255.062,-634.826 293.787,-723.729 356,-768 377.168,-783.064 556.733,-821.953 582,-828 592.363,-830.48 603.444,-832.972 614.144,-835.298"/>
<polygon fill="midnightblue" stroke="midnightblue" points="613.738,-838.791 624.25,-837.471 615.209,-831.947 613.738,-838.791"/>
</g>
<!-- Node8 -->
<g id="node8" class="node"><title>Node8</title>
<g id="a_node8"><a xlink:href="../../db/d89/classgui_1_1_run_buttons.html#a280d13e6b31c5a6c7ca5b1b696c6ea9a" target="_top" xlink:title="gui.RunButtons.getRunButton">
<polygon fill="white" stroke="black" points="372.5,-662.5 372.5,-681.5 529.5,-681.5 529.5,-662.5 372.5,-662.5"/>
<text text-anchor="middle" x="451" y="-669.5" font-family="Helvetica,sans-Serif" font-size="10.00">gui.RunButtons.getRunButton</text>
</a>
</g>
</g>
<!-- Node7&#45;&gt;Node8 -->
<g id="edge7" class="edge"><title>Node7&#45;&gt;Node8</title>
<path fill="none" stroke="midnightblue" d="M256.326,-605.708C278.269,-618.357 318.826,-640.347 356,-653 363.93,-655.699 372.374,-658.071 380.823,-660.141"/>
<polygon fill="midnightblue" stroke="midnightblue" points="380.182,-663.585 390.714,-662.432 381.762,-656.765 380.182,-663.585"/>
</g>
<!-- Node9 -->
<g id="node9" class="node"><title>Node9</title>
<g id="a_node9"><a xlink:href="../../db/d89/classgui_1_1_run_buttons.html#a678683cef26a8d138831c266b307daaa" target="_top" xlink:title="gui.RunButtons.getStepButton">
<polygon fill="white" stroke="black" points="370,-624.5 370,-643.5 532,-643.5 532,-624.5 370,-624.5"/>
<text text-anchor="middle" x="451" y="-631.5" font-family="Helvetica,sans-Serif" font-size="10.00">gui.RunButtons.getStepButton</text>
</a>
</g>
</g>
<!-- Node7&#45;&gt;Node9 -->
<g id="edge8" class="edge"><title>Node7&#45;&gt;Node9</title>
<path fill="none" stroke="midnightblue" d="M292.721,-605.54C321.429,-610.735 357.137,-617.196 387.27,-622.649"/>
<polygon fill="midnightblue" stroke="midnightblue" points="386.794,-626.12 397.258,-624.456 388.041,-619.231 386.794,-626.12"/>
</g>
<!-- Node10 -->
<g id="node10" class="node"><title>Node10</title>
<g id="a_node10"><a xlink:href="../../db/dbc/classgui_1_1text_areas_1_1_command_box.html#a85bae46e4cac18f205c1cca54801f4cf" target="_top" xlink:title="gui.textAreas.CommandBox.getText">
<polygon fill="white" stroke="black" points="356.5,-586.5 356.5,-605.5 545.5,-605.5 545.5,-586.5 356.5,-586.5"/>
<text text-anchor="middle" x="451" y="-593.5" font-family="Helvetica,sans-Serif" font-size="10.00">gui.textAreas.CommandBox.getText</text>
</a>
</g>
</g>
<!-- Node7&#45;&gt;Node10 -->
<g id="edge9" class="edge"><title>Node7&#45;&gt;Node10</title>
<path fill="none" stroke="midnightblue" d="M320.291,-596C328.78,-596 337.497,-596 346.203,-596"/>
<polygon fill="midnightblue" stroke="midnightblue" points="346.404,-599.5 356.404,-596 346.404,-592.5 346.404,-599.5"/>
</g>
<!-- Node11 -->
<g id="node11" class="node"><title>Node11</title>
<g id="a_node11"><a xlink:href="../../d3/dac/classbackend_1_1_model.html#adbef0c902e277446afa17a84278c15ba" target="_top" xlink:title="backend.Model.parseProgram">
<polygon fill="white" stroke="black" points="371,-261.5 371,-280.5 531,-280.5 531,-261.5 371,-261.5"/>
<text text-anchor="middle" x="451" y="-268.5" font-family="Helvetica,sans-Serif" font-size="10.00">backend.Model.parseProgram</text>
</a>
</g>
</g>
<!-- Node7&#45;&gt;Node11 -->
<g id="edge10" class="edge"><title>Node7&#45;&gt;Node11</title>
<path fill="none" stroke="midnightblue" d="M307.488,-586.488C312.109,-583.952 316.364,-580.831 320,-577 381.265,-512.435 317.591,-460.292 356,-380 374.072,-342.222 408.767,-307.193 430.576,-287.504"/>
<polygon fill="midnightblue" stroke="midnightblue" points="433.063,-289.978 438.242,-280.736 428.429,-284.731 433.063,-289.978"/>
</g>
<!-- Node22 -->
<g id="node22" class="node"><title>Node22</title>
<g id="a_node22"><a xlink:href="../../d3/dac/classbackend_1_1_model.html#a6f4aa1ad8c07ad86d249671d525fbea3" target="_top" xlink:title="backend.Model.executeAll\lCommands">
<polygon fill="white" stroke="black" points="380.5,-499 380.5,-529 521.5,-529 521.5,-499 380.5,-499"/>
<text text-anchor="start" x="388.5" y="-517" font-family="Helvetica,sans-Serif" font-size="10.00">backend.Model.executeAll</text>
<text text-anchor="middle" x="451" y="-506" font-family="Helvetica,sans-Serif" font-size="10.00">Commands</text>
</a>
</g>
</g>
<!-- Node7&#45;&gt;Node22 -->
<g id="edge22" class="edge"><title>Node7&#45;&gt;Node22</title>
<path fill="none" stroke="midnightblue" d="M296.414,-586.445C304.578,-583.975 312.685,-580.879 320,-577 339.176,-566.832 337.223,-554.887 356,-544 363.35,-539.739 371.379,-536.002 379.55,-532.748"/>
<polygon fill="midnightblue" stroke="midnightblue" points="381.035,-535.929 389.174,-529.146 378.581,-529.373 381.035,-535.929"/>
</g>
<!-- Node23 -->
<g id="node23" class="node"><title>Node23</title>
<g id="a_node23"><a xlink:href="../../d3/dac/classbackend_1_1_model.html#a35eb5f238db8bb7d76ebf7f820643a2b" target="_top" xlink:title="backend.Model.executeNext\lCommand">
<polygon fill="white" stroke="black" points="596,-487 596,-517 748,-517 748,-487 596,-487"/>
<text text-anchor="start" x="604" y="-505" font-family="Helvetica,sans-Serif" font-size="10.00">backend.Model.executeNext</text>
<text text-anchor="middle" x="672" y="-494" font-family="Helvetica,sans-Serif" font-size="10.00">Command</text>
</a>
</g>
</g>
<!-- Node7&#45;&gt;Node23 -->
<g id="edge57" class="edge"><title>Node7&#45;&gt;Node23</title>
<path fill="none" stroke="midnightblue" d="M305.092,-586.358C310.479,-583.879 315.553,-580.805 320,-577 352.106,-549.525 320.916,-512.554 356,-489 392.225,-464.68 505.503,-475.694 585.811,-487.464"/>
<polygon fill="midnightblue" stroke="midnightblue" points="585.518,-490.959 595.925,-488.976 586.553,-484.036 585.518,-490.959"/>
</g>
<!-- Node25 -->
<g id="node25" class="node"><title>Node25</title>
<g id="a_node25"><a xlink:href="../../d1/d68/classbackend_1_1_grid.html#abea8b5f29bd1bf4d54702a2be66dc3e8" target="_top" xlink:title="backend.Grid.getLines">
<polygon fill="white" stroke="black" points="610.5,-536.5 610.5,-555.5 733.5,-555.5 733.5,-536.5 610.5,-536.5"/>
<text text-anchor="middle" x="672" y="-543.5" font-family="Helvetica,sans-Serif" font-size="10.00">backend.Grid.getLines</text>
</a>
</g>
</g>
<!-- Node7&#45;&gt;Node25 -->
<g id="edge26" class="edge"><title>Node7&#45;&gt;Node25</title>
<path fill="none" stroke="midnightblue" d="M293.603,-586.482C313.196,-583.199 335.563,-579.677 356,-577 439.786,-566.027 536.571,-557.051 600.508,-551.633"/>
<polygon fill="midnightblue" stroke="midnightblue" points="600.809,-555.12 610.481,-550.794 600.222,-548.144 600.809,-555.12"/>
</g>
<!-- Node26 -->
<g id="node26" class="node"><title>Node26</title>
<g id="a_node26"><a xlink:href="../../d8/d8d/classgui_1_1_drawing_area.html#a1522d175379504dfbf03fe9e6b75f53d" target="_top" xlink:title="gui.DrawingArea.drawLines">
<polygon fill="white" stroke="black" points="599.5,-448.5 599.5,-467.5 744.5,-467.5 744.5,-448.5 599.5,-448.5"/>
<text text-anchor="middle" x="672" y="-455.5" font-family="Helvetica,sans-Serif" font-size="10.00">gui.DrawingArea.drawLines</text>
</a>
</g>
</g>
<!-- Node7&#45;&gt;Node26 -->
<g id="edge27" class="edge"><title>Node7&#45;&gt;Node26</title>
<path fill="none" stroke="midnightblue" d="M305.731,-586.454C310.92,-583.949 315.777,-580.843 320,-577 356.799,-543.514 316.162,-500.805 356,-471 436.289,-410.931 562.981,-430.178 628.545,-445.983"/>
<polygon fill="midnightblue" stroke="midnightblue" points="627.976,-449.448 638.526,-448.477 629.673,-442.657 627.976,-449.448"/>
</g>
<!-- Node29 -->
<g id="node29" class="node"><title>Node29</title>
<g id="a_node29"><a xlink:href="../../d1/d68/classbackend_1_1_grid.html#ac089ef72a1531ec8e0cf131de056d0b2" target="_top" xlink:title="backend.Grid.getAllTurtles">
<polygon fill="white" stroke="black" points="602,-799.5 602,-818.5 742,-818.5 742,-799.5 602,-799.5"/>
<text text-anchor="middle" x="672" y="-806.5" font-family="Helvetica,sans-Serif" font-size="10.00">backend.Grid.getAllTurtles</text>
</a>
</g>
</g>
<!-- Node7&#45;&gt;Node29 -->
<g id="edge30" class="edge"><title>Node7&#45;&gt;Node29</title>
<path fill="none" stroke="midnightblue" d="M245.627,-605.782C260.366,-630.494 302.669,-695.821 356,-729 378.06,-742.724 556.765,-782.817 582,-789 593.302,-791.769 605.448,-794.596 617.022,-797.22"/>
<polygon fill="midnightblue" stroke="midnightblue" points="616.487,-800.687 627.011,-799.467 618.023,-793.857 616.487,-800.687"/>
</g>
<!-- Node30 -->
<g id="node30" class="node"><title>Node30</title>
<g id="a_node30"><a xlink:href="../../d8/d8d/classgui_1_1_drawing_area.html#aaf94ae2627b15ef5a3224dd5fa042aae" target="_top" xlink:title="gui.DrawingArea.drawTurtles">
<polygon fill="white" stroke="black" points="596.5,-384.5 596.5,-403.5 747.5,-403.5 747.5,-384.5 596.5,-384.5"/>
<text text-anchor="middle" x="672" y="-391.5" font-family="Helvetica,sans-Serif" font-size="10.00">gui.DrawingArea.drawTurtles</text>
</a>
</g>
</g>
<!-- Node7&#45;&gt;Node30 -->
<g id="edge31" class="edge"><title>Node7&#45;&gt;Node30</title>
<path fill="none" stroke="midnightblue" d="M306.881,-586.466C311.697,-583.944 316.16,-580.831 320,-577 368.536,-528.578 304.448,-472.198 356,-427 428.264,-363.643 548.681,-371.415 617.817,-382.725"/>
<polygon fill="midnightblue" stroke="midnightblue" points="617.597,-386.238 628.046,-384.485 618.784,-379.34 617.597,-386.238"/>
</g>
<!-- Node39 -->
<g id="node39" class="node"><title>Node39</title>
<g id="a_node39"><a xlink:href="../../d5/d8a/classgui_1_1_slogo_tab.html#a9ccb322bec15528476c85f84e53f14d9" target="_top" xlink:title="gui.SlogoTab.updatePanels">
<polygon fill="white" stroke="black" points="379,-700.5 379,-719.5 523,-719.5 523,-700.5 379,-700.5"/>
<text text-anchor="middle" x="451" y="-707.5" font-family="Helvetica,sans-Serif" font-size="10.00">gui.SlogoTab.updatePanels</text>
</a>
</g>
</g>
<!-- Node7&#45;&gt;Node39 -->
<g id="edge41" class="edge"><title>Node7&#45;&gt;Node39</title>
<path fill="none" stroke="midnightblue" d="M248.532,-605.607C266.394,-625.065 309.901,-669.138 356,-691 361.204,-693.468 366.718,-695.616 372.364,-697.485"/>
<polygon fill="midnightblue" stroke="midnightblue" points="371.372,-700.842 381.957,-700.375 373.391,-694.139 371.372,-700.842"/>
</g>
<!-- Node12 -->
<g id="node12" class="node"><title>Node12</title>
<g id="a_node12"><a xlink:href="../../da/d26/classbackend_1_1_s_logo_parser.html#a86664390860bb0e249880e3116024485" target="_top" xlink:title="backend.SLogoParser.parse\lProgram">
<polygon fill="white" stroke="black" points="597.5,-149 597.5,-179 746.5,-179 746.5,-149 597.5,-149"/>
<text text-anchor="start" x="605.5" y="-167" font-family="Helvetica,sans-Serif" font-size="10.00">backend.SLogoParser.parse</text>
<text text-anchor="middle" x="672" y="-156" font-family="Helvetica,sans-Serif" font-size="10.00">Program</text>
</a>
</g>
</g>
<!-- Node11&#45;&gt;Node12 -->
<g id="edge11" class="edge"><title>Node11&#45;&gt;Node12</title>
<path fill="none" stroke="midnightblue" d="M471.821,-261.316C507.653,-243.809 583.847,-206.582 630.918,-183.583"/>
<polygon fill="midnightblue" stroke="midnightblue" points="632.475,-186.718 639.923,-179.184 629.402,-180.429 632.475,-186.718"/>
</g>
<!-- Node13 -->
<g id="node13" class="node"><title>Node13</title>
<g id="a_node13"><a xlink:href="../../da/d26/classbackend_1_1_s_logo_parser.html#abf912baf814309e272be917bb52deb44" target="_top" xlink:title="backend.SLogoParser.bubbleUp">
<polygon fill="white" stroke="black" points="821,-44.5 821,-63.5 989,-63.5 989,-44.5 821,-44.5"/>
<text text-anchor="middle" x="905" y="-51.5" font-family="Helvetica,sans-Serif" font-size="10.00">backend.SLogoParser.bubbleUp</text>
</a>
</g>
</g>
<!-- Node12&#45;&gt;Node13 -->
<g id="edge12" class="edge"><title>Node12&#45;&gt;Node13</title>
<path fill="none" stroke="midnightblue" d="M688.88,-148.678C711.274,-128.011 754.3,-91.6471 798,-73 804.123,-70.3871 810.594,-68.1335 817.197,-66.1898"/>
<polygon fill="midnightblue" stroke="midnightblue" points="818.2,-69.5445 826.941,-63.5579 816.375,-62.7866 818.2,-69.5445"/>
</g>
<!-- Node16 -->
<g id="node16" class="node"><title>Node16</title>
<g id="a_node16"><a xlink:href="../../dc/d83/classbackend_1_1command_1_1_command.html#a797a1969764a5e1f6c4f1c546900467f" target="_top" xlink:title="backend.command.Command.needs\lParams">
<polygon fill="white" stroke="black" points="1048,-117 1048,-147 1242,-147 1242,-117 1048,-117"/>
<text text-anchor="start" x="1056" y="-135" font-family="Helvetica,sans-Serif" font-size="10.00">backend.command.Command.needs</text>
<text text-anchor="middle" x="1145" y="-124" font-family="Helvetica,sans-Serif" font-size="10.00">Params</text>
</a>
</g>
</g>
<!-- Node12&#45;&gt;Node16 -->
<g id="edge20" class="edge"><title>Node12&#45;&gt;Node16</title>
<path fill="none" stroke="midnightblue" d="M746.594,-159C824.695,-153.694 948.843,-145.259 1037.59,-139.229"/>
<polygon fill="midnightblue" stroke="midnightblue" points="1037.95,-142.713 1047.69,-138.543 1037.48,-135.729 1037.95,-142.713"/>
</g>
<!-- Node17 -->
<g id="node17" class="node"><title>Node17</title>
<g id="a_node17"><a xlink:href="../../da/d26/classbackend_1_1_s_logo_parser.html#a92ec53b6f04874545e5907a2127a2ec6" target="_top" xlink:title="backend.SLogoParser.genPropertyList">
<polygon fill="white" stroke="black" points="806.5,-220.5 806.5,-239.5 1003.5,-239.5 1003.5,-220.5 806.5,-220.5"/>
<text text-anchor="middle" x="905" y="-227.5" font-family="Helvetica,sans-Serif" font-size="10.00">backend.SLogoParser.genPropertyList</text>
</a>
</g>
</g>
<!-- Node12&#45;&gt;Node17 -->
<g id="edge16" class="edge"><title>Node12&#45;&gt;Node17</title>
<path fill="none" stroke="midnightblue" d="M708.854,-179.001C733.566,-188.891 767.352,-201.533 798,-210 809.494,-213.175 821.827,-216.008 833.872,-218.473"/>
<polygon fill="midnightblue" stroke="midnightblue" points="833.407,-221.949 843.896,-220.456 834.766,-215.082 833.407,-221.949"/>
</g>
<!-- Node19 -->
<g id="node19" class="node"><title>Node19</title>
<g id="a_node19"><a xlink:href="../../d3/dd9/classbackend_1_1command_1_1_command_factory.html#a9bab90874aa013a30c13ea158ca54a1b" target="_top" xlink:title="backend.command.CommandFactory.get\lCommand">
<polygon fill="white" stroke="black" points="798,-171 798,-201 1012,-201 1012,-171 798,-171"/>
<text text-anchor="start" x="806" y="-189" font-family="Helvetica,sans-Serif" font-size="10.00">backend.command.CommandFactory.get</text>
<text text-anchor="middle" x="905" y="-178" font-family="Helvetica,sans-Serif" font-size="10.00">Command</text>
</a>
</g>
</g>
<!-- Node12&#45;&gt;Node19 -->
<g id="edge18" class="edge"><title>Node12&#45;&gt;Node19</title>
<path fill="none" stroke="midnightblue" d="M746.725,-171.021C759.794,-172.266 773.687,-173.589 787.598,-174.914"/>
<polygon fill="midnightblue" stroke="midnightblue" points="787.432,-178.414 797.719,-175.878 788.096,-171.446 787.432,-178.414"/>
</g>
<!-- Node21 -->
<g id="node21" class="node"><title>Node21</title>
<g id="a_node21"><a xlink:href="../../dc/d83/classbackend_1_1command_1_1_command.html#a9ef994d5348efbb5d5d07aae9e95f8c7" target="_top" xlink:title="backend.command.Command.set\lParam">
<polygon fill="white" stroke="black" points="815,-83 815,-113 995,-113 995,-83 815,-83"/>
<text text-anchor="start" x="823" y="-101" font-family="Helvetica,sans-Serif" font-size="10.00">backend.command.Command.set</text>
<text text-anchor="middle" x="905" y="-90" font-family="Helvetica,sans-Serif" font-size="10.00">Param</text>
</a>
</g>
</g>
<!-- Node12&#45;&gt;Node21 -->
<g id="edge21" class="edge"><title>Node12&#45;&gt;Node21</title>
<path fill="none" stroke="midnightblue" d="M724.983,-148.971C747.434,-142.495 774.004,-134.851 798,-128 811.896,-124.032 826.824,-119.793 840.964,-115.789"/>
<polygon fill="midnightblue" stroke="midnightblue" points="841.936,-119.151 850.605,-113.06 840.03,-112.416 841.936,-119.151"/>
</g>
<!-- Node14 -->
<g id="node14" class="node"><title>Node14</title>
<g id="a_node14"><a xlink:href="../../dc/d83/classbackend_1_1command_1_1_command.html#a31b43fc38f3817b961dd64f94b2e8b30" target="_top" xlink:title="backend.command.Command.get\lParent">
<polygon fill="white" stroke="black" points="1054.5,-0 1054.5,-30 1235.5,-30 1235.5,-0 1054.5,-0"/>
<text text-anchor="start" x="1062.5" y="-18" font-family="Helvetica,sans-Serif" font-size="10.00">backend.command.Command.get</text>
<text text-anchor="middle" x="1145" y="-7" font-family="Helvetica,sans-Serif" font-size="10.00">Parent</text>
</a>
</g>
</g>
<!-- Node13&#45;&gt;Node14 -->
<g id="edge13" class="edge"><title>Node13&#45;&gt;Node14</title>
<path fill="none" stroke="midnightblue" d="M964.221,-44.4595C988.367,-40.503 1017.08,-35.7986 1044.38,-31.3236"/>
<polygon fill="midnightblue" stroke="midnightblue" points="1045.07,-34.7582 1054.37,-29.6871 1043.94,-27.8504 1045.07,-34.7582"/>
</g>
<!-- Node15 -->
<g id="node15" class="node"><title>Node15</title>
<g id="a_node15"><a xlink:href="../../dc/d83/classbackend_1_1command_1_1_command.html#ac25177ccf23f2721bbe77b69a31c1bf7" target="_top" xlink:title="backend.command.Command.has\lParent">
<polygon fill="white" stroke="black" points="1054,-49 1054,-79 1236,-79 1236,-49 1054,-49"/>
<text text-anchor="start" x="1062" y="-67" font-family="Helvetica,sans-Serif" font-size="10.00">backend.command.Command.has</text>
<text text-anchor="middle" x="1145" y="-56" font-family="Helvetica,sans-Serif" font-size="10.00">Parent</text>
</a>
</g>
</g>
<!-- Node13&#45;&gt;Node15 -->
<g id="edge14" class="edge"><title>Node13&#45;&gt;Node15</title>
<path fill="none" stroke="midnightblue" d="M989.241,-57.4975C1006.88,-58.2389 1025.69,-59.0288 1043.88,-59.7933"/>
<polygon fill="midnightblue" stroke="midnightblue" points="1043.78,-63.292 1053.92,-60.215 1044.07,-56.2982 1043.78,-63.292"/>
</g>
<!-- Node13&#45;&gt;Node16 -->
<g id="edge15" class="edge"><title>Node13&#45;&gt;Node16</title>
<path fill="none" stroke="midnightblue" d="M973.314,-63.5234C986.288,-66.071 999.671,-69.2019 1012,-73 1021.25,-75.8493 1067.26,-96.6772 1102.38,-112.788"/>
<polygon fill="midnightblue" stroke="midnightblue" points="1100.95,-115.984 1111.5,-116.978 1103.88,-109.623 1100.95,-115.984"/>
</g>
<!-- Node18 -->
<g id="node18" class="node"><title>Node18</title>
<g id="a_node18"><a xlink:href="../../da/d26/classbackend_1_1_s_logo_parser.html#a41ac32c750f00046deec48038e19664c" target="_top" xlink:title="backend.SLogoParser.match">
<polygon fill="white" stroke="black" points="1068.5,-220.5 1068.5,-239.5 1221.5,-239.5 1221.5,-220.5 1068.5,-220.5"/>
<text text-anchor="middle" x="1145" y="-227.5" font-family="Helvetica,sans-Serif" font-size="10.00">backend.SLogoParser.match</text>
</a>
</g>
</g>
<!-- Node17&#45;&gt;Node18 -->
<g id="edge17" class="edge"><title>Node17&#45;&gt;Node18</title>
<path fill="none" stroke="midnightblue" d="M1003.83,-230C1021.84,-230 1040.51,-230 1058.13,-230"/>
<polygon fill="midnightblue" stroke="midnightblue" points="1058.37,-233.5 1068.37,-230 1058.37,-226.5 1058.37,-233.5"/>
</g>
<!-- Node20 -->
<g id="node20" class="node"><title>Node20</title>
<g id="a_node20"><a xlink:href="../../d0/d6a/classbackend_1_1_string_pair.html#a3c1a0b191da0a8faf50f4da7ca126b58" target="_top" xlink:title="backend.StringPair.getProperty">
<polygon fill="white" stroke="black" points="1063,-176.5 1063,-195.5 1227,-195.5 1227,-176.5 1063,-176.5"/>
<text text-anchor="middle" x="1145" y="-183.5" font-family="Helvetica,sans-Serif" font-size="10.00">backend.StringPair.getProperty</text>
</a>
</g>
</g>
<!-- Node19&#45;&gt;Node20 -->
<g id="edge19" class="edge"><title>Node19&#45;&gt;Node20</title>
<path fill="none" stroke="midnightblue" d="M1012.12,-186C1025.66,-186 1039.41,-186 1052.68,-186"/>
<polygon fill="midnightblue" stroke="midnightblue" points="1052.73,-189.5 1062.73,-186 1052.73,-182.5 1052.73,-189.5"/>
</g>
<!-- Node22&#45;&gt;Node23 -->
<g id="edge23" class="edge"><title>Node22&#45;&gt;Node23</title>
<path fill="none" stroke="midnightblue" d="M521.594,-510.187C542.029,-509.067 564.613,-507.829 585.9,-506.663"/>
<polygon fill="midnightblue" stroke="midnightblue" points="586.109,-510.157 595.903,-506.115 585.726,-503.167 586.109,-510.157"/>
</g>
<!-- Node24 -->
<g id="node24" class="node"><title>Node24</title>
<g id="a_node24"><a xlink:href="../../dc/d83/classbackend_1_1command_1_1_command.html#af87287df30654e3519de27f646d0684d" target="_top" xlink:title="backend.command.Command.execute">
<polygon fill="white" stroke="black" points="803.5,-570.5 803.5,-589.5 1006.5,-589.5 1006.5,-570.5 803.5,-570.5"/>
<text text-anchor="middle" x="905" y="-577.5" font-family="Helvetica,sans-Serif" font-size="10.00">backend.command.Command.execute</text>
</a>
</g>
</g>
<!-- Node23&#45;&gt;Node24 -->
<g id="edge24" class="edge"><title>Node23&#45;&gt;Node24</title>
<path fill="none" stroke="midnightblue" d="M729.237,-517.029C740.155,-520.163 751.473,-523.563 762,-527 799.593,-539.272 841.984,-555.4 870.585,-566.628"/>
<polygon fill="midnightblue" stroke="midnightblue" points="869.509,-569.966 880.095,-570.381 872.078,-563.455 869.509,-569.966"/>
</g>
<!-- Node27 -->
<g id="node27" class="node"><title>Node27</title>
<g id="a_node27"><a xlink:href="../../d8/d8d/classgui_1_1_drawing_area.html#a131e998a866309e9767e17fa903b82f0" target="_top" xlink:title="gui.DrawingArea.awtToPaint">
<polygon fill="white" stroke="black" points="831.5,-498.5 831.5,-517.5 978.5,-517.5 978.5,-498.5 831.5,-498.5"/>
<text text-anchor="middle" x="905" y="-505.5" font-family="Helvetica,sans-Serif" font-size="10.00">gui.DrawingArea.awtToPaint</text>
</a>
</g>
</g>
<!-- Node26&#45;&gt;Node27 -->
<g id="edge28" class="edge"><title>Node26&#45;&gt;Node27</title>
<path fill="none" stroke="midnightblue" d="M722.666,-467.58C735.544,-470.343 749.348,-473.552 762,-477 778.272,-481.434 781.657,-484.835 798,-489 809,-491.803 820.744,-494.346 832.261,-496.593"/>
<polygon fill="midnightblue" stroke="midnightblue" points="831.823,-500.073 842.3,-498.492 833.124,-493.194 831.823,-500.073"/>
</g>
<!-- Node28 -->
<g id="node28" class="node"><title>Node28</title>
<g id="a_node28"><a xlink:href="../../d8/d8d/classgui_1_1_drawing_area.html#a32586c1f6aee95492f73590ffc366546" target="_top" xlink:title="gui.DrawingArea.convertCoordinates">
<polygon fill="white" stroke="black" points="809.5,-460.5 809.5,-479.5 1000.5,-479.5 1000.5,-460.5 809.5,-460.5"/>
<text text-anchor="middle" x="905" y="-467.5" font-family="Helvetica,sans-Serif" font-size="10.00">gui.DrawingArea.convertCoordinates</text>
</a>
</g>
</g>
<!-- Node26&#45;&gt;Node28 -->
<g id="edge29" class="edge"><title>Node26&#45;&gt;Node28</title>
<path fill="none" stroke="midnightblue" d="M744.508,-461.715C761.837,-462.615 780.719,-463.596 799.231,-464.557"/>
<polygon fill="midnightblue" stroke="midnightblue" points="799.297,-468.065 809.465,-465.089 799.66,-461.075 799.297,-468.065"/>
</g>
<!-- Node30&#45;&gt;Node28 -->
<g id="edge32" class="edge"><title>Node30&#45;&gt;Node28</title>
<path fill="none" stroke="midnightblue" d="M690.252,-403.555C713.874,-416.24 757.929,-438.491 798,-451 807.073,-453.833 816.723,-456.289 826.363,-458.408"/>
<polygon fill="midnightblue" stroke="midnightblue" points="825.877,-461.882 836.381,-460.495 827.305,-455.029 825.877,-461.882"/>
</g>
<!-- Node31 -->
<g id="node31" class="node"><title>Node31</title>
<g id="a_node31"><a xlink:href="../../d2/d89/classgui_1_1_turtle_image.html#a632edfc5b5937c0ad906304ba225aadb" target="_top" xlink:title="gui.TurtleImage.orientTurtle">
<polygon fill="white" stroke="black" points="832,-308.5 832,-327.5 978,-327.5 978,-308.5 832,-308.5"/>
<text text-anchor="middle" x="905" y="-315.5" font-family="Helvetica,sans-Serif" font-size="10.00">gui.TurtleImage.orientTurtle</text>
</a>
</g>
</g>
<!-- Node30&#45;&gt;Node31 -->
<g id="edge33" class="edge"><title>Node30&#45;&gt;Node31</title>
<path fill="none" stroke="midnightblue" d="M690.252,-384.445C713.874,-371.76 757.929,-349.509 798,-337 807.073,-334.167 816.723,-331.711 826.363,-329.592"/>
<polygon fill="midnightblue" stroke="midnightblue" points="827.305,-332.971 836.381,-327.505 825.877,-326.118 827.305,-332.971"/>
</g>
<!-- Node34 -->
<g id="node34" class="node"><title>Node34</title>
<g id="a_node34"><a xlink:href="../../d8/d8d/classgui_1_1_drawing_area.html#a0f39c1d3d8302435454d2cdc3366e2fd" target="_top" xlink:title="gui.DrawingArea.position\lPointRelativeToLines">
<polygon fill="white" stroke="black" points="837.5,-259 837.5,-289 972.5,-289 972.5,-259 837.5,-259"/>
<text text-anchor="start" x="845.5" y="-277" font-family="Helvetica,sans-Serif" font-size="10.00">gui.DrawingArea.position</text>
<text text-anchor="middle" x="905" y="-266" font-family="Helvetica,sans-Serif" font-size="10.00">PointRelativeToLines</text>
</a>
</g>
</g>
<!-- Node30&#45;&gt;Node34 -->
<g id="edge36" class="edge"><title>Node30&#45;&gt;Node34</title>
<path fill="none" stroke="midnightblue" d="M682.721,-384.251C702.563,-364.927 749.927,-321.675 798,-299 807.266,-294.629 817.358,-290.989 827.511,-287.965"/>
<polygon fill="midnightblue" stroke="midnightblue" points="828.548,-291.31 837.24,-285.252 826.667,-284.567 828.548,-291.31"/>
</g>
<!-- Node35 -->
<g id="node35" class="node"><title>Node35</title>
<g id="a_node35"><a xlink:href="../../d2/d89/classgui_1_1_turtle_image.html#af95ae9f6f053b6e1877c48c4532c871b" target="_top" xlink:title="gui.TurtleImage.setLocation">
<polygon fill="white" stroke="black" points="831,-422.5 831,-441.5 979,-441.5 979,-422.5 831,-422.5"/>
<text text-anchor="middle" x="905" y="-429.5" font-family="Helvetica,sans-Serif" font-size="10.00">gui.TurtleImage.setLocation</text>
</a>
</g>
</g>
<!-- Node30&#45;&gt;Node35 -->
<g id="edge37" class="edge"><title>Node30&#45;&gt;Node35</title>
<path fill="none" stroke="midnightblue" d="M730.993,-403.54C762.847,-408.78 802.535,-415.309 835.861,-420.791"/>
<polygon fill="midnightblue" stroke="midnightblue" points="835.548,-424.286 845.983,-422.456 836.684,-417.379 835.548,-424.286"/>
</g>
<!-- Node36 -->
<g id="node36" class="node"><title>Node36</title>
<g id="a_node36"><a xlink:href="../../d2/d89/classgui_1_1_turtle_image.html#a7efec119de1fb36ed2cbf71ecc80ac4b" target="_top" xlink:title="gui.TurtleImage.sizeTurtle">
<polygon fill="white" stroke="black" points="836.5,-384.5 836.5,-403.5 973.5,-403.5 973.5,-384.5 836.5,-384.5"/>
<text text-anchor="middle" x="905" y="-391.5" font-family="Helvetica,sans-Serif" font-size="10.00">gui.TurtleImage.sizeTurtle</text>
</a>
</g>
</g>
<!-- Node30&#45;&gt;Node36 -->
<g id="edge38" class="edge"><title>Node30&#45;&gt;Node36</title>
<path fill="none" stroke="midnightblue" d="M747.68,-394C772.705,-394 800.663,-394 825.939,-394"/>
<polygon fill="midnightblue" stroke="midnightblue" points="826.219,-397.5 836.219,-394 826.219,-390.5 826.219,-397.5"/>
</g>
<!-- Node37 -->
<g id="node37" class="node"><title>Node37</title>
<g id="a_node37"><a xlink:href="../../d2/d89/classgui_1_1_turtle_image.html#af1e79192e9a4ec13ef28b42e4f354124" target="_top" xlink:title="gui.TurtleImage.updateImage">
<polygon fill="white" stroke="black" points="827,-346.5 827,-365.5 983,-365.5 983,-346.5 827,-346.5"/>
<text text-anchor="middle" x="905" y="-353.5" font-family="Helvetica,sans-Serif" font-size="10.00">gui.TurtleImage.updateImage</text>
</a>
</g>
</g>
<!-- Node30&#45;&gt;Node37 -->
<g id="edge39" class="edge"><title>Node30&#45;&gt;Node37</title>
<path fill="none" stroke="midnightblue" d="M730.993,-384.46C762.847,-379.22 802.535,-372.691 835.861,-367.209"/>
<polygon fill="midnightblue" stroke="midnightblue" points="836.684,-370.621 845.983,-365.544 835.548,-363.714 836.684,-370.621"/>
</g>
<!-- Node32 -->
<g id="node32" class="node"><title>Node32</title>
<g id="a_node32"><a xlink:href="../../df/de2/classbackend_1_1_turtle.html#aaefef90d2377833d5e721222660deccc" target="_top" xlink:title="backend.Turtle.getHeading">
<polygon fill="white" stroke="black" points="1073,-270.5 1073,-289.5 1217,-289.5 1217,-270.5 1073,-270.5"/>
<text text-anchor="middle" x="1145" y="-277.5" font-family="Helvetica,sans-Serif" font-size="10.00">backend.Turtle.getHeading</text>
</a>
</g>
</g>
<!-- Node31&#45;&gt;Node32 -->
<g id="edge34" class="edge"><title>Node31&#45;&gt;Node32</title>
<path fill="none" stroke="midnightblue" d="M965.75,-308.46C998.711,-303.197 1039.81,-296.635 1074.24,-291.138"/>
<polygon fill="midnightblue" stroke="midnightblue" points="1074.9,-294.577 1084.23,-289.544 1073.8,-287.664 1074.9,-294.577"/>
</g>
<!-- Node33 -->
<g id="node33" class="node"><title>Node33</title>
<g id="a_node33"><a xlink:href="../../d8/d98/classbackend_1_1_heading.html#a184d1ef92b62ea73e6edc57e07d3c0d4" target="_top" xlink:title="backend.Heading.getAngle">
<polygon fill="white" stroke="black" points="1072,-308.5 1072,-327.5 1218,-327.5 1218,-308.5 1072,-308.5"/>
<text text-anchor="middle" x="1145" y="-315.5" font-family="Helvetica,sans-Serif" font-size="10.00">backend.Heading.getAngle</text>
</a>
</g>
</g>
<!-- Node31&#45;&gt;Node33 -->
<g id="edge35" class="edge"><title>Node31&#45;&gt;Node33</title>
<path fill="none" stroke="midnightblue" d="M978.054,-318C1004.38,-318 1034.36,-318 1061.52,-318"/>
<polygon fill="midnightblue" stroke="midnightblue" points="1061.78,-321.5 1071.78,-318 1061.78,-314.5 1061.78,-321.5"/>
</g>
<!-- Node38 -->
<g id="node38" class="node"><title>Node38</title>
<g id="a_node38"><a xlink:href="../../df/de2/classbackend_1_1_turtle.html#a6ee2aa85c5d0c1138e49e243dc751332" target="_top" xlink:title="backend.Turtle.getImagePath">
<polygon fill="white" stroke="black" points="1067.5,-346.5 1067.5,-365.5 1222.5,-365.5 1222.5,-346.5 1067.5,-346.5"/>
<text text-anchor="middle" x="1145" y="-353.5" font-family="Helvetica,sans-Serif" font-size="10.00">backend.Turtle.getImagePath</text>
</a>
</g>
</g>
<!-- Node37&#45;&gt;Node38 -->
<g id="edge40" class="edge"><title>Node37&#45;&gt;Node38</title>
<path fill="none" stroke="midnightblue" d="M983.272,-356C1006.79,-356 1032.79,-356 1056.91,-356"/>
<polygon fill="midnightblue" stroke="midnightblue" points="1057.12,-359.5 1067.12,-356 1057.12,-352.5 1057.12,-359.5"/>
</g>
<!-- Node39&#45;&gt;Node2 -->
<g id="edge50" class="edge"><title>Node39&#45;&gt;Node2</title>
<path fill="none" stroke="midnightblue" d="M467.32,-719.688C486.795,-732.408 520.898,-756.066 546,-781 564.668,-799.543 559.759,-813.94 582,-828 587.258,-831.324 593.005,-834.075 598.965,-836.351"/>
<polygon fill="midnightblue" stroke="midnightblue" points="597.872,-839.676 608.466,-839.55 600.105,-833.042 597.872,-839.676"/>
</g>
<!-- Node39&#45;&gt;Node25 -->
<g id="edge51" class="edge"><title>Node39&#45;&gt;Node25</title>
<path fill="none" stroke="midnightblue" d="M523.344,-704.39C531.683,-701.301 539.513,-696.982 546,-691 588.502,-651.808 539.924,-605.649 582,-566 587.388,-560.922 593.777,-557.032 600.62,-554.066"/>
<polygon fill="midnightblue" stroke="midnightblue" points="601.994,-557.29 610.183,-550.567 599.589,-550.716 601.994,-557.29"/>
</g>
<!-- Node39&#45;&gt;Node26 -->
<g id="edge52" class="edge"><title>Node39&#45;&gt;Node26</title>
<path fill="none" stroke="midnightblue" d="M523.071,-705.424C531.661,-702.21 539.632,-697.58 546,-691 613.072,-621.693 515.306,-546.671 582,-477 584.535,-474.352 587.342,-472.028 590.35,-469.99"/>
<polygon fill="midnightblue" stroke="midnightblue" points="592.287,-472.917 599.303,-464.978 588.868,-466.809 592.287,-472.917"/>
</g>
<!-- Node39&#45;&gt;Node29 -->
<g id="edge53" class="edge"><title>Node39&#45;&gt;Node29</title>
<path fill="none" stroke="midnightblue" d="M501.576,-719.548C516.776,-724.063 532.923,-730.604 546,-740 567.946,-755.769 559.383,-774.211 582,-789 585.831,-791.505 589.932,-793.7 594.193,-795.622"/>
<polygon fill="midnightblue" stroke="midnightblue" points="593.147,-798.972 603.733,-799.409 595.73,-792.466 593.147,-798.972"/>
</g>
<!-- Node39&#45;&gt;Node30 -->
<g id="edge54" class="edge"><title>Node39&#45;&gt;Node30</title>
<path fill="none" stroke="midnightblue" d="M523.222,-705.569C531.79,-702.333 539.714,-697.659 546,-691 623.665,-608.732 516.054,-530.93 582,-439 592.461,-424.417 609.042,-414.266 625.072,-407.348"/>
<polygon fill="midnightblue" stroke="midnightblue" points="626.398,-410.588 634.396,-403.64 623.811,-404.083 626.398,-410.588"/>
</g>
<!-- Node40 -->
<g id="node40" class="node"><title>Node40</title>
<g id="a_node40"><a xlink:href="../../d5/d8a/classgui_1_1_slogo_tab.html#a03a42aa384aecd96eb89297dd88de728" target="_top" xlink:title="gui.SlogoTab.setVariablesBox">
<polygon fill="white" stroke="black" points="594,-711.5 594,-730.5 750,-730.5 750,-711.5 594,-711.5"/>
<text text-anchor="middle" x="672" y="-718.5" font-family="Helvetica,sans-Serif" font-size="10.00">gui.SlogoTab.setVariablesBox</text>
</a>
</g>
</g>
<!-- Node39&#45;&gt;Node40 -->
<g id="edge42" class="edge"><title>Node39&#45;&gt;Node40</title>
<path fill="none" stroke="midnightblue" d="M523.103,-713.571C542.442,-714.543 563.61,-715.606 583.733,-716.617"/>
<polygon fill="midnightblue" stroke="midnightblue" points="583.665,-720.118 593.829,-717.124 584.017,-713.126 583.665,-720.118"/>
</g>
<!-- Node45 -->
<g id="node45" class="node"><title>Node45</title>
<g id="a_node45"><a xlink:href="../../d3/dac/classbackend_1_1_model.html#ab536d347adb5930d937252e7dae551d9" target="_top" xlink:title="backend.Model.getExecuted\lCommands">
<polygon fill="white" stroke="black" points="596,-624 596,-654 748,-654 748,-624 596,-624"/>
<text text-anchor="start" x="604" y="-642" font-family="Helvetica,sans-Serif" font-size="10.00">backend.Model.getExecuted</text>
<text text-anchor="middle" x="672" y="-631" font-family="Helvetica,sans-Serif" font-size="10.00">Commands</text>
</a>
</g>
</g>
<!-- Node39&#45;&gt;Node45 -->
<g id="edge47" class="edge"><title>Node39&#45;&gt;Node45</title>
<path fill="none" stroke="midnightblue" d="M518.397,-700.444C527.877,-697.978 537.34,-694.882 546,-691 564.25,-682.818 564.067,-672.855 582,-664 586.648,-661.705 591.539,-659.591 596.539,-657.649"/>
<polygon fill="midnightblue" stroke="midnightblue" points="598.046,-660.826 606.252,-654.125 595.658,-654.246 598.046,-660.826"/>
</g>
<!-- Node46 -->
<g id="node46" class="node"><title>Node46</title>
<g id="a_node46"><a xlink:href="../../d3/dac/classbackend_1_1_model.html#a4ad1ab45a05d4bc905bd82c0cad71c2a" target="_top" xlink:title="backend.Model.executeCommand">
<polygon fill="white" stroke="black" points="582,-673.5 582,-692.5 762,-692.5 762,-673.5 582,-673.5"/>
<text text-anchor="middle" x="672" y="-680.5" font-family="Helvetica,sans-Serif" font-size="10.00">backend.Model.executeCommand</text>
</a>
</g>
</g>
<!-- Node39&#45;&gt;Node46 -->
<g id="edge48" class="edge"><title>Node39&#45;&gt;Node46</title>
<path fill="none" stroke="midnightblue" d="M523.103,-701.234C542.442,-698.85 563.61,-696.24 583.733,-693.759"/>
<polygon fill="midnightblue" stroke="midnightblue" points="584.332,-697.212 593.829,-692.514 583.475,-690.264 584.332,-697.212"/>
</g>
<!-- Node47 -->
<g id="node47" class="node"><title>Node47</title>
<g id="a_node47"><a xlink:href="../../de/da4/classgui_1_1text_areas_1_1_previous_commands_box.html#a2912bc8e219d6ec516d85aec6c6381e9" target="_top" xlink:title="gui.textAreas.PreviousCommands\lBox.setBoxes">
<polygon fill="white" stroke="black" points="582.5,-575 582.5,-605 761.5,-605 761.5,-575 582.5,-575"/>
<text text-anchor="start" x="590.5" y="-593" font-family="Helvetica,sans-Serif" font-size="10.00">gui.textAreas.PreviousCommands</text>
<text text-anchor="middle" x="672" y="-582" font-family="Helvetica,sans-Serif" font-size="10.00">Box.setBoxes</text>
</a>
</g>
</g>
<!-- Node39&#45;&gt;Node47 -->
<g id="edge55" class="edge"><title>Node39&#45;&gt;Node47</title>
<path fill="none" stroke="midnightblue" d="M523.429,-703.028C531.559,-700.134 539.313,-696.232 546,-691 575.436,-667.968 553.441,-639.11 582,-615 583.985,-613.324 586.075,-611.76 588.249,-610.301"/>
<polygon fill="midnightblue" stroke="midnightblue" points="590.142,-613.248 597.002,-605.174 586.604,-607.208 590.142,-613.248"/>
</g>
<!-- Node48 -->
<g id="node48" class="node"><title>Node48</title>
<g id="a_node48"><a xlink:href="../../d8/d85/classgui_1_1text_areas_1_1_abstract_editable_text_box.html#a6466e6d611f6b1f433c61798231b3c37" target="_top" xlink:title="gui.textAreas.AbstractEditable\lTextBox.setText">
<polygon fill="white" stroke="black" points="591,-750 591,-780 753,-780 753,-750 591,-750"/>
<text text-anchor="start" x="599" y="-768" font-family="Helvetica,sans-Serif" font-size="10.00">gui.textAreas.AbstractEditable</text>
<text text-anchor="middle" x="672" y="-757" font-family="Helvetica,sans-Serif" font-size="10.00">TextBox.setText</text>
</a>
</g>
</g>
<!-- Node39&#45;&gt;Node48 -->
<g id="edge56" class="edge"><title>Node39&#45;&gt;Node48</title>
<path fill="none" stroke="midnightblue" d="M490.147,-719.58C520.616,-727.232 564.139,-738.163 600.854,-747.383"/>
<polygon fill="midnightblue" stroke="midnightblue" points="600.461,-750.893 611.013,-749.935 602.166,-744.104 600.461,-750.893"/>
</g>
<!-- Node41 -->
<g id="node41" class="node"><title>Node41</title>
<g id="a_node41"><a xlink:href="../../d3/d45/classgui_1_1text_areas_1_1_user_variables_box.html#a2edcafc51bb0a7512a136b40a856b46c" target="_top" xlink:title="gui.textAreas.UserVariables\lBox.getLabels">
<polygon fill="white" stroke="black" points="830.5,-730 830.5,-760 979.5,-760 979.5,-730 830.5,-730"/>
<text text-anchor="start" x="838.5" y="-748" font-family="Helvetica,sans-Serif" font-size="10.00">gui.textAreas.UserVariables</text>
<text text-anchor="middle" x="905" y="-737" font-family="Helvetica,sans-Serif" font-size="10.00">Box.getLabels</text>
</a>
</g>
</g>
<!-- Node40&#45;&gt;Node41 -->
<g id="edge43" class="edge"><title>Node40&#45;&gt;Node41</title>
<path fill="none" stroke="midnightblue" d="M750.241,-729.025C772.748,-731.363 797.441,-733.929 820.326,-736.307"/>
<polygon fill="midnightblue" stroke="midnightblue" points="820.046,-739.796 830.354,-737.348 820.769,-732.834 820.046,-739.796"/>
</g>
<!-- Node42 -->
<g id="node42" class="node"><title>Node42</title>
<g id="a_node42"><a xlink:href="../../d3/d45/classgui_1_1text_areas_1_1_user_variables_box.html#a278ebe1beb1043521d7bb4b77167722f" target="_top" xlink:title="gui.textAreas.UserVariables\lBox.getFields">
<polygon fill="white" stroke="black" points="830.5,-681 830.5,-711 979.5,-711 979.5,-681 830.5,-681"/>
<text text-anchor="start" x="838.5" y="-699" font-family="Helvetica,sans-Serif" font-size="10.00">gui.textAreas.UserVariables</text>
<text text-anchor="middle" x="905" y="-688" font-family="Helvetica,sans-Serif" font-size="10.00">Box.getFields</text>
</a>
</g>
</g>
<!-- Node40&#45;&gt;Node42 -->
<g id="edge44" class="edge"><title>Node40&#45;&gt;Node42</title>
<path fill="none" stroke="midnightblue" d="M750.241,-712.641C772.748,-710.205 797.441,-707.532 820.326,-705.056"/>
<polygon fill="midnightblue" stroke="midnightblue" points="820.789,-708.526 830.354,-703.97 820.035,-701.567 820.789,-708.526"/>
</g>
<!-- Node43 -->
<g id="node43" class="node"><title>Node43</title>
<g id="a_node43"><a xlink:href="../../d3/dac/classbackend_1_1_model.html#a834151b5a74c7a2a136f51ed6a1a709f" target="_top" xlink:title="backend.Model.getUserVariables">
<polygon fill="white" stroke="black" points="818.5,-642.5 818.5,-661.5 991.5,-661.5 991.5,-642.5 818.5,-642.5"/>
<text text-anchor="middle" x="905" y="-649.5" font-family="Helvetica,sans-Serif" font-size="10.00">backend.Model.getUserVariables</text>
</a>
</g>
</g>
<!-- Node40&#45;&gt;Node43 -->
<g id="edge45" class="edge"><title>Node40&#45;&gt;Node43</title>
<path fill="none" stroke="midnightblue" d="M736.517,-711.413C745.308,-708.954 754.043,-705.869 762,-702 780.731,-692.893 779.162,-680.883 798,-672 804.259,-669.048 810.92,-666.532 817.737,-664.387"/>
<polygon fill="midnightblue" stroke="midnightblue" points="819.156,-667.622 827.806,-661.503 817.228,-660.892 819.156,-667.622"/>
</g>
<!-- Node44 -->
<g id="node44" class="node"><title>Node44</title>
<g id="a_node44"><a xlink:href="../../d3/dac/classbackend_1_1_model.html#a222c40805c83296a76bd758f7f12dd43" target="_top" xlink:title="backend.Model.setUserVariable">
<polygon fill="white" stroke="black" points="821.5,-779.5 821.5,-798.5 988.5,-798.5 988.5,-779.5 821.5,-779.5"/>
<text text-anchor="middle" x="905" y="-786.5" font-family="Helvetica,sans-Serif" font-size="10.00">backend.Model.setUserVariable</text>
</a>
</g>
</g>
<!-- Node40&#45;&gt;Node44 -->
<g id="edge46" class="edge"><title>Node40&#45;&gt;Node44</title>
<path fill="none" stroke="midnightblue" d="M732.627,-730.574C742.689,-733.26 752.834,-736.673 762,-741 780.33,-749.653 779.523,-760.665 798,-769 804.69,-772.018 811.815,-774.58 819.086,-776.756"/>
<polygon fill="midnightblue" stroke="midnightblue" points="818.495,-780.223 829.064,-779.49 820.345,-773.472 818.495,-780.223"/>
</g>
<!-- Node46&#45;&gt;Node24 -->
<g id="edge49" class="edge"><title>Node46&#45;&gt;Node24</title>
<path fill="none" stroke="midnightblue" d="M733.694,-673.429C743.431,-670.752 753.193,-667.34 762,-663 780.682,-653.793 780.57,-644.4 798,-633 821.593,-617.57 850.296,-603.474 871.88,-593.705"/>
<polygon fill="midnightblue" stroke="midnightblue" points="873.541,-596.797 881.253,-589.532 870.694,-590.402 873.541,-596.797"/>
</g>
</g>
</svg>
