<?xml version="1.0" encoding="UTF-8" standalone="no"?>
<!DOCTYPE svg PUBLIC "-//W3C//DTD SVG 1.1//EN"
 "http://www.w3.org/Graphics/SVG/1.1/DTD/svg11.dtd">
<!-- Generated by graphviz version 2.36.0 (20140111.2315)
 -->
<!-- Title: gui.SlogoTab.setVariablesBox Pages: 1 -->
<svg width="374pt" height="164pt"
 viewBox="0.00 0.00 374.00 164.00" xmlns="http://www.w3.org/2000/svg" xmlns:xlink="http://www.w3.org/1999/xlink">
<g id="graph0" class="graph" transform="scale(1 1) rotate(0) translate(4 160)">
<title>gui.SlogoTab.setVariablesBox</title>
<polygon fill="white" stroke="none" points="-4,4 -4,-160 370,-160 370,4 -4,4"/>
<!-- Node1 -->
<g id="node1" class="node"><title>Node1</title>
<polygon fill="#bfbfbf" stroke="black" points="0,-60.5 0,-79.5 156,-79.5 156,-60.5 0,-60.5"/>
<text text-anchor="middle" x="78" y="-67.5" font-family="Helvetica,sans-Serif" font-size="10.00">gui.SlogoTab.setVariablesBox</text>
</g>
<!-- Node2 -->
<g id="node2" class="node"><title>Node2</title>
<g id="a_node2"><a xlink:href="../../d3/d45/classgui_1_1text_areas_1_1_user_variables_box.html#a278ebe1beb1043521d7bb4b77167722f" target="_top" xlink:title="gui.textAreas.UserVariables\lBox.getFields">
<polygon fill="white" stroke="black" points="204.5,-126 204.5,-156 353.5,-156 353.5,-126 204.5,-126"/>
<text text-anchor="start" x="212.5" y="-144" font-family="Helvetica,sans-Serif" font-size="10.00">gui.textAreas.UserVariables</text>
<text text-anchor="middle" x="279" y="-133" font-family="Helvetica,sans-Serif" font-size="10.00">Box.getFields</text>
</a>
</g>
</g>
<!-- Node1&#45;&gt;Node2 -->
<g id="edge1" class="edge"><title>Node1&#45;&gt;Node2</title>
<path fill="none" stroke="midnightblue" d="M100.828,-79.674C123.401,-89.4908 159.791,-104.796 192,-116 198.866,-118.388 206.092,-120.738 213.317,-122.983"/>
<polygon fill="midnightblue" stroke="midnightblue" points="212.551,-126.408 223.137,-125.975 214.591,-119.712 212.551,-126.408"/>
</g>
<!-- Node3 -->
<g id="node3" class="node"><title>Node3</title>
<g id="a_node3"><a xlink:href="../../d3/d45/classgui_1_1text_areas_1_1_user_variables_box.html#a2edcafc51bb0a7512a136b40a856b46c" target="_top" xlink:title="gui.textAreas.UserVariables\lBox.getLabels">
<polygon fill="white" stroke="black" points="204.5,-77 204.5,-107 353.5,-107 353.5,-77 204.5,-77"/>
<text text-anchor="start" x="212.5" y="-95" font-family="Helvetica,sans-Serif" font-size="10.00">gui.textAreas.UserVariables</text>
<text text-anchor="middle" x="279" y="-84" font-family="Helvetica,sans-Serif" font-size="10.00">Box.getLabels</text>
</a>
</g>
</g>
<!-- Node1&#45;&gt;Node3 -->
<g id="edge2" class="edge"><title>Node1&#45;&gt;Node3</title>
<path fill="none" stroke="midnightblue" d="M156.223,-78.5373C168.723,-79.9192 181.718,-81.3558 194.362,-82.7536"/>
<polygon fill="midnightblue" stroke="midnightblue" points="194.086,-86.2444 204.411,-83.8645 194.856,-79.2868 194.086,-86.2444"/>
</g>
<!-- Node4 -->
<g id="node4" class="node"><title>Node4</title>
<g id="a_node4"><a xlink:href="../../d3/dac/classbackend_1_1_model.html#a834151b5a74c7a2a136f51ed6a1a709f" target="_top" xlink:title="backend.Model.getUserVariables">
<polygon fill="white" stroke="black" points="192.5,-38.5 192.5,-57.5 365.5,-57.5 365.5,-38.5 192.5,-38.5"/>
<text text-anchor="middle" x="279" y="-45.5" font-family="Helvetica,sans-Serif" font-size="10.00">backend.Model.getUserVariables</text>
</a>
</g>
</g>
<!-- Node1&#45;&gt;Node4 -->
<g id="edge3" class="edge"><title>Node1&#45;&gt;Node4</title>
<path fill="none" stroke="midnightblue" d="M156.223,-61.4627C164.704,-60.5252 173.413,-59.5624 182.085,-58.6037"/>
<polygon fill="midnightblue" stroke="midnightblue" points="182.677,-62.0596 192.232,-57.4819 181.908,-55.102 182.677,-62.0596"/>
</g>
<!-- Node5 -->
<g id="node5" class="node"><title>Node5</title>
<g id="a_node5"><a xlink:href="../../d3/dac/classbackend_1_1_model.html#a222c40805c83296a76bd758f7f12dd43" target="_top" xlink:title="backend.Model.setUserVariable">
<polygon fill="white" stroke="black" points="195.5,-0.5 195.5,-19.5 362.5,-19.5 362.5,-0.5 195.5,-0.5"/>
<text text-anchor="middle" x="279" y="-7.5" font-family="Helvetica,sans-Serif" font-size="10.00">backend.Model.setUserVariable</text>
</a>
</g>
</g>
<!-- Node1&#45;&gt;Node5 -->
<g id="edge4" class="edge"><title>Node1&#45;&gt;Node5</title>
<path fill="none" stroke="midnightblue" d="M102.511,-60.4489C125.164,-51.4909 160.536,-38.1413 192,-29 200.842,-26.4311 210.283,-24.0194 219.552,-21.8331"/>
<polygon fill="midnightblue" stroke="midnightblue" points="220.54,-25.1976 229.505,-19.5525 218.976,-18.3744 220.54,-25.1976"/>
</g>
</g>
</svg>
