<?xml version="1.0" encoding="UTF-8" standalone="no"?>
<!DOCTYPE svg PUBLIC "-//W3C//DTD SVG 1.1//EN"
 "http://www.w3.org/Graphics/SVG/1.1/DTD/svg11.dtd">
<!-- Generated by graphviz version 2.36.0 (20140111.2315)
 -->
<!-- Title: gui.textAreas.UserFunctionsAndCommands.UserFunctionsAndCommands Pages: 1 -->
<svg width="442pt" height="234pt"
 viewBox="0.00 0.00 442.00 234.00" xmlns="http://www.w3.org/2000/svg" xmlns:xlink="http://www.w3.org/1999/xlink">
<g id="graph0" class="graph" transform="scale(1 1) rotate(0) translate(4 230)">
<title>gui.textAreas.UserFunctionsAndCommands.UserFunctionsAndCommands</title>
<polygon fill="white" stroke="none" points="-4,4 -4,-230 438,-230 438,4 -4,4"/>
<!-- Node1 -->
<g id="node1" class="node"><title>Node1</title>
<polygon fill="#bfbfbf" stroke="black" points="0,-98 0,-128 236,-128 236,-98 0,-98"/>
<text text-anchor="start" x="8" y="-116" font-family="Helvetica,sans-Serif" font-size="10.00">gui.textAreas.UserFunctions</text>
<text text-anchor="middle" x="118" y="-105" font-family="Helvetica,sans-Serif" font-size="10.00">AndCommands.UserFunctionsAndCommands</text>
</g>
<!-- Node2 -->
<g id="node2" class="node"><title>Node2</title>
<g id="a_node2"><a xlink:href="../../d8/d85/classgui_1_1text_areas_1_1_abstract_editable_text_box.html#ad4fad0a869cb08703d66e5af3c947ad8" target="_top" xlink:title="gui.textAreas.AbstractEditable\lTextBox.addTextAreaToRegion">
<polygon fill="white" stroke="black" points="272,-196 272,-226 434,-226 434,-196 272,-196"/>
<text text-anchor="start" x="280" y="-214" font-family="Helvetica,sans-Serif" font-size="10.00">gui.textAreas.AbstractEditable</text>
<text text-anchor="middle" x="353" y="-203" font-family="Helvetica,sans-Serif" font-size="10.00">TextBox.addTextAreaToRegion</text>
</a>
</g>
</g>
<!-- Node1&#45;&gt;Node2 -->
<g id="edge1" class="edge"><title>Node1&#45;&gt;Node2</title>
<path fill="none" stroke="midnightblue" d="M147.504,-128.108C177.832,-143.822 227.481,-168.526 272,-186 277.867,-188.303 284.038,-190.542 290.244,-192.673"/>
<polygon fill="midnightblue" stroke="midnightblue" points="289.39,-196.078 299.984,-195.927 291.608,-189.439 289.39,-196.078"/>
</g>
<!-- Node3 -->
<g id="node3" class="node"><title>Node3</title>
<g id="a_node3"><a xlink:href="../../d8/d85/classgui_1_1text_areas_1_1_abstract_editable_text_box.html#af6fc5d24e81e96264642b5009ba5509b" target="_top" xlink:title="gui.textAreas.AbstractEditable\lTextBox.makeTextArea">
<polygon fill="white" stroke="black" points="272,-147 272,-177 434,-177 434,-147 272,-147"/>
<text text-anchor="start" x="280" y="-165" font-family="Helvetica,sans-Serif" font-size="10.00">gui.textAreas.AbstractEditable</text>
<text text-anchor="middle" x="353" y="-154" font-family="Helvetica,sans-Serif" font-size="10.00">TextBox.makeTextArea</text>
</a>
</g>
</g>
<!-- Node1&#45;&gt;Node3 -->
<g id="edge2" class="edge"><title>Node1&#45;&gt;Node3</title>
<path fill="none" stroke="midnightblue" d="M190.491,-128.035C215.875,-133.373 244.629,-139.42 270.767,-144.917"/>
<polygon fill="midnightblue" stroke="midnightblue" points="270.138,-148.361 280.644,-146.994 271.578,-141.511 270.138,-148.361"/>
</g>
<!-- Node4 -->
<g id="node4" class="node"><title>Node4</title>
<g id="a_node4"><a xlink:href="../../d8/d85/classgui_1_1text_areas_1_1_abstract_editable_text_box.html#a2b5153268bf760e7f8a12b7c677a0230" target="_top" xlink:title="gui.textAreas.AbstractEditable\lTextBox.setRegionPreferences">
<polygon fill="white" stroke="black" points="272,-98 272,-128 434,-128 434,-98 272,-98"/>
<text text-anchor="start" x="280" y="-116" font-family="Helvetica,sans-Serif" font-size="10.00">gui.textAreas.AbstractEditable</text>
<text text-anchor="middle" x="353" y="-105" font-family="Helvetica,sans-Serif" font-size="10.00">TextBox.setRegionPreferences</text>
</a>
</g>
</g>
<!-- Node1&#45;&gt;Node4 -->
<g id="edge3" class="edge"><title>Node1&#45;&gt;Node4</title>
<path fill="none" stroke="midnightblue" d="M236.183,-113C244.723,-113 253.258,-113 261.604,-113"/>
<polygon fill="midnightblue" stroke="midnightblue" points="261.68,-116.5 271.68,-113 261.68,-109.5 261.68,-116.5"/>
</g>
<!-- Node5 -->
<g id="node5" class="node"><title>Node5</title>
<g id="a_node5"><a xlink:href="../../d8/d85/classgui_1_1text_areas_1_1_abstract_editable_text_box.html#a4d11b0e2189de6b7bc4a7a248ce3a00d" target="_top" xlink:title="gui.textAreas.AbstractEditable\lTextBox.setxLocation">
<polygon fill="white" stroke="black" points="272,-49 272,-79 434,-79 434,-49 272,-49"/>
<text text-anchor="start" x="280" y="-67" font-family="Helvetica,sans-Serif" font-size="10.00">gui.textAreas.AbstractEditable</text>
<text text-anchor="middle" x="353" y="-56" font-family="Helvetica,sans-Serif" font-size="10.00">TextBox.setxLocation</text>
</a>
</g>
</g>
<!-- Node1&#45;&gt;Node5 -->
<g id="edge4" class="edge"><title>Node1&#45;&gt;Node5</title>
<path fill="none" stroke="midnightblue" d="M190.491,-97.9654C215.875,-92.627 244.629,-86.5802 270.767,-81.0834"/>
<polygon fill="midnightblue" stroke="midnightblue" points="271.578,-84.4893 280.644,-79.0062 270.138,-77.6392 271.578,-84.4893"/>
</g>
<!-- Node6 -->
<g id="node6" class="node"><title>Node6</title>
<g id="a_node6"><a xlink:href="../../d8/d85/classgui_1_1text_areas_1_1_abstract_editable_text_box.html#a26ca62985a5feafd0b04eb6fb707e376" target="_top" xlink:title="gui.textAreas.AbstractEditable\lTextBox.setyLocation">
<polygon fill="white" stroke="black" points="272,-0 272,-30 434,-30 434,-0 272,-0"/>
<text text-anchor="start" x="280" y="-18" font-family="Helvetica,sans-Serif" font-size="10.00">gui.textAreas.AbstractEditable</text>
<text text-anchor="middle" x="353" y="-7" font-family="Helvetica,sans-Serif" font-size="10.00">TextBox.setyLocation</text>
</a>
</g>
</g>
<!-- Node1&#45;&gt;Node6 -->
<g id="edge5" class="edge"><title>Node1&#45;&gt;Node6</title>
<path fill="none" stroke="midnightblue" d="M147.504,-97.8924C177.832,-82.178 227.481,-57.4741 272,-40 277.867,-37.6972 284.038,-35.4581 290.244,-33.3269"/>
<polygon fill="midnightblue" stroke="midnightblue" points="291.608,-36.5613 299.984,-30.0731 289.39,-29.922 291.608,-36.5613"/>
</g>
</g>
</svg>
