<?xml version="1.0" encoding="UTF-8" standalone="no"?>
<!DOCTYPE svg PUBLIC "-//W3C//DTD SVG 1.1//EN"
 "http://www.w3.org/Graphics/SVG/1.1/DTD/svg11.dtd">
<!-- Generated by graphviz version 2.36.0 (20140111.2315)
 -->
<!-- Title: backend.command.BinaryMathOperation.execute Pages: 1 -->
<svg width="376pt" height="38pt"
 viewBox="0.00 0.00 376.00 38.00" xmlns="http://www.w3.org/2000/svg" xmlns:xlink="http://www.w3.org/1999/xlink">
<g id="graph0" class="graph" transform="scale(1 1) rotate(0) translate(4 34)">
<title>backend.command.BinaryMathOperation.execute</title>
<polygon fill="white" stroke="none" points="-4,4 -4,-34 372,-34 372,4 -4,4"/>
<!-- Node1 -->
<g id="node1" class="node"><title>Node1</title>
<polygon fill="#bfbfbf" stroke="black" points="0,-0 0,-30 166,-30 166,-0 0,-0"/>
<text text-anchor="start" x="8" y="-18" font-family="Helvetica,sans-Serif" font-size="10.00">backend.command.BinaryMath</text>
<text text-anchor="middle" x="83" y="-7" font-family="Helvetica,sans-Serif" font-size="10.00">Operation.execute</text>
</g>
<!-- Node2 -->
<g id="node2" class="node"><title>Node2</title>
<g id="a_node2"><a xlink:href="../../dc/d64/classbackend_1_1command_1_1_binary_math_operation.html#a9532b61eb03077a467aa8fcfbb1f1a94" target="_top" xlink:title="backend.command.BinaryMath\lOperation.operate">
<polygon fill="white" stroke="black" points="202,-0 202,-30 368,-30 368,-0 202,-0"/>
<text text-anchor="start" x="210" y="-18" font-family="Helvetica,sans-Serif" font-size="10.00">backend.command.BinaryMath</text>
<text text-anchor="middle" x="285" y="-7" font-family="Helvetica,sans-Serif" font-size="10.00">Operation.operate</text>
</a>
</g>
</g>
<!-- Node1&#45;&gt;Node2 -->
<g id="edge1" class="edge"><title>Node1&#45;&gt;Node2</title>
<path fill="none" stroke="midnightblue" d="M166.213,-15C174.562,-15 183.082,-15 191.53,-15"/>
<polygon fill="midnightblue" stroke="midnightblue" points="191.783,-18.5001 201.783,-15 191.783,-11.5001 191.783,-18.5001"/>
</g>
</g>
</svg>
