<?xml version="1.0" encoding="UTF-8" standalone="no"?>
<!DOCTYPE svg PUBLIC "-//W3C//DTD SVG 1.1//EN"
 "http://www.w3.org/Graphics/SVG/1.1/DTD/svg11.dtd">
<!-- Generated by graphviz version 2.36.0 (20140111.2315)
 -->
<!-- Title: backend.command.Left.execute Pages: 1 -->
<svg width="816pt" height="115pt"
 viewBox="0.00 0.00 816.00 115.00" xmlns="http://www.w3.org/2000/svg" xmlns:xlink="http://www.w3.org/1999/xlink">
<g id="graph0" class="graph" transform="scale(1 1) rotate(0) translate(4 111)">
<title>backend.command.Left.execute</title>
<polygon fill="white" stroke="none" points="-4,4 -4,-111 812,-111 812,4 -4,4"/>
<!-- Node1 -->
<g id="node1" class="node"><title>Node1</title>
<polygon fill="#bfbfbf" stroke="black" points="0.5,-60.5 0.5,-79.5 171.5,-79.5 171.5,-60.5 0.5,-60.5"/>
<text text-anchor="middle" x="86" y="-67.5" font-family="Helvetica,sans-Serif" font-size="10.00">backend.command.Left.execute</text>
</g>
<!-- Node2 -->
<g id="node2" class="node"><title>Node2</title>
<g id="a_node2"><a xlink:href="../../dd/d3e/classbackend_1_1command_1_1_degrees_turtle_command.html#acd59c2f8fc9e6584311ad0a046a6a6ca" target="_top" xlink:title="backend.command.DegreesTurtle\lCommand.degrees">
<polygon fill="white" stroke="black" points="208,-77 208,-107 386,-107 386,-77 208,-77"/>
<text text-anchor="start" x="216" y="-95" font-family="Helvetica,sans-Serif" font-size="10.00">backend.command.DegreesTurtle</text>
<text text-anchor="middle" x="297" y="-84" font-family="Helvetica,sans-Serif" font-size="10.00">Command.degrees</text>
</a>
</g>
</g>
<!-- Node1&#45;&gt;Node2 -->
<g id="edge1" class="edge"><title>Node1&#45;&gt;Node2</title>
<path fill="none" stroke="midnightblue" d="M171.707,-78.9165C180.247,-79.8154 188.969,-80.7336 197.635,-81.6458"/>
<polygon fill="midnightblue" stroke="midnightblue" points="197.457,-85.1463 207.768,-82.7124 198.189,-78.1847 197.457,-85.1463"/>
</g>
<!-- Node4 -->
<g id="node4" class="node"><title>Node4</title>
<g id="a_node4"><a xlink:href="../../df/de2/classbackend_1_1_turtle.html#a382a75a93f59498cf7605d2c394ca531" target="_top" xlink:title="backend.Turtle.rotateLeft">
<polygon fill="white" stroke="black" points="229,-38.5 229,-57.5 365,-57.5 365,-38.5 229,-38.5"/>
<text text-anchor="middle" x="297" y="-45.5" font-family="Helvetica,sans-Serif" font-size="10.00">backend.Turtle.rotateLeft</text>
</a>
</g>
</g>
<!-- Node1&#45;&gt;Node4 -->
<g id="edge3" class="edge"><title>Node1&#45;&gt;Node4</title>
<path fill="none" stroke="midnightblue" d="M171.707,-61.0835C187.301,-59.442 203.505,-57.7363 218.861,-56.1199"/>
<polygon fill="midnightblue" stroke="midnightblue" points="219.237,-59.5998 228.815,-55.0721 218.504,-52.6383 219.237,-59.5998"/>
</g>
<!-- Node3 -->
<g id="node3" class="node"><title>Node3</title>
<g id="a_node3"><a xlink:href="../../dc/d83/classbackend_1_1command_1_1_command.html#ae218516ae55b1b0d4820d55c901793ea" target="_top" xlink:title="backend.command.Command.execute\lParam">
<polygon fill="white" stroke="black" points="422.5,-77 422.5,-107 625.5,-107 625.5,-77 422.5,-77"/>
<text text-anchor="start" x="430.5" y="-95" font-family="Helvetica,sans-Serif" font-size="10.00">backend.command.Command.execute</text>
<text text-anchor="middle" x="524" y="-84" font-family="Helvetica,sans-Serif" font-size="10.00">Param</text>
</a>
</g>
</g>
<!-- Node2&#45;&gt;Node3 -->
<g id="edge2" class="edge"><title>Node2&#45;&gt;Node3</title>
<path fill="none" stroke="midnightblue" d="M386.28,-92C394.775,-92 403.464,-92 412.139,-92"/>
<polygon fill="midnightblue" stroke="midnightblue" points="412.305,-95.5001 422.305,-92 412.305,-88.5001 412.305,-95.5001"/>
</g>
<!-- Node5 -->
<g id="node5" class="node"><title>Node5</title>
<g id="a_node5"><a xlink:href="../../d8/d98/classbackend_1_1_heading.html#a184d1ef92b62ea73e6edc57e07d3c0d4" target="_top" xlink:title="backend.Heading.getAngle">
<polygon fill="white" stroke="black" points="662,-19.5 662,-38.5 808,-38.5 808,-19.5 662,-19.5"/>
<text text-anchor="middle" x="735" y="-26.5" font-family="Helvetica,sans-Serif" font-size="10.00">backend.Heading.getAngle</text>
</a>
</g>
</g>
<!-- Node4&#45;&gt;Node5 -->
<g id="edge4" class="edge"><title>Node4&#45;&gt;Node5</title>
<path fill="none" stroke="midnightblue" d="M365.169,-45.0729C442.216,-41.7153 568.565,-36.2093 651.52,-32.5943"/>
<polygon fill="midnightblue" stroke="midnightblue" points="651.829,-36.0843 661.667,-32.1521 651.524,-29.0909 651.829,-36.0843"/>
</g>
<!-- Node6 -->
<g id="node6" class="node"><title>Node6</title>
<g id="a_node6"><a xlink:href="../../df/de2/classbackend_1_1_turtle.html#a05bda1daddb116c72fb4e62e87d6c88b" target="_top" xlink:title="backend.Turtle.setHeading">
<polygon fill="white" stroke="black" points="452.5,-0.5 452.5,-19.5 595.5,-19.5 595.5,-0.5 452.5,-0.5"/>
<text text-anchor="middle" x="524" y="-7.5" font-family="Helvetica,sans-Serif" font-size="10.00">backend.Turtle.setHeading</text>
</a>
</g>
</g>
<!-- Node4&#45;&gt;Node6 -->
<g id="edge5" class="edge"><title>Node4&#45;&gt;Node6</title>
<path fill="none" stroke="midnightblue" d="M354.487,-38.46C385.379,-33.2426 423.837,-26.7475 456.21,-21.28"/>
<polygon fill="midnightblue" stroke="midnightblue" points="457.213,-24.6604 466.49,-19.5439 456.047,-17.7581 457.213,-24.6604"/>
</g>
<!-- Node6&#45;&gt;Node5 -->
<g id="edge6" class="edge"><title>Node6&#45;&gt;Node5</title>
<path fill="none" stroke="midnightblue" d="M595.758,-16.4325C613.743,-18.0676 633.223,-19.8384 651.727,-21.5206"/>
<polygon fill="midnightblue" stroke="midnightblue" points="651.615,-25.0248 661.891,-22.4447 652.249,-18.0536 651.615,-25.0248"/>
</g>
</g>
</svg>
