<?xml version="1.0" encoding="UTF-8" standalone="no"?>
<!DOCTYPE svg PUBLIC "-//W3C//DTD SVG 1.1//EN"
 "http://www.w3.org/Graphics/SVG/1.1/DTD/svg11.dtd">
<!-- Generated by graphviz version 2.36.0 (20140111.2315)
 -->
<!-- Title: gui.textAreas.StatusBox.StatusBox Pages: 1 -->
<svg width="342pt" height="234pt"
 viewBox="0.00 0.00 342.00 234.00" xmlns="http://www.w3.org/2000/svg" xmlns:xlink="http://www.w3.org/1999/xlink">
<g id="graph0" class="graph" transform="scale(1 1) rotate(0) translate(4 230)">
<title>gui.textAreas.StatusBox.StatusBox</title>
<polygon fill="white" stroke="none" points="-4,4 -4,-230 338,-230 338,4 -4,4"/>
<!-- Node1 -->
<g id="node1" class="node"><title>Node1</title>
<polygon fill="#bfbfbf" stroke="black" points="0,-98 0,-128 136,-128 136,-98 0,-98"/>
<text text-anchor="start" x="8" y="-116" font-family="Helvetica,sans-Serif" font-size="10.00">gui.textAreas.StatusBox.</text>
<text text-anchor="middle" x="68" y="-105" font-family="Helvetica,sans-Serif" font-size="10.00">StatusBox</text>
</g>
<!-- Node2 -->
<g id="node2" class="node"><title>Node2</title>
<g id="a_node2"><a xlink:href="../../d8/d85/classgui_1_1text_areas_1_1_abstract_editable_text_box.html#ad4fad0a869cb08703d66e5af3c947ad8" target="_top" xlink:title="gui.textAreas.AbstractEditable\lTextBox.addTextAreaToRegion">
<polygon fill="white" stroke="black" points="172,-196 172,-226 334,-226 334,-196 172,-196"/>
<text text-anchor="start" x="180" y="-214" font-family="Helvetica,sans-Serif" font-size="10.00">gui.textAreas.AbstractEditable</text>
<text text-anchor="middle" x="253" y="-203" font-family="Helvetica,sans-Serif" font-size="10.00">TextBox.addTextAreaToRegion</text>
</a>
</g>
</g>
<!-- Node1&#45;&gt;Node2 -->
<g id="edge1" class="edge"><title>Node1&#45;&gt;Node2</title>
<path fill="none" stroke="midnightblue" d="M86.5063,-128.032C106.171,-144.267 139.591,-169.954 172,-186 176.609,-188.282 181.47,-190.41 186.426,-192.384"/>
<polygon fill="midnightblue" stroke="midnightblue" points="185.44,-195.752 196.032,-195.989 187.899,-189.198 185.44,-195.752"/>
</g>
<!-- Node3 -->
<g id="node3" class="node"><title>Node3</title>
<g id="a_node3"><a xlink:href="../../d8/d85/classgui_1_1text_areas_1_1_abstract_editable_text_box.html#af6fc5d24e81e96264642b5009ba5509b" target="_top" xlink:title="gui.textAreas.AbstractEditable\lTextBox.makeTextArea">
<polygon fill="white" stroke="black" points="172,-147 172,-177 334,-177 334,-147 172,-147"/>
<text text-anchor="start" x="180" y="-165" font-family="Helvetica,sans-Serif" font-size="10.00">gui.textAreas.AbstractEditable</text>
<text text-anchor="middle" x="253" y="-154" font-family="Helvetica,sans-Serif" font-size="10.00">TextBox.makeTextArea</text>
</a>
</g>
</g>
<!-- Node1&#45;&gt;Node3 -->
<g id="edge2" class="edge"><title>Node1&#45;&gt;Node3</title>
<path fill="none" stroke="midnightblue" d="M125.399,-128.101C144.535,-133.225 166.086,-138.996 185.908,-144.303"/>
<polygon fill="midnightblue" stroke="midnightblue" points="185.222,-147.743 195.787,-146.948 187.033,-140.981 185.222,-147.743"/>
</g>
<!-- Node4 -->
<g id="node4" class="node"><title>Node4</title>
<g id="a_node4"><a xlink:href="../../d8/d85/classgui_1_1text_areas_1_1_abstract_editable_text_box.html#a2b5153268bf760e7f8a12b7c677a0230" target="_top" xlink:title="gui.textAreas.AbstractEditable\lTextBox.setRegionPreferences">
<polygon fill="white" stroke="black" points="172,-98 172,-128 334,-128 334,-98 172,-98"/>
<text text-anchor="start" x="180" y="-116" font-family="Helvetica,sans-Serif" font-size="10.00">gui.textAreas.AbstractEditable</text>
<text text-anchor="middle" x="253" y="-105" font-family="Helvetica,sans-Serif" font-size="10.00">TextBox.setRegionPreferences</text>
</a>
</g>
</g>
<!-- Node1&#45;&gt;Node4 -->
<g id="edge3" class="edge"><title>Node1&#45;&gt;Node4</title>
<path fill="none" stroke="midnightblue" d="M136.103,-113C144.462,-113 153.113,-113 161.749,-113"/>
<polygon fill="midnightblue" stroke="midnightblue" points="161.863,-116.5 171.862,-113 161.862,-109.5 161.863,-116.5"/>
</g>
<!-- Node5 -->
<g id="node5" class="node"><title>Node5</title>
<g id="a_node5"><a xlink:href="../../d8/d85/classgui_1_1text_areas_1_1_abstract_editable_text_box.html#a4d11b0e2189de6b7bc4a7a248ce3a00d" target="_top" xlink:title="gui.textAreas.AbstractEditable\lTextBox.setxLocation">
<polygon fill="white" stroke="black" points="172,-49 172,-79 334,-79 334,-49 172,-49"/>
<text text-anchor="start" x="180" y="-67" font-family="Helvetica,sans-Serif" font-size="10.00">gui.textAreas.AbstractEditable</text>
<text text-anchor="middle" x="253" y="-56" font-family="Helvetica,sans-Serif" font-size="10.00">TextBox.setxLocation</text>
</a>
</g>
</g>
<!-- Node1&#45;&gt;Node5 -->
<g id="edge4" class="edge"><title>Node1&#45;&gt;Node5</title>
<path fill="none" stroke="midnightblue" d="M125.399,-97.8986C144.535,-92.7747 166.086,-87.0044 185.908,-81.6968"/>
<polygon fill="midnightblue" stroke="midnightblue" points="187.033,-85.019 195.787,-79.0516 185.222,-78.2572 187.033,-85.019"/>
</g>
<!-- Node6 -->
<g id="node6" class="node"><title>Node6</title>
<g id="a_node6"><a xlink:href="../../d8/d85/classgui_1_1text_areas_1_1_abstract_editable_text_box.html#a26ca62985a5feafd0b04eb6fb707e376" target="_top" xlink:title="gui.textAreas.AbstractEditable\lTextBox.setyLocation">
<polygon fill="white" stroke="black" points="172,-0 172,-30 334,-30 334,-0 172,-0"/>
<text text-anchor="start" x="180" y="-18" font-family="Helvetica,sans-Serif" font-size="10.00">gui.textAreas.AbstractEditable</text>
<text text-anchor="middle" x="253" y="-7" font-family="Helvetica,sans-Serif" font-size="10.00">TextBox.setyLocation</text>
</a>
</g>
</g>
<!-- Node1&#45;&gt;Node6 -->
<g id="edge5" class="edge"><title>Node1&#45;&gt;Node6</title>
<path fill="none" stroke="midnightblue" d="M86.5063,-97.968C106.171,-81.7335 139.591,-56.0461 172,-40 176.609,-37.7181 181.47,-35.5897 186.426,-33.616"/>
<polygon fill="midnightblue" stroke="midnightblue" points="187.899,-36.8016 196.032,-30.0113 185.44,-30.2478 187.899,-36.8016"/>
</g>
</g>
</svg>
