<?xml version="1.0" encoding="UTF-8" standalone="no"?>
<!DOCTYPE svg PUBLIC "-//W3C//DTD SVG 1.1//EN"
 "http://www.w3.org/Graphics/SVG/1.1/DTD/svg11.dtd">
<!-- Generated by graphviz version 2.36.0 (20140111.2315)
 -->
<!-- Title: backend.Variable.getName Pages: 1 -->
<svg width="358pt" height="66pt"
 viewBox="0.00 0.00 358.00 66.00" xmlns="http://www.w3.org/2000/svg" xmlns:xlink="http://www.w3.org/1999/xlink">
<g id="graph0" class="graph" transform="scale(1 1) rotate(0) translate(4 62)">
<title>backend.Variable.getName</title>
<polygon fill="white" stroke="none" points="-4,4 -4,-62 354,-62 354,4 -4,4"/>
<!-- Node1 -->
<g id="node1" class="node"><title>Node1</title>
<polygon fill="#bfbfbf" stroke="black" points="0,-19.5 0,-38.5 146,-38.5 146,-19.5 0,-19.5"/>
<text text-anchor="middle" x="73" y="-26.5" font-family="Helvetica,sans-Serif" font-size="10.00">backend.Variable.getName</text>
</g>
<!-- Node2 -->
<g id="node2" class="node"><title>Node2</title>
<g id="a_node2"><a xlink:href="../../d3/dac/classbackend_1_1_model.html#a5832946dcc359c8a9c2c740d6354ab71" target="_top" xlink:title="backend.Model.setUserVariable">
<polygon fill="white" stroke="black" points="182.5,-38.5 182.5,-57.5 349.5,-57.5 349.5,-38.5 182.5,-38.5"/>
<text text-anchor="middle" x="266" y="-45.5" font-family="Helvetica,sans-Serif" font-size="10.00">backend.Model.setUserVariable</text>
</a>
</g>
</g>
<!-- Node1&#45;&gt;Node2 -->
<g id="edge1" class="edge"><title>Node1&#45;&gt;Node2</title>
<path fill="none" stroke="midnightblue" d="M156.295,-37.1864C164.96,-38.0483 173.772,-38.925 182.44,-39.7872"/>
<polygon fill="midnightblue" stroke="midnightblue" points="156.506,-33.6902 146.209,-36.1831 155.813,-40.6559 156.506,-33.6902"/>
</g>
<!-- Node3 -->
<g id="node3" class="node"><title>Node3</title>
<g id="a_node3"><a xlink:href="../../d6/d9f/classbackend_1_1_variable.html#a58de4b42a19161de00b4cce6cc375b8f" target="_top" xlink:title="backend.Variable.toString">
<polygon fill="white" stroke="black" points="196,-0.5 196,-19.5 336,-19.5 336,-0.5 196,-0.5"/>
<text text-anchor="middle" x="266" y="-7.5" font-family="Helvetica,sans-Serif" font-size="10.00">backend.Variable.toString</text>
</a>
</g>
</g>
<!-- Node1&#45;&gt;Node3 -->
<g id="edge2" class="edge"><title>Node1&#45;&gt;Node3</title>
<path fill="none" stroke="midnightblue" d="M156.224,-20.8206C169.432,-19.5068 182.985,-18.1586 195.846,-16.8792"/>
<polygon fill="midnightblue" stroke="midnightblue" points="155.813,-17.3441 146.209,-21.8169 156.506,-24.3098 155.813,-17.3441"/>
</g>
</g>
</svg>
