<?xml version="1.0" encoding="UTF-8" standalone="no"?>
<!DOCTYPE svg PUBLIC "-//W3C//DTD SVG 1.1//EN"
 "http://www.w3.org/Graphics/SVG/1.1/DTD/svg11.dtd">
<!-- Generated by graphviz version 2.36.0 (20140111.2315)
 -->
<!-- Title: backend.command.TurtleQuery Pages: 1 -->
<svg width="1416pt" height="256pt"
 viewBox="0.00 0.00 1416.00 256.00" xmlns="http://www.w3.org/2000/svg" xmlns:xlink="http://www.w3.org/1999/xlink">
<g id="graph0" class="graph" transform="scale(1 1) rotate(0) translate(4 252)">
<title>backend.command.TurtleQuery</title>
<polygon fill="white" stroke="none" points="-4,4 -4,-252 1412,-252 1412,4 -4,4"/>
<!-- Node1 -->
<g id="node1" class="node"><title>Node1</title>
<polygon fill="#bfbfbf" stroke="black" points="854,-114.5 854,-133.5 1020,-133.5 1020,-114.5 854,-114.5"/>
<text text-anchor="middle" x="937" y="-121.5" font-family="Helvetica,sans-Serif" font-size="10.00">backend.command.TurtleQuery</text>
</g>
<!-- Node6 -->
<g id="node6" class="node"><title>Node6</title>
<g id="a_node6"><a xlink:href="../../d9/d61/classbackend_1_1command_1_1_get_pen_color.html" target="_top" xlink:title="backend.command.GetPenColor">
<polygon fill="white" stroke="black" points="1056,-228.5 1056,-247.5 1228,-247.5 1228,-228.5 1056,-228.5"/>
<text text-anchor="middle" x="1142" y="-235.5" font-family="Helvetica,sans-Serif" font-size="10.00">backend.command.GetPenColor</text>
</a>
</g>
</g>
<!-- Node1&#45;&gt;Node6 -->
<g id="edge5" class="edge"><title>Node1&#45;&gt;Node6</title>
<path fill="none" stroke="midnightblue" d="M953.949,-140.96C975.167,-162.476 1014.82,-199.165 1056,-219 1064.04,-222.871 1072.89,-225.968 1081.74,-228.44"/>
<polygon fill="midnightblue" stroke="midnightblue" points="956.223,-138.277 946.754,-133.523 951.192,-143.144 956.223,-138.277"/>
</g>
<!-- Node7 -->
<g id="node7" class="node"><title>Node7</title>
<g id="a_node7"><a xlink:href="../../df/d1e/classbackend_1_1command_1_1_get_shape.html" target="_top" xlink:title="backend.command.GetShape">
<polygon fill="white" stroke="black" points="1062,-190.5 1062,-209.5 1222,-209.5 1222,-190.5 1062,-190.5"/>
<text text-anchor="middle" x="1142" y="-197.5" font-family="Helvetica,sans-Serif" font-size="10.00">backend.command.GetShape</text>
</a>
</g>
</g>
<!-- Node1&#45;&gt;Node7 -->
<g id="edge6" class="edge"><title>Node1&#45;&gt;Node7</title>
<path fill="none" stroke="midnightblue" d="M963.599,-138.498C987.02,-151.24 1022.95,-169.497 1056,-181 1066.57,-184.678 1078.13,-187.818 1089.22,-190.422"/>
<polygon fill="midnightblue" stroke="midnightblue" points="965.118,-135.339 954.671,-133.577 961.74,-141.47 965.118,-135.339"/>
</g>
<!-- Node9 -->
<g id="node9" class="node"><title>Node9</title>
<g id="a_node9"><a xlink:href="../../d7/da5/classbackend_1_1command_1_1_heading.html" target="_top" xlink:title="backend.command.Heading">
<polygon fill="white" stroke="black" points="1066,-152.5 1066,-171.5 1218,-171.5 1218,-152.5 1066,-152.5"/>
<text text-anchor="middle" x="1142" y="-159.5" font-family="Helvetica,sans-Serif" font-size="10.00">backend.command.Heading</text>
</a>
</g>
</g>
<!-- Node1&#45;&gt;Node9 -->
<g id="edge8" class="edge"><title>Node1&#45;&gt;Node9</title>
<path fill="none" stroke="midnightblue" d="M998.997,-135.418C1028.04,-140.855 1062.38,-147.283 1090.02,-152.456"/>
<polygon fill="midnightblue" stroke="midnightblue" points="999.437,-131.94 988.963,-133.54 998.149,-138.82 999.437,-131.94"/>
</g>
<!-- Node10 -->
<g id="node10" class="node"><title>Node10</title>
<g id="a_node10"><a xlink:href="../../d8/d32/classbackend_1_1command_1_1_is_pen_down.html" target="_top" xlink:title="backend.command.IsPenDown">
<polygon fill="white" stroke="black" points="1060,-114.5 1060,-133.5 1224,-133.5 1224,-114.5 1060,-114.5"/>
<text text-anchor="middle" x="1142" y="-121.5" font-family="Helvetica,sans-Serif" font-size="10.00">backend.command.IsPenDown</text>
</a>
</g>
</g>
<!-- Node1&#45;&gt;Node10 -->
<g id="edge9" class="edge"><title>Node1&#45;&gt;Node10</title>
<path fill="none" stroke="midnightblue" d="M1030.46,-124C1040.29,-124 1050.24,-124 1059.93,-124"/>
<polygon fill="midnightblue" stroke="midnightblue" points="1030.28,-120.5 1020.28,-124 1030.28,-127.5 1030.28,-120.5"/>
</g>
<!-- Node11 -->
<g id="node11" class="node"><title>Node11</title>
<g id="a_node11"><a xlink:href="../../df/d51/classbackend_1_1command_1_1_is_showing.html" target="_top" xlink:title="backend.command.IsShowing">
<polygon fill="white" stroke="black" points="1062.5,-76.5 1062.5,-95.5 1221.5,-95.5 1221.5,-76.5 1062.5,-76.5"/>
<text text-anchor="middle" x="1142" y="-83.5" font-family="Helvetica,sans-Serif" font-size="10.00">backend.command.IsShowing</text>
</a>
</g>
</g>
<!-- Node1&#45;&gt;Node11 -->
<g id="edge10" class="edge"><title>Node1&#45;&gt;Node11</title>
<path fill="none" stroke="midnightblue" d="M998.997,-112.582C1028.04,-107.145 1062.38,-100.717 1090.02,-95.5439"/>
<polygon fill="midnightblue" stroke="midnightblue" points="998.149,-109.18 988.963,-114.46 999.437,-116.06 998.149,-109.18"/>
</g>
<!-- Node12 -->
<g id="node12" class="node"><title>Node12</title>
<g id="a_node12"><a xlink:href="../../d5/d68/classbackend_1_1command_1_1_x_coordinate.html" target="_top" xlink:title="backend.command.XCoordinate">
<polygon fill="white" stroke="black" points="1057,-38.5 1057,-57.5 1227,-57.5 1227,-38.5 1057,-38.5"/>
<text text-anchor="middle" x="1142" y="-45.5" font-family="Helvetica,sans-Serif" font-size="10.00">backend.command.XCoordinate</text>
</a>
</g>
</g>
<!-- Node1&#45;&gt;Node12 -->
<g id="edge11" class="edge"><title>Node1&#45;&gt;Node12</title>
<path fill="none" stroke="midnightblue" d="M963.599,-109.502C987.02,-96.7595 1022.95,-78.5031 1056,-67 1066.57,-63.3217 1078.13,-60.1823 1089.22,-57.5776"/>
<polygon fill="midnightblue" stroke="midnightblue" points="961.74,-106.53 954.671,-114.423 965.118,-112.661 961.74,-106.53"/>
</g>
<!-- Node13 -->
<g id="node13" class="node"><title>Node13</title>
<g id="a_node13"><a xlink:href="../../d4/da7/classbackend_1_1command_1_1_y_coordinate.html" target="_top" xlink:title="backend.command.YCoordinate">
<polygon fill="white" stroke="black" points="1057.5,-0.5 1057.5,-19.5 1226.5,-19.5 1226.5,-0.5 1057.5,-0.5"/>
<text text-anchor="middle" x="1142" y="-7.5" font-family="Helvetica,sans-Serif" font-size="10.00">backend.command.YCoordinate</text>
</a>
</g>
</g>
<!-- Node1&#45;&gt;Node13 -->
<g id="edge12" class="edge"><title>Node1&#45;&gt;Node13</title>
<path fill="none" stroke="midnightblue" d="M953.949,-107.04C975.167,-85.5238 1014.82,-48.8355 1056,-29 1064.04,-25.1285 1072.89,-22.0323 1081.74,-19.5598"/>
<polygon fill="midnightblue" stroke="midnightblue" points="951.192,-104.856 946.754,-114.477 956.223,-109.723 951.192,-104.856"/>
</g>
<!-- Node2 -->
<g id="node2" class="node"><title>Node2</title>
<g id="a_node2"><a xlink:href="../../d8/db4/classbackend_1_1command_1_1_active_turtle_command.html" target="_top" xlink:title="backend.command.ActiveTurtle\lCommand">
<polygon fill="white" stroke="black" points="650.5,-109 650.5,-139 817.5,-139 817.5,-109 650.5,-109"/>
<text text-anchor="start" x="658.5" y="-127" font-family="Helvetica,sans-Serif" font-size="10.00">backend.command.ActiveTurtle</text>
<text text-anchor="middle" x="734" y="-116" font-family="Helvetica,sans-Serif" font-size="10.00">Command</text>
</a>
</g>
</g>
<!-- Node2&#45;&gt;Node1 -->
<g id="edge1" class="edge"><title>Node2&#45;&gt;Node1</title>
<path fill="none" stroke="midnightblue" d="M827.741,-124C836.402,-124 845.14,-124 853.696,-124"/>
<polygon fill="midnightblue" stroke="midnightblue" points="827.625,-120.5 817.625,-124 827.624,-127.5 827.625,-120.5"/>
</g>
<!-- Node3 -->
<g id="node3" class="node"><title>Node3</title>
<g id="a_node3"><a xlink:href="../../d5/dfc/classbackend_1_1command_1_1_turtle_command.html" target="_top" xlink:title="backend.command.TurtleCommand">
<polygon fill="white" stroke="black" points="426,-114.5 426,-133.5 614,-133.5 614,-114.5 426,-114.5"/>
<text text-anchor="middle" x="520" y="-121.5" font-family="Helvetica,sans-Serif" font-size="10.00">backend.command.TurtleCommand</text>
</a>
</g>
</g>
<!-- Node3&#45;&gt;Node2 -->
<g id="edge2" class="edge"><title>Node3&#45;&gt;Node2</title>
<path fill="none" stroke="midnightblue" d="M624.456,-124C633.133,-124 641.832,-124 650.321,-124"/>
<polygon fill="midnightblue" stroke="midnightblue" points="624.295,-120.5 614.295,-124 624.295,-127.5 624.295,-120.5"/>
</g>
<!-- Node4 -->
<g id="node4" class="node"><title>Node4</title>
<g id="a_node4"><a xlink:href="../../dc/d67/classbackend_1_1command_1_1_model_command.html" target="_top" xlink:title="backend.command.ModelCommand">
<polygon fill="white" stroke="black" points="198.5,-114.5 198.5,-133.5 389.5,-133.5 389.5,-114.5 198.5,-114.5"/>
<text text-anchor="middle" x="294" y="-121.5" font-family="Helvetica,sans-Serif" font-size="10.00">backend.command.ModelCommand</text>
</a>
</g>
</g>
<!-- Node4&#45;&gt;Node3 -->
<g id="edge3" class="edge"><title>Node4&#45;&gt;Node3</title>
<path fill="none" stroke="midnightblue" d="M399.798,-124C408.457,-124 417.174,-124 425.74,-124"/>
<polygon fill="midnightblue" stroke="midnightblue" points="399.672,-120.5 389.671,-124 399.671,-127.5 399.672,-120.5"/>
</g>
<!-- Node5 -->
<g id="node5" class="node"><title>Node5</title>
<g id="a_node5"><a xlink:href="../../dc/d83/classbackend_1_1command_1_1_command.html" target="_top" xlink:title="backend.command.Command">
<polygon fill="white" stroke="black" points="0,-114.5 0,-133.5 162,-133.5 162,-114.5 0,-114.5"/>
<text text-anchor="middle" x="81" y="-121.5" font-family="Helvetica,sans-Serif" font-size="10.00">backend.command.Command</text>
</a>
</g>
</g>
<!-- Node5&#45;&gt;Node4 -->
<g id="edge4" class="edge"><title>Node5&#45;&gt;Node4</title>
<path fill="none" stroke="midnightblue" d="M172.199,-124C180.894,-124 189.73,-124 198.466,-124"/>
<polygon fill="midnightblue" stroke="midnightblue" points="172.071,-120.5 162.071,-124 172.071,-127.5 172.071,-120.5"/>
</g>
<!-- Node8 -->
<g id="node8" class="node"><title>Node8</title>
<g id="a_node8"><a xlink:href="../../de/d8f/classbackend_1_1command_1_1_stamp.html" target="_top" xlink:title="backend.command.Stamp">
<polygon fill="white" stroke="black" points="1264,-190.5 1264,-209.5 1408,-209.5 1408,-190.5 1264,-190.5"/>
<text text-anchor="middle" x="1336" y="-197.5" font-family="Helvetica,sans-Serif" font-size="10.00">backend.command.Stamp</text>
</a>
</g>
</g>
<!-- Node7&#45;&gt;Node8 -->
<g id="edge7" class="edge"><title>Node7&#45;&gt;Node8</title>
<path fill="none" stroke="midnightblue" d="M1232.33,-200C1242.94,-200 1253.66,-200 1263.97,-200"/>
<polygon fill="midnightblue" stroke="midnightblue" points="1232.2,-196.5 1222.2,-200 1232.2,-203.5 1232.2,-196.5"/>
</g>
</g>
</svg>
