<?xml version="1.0" encoding="UTF-8" standalone="no"?>
<!DOCTYPE svg PUBLIC "-//W3C//DTD SVG 1.1//EN"
 "http://www.w3.org/Graphics/SVG/1.1/DTD/svg11.dtd">
<!-- Generated by graphviz version 2.36.0 (20140111.2315)
 -->
<!-- Title: backend.Turtle Pages: 1 -->
<svg width="591pt" height="164pt"
 viewBox="0.00 0.00 591.00 164.00" xmlns="http://www.w3.org/2000/svg" xmlns:xlink="http://www.w3.org/1999/xlink">
<g id="graph0" class="graph" transform="scale(1 1) rotate(0) translate(4 160)">
<title>backend.Turtle</title>
<polygon fill="white" stroke="none" points="-4,4 -4,-160 587,-160 587,4 -4,4"/>
<!-- Node1 -->
<g id="node1" class="node"><title>Node1</title>
<polygon fill="#bfbfbf" stroke="black" points="266,-0.5 266,-19.5 352,-19.5 352,-0.5 266,-0.5"/>
<text text-anchor="middle" x="309" y="-7.5" font-family="Helvetica,sans-Serif" font-size="10.00">backend.Turtle</text>
</g>
<!-- Node2 -->
<g id="node2" class="node"><title>Node2</title>
<g id="a_node2"><a xlink:href="../../d6/d7e/interfacebackend_1_1_drawable_image.html" target="_top" xlink:title="backend.DrawableImage">
<polygon fill="white" stroke="black" points="0,-68.5 0,-87.5 134,-87.5 134,-68.5 0,-68.5"/>
<text text-anchor="middle" x="67" y="-75.5" font-family="Helvetica,sans-Serif" font-size="10.00">backend.DrawableImage</text>
</a>
</g>
</g>
<!-- Node2&#45;&gt;Node1 -->
<g id="edge1" class="edge"><title>Node2&#45;&gt;Node1</title>
<path fill="none" stroke="midnightblue" d="M108.405,-65.7076C156.43,-52.61 234.521,-31.3125 277.738,-19.5259"/>
<polygon fill="midnightblue" stroke="midnightblue" points="107.364,-62.3637 98.6373,-68.3717 109.206,-69.1171 107.364,-62.3637"/>
</g>
<!-- Node3 -->
<g id="node3" class="node"><title>Node3</title>
<g id="a_node3"><a xlink:href="../../d8/d98/classbackend_1_1_heading.html" target="_top" xlink:title="backend.Heading">
<polygon fill="white" stroke="black" points="152,-68.5 152,-87.5 252,-87.5 252,-68.5 152,-68.5"/>
<text text-anchor="middle" x="202" y="-75.5" font-family="Helvetica,sans-Serif" font-size="10.00">backend.Heading</text>
</a>
</g>
</g>
<!-- Node3&#45;&gt;Node1 -->
<g id="edge2" class="edge"><title>Node3&#45;&gt;Node1</title>
<path fill="none" stroke="#9a32cd" stroke-dasharray="5,2" d="M223.586,-62.9167C235.199,-55.4116 249.808,-46.0848 263,-38 273.264,-31.7097 284.966,-24.8454 293.998,-19.6122"/>
<polygon fill="#9a32cd" stroke="#9a32cd" points="221.483,-60.1084 214.999,-68.4867 225.293,-65.9811 221.483,-60.1084"/>
<text text-anchor="middle" x="284" y="-41.5" font-family="Helvetica,sans-Serif" font-size="10.00"> heading</text>
</g>
<!-- Node4 -->
<g id="node4" class="node"><title>Node4</title>
<g id="a_node4"><a xlink:href="../../de/dc9/classbackend_1_1_pen.html" target="_top" xlink:title="backend.Pen">
<polygon fill="white" stroke="black" points="270,-68.5 270,-87.5 348,-87.5 348,-68.5 270,-68.5"/>
<text text-anchor="middle" x="309" y="-75.5" font-family="Helvetica,sans-Serif" font-size="10.00">backend.Pen</text>
</a>
</g>
</g>
<!-- Node4&#45;&gt;Node1 -->
<g id="edge3" class="edge"><title>Node4&#45;&gt;Node1</title>
<path fill="none" stroke="#9a32cd" stroke-dasharray="5,2" d="M309,-58.0413C309,-45.4724 309,-29.5631 309,-19.8411"/>
<polygon fill="#9a32cd" stroke="#9a32cd" points="305.5,-58.3716 309,-68.3717 312.5,-58.3717 305.5,-58.3716"/>
<text text-anchor="middle" x="320" y="-41.5" font-family="Helvetica,sans-Serif" font-size="10.00"> pen</text>
</g>
<!-- Node5 -->
<g id="node5" class="node"><title>Node5</title>
<polygon fill="white" stroke="#bfbfbf" points="233.5,-136.5 233.5,-155.5 274.5,-155.5 274.5,-136.5 233.5,-136.5"/>
<text text-anchor="middle" x="254" y="-143.5" font-family="Helvetica,sans-Serif" font-size="10.00">Color</text>
</g>
<!-- Node5&#45;&gt;Node4 -->
<g id="edge4" class="edge"><title>Node5&#45;&gt;Node4</title>
<path fill="none" stroke="#9a32cd" stroke-dasharray="5,2" d="M267.6,-128.68C278.353,-115.777 292.952,-98.2575 301.632,-87.8411"/>
<polygon fill="#9a32cd" stroke="#9a32cd" points="264.903,-126.449 261.19,-136.372 270.281,-130.93 264.903,-126.449"/>
<text text-anchor="middle" x="300.5" y="-109.5" font-family="Helvetica,sans-Serif" font-size="10.00"> color</text>
</g>
<!-- Node6 -->
<g id="node6" class="node"><title>Node6</title>
<polygon fill="white" stroke="#bfbfbf" points="293,-136.5 293,-155.5 437,-155.5 437,-136.5 293,-136.5"/>
<text text-anchor="middle" x="365" y="-143.5" font-family="Helvetica,sans-Serif" font-size="10.00">ArrayList&lt; backend.Line &gt;</text>
</g>
<!-- Node6&#45;&gt;Node4 -->
<g id="edge5" class="edge"><title>Node6&#45;&gt;Node4</title>
<path fill="none" stroke="#9a32cd" stroke-dasharray="5,2" d="M351.153,-128.68C340.205,-115.777 325.34,-98.2575 316.502,-87.8411"/>
<polygon fill="#9a32cd" stroke="#9a32cd" points="348.54,-131.011 357.679,-136.372 353.878,-126.482 348.54,-131.011"/>
<text text-anchor="middle" x="355.5" y="-109.5" font-family="Helvetica,sans-Serif" font-size="10.00"> lines</text>
</g>
<!-- Node7 -->
<g id="node7" class="node"><title>Node7</title>
<polygon fill="white" stroke="#bfbfbf" points="366.5,-68.5 366.5,-87.5 523.5,-87.5 523.5,-68.5 366.5,-68.5"/>
<text text-anchor="middle" x="445" y="-75.5" font-family="Helvetica,sans-Serif" font-size="10.00">ArrayList&lt; backend.Stamp &gt;</text>
</g>
<!-- Node7&#45;&gt;Node1 -->
<g id="edge6" class="edge"><title>Node7&#45;&gt;Node1</title>
<path fill="none" stroke="#9a32cd" stroke-dasharray="5,2" d="M417.928,-63.8621C390.855,-50.7239 350,-30.8969 326.784,-19.6305"/>
<polygon fill="#9a32cd" stroke="#9a32cd" points="416.696,-67.1544 427.22,-68.3717 419.752,-60.8568 416.696,-67.1544"/>
<text text-anchor="middle" x="410" y="-41.5" font-family="Helvetica,sans-Serif" font-size="10.00"> stamps</text>
</g>
<!-- Node8 -->
<g id="node8" class="node"><title>Node8</title>
<polygon fill="white" stroke="#bfbfbf" points="541.5,-68.5 541.5,-87.5 582.5,-87.5 582.5,-68.5 541.5,-68.5"/>
<text text-anchor="middle" x="562" y="-75.5" font-family="Helvetica,sans-Serif" font-size="10.00">Point</text>
</g>
<!-- Node8&#45;&gt;Node1 -->
<g id="edge7" class="edge"><title>Node8&#45;&gt;Node1</title>
<path fill="none" stroke="#9a32cd" stroke-dasharray="5,2" d="M531.725,-66.9987C505.914,-58.6598 467.744,-46.7688 434,-38 406.925,-30.9641 376.221,-24.3135 352.019,-19.3733"/>
<polygon fill="#9a32cd" stroke="#9a32cd" points="530.718,-70.3517 541.31,-70.1161 532.883,-63.6949 530.718,-70.3517"/>
<text text-anchor="middle" x="497.5" y="-41.5" font-family="Helvetica,sans-Serif" font-size="10.00"> location</text>
</g>
</g>
</svg>
