<?xml version="1.0" encoding="UTF-8" standalone="no"?>
<!DOCTYPE svg PUBLIC "-//W3C//DTD SVG 1.1//EN"
 "http://www.w3.org/Graphics/SVG/1.1/DTD/svg11.dtd">
<!-- Generated by graphviz version 2.36.0 (20140111.2315)
 -->
<!-- Title: backend.command.TurtleCommand Pages: 1 -->
<svg width="1434pt" height="616pt"
 viewBox="0.00 0.00 1434.00 616.00" xmlns="http://www.w3.org/2000/svg" xmlns:xlink="http://www.w3.org/1999/xlink">
<g id="graph0" class="graph" transform="scale(1 1) rotate(0) translate(4 612)">
<title>backend.command.TurtleCommand</title>
<polygon fill="white" stroke="none" points="-4,4 -4,-612 1430,-612 1430,4 -4,4"/>
<!-- Node1 -->
<g id="node1" class="node"><title>Node1</title>
<polygon fill="#bfbfbf" stroke="black" points="426,-136.5 426,-155.5 614,-155.5 614,-136.5 426,-136.5"/>
<text text-anchor="middle" x="520" y="-143.5" font-family="Helvetica,sans-Serif" font-size="10.00">backend.command.TurtleCommand</text>
</g>
<!-- Node4 -->
<g id="node4" class="node"><title>Node4</title>
<g id="a_node4"><a xlink:href="../../d8/db4/classbackend_1_1command_1_1_active_turtle_command.html" target="_top" xlink:title="backend.command.ActiveTurtle\lCommand">
<polygon fill="white" stroke="black" points="653.5,-359 653.5,-389 820.5,-389 820.5,-359 653.5,-359"/>
<text text-anchor="start" x="661.5" y="-377" font-family="Helvetica,sans-Serif" font-size="10.00">backend.command.ActiveTurtle</text>
<text text-anchor="middle" x="737" y="-366" font-family="Helvetica,sans-Serif" font-size="10.00">Command</text>
</a>
</g>
</g>
<!-- Node1&#45;&gt;Node4 -->
<g id="edge3" class="edge"><title>Node1&#45;&gt;Node4</title>
<path fill="none" stroke="midnightblue" d="M536.914,-162.877C577.264,-205.666 683.09,-317.891 721.667,-358.8"/>
<polygon fill="midnightblue" stroke="midnightblue" points="539.372,-160.381 529.965,-155.507 534.279,-165.183 539.372,-160.381"/>
</g>
<!-- Node32 -->
<g id="node32" class="node"><title>Node32</title>
<g id="a_node32"><a xlink:href="../../d9/d32/classbackend_1_1command_1_1_clear_stamps.html" target="_top" xlink:title="backend.command.ClearStamps">
<polygon fill="white" stroke="black" points="650,-158.5 650,-177.5 824,-177.5 824,-158.5 650,-158.5"/>
<text text-anchor="middle" x="737" y="-165.5" font-family="Helvetica,sans-Serif" font-size="10.00">backend.command.ClearStamps</text>
</a>
</g>
</g>
<!-- Node1&#45;&gt;Node32 -->
<g id="edge31" class="edge"><title>Node1&#45;&gt;Node32</title>
<path fill="none" stroke="midnightblue" d="M624.15,-156.555C632.778,-157.438 641.444,-158.324 649.924,-159.192"/>
<polygon fill="midnightblue" stroke="midnightblue" points="624.356,-153.058 614.052,-155.522 623.643,-160.021 624.356,-153.058"/>
</g>
<!-- Node33 -->
<g id="node33" class="node"><title>Node33</title>
<g id="a_node33"><a xlink:href="../../d4/d68/classbackend_1_1command_1_1_specified_turtle_command.html" target="_top" xlink:title="backend.command.Specified\lTurtleCommand">
<polygon fill="white" stroke="black" points="659.5,-109 659.5,-139 814.5,-139 814.5,-109 659.5,-109"/>
<text text-anchor="start" x="667.5" y="-127" font-family="Helvetica,sans-Serif" font-size="10.00">backend.command.Specified</text>
<text text-anchor="middle" x="737" y="-116" font-family="Helvetica,sans-Serif" font-size="10.00">TurtleCommand</text>
</a>
</g>
</g>
<!-- Node1&#45;&gt;Node33 -->
<g id="edge32" class="edge"><title>Node1&#45;&gt;Node33</title>
<path fill="none" stroke="midnightblue" d="M624,-135.46C635.879,-134.245 647.831,-133.022 659.275,-131.851"/>
<polygon fill="midnightblue" stroke="midnightblue" points="623.643,-131.979 614.052,-136.478 624.356,-138.942 623.643,-131.979"/>
</g>
<!-- Node36 -->
<g id="node36" class="node"><title>Node36</title>
<g id="a_node36"><a xlink:href="../../da/d05/classbackend_1_1command_1_1_turtles.html" target="_top" xlink:title="backend.command.Turtles">
<polygon fill="white" stroke="black" points="665.5,-70.5 665.5,-89.5 808.5,-89.5 808.5,-70.5 665.5,-70.5"/>
<text text-anchor="middle" x="737" y="-77.5" font-family="Helvetica,sans-Serif" font-size="10.00">backend.command.Turtles</text>
</a>
</g>
</g>
<!-- Node1&#45;&gt;Node36 -->
<g id="edge35" class="edge"><title>Node1&#45;&gt;Node36</title>
<path fill="none" stroke="midnightblue" d="M553.785,-132.694C579.623,-122.54 616.72,-108.693 650,-99 662.038,-95.4938 675.188,-92.2844 687.502,-89.5414"/>
<polygon fill="midnightblue" stroke="midnightblue" points="552.471,-129.449 544.465,-136.388 555.051,-135.957 552.471,-129.449"/>
</g>
<!-- Node2 -->
<g id="node2" class="node"><title>Node2</title>
<g id="a_node2"><a xlink:href="../../dc/d67/classbackend_1_1command_1_1_model_command.html" target="_top" xlink:title="backend.command.ModelCommand">
<polygon fill="white" stroke="black" points="198.5,-136.5 198.5,-155.5 389.5,-155.5 389.5,-136.5 198.5,-136.5"/>
<text text-anchor="middle" x="294" y="-143.5" font-family="Helvetica,sans-Serif" font-size="10.00">backend.command.ModelCommand</text>
</a>
</g>
</g>
<!-- Node2&#45;&gt;Node1 -->
<g id="edge1" class="edge"><title>Node2&#45;&gt;Node1</title>
<path fill="none" stroke="midnightblue" d="M399.798,-146C408.457,-146 417.174,-146 425.74,-146"/>
<polygon fill="midnightblue" stroke="midnightblue" points="399.672,-142.5 389.671,-146 399.671,-149.5 399.672,-142.5"/>
</g>
<!-- Node3 -->
<g id="node3" class="node"><title>Node3</title>
<g id="a_node3"><a xlink:href="../../dc/d83/classbackend_1_1command_1_1_command.html" target="_top" xlink:title="backend.command.Command">
<polygon fill="white" stroke="black" points="0,-136.5 0,-155.5 162,-155.5 162,-136.5 0,-136.5"/>
<text text-anchor="middle" x="81" y="-143.5" font-family="Helvetica,sans-Serif" font-size="10.00">backend.command.Command</text>
</a>
</g>
</g>
<!-- Node3&#45;&gt;Node2 -->
<g id="edge2" class="edge"><title>Node3&#45;&gt;Node2</title>
<path fill="none" stroke="midnightblue" d="M172.199,-146C180.894,-146 189.73,-146 198.466,-146"/>
<polygon fill="midnightblue" stroke="midnightblue" points="172.071,-142.5 162.071,-146 172.071,-149.5 172.071,-142.5"/>
</g>
<!-- Node5 -->
<g id="node5" class="node"><title>Node5</title>
<g id="a_node5"><a xlink:href="../../d0/d99/classbackend_1_1command_1_1_clear_screen.html" target="_top" xlink:title="backend.command.ClearScreen">
<polygon fill="white" stroke="black" points="864,-588.5 864,-607.5 1034,-607.5 1034,-588.5 864,-588.5"/>
<text text-anchor="middle" x="949" y="-595.5" font-family="Helvetica,sans-Serif" font-size="10.00">backend.command.ClearScreen</text>
</a>
</g>
</g>
<!-- Node4&#45;&gt;Node5 -->
<g id="edge4" class="edge"><title>Node4&#45;&gt;Node5</title>
<path fill="none" stroke="midnightblue" d="M745.633,-398.928C760.31,-442.47 796.742,-532.105 860,-578 865.96,-582.324 872.698,-585.735 879.727,-588.421"/>
<polygon fill="midnightblue" stroke="midnightblue" points="748.872,-397.57 742.444,-389.148 742.217,-399.741 748.872,-397.57"/>
</g>
<!-- Node6 -->
<g id="node6" class="node"><title>Node6</title>
<g id="a_node6"><a xlink:href="../../dd/d3e/classbackend_1_1command_1_1_degrees_turtle_command.html" target="_top" xlink:title="backend.command.DegreesTurtle\lCommand">
<polygon fill="white" stroke="black" points="860,-539 860,-569 1038,-569 1038,-539 860,-539"/>
<text text-anchor="start" x="868" y="-557" font-family="Helvetica,sans-Serif" font-size="10.00">backend.command.DegreesTurtle</text>
<text text-anchor="middle" x="949" y="-546" font-family="Helvetica,sans-Serif" font-size="10.00">Command</text>
</a>
</g>
</g>
<!-- Node4&#45;&gt;Node6 -->
<g id="edge5" class="edge"><title>Node4&#45;&gt;Node6</title>
<path fill="none" stroke="midnightblue" d="M750.601,-398.281C769.651,-432.583 809.033,-494.846 860,-529 865.805,-532.89 872.215,-536.182 878.849,-538.965"/>
<polygon fill="midnightblue" stroke="midnightblue" points="753.623,-396.512 745.775,-389.395 747.472,-399.853 753.623,-396.512"/>
</g>
<!-- Node10 -->
<g id="node10" class="node"><title>Node10</title>
<g id="a_node10"><a xlink:href="../../df/d00/classbackend_1_1command_1_1_home.html" target="_top" xlink:title="backend.command.Home">
<polygon fill="white" stroke="black" points="878.5,-500.5 878.5,-519.5 1019.5,-519.5 1019.5,-500.5 878.5,-500.5"/>
<text text-anchor="middle" x="949" y="-507.5" font-family="Helvetica,sans-Serif" font-size="10.00">backend.command.Home</text>
</a>
</g>
</g>
<!-- Node4&#45;&gt;Node10 -->
<g id="edge9" class="edge"><title>Node4&#45;&gt;Node10</title>
<path fill="none" stroke="midnightblue" d="M755.62,-397.414C777.187,-424.324 816.275,-467.758 860,-491 867.315,-494.888 875.372,-497.981 883.552,-500.44"/>
<polygon fill="midnightblue" stroke="midnightblue" points="758.18,-395.006 749.25,-389.304 752.675,-399.33 758.18,-395.006"/>
</g>
<!-- Node11 -->
<g id="node11" class="node"><title>Node11</title>
<g id="a_node11"><a xlink:href="../../d7/dae/classbackend_1_1command_1_1_i_d.html" target="_top" xlink:title="backend.command.ID">
<polygon fill="white" stroke="black" points="888,-462.5 888,-481.5 1010,-481.5 1010,-462.5 888,-462.5"/>
<text text-anchor="middle" x="949" y="-469.5" font-family="Helvetica,sans-Serif" font-size="10.00">backend.command.ID</text>
</a>
</g>
</g>
<!-- Node4&#45;&gt;Node11 -->
<g id="edge10" class="edge"><title>Node4&#45;&gt;Node11</title>
<path fill="none" stroke="midnightblue" d="M764.785,-395.448C788.495,-413.392 824.717,-438.346 860,-453 869.238,-456.837 879.357,-459.943 889.339,-462.443"/>
<polygon fill="midnightblue" stroke="midnightblue" points="766.703,-392.507 756.642,-389.186 762.436,-398.056 766.703,-392.507"/>
</g>
<!-- Node12 -->
<g id="node12" class="node"><title>Node12</title>
<g id="a_node12"><a xlink:href="../../df/df5/classbackend_1_1command_1_1_pen_down.html" target="_top" xlink:title="backend.command.PenDown">
<polygon fill="white" stroke="black" points="871,-424.5 871,-443.5 1027,-443.5 1027,-424.5 871,-424.5"/>
<text text-anchor="middle" x="949" y="-431.5" font-family="Helvetica,sans-Serif" font-size="10.00">backend.command.PenDown</text>
</a>
</g>
</g>
<!-- Node4&#45;&gt;Node12 -->
<g id="edge11" class="edge"><title>Node4&#45;&gt;Node12</title>
<path fill="none" stroke="midnightblue" d="M788.579,-392.408C810.381,-399.974 836.272,-408.473 860,-415 872.508,-418.441 886.156,-421.647 898.89,-424.41"/>
<polygon fill="midnightblue" stroke="midnightblue" points="789.467,-389.01 778.872,-389.007 787.152,-395.616 789.467,-389.01"/>
</g>
<!-- Node13 -->
<g id="node13" class="node"><title>Node13</title>
<g id="a_node13"><a xlink:href="../../d9/d98/classbackend_1_1command_1_1_pen_up.html" target="_top" xlink:title="backend.command.PenUp">
<polygon fill="white" stroke="black" points="877.5,-386.5 877.5,-405.5 1020.5,-405.5 1020.5,-386.5 877.5,-386.5"/>
<text text-anchor="middle" x="949" y="-393.5" font-family="Helvetica,sans-Serif" font-size="10.00">backend.command.PenUp</text>
</a>
</g>
</g>
<!-- Node4&#45;&gt;Node13 -->
<g id="edge12" class="edge"><title>Node4&#45;&gt;Node13</title>
<path fill="none" stroke="midnightblue" d="M830.863,-383.728C846.435,-385.36 862.368,-387.029 877.267,-388.59"/>
<polygon fill="midnightblue" stroke="midnightblue" points="831.006,-380.224 820.696,-382.663 830.277,-387.186 831.006,-380.224"/>
</g>
<!-- Node14 -->
<g id="node14" class="node"><title>Node14</title>
<g id="a_node14"><a xlink:href="../../df/d09/classbackend_1_1command_1_1_pixels_turtle_command.html" target="_top" xlink:title="backend.command.PixelsTurtle\lCommand">
<polygon fill="white" stroke="black" points="867,-337 867,-367 1031,-367 1031,-337 867,-337"/>
<text text-anchor="start" x="875" y="-355" font-family="Helvetica,sans-Serif" font-size="10.00">backend.command.PixelsTurtle</text>
<text text-anchor="middle" x="949" y="-344" font-family="Helvetica,sans-Serif" font-size="10.00">Command</text>
</a>
</g>
</g>
<!-- Node4&#45;&gt;Node14 -->
<g id="edge13" class="edge"><title>Node4&#45;&gt;Node14</title>
<path fill="none" stroke="midnightblue" d="M830.718,-364.287C842.726,-363.029 854.952,-361.748 866.755,-360.511"/>
<polygon fill="midnightblue" stroke="midnightblue" points="830.277,-360.814 820.696,-365.337 831.006,-367.776 830.277,-360.814"/>
</g>
<!-- Node18 -->
<g id="node18" class="node"><title>Node18</title>
<g id="a_node18"><a xlink:href="../../d5/dcb/classbackend_1_1command_1_1_point_turtle_command.html" target="_top" xlink:title="backend.command.PointTurtle\lCommand">
<polygon fill="white" stroke="black" points="868.5,-288 868.5,-318 1029.5,-318 1029.5,-288 868.5,-288"/>
<text text-anchor="start" x="876.5" y="-306" font-family="Helvetica,sans-Serif" font-size="10.00">backend.command.PointTurtle</text>
<text text-anchor="middle" x="949" y="-295" font-family="Helvetica,sans-Serif" font-size="10.00">Command</text>
</a>
</g>
</g>
<!-- Node4&#45;&gt;Node18 -->
<g id="edge17" class="edge"><title>Node4&#45;&gt;Node18</title>
<path fill="none" stroke="midnightblue" d="M783.624,-355.159C806.376,-346.088 834.429,-335.388 860,-327 869.479,-323.89 879.623,-320.858 889.529,-318.052"/>
<polygon fill="midnightblue" stroke="midnightblue" points="782.196,-351.961 774.22,-358.935 784.804,-358.456 782.196,-351.961"/>
</g>
<!-- Node21 -->
<g id="node21" class="node"><title>Node21</title>
<g id="a_node21"><a xlink:href="../../df/df8/classbackend_1_1command_1_1_set_pen_color.html" target="_top" xlink:title="backend.command.SetPenColor">
<polygon fill="white" stroke="black" points="863.5,-249.5 863.5,-268.5 1034.5,-268.5 1034.5,-249.5 863.5,-249.5"/>
<text text-anchor="middle" x="949" y="-256.5" font-family="Helvetica,sans-Serif" font-size="10.00">backend.command.SetPenColor</text>
</a>
</g>
</g>
<!-- Node4&#45;&gt;Node21 -->
<g id="edge20" class="edge"><title>Node4&#45;&gt;Node21</title>
<path fill="none" stroke="midnightblue" d="M759.788,-351.708C782.689,-329.604 820.779,-296.449 860,-278 868.203,-274.141 877.206,-271.056 886.226,-268.591"/>
<polygon fill="midnightblue" stroke="midnightblue" points="757.306,-349.239 752.624,-358.743 762.211,-354.233 757.306,-349.239"/>
</g>
<!-- Node22 -->
<g id="node22" class="node"><title>Node22</title>
<g id="a_node22"><a xlink:href="../../d5/dfe/classbackend_1_1command_1_1_set_shape.html" target="_top" xlink:title="backend.command.SetShape">
<polygon fill="white" stroke="black" points="869.5,-211.5 869.5,-230.5 1028.5,-230.5 1028.5,-211.5 869.5,-211.5"/>
<text text-anchor="middle" x="949" y="-218.5" font-family="Helvetica,sans-Serif" font-size="10.00">backend.command.SetShape</text>
</a>
</g>
</g>
<!-- Node4&#45;&gt;Node22 -->
<g id="edge21" class="edge"><title>Node4&#45;&gt;Node22</title>
<path fill="none" stroke="midnightblue" d="M752.931,-349.97C773.248,-319.404 812.56,-267.317 860,-240 866.772,-236.1 874.256,-232.999 881.915,-230.533"/>
<polygon fill="midnightblue" stroke="midnightblue" points="749.763,-348.422 747.247,-358.714 755.632,-352.237 749.763,-348.422"/>
</g>
<!-- Node23 -->
<g id="node23" class="node"><title>Node23</title>
<g id="a_node23"><a xlink:href="../../d9/d76/classbackend_1_1command_1_1_turtle_query.html" target="_top" xlink:title="backend.command.TurtleQuery">
<polygon fill="white" stroke="black" points="866,-152.5 866,-171.5 1032,-171.5 1032,-152.5 866,-152.5"/>
<text text-anchor="middle" x="949" y="-159.5" font-family="Helvetica,sans-Serif" font-size="10.00">backend.command.TurtleQuery</text>
</a>
</g>
</g>
<!-- Node4&#45;&gt;Node23 -->
<g id="edge22" class="edge"><title>Node4&#45;&gt;Node23</title>
<path fill="none" stroke="midnightblue" d="M749.885,-349.683C768.741,-313.278 808.69,-244.369 860,-202 876.693,-188.216 898.908,-178.167 916.841,-171.588"/>
<polygon fill="midnightblue" stroke="midnightblue" points="746.752,-348.121 745.342,-358.621 752.993,-351.292 746.752,-348.121"/>
</g>
<!-- Node7 -->
<g id="node7" class="node"><title>Node7</title>
<g id="a_node7"><a xlink:href="../../d1/d93/classbackend_1_1command_1_1_left.html" target="_top" xlink:title="backend.command.Left">
<polygon fill="white" stroke="black" points="1095,-582.5 1095,-601.5 1225,-601.5 1225,-582.5 1095,-582.5"/>
<text text-anchor="middle" x="1160" y="-589.5" font-family="Helvetica,sans-Serif" font-size="10.00">backend.command.Left</text>
</a>
</g>
</g>
<!-- Node6&#45;&gt;Node7 -->
<g id="edge6" class="edge"><title>Node6&#45;&gt;Node7</title>
<path fill="none" stroke="midnightblue" d="M1042.64,-570.843C1064.62,-574.839 1087.3,-578.964 1106.74,-582.499"/>
<polygon fill="midnightblue" stroke="midnightblue" points="1043.07,-567.364 1032.6,-569.019 1041.81,-574.251 1043.07,-567.364"/>
</g>
<!-- Node8 -->
<g id="node8" class="node"><title>Node8</title>
<g id="a_node8"><a xlink:href="../../d6/dcb/classbackend_1_1command_1_1_right.html" target="_top" xlink:title="backend.command.Right">
<polygon fill="white" stroke="black" points="1092,-544.5 1092,-563.5 1228,-563.5 1228,-544.5 1092,-544.5"/>
<text text-anchor="middle" x="1160" y="-551.5" font-family="Helvetica,sans-Serif" font-size="10.00">backend.command.Right</text>
</a>
</g>
</g>
<!-- Node6&#45;&gt;Node8 -->
<g id="edge7" class="edge"><title>Node6&#45;&gt;Node8</title>
<path fill="none" stroke="midnightblue" d="M1048.19,-554C1062.92,-554 1077.82,-554 1091.72,-554"/>
<polygon fill="midnightblue" stroke="midnightblue" points="1048.03,-550.5 1038.03,-554 1048.03,-557.5 1048.03,-550.5"/>
</g>
<!-- Node9 -->
<g id="node9" class="node"><title>Node9</title>
<g id="a_node9"><a xlink:href="../../d8/d92/classbackend_1_1command_1_1_set_heading.html" target="_top" xlink:title="backend.command.SetHeading">
<polygon fill="white" stroke="black" points="1076,-506.5 1076,-525.5 1244,-525.5 1244,-506.5 1076,-506.5"/>
<text text-anchor="middle" x="1160" y="-513.5" font-family="Helvetica,sans-Serif" font-size="10.00">backend.command.SetHeading</text>
</a>
</g>
</g>
<!-- Node6&#45;&gt;Node9 -->
<g id="edge8" class="edge"><title>Node6&#45;&gt;Node9</title>
<path fill="none" stroke="midnightblue" d="M1042.64,-537.157C1064.62,-533.161 1087.3,-529.036 1106.74,-525.501"/>
<polygon fill="midnightblue" stroke="midnightblue" points="1041.81,-533.749 1032.6,-538.981 1043.07,-540.636 1041.81,-533.749"/>
</g>
<!-- Node15 -->
<g id="node15" class="node"><title>Node15</title>
<g id="a_node15"><a xlink:href="../../dc/d25/classbackend_1_1command_1_1_backward.html" target="_top" xlink:title="backend.command.Backward">
<polygon fill="white" stroke="black" points="1081,-418.5 1081,-437.5 1239,-437.5 1239,-418.5 1081,-418.5"/>
<text text-anchor="middle" x="1160" y="-425.5" font-family="Helvetica,sans-Serif" font-size="10.00">backend.command.Backward</text>
</a>
</g>
</g>
<!-- Node14&#45;&gt;Node15 -->
<g id="edge14" class="edge"><title>Node14&#45;&gt;Node15</title>
<path fill="none" stroke="midnightblue" d="M1025.03,-370.753C1029.51,-372.654 1033.87,-374.732 1038,-377 1056.77,-387.295 1054.95,-399.242 1074,-409 1081.54,-412.86 1089.84,-415.94 1098.22,-418.397"/>
<polygon fill="midnightblue" stroke="midnightblue" points="1026.3,-367.492 1015.72,-367.092 1023.74,-374.007 1026.3,-367.492"/>
</g>
<!-- Node16 -->
<g id="node16" class="node"><title>Node16</title>
<g id="a_node16"><a xlink:href="../../d8/d49/classbackend_1_1command_1_1_forward.html" target="_top" xlink:title="backend.command.Forward">
<polygon fill="white" stroke="black" points="1085.5,-380.5 1085.5,-399.5 1234.5,-399.5 1234.5,-380.5 1085.5,-380.5"/>
<text text-anchor="middle" x="1160" y="-387.5" font-family="Helvetica,sans-Serif" font-size="10.00">backend.command.Forward</text>
</a>
</g>
</g>
<!-- Node14&#45;&gt;Node16 -->
<g id="edge15" class="edge"><title>Node14&#45;&gt;Node16</title>
<path fill="none" stroke="midnightblue" d="M1040.99,-368.544C1063.43,-372.623 1086.7,-376.855 1106.59,-380.472"/>
<polygon fill="midnightblue" stroke="midnightblue" points="1041.57,-365.092 1031.1,-366.746 1040.32,-371.979 1041.57,-365.092"/>
</g>
<!-- Node17 -->
<g id="node17" class="node"><title>Node17</title>
<g id="a_node17"><a xlink:href="../../d8/d3e/classbackend_1_1command_1_1_set_pen_size.html" target="_top" xlink:title="backend.command.SetPenSize">
<polygon fill="white" stroke="black" points="1076.5,-342.5 1076.5,-361.5 1243.5,-361.5 1243.5,-342.5 1076.5,-342.5"/>
<text text-anchor="middle" x="1160" y="-349.5" font-family="Helvetica,sans-Serif" font-size="10.00">backend.command.SetPenSize</text>
</a>
</g>
</g>
<!-- Node14&#45;&gt;Node17 -->
<g id="edge16" class="edge"><title>Node14&#45;&gt;Node17</title>
<path fill="none" stroke="midnightblue" d="M1041.25,-352C1052.88,-352 1064.73,-352 1076.22,-352"/>
<polygon fill="midnightblue" stroke="midnightblue" points="1041.1,-348.5 1031.1,-352 1041.1,-355.5 1041.1,-348.5"/>
</g>
<!-- Node19 -->
<g id="node19" class="node"><title>Node19</title>
<g id="a_node19"><a xlink:href="../../d5/db7/classbackend_1_1command_1_1_set_position.html" target="_top" xlink:title="backend.command.SetPosition">
<polygon fill="white" stroke="black" points="1077,-304.5 1077,-323.5 1243,-323.5 1243,-304.5 1077,-304.5"/>
<text text-anchor="middle" x="1160" y="-311.5" font-family="Helvetica,sans-Serif" font-size="10.00">backend.command.SetPosition</text>
</a>
</g>
</g>
<!-- Node18&#45;&gt;Node19 -->
<g id="edge18" class="edge"><title>Node18&#45;&gt;Node19</title>
<path fill="none" stroke="midnightblue" d="M1039.85,-307.729C1052.14,-308.376 1064.7,-309.037 1076.84,-309.676"/>
<polygon fill="midnightblue" stroke="midnightblue" points="1039.78,-304.221 1029.61,-307.19 1039.41,-311.211 1039.78,-304.221"/>
</g>
<!-- Node20 -->
<g id="node20" class="node"><title>Node20</title>
<g id="a_node20"><a xlink:href="../../d7/d1a/classbackend_1_1command_1_1_set_towards.html" target="_top" xlink:title="backend.command.SetTowards">
<polygon fill="white" stroke="black" points="1077,-266.5 1077,-285.5 1243,-285.5 1243,-266.5 1077,-266.5"/>
<text text-anchor="middle" x="1160" y="-273.5" font-family="Helvetica,sans-Serif" font-size="10.00">backend.command.SetTowards</text>
</a>
</g>
</g>
<!-- Node18&#45;&gt;Node20 -->
<g id="edge19" class="edge"><title>Node18&#45;&gt;Node20</title>
<path fill="none" stroke="midnightblue" d="M1039.59,-291.426C1054.89,-289.45 1070.63,-287.417 1085.45,-285.502"/>
<polygon fill="midnightblue" stroke="midnightblue" points="1039.08,-287.963 1029.61,-292.715 1039.98,-294.905 1039.08,-287.963"/>
</g>
<!-- Node24 -->
<g id="node24" class="node"><title>Node24</title>
<g id="a_node24"><a xlink:href="../../d9/d61/classbackend_1_1command_1_1_get_pen_color.html" target="_top" xlink:title="backend.command.GetPenColor">
<polygon fill="white" stroke="black" points="1074,-228.5 1074,-247.5 1246,-247.5 1246,-228.5 1074,-228.5"/>
<text text-anchor="middle" x="1160" y="-235.5" font-family="Helvetica,sans-Serif" font-size="10.00">backend.command.GetPenColor</text>
</a>
</g>
</g>
<!-- Node23&#45;&gt;Node24 -->
<g id="edge23" class="edge"><title>Node23&#45;&gt;Node24</title>
<path fill="none" stroke="midnightblue" d="M980.776,-175.857C997.692,-183.507 1019.03,-193.212 1038,-202 1054.05,-209.439 1057.26,-213.257 1074,-219 1084.73,-222.681 1096.46,-225.836 1107.7,-228.457"/>
<polygon fill="midnightblue" stroke="midnightblue" points="981.933,-172.539 971.378,-171.613 979.051,-178.919 981.933,-172.539"/>
</g>
<!-- Node25 -->
<g id="node25" class="node"><title>Node25</title>
<g id="a_node25"><a xlink:href="../../df/d1e/classbackend_1_1command_1_1_get_shape.html" target="_top" xlink:title="backend.command.GetShape">
<polygon fill="white" stroke="black" points="1080,-190.5 1080,-209.5 1240,-209.5 1240,-190.5 1080,-190.5"/>
<text text-anchor="middle" x="1160" y="-197.5" font-family="Helvetica,sans-Serif" font-size="10.00">backend.command.GetShape</text>
</a>
</g>
</g>
<!-- Node23&#45;&gt;Node25 -->
<g id="edge24" class="edge"><title>Node23&#45;&gt;Node25</title>
<path fill="none" stroke="midnightblue" d="M1012.41,-173.347C1042.39,-178.799 1077.93,-185.261 1106.51,-190.456"/>
<polygon fill="midnightblue" stroke="midnightblue" points="1012.93,-169.885 1002.47,-171.54 1011.68,-176.772 1012.93,-169.885"/>
</g>
<!-- Node27 -->
<g id="node27" class="node"><title>Node27</title>
<g id="a_node27"><a xlink:href="../../d7/da5/classbackend_1_1command_1_1_heading.html" target="_top" xlink:title="backend.command.Heading">
<polygon fill="white" stroke="black" points="1084,-152.5 1084,-171.5 1236,-171.5 1236,-152.5 1084,-152.5"/>
<text text-anchor="middle" x="1160" y="-159.5" font-family="Helvetica,sans-Serif" font-size="10.00">backend.command.Heading</text>
</a>
</g>
</g>
<!-- Node23&#45;&gt;Node27 -->
<g id="edge26" class="edge"><title>Node23&#45;&gt;Node27</title>
<path fill="none" stroke="midnightblue" d="M1042.07,-162C1055.98,-162 1070.2,-162 1083.7,-162"/>
<polygon fill="midnightblue" stroke="midnightblue" points="1042,-158.5 1032,-162 1042,-165.5 1042,-158.5"/>
</g>
<!-- Node28 -->
<g id="node28" class="node"><title>Node28</title>
<g id="a_node28"><a xlink:href="../../d8/d32/classbackend_1_1command_1_1_is_pen_down.html" target="_top" xlink:title="backend.command.IsPenDown">
<polygon fill="white" stroke="black" points="1078,-114.5 1078,-133.5 1242,-133.5 1242,-114.5 1078,-114.5"/>
<text text-anchor="middle" x="1160" y="-121.5" font-family="Helvetica,sans-Serif" font-size="10.00">backend.command.IsPenDown</text>
</a>
</g>
</g>
<!-- Node23&#45;&gt;Node28 -->
<g id="edge27" class="edge"><title>Node23&#45;&gt;Node28</title>
<path fill="none" stroke="midnightblue" d="M1012.41,-150.653C1042.39,-145.201 1077.93,-138.739 1106.51,-133.544"/>
<polygon fill="midnightblue" stroke="midnightblue" points="1011.68,-147.228 1002.47,-152.46 1012.93,-154.115 1011.68,-147.228"/>
</g>
<!-- Node29 -->
<g id="node29" class="node"><title>Node29</title>
<g id="a_node29"><a xlink:href="../../df/d51/classbackend_1_1command_1_1_is_showing.html" target="_top" xlink:title="backend.command.IsShowing">
<polygon fill="white" stroke="black" points="1080.5,-76.5 1080.5,-95.5 1239.5,-95.5 1239.5,-76.5 1080.5,-76.5"/>
<text text-anchor="middle" x="1160" y="-83.5" font-family="Helvetica,sans-Serif" font-size="10.00">backend.command.IsShowing</text>
</a>
</g>
</g>
<!-- Node23&#45;&gt;Node29 -->
<g id="edge28" class="edge"><title>Node23&#45;&gt;Node29</title>
<path fill="none" stroke="midnightblue" d="M1025.33,-149.006C1029.73,-147.251 1033.98,-145.26 1038,-143 1058.28,-131.591 1053.77,-116.482 1074,-105 1080.84,-101.119 1088.41,-98.0311 1096.12,-95.5737"/>
<polygon fill="midnightblue" stroke="midnightblue" points="1023.8,-145.836 1015.55,-152.482 1026.14,-152.432 1023.8,-145.836"/>
</g>
<!-- Node30 -->
<g id="node30" class="node"><title>Node30</title>
<g id="a_node30"><a xlink:href="../../d5/d68/classbackend_1_1command_1_1_x_coordinate.html" target="_top" xlink:title="backend.command.XCoordinate">
<polygon fill="white" stroke="black" points="1075,-38.5 1075,-57.5 1245,-57.5 1245,-38.5 1075,-38.5"/>
<text text-anchor="middle" x="1160" y="-45.5" font-family="Helvetica,sans-Serif" font-size="10.00">backend.command.XCoordinate</text>
</a>
</g>
</g>
<!-- Node23&#45;&gt;Node30 -->
<g id="edge29" class="edge"><title>Node23&#45;&gt;Node30</title>
<path fill="none" stroke="midnightblue" d="M1031.42,-147.573C1033.71,-146.178 1035.91,-144.657 1038,-143 1067.28,-119.775 1044.8,-90.3317 1074,-67 1078.84,-63.1299 1084.32,-60.0121 1090.09,-57.5048"/>
<polygon fill="midnightblue" stroke="midnightblue" points="1029.47,-144.643 1022.2,-152.353 1032.69,-150.857 1029.47,-144.643"/>
</g>
<!-- Node31 -->
<g id="node31" class="node"><title>Node31</title>
<g id="a_node31"><a xlink:href="../../d4/da7/classbackend_1_1command_1_1_y_coordinate.html" target="_top" xlink:title="backend.command.YCoordinate">
<polygon fill="white" stroke="black" points="1075.5,-0.5 1075.5,-19.5 1244.5,-19.5 1244.5,-0.5 1075.5,-0.5"/>
<text text-anchor="middle" x="1160" y="-7.5" font-family="Helvetica,sans-Serif" font-size="10.00">backend.command.YCoordinate</text>
</a>
</g>
</g>
<!-- Node23&#45;&gt;Node31 -->
<g id="edge30" class="edge"><title>Node23&#45;&gt;Node31</title>
<path fill="none" stroke="midnightblue" d="M1032.66,-147.284C1034.53,-145.965 1036.31,-144.539 1038,-143 1077.28,-107.221 1034.85,-64.9216 1074,-29 1078.12,-25.2175 1082.83,-22.1315 1087.86,-19.6197"/>
<polygon fill="midnightblue" stroke="midnightblue" points="1030.85,-144.29 1024.05,-152.416 1034.43,-150.304 1030.85,-144.29"/>
</g>
<!-- Node26 -->
<g id="node26" class="node"><title>Node26</title>
<g id="a_node26"><a xlink:href="../../de/d8f/classbackend_1_1command_1_1_stamp.html" target="_top" xlink:title="backend.command.Stamp">
<polygon fill="white" stroke="black" points="1282,-190.5 1282,-209.5 1426,-209.5 1426,-190.5 1282,-190.5"/>
<text text-anchor="middle" x="1354" y="-197.5" font-family="Helvetica,sans-Serif" font-size="10.00">backend.command.Stamp</text>
</a>
</g>
</g>
<!-- Node25&#45;&gt;Node26 -->
<g id="edge25" class="edge"><title>Node25&#45;&gt;Node26</title>
<path fill="none" stroke="midnightblue" d="M1250.33,-200C1260.94,-200 1271.66,-200 1281.97,-200"/>
<polygon fill="midnightblue" stroke="midnightblue" points="1250.2,-196.5 1240.2,-200 1250.2,-203.5 1250.2,-196.5"/>
</g>
<!-- Node34 -->
<g id="node34" class="node"><title>Node34</title>
<g id="a_node34"><a xlink:href="../../d4/d75/classbackend_1_1command_1_1_ask.html" target="_top" xlink:title="backend.command.Ask">
<polygon fill="white" stroke="black" points="884.5,-114.5 884.5,-133.5 1013.5,-133.5 1013.5,-114.5 884.5,-114.5"/>
<text text-anchor="middle" x="949" y="-121.5" font-family="Helvetica,sans-Serif" font-size="10.00">backend.command.Ask</text>
</a>
</g>
</g>
<!-- Node33&#45;&gt;Node34 -->
<g id="edge33" class="edge"><title>Node33&#45;&gt;Node34</title>
<path fill="none" stroke="midnightblue" d="M824.719,-124C844.657,-124 865.501,-124 884.258,-124"/>
<polygon fill="midnightblue" stroke="midnightblue" points="824.706,-120.5 814.706,-124 824.706,-127.5 824.706,-120.5"/>
</g>
<!-- Node35 -->
<g id="node35" class="node"><title>Node35</title>
<g id="a_node35"><a xlink:href="../../de/dcc/classbackend_1_1command_1_1_tell.html" target="_top" xlink:title="backend.command.Tell">
<polygon fill="white" stroke="black" points="886,-76.5 886,-95.5 1012,-95.5 1012,-76.5 886,-76.5"/>
<text text-anchor="middle" x="949" y="-83.5" font-family="Helvetica,sans-Serif" font-size="10.00">backend.command.Tell</text>
</a>
</g>
</g>
<!-- Node33&#45;&gt;Node35 -->
<g id="edge34" class="edge"><title>Node33&#45;&gt;Node35</title>
<path fill="none" stroke="midnightblue" d="M824.557,-108.337C848.606,-103.986 873.988,-99.3927 895.44,-95.5108"/>
<polygon fill="midnightblue" stroke="midnightblue" points="823.923,-104.895 814.706,-110.12 825.17,-111.783 823.923,-104.895"/>
</g>
</g>
</svg>
