<?xml version="1.0" encoding="UTF-8" standalone="no"?>
<!DOCTYPE svg PUBLIC "-//W3C//DTD SVG 1.1//EN"
 "http://www.w3.org/Graphics/SVG/1.1/DTD/svg11.dtd">
<!-- Generated by graphviz version 2.36.0 (20140111.2315)
 -->
<!-- Title: backend.Pen Pages: 1 -->
<svg width="211pt" height="96pt"
 viewBox="0.00 0.00 211.00 96.00" xmlns="http://www.w3.org/2000/svg" xmlns:xlink="http://www.w3.org/1999/xlink">
<g id="graph0" class="graph" transform="scale(1 1) rotate(0) translate(4 92)">
<title>backend.Pen</title>
<polygon fill="white" stroke="none" points="-4,4 -4,-92 207,-92 207,4 -4,4"/>
<!-- Node1 -->
<g id="node1" class="node"><title>Node1</title>
<polygon fill="#bfbfbf" stroke="black" points="36,-0.5 36,-19.5 114,-19.5 114,-0.5 36,-0.5"/>
<text text-anchor="middle" x="75" y="-7.5" font-family="Helvetica,sans-Serif" font-size="10.00">backend.Pen</text>
</g>
<!-- Node2 -->
<g id="node2" class="node"><title>Node2</title>
<polygon fill="white" stroke="#bfbfbf" points="-0.5,-68.5 -0.5,-87.5 40.5,-87.5 40.5,-68.5 -0.5,-68.5"/>
<text text-anchor="middle" x="20" y="-75.5" font-family="Helvetica,sans-Serif" font-size="10.00">Color</text>
</g>
<!-- Node2&#45;&gt;Node1 -->
<g id="edge1" class="edge"><title>Node2&#45;&gt;Node1</title>
<path fill="none" stroke="#9a32cd" stroke-dasharray="5,2" d="M33.6,-60.68C44.3527,-47.7768 58.9521,-30.2575 67.6324,-19.8411"/>
<polygon fill="#9a32cd" stroke="#9a32cd" points="30.9034,-58.4488 27.1903,-68.3717 36.281,-62.9301 30.9034,-58.4488"/>
<text text-anchor="middle" x="66.5" y="-41.5" font-family="Helvetica,sans-Serif" font-size="10.00"> color</text>
</g>
<!-- Node3 -->
<g id="node3" class="node"><title>Node3</title>
<polygon fill="white" stroke="#bfbfbf" points="59,-68.5 59,-87.5 203,-87.5 203,-68.5 59,-68.5"/>
<text text-anchor="middle" x="131" y="-75.5" font-family="Helvetica,sans-Serif" font-size="10.00">ArrayList&lt; backend.Line &gt;</text>
</g>
<!-- Node3&#45;&gt;Node1 -->
<g id="edge2" class="edge"><title>Node3&#45;&gt;Node1</title>
<path fill="none" stroke="#9a32cd" stroke-dasharray="5,2" d="M117.153,-60.68C106.205,-47.7768 91.3397,-30.2575 82.5016,-19.8411"/>
<polygon fill="#9a32cd" stroke="#9a32cd" points="114.54,-63.011 123.679,-68.3717 119.878,-58.4821 114.54,-63.011"/>
<text text-anchor="middle" x="121.5" y="-41.5" font-family="Helvetica,sans-Serif" font-size="10.00"> lines</text>
</g>
</g>
</svg>
