<?xml version="1.0" encoding="UTF-8" standalone="no"?>
<!DOCTYPE svg PUBLIC "-//W3C//DTD SVG 1.1//EN"
 "http://www.w3.org/Graphics/SVG/1.1/DTD/svg11.dtd">
<!-- Generated by graphviz version 2.36.0 (20140111.2315)
 -->
<!-- Title: backend.DrawableImage Pages: 1 -->
<svg width="204pt" height="84pt"
 viewBox="0.00 0.00 204.00 84.00" xmlns="http://www.w3.org/2000/svg" xmlns:xlink="http://www.w3.org/1999/xlink">
<g id="graph0" class="graph" transform="scale(1 1) rotate(0) translate(4 80)">
<title>backend.DrawableImage</title>
<polygon fill="white" stroke="none" points="-4,4 -4,-80 200,-80 200,4 -4,4"/>
<!-- Node1 -->
<g id="node1" class="node"><title>Node1</title>
<polygon fill="#bfbfbf" stroke="black" points="32,-56.5 32,-75.5 166,-75.5 166,-56.5 32,-56.5"/>
<text text-anchor="middle" x="99" y="-63.5" font-family="Helvetica,sans-Serif" font-size="10.00">backend.DrawableImage</text>
</g>
<!-- Node2 -->
<g id="node2" class="node"><title>Node2</title>
<g id="a_node2"><a xlink:href="../../df/d41/classbackend_1_1_stamp.html" target="_top" xlink:title="backend.Stamp">
<polygon fill="white" stroke="black" points="0,-0.5 0,-19.5 92,-19.5 92,-0.5 0,-0.5"/>
<text text-anchor="middle" x="46" y="-7.5" font-family="Helvetica,sans-Serif" font-size="10.00">backend.Stamp</text>
</a>
</g>
</g>
<!-- Node1&#45;&gt;Node2 -->
<g id="edge1" class="edge"><title>Node1&#45;&gt;Node2</title>
<path fill="none" stroke="midnightblue" d="M83.0191,-48.7175C73.6775,-39.1997 62.2541,-27.5608 54.589,-19.7511"/>
<polygon fill="midnightblue" stroke="midnightblue" points="80.7455,-51.3978 90.2481,-56.083 85.7413,-46.4945 80.7455,-51.3978"/>
</g>
<!-- Node3 -->
<g id="node3" class="node"><title>Node3</title>
<g id="a_node3"><a xlink:href="../../df/de2/classbackend_1_1_turtle.html" target="_top" xlink:title="backend.Turtle">
<polygon fill="white" stroke="black" points="110,-0.5 110,-19.5 196,-19.5 196,-0.5 110,-0.5"/>
<text text-anchor="middle" x="153" y="-7.5" font-family="Helvetica,sans-Serif" font-size="10.00">backend.Turtle</text>
</a>
</g>
</g>
<!-- Node1&#45;&gt;Node3 -->
<g id="edge2" class="edge"><title>Node1&#45;&gt;Node3</title>
<path fill="none" stroke="midnightblue" d="M114.998,-49.0024C124.567,-39.4329 136.361,-27.6389 144.249,-19.7511"/>
<polygon fill="midnightblue" stroke="midnightblue" points="112.513,-46.537 107.917,-56.083 117.463,-51.4868 112.513,-46.537"/>
</g>
</g>
</svg>
