<?xml version="1.0" encoding="UTF-8" standalone="no"?>
<!DOCTYPE svg PUBLIC "-//W3C//DTD SVG 1.1//EN"
 "http://www.w3.org/Graphics/SVG/1.1/DTD/svg11.dtd">
<!-- Generated by graphviz version 2.36.0 (20140111.2315)
 -->
<!-- Title: backend.command.Tell Pages: 1 -->
<svg width="198pt" height="264pt"
 viewBox="0.00 0.00 198.00 264.00" xmlns="http://www.w3.org/2000/svg" xmlns:xlink="http://www.w3.org/1999/xlink">
<g id="graph0" class="graph" transform="scale(1 1) rotate(0) translate(4 260)">
<title>backend.command.Tell</title>
<polygon fill="white" stroke="none" points="-4,4 -4,-260 194,-260 194,4 -4,4"/>
<!-- Node1 -->
<g id="node1" class="node"><title>Node1</title>
<polygon fill="#bfbfbf" stroke="black" points="32,-0.5 32,-19.5 158,-19.5 158,-0.5 32,-0.5"/>
<text text-anchor="middle" x="95" y="-7.5" font-family="Helvetica,sans-Serif" font-size="10.00">backend.command.Tell</text>
</g>
<!-- Node2 -->
<g id="node2" class="node"><title>Node2</title>
<g id="a_node2"><a xlink:href="../../d4/d68/classbackend_1_1command_1_1_specified_turtle_command.html" target="_top" xlink:title="backend.command.Specified\lTurtleCommand">
<polygon fill="white" stroke="black" points="17.5,-57 17.5,-87 172.5,-87 172.5,-57 17.5,-57"/>
<text text-anchor="start" x="25.5" y="-75" font-family="Helvetica,sans-Serif" font-size="10.00">backend.command.Specified</text>
<text text-anchor="middle" x="95" y="-64" font-family="Helvetica,sans-Serif" font-size="10.00">TurtleCommand</text>
</a>
</g>
</g>
<!-- Node2&#45;&gt;Node1 -->
<g id="edge1" class="edge"><title>Node2&#45;&gt;Node1</title>
<path fill="none" stroke="midnightblue" d="M95,-46.5858C95,-37.0743 95,-26.7864 95,-19.7305"/>
<polygon fill="midnightblue" stroke="midnightblue" points="91.5001,-46.7808 95,-56.7808 98.5001,-46.7809 91.5001,-46.7808"/>
</g>
<!-- Node3 -->
<g id="node3" class="node"><title>Node3</title>
<g id="a_node3"><a xlink:href="../../d5/dfc/classbackend_1_1command_1_1_turtle_command.html" target="_top" xlink:title="backend.command.TurtleCommand">
<polygon fill="white" stroke="black" points="1,-124.5 1,-143.5 189,-143.5 189,-124.5 1,-124.5"/>
<text text-anchor="middle" x="95" y="-131.5" font-family="Helvetica,sans-Serif" font-size="10.00">backend.command.TurtleCommand</text>
</a>
</g>
</g>
<!-- Node3&#45;&gt;Node2 -->
<g id="edge2" class="edge"><title>Node3&#45;&gt;Node2</title>
<path fill="none" stroke="midnightblue" d="M95,-114.371C95,-105.585 95,-95.2721 95,-87.1408"/>
<polygon fill="midnightblue" stroke="midnightblue" points="91.5001,-114.403 95,-124.403 98.5001,-114.403 91.5001,-114.403"/>
</g>
<!-- Node4 -->
<g id="node4" class="node"><title>Node4</title>
<g id="a_node4"><a xlink:href="../../dc/d67/classbackend_1_1command_1_1_model_command.html" target="_top" xlink:title="backend.command.ModelCommand">
<polygon fill="white" stroke="black" points="-0.5,-180.5 -0.5,-199.5 190.5,-199.5 190.5,-180.5 -0.5,-180.5"/>
<text text-anchor="middle" x="95" y="-187.5" font-family="Helvetica,sans-Serif" font-size="10.00">backend.command.ModelCommand</text>
</a>
</g>
</g>
<!-- Node4&#45;&gt;Node3 -->
<g id="edge3" class="edge"><title>Node4&#45;&gt;Node3</title>
<path fill="none" stroke="midnightblue" d="M95,-169.805C95,-160.91 95,-150.78 95,-143.751"/>
<polygon fill="midnightblue" stroke="midnightblue" points="91.5001,-170.083 95,-180.083 98.5001,-170.083 91.5001,-170.083"/>
</g>
<!-- Node5 -->
<g id="node5" class="node"><title>Node5</title>
<g id="a_node5"><a xlink:href="../../dc/d83/classbackend_1_1command_1_1_command.html" target="_top" xlink:title="backend.command.Command">
<polygon fill="white" stroke="black" points="14,-236.5 14,-255.5 176,-255.5 176,-236.5 14,-236.5"/>
<text text-anchor="middle" x="95" y="-243.5" font-family="Helvetica,sans-Serif" font-size="10.00">backend.command.Command</text>
</a>
</g>
</g>
<!-- Node5&#45;&gt;Node4 -->
<g id="edge4" class="edge"><title>Node5&#45;&gt;Node4</title>
<path fill="none" stroke="midnightblue" d="M95,-225.805C95,-216.91 95,-206.78 95,-199.751"/>
<polygon fill="midnightblue" stroke="midnightblue" points="91.5001,-226.083 95,-236.083 98.5001,-226.083 91.5001,-226.083"/>
</g>
</g>
</svg>
