<?xml version="1.0" encoding="UTF-8" standalone="no"?>
<!DOCTYPE svg PUBLIC "-//W3C//DTD SVG 1.1//EN"
 "http://www.w3.org/Graphics/SVG/1.1/DTD/svg11.dtd">
<!-- Generated by graphviz version 2.36.0 (20140111.2315)
 -->
<!-- Title: backend.command.Forward.execute Pages: 1 -->
<svg width="974pt" height="115pt"
 viewBox="0.00 0.00 974.00 115.00" xmlns="http://www.w3.org/2000/svg" xmlns:xlink="http://www.w3.org/1999/xlink">
<g id="graph0" class="graph" transform="scale(1 1) rotate(0) translate(4 111)">
<title>backend.command.Forward.execute</title>
<polygon fill="white" stroke="none" points="-4,4 -4,-111 970,-111 970,4 -4,4"/>
<!-- Node1 -->
<g id="node1" class="node"><title>Node1</title>
<polygon fill="#bfbfbf" stroke="black" points="0.5,-27.5 0.5,-46.5 191.5,-46.5 191.5,-27.5 0.5,-27.5"/>
<text text-anchor="middle" x="96" y="-34.5" font-family="Helvetica,sans-Serif" font-size="10.00">backend.command.Forward.execute</text>
</g>
<!-- Node2 -->
<g id="node2" class="node"><title>Node2</title>
<g id="a_node2"><a xlink:href="../../df/de2/classbackend_1_1_turtle.html#a1b45c4ecc2d7cd43cd947fdf9429305b" target="_top" xlink:title="backend.Turtle.move">
<polygon fill="white" stroke="black" points="252,-49.5 252,-68.5 368,-68.5 368,-49.5 252,-49.5"/>
<text text-anchor="middle" x="310" y="-56.5" font-family="Helvetica,sans-Serif" font-size="10.00">backend.Turtle.move</text>
</a>
</g>
</g>
<!-- Node1&#45;&gt;Node2 -->
<g id="edge1" class="edge"><title>Node1&#45;&gt;Node2</title>
<path fill="none" stroke="midnightblue" d="M188.753,-46.5216C206.546,-48.368 224.885,-50.271 241.714,-52.0175"/>
<polygon fill="midnightblue" stroke="midnightblue" points="241.671,-55.5317 251.979,-53.0827 242.393,-48.5691 241.671,-55.5317"/>
</g>
<!-- Node8 -->
<g id="node8" class="node"><title>Node8</title>
<g id="a_node8"><a xlink:href="../../df/d09/classbackend_1_1command_1_1_pixels_turtle_command.html#af33732612b4329d162ffab3c28f41274" target="_top" xlink:title="backend.command.PixelsTurtle\lCommand.pixels">
<polygon fill="white" stroke="black" points="228,-0 228,-30 392,-30 392,-0 228,-0"/>
<text text-anchor="start" x="236" y="-18" font-family="Helvetica,sans-Serif" font-size="10.00">backend.command.PixelsTurtle</text>
<text text-anchor="middle" x="310" y="-7" font-family="Helvetica,sans-Serif" font-size="10.00">Command.pixels</text>
</a>
</g>
</g>
<!-- Node1&#45;&gt;Node8 -->
<g id="edge7" class="edge"><title>Node1&#45;&gt;Node8</title>
<path fill="none" stroke="midnightblue" d="M188.753,-27.4784C198.388,-26.4786 208.182,-25.4623 217.81,-24.4631"/>
<polygon fill="midnightblue" stroke="midnightblue" points="218.184,-27.9432 227.769,-23.4296 217.461,-20.9806 218.184,-27.9432"/>
</g>
<!-- Node3 -->
<g id="node3" class="node"><title>Node3</title>
<g id="a_node3"><a xlink:href="../../d8/d98/classbackend_1_1_heading.html#a6cb6cb190412dc463cab0431243f9885" target="_top" xlink:title="backend.Heading.getAngleRads">
<polygon fill="white" stroke="black" points="445.5,-87.5 445.5,-106.5 614.5,-106.5 614.5,-87.5 445.5,-87.5"/>
<text text-anchor="middle" x="530" y="-94.5" font-family="Helvetica,sans-Serif" font-size="10.00">backend.Heading.getAngleRads</text>
</a>
</g>
</g>
<!-- Node2&#45;&gt;Node3 -->
<g id="edge2" class="edge"><title>Node2&#45;&gt;Node3</title>
<path fill="none" stroke="midnightblue" d="M365.729,-68.54C395.661,-73.7574 432.922,-80.2525 464.288,-85.72"/>
<polygon fill="midnightblue" stroke="midnightblue" points="463.796,-89.1868 474.248,-87.4561 464.998,-82.2908 463.796,-89.1868"/>
</g>
<!-- Node4 -->
<g id="node4" class="node"><title>Node4</title>
<g id="a_node4"><a xlink:href="../../df/de2/classbackend_1_1_turtle.html#a86c40ae8c6731af071b31f3bbbe21deb" target="_top" xlink:title="backend.Turtle.moveToPoint">
<polygon fill="white" stroke="black" points="455.5,-49.5 455.5,-68.5 604.5,-68.5 604.5,-49.5 455.5,-49.5"/>
<text text-anchor="middle" x="530" y="-56.5" font-family="Helvetica,sans-Serif" font-size="10.00">backend.Turtle.moveToPoint</text>
</a>
</g>
</g>
<!-- Node2&#45;&gt;Node4 -->
<g id="edge3" class="edge"><title>Node2&#45;&gt;Node4</title>
<path fill="none" stroke="midnightblue" d="M368.277,-59C391.776,-59 419.45,-59 445.15,-59"/>
<polygon fill="midnightblue" stroke="midnightblue" points="445.266,-62.5001 455.266,-59 445.266,-55.5001 445.266,-62.5001"/>
</g>
<!-- Node5 -->
<g id="node5" class="node"><title>Node5</title>
<g id="a_node5"><a xlink:href="../../de/dc9/classbackend_1_1_pen.html#a135b3b945d4033d3a3e8e56552ff8782" target="_top" xlink:title="backend.Pen.drawLine">
<polygon fill="white" stroke="black" points="679.5,-68.5 679.5,-87.5 802.5,-87.5 802.5,-68.5 679.5,-68.5"/>
<text text-anchor="middle" x="741" y="-75.5" font-family="Helvetica,sans-Serif" font-size="10.00">backend.Pen.drawLine</text>
</a>
</g>
</g>
<!-- Node4&#45;&gt;Node5 -->
<g id="edge4" class="edge"><title>Node4&#45;&gt;Node5</title>
<path fill="none" stroke="midnightblue" d="M604.686,-65.6987C625.693,-67.6085 648.525,-69.6841 669.347,-71.577"/>
<polygon fill="midnightblue" stroke="midnightblue" points="669.115,-75.0702 679.391,-72.4901 669.749,-68.099 669.115,-75.0702"/>
</g>
<!-- Node7 -->
<g id="node7" class="node"><title>Node7</title>
<g id="a_node7"><a xlink:href="../../df/de2/classbackend_1_1_turtle.html#af37d25ad088eda24bbfd1a22df39c1cc" target="_top" xlink:title="backend.Turtle.jumpToPoint">
<polygon fill="white" stroke="black" points="668,-30.5 668,-49.5 814,-49.5 814,-30.5 668,-30.5"/>
<text text-anchor="middle" x="741" y="-37.5" font-family="Helvetica,sans-Serif" font-size="10.00">backend.Turtle.jumpToPoint</text>
</a>
</g>
</g>
<!-- Node4&#45;&gt;Node7 -->
<g id="edge6" class="edge"><title>Node4&#45;&gt;Node7</title>
<path fill="none" stroke="midnightblue" d="M604.686,-52.3013C621.78,-50.7473 640.082,-49.0834 657.527,-47.4976"/>
<polygon fill="midnightblue" stroke="midnightblue" points="658.041,-50.9653 667.683,-46.5743 657.407,-43.9941 658.041,-50.9653"/>
</g>
<!-- Node6 -->
<g id="node6" class="node"><title>Node6</title>
<g id="a_node6"><a xlink:href="../../de/dc9/classbackend_1_1_pen.html#abfd32c7785accc4f570322aa0b29f650" target="_top" xlink:title="backend.Pen.isDown">
<polygon fill="white" stroke="black" points="850.5,-68.5 850.5,-87.5 965.5,-87.5 965.5,-68.5 850.5,-68.5"/>
<text text-anchor="middle" x="908" y="-75.5" font-family="Helvetica,sans-Serif" font-size="10.00">backend.Pen.isDown</text>
</a>
</g>
</g>
<!-- Node5&#45;&gt;Node6 -->
<g id="edge5" class="edge"><title>Node5&#45;&gt;Node6</title>
<path fill="none" stroke="midnightblue" d="M802.503,-78C814.718,-78 827.628,-78 840.049,-78"/>
<polygon fill="midnightblue" stroke="midnightblue" points="840.343,-81.5001 850.343,-78 840.343,-74.5001 840.343,-81.5001"/>
</g>
<!-- Node9 -->
<g id="node9" class="node"><title>Node9</title>
<g id="a_node9"><a xlink:href="../../dc/d83/classbackend_1_1command_1_1_command.html#ae218516ae55b1b0d4820d55c901793ea" target="_top" xlink:title="backend.command.Command.execute\lParam">
<polygon fill="white" stroke="black" points="428.5,-0 428.5,-30 631.5,-30 631.5,-0 428.5,-0"/>
<text text-anchor="start" x="436.5" y="-18" font-family="Helvetica,sans-Serif" font-size="10.00">backend.command.Command.execute</text>
<text text-anchor="middle" x="530" y="-7" font-family="Helvetica,sans-Serif" font-size="10.00">Param</text>
</a>
</g>
</g>
<!-- Node8&#45;&gt;Node9 -->
<g id="edge8" class="edge"><title>Node8&#45;&gt;Node9</title>
<path fill="none" stroke="midnightblue" d="M392.175,-15C400.615,-15 409.293,-15 417.989,-15"/>
<polygon fill="midnightblue" stroke="midnightblue" points="418.191,-18.5001 428.191,-15 418.191,-11.5001 418.191,-18.5001"/>
</g>
</g>
</svg>
