<?xml version="1.0" encoding="UTF-8" standalone="no"?>
<!DOCTYPE svg PUBLIC "-//W3C//DTD SVG 1.1//EN"
 "http://www.w3.org/Graphics/SVG/1.1/DTD/svg11.dtd">
<!-- Generated by graphviz version 2.36.0 (20140111.2315)
 -->
<!-- Title: backend.command.UnaryBooleanOperation Pages: 1 -->
<svg width="297pt" height="248pt"
 viewBox="0.00 0.00 297.00 248.00" xmlns="http://www.w3.org/2000/svg" xmlns:xlink="http://www.w3.org/1999/xlink">
<g id="graph0" class="graph" transform="scale(1 1) rotate(0) translate(4 244)">
<title>backend.command.UnaryBooleanOperation</title>
<polygon fill="white" stroke="none" points="-4,4 -4,-244 293,-244 293,4 -4,4"/>
<!-- Node1 -->
<g id="node1" class="node"><title>Node1</title>
<polygon fill="#bfbfbf" stroke="black" points="40.5,-1 40.5,-31 219.5,-31 219.5,-1 40.5,-1"/>
<text text-anchor="start" x="48.5" y="-19" font-family="Helvetica,sans-Serif" font-size="10.00">backend.command.UnaryBoolean</text>
<text text-anchor="middle" x="130" y="-8" font-family="Helvetica,sans-Serif" font-size="10.00">Operation</text>
</g>
<!-- Node2 -->
<g id="node2" class="node"><title>Node2</title>
<g id="a_node2"><a xlink:href="../../d3/d64/classbackend_1_1command_1_1_unary_math_operation.html" target="_top" xlink:title="backend.command.UnaryMath\lOperation">
<polygon fill="white" stroke="black" points="48,-71 48,-101 212,-101 212,-71 48,-71"/>
<text text-anchor="start" x="56" y="-89" font-family="Helvetica,sans-Serif" font-size="10.00">backend.command.UnaryMath</text>
<text text-anchor="middle" x="130" y="-78" font-family="Helvetica,sans-Serif" font-size="10.00">Operation</text>
</a>
</g>
</g>
<!-- Node2&#45;&gt;Node1 -->
<g id="edge1" class="edge"><title>Node2&#45;&gt;Node1</title>
<path fill="none" stroke="midnightblue" d="M130,-60.7688C130,-50.8141 130,-39.6384 130,-31.0716"/>
<polygon fill="midnightblue" stroke="midnightblue" points="126.5,-60.9103 130,-70.9104 133.5,-60.9104 126.5,-60.9103"/>
</g>
<!-- Node3 -->
<g id="node3" class="node"><title>Node3</title>
<g id="a_node3"><a xlink:href="../../dc/d83/classbackend_1_1command_1_1_command.html" target="_top" xlink:title="backend.command.Command">
<polygon fill="white" stroke="black" points="49,-140.5 49,-159.5 211,-159.5 211,-140.5 49,-140.5"/>
<text text-anchor="middle" x="130" y="-147.5" font-family="Helvetica,sans-Serif" font-size="10.00">backend.command.Command</text>
</a>
</g>
</g>
<!-- Node3&#45;&gt;Node2 -->
<g id="edge2" class="edge"><title>Node3&#45;&gt;Node2</title>
<path fill="none" stroke="midnightblue" d="M130,-130.183C130,-120.886 130,-109.851 130,-101.263"/>
<polygon fill="midnightblue" stroke="midnightblue" points="126.5,-130.379 130,-140.379 133.5,-130.379 126.5,-130.379"/>
</g>
<!-- Node3&#45;&gt;Node3 -->
<g id="edge4" class="edge"><title>Node3&#45;&gt;Node3</title>
<path fill="none" stroke="#9a32cd" stroke-dasharray="5,2" d="M221.171,-153.486C226.084,-152.634 229,-151.471 229,-150 229,-147.703 221.894,-146.16 211.18,-145.37"/>
<polygon fill="#9a32cd" stroke="#9a32cd" points="220.717,-150.015 211.18,-154.63 221.513,-156.97 220.717,-150.015"/>
<text text-anchor="middle" x="246.5" y="-147.5" font-family="Helvetica,sans-Serif" font-size="10.00"> parent</text>
</g>
<!-- Node4 -->
<g id="node4" class="node"><title>Node4</title>
<g id="a_node4"><a xlink:href="../../d0/d6a/classbackend_1_1_string_pair.html" target="_top" xlink:title="backend.StringPair">
<polygon fill="white" stroke="black" points="0,-214.5 0,-233.5 106,-233.5 106,-214.5 0,-214.5"/>
<text text-anchor="middle" x="53" y="-221.5" font-family="Helvetica,sans-Serif" font-size="10.00">backend.StringPair</text>
</a>
</g>
</g>
<!-- Node4&#45;&gt;Node3 -->
<g id="edge3" class="edge"><title>Node4&#45;&gt;Node3</title>
<path fill="none" stroke="#9a32cd" stroke-dasharray="5,2" d="M69.5857,-207.491C85.2817,-192.815 108.264,-171.325 120.877,-159.531"/>
<polygon fill="#9a32cd" stroke="#9a32cd" points="67.0491,-205.071 62.1353,-214.458 71.83,-210.184 67.0491,-205.071"/>
<text text-anchor="middle" x="125" y="-181.5" font-family="Helvetica,sans-Serif" font-size="10.00"> stringPair</text>
</g>
<!-- Node5 -->
<g id="node5" class="node"><title>Node5</title>
<polygon fill="white" stroke="#bfbfbf" points="124.5,-209 124.5,-239 289.5,-239 289.5,-209 124.5,-209"/>
<text text-anchor="start" x="132.5" y="-227" font-family="Helvetica,sans-Serif" font-size="10.00">ArrayList&lt; backend.command.</text>
<text text-anchor="middle" x="207" y="-216" font-family="Helvetica,sans-Serif" font-size="10.00">Command &gt;</text>
</g>
<!-- Node5&#45;&gt;Node3 -->
<g id="edge5" class="edge"><title>Node5&#45;&gt;Node3</title>
<path fill="none" stroke="#9a32cd" stroke-dasharray="5,2" d="M184.361,-201.831C169.362,-187.806 150.472,-170.143 139.367,-159.759"/>
<polygon fill="#9a32cd" stroke="#9a32cd" points="182.093,-204.502 191.787,-208.775 186.874,-199.389 182.093,-204.502"/>
<text text-anchor="middle" x="191" y="-181.5" font-family="Helvetica,sans-Serif" font-size="10.00"> params</text>
</g>
</g>
</svg>
