<?xml version="1.0" encoding="UTF-8" standalone="no"?>
<!DOCTYPE svg PUBLIC "-//W3C//DTD SVG 1.1//EN"
 "http://www.w3.org/Graphics/SVG/1.1/DTD/svg11.dtd">
<!-- Generated by graphviz version 2.36.0 (20140111.2315)
 -->
<!-- Title: backend.command.Tell.execute Pages: 1 -->
<svg width="846pt" height="96pt"
 viewBox="0.00 0.00 846.00 96.00" xmlns="http://www.w3.org/2000/svg" xmlns:xlink="http://www.w3.org/1999/xlink">
<g id="graph0" class="graph" transform="scale(1 1) rotate(0) translate(4 92)">
<title>backend.command.Tell.execute</title>
<polygon fill="white" stroke="none" points="-4,4 -4,-92 842,-92 842,4 -4,4"/>
<!-- Node1 -->
<g id="node1" class="node"><title>Node1</title>
<polygon fill="#bfbfbf" stroke="black" points="0.5,-49.5 0.5,-68.5 167.5,-68.5 167.5,-49.5 0.5,-49.5"/>
<text text-anchor="middle" x="84" y="-56.5" font-family="Helvetica,sans-Serif" font-size="10.00">backend.command.Tell.execute</text>
</g>
<!-- Node2 -->
<g id="node2" class="node"><title>Node2</title>
<g id="a_node2"><a xlink:href="../../dc/d67/classbackend_1_1command_1_1_model_command.html#ab57d058d26b965a9038487f69f40c066" target="_top" xlink:title="backend.command.ModelCommand.grid">
<polygon fill="white" stroke="black" points="408,-68.5 408,-87.5 620,-87.5 620,-68.5 408,-68.5"/>
<text text-anchor="middle" x="514" y="-75.5" font-family="Helvetica,sans-Serif" font-size="10.00">backend.command.ModelCommand.grid</text>
</a>
</g>
</g>
<!-- Node1&#45;&gt;Node2 -->
<g id="edge1" class="edge"><title>Node1&#45;&gt;Node2</title>
<path fill="none" stroke="midnightblue" d="M133.426,-68.513C154.944,-72.2786 180.641,-76.147 204,-78 267.818,-83.0626 339.283,-83.4053 397.398,-82.3285"/>
<polygon fill="midnightblue" stroke="midnightblue" points="397.79,-85.8213 407.718,-82.1198 397.649,-78.8228 397.79,-85.8213"/>
</g>
<!-- Node4 -->
<g id="node4" class="node"><title>Node4</title>
<g id="a_node4"><a xlink:href="../../d1/d68/classbackend_1_1_grid.html#a808ad576df450a8342f040c2b69b87da" target="_top" xlink:title="backend.Grid.setActiveTurtles">
<polygon fill="white" stroke="black" points="209,-49.5 209,-68.5 367,-68.5 367,-49.5 209,-49.5"/>
<text text-anchor="middle" x="288" y="-56.5" font-family="Helvetica,sans-Serif" font-size="10.00">backend.Grid.setActiveTurtles</text>
</a>
</g>
</g>
<!-- Node1&#45;&gt;Node4 -->
<g id="edge3" class="edge"><title>Node1&#45;&gt;Node4</title>
<path fill="none" stroke="midnightblue" d="M167.744,-59C177.959,-59 188.431,-59 198.724,-59"/>
<polygon fill="midnightblue" stroke="midnightblue" points="198.941,-62.5001 208.941,-59 198.941,-55.5001 198.941,-62.5001"/>
</g>
<!-- Node5 -->
<g id="node5" class="node"><title>Node5</title>
<g id="a_node5"><a xlink:href="../../d4/d68/classbackend_1_1command_1_1_specified_turtle_command.html#abd0266fe718a56aae9fd137321772c0c" target="_top" xlink:title="backend.command.Specified\lTurtleCommand.specifiedTurtles">
<polygon fill="white" stroke="black" points="204,-0 204,-30 372,-30 372,-0 204,-0"/>
<text text-anchor="start" x="212" y="-18" font-family="Helvetica,sans-Serif" font-size="10.00">backend.command.Specified</text>
<text text-anchor="middle" x="288" y="-7" font-family="Helvetica,sans-Serif" font-size="10.00">TurtleCommand.specifiedTurtles</text>
</a>
</g>
</g>
<!-- Node1&#45;&gt;Node5 -->
<g id="edge4" class="edge"><title>Node1&#45;&gt;Node5</title>
<path fill="none" stroke="midnightblue" d="M128.831,-49.4527C151.98,-44.4103 181.103,-38.0666 208.03,-32.2013"/>
<polygon fill="midnightblue" stroke="midnightblue" points="208.81,-35.6136 217.836,-30.0654 207.32,-28.7739 208.81,-35.6136"/>
</g>
<!-- Node3 -->
<g id="node3" class="node"><title>Node3</title>
<g id="a_node3"><a xlink:href="../../d3/dac/classbackend_1_1_model.html#a341c789b1a3e0bf796fb626603928e95" target="_top" xlink:title="backend.Model.getGrid">
<polygon fill="white" stroke="black" points="683.5,-68.5 683.5,-87.5 810.5,-87.5 810.5,-68.5 683.5,-68.5"/>
<text text-anchor="middle" x="747" y="-75.5" font-family="Helvetica,sans-Serif" font-size="10.00">backend.Model.getGrid</text>
</a>
</g>
</g>
<!-- Node2&#45;&gt;Node3 -->
<g id="edge2" class="edge"><title>Node2&#45;&gt;Node3</title>
<path fill="none" stroke="midnightblue" d="M620.023,-78C637.986,-78 656.29,-78 673.178,-78"/>
<polygon fill="midnightblue" stroke="midnightblue" points="673.494,-81.5001 683.494,-78 673.494,-74.5001 673.494,-81.5001"/>
</g>
<!-- Node5&#45;&gt;Node2 -->
<g id="edge5" class="edge"><title>Node5&#45;&gt;Node2</title>
<path fill="none" stroke="midnightblue" d="M342.369,-30.01C381.166,-40.9216 433.034,-55.5096 469.363,-65.727"/>
<polygon fill="midnightblue" stroke="midnightblue" points="468.599,-69.1479 479.173,-68.4862 470.494,-62.4094 468.599,-69.1479"/>
</g>
<!-- Node6 -->
<g id="node6" class="node"><title>Node6</title>
<g id="a_node6"><a xlink:href="../../d4/d68/classbackend_1_1command_1_1_specified_turtle_command.html#ab25fb774fe75fbb22c36d33876d0abeb" target="_top" xlink:title="backend.command.Specified\lTurtleCommand.paramTurtleIds">
<polygon fill="white" stroke="black" points="431,-0 431,-30 597,-30 597,-0 431,-0"/>
<text text-anchor="start" x="439" y="-18" font-family="Helvetica,sans-Serif" font-size="10.00">backend.command.Specified</text>
<text text-anchor="middle" x="514" y="-7" font-family="Helvetica,sans-Serif" font-size="10.00">TurtleCommand.paramTurtleIds</text>
</a>
</g>
</g>
<!-- Node5&#45;&gt;Node6 -->
<g id="edge6" class="edge"><title>Node5&#45;&gt;Node6</title>
<path fill="none" stroke="midnightblue" d="M372.091,-15C387.82,-15 404.365,-15 420.367,-15"/>
<polygon fill="midnightblue" stroke="midnightblue" points="420.789,-18.5001 430.789,-15 420.789,-11.5001 420.789,-18.5001"/>
</g>
<!-- Node7 -->
<g id="node7" class="node"><title>Node7</title>
<g id="a_node7"><a xlink:href="../../dc/d83/classbackend_1_1command_1_1_command.html#a606032e5ef26d465113f65e6e3c09bef" target="_top" xlink:title="backend.command.Command.get\lParam">
<polygon fill="white" stroke="black" points="656.5,-0 656.5,-30 837.5,-30 837.5,-0 656.5,-0"/>
<text text-anchor="start" x="664.5" y="-18" font-family="Helvetica,sans-Serif" font-size="10.00">backend.command.Command.get</text>
<text text-anchor="middle" x="747" y="-7" font-family="Helvetica,sans-Serif" font-size="10.00">Param</text>
</a>
</g>
</g>
<!-- Node6&#45;&gt;Node7 -->
<g id="edge7" class="edge"><title>Node6&#45;&gt;Node7</title>
<path fill="none" stroke="midnightblue" d="M597.092,-15C612.986,-15 629.804,-15 646.192,-15"/>
<polygon fill="midnightblue" stroke="midnightblue" points="646.328,-18.5001 656.328,-15 646.328,-11.5001 646.328,-18.5001"/>
</g>
</g>
</svg>
