<?xml version="1.0" encoding="UTF-8" standalone="no"?>
<!DOCTYPE svg PUBLIC "-//W3C//DTD SVG 1.1//EN"
 "http://www.w3.org/Graphics/SVG/1.1/DTD/svg11.dtd">
<!-- Generated by graphviz version 2.36.0 (20140111.2315)
 -->
<!-- Title: backend.Turtle.rotateLeft Pages: 1 -->
<svg width="506pt" height="47pt"
 viewBox="0.00 0.00 506.00 47.00" xmlns="http://www.w3.org/2000/svg" xmlns:xlink="http://www.w3.org/1999/xlink">
<g id="graph0" class="graph" transform="scale(1 1) rotate(0) translate(4 43)">
<title>backend.Turtle.rotateLeft</title>
<polygon fill="white" stroke="none" points="-4,4 -4,-43 502,-43 502,4 -4,4"/>
<!-- Node1 -->
<g id="node1" class="node"><title>Node1</title>
<polygon fill="#bfbfbf" stroke="black" points="0,-19.5 0,-38.5 136,-38.5 136,-19.5 0,-19.5"/>
<text text-anchor="middle" x="68" y="-26.5" font-family="Helvetica,sans-Serif" font-size="10.00">backend.Turtle.rotateLeft</text>
</g>
<!-- Node2 -->
<g id="node2" class="node"><title>Node2</title>
<g id="a_node2"><a xlink:href="../../d8/d98/classbackend_1_1_heading.html#a184d1ef92b62ea73e6edc57e07d3c0d4" target="_top" xlink:title="backend.Heading.getAngle">
<polygon fill="white" stroke="black" points="352,-19.5 352,-38.5 498,-38.5 498,-19.5 352,-19.5"/>
<text text-anchor="middle" x="425" y="-26.5" font-family="Helvetica,sans-Serif" font-size="10.00">backend.Heading.getAngle</text>
</a>
</g>
</g>
<!-- Node1&#45;&gt;Node2 -->
<g id="edge1" class="edge"><title>Node1&#45;&gt;Node2</title>
<path fill="none" stroke="midnightblue" d="M136.19,-29C194.551,-29 279.272,-29 341.691,-29"/>
<polygon fill="midnightblue" stroke="midnightblue" points="341.899,-32.5001 351.899,-29 341.899,-25.5001 341.899,-32.5001"/>
</g>
<!-- Node3 -->
<g id="node3" class="node"><title>Node3</title>
<g id="a_node3"><a xlink:href="../../df/de2/classbackend_1_1_turtle.html#a05bda1daddb116c72fb4e62e87d6c88b" target="_top" xlink:title="backend.Turtle.setHeading">
<polygon fill="white" stroke="black" points="172.5,-0.5 172.5,-19.5 315.5,-19.5 315.5,-0.5 172.5,-0.5"/>
<text text-anchor="middle" x="244" y="-7.5" font-family="Helvetica,sans-Serif" font-size="10.00">backend.Turtle.setHeading</text>
</a>
</g>
</g>
<!-- Node1&#45;&gt;Node3 -->
<g id="edge2" class="edge"><title>Node1&#45;&gt;Node3</title>
<path fill="none" stroke="midnightblue" d="M136.273,-21.6541C144.796,-20.7234 153.586,-19.7636 162.291,-18.813"/>
<polygon fill="midnightblue" stroke="midnightblue" points="162.89,-22.2685 172.451,-17.7036 162.13,-15.3099 162.89,-22.2685"/>
</g>
<!-- Node3&#45;&gt;Node2 -->
<g id="edge3" class="edge"><title>Node3&#45;&gt;Node2</title>
<path fill="none" stroke="midnightblue" d="M315.746,-17.5093C324.244,-18.4114 332.979,-19.3386 341.625,-20.2563"/>
<polygon fill="midnightblue" stroke="midnightblue" points="341.4,-23.752 351.714,-21.3272 342.139,-16.7911 341.4,-23.752"/>
</g>
</g>
</svg>
