<?xml version="1.0" encoding="UTF-8" standalone="no"?>
<!DOCTYPE svg PUBLIC "-//W3C//DTD SVG 1.1//EN"
 "http://www.w3.org/Graphics/SVG/1.1/DTD/svg11.dtd">
<!-- Generated by graphviz version 2.36.0 (20140111.2315)
 -->
<!-- Title: backend.Turtle.getID Pages: 1 -->
<svg width="460pt" height="66pt"
 viewBox="0.00 0.00 460.00 66.00" xmlns="http://www.w3.org/2000/svg" xmlns:xlink="http://www.w3.org/1999/xlink">
<g id="graph0" class="graph" transform="scale(1 1) rotate(0) translate(4 62)">
<title>backend.Turtle.getID</title>
<polygon fill="white" stroke="none" points="-4,4 -4,-62 456,-62 456,4 -4,4"/>
<!-- Node1 -->
<g id="node1" class="node"><title>Node1</title>
<polygon fill="#bfbfbf" stroke="black" points="0,-19.5 0,-38.5 114,-38.5 114,-19.5 0,-19.5"/>
<text text-anchor="middle" x="57" y="-26.5" font-family="Helvetica,sans-Serif" font-size="10.00">backend.Turtle.getID</text>
</g>
<!-- Node2 -->
<g id="node2" class="node"><title>Node2</title>
<g id="a_node2"><a xlink:href="../../d1/d68/classbackend_1_1_grid.html#a06d80c5bd9154d1bcd6b0fb3fb8612b8" target="_top" xlink:title="backend.Grid.addTurtle">
<polygon fill="white" stroke="black" points="169,-38.5 169,-57.5 295,-57.5 295,-38.5 169,-38.5"/>
<text text-anchor="middle" x="232" y="-45.5" font-family="Helvetica,sans-Serif" font-size="10.00">backend.Grid.addTurtle</text>
</a>
</g>
</g>
<!-- Node1&#45;&gt;Node2 -->
<g id="edge1" class="edge"><title>Node1&#45;&gt;Node2</title>
<path fill="none" stroke="midnightblue" d="M124.168,-36.267C138.835,-37.8779 154.329,-39.5795 168.83,-41.1721"/>
<polygon fill="midnightblue" stroke="midnightblue" points="124.491,-32.7815 114.168,-35.1688 123.726,-39.7396 124.491,-32.7815"/>
</g>
<!-- Node4 -->
<g id="node4" class="node"><title>Node4</title>
<g id="a_node4"><a xlink:href="../../d7/dae/classbackend_1_1command_1_1_i_d.html#a2b6769e91fa514a8d489fd87318147fe" target="_top" xlink:title="backend.command.ID.execute">
<polygon fill="white" stroke="black" points="150.5,-0.5 150.5,-19.5 313.5,-19.5 313.5,-0.5 150.5,-0.5"/>
<text text-anchor="middle" x="232" y="-7.5" font-family="Helvetica,sans-Serif" font-size="10.00">backend.command.ID.execute</text>
</a>
</g>
</g>
<!-- Node1&#45;&gt;Node4 -->
<g id="edge3" class="edge"><title>Node1&#45;&gt;Node4</title>
<path fill="none" stroke="midnightblue" d="M124.362,-21.7117C132.849,-20.7796 141.611,-19.8173 150.294,-18.8637"/>
<polygon fill="midnightblue" stroke="midnightblue" points="123.726,-18.2604 114.168,-22.8312 124.49,-25.2185 123.726,-18.2604"/>
</g>
<!-- Node3 -->
<g id="node3" class="node"><title>Node3</title>
<g id="a_node3"><a xlink:href="../../d1/d68/classbackend_1_1_grid.html#a7699c5ee5052cae0704d9f72d67d1ad9" target="_top" xlink:title="backend.Grid.Grid">
<polygon fill="white" stroke="black" points="350,-38.5 350,-57.5 452,-57.5 452,-38.5 350,-38.5"/>
<text text-anchor="middle" x="401" y="-45.5" font-family="Helvetica,sans-Serif" font-size="10.00">backend.Grid.Grid</text>
</a>
</g>
</g>
<!-- Node2&#45;&gt;Node3 -->
<g id="edge2" class="edge"><title>Node2&#45;&gt;Node3</title>
<path fill="none" stroke="midnightblue" d="M305.429,-48C320.374,-48 335.799,-48 349.746,-48"/>
<polygon fill="midnightblue" stroke="midnightblue" points="305.185,-44.5001 295.185,-48 305.185,-51.5001 305.185,-44.5001"/>
</g>
</g>
</svg>
