<?xml version="1.0" encoding="UTF-8" standalone="no"?>
<!DOCTYPE svg PUBLIC "-//W3C//DTD SVG 1.1//EN"
 "http://www.w3.org/Graphics/SVG/1.1/DTD/svg11.dtd">
<!-- Generated by graphviz version 2.36.0 (20140111.2315)
 -->
<!-- Title: backend.Turtle.setPenDown Pages: 1 -->
<svg width="466pt" height="28pt"
 viewBox="0.00 0.00 466.00 28.00" xmlns="http://www.w3.org/2000/svg" xmlns:xlink="http://www.w3.org/1999/xlink">
<g id="graph0" class="graph" transform="scale(1 1) rotate(0) translate(4 24)">
<title>backend.Turtle.setPenDown</title>
<polygon fill="white" stroke="none" points="-4,4 -4,-24 462,-24 462,4 -4,4"/>
<!-- Node1 -->
<g id="node1" class="node"><title>Node1</title>
<polygon fill="#bfbfbf" stroke="black" points="0,-0.5 0,-19.5 148,-19.5 148,-0.5 0,-0.5"/>
<text text-anchor="middle" x="74" y="-7.5" font-family="Helvetica,sans-Serif" font-size="10.00">backend.Turtle.setPenDown</text>
</g>
<!-- Node2 -->
<g id="node2" class="node"><title>Node2</title>
<g id="a_node2"><a xlink:href="../../de/dc9/classbackend_1_1_pen.html#a75748f196e519d6d7cbed599f3617d71" target="_top" xlink:title="backend.Pen.setDown">
<polygon fill="white" stroke="black" points="184,-0.5 184,-19.5 306,-19.5 306,-0.5 184,-0.5"/>
<text text-anchor="middle" x="245" y="-7.5" font-family="Helvetica,sans-Serif" font-size="10.00">backend.Pen.setDown</text>
</a>
</g>
</g>
<!-- Node1&#45;&gt;Node2 -->
<g id="edge1" class="edge"><title>Node1&#45;&gt;Node2</title>
<path fill="none" stroke="midnightblue" d="M148.143,-10C156.641,-10 165.296,-10 173.754,-10"/>
<polygon fill="midnightblue" stroke="midnightblue" points="173.95,-13.5001 183.95,-10 173.95,-6.5001 173.95,-13.5001"/>
</g>
<!-- Node3 -->
<g id="node3" class="node"><title>Node3</title>
<g id="a_node3"><a xlink:href="../../de/dc9/classbackend_1_1_pen.html#abfd32c7785accc4f570322aa0b29f650" target="_top" xlink:title="backend.Pen.isDown">
<polygon fill="white" stroke="black" points="342.5,-0.5 342.5,-19.5 457.5,-19.5 457.5,-0.5 342.5,-0.5"/>
<text text-anchor="middle" x="400" y="-7.5" font-family="Helvetica,sans-Serif" font-size="10.00">backend.Pen.isDown</text>
</a>
</g>
</g>
<!-- Node2&#45;&gt;Node3 -->
<g id="edge2" class="edge"><title>Node2&#45;&gt;Node3</title>
<path fill="none" stroke="midnightblue" d="M306.031,-10C314.575,-10 323.407,-10 332.073,-10"/>
<polygon fill="midnightblue" stroke="midnightblue" points="332.142,-13.5001 342.142,-10 332.142,-6.5001 332.142,-13.5001"/>
</g>
</g>
</svg>
