<?xml version="1.0" encoding="UTF-8" standalone="no"?>
<!DOCTYPE svg PUBLIC "-//W3C//DTD SVG 1.1//EN"
 "http://www.w3.org/Graphics/SVG/1.1/DTD/svg11.dtd">
<!-- Generated by graphviz version 2.36.0 (20140111.2315)
 -->
<!-- Title: backend.Turtle.setHeading Pages: 1 -->
<svg width="642pt" height="142pt"
 viewBox="0.00 0.00 642.00 142.00" xmlns="http://www.w3.org/2000/svg" xmlns:xlink="http://www.w3.org/1999/xlink">
<g id="graph0" class="graph" transform="scale(1 1) rotate(0) translate(4 138)">
<title>backend.Turtle.setHeading</title>
<polygon fill="white" stroke="none" points="-4,4 -4,-138 638,-138 638,4 -4,4"/>
<!-- Node1 -->
<g id="node1" class="node"><title>Node1</title>
<polygon fill="#bfbfbf" stroke="black" points="0.5,-57.5 0.5,-76.5 143.5,-76.5 143.5,-57.5 0.5,-57.5"/>
<text text-anchor="middle" x="72" y="-64.5" font-family="Helvetica,sans-Serif" font-size="10.00">backend.Turtle.setHeading</text>
</g>
<!-- Node2 -->
<g id="node2" class="node"><title>Node2</title>
<g id="a_node2"><a xlink:href="../../d8/d92/classbackend_1_1command_1_1_set_heading.html#aae201c4671003d1ad516dfd4886db55d" target="_top" xlink:title="backend.command.SetHeading.execute">
<polygon fill="white" stroke="black" points="180.5,-114.5 180.5,-133.5 389.5,-133.5 389.5,-114.5 180.5,-114.5"/>
<text text-anchor="middle" x="285" y="-121.5" font-family="Helvetica,sans-Serif" font-size="10.00">backend.command.SetHeading.execute</text>
</a>
</g>
</g>
<!-- Node1&#45;&gt;Node2 -->
<g id="edge1" class="edge"><title>Node1&#45;&gt;Node2</title>
<path fill="none" stroke="midnightblue" d="M105.85,-80.2122C126.801,-88.2509 154.68,-98.2379 180,-105 193.654,-108.647 208.504,-111.818 222.594,-114.471"/>
<polygon fill="midnightblue" stroke="midnightblue" points="107.043,-76.921 96.4547,-76.56 104.507,-83.4454 107.043,-76.921"/>
</g>
<!-- Node3 -->
<g id="node3" class="node"><title>Node3</title>
<g id="a_node3"><a xlink:href="../../df/de2/classbackend_1_1_turtle.html#a15c8fa47008e482e5d40b4310d2bf8e7" target="_top" xlink:title="backend.Turtle.faceTowards">
<polygon fill="white" stroke="black" points="212,-76.5 212,-95.5 358,-95.5 358,-76.5 212,-76.5"/>
<text text-anchor="middle" x="285" y="-83.5" font-family="Helvetica,sans-Serif" font-size="10.00">backend.Turtle.faceTowards</text>
</a>
</g>
</g>
<!-- Node1&#45;&gt;Node3 -->
<g id="edge2" class="edge"><title>Node1&#45;&gt;Node3</title>
<path fill="none" stroke="midnightblue" d="M153.716,-74.2682C172.799,-75.9866 193.029,-77.8083 211.712,-79.4906"/>
<polygon fill="midnightblue" stroke="midnightblue" points="153.827,-70.7642 143.553,-73.3531 153.199,-77.736 153.827,-70.7642"/>
</g>
<!-- Node5 -->
<g id="node5" class="node"><title>Node5</title>
<g id="a_node5"><a xlink:href="../../df/de2/classbackend_1_1_turtle.html#a382a75a93f59498cf7605d2c394ca531" target="_top" xlink:title="backend.Turtle.rotateLeft">
<polygon fill="white" stroke="black" points="217,-38.5 217,-57.5 353,-57.5 353,-38.5 217,-38.5"/>
<text text-anchor="middle" x="285" y="-45.5" font-family="Helvetica,sans-Serif" font-size="10.00">backend.Turtle.rotateLeft</text>
</a>
</g>
</g>
<!-- Node1&#45;&gt;Node5 -->
<g id="edge4" class="edge"><title>Node1&#45;&gt;Node5</title>
<path fill="none" stroke="midnightblue" d="M153.651,-59.7376C174.475,-57.8624 196.669,-55.8639 216.73,-54.0575"/>
<polygon fill="midnightblue" stroke="midnightblue" points="153.199,-56.264 143.553,-60.6469 153.827,-63.2358 153.199,-56.264"/>
</g>
<!-- Node7 -->
<g id="node7" class="node"><title>Node7</title>
<g id="a_node7"><a xlink:href="../../df/de2/classbackend_1_1_turtle.html#a9ef2c2fdb902135f0f2c26045c160677" target="_top" xlink:title="backend.Turtle.rotateRight">
<polygon fill="white" stroke="black" points="214,-0.5 214,-19.5 356,-19.5 356,-0.5 214,-0.5"/>
<text text-anchor="middle" x="285" y="-7.5" font-family="Helvetica,sans-Serif" font-size="10.00">backend.Turtle.rotateRight</text>
</a>
</g>
</g>
<!-- Node1&#45;&gt;Node7 -->
<g id="edge6" class="edge"><title>Node1&#45;&gt;Node7</title>
<path fill="none" stroke="midnightblue" d="M105.85,-53.7878C126.801,-45.7491 154.68,-35.7621 180,-29 193.654,-25.3534 208.504,-22.1816 222.594,-19.5288"/>
<polygon fill="midnightblue" stroke="midnightblue" points="104.507,-50.5546 96.4547,-57.44 107.043,-57.079 104.507,-50.5546"/>
</g>
<!-- Node4 -->
<g id="node4" class="node"><title>Node4</title>
<g id="a_node4"><a xlink:href="../../d7/d1a/classbackend_1_1command_1_1_set_towards.html#ae10f8bb4a72bf22814c7ecd1fe14459d" target="_top" xlink:title="backend.command.SetTowards.execute">
<polygon fill="white" stroke="black" points="426.5,-76.5 426.5,-95.5 633.5,-95.5 633.5,-76.5 426.5,-76.5"/>
<text text-anchor="middle" x="530" y="-83.5" font-family="Helvetica,sans-Serif" font-size="10.00">backend.command.SetTowards.execute</text>
</a>
</g>
</g>
<!-- Node3&#45;&gt;Node4 -->
<g id="edge3" class="edge"><title>Node3&#45;&gt;Node4</title>
<path fill="none" stroke="midnightblue" d="M368.451,-86C387.089,-86 407.099,-86 426.451,-86"/>
<polygon fill="midnightblue" stroke="midnightblue" points="368.25,-82.5001 358.25,-86 368.25,-89.5001 368.25,-82.5001"/>
</g>
<!-- Node6 -->
<g id="node6" class="node"><title>Node6</title>
<g id="a_node6"><a xlink:href="../../d1/d93/classbackend_1_1command_1_1_left.html#a06ab89eec275560592d65c8eaf3fc61c" target="_top" xlink:title="backend.command.Left.execute">
<polygon fill="white" stroke="black" points="444.5,-38.5 444.5,-57.5 615.5,-57.5 615.5,-38.5 444.5,-38.5"/>
<text text-anchor="middle" x="530" y="-45.5" font-family="Helvetica,sans-Serif" font-size="10.00">backend.command.Left.execute</text>
</a>
</g>
</g>
<!-- Node5&#45;&gt;Node6 -->
<g id="edge5" class="edge"><title>Node5&#45;&gt;Node6</title>
<path fill="none" stroke="midnightblue" d="M363.162,-48C389.013,-48 417.969,-48 444.361,-48"/>
<polygon fill="midnightblue" stroke="midnightblue" points="363.044,-44.5001 353.044,-48 363.044,-51.5001 363.044,-44.5001"/>
</g>
<!-- Node8 -->
<g id="node8" class="node"><title>Node8</title>
<g id="a_node8"><a xlink:href="../../d6/dcb/classbackend_1_1command_1_1_right.html#acdc2fa5040cde9b0ffabb1013a7dda38" target="_top" xlink:title="backend.command.Right.execute">
<polygon fill="white" stroke="black" points="441.5,-0.5 441.5,-19.5 618.5,-19.5 618.5,-0.5 441.5,-0.5"/>
<text text-anchor="middle" x="530" y="-7.5" font-family="Helvetica,sans-Serif" font-size="10.00">backend.command.Right.execute</text>
</a>
</g>
</g>
<!-- Node7&#45;&gt;Node8 -->
<g id="edge7" class="edge"><title>Node7&#45;&gt;Node8</title>
<path fill="none" stroke="midnightblue" d="M366.394,-10C390.355,-10 416.734,-10 441.145,-10"/>
<polygon fill="midnightblue" stroke="midnightblue" points="366.286,-6.5001 356.286,-10 366.286,-13.5001 366.286,-6.5001"/>
</g>
</g>
</svg>
