<?xml version="1.0" encoding="UTF-8" standalone="no"?>
<!DOCTYPE svg PUBLIC "-//W3C//DTD SVG 1.1//EN"
 "http://www.w3.org/Graphics/SVG/1.1/DTD/svg11.dtd">
<!-- Generated by graphviz version 2.36.0 (20140111.2315)
 -->
<!-- Title: backend.Turtle.getPen Pages: 1 -->
<svg width="378pt" height="104pt"
 viewBox="0.00 0.00 378.00 104.00" xmlns="http://www.w3.org/2000/svg" xmlns:xlink="http://www.w3.org/1999/xlink">
<g id="graph0" class="graph" transform="scale(1 1) rotate(0) translate(4 100)">
<title>backend.Turtle.getPen</title>
<polygon fill="white" stroke="none" points="-4,4 -4,-100 374,-100 374,4 -4,4"/>
<!-- Node1 -->
<g id="node1" class="node"><title>Node1</title>
<polygon fill="#bfbfbf" stroke="black" points="0,-38.5 0,-57.5 122,-57.5 122,-38.5 0,-38.5"/>
<text text-anchor="middle" x="61" y="-45.5" font-family="Helvetica,sans-Serif" font-size="10.00">backend.Turtle.getPen</text>
</g>
<!-- Node2 -->
<g id="node2" class="node"><title>Node2</title>
<g id="a_node2"><a xlink:href="../../d9/d61/classbackend_1_1command_1_1_get_pen_color.html#a51ab64bb7cf54b848f05198278a3b20f" target="_top" xlink:title="backend.command.GetPenColor.execute">
<polygon fill="white" stroke="black" points="158,-76.5 158,-95.5 370,-95.5 370,-76.5 158,-76.5"/>
<text text-anchor="middle" x="264" y="-83.5" font-family="Helvetica,sans-Serif" font-size="10.00">backend.command.GetPenColor.execute</text>
</a>
</g>
</g>
<!-- Node1&#45;&gt;Node2 -->
<g id="edge1" class="edge"><title>Node1&#45;&gt;Node2</title>
<path fill="none" stroke="midnightblue" d="M119.353,-59.5106C132.07,-62.0185 145.487,-64.6297 158,-67 174.654,-70.1547 192.817,-73.4815 209.283,-76.4545"/>
<polygon fill="midnightblue" stroke="midnightblue" points="119.823,-56.0359 109.334,-57.5281 118.464,-62.9027 119.823,-56.0359"/>
</g>
<!-- Node3 -->
<g id="node3" class="node"><title>Node3</title>
<g id="a_node3"><a xlink:href="../../d8/d3e/classbackend_1_1command_1_1_set_pen_size.html#abeaea63d9ee389a2f90055b25c8cd7ad" target="_top" xlink:title="backend.command.SetPenSize.execute">
<polygon fill="white" stroke="black" points="160,-38.5 160,-57.5 368,-57.5 368,-38.5 160,-38.5"/>
<text text-anchor="middle" x="264" y="-45.5" font-family="Helvetica,sans-Serif" font-size="10.00">backend.command.SetPenSize.execute</text>
</a>
</g>
</g>
<!-- Node1&#45;&gt;Node3 -->
<g id="edge2" class="edge"><title>Node1&#45;&gt;Node3</title>
<path fill="none" stroke="midnightblue" d="M132.285,-48C141.169,-48 150.4,-48 159.664,-48"/>
<polygon fill="midnightblue" stroke="midnightblue" points="132.034,-44.5001 122.034,-48 132.034,-51.5001 132.034,-44.5001"/>
</g>
<!-- Node4 -->
<g id="node4" class="node"><title>Node4</title>
<g id="a_node4"><a xlink:href="../../df/df8/classbackend_1_1command_1_1_set_pen_color.html#ae59f12abe2013dd21d4090d7c94c669d" target="_top" xlink:title="backend.command.SetPenColor.execute">
<polygon fill="white" stroke="black" points="158,-0.5 158,-19.5 370,-19.5 370,-0.5 158,-0.5"/>
<text text-anchor="middle" x="264" y="-7.5" font-family="Helvetica,sans-Serif" font-size="10.00">backend.command.SetPenColor.execute</text>
</a>
</g>
</g>
<!-- Node1&#45;&gt;Node4 -->
<g id="edge3" class="edge"><title>Node1&#45;&gt;Node4</title>
<path fill="none" stroke="midnightblue" d="M119.353,-36.4894C132.07,-33.9815 145.487,-31.3703 158,-29 174.654,-25.8453 192.817,-22.5185 209.283,-19.5455"/>
<polygon fill="midnightblue" stroke="midnightblue" points="118.464,-33.0973 109.334,-38.4719 119.823,-39.9641 118.464,-33.0973"/>
</g>
</g>
</svg>
