<?xml version="1.0" encoding="UTF-8" standalone="no"?>
<!DOCTYPE svg PUBLIC "-//W3C//DTD SVG 1.1//EN"
 "http://www.w3.org/Graphics/SVG/1.1/DTD/svg11.dtd">
<!-- Generated by graphviz version 2.36.0 (20140111.2315)
 -->
<!-- Title: backend.Turtle.rotateRight Pages: 1 -->
<svg width="512pt" height="47pt"
 viewBox="0.00 0.00 512.00 47.00" xmlns="http://www.w3.org/2000/svg" xmlns:xlink="http://www.w3.org/1999/xlink">
<g id="graph0" class="graph" transform="scale(1 1) rotate(0) translate(4 43)">
<title>backend.Turtle.rotateRight</title>
<polygon fill="white" stroke="none" points="-4,4 -4,-43 508,-43 508,4 -4,4"/>
<!-- Node1 -->
<g id="node1" class="node"><title>Node1</title>
<polygon fill="#bfbfbf" stroke="black" points="0,-19.5 0,-38.5 142,-38.5 142,-19.5 0,-19.5"/>
<text text-anchor="middle" x="71" y="-26.5" font-family="Helvetica,sans-Serif" font-size="10.00">backend.Turtle.rotateRight</text>
</g>
<!-- Node2 -->
<g id="node2" class="node"><title>Node2</title>
<g id="a_node2"><a xlink:href="../../d8/d98/classbackend_1_1_heading.html#a184d1ef92b62ea73e6edc57e07d3c0d4" target="_top" xlink:title="backend.Heading.getAngle">
<polygon fill="white" stroke="black" points="358,-19.5 358,-38.5 504,-38.5 504,-19.5 358,-19.5"/>
<text text-anchor="middle" x="431" y="-26.5" font-family="Helvetica,sans-Serif" font-size="10.00">backend.Heading.getAngle</text>
</a>
</g>
</g>
<!-- Node1&#45;&gt;Node2 -->
<g id="edge1" class="edge"><title>Node1&#45;&gt;Node2</title>
<path fill="none" stroke="midnightblue" d="M142.302,-29C201.231,-29 285.455,-29 347.554,-29"/>
<polygon fill="midnightblue" stroke="midnightblue" points="347.711,-32.5001 357.711,-29 347.711,-25.5001 347.711,-32.5001"/>
</g>
<!-- Node3 -->
<g id="node3" class="node"><title>Node3</title>
<g id="a_node3"><a xlink:href="../../df/de2/classbackend_1_1_turtle.html#a05bda1daddb116c72fb4e62e87d6c88b" target="_top" xlink:title="backend.Turtle.setHeading">
<polygon fill="white" stroke="black" points="178.5,-0.5 178.5,-19.5 321.5,-19.5 321.5,-0.5 178.5,-0.5"/>
<text text-anchor="middle" x="250" y="-7.5" font-family="Helvetica,sans-Serif" font-size="10.00">backend.Turtle.setHeading</text>
</a>
</g>
</g>
<!-- Node1&#45;&gt;Node3 -->
<g id="edge2" class="edge"><title>Node1&#45;&gt;Node3</title>
<path fill="none" stroke="midnightblue" d="M142.209,-21.4634C150.742,-20.5475 159.512,-19.606 168.183,-18.6753"/>
<polygon fill="midnightblue" stroke="midnightblue" points="168.727,-22.1371 178.296,-17.5897 167.98,-15.1771 168.727,-22.1371"/>
</g>
<!-- Node3&#45;&gt;Node2 -->
<g id="edge3" class="edge"><title>Node3&#45;&gt;Node2</title>
<path fill="none" stroke="midnightblue" d="M321.746,-17.5093C330.244,-18.4114 338.979,-19.3386 347.625,-20.2563"/>
<polygon fill="midnightblue" stroke="midnightblue" points="347.4,-23.752 357.714,-21.3272 348.139,-16.7911 347.4,-23.752"/>
</g>
</g>
</svg>
