<?xml version="1.0" encoding="UTF-8" standalone="no"?>
<!DOCTYPE svg PUBLIC "-//W3C//DTD SVG 1.1//EN"
 "http://www.w3.org/Graphics/SVG/1.1/DTD/svg11.dtd">
<!-- Generated by graphviz version 2.36.0 (20140111.2315)
 -->
<!-- Title: backend.Turtle.moveToPoint Pages: 1 -->
<svg width="638pt" height="123pt"
 viewBox="0.00 0.00 638.00 123.00" xmlns="http://www.w3.org/2000/svg" xmlns:xlink="http://www.w3.org/1999/xlink">
<g id="graph0" class="graph" transform="scale(1 1) rotate(0) translate(4 119)">
<title>backend.Turtle.moveToPoint</title>
<polygon fill="white" stroke="none" points="-4,4 -4,-119 634,-119 634,4 -4,4"/>
<!-- Node1 -->
<g id="node1" class="node"><title>Node1</title>
<polygon fill="#bfbfbf" stroke="black" points="0.5,-57.5 0.5,-76.5 149.5,-76.5 149.5,-57.5 0.5,-57.5"/>
<text text-anchor="middle" x="75" y="-64.5" font-family="Helvetica,sans-Serif" font-size="10.00">backend.Turtle.moveToPoint</text>
</g>
<!-- Node2 -->
<g id="node2" class="node"><title>Node2</title>
<g id="a_node2"><a xlink:href="../../d5/db7/classbackend_1_1command_1_1_set_position.html#ad352a4e88e36db0d2360299d1d0f54ec" target="_top" xlink:title="backend.command.SetPosition.execute">
<polygon fill="white" stroke="black" points="186.5,-95.5 186.5,-114.5 393.5,-114.5 393.5,-95.5 186.5,-95.5"/>
<text text-anchor="middle" x="290" y="-102.5" font-family="Helvetica,sans-Serif" font-size="10.00">backend.command.SetPosition.execute</text>
</a>
</g>
</g>
<!-- Node1&#45;&gt;Node2 -->
<g id="edge1" class="edge"><title>Node1&#45;&gt;Node2</title>
<path fill="none" stroke="midnightblue" d="M139.603,-78.347C170.163,-83.7991 206.382,-90.2607 235.504,-95.4561"/>
<polygon fill="midnightblue" stroke="midnightblue" points="139.933,-74.8507 129.474,-76.54 138.704,-81.7419 139.933,-74.8507"/>
</g>
<!-- Node3 -->
<g id="node3" class="node"><title>Node3</title>
<g id="a_node3"><a xlink:href="../../df/d00/classbackend_1_1command_1_1_home.html#adcadf9a1ca80334c0def5dd86ae1a6dc" target="_top" xlink:title="backend.command.Home.execute">
<polygon fill="white" stroke="black" points="199,-57.5 199,-76.5 381,-76.5 381,-57.5 199,-57.5"/>
<text text-anchor="middle" x="290" y="-64.5" font-family="Helvetica,sans-Serif" font-size="10.00">backend.command.Home.execute</text>
</a>
</g>
</g>
<!-- Node1&#45;&gt;Node3 -->
<g id="edge2" class="edge"><title>Node1&#45;&gt;Node3</title>
<path fill="none" stroke="midnightblue" d="M159.774,-67C172.602,-67 185.891,-67 198.85,-67"/>
<polygon fill="midnightblue" stroke="midnightblue" points="159.601,-63.5001 149.601,-67 159.601,-70.5001 159.601,-63.5001"/>
</g>
<!-- Node4 -->
<g id="node4" class="node"><title>Node4</title>
<g id="a_node4"><a xlink:href="../../df/de2/classbackend_1_1_turtle.html#a1b45c4ecc2d7cd43cd947fdf9429305b" target="_top" xlink:title="backend.Turtle.move">
<polygon fill="white" stroke="black" points="232,-19.5 232,-38.5 348,-38.5 348,-19.5 232,-19.5"/>
<text text-anchor="middle" x="290" y="-26.5" font-family="Helvetica,sans-Serif" font-size="10.00">backend.Turtle.move</text>
</a>
</g>
</g>
<!-- Node1&#45;&gt;Node4 -->
<g id="edge3" class="edge"><title>Node1&#45;&gt;Node4</title>
<path fill="none" stroke="midnightblue" d="M139.603,-55.653C170.163,-50.2009 206.382,-43.7393 235.504,-38.5439"/>
<polygon fill="midnightblue" stroke="midnightblue" points="138.704,-52.2581 129.474,-57.46 139.933,-59.1493 138.704,-52.2581"/>
</g>
<!-- Node5 -->
<g id="node5" class="node"><title>Node5</title>
<g id="a_node5"><a xlink:href="../../dc/d25/classbackend_1_1command_1_1_backward.html#a8555647247f244625e7e60bc10753202" target="_top" xlink:title="backend.command.Backward.execute">
<polygon fill="white" stroke="black" points="430.5,-38.5 430.5,-57.5 629.5,-57.5 629.5,-38.5 430.5,-38.5"/>
<text text-anchor="middle" x="530" y="-45.5" font-family="Helvetica,sans-Serif" font-size="10.00">backend.command.Backward.execute</text>
</a>
</g>
</g>
<!-- Node4&#45;&gt;Node5 -->
<g id="edge4" class="edge"><title>Node4&#45;&gt;Node5</title>
<path fill="none" stroke="midnightblue" d="M358.06,-34.3535C380.439,-36.1401 405.867,-38.1701 430.144,-40.1081"/>
<polygon fill="midnightblue" stroke="midnightblue" points="358.254,-30.858 348.007,-33.551 357.697,-37.8358 358.254,-30.858"/>
</g>
<!-- Node6 -->
<g id="node6" class="node"><title>Node6</title>
<g id="a_node6"><a xlink:href="../../d8/d49/classbackend_1_1command_1_1_forward.html#a007c0c9940ad2e960dfd044388fcee0f" target="_top" xlink:title="backend.command.Forward.execute">
<polygon fill="white" stroke="black" points="434.5,-0.5 434.5,-19.5 625.5,-19.5 625.5,-0.5 434.5,-0.5"/>
<text text-anchor="middle" x="530" y="-7.5" font-family="Helvetica,sans-Serif" font-size="10.00">backend.command.Forward.execute</text>
</a>
</g>
</g>
<!-- Node4&#45;&gt;Node6 -->
<g id="edge5" class="edge"><title>Node4&#45;&gt;Node6</title>
<path fill="none" stroke="midnightblue" d="M358.259,-23.6306C381.888,-21.7442 408.898,-19.588 434.354,-17.5558"/>
<polygon fill="midnightblue" stroke="midnightblue" points="357.697,-20.1642 348.007,-24.449 358.254,-27.142 357.697,-20.1642"/>
</g>
</g>
</svg>
