<?xml version="1.0" encoding="UTF-8" standalone="no"?>
<!DOCTYPE svg PUBLIC "-//W3C//DTD SVG 1.1//EN"
 "http://www.w3.org/Graphics/SVG/1.1/DTD/svg11.dtd">
<!-- Generated by graphviz version 2.36.0 (20140111.2315)
 -->
<!-- Title: backend.Turtle.getLocation Pages: 1 -->
<svg width="402pt" height="66pt"
 viewBox="0.00 0.00 402.00 66.00" xmlns="http://www.w3.org/2000/svg" xmlns:xlink="http://www.w3.org/1999/xlink">
<g id="graph0" class="graph" transform="scale(1 1) rotate(0) translate(4 62)">
<title>backend.Turtle.getLocation</title>
<polygon fill="white" stroke="none" points="-4,4 -4,-62 398,-62 398,4 -4,4"/>
<!-- Node1 -->
<g id="node1" class="node"><title>Node1</title>
<polygon fill="#bfbfbf" stroke="black" points="0.5,-19.5 0.5,-38.5 145.5,-38.5 145.5,-19.5 0.5,-19.5"/>
<text text-anchor="middle" x="73" y="-26.5" font-family="Helvetica,sans-Serif" font-size="10.00">backend.Turtle.getLocation</text>
</g>
<!-- Node2 -->
<g id="node2" class="node"><title>Node2</title>
<g id="a_node2"><a xlink:href="../../d5/d68/classbackend_1_1command_1_1_x_coordinate.html#acfde8a1fd8df233dd5b0e67fa8415d01" target="_top" xlink:title="backend.command.XCoordinate.execute">
<polygon fill="white" stroke="black" points="182.5,-38.5 182.5,-57.5 393.5,-57.5 393.5,-38.5 182.5,-38.5"/>
<text text-anchor="middle" x="288" y="-45.5" font-family="Helvetica,sans-Serif" font-size="10.00">backend.command.XCoordinate.execute</text>
</a>
</g>
</g>
<!-- Node1&#45;&gt;Node2 -->
<g id="edge1" class="edge"><title>Node1&#45;&gt;Node2</title>
<path fill="none" stroke="midnightblue" d="M155.651,-36.2834C164.387,-37.0627 173.36,-37.8631 182.316,-38.662"/>
<polygon fill="midnightblue" stroke="midnightblue" points="155.79,-32.782 145.518,-35.3796 155.168,-39.7543 155.79,-32.782"/>
</g>
<!-- Node3 -->
<g id="node3" class="node"><title>Node3</title>
<g id="a_node3"><a xlink:href="../../d4/da7/classbackend_1_1command_1_1_y_coordinate.html#a4075d22a2158ba213ebd64887d38221c" target="_top" xlink:title="backend.command.YCoordinate.execute">
<polygon fill="white" stroke="black" points="183,-0.5 183,-19.5 393,-19.5 393,-0.5 183,-0.5"/>
<text text-anchor="middle" x="288" y="-7.5" font-family="Helvetica,sans-Serif" font-size="10.00">backend.command.YCoordinate.execute</text>
</a>
</g>
</g>
<!-- Node1&#45;&gt;Node3 -->
<g id="edge2" class="edge"><title>Node1&#45;&gt;Node3</title>
<path fill="none" stroke="midnightblue" d="M155.755,-21.7073C164.583,-20.9198 173.651,-20.111 182.697,-19.304"/>
<polygon fill="midnightblue" stroke="midnightblue" points="155.168,-18.2457 145.518,-22.6204 155.79,-25.218 155.168,-18.2457"/>
</g>
</g>
</svg>
