<?xml version="1.0" encoding="UTF-8" standalone="no"?>
<!DOCTYPE svg PUBLIC "-//W3C//DTD SVG 1.1//EN"
 "http://www.w3.org/Graphics/SVG/1.1/DTD/svg11.dtd">
<!-- Generated by graphviz version 2.36.0 (20140111.2315)
 -->
<!-- Title: backend.Turtle.getImagePath Pages: 1 -->
<svg width="1080pt" height="96pt"
 viewBox="0.00 0.00 1080.00 96.00" xmlns="http://www.w3.org/2000/svg" xmlns:xlink="http://www.w3.org/1999/xlink">
<g id="graph0" class="graph" transform="scale(1 1) rotate(0) translate(4 92)">
<title>backend.Turtle.getImagePath</title>
<polygon fill="white" stroke="none" points="-4,4 -4,-92 1076,-92 1076,4 -4,4"/>
<!-- Node1 -->
<g id="node1" class="node"><title>Node1</title>
<polygon fill="#bfbfbf" stroke="black" points="0.5,-41.5 0.5,-60.5 155.5,-60.5 155.5,-41.5 0.5,-41.5"/>
<text text-anchor="middle" x="78" y="-48.5" font-family="Helvetica,sans-Serif" font-size="10.00">backend.Turtle.getImagePath</text>
</g>
<!-- Node2 -->
<g id="node2" class="node"><title>Node2</title>
<g id="a_node2"><a xlink:href="../../d2/d89/classgui_1_1_turtle_image.html#a2799a8825e22175a4537aafa7a59999d" target="_top" xlink:title="gui.TurtleImage.setDefault\lImagePath">
<polygon fill="white" stroke="black" points="199,-58 199,-88 341,-88 341,-58 199,-58"/>
<text text-anchor="start" x="207" y="-76" font-family="Helvetica,sans-Serif" font-size="10.00">gui.TurtleImage.setDefault</text>
<text text-anchor="middle" x="270" y="-65" font-family="Helvetica,sans-Serif" font-size="10.00">ImagePath</text>
</a>
</g>
</g>
<!-- Node1&#45;&gt;Node2 -->
<g id="edge1" class="edge"><title>Node1&#45;&gt;Node2</title>
<path fill="none" stroke="midnightblue" d="M165.802,-61.0508C176.831,-62.3278 188.009,-63.622 198.734,-64.8639"/>
<polygon fill="midnightblue" stroke="midnightblue" points="166.069,-57.5584 155.733,-59.8848 165.264,-64.5119 166.069,-57.5584"/>
</g>
<!-- Node3 -->
<g id="node3" class="node"><title>Node3</title>
<g id="a_node3"><a xlink:href="../../d2/d89/classgui_1_1_turtle_image.html#af1e79192e9a4ec13ef28b42e4f354124" target="_top" xlink:title="gui.TurtleImage.updateImage">
<polygon fill="white" stroke="black" points="192,-19.5 192,-38.5 348,-38.5 348,-19.5 192,-19.5"/>
<text text-anchor="middle" x="270" y="-26.5" font-family="Helvetica,sans-Serif" font-size="10.00">gui.TurtleImage.updateImage</text>
</a>
</g>
</g>
<!-- Node1&#45;&gt;Node3 -->
<g id="edge2" class="edge"><title>Node1&#45;&gt;Node3</title>
<path fill="none" stroke="midnightblue" d="M165.89,-40.939C174.594,-39.9312 183.389,-38.9128 191.981,-37.918"/>
<polygon fill="midnightblue" stroke="midnightblue" points="165.264,-37.4881 155.733,-42.1152 166.069,-44.4416 165.264,-37.4881"/>
</g>
<!-- Node4 -->
<g id="node4" class="node"><title>Node4</title>
<g id="a_node4"><a xlink:href="../../d8/d8d/classgui_1_1_drawing_area.html#aaf94ae2627b15ef5a3224dd5fa042aae" target="_top" xlink:title="gui.DrawingArea.drawTurtles">
<polygon fill="white" stroke="black" points="384.5,-38.5 384.5,-57.5 535.5,-57.5 535.5,-38.5 384.5,-38.5"/>
<text text-anchor="middle" x="460" y="-45.5" font-family="Helvetica,sans-Serif" font-size="10.00">gui.DrawingArea.drawTurtles</text>
</a>
</g>
</g>
<!-- Node3&#45;&gt;Node4 -->
<g id="edge3" class="edge"><title>Node3&#45;&gt;Node4</title>
<path fill="none" stroke="midnightblue" d="M358.177,-37.8105C366.885,-38.6905 375.672,-39.5785 384.235,-40.444"/>
<polygon fill="midnightblue" stroke="midnightblue" points="358.311,-34.3062 348.009,-36.7828 357.607,-41.2707 358.311,-34.3062"/>
</g>
<!-- Node8 -->
<g id="node8" class="node"><title>Node8</title>
<g id="a_node8"><a xlink:href="../../d2/d89/classgui_1_1_turtle_image.html#a6c0eb7ee18bcb84ee7d82e7522431429" target="_top" xlink:title="gui.TurtleImage.TurtleImage">
<polygon fill="white" stroke="black" points="386,-0.5 386,-19.5 534,-19.5 534,-0.5 386,-0.5"/>
<text text-anchor="middle" x="460" y="-7.5" font-family="Helvetica,sans-Serif" font-size="10.00">gui.TurtleImage.TurtleImage</text>
</a>
</g>
</g>
<!-- Node3&#45;&gt;Node8 -->
<g id="edge8" class="edge"><title>Node3&#45;&gt;Node8</title>
<path fill="none" stroke="midnightblue" d="M358.019,-20.2056C367.292,-19.2684 376.656,-18.322 385.748,-17.4032"/>
<polygon fill="midnightblue" stroke="midnightblue" points="357.607,-16.7293 348.009,-21.2172 358.311,-23.6938 357.607,-16.7293"/>
</g>
<!-- Node5 -->
<g id="node5" class="node"><title>Node5</title>
<g id="a_node5"><a xlink:href="../../d5/d8a/classgui_1_1_slogo_tab.html#a9ccb322bec15528476c85f84e53f14d9" target="_top" xlink:title="gui.SlogoTab.updatePanels">
<polygon fill="white" stroke="black" points="572,-57.5 572,-76.5 716,-76.5 716,-57.5 572,-57.5"/>
<text text-anchor="middle" x="644" y="-64.5" font-family="Helvetica,sans-Serif" font-size="10.00">gui.SlogoTab.updatePanels</text>
</a>
</g>
</g>
<!-- Node4&#45;&gt;Node5 -->
<g id="edge4" class="edge"><title>Node4&#45;&gt;Node5</title>
<path fill="none" stroke="midnightblue" d="M545.731,-56.8455C554.448,-57.7556 563.243,-58.6737 571.793,-59.5663"/>
<polygon fill="midnightblue" stroke="midnightblue" points="545.861,-53.3402 535.551,-55.7828 545.134,-60.3023 545.861,-53.3402"/>
</g>
<!-- Node6 -->
<g id="node6" class="node"><title>Node6</title>
<g id="a_node6"><a xlink:href="../../d5/d8a/classgui_1_1_slogo_tab.html#a2a016875b2ea48fa761cd4408a78dd21" target="_top" xlink:title="gui.SlogoTab.setButtonActions">
<polygon fill="white" stroke="black" points="752,-38.5 752,-57.5 914,-57.5 914,-38.5 752,-38.5"/>
<text text-anchor="middle" x="833" y="-45.5" font-family="Helvetica,sans-Serif" font-size="10.00">gui.SlogoTab.setButtonActions</text>
</a>
</g>
</g>
<!-- Node4&#45;&gt;Node6 -->
<g id="edge7" class="edge"><title>Node4&#45;&gt;Node6</title>
<path fill="none" stroke="midnightblue" d="M545.754,-48C607.609,-48 690.917,-48 751.706,-48"/>
<polygon fill="midnightblue" stroke="midnightblue" points="545.631,-44.5001 535.631,-48 545.631,-51.5001 545.631,-44.5001"/>
</g>
<!-- Node5&#45;&gt;Node6 -->
<g id="edge5" class="edge"><title>Node5&#45;&gt;Node6</title>
<path fill="none" stroke="midnightblue" d="M726.449,-58.7245C734.896,-57.8662 743.476,-56.9944 751.908,-56.1377"/>
<polygon fill="midnightblue" stroke="midnightblue" points="725.825,-55.2697 716.23,-59.7627 726.533,-62.2339 725.825,-55.2697"/>
</g>
<!-- Node7 -->
<g id="node7" class="node"><title>Node7</title>
<g id="a_node7"><a xlink:href="../../d5/d8a/classgui_1_1_slogo_tab.html#adaa134bc95e1dcf4eb30b3a185c75175" target="_top" xlink:title="gui.SlogoTab.SlogoTab">
<polygon fill="white" stroke="black" points="950,-38.5 950,-57.5 1072,-57.5 1072,-38.5 950,-38.5"/>
<text text-anchor="middle" x="1011" y="-45.5" font-family="Helvetica,sans-Serif" font-size="10.00">gui.SlogoTab.SlogoTab</text>
</a>
</g>
</g>
<!-- Node6&#45;&gt;Node7 -->
<g id="edge6" class="edge"><title>Node6&#45;&gt;Node7</title>
<path fill="none" stroke="midnightblue" d="M924.235,-48C932.945,-48 941.626,-48 949.936,-48"/>
<polygon fill="midnightblue" stroke="midnightblue" points="924.018,-44.5001 914.018,-48 924.018,-51.5001 924.018,-44.5001"/>
</g>
</g>
</svg>
