<?xml version="1.0" encoding="UTF-8" standalone="no"?>
<!DOCTYPE svg PUBLIC "-//W3C//DTD SVG 1.1//EN"
 "http://www.w3.org/Graphics/SVG/1.1/DTD/svg11.dtd">
<!-- Generated by graphviz version 2.36.0 (20140111.2315)
 -->
<!-- Title: backend.Turtle.jumpToPoint Pages: 1 -->
<!--zoomable 123 -->
<svg id="main" version="1.1" xmlns="http://www.w3.org/2000/svg" xmlns:xlink="http://www.w3.org/1999/xlink" xml:space="preserve" onload="init(evt)">
<style type="text/css"><![CDATA[
.edge:hover path { stroke: red; }
.edge:hover polygon { stroke: red; fill: red; }
]]></style>
<script type="text/javascript"><![CDATA[
var edges = document.getElementsByTagName('g');
if (edges && edges.length) {
  for (var i=0;i<edges.length;i++) {
    if (edges[i].id.substr(0,4)=='edge') {
      edges[i].setAttribute('class','edge');
    }
  }
}
]]></script>
        <defs>
                <circle id="rim" cx="0" cy="0" r="7"/>
                <circle id="rim2" cx="0" cy="0" r="3.5"/>
                <g id="zoomPlus">
                        <use xlink:href="#rim" fill="#404040">
                                <set attributeName="fill" to="#808080" begin="zoomplus.mouseover" end="zoomplus.mouseout"/>
                        </use>
                        <path d="M-4,0h8M0,-4v8" fill="none" stroke="white" stroke-width="1.5" pointer-events="none"/>
                </g>
                <g id="zoomMin">
                        <use xlink:href="#rim" fill="#404040">
                                <set attributeName="fill" to="#808080" begin="zoomminus.mouseover" end="zoomminus.mouseout"/>
                        </use>
                        <path d="M-4,0h8" fill="none" stroke="white" stroke-width="1.5" pointer-events="none"/>
                </g>
                <g id="dirArrow">
                        <path fill="none" stroke="white" stroke-width="1.5" d="M0,-3.0v7 M-2.5,-0.5L0,-3.0L2.5,-0.5"/>
                </g>
               <g id="resetDef">
                       <use xlink:href="#rim2" fill="#404040">
                               <set attributeName="fill" to="#808080" begin="reset.mouseover" end="reset.mouseout"/>
                       </use>
               </g>
        </defs>

<script type="text/javascript">
var viewWidth = 882;
var viewHeight = 123;
var sectionId = 'dynsection-16';
</script>
<script xlink:href="../../svgpan.js"/>
<svg id="graph" class="graph">
<g id="viewport">
<title>backend.Turtle.jumpToPoint</title>
<polygon fill="white" stroke="none" points="-4,4 -4,-119 878,-119 878,4 -4,4"/>
<!-- Node1 -->
<g id="node1" class="node"><title>Node1</title>
<polygon fill="#bfbfbf" stroke="black" points="0,-76.5 0,-95.5 146,-95.5 146,-76.5 0,-76.5"/>
<text text-anchor="middle" x="73" y="-83.5" font-family="Helvetica,sans-Serif" font-size="10.00">backend.Turtle.jumpToPoint</text>
</g>
<!-- Node2 -->
<g id="node2" class="node"><title>Node2</title>
<g id="a_node2"><a xlink:href="../../d0/d99/classbackend_1_1command_1_1_clear_screen.html#acbfb39c1cc575e85b075b11a96d8d026" target="_top" xlink:title="backend.command.ClearScreen.execute">
<polygon fill="white" stroke="black" points="182,-95.5 182,-114.5 394,-114.5 394,-95.5 182,-95.5"/>
<text text-anchor="middle" x="288" y="-102.5" font-family="Helvetica,sans-Serif" font-size="10.00">backend.command.ClearScreen.execute</text>
</a>
</g>
</g>
<!-- Node1&#45;&gt;Node2 -->
<g id="edge1" class="edge"><title>Node1&#45;&gt;Node2</title>
<path fill="none" stroke="midnightblue" d="M156.189,-93.3314C164.549,-94.0771 173.119,-94.8416 181.68,-95.6052"/>
<polygon fill="midnightblue" stroke="midnightblue" points="156.384,-89.835 146.112,-92.4325 155.762,-96.8073 156.384,-89.835"/>
</g>
<!-- Node3 -->
<g id="node3" class="node"><title>Node3</title>
<g id="a_node3"><a xlink:href="../../df/de2/classbackend_1_1_turtle.html#a86c40ae8c6731af071b31f3bbbe21deb" target="_top" xlink:title="backend.Turtle.moveToPoint">
<polygon fill="white" stroke="black" points="213.5,-57.5 213.5,-76.5 362.5,-76.5 362.5,-57.5 213.5,-57.5"/>
<text text-anchor="middle" x="288" y="-64.5" font-family="Helvetica,sans-Serif" font-size="10.00">backend.Turtle.moveToPoint</text>
</a>
</g>
</g>
<!-- Node1&#45;&gt;Node3 -->
<g id="edge2" class="edge"><title>Node1&#45;&gt;Node3</title>
<path fill="none" stroke="midnightblue" d="M156.118,-78.6749C174.896,-76.9999 194.742,-75.2296 213.147,-73.5878"/>
<polygon fill="midnightblue" stroke="midnightblue" points="155.762,-75.1927 146.112,-79.5675 156.384,-82.165 155.762,-75.1927"/>
</g>
<!-- Node4 -->
<g id="node4" class="node"><title>Node4</title>
<g id="a_node4"><a xlink:href="../../df/d00/classbackend_1_1command_1_1_home.html#adcadf9a1ca80334c0def5dd86ae1a6dc" target="_top" xlink:title="backend.command.Home.execute">
<polygon fill="white" stroke="black" points="443,-95.5 443,-114.5 625,-114.5 625,-95.5 443,-95.5"/>
<text text-anchor="middle" x="534" y="-102.5" font-family="Helvetica,sans-Serif" font-size="10.00">backend.command.Home.execute</text>
</a>
</g>
</g>
<!-- Node3&#45;&gt;Node4 -->
<g id="edge3" class="edge"><title>Node3&#45;&gt;Node4</title>
<path fill="none" stroke="midnightblue" d="M360.493,-78.1341C395.784,-83.6303 437.923,-90.1929 471.718,-95.4561"/>
<polygon fill="midnightblue" stroke="midnightblue" points="360.676,-74.6206 350.257,-76.54 359.599,-81.5372 360.676,-74.6206"/>
</g>
<!-- Node5 -->
<g id="node5" class="node"><title>Node5</title>
<g id="a_node5"><a xlink:href="../../d5/db7/classbackend_1_1command_1_1_set_position.html#ad352a4e88e36db0d2360299d1d0f54ec" target="_top" xlink:title="backend.command.SetPosition.execute">
<polygon fill="white" stroke="black" points="430.5,-57.5 430.5,-76.5 637.5,-76.5 637.5,-57.5 430.5,-57.5"/>
<text text-anchor="middle" x="534" y="-64.5" font-family="Helvetica,sans-Serif" font-size="10.00">backend.command.SetPosition.execute</text>
</a>
</g>
</g>
<!-- Node3&#45;&gt;Node5 -->
<g id="edge4" class="edge"><title>Node3&#45;&gt;Node5</title>
<path fill="none" stroke="midnightblue" d="M372.697,-67C391.248,-67 411.113,-67 430.323,-67"/>
<polygon fill="midnightblue" stroke="midnightblue" points="372.539,-63.5001 362.539,-67 372.539,-70.5001 372.539,-63.5001"/>
</g>
<!-- Node6 -->
<g id="node6" class="node"><title>Node6</title>
<g id="a_node6"><a xlink:href="../../df/de2/classbackend_1_1_turtle.html#a1b45c4ecc2d7cd43cd947fdf9429305b" target="_top" xlink:title="backend.Turtle.move">
<polygon fill="white" stroke="black" points="476,-19.5 476,-38.5 592,-38.5 592,-19.5 476,-19.5"/>
<text text-anchor="middle" x="534" y="-26.5" font-family="Helvetica,sans-Serif" font-size="10.00">backend.Turtle.move</text>
</a>
</g>
</g>
<!-- Node3&#45;&gt;Node6 -->
<g id="edge5" class="edge"><title>Node3&#45;&gt;Node6</title>
<path fill="none" stroke="midnightblue" d="M360.419,-55.8774C397.199,-50.1494 441.432,-43.2605 475.909,-37.8912"/>
<polygon fill="midnightblue" stroke="midnightblue" points="359.599,-52.4628 350.257,-57.46 360.676,-59.3794 359.599,-52.4628"/>
</g>
<!-- Node7 -->
<g id="node7" class="node"><title>Node7</title>
<g id="a_node7"><a xlink:href="../../dc/d25/classbackend_1_1command_1_1_backward.html#a8555647247f244625e7e60bc10753202" target="_top" xlink:title="backend.command.Backward.execute">
<polygon fill="white" stroke="black" points="674.5,-38.5 674.5,-57.5 873.5,-57.5 873.5,-38.5 674.5,-38.5"/>
<text text-anchor="middle" x="774" y="-45.5" font-family="Helvetica,sans-Serif" font-size="10.00">backend.command.Backward.execute</text>
</a>
</g>
</g>
<!-- Node6&#45;&gt;Node7 -->
<g id="edge6" class="edge"><title>Node6&#45;&gt;Node7</title>
<path fill="none" stroke="midnightblue" d="M602.06,-34.3535C624.439,-36.1401 649.867,-38.1701 674.144,-40.1081"/>
<polygon fill="midnightblue" stroke="midnightblue" points="602.254,-30.858 592.007,-33.551 601.697,-37.8358 602.254,-30.858"/>
</g>
<!-- Node8 -->
<g id="node8" class="node"><title>Node8</title>
<g id="a_node8"><a xlink:href="../../d8/d49/classbackend_1_1command_1_1_forward.html#a007c0c9940ad2e960dfd044388fcee0f" target="_top" xlink:title="backend.command.Forward.execute">
<polygon fill="white" stroke="black" points="678.5,-0.5 678.5,-19.5 869.5,-19.5 869.5,-0.5 678.5,-0.5"/>
<text text-anchor="middle" x="774" y="-7.5" font-family="Helvetica,sans-Serif" font-size="10.00">backend.command.Forward.execute</text>
</a>
</g>
</g>
<!-- Node6&#45;&gt;Node8 -->
<g id="edge7" class="edge"><title>Node6&#45;&gt;Node8</title>
<path fill="none" stroke="midnightblue" d="M602.259,-23.6306C625.888,-21.7442 652.898,-19.588 678.354,-17.5558"/>
<polygon fill="midnightblue" stroke="midnightblue" points="601.697,-20.1642 592.007,-24.449 602.254,-27.142 601.697,-20.1642"/>
</g>
</g>
</svg>
        <g id="navigator" transform="translate(0 0)" fill="#404254">
                <rect fill="#f2f5e9" fill-opacity="0.5" stroke="#606060" stroke-width=".5" x="0" y="0" width="60" height="60"/>
                <use id="zoomplus" xlink:href="#zoomPlus" x="17" y="9" onmousedown="handleZoom(evt,'in')"/>
                <use id="zoomminus" xlink:href="#zoomMin" x="42" y="9" onmousedown="handleZoom(evt,'out')"/>
                <use id="reset" xlink:href="#resetDef" x="30" y="36" onmousedown="handleReset()"/>
                <g id="arrowUp" xlink:href="#dirArrow" transform="translate(30 24)" onmousedown="handlePan(0,-1)">
                  <use xlink:href="#rim" fill="#404040">
                        <set attributeName="fill" to="#808080" begin="arrowUp.mouseover" end="arrowUp.mouseout"/>
                  </use>
                  <path fill="none" stroke="white" stroke-width="1.5" d="M0,-3.0v7 M-2.5,-0.5L0,-3.0L2.5,-0.5"/>
                </g>
                <g id="arrowRight" xlink:href="#dirArrow" transform="rotate(90) translate(36 -43)" onmousedown="handlePan(1,0)">
                  <use xlink:href="#rim" fill="#404040">
                        <set attributeName="fill" to="#808080" begin="arrowRight.mouseover" end="arrowRight.mouseout"/>
                  </use>
                  <path fill="none" stroke="white" stroke-width="1.5" d="M0,-3.0v7 M-2.5,-0.5L0,-3.0L2.5,-0.5"/>
                </g>
                <g id="arrowDown" xlink:href="#dirArrow" transform="rotate(180) translate(-30 -48)" onmousedown="handlePan(0,1)">
                  <use xlink:href="#rim" fill="#404040">
                        <set attributeName="fill" to="#808080" begin="arrowDown.mouseover" end="arrowDown.mouseout"/>
                  </use>
                  <path fill="none" stroke="white" stroke-width="1.5" d="M0,-3.0v7 M-2.5,-0.5L0,-3.0L2.5,-0.5"/>
                </g>
                <g id="arrowLeft" xlink:href="#dirArrow" transform="rotate(270) translate(-36 17)" onmousedown="handlePan(-1,0)">
                  <use xlink:href="#rim" fill="#404040">
                        <set attributeName="fill" to="#808080" begin="arrowLeft.mouseover" end="arrowLeft.mouseout"/>
                  </use>
                  <path fill="none" stroke="white" stroke-width="1.5" d="M0,-3.0v7 M-2.5,-0.5L0,-3.0L2.5,-0.5"/>
                </g>
        </g>
        <svg viewBox="0 0 15 15" width="100%" height="30px" preserveAspectRatio="xMaxYMin meet">
         <g id="arrow_out" transform="scale(0.3 0.3)">
          <a xlink:href="classbackend_1_1_turtle_af37d25ad088eda24bbfd1a22df39c1cc_icgraph_org.svg" target="_base">
           <rect id="button" ry="5" rx="5" y="6" x="6" height="38" width="38"
                fill="#f2f5e9" fill-opacity="0.5" stroke="#606060" stroke-width="1.0"/>
           <path id="arrow"
             d="M 11.500037,31.436501 C 11.940474,20.09759 22.043105,11.32322 32.158766,21.979434 L 37.068811,17.246167 C 37.068811,17.246167 37.088388,32 37.088388,32 L 22.160133,31.978069 C 22.160133,31.978069 26.997745,27.140456 26.997745,27.140456 C 18.528582,18.264221 13.291696,25.230495 11.500037,31.436501 z"
             style="fill:#404040;"/>
          </a>
         </g>
        </svg>
</svg>
