<?xml version="1.0" encoding="UTF-8" standalone="no"?>
<!DOCTYPE svg PUBLIC "-//W3C//DTD SVG 1.1//EN"
 "http://www.w3.org/Graphics/SVG/1.1/DTD/svg11.dtd">
<!-- Generated by graphviz version 2.36.0 (20140111.2315)
 -->
<!-- Title: backend.Turtle.setImageByFullPath Pages: 1 -->
<svg width="602pt" height="96pt"
 viewBox="0.00 0.00 602.00 96.00" xmlns="http://www.w3.org/2000/svg" xmlns:xlink="http://www.w3.org/1999/xlink">
<g id="graph0" class="graph" transform="scale(1 1) rotate(0) translate(4 92)">
<title>backend.Turtle.setImageByFullPath</title>
<polygon fill="white" stroke="none" points="-4,4 -4,-92 598,-92 598,4 -4,4"/>
<!-- Node1 -->
<g id="node1" class="node"><title>Node1</title>
<polygon fill="#bfbfbf" stroke="black" points="0,-36 0,-66 146,-66 146,-36 0,-36"/>
<text text-anchor="start" x="8" y="-54" font-family="Helvetica,sans-Serif" font-size="10.00">backend.Turtle.setImageBy</text>
<text text-anchor="middle" x="73" y="-43" font-family="Helvetica,sans-Serif" font-size="10.00">FullPath</text>
</g>
<!-- Node2 -->
<g id="node2" class="node"><title>Node2</title>
<g id="a_node2"><a xlink:href="../../d2/d89/classgui_1_1_turtle_image.html#a2799a8825e22175a4537aafa7a59999d" target="_top" xlink:title="gui.TurtleImage.setDefault\lImagePath">
<polygon fill="white" stroke="black" points="199,-58 199,-88 341,-88 341,-58 199,-58"/>
<text text-anchor="start" x="207" y="-76" font-family="Helvetica,sans-Serif" font-size="10.00">gui.TurtleImage.setDefault</text>
<text text-anchor="middle" x="270" y="-65" font-family="Helvetica,sans-Serif" font-size="10.00">ImagePath</text>
</a>
</g>
</g>
<!-- Node1&#45;&gt;Node2 -->
<g id="edge1" class="edge"><title>Node1&#45;&gt;Node2</title>
<path fill="none" stroke="midnightblue" d="M156.277,-60.2826C170.445,-61.881 185.052,-63.5289 198.862,-65.087"/>
<polygon fill="midnightblue" stroke="midnightblue" points="156.386,-56.7727 146.057,-59.1295 155.601,-63.7286 156.386,-56.7727"/>
</g>
<!-- Node3 -->
<g id="node3" class="node"><title>Node3</title>
<g id="a_node3"><a xlink:href="../../df/de2/classbackend_1_1_turtle.html#af532e9713b2bf676153170ac8b9a786e" target="_top" xlink:title="backend.Turtle.setImageByName">
<polygon fill="white" stroke="black" points="182.5,-19.5 182.5,-38.5 357.5,-38.5 357.5,-19.5 182.5,-19.5"/>
<text text-anchor="middle" x="270" y="-26.5" font-family="Helvetica,sans-Serif" font-size="10.00">backend.Turtle.setImageByName</text>
</a>
</g>
</g>
<!-- Node1&#45;&gt;Node3 -->
<g id="edge2" class="edge"><title>Node1&#45;&gt;Node3</title>
<path fill="none" stroke="midnightblue" d="M156.197,-41.7265C165.629,-40.6624 175.256,-39.5762 184.715,-38.5091"/>
<polygon fill="midnightblue" stroke="midnightblue" points="155.601,-38.2714 146.057,-42.8705 156.386,-45.2273 155.601,-38.2714"/>
</g>
<!-- Node4 -->
<g id="node4" class="node"><title>Node4</title>
<g id="a_node4"><a xlink:href="../../d5/dfe/classbackend_1_1command_1_1_set_shape.html#a45d3d7dfe3b3b7853d1818c84bf29be2" target="_top" xlink:title="backend.command.SetShape.execute">
<polygon fill="white" stroke="black" points="394,-38.5 394,-57.5 594,-57.5 594,-38.5 394,-38.5"/>
<text text-anchor="middle" x="494" y="-45.5" font-family="Helvetica,sans-Serif" font-size="10.00">backend.command.SetShape.execute</text>
</a>
</g>
</g>
<!-- Node3&#45;&gt;Node4 -->
<g id="edge3" class="edge"><title>Node3&#45;&gt;Node4</title>
<path fill="none" stroke="midnightblue" d="M367.816,-37.2861C376.417,-38.0222 385.134,-38.7682 393.755,-39.5061"/>
<polygon fill="midnightblue" stroke="midnightblue" points="368.047,-33.7931 357.785,-36.4275 367.45,-40.7676 368.047,-33.7931"/>
</g>
<!-- Node5 -->
<g id="node5" class="node"><title>Node5</title>
<g id="a_node5"><a xlink:href="../../df/de2/classbackend_1_1_turtle.html#a1ac163b58e52da5f91fb6ea0ec8c0a8d" target="_top" xlink:title="backend.Turtle.Turtle">
<polygon fill="white" stroke="black" points="437,-0.5 437,-19.5 551,-19.5 551,-0.5 437,-0.5"/>
<text text-anchor="middle" x="494" y="-7.5" font-family="Helvetica,sans-Serif" font-size="10.00">backend.Turtle.Turtle</text>
</a>
</g>
</g>
<!-- Node3&#45;&gt;Node5 -->
<g id="edge4" class="edge"><title>Node3&#45;&gt;Node5</title>
<path fill="none" stroke="midnightblue" d="M367.805,-20.7149C391.337,-18.7009 415.735,-16.6127 436.674,-14.8207"/>
<polygon fill="midnightblue" stroke="midnightblue" points="367.45,-17.2324 357.785,-21.5725 368.047,-24.2069 367.45,-17.2324"/>
</g>
</g>
</svg>
