<?xml version="1.0" encoding="UTF-8" standalone="no"?>
<!DOCTYPE svg PUBLIC "-//W3C//DTD SVG 1.1//EN"
 "http://www.w3.org/Graphics/SVG/1.1/DTD/svg11.dtd">
<!-- Generated by graphviz version 2.36.0 (20140111.2315)
 -->
<!-- Title: backend.Turtle.getHeading Pages: 1 -->
<svg width="1106pt" height="66pt"
 viewBox="0.00 0.00 1106.00 66.00" xmlns="http://www.w3.org/2000/svg" xmlns:xlink="http://www.w3.org/1999/xlink">
<g id="graph0" class="graph" transform="scale(1 1) rotate(0) translate(4 62)">
<title>backend.Turtle.getHeading</title>
<polygon fill="white" stroke="none" points="-4,4 -4,-62 1102,-62 1102,4 -4,4"/>
<!-- Node1 -->
<g id="node1" class="node"><title>Node1</title>
<polygon fill="#bfbfbf" stroke="black" points="0,-19.5 0,-38.5 144,-38.5 144,-19.5 0,-19.5"/>
<text text-anchor="middle" x="72" y="-26.5" font-family="Helvetica,sans-Serif" font-size="10.00">backend.Turtle.getHeading</text>
</g>
<!-- Node2 -->
<g id="node2" class="node"><title>Node2</title>
<g id="a_node2"><a xlink:href="../../d7/da5/classbackend_1_1command_1_1_heading.html#aa93f5e881fa6145268b8b13ea4903c15" target="_top" xlink:title="backend.command.Heading.execute">
<polygon fill="white" stroke="black" points="180.5,-38.5 180.5,-57.5 373.5,-57.5 373.5,-38.5 180.5,-38.5"/>
<text text-anchor="middle" x="277" y="-45.5" font-family="Helvetica,sans-Serif" font-size="10.00">backend.command.Heading.execute</text>
</a>
</g>
</g>
<!-- Node1&#45;&gt;Node2 -->
<g id="edge1" class="edge"><title>Node1&#45;&gt;Node2</title>
<path fill="none" stroke="midnightblue" d="M154.52,-36.6299C163.003,-37.4239 171.68,-38.2361 180.302,-39.043"/>
<polygon fill="midnightblue" stroke="midnightblue" points="154.567,-33.1192 144.285,-35.672 153.915,-40.0887 154.567,-33.1192"/>
</g>
<!-- Node3 -->
<g id="node3" class="node"><title>Node3</title>
<g id="a_node3"><a xlink:href="../../d2/d89/classgui_1_1_turtle_image.html#a632edfc5b5937c0ad906304ba225aadb" target="_top" xlink:title="gui.TurtleImage.orientTurtle">
<polygon fill="white" stroke="black" points="204,-0.5 204,-19.5 350,-19.5 350,-0.5 204,-0.5"/>
<text text-anchor="middle" x="277" y="-7.5" font-family="Helvetica,sans-Serif" font-size="10.00">gui.TurtleImage.orientTurtle</text>
</a>
</g>
</g>
<!-- Node1&#45;&gt;Node3 -->
<g id="edge2" class="edge"><title>Node1&#45;&gt;Node3</title>
<path fill="none" stroke="midnightblue" d="M154.366,-21.3844C170.734,-19.8525 187.83,-18.2523 203.858,-16.7522"/>
<polygon fill="midnightblue" stroke="midnightblue" points="153.915,-17.9113 144.285,-22.328 154.567,-24.8808 153.915,-17.9113"/>
</g>
<!-- Node4 -->
<g id="node4" class="node"><title>Node4</title>
<g id="a_node4"><a xlink:href="../../d8/d8d/classgui_1_1_drawing_area.html#aaf94ae2627b15ef5a3224dd5fa042aae" target="_top" xlink:title="gui.DrawingArea.drawTurtles">
<polygon fill="white" stroke="black" points="410.5,-0.5 410.5,-19.5 561.5,-19.5 561.5,-0.5 410.5,-0.5"/>
<text text-anchor="middle" x="486" y="-7.5" font-family="Helvetica,sans-Serif" font-size="10.00">gui.DrawingArea.drawTurtles</text>
</a>
</g>
</g>
<!-- Node3&#45;&gt;Node4 -->
<g id="edge3" class="edge"><title>Node3&#45;&gt;Node4</title>
<path fill="none" stroke="midnightblue" d="M360.285,-10C376.811,-10 394.091,-10 410.341,-10"/>
<polygon fill="midnightblue" stroke="midnightblue" points="360.108,-6.5001 350.108,-10 360.108,-13.5001 360.108,-6.5001"/>
</g>
<!-- Node5 -->
<g id="node5" class="node"><title>Node5</title>
<g id="a_node5"><a xlink:href="../../d5/d8a/classgui_1_1_slogo_tab.html#a9ccb322bec15528476c85f84e53f14d9" target="_top" xlink:title="gui.SlogoTab.updatePanels">
<polygon fill="white" stroke="black" points="598,-19.5 598,-38.5 742,-38.5 742,-19.5 598,-19.5"/>
<text text-anchor="middle" x="670" y="-26.5" font-family="Helvetica,sans-Serif" font-size="10.00">gui.SlogoTab.updatePanels</text>
</a>
</g>
</g>
<!-- Node4&#45;&gt;Node5 -->
<g id="edge4" class="edge"><title>Node4&#45;&gt;Node5</title>
<path fill="none" stroke="midnightblue" d="M571.731,-18.8455C580.448,-19.7556 589.243,-20.6737 597.793,-21.5663"/>
<polygon fill="midnightblue" stroke="midnightblue" points="571.861,-15.3402 561.551,-17.7828 571.134,-22.3023 571.861,-15.3402"/>
</g>
<!-- Node6 -->
<g id="node6" class="node"><title>Node6</title>
<g id="a_node6"><a xlink:href="../../d5/d8a/classgui_1_1_slogo_tab.html#a2a016875b2ea48fa761cd4408a78dd21" target="_top" xlink:title="gui.SlogoTab.setButtonActions">
<polygon fill="white" stroke="black" points="778,-0.5 778,-19.5 940,-19.5 940,-0.5 778,-0.5"/>
<text text-anchor="middle" x="859" y="-7.5" font-family="Helvetica,sans-Serif" font-size="10.00">gui.SlogoTab.setButtonActions</text>
</a>
</g>
</g>
<!-- Node4&#45;&gt;Node6 -->
<g id="edge7" class="edge"><title>Node4&#45;&gt;Node6</title>
<path fill="none" stroke="midnightblue" d="M571.754,-10C633.609,-10 716.917,-10 777.706,-10"/>
<polygon fill="midnightblue" stroke="midnightblue" points="571.631,-6.5001 561.631,-10 571.631,-13.5001 571.631,-6.5001"/>
</g>
<!-- Node5&#45;&gt;Node6 -->
<g id="edge5" class="edge"><title>Node5&#45;&gt;Node6</title>
<path fill="none" stroke="midnightblue" d="M752.449,-20.7245C760.896,-19.8662 769.476,-18.9944 777.908,-18.1377"/>
<polygon fill="midnightblue" stroke="midnightblue" points="751.825,-17.2697 742.23,-21.7627 752.533,-24.2339 751.825,-17.2697"/>
</g>
<!-- Node7 -->
<g id="node7" class="node"><title>Node7</title>
<g id="a_node7"><a xlink:href="../../d5/d8a/classgui_1_1_slogo_tab.html#adaa134bc95e1dcf4eb30b3a185c75175" target="_top" xlink:title="gui.SlogoTab.SlogoTab">
<polygon fill="white" stroke="black" points="976,-0.5 976,-19.5 1098,-19.5 1098,-0.5 976,-0.5"/>
<text text-anchor="middle" x="1037" y="-7.5" font-family="Helvetica,sans-Serif" font-size="10.00">gui.SlogoTab.SlogoTab</text>
</a>
</g>
</g>
<!-- Node6&#45;&gt;Node7 -->
<g id="edge6" class="edge"><title>Node6&#45;&gt;Node7</title>
<path fill="none" stroke="midnightblue" d="M950.235,-10C958.945,-10 967.626,-10 975.936,-10"/>
<polygon fill="midnightblue" stroke="midnightblue" points="950.018,-6.5001 940.018,-10 950.018,-13.5001 950.018,-6.5001"/>
</g>
</g>
</svg>
