<?xml version="1.0" encoding="UTF-8" standalone="no"?>
<!DOCTYPE svg PUBLIC "-//W3C//DTD SVG 1.1//EN"
 "http://www.w3.org/Graphics/SVG/1.1/DTD/svg11.dtd">
<!-- Generated by graphviz version 2.36.0 (20140111.2315)
 -->
<!-- Title: backend.Turtle.move Pages: 1 -->
<svg width="664pt" height="85pt"
 viewBox="0.00 0.00 664.00 85.00" xmlns="http://www.w3.org/2000/svg" xmlns:xlink="http://www.w3.org/1999/xlink">
<g id="graph0" class="graph" transform="scale(1 1) rotate(0) translate(4 81)">
<title>backend.Turtle.move</title>
<polygon fill="white" stroke="none" points="-4,4 -4,-81 660,-81 660,4 -4,4"/>
<!-- Node1 -->
<g id="node1" class="node"><title>Node1</title>
<polygon fill="#bfbfbf" stroke="black" points="0,-38.5 0,-57.5 116,-57.5 116,-38.5 0,-38.5"/>
<text text-anchor="middle" x="58" y="-45.5" font-family="Helvetica,sans-Serif" font-size="10.00">backend.Turtle.move</text>
</g>
<!-- Node2 -->
<g id="node2" class="node"><title>Node2</title>
<g id="a_node2"><a xlink:href="../../d8/d98/classbackend_1_1_heading.html#a6cb6cb190412dc463cab0431243f9885" target="_top" xlink:title="backend.Heading.getAngleRads">
<polygon fill="white" stroke="black" points="152.5,-57.5 152.5,-76.5 321.5,-76.5 321.5,-57.5 152.5,-57.5"/>
<text text-anchor="middle" x="237" y="-64.5" font-family="Helvetica,sans-Serif" font-size="10.00">backend.Heading.getAngleRads</text>
</a>
</g>
</g>
<!-- Node1&#45;&gt;Node2 -->
<g id="edge1" class="edge"><title>Node1&#45;&gt;Node2</title>
<path fill="none" stroke="midnightblue" d="M116.467,-54.1688C124.828,-55.0663 133.612,-56.0092 142.463,-56.9593"/>
<polygon fill="midnightblue" stroke="midnightblue" points="142.15,-60.4457 152.466,-58.0331 142.897,-53.4857 142.15,-60.4457"/>
</g>
<!-- Node3 -->
<g id="node3" class="node"><title>Node3</title>
<g id="a_node3"><a xlink:href="../../df/de2/classbackend_1_1_turtle.html#a86c40ae8c6731af071b31f3bbbe21deb" target="_top" xlink:title="backend.Turtle.moveToPoint">
<polygon fill="white" stroke="black" points="162.5,-19.5 162.5,-38.5 311.5,-38.5 311.5,-19.5 162.5,-19.5"/>
<text text-anchor="middle" x="237" y="-26.5" font-family="Helvetica,sans-Serif" font-size="10.00">backend.Turtle.moveToPoint</text>
</a>
</g>
</g>
<!-- Node1&#45;&gt;Node3 -->
<g id="edge2" class="edge"><title>Node1&#45;&gt;Node3</title>
<path fill="none" stroke="midnightblue" d="M116.467,-41.8312C127.902,-40.6038 140.128,-39.2913 152.236,-37.9916"/>
<polygon fill="midnightblue" stroke="midnightblue" points="152.789,-41.4524 162.359,-36.905 152.042,-34.4924 152.789,-41.4524"/>
</g>
<!-- Node4 -->
<g id="node4" class="node"><title>Node4</title>
<g id="a_node4"><a xlink:href="../../de/dc9/classbackend_1_1_pen.html#a135b3b945d4033d3a3e8e56552ff8782" target="_top" xlink:title="backend.Pen.drawLine">
<polygon fill="white" stroke="black" points="369.5,-38.5 369.5,-57.5 492.5,-57.5 492.5,-38.5 369.5,-38.5"/>
<text text-anchor="middle" x="431" y="-45.5" font-family="Helvetica,sans-Serif" font-size="10.00">backend.Pen.drawLine</text>
</a>
</g>
</g>
<!-- Node3&#45;&gt;Node4 -->
<g id="edge3" class="edge"><title>Node3&#45;&gt;Node4</title>
<path fill="none" stroke="midnightblue" d="M311.683,-36.2916C327.298,-37.8368 343.747,-39.4645 359.25,-40.9987"/>
<polygon fill="midnightblue" stroke="midnightblue" points="358.987,-44.4897 369.283,-41.9915 359.676,-37.5237 358.987,-44.4897"/>
</g>
<!-- Node6 -->
<g id="node6" class="node"><title>Node6</title>
<g id="a_node6"><a xlink:href="../../df/de2/classbackend_1_1_turtle.html#af37d25ad088eda24bbfd1a22df39c1cc" target="_top" xlink:title="backend.Turtle.jumpToPoint">
<polygon fill="white" stroke="black" points="358,-0.5 358,-19.5 504,-19.5 504,-0.5 358,-0.5"/>
<text text-anchor="middle" x="431" y="-7.5" font-family="Helvetica,sans-Serif" font-size="10.00">backend.Turtle.jumpToPoint</text>
</a>
</g>
</g>
<!-- Node3&#45;&gt;Node6 -->
<g id="edge5" class="edge"><title>Node3&#45;&gt;Node6</title>
<path fill="none" stroke="midnightblue" d="M311.683,-21.7084C323.498,-20.5393 335.789,-19.3229 347.788,-18.1356"/>
<polygon fill="midnightblue" stroke="midnightblue" points="348.174,-21.6146 357.781,-17.1467 347.485,-14.6486 348.174,-21.6146"/>
</g>
<!-- Node5 -->
<g id="node5" class="node"><title>Node5</title>
<g id="a_node5"><a xlink:href="../../de/dc9/classbackend_1_1_pen.html#abfd32c7785accc4f570322aa0b29f650" target="_top" xlink:title="backend.Pen.isDown">
<polygon fill="white" stroke="black" points="540.5,-38.5 540.5,-57.5 655.5,-57.5 655.5,-38.5 540.5,-38.5"/>
<text text-anchor="middle" x="598" y="-45.5" font-family="Helvetica,sans-Serif" font-size="10.00">backend.Pen.isDown</text>
</a>
</g>
</g>
<!-- Node4&#45;&gt;Node5 -->
<g id="edge4" class="edge"><title>Node4&#45;&gt;Node5</title>
<path fill="none" stroke="midnightblue" d="M492.503,-48C504.718,-48 517.628,-48 530.049,-48"/>
<polygon fill="midnightblue" stroke="midnightblue" points="530.343,-51.5001 540.343,-48 530.343,-44.5001 530.343,-51.5001"/>
</g>
</g>
</svg>
