<?xml version="1.0" encoding="UTF-8" standalone="no"?>
<!DOCTYPE svg PUBLIC "-//W3C//DTD SVG 1.1//EN"
 "http://www.w3.org/Graphics/SVG/1.1/DTD/svg11.dtd">
<!-- Generated by graphviz version 2.36.0 (20140111.2315)
 -->
<!-- Title: backend.Turtle.moveToPoint Pages: 1 -->
<svg width="492pt" height="66pt"
 viewBox="0.00 0.00 492.00 66.00" xmlns="http://www.w3.org/2000/svg" xmlns:xlink="http://www.w3.org/1999/xlink">
<g id="graph0" class="graph" transform="scale(1 1) rotate(0) translate(4 62)">
<title>backend.Turtle.moveToPoint</title>
<polygon fill="white" stroke="none" points="-4,4 -4,-62 488,-62 488,4 -4,4"/>
<!-- Node1 -->
<g id="node1" class="node"><title>Node1</title>
<polygon fill="#bfbfbf" stroke="black" points="0.5,-19.5 0.5,-38.5 149.5,-38.5 149.5,-19.5 0.5,-19.5"/>
<text text-anchor="middle" x="75" y="-26.5" font-family="Helvetica,sans-Serif" font-size="10.00">backend.Turtle.moveToPoint</text>
</g>
<!-- Node2 -->
<g id="node2" class="node"><title>Node2</title>
<g id="a_node2"><a xlink:href="../../de/dc9/classbackend_1_1_pen.html#a135b3b945d4033d3a3e8e56552ff8782" target="_top" xlink:title="backend.Pen.drawLine">
<polygon fill="white" stroke="black" points="197.5,-38.5 197.5,-57.5 320.5,-57.5 320.5,-38.5 197.5,-38.5"/>
<text text-anchor="middle" x="259" y="-45.5" font-family="Helvetica,sans-Serif" font-size="10.00">backend.Pen.drawLine</text>
</a>
</g>
</g>
<!-- Node1&#45;&gt;Node2 -->
<g id="edge1" class="edge"><title>Node1&#45;&gt;Node2</title>
<path fill="none" stroke="midnightblue" d="M149.502,-36.6733C161.911,-37.9687 174.771,-39.3113 187.112,-40.5996"/>
<polygon fill="midnightblue" stroke="midnightblue" points="187.025,-44.1095 197.334,-41.6668 187.752,-37.1473 187.025,-44.1095"/>
</g>
<!-- Node4 -->
<g id="node4" class="node"><title>Node4</title>
<g id="a_node4"><a xlink:href="../../df/de2/classbackend_1_1_turtle.html#af37d25ad088eda24bbfd1a22df39c1cc" target="_top" xlink:title="backend.Turtle.jumpToPoint">
<polygon fill="white" stroke="black" points="186,-0.5 186,-19.5 332,-19.5 332,-0.5 186,-0.5"/>
<text text-anchor="middle" x="259" y="-7.5" font-family="Helvetica,sans-Serif" font-size="10.00">backend.Turtle.jumpToPoint</text>
</a>
</g>
</g>
<!-- Node1&#45;&gt;Node4 -->
<g id="edge3" class="edge"><title>Node1&#45;&gt;Node4</title>
<path fill="none" stroke="midnightblue" d="M149.502,-21.3267C158.153,-20.4236 167.023,-19.4976 175.783,-18.5831"/>
<polygon fill="midnightblue" stroke="midnightblue" points="176.415,-22.0362 185.997,-17.5168 175.688,-15.0741 176.415,-22.0362"/>
</g>
<!-- Node3 -->
<g id="node3" class="node"><title>Node3</title>
<g id="a_node3"><a xlink:href="../../de/dc9/classbackend_1_1_pen.html#abfd32c7785accc4f570322aa0b29f650" target="_top" xlink:title="backend.Pen.isDown">
<polygon fill="white" stroke="black" points="368.5,-38.5 368.5,-57.5 483.5,-57.5 483.5,-38.5 368.5,-38.5"/>
<text text-anchor="middle" x="426" y="-45.5" font-family="Helvetica,sans-Serif" font-size="10.00">backend.Pen.isDown</text>
</a>
</g>
</g>
<!-- Node2&#45;&gt;Node3 -->
<g id="edge2" class="edge"><title>Node2&#45;&gt;Node3</title>
<path fill="none" stroke="midnightblue" d="M320.503,-48C332.718,-48 345.628,-48 358.049,-48"/>
<polygon fill="midnightblue" stroke="midnightblue" points="358.343,-51.5001 368.343,-48 358.343,-44.5001 358.343,-51.5001"/>
</g>
</g>
</svg>
