<?xml version="1.0" encoding="UTF-8" standalone="no"?>
<!DOCTYPE svg PUBLIC "-//W3C//DTD SVG 1.1//EN"
 "http://www.w3.org/Graphics/SVG/1.1/DTD/svg11.dtd">
<!-- Generated by graphviz version 2.36.0 (20140111.2315)
 -->
<!-- Title: backend.Turtle.Turtle Pages: 1 -->
<svg width="516pt" height="38pt"
 viewBox="0.00 0.00 516.00 38.00" xmlns="http://www.w3.org/2000/svg" xmlns:xlink="http://www.w3.org/1999/xlink">
<g id="graph0" class="graph" transform="scale(1 1) rotate(0) translate(4 34)">
<title>backend.Turtle.Turtle</title>
<polygon fill="white" stroke="none" points="-4,4 -4,-34 512,-34 512,4 -4,4"/>
<!-- Node1 -->
<g id="node1" class="node"><title>Node1</title>
<polygon fill="#bfbfbf" stroke="black" points="0,-5.5 0,-24.5 114,-24.5 114,-5.5 0,-5.5"/>
<text text-anchor="middle" x="57" y="-12.5" font-family="Helvetica,sans-Serif" font-size="10.00">backend.Turtle.Turtle</text>
</g>
<!-- Node2 -->
<g id="node2" class="node"><title>Node2</title>
<g id="a_node2"><a xlink:href="../../df/de2/classbackend_1_1_turtle.html#af532e9713b2bf676153170ac8b9a786e" target="_top" xlink:title="backend.Turtle.setImageByName">
<polygon fill="white" stroke="black" points="150.5,-5.5 150.5,-24.5 325.5,-24.5 325.5,-5.5 150.5,-5.5"/>
<text text-anchor="middle" x="238" y="-12.5" font-family="Helvetica,sans-Serif" font-size="10.00">backend.Turtle.setImageByName</text>
</a>
</g>
</g>
<!-- Node1&#45;&gt;Node2 -->
<g id="edge1" class="edge"><title>Node1&#45;&gt;Node2</title>
<path fill="none" stroke="midnightblue" d="M114.146,-15C122.489,-15 131.283,-15 140.175,-15"/>
<polygon fill="midnightblue" stroke="midnightblue" points="140.236,-18.5001 150.236,-15 140.236,-11.5001 140.236,-18.5001"/>
</g>
<!-- Node3 -->
<g id="node3" class="node"><title>Node3</title>
<g id="a_node3"><a xlink:href="../../df/de2/classbackend_1_1_turtle.html#ad21ba1e0d4e1a4701840bc6e1d178004" target="_top" xlink:title="backend.Turtle.setImageBy\lFullPath">
<polygon fill="white" stroke="black" points="362,-0 362,-30 508,-30 508,-0 362,-0"/>
<text text-anchor="start" x="370" y="-18" font-family="Helvetica,sans-Serif" font-size="10.00">backend.Turtle.setImageBy</text>
<text text-anchor="middle" x="435" y="-7" font-family="Helvetica,sans-Serif" font-size="10.00">FullPath</text>
</a>
</g>
</g>
<!-- Node2&#45;&gt;Node3 -->
<g id="edge2" class="edge"><title>Node2&#45;&gt;Node3</title>
<path fill="none" stroke="midnightblue" d="M325.665,-15C334.366,-15 343.182,-15 351.834,-15"/>
<polygon fill="midnightblue" stroke="midnightblue" points="351.897,-18.5001 361.897,-15 351.897,-11.5001 351.897,-18.5001"/>
</g>
</g>
</svg>
