<?xml version="1.0" encoding="UTF-8" standalone="no"?>
<!DOCTYPE svg PUBLIC "-//W3C//DTD SVG 1.1//EN"
 "http://www.w3.org/Graphics/SVG/1.1/DTD/svg11.dtd">
<!-- Generated by graphviz version 2.36.0 (20140111.2315)
 -->
<!-- Title: backend.command.Command Pages: 1 -->
<svg width="297pt" height="108pt"
 viewBox="0.00 0.00 297.00 108.00" xmlns="http://www.w3.org/2000/svg" xmlns:xlink="http://www.w3.org/1999/xlink">
<g id="graph0" class="graph" transform="scale(1 1) rotate(0) translate(4 104)">
<title>backend.command.Command</title>
<polygon fill="white" stroke="none" points="-4,4 -4,-104 293,-104 293,4 -4,4"/>
<!-- Node1 -->
<g id="node1" class="node"><title>Node1</title>
<polygon fill="#bfbfbf" stroke="black" points="49,-0.5 49,-19.5 211,-19.5 211,-0.5 49,-0.5"/>
<text text-anchor="middle" x="130" y="-7.5" font-family="Helvetica,sans-Serif" font-size="10.00">backend.command.Command</text>
</g>
<!-- Node1&#45;&gt;Node1 -->
<g id="edge2" class="edge"><title>Node1&#45;&gt;Node1</title>
<path fill="none" stroke="#9a32cd" stroke-dasharray="5,2" d="M221.171,-14.2335C226.084,-13.1979 229,-11.7867 229,-10 229,-7.21094 221.894,-5.33704 211.18,-4.3783"/>
<polygon fill="#9a32cd" stroke="#9a32cd" points="220.603,-10.7787 211.18,-15.6217 221.566,-17.7121 220.603,-10.7787"/>
<text text-anchor="middle" x="246.5" y="-7.5" font-family="Helvetica,sans-Serif" font-size="10.00"> parent</text>
</g>
<!-- Node2 -->
<g id="node2" class="node"><title>Node2</title>
<g id="a_node2"><a xlink:href="../../d0/d6a/classbackend_1_1_string_pair.html" target="_top" xlink:title="backend.StringPair">
<polygon fill="white" stroke="black" points="0,-74.5 0,-93.5 106,-93.5 106,-74.5 0,-74.5"/>
<text text-anchor="middle" x="53" y="-81.5" font-family="Helvetica,sans-Serif" font-size="10.00">backend.StringPair</text>
</a>
</g>
</g>
<!-- Node2&#45;&gt;Node1 -->
<g id="edge1" class="edge"><title>Node2&#45;&gt;Node1</title>
<path fill="none" stroke="#9a32cd" stroke-dasharray="5,2" d="M69.5857,-67.4913C85.2817,-52.8145 108.264,-31.325 120.877,-19.531"/>
<polygon fill="#9a32cd" stroke="#9a32cd" points="67.0491,-65.0715 62.1353,-74.4579 71.83,-70.1844 67.0491,-65.0715"/>
<text text-anchor="middle" x="125" y="-41.5" font-family="Helvetica,sans-Serif" font-size="10.00"> stringPair</text>
</g>
<!-- Node3 -->
<g id="node3" class="node"><title>Node3</title>
<polygon fill="white" stroke="#bfbfbf" points="124.5,-69 124.5,-99 289.5,-99 289.5,-69 124.5,-69"/>
<text text-anchor="start" x="132.5" y="-87" font-family="Helvetica,sans-Serif" font-size="10.00">ArrayList&lt; backend.command.</text>
<text text-anchor="middle" x="207" y="-76" font-family="Helvetica,sans-Serif" font-size="10.00">Command &gt;</text>
</g>
<!-- Node3&#45;&gt;Node1 -->
<g id="edge3" class="edge"><title>Node3&#45;&gt;Node1</title>
<path fill="none" stroke="#9a32cd" stroke-dasharray="5,2" d="M184.361,-61.8307C169.362,-47.8062 150.472,-30.1426 139.367,-19.7589"/>
<polygon fill="#9a32cd" stroke="#9a32cd" points="182.093,-64.5016 191.787,-68.7751 186.874,-59.3887 182.093,-64.5016"/>
<text text-anchor="middle" x="191" y="-41.5" font-family="Helvetica,sans-Serif" font-size="10.00"> params</text>
</g>
</g>
</svg>
