<?xml version="1.0" encoding="UTF-8" standalone="no"?>
<!DOCTYPE svg PUBLIC "-//W3C//DTD SVG 1.1//EN"
 "http://www.w3.org/Graphics/SVG/1.1/DTD/svg11.dtd">
<!-- Generated by graphviz version 2.36.0 (20140111.2315)
 -->
<!-- Title: backend.command.ClearScreen.execute Pages: 1 -->
<svg width="568pt" height="66pt"
 viewBox="0.00 0.00 568.00 66.00" xmlns="http://www.w3.org/2000/svg" xmlns:xlink="http://www.w3.org/1999/xlink">
<g id="graph0" class="graph" transform="scale(1 1) rotate(0) translate(4 62)">
<title>backend.command.ClearScreen.execute</title>
<polygon fill="white" stroke="none" points="-4,4 -4,-62 564,-62 564,4 -4,4"/>
<!-- Node1 -->
<g id="node1" class="node"><title>Node1</title>
<polygon fill="#bfbfbf" stroke="black" points="0,-19.5 0,-38.5 212,-38.5 212,-19.5 0,-19.5"/>
<text text-anchor="middle" x="106" y="-26.5" font-family="Helvetica,sans-Serif" font-size="10.00">backend.command.ClearScreen.execute</text>
</g>
<!-- Node2 -->
<g id="node2" class="node"><title>Node2</title>
<g id="a_node2"><a xlink:href="../../df/de2/classbackend_1_1_turtle.html#a8bb7b6d88d2696aa884d1e2c5d7dc812" target="_top" xlink:title="backend.Turtle.clearLines">
<polygon fill="white" stroke="black" points="252.5,-38.5 252.5,-57.5 389.5,-57.5 389.5,-38.5 252.5,-38.5"/>
<text text-anchor="middle" x="321" y="-45.5" font-family="Helvetica,sans-Serif" font-size="10.00">backend.Turtle.clearLines</text>
</a>
</g>
</g>
<!-- Node1&#45;&gt;Node2 -->
<g id="edge1" class="edge"><title>Node1&#45;&gt;Node2</title>
<path fill="none" stroke="midnightblue" d="M212.252,-38.3887C222.365,-39.2907 232.492,-40.1941 242.27,-41.0663"/>
<polygon fill="midnightblue" stroke="midnightblue" points="242.046,-44.5602 252.317,-41.9626 242.668,-37.5878 242.046,-44.5602"/>
</g>
<!-- Node4 -->
<g id="node4" class="node"><title>Node4</title>
<g id="a_node4"><a xlink:href="../../df/de2/classbackend_1_1_turtle.html#af37d25ad088eda24bbfd1a22df39c1cc" target="_top" xlink:title="backend.Turtle.jumpToPoint">
<polygon fill="white" stroke="black" points="248,-0.5 248,-19.5 394,-19.5 394,-0.5 248,-0.5"/>
<text text-anchor="middle" x="321" y="-7.5" font-family="Helvetica,sans-Serif" font-size="10.00">backend.Turtle.jumpToPoint</text>
</a>
</g>
</g>
<!-- Node1&#45;&gt;Node4 -->
<g id="edge3" class="edge"><title>Node1&#45;&gt;Node4</title>
<path fill="none" stroke="midnightblue" d="M212.252,-19.6113C220.821,-18.847 229.401,-18.0816 237.769,-17.3351"/>
<polygon fill="midnightblue" stroke="midnightblue" points="238.208,-20.81 247.858,-16.4352 237.586,-13.8376 238.208,-20.81"/>
</g>
<!-- Node3 -->
<g id="node3" class="node"><title>Node3</title>
<g id="a_node3"><a xlink:href="../../de/dc9/classbackend_1_1_pen.html#a3cdef5c7981973c48c55944219981c5f" target="_top" xlink:title="backend.Pen.clearLines">
<polygon fill="white" stroke="black" points="430.5,-38.5 430.5,-57.5 559.5,-57.5 559.5,-38.5 430.5,-38.5"/>
<text text-anchor="middle" x="495" y="-45.5" font-family="Helvetica,sans-Serif" font-size="10.00">backend.Pen.clearLines</text>
</a>
</g>
</g>
<!-- Node2&#45;&gt;Node3 -->
<g id="edge2" class="edge"><title>Node2&#45;&gt;Node3</title>
<path fill="none" stroke="midnightblue" d="M389.979,-48C399.979,-48 410.32,-48 420.427,-48"/>
<polygon fill="midnightblue" stroke="midnightblue" points="420.435,-51.5001 430.435,-48 420.435,-44.5001 420.435,-51.5001"/>
</g>
</g>
</svg>
