<?xml version="1.0" encoding="UTF-8" standalone="no"?>
<!DOCTYPE svg PUBLIC "-//W3C//DTD SVG 1.1//EN"
 "http://www.w3.org/Graphics/SVG/1.1/DTD/svg11.dtd">
<!-- Generated by graphviz version 2.36.0 (20140111.2315)
 -->
<!-- Title: backend.command.GetShape Pages: 1 -->
<svg width="198pt" height="376pt"
 viewBox="0.00 0.00 198.00 376.00" xmlns="http://www.w3.org/2000/svg" xmlns:xlink="http://www.w3.org/1999/xlink">
<g id="graph0" class="graph" transform="scale(1 1) rotate(0) translate(4 372)">
<title>backend.command.GetShape</title>
<polygon fill="white" stroke="none" points="-4,4 -4,-372 194,-372 194,4 -4,4"/>
<!-- Node1 -->
<g id="node1" class="node"><title>Node1</title>
<polygon fill="#bfbfbf" stroke="black" points="15,-56.5 15,-75.5 175,-75.5 175,-56.5 15,-56.5"/>
<text text-anchor="middle" x="95" y="-63.5" font-family="Helvetica,sans-Serif" font-size="10.00">backend.command.GetShape</text>
</g>
<!-- Node7 -->
<g id="node7" class="node"><title>Node7</title>
<g id="a_node7"><a xlink:href="../../de/d8f/classbackend_1_1command_1_1_stamp.html" target="_top" xlink:title="backend.command.Stamp">
<polygon fill="white" stroke="black" points="23,-0.5 23,-19.5 167,-19.5 167,-0.5 23,-0.5"/>
<text text-anchor="middle" x="95" y="-7.5" font-family="Helvetica,sans-Serif" font-size="10.00">backend.command.Stamp</text>
</a>
</g>
</g>
<!-- Node1&#45;&gt;Node7 -->
<g id="edge6" class="edge"><title>Node1&#45;&gt;Node7</title>
<path fill="none" stroke="midnightblue" d="M95,-45.8045C95,-36.9102 95,-26.7798 95,-19.7511"/>
<polygon fill="midnightblue" stroke="midnightblue" points="91.5001,-46.083 95,-56.083 98.5001,-46.083 91.5001,-46.083"/>
</g>
<!-- Node2 -->
<g id="node2" class="node"><title>Node2</title>
<g id="a_node2"><a xlink:href="../../d9/d76/classbackend_1_1command_1_1_turtle_query.html" target="_top" xlink:title="backend.command.TurtleQuery">
<polygon fill="white" stroke="black" points="12,-112.5 12,-131.5 178,-131.5 178,-112.5 12,-112.5"/>
<text text-anchor="middle" x="95" y="-119.5" font-family="Helvetica,sans-Serif" font-size="10.00">backend.command.TurtleQuery</text>
</a>
</g>
</g>
<!-- Node2&#45;&gt;Node1 -->
<g id="edge1" class="edge"><title>Node2&#45;&gt;Node1</title>
<path fill="none" stroke="midnightblue" d="M95,-101.805C95,-92.9102 95,-82.7798 95,-75.7511"/>
<polygon fill="midnightblue" stroke="midnightblue" points="91.5001,-102.083 95,-112.083 98.5001,-102.083 91.5001,-102.083"/>
</g>
<!-- Node3 -->
<g id="node3" class="node"><title>Node3</title>
<g id="a_node3"><a xlink:href="../../d8/db4/classbackend_1_1command_1_1_active_turtle_command.html" target="_top" xlink:title="backend.command.ActiveTurtle\lCommand">
<polygon fill="white" stroke="black" points="11.5,-169 11.5,-199 178.5,-199 178.5,-169 11.5,-169"/>
<text text-anchor="start" x="19.5" y="-187" font-family="Helvetica,sans-Serif" font-size="10.00">backend.command.ActiveTurtle</text>
<text text-anchor="middle" x="95" y="-176" font-family="Helvetica,sans-Serif" font-size="10.00">Command</text>
</a>
</g>
</g>
<!-- Node3&#45;&gt;Node2 -->
<g id="edge2" class="edge"><title>Node3&#45;&gt;Node2</title>
<path fill="none" stroke="midnightblue" d="M95,-158.586C95,-149.074 95,-138.786 95,-131.731"/>
<polygon fill="midnightblue" stroke="midnightblue" points="91.5001,-158.781 95,-168.781 98.5001,-158.781 91.5001,-158.781"/>
</g>
<!-- Node4 -->
<g id="node4" class="node"><title>Node4</title>
<g id="a_node4"><a xlink:href="../../d5/dfc/classbackend_1_1command_1_1_turtle_command.html" target="_top" xlink:title="backend.command.TurtleCommand">
<polygon fill="white" stroke="black" points="1,-236.5 1,-255.5 189,-255.5 189,-236.5 1,-236.5"/>
<text text-anchor="middle" x="95" y="-243.5" font-family="Helvetica,sans-Serif" font-size="10.00">backend.command.TurtleCommand</text>
</a>
</g>
</g>
<!-- Node4&#45;&gt;Node3 -->
<g id="edge3" class="edge"><title>Node4&#45;&gt;Node3</title>
<path fill="none" stroke="midnightblue" d="M95,-226.371C95,-217.585 95,-207.272 95,-199.141"/>
<polygon fill="midnightblue" stroke="midnightblue" points="91.5001,-226.403 95,-236.403 98.5001,-226.403 91.5001,-226.403"/>
</g>
<!-- Node5 -->
<g id="node5" class="node"><title>Node5</title>
<g id="a_node5"><a xlink:href="../../dc/d67/classbackend_1_1command_1_1_model_command.html" target="_top" xlink:title="backend.command.ModelCommand">
<polygon fill="white" stroke="black" points="-0.5,-292.5 -0.5,-311.5 190.5,-311.5 190.5,-292.5 -0.5,-292.5"/>
<text text-anchor="middle" x="95" y="-299.5" font-family="Helvetica,sans-Serif" font-size="10.00">backend.command.ModelCommand</text>
</a>
</g>
</g>
<!-- Node5&#45;&gt;Node4 -->
<g id="edge4" class="edge"><title>Node5&#45;&gt;Node4</title>
<path fill="none" stroke="midnightblue" d="M95,-281.805C95,-272.91 95,-262.78 95,-255.751"/>
<polygon fill="midnightblue" stroke="midnightblue" points="91.5001,-282.083 95,-292.083 98.5001,-282.083 91.5001,-282.083"/>
</g>
<!-- Node6 -->
<g id="node6" class="node"><title>Node6</title>
<g id="a_node6"><a xlink:href="../../dc/d83/classbackend_1_1command_1_1_command.html" target="_top" xlink:title="backend.command.Command">
<polygon fill="white" stroke="black" points="14,-348.5 14,-367.5 176,-367.5 176,-348.5 14,-348.5"/>
<text text-anchor="middle" x="95" y="-355.5" font-family="Helvetica,sans-Serif" font-size="10.00">backend.command.Command</text>
</a>
</g>
</g>
<!-- Node6&#45;&gt;Node5 -->
<g id="edge5" class="edge"><title>Node6&#45;&gt;Node5</title>
<path fill="none" stroke="midnightblue" d="M95,-337.805C95,-328.91 95,-318.78 95,-311.751"/>
<polygon fill="midnightblue" stroke="midnightblue" points="91.5001,-338.083 95,-348.083 98.5001,-338.083 91.5001,-338.083"/>
</g>
</g>
</svg>
