<?xml version="1.0" encoding="UTF-8" standalone="no"?>
<!DOCTYPE svg PUBLIC "-//W3C//DTD SVG 1.1//EN"
 "http://www.w3.org/Graphics/SVG/1.1/DTD/svg11.dtd">
<!-- Generated by graphviz version 2.36.0 (20140111.2315)
 -->
<!-- Title: backend.command.TurtleCommand.activeTurtles Pages: 1 -->
<svg width="640pt" height="66pt"
 viewBox="0.00 0.00 640.00 66.00" xmlns="http://www.w3.org/2000/svg" xmlns:xlink="http://www.w3.org/1999/xlink">
<g id="graph0" class="graph" transform="scale(1 1) rotate(0) translate(4 62)">
<title>backend.command.TurtleCommand.activeTurtles</title>
<polygon fill="white" stroke="none" points="-4,4 -4,-62 636,-62 636,4 -4,4"/>
<!-- Node1 -->
<g id="node1" class="node"><title>Node1</title>
<polygon fill="#bfbfbf" stroke="black" points="0.5,-14 0.5,-44 219.5,-44 219.5,-14 0.5,-14"/>
<text text-anchor="start" x="8.5" y="-32" font-family="Helvetica,sans-Serif" font-size="10.00">backend.command.TurtleCommand.active</text>
<text text-anchor="middle" x="110" y="-21" font-family="Helvetica,sans-Serif" font-size="10.00">Turtles</text>
</g>
<!-- Node2 -->
<g id="node2" class="node"><title>Node2</title>
<g id="a_node2"><a xlink:href="../../d1/d68/classbackend_1_1_grid.html#af86d95bc9c540e24acaf580162d2f8b1" target="_top" xlink:title="backend.Grid.getActiveTurtles">
<polygon fill="white" stroke="black" points="283,-38.5 283,-57.5 441,-57.5 441,-38.5 283,-38.5"/>
<text text-anchor="middle" x="362" y="-45.5" font-family="Helvetica,sans-Serif" font-size="10.00">backend.Grid.getActiveTurtles</text>
</a>
</g>
</g>
<!-- Node1&#45;&gt;Node2 -->
<g id="edge1" class="edge"><title>Node1&#45;&gt;Node2</title>
<path fill="none" stroke="midnightblue" d="M219.563,-37.2508C237.298,-38.5986 255.482,-39.9806 272.653,-41.2857"/>
<polygon fill="midnightblue" stroke="midnightblue" points="272.399,-44.7764 282.636,-42.0443 272.93,-37.7965 272.399,-44.7764"/>
</g>
<!-- Node3 -->
<g id="node3" class="node"><title>Node3</title>
<g id="a_node3"><a xlink:href="../../dc/d67/classbackend_1_1command_1_1_model_command.html#ab57d058d26b965a9038487f69f40c066" target="_top" xlink:title="backend.command.ModelCommand.grid">
<polygon fill="white" stroke="black" points="256,-0.5 256,-19.5 468,-19.5 468,-0.5 256,-0.5"/>
<text text-anchor="middle" x="362" y="-7.5" font-family="Helvetica,sans-Serif" font-size="10.00">backend.command.ModelCommand.grid</text>
</a>
</g>
</g>
<!-- Node1&#45;&gt;Node3 -->
<g id="edge2" class="edge"><title>Node1&#45;&gt;Node3</title>
<path fill="none" stroke="midnightblue" d="M219.563,-20.7492C228.182,-20.0942 236.907,-19.4311 245.57,-18.7727"/>
<polygon fill="midnightblue" stroke="midnightblue" points="245.995,-22.2505 255.701,-18.0027 245.465,-15.2707 245.995,-22.2505"/>
</g>
<!-- Node4 -->
<g id="node4" class="node"><title>Node4</title>
<g id="a_node4"><a xlink:href="../../d3/dac/classbackend_1_1_model.html#a341c789b1a3e0bf796fb626603928e95" target="_top" xlink:title="backend.Model.getGrid">
<polygon fill="white" stroke="black" points="504.5,-0.5 504.5,-19.5 631.5,-19.5 631.5,-0.5 504.5,-0.5"/>
<text text-anchor="middle" x="568" y="-7.5" font-family="Helvetica,sans-Serif" font-size="10.00">backend.Model.getGrid</text>
</a>
</g>
</g>
<!-- Node3&#45;&gt;Node4 -->
<g id="edge3" class="edge"><title>Node3&#45;&gt;Node4</title>
<path fill="none" stroke="midnightblue" d="M468.287,-10C477.083,-10 485.847,-10 494.316,-10"/>
<polygon fill="midnightblue" stroke="midnightblue" points="494.482,-13.5001 504.482,-10 494.482,-6.5001 494.482,-13.5001"/>
</g>
</g>
</svg>
