<?xml version="1.0" encoding="UTF-8" standalone="no"?>
<!DOCTYPE svg PUBLIC "-//W3C//DTD SVG 1.1//EN"
 "http://www.w3.org/Graphics/SVG/1.1/DTD/svg11.dtd">
<!-- Generated by graphviz version 2.36.0 (20140111.2315)
 -->
<!-- Title: backend.command.TurtleCommand.allTurtles Pages: 1 -->
<svg width="622pt" height="66pt"
 viewBox="0.00 0.00 622.00 66.00" xmlns="http://www.w3.org/2000/svg" xmlns:xlink="http://www.w3.org/1999/xlink">
<g id="graph0" class="graph" transform="scale(1 1) rotate(0) translate(4 62)">
<title>backend.command.TurtleCommand.allTurtles</title>
<polygon fill="white" stroke="none" points="-4,4 -4,-62 618,-62 618,4 -4,4"/>
<!-- Node1 -->
<g id="node1" class="node"><title>Node1</title>
<polygon fill="#bfbfbf" stroke="black" points="0.5,-14 0.5,-44 201.5,-44 201.5,-14 0.5,-14"/>
<text text-anchor="start" x="8.5" y="-32" font-family="Helvetica,sans-Serif" font-size="10.00">backend.command.TurtleCommand.all</text>
<text text-anchor="middle" x="101" y="-21" font-family="Helvetica,sans-Serif" font-size="10.00">Turtles</text>
</g>
<!-- Node2 -->
<g id="node2" class="node"><title>Node2</title>
<g id="a_node2"><a xlink:href="../../d1/d68/classbackend_1_1_grid.html#ac089ef72a1531ec8e0cf131de056d0b2" target="_top" xlink:title="backend.Grid.getAllTurtles">
<polygon fill="white" stroke="black" points="274,-38.5 274,-57.5 414,-57.5 414,-38.5 274,-38.5"/>
<text text-anchor="middle" x="344" y="-45.5" font-family="Helvetica,sans-Serif" font-size="10.00">backend.Grid.getAllTurtles</text>
</a>
</g>
</g>
<!-- Node1&#45;&gt;Node2 -->
<g id="edge1" class="edge"><title>Node1&#45;&gt;Node2</title>
<path fill="none" stroke="midnightblue" d="M201.764,-36.8652C222.384,-38.4909 243.841,-40.1824 263.618,-41.7416"/>
<polygon fill="midnightblue" stroke="midnightblue" points="263.549,-45.247 273.793,-42.5439 264.099,-38.2687 263.549,-45.247"/>
</g>
<!-- Node3 -->
<g id="node3" class="node"><title>Node3</title>
<g id="a_node3"><a xlink:href="../../dc/d67/classbackend_1_1command_1_1_model_command.html#ab57d058d26b965a9038487f69f40c066" target="_top" xlink:title="backend.command.ModelCommand.grid">
<polygon fill="white" stroke="black" points="238,-0.5 238,-19.5 450,-19.5 450,-0.5 238,-0.5"/>
<text text-anchor="middle" x="344" y="-7.5" font-family="Helvetica,sans-Serif" font-size="10.00">backend.command.ModelCommand.grid</text>
</a>
</g>
</g>
<!-- Node1&#45;&gt;Node3 -->
<g id="edge2" class="edge"><title>Node1&#45;&gt;Node3</title>
<path fill="none" stroke="midnightblue" d="M201.764,-21.1348C210.326,-20.4597 219.033,-19.7733 227.704,-19.0897"/>
<polygon fill="midnightblue" stroke="midnightblue" points="228.161,-22.5646 237.855,-18.2894 227.611,-15.5863 228.161,-22.5646"/>
</g>
<!-- Node4 -->
<g id="node4" class="node"><title>Node4</title>
<g id="a_node4"><a xlink:href="../../d3/dac/classbackend_1_1_model.html#a341c789b1a3e0bf796fb626603928e95" target="_top" xlink:title="backend.Model.getGrid">
<polygon fill="white" stroke="black" points="486.5,-0.5 486.5,-19.5 613.5,-19.5 613.5,-0.5 486.5,-0.5"/>
<text text-anchor="middle" x="550" y="-7.5" font-family="Helvetica,sans-Serif" font-size="10.00">backend.Model.getGrid</text>
</a>
</g>
</g>
<!-- Node3&#45;&gt;Node4 -->
<g id="edge3" class="edge"><title>Node3&#45;&gt;Node4</title>
<path fill="none" stroke="midnightblue" d="M450.287,-10C459.083,-10 467.847,-10 476.316,-10"/>
<polygon fill="midnightblue" stroke="midnightblue" points="476.482,-13.5001 486.482,-10 476.482,-6.5001 476.482,-13.5001"/>
</g>
</g>
</svg>
