<?xml version="1.0" encoding="UTF-8" standalone="no"?>
<!DOCTYPE svg PUBLIC "-//W3C//DTD SVG 1.1//EN"
 "http://www.w3.org/Graphics/SVG/1.1/DTD/svg11.dtd">
<!-- Generated by graphviz version 2.36.0 (20140111.2315)
 -->
<!-- Title: backend.command.TurtleCommand.activeTurtles Pages: 1 -->
<svg width="434pt" height="77pt"
 viewBox="0.00 0.00 434.00 77.00" xmlns="http://www.w3.org/2000/svg" xmlns:xlink="http://www.w3.org/1999/xlink">
<g id="graph0" class="graph" transform="scale(1 1) rotate(0) translate(4 73)">
<title>backend.command.TurtleCommand.activeTurtles</title>
<polygon fill="white" stroke="none" points="-4,4 -4,-73 430,-73 430,4 -4,4"/>
<!-- Node1 -->
<g id="node1" class="node"><title>Node1</title>
<polygon fill="#bfbfbf" stroke="black" points="0.5,-22 0.5,-52 219.5,-52 219.5,-22 0.5,-22"/>
<text text-anchor="start" x="8.5" y="-40" font-family="Helvetica,sans-Serif" font-size="10.00">backend.command.TurtleCommand.active</text>
<text text-anchor="middle" x="110" y="-29" font-family="Helvetica,sans-Serif" font-size="10.00">Turtles</text>
</g>
<!-- Node2 -->
<g id="node2" class="node"><title>Node2</title>
<g id="a_node2"><a xlink:href="../../d4/d75/classbackend_1_1command_1_1_ask.html#a453b95a58b91a82a2cca53f444a31ff6" target="_top" xlink:title="backend.command.Ask.execute">
<polygon fill="white" stroke="black" points="256,-49.5 256,-68.5 426,-68.5 426,-49.5 256,-49.5"/>
<text text-anchor="middle" x="341" y="-56.5" font-family="Helvetica,sans-Serif" font-size="10.00">backend.command.Ask.execute</text>
</a>
</g>
</g>
<!-- Node1&#45;&gt;Node2 -->
<g id="edge1" class="edge"><title>Node1&#45;&gt;Node2</title>
<path fill="none" stroke="midnightblue" d="M230.031,-48.4353C238.744,-49.2724 247.422,-50.106 255.862,-50.9169"/>
<polygon fill="midnightblue" stroke="midnightblue" points="230.088,-44.9248 219.799,-47.4523 229.419,-51.8927 230.088,-44.9248"/>
</g>
<!-- Node3 -->
<g id="node3" class="node"><title>Node3</title>
<g id="a_node3"><a xlink:href="../../d8/db4/classbackend_1_1command_1_1_active_turtle_command.html#a57112668aa5ac898122c5bd1a426afcd" target="_top" xlink:title="backend.command.ActiveTurtle\lCommand.execute">
<polygon fill="white" stroke="black" points="257.5,-0 257.5,-30 424.5,-30 424.5,-0 257.5,-0"/>
<text text-anchor="start" x="265.5" y="-18" font-family="Helvetica,sans-Serif" font-size="10.00">backend.command.ActiveTurtle</text>
<text text-anchor="middle" x="341" y="-7" font-family="Helvetica,sans-Serif" font-size="10.00">Command.execute</text>
</a>
</g>
</g>
<!-- Node1&#45;&gt;Node3 -->
<g id="edge2" class="edge"><title>Node1&#45;&gt;Node3</title>
<path fill="none" stroke="midnightblue" d="M229.831,-25.5839C239.073,-24.696 248.277,-23.8118 257.202,-22.9543"/>
<polygon fill="midnightblue" stroke="midnightblue" points="229.419,-22.1073 219.799,-26.5477 230.088,-29.0752 229.419,-22.1073"/>
</g>
</g>
</svg>
