<?xml version="1.0" encoding="UTF-8" standalone="no"?>
<!DOCTYPE svg PUBLIC "-//W3C//DTD SVG 1.1//EN"
 "http://www.w3.org/Graphics/SVG/1.1/DTD/svg11.dtd">
<!-- Generated by graphviz version 2.36.0 (20140111.2315)
 -->
<!-- Title: backend.command.TurtleCommand.allTurtles Pages: 1 -->
<svg width="462pt" height="66pt"
 viewBox="0.00 0.00 462.00 66.00" xmlns="http://www.w3.org/2000/svg" xmlns:xlink="http://www.w3.org/1999/xlink">
<g id="graph0" class="graph" transform="scale(1 1) rotate(0) translate(4 62)">
<title>backend.command.TurtleCommand.allTurtles</title>
<polygon fill="white" stroke="none" points="-4,4 -4,-62 458,-62 458,4 -4,4"/>
<!-- Node1 -->
<g id="node1" class="node"><title>Node1</title>
<polygon fill="#bfbfbf" stroke="black" points="0.5,-14 0.5,-44 201.5,-44 201.5,-14 0.5,-14"/>
<text text-anchor="start" x="8.5" y="-32" font-family="Helvetica,sans-Serif" font-size="10.00">backend.command.TurtleCommand.all</text>
<text text-anchor="middle" x="101" y="-21" font-family="Helvetica,sans-Serif" font-size="10.00">Turtles</text>
</g>
<!-- Node2 -->
<g id="node2" class="node"><title>Node2</title>
<g id="a_node2"><a xlink:href="../../da/d05/classbackend_1_1command_1_1_turtles.html#a0b113f00307be40c09e2e917f1982d62" target="_top" xlink:title="backend.command.Turtles.execute">
<polygon fill="white" stroke="black" points="254,-38.5 254,-57.5 438,-57.5 438,-38.5 254,-38.5"/>
<text text-anchor="middle" x="346" y="-45.5" font-family="Helvetica,sans-Serif" font-size="10.00">backend.command.Turtles.execute</text>
</a>
</g>
</g>
<!-- Node1&#45;&gt;Node2 -->
<g id="edge1" class="edge"><title>Node1&#45;&gt;Node2</title>
<path fill="none" stroke="midnightblue" d="M211.735,-37.5801C225.806,-38.6803 240.088,-39.797 253.819,-40.8706"/>
<polygon fill="midnightblue" stroke="midnightblue" points="211.781,-34.0731 201.539,-36.7828 211.235,-41.0518 211.781,-34.0731"/>
</g>
<!-- Node3 -->
<g id="node3" class="node"><title>Node3</title>
<g id="a_node3"><a xlink:href="../../d9/d32/classbackend_1_1command_1_1_clear_stamps.html#a72929c501b515e1a35243bdc05f14f8d" target="_top" xlink:title="backend.command.ClearStamps.execute">
<polygon fill="white" stroke="black" points="238.5,-0.5 238.5,-19.5 453.5,-19.5 453.5,-0.5 238.5,-0.5"/>
<text text-anchor="middle" x="346" y="-7.5" font-family="Helvetica,sans-Serif" font-size="10.00">backend.command.ClearStamps.execute</text>
</a>
</g>
</g>
<!-- Node1&#45;&gt;Node3 -->
<g id="edge2" class="edge"><title>Node1&#45;&gt;Node3</title>
<path fill="none" stroke="midnightblue" d="M211.773,-20.417C220.532,-19.7321 229.374,-19.0407 238.113,-18.3574"/>
<polygon fill="midnightblue" stroke="midnightblue" points="211.235,-16.9482 201.539,-21.2172 211.781,-23.9269 211.235,-16.9482"/>
</g>
</g>
</svg>
