<?xml version="1.0" encoding="UTF-8" standalone="no"?>
<!DOCTYPE svg PUBLIC "-//W3C//DTD SVG 1.1//EN"
 "http://www.w3.org/Graphics/SVG/1.1/DTD/svg11.dtd">
<!-- Generated by graphviz version 2.36.0 (20140111.2315)
 -->
<!-- Title: backend.command.Backward.execute Pages: 1 -->
<svg width="982pt" height="115pt"
 viewBox="0.00 0.00 982.00 115.00" xmlns="http://www.w3.org/2000/svg" xmlns:xlink="http://www.w3.org/1999/xlink">
<g id="graph0" class="graph" transform="scale(1 1) rotate(0) translate(4 111)">
<title>backend.command.Backward.execute</title>
<polygon fill="white" stroke="none" points="-4,4 -4,-111 978,-111 978,4 -4,4"/>
<!-- Node1 -->
<g id="node1" class="node"><title>Node1</title>
<polygon fill="#bfbfbf" stroke="black" points="0.5,-27.5 0.5,-46.5 199.5,-46.5 199.5,-27.5 0.5,-27.5"/>
<text text-anchor="middle" x="100" y="-34.5" font-family="Helvetica,sans-Serif" font-size="10.00">backend.command.Backward.execute</text>
</g>
<!-- Node2 -->
<g id="node2" class="node"><title>Node2</title>
<g id="a_node2"><a xlink:href="../../df/de2/classbackend_1_1_turtle.html#a1b45c4ecc2d7cd43cd947fdf9429305b" target="_top" xlink:title="backend.Turtle.move">
<polygon fill="white" stroke="black" points="260,-49.5 260,-68.5 376,-68.5 376,-49.5 260,-49.5"/>
<text text-anchor="middle" x="318" y="-56.5" font-family="Helvetica,sans-Serif" font-size="10.00">backend.Turtle.move</text>
</a>
</g>
</g>
<!-- Node1&#45;&gt;Node2 -->
<g id="edge1" class="edge"><title>Node1&#45;&gt;Node2</title>
<path fill="none" stroke="midnightblue" d="M194.484,-46.5216C213.07,-48.4145 232.24,-50.367 249.738,-52.1492"/>
<polygon fill="midnightblue" stroke="midnightblue" points="249.527,-55.6458 259.83,-53.1771 250.236,-48.6818 249.527,-55.6458"/>
</g>
<!-- Node8 -->
<g id="node8" class="node"><title>Node8</title>
<g id="a_node8"><a xlink:href="../../df/d09/classbackend_1_1command_1_1_pixels_turtle_command.html#af33732612b4329d162ffab3c28f41274" target="_top" xlink:title="backend.command.PixelsTurtle\lCommand.pixels">
<polygon fill="white" stroke="black" points="236,-0 236,-30 400,-30 400,-0 236,-0"/>
<text text-anchor="start" x="244" y="-18" font-family="Helvetica,sans-Serif" font-size="10.00">backend.command.PixelsTurtle</text>
<text text-anchor="middle" x="318" y="-7" font-family="Helvetica,sans-Serif" font-size="10.00">Command.pixels</text>
</a>
</g>
</g>
<!-- Node1&#45;&gt;Node8 -->
<g id="edge7" class="edge"><title>Node1&#45;&gt;Node8</title>
<path fill="none" stroke="midnightblue" d="M194.484,-27.4784C204.831,-26.4246 215.36,-25.3523 225.679,-24.3012"/>
<polygon fill="midnightblue" stroke="midnightblue" points="226.322,-27.754 235.915,-23.2586 225.612,-20.79 226.322,-27.754"/>
</g>
<!-- Node3 -->
<g id="node3" class="node"><title>Node3</title>
<g id="a_node3"><a xlink:href="../../d8/d98/classbackend_1_1_heading.html#a6cb6cb190412dc463cab0431243f9885" target="_top" xlink:title="backend.Heading.getAngleRads">
<polygon fill="white" stroke="black" points="453.5,-87.5 453.5,-106.5 622.5,-106.5 622.5,-87.5 453.5,-87.5"/>
<text text-anchor="middle" x="538" y="-94.5" font-family="Helvetica,sans-Serif" font-size="10.00">backend.Heading.getAngleRads</text>
</a>
</g>
</g>
<!-- Node2&#45;&gt;Node3 -->
<g id="edge2" class="edge"><title>Node2&#45;&gt;Node3</title>
<path fill="none" stroke="midnightblue" d="M373.729,-68.54C403.661,-73.7574 440.922,-80.2525 472.288,-85.72"/>
<polygon fill="midnightblue" stroke="midnightblue" points="471.796,-89.1868 482.248,-87.4561 472.998,-82.2908 471.796,-89.1868"/>
</g>
<!-- Node4 -->
<g id="node4" class="node"><title>Node4</title>
<g id="a_node4"><a xlink:href="../../df/de2/classbackend_1_1_turtle.html#a86c40ae8c6731af071b31f3bbbe21deb" target="_top" xlink:title="backend.Turtle.moveToPoint">
<polygon fill="white" stroke="black" points="463.5,-49.5 463.5,-68.5 612.5,-68.5 612.5,-49.5 463.5,-49.5"/>
<text text-anchor="middle" x="538" y="-56.5" font-family="Helvetica,sans-Serif" font-size="10.00">backend.Turtle.moveToPoint</text>
</a>
</g>
</g>
<!-- Node2&#45;&gt;Node4 -->
<g id="edge3" class="edge"><title>Node2&#45;&gt;Node4</title>
<path fill="none" stroke="midnightblue" d="M376.277,-59C399.776,-59 427.45,-59 453.15,-59"/>
<polygon fill="midnightblue" stroke="midnightblue" points="453.266,-62.5001 463.266,-59 453.266,-55.5001 453.266,-62.5001"/>
</g>
<!-- Node5 -->
<g id="node5" class="node"><title>Node5</title>
<g id="a_node5"><a xlink:href="../../de/dc9/classbackend_1_1_pen.html#a135b3b945d4033d3a3e8e56552ff8782" target="_top" xlink:title="backend.Pen.drawLine">
<polygon fill="white" stroke="black" points="687.5,-68.5 687.5,-87.5 810.5,-87.5 810.5,-68.5 687.5,-68.5"/>
<text text-anchor="middle" x="749" y="-75.5" font-family="Helvetica,sans-Serif" font-size="10.00">backend.Pen.drawLine</text>
</a>
</g>
</g>
<!-- Node4&#45;&gt;Node5 -->
<g id="edge4" class="edge"><title>Node4&#45;&gt;Node5</title>
<path fill="none" stroke="midnightblue" d="M612.686,-65.6987C633.693,-67.6085 656.525,-69.6841 677.347,-71.577"/>
<polygon fill="midnightblue" stroke="midnightblue" points="677.115,-75.0702 687.391,-72.4901 677.749,-68.099 677.115,-75.0702"/>
</g>
<!-- Node7 -->
<g id="node7" class="node"><title>Node7</title>
<g id="a_node7"><a xlink:href="../../df/de2/classbackend_1_1_turtle.html#af37d25ad088eda24bbfd1a22df39c1cc" target="_top" xlink:title="backend.Turtle.jumpToPoint">
<polygon fill="white" stroke="black" points="676,-30.5 676,-49.5 822,-49.5 822,-30.5 676,-30.5"/>
<text text-anchor="middle" x="749" y="-37.5" font-family="Helvetica,sans-Serif" font-size="10.00">backend.Turtle.jumpToPoint</text>
</a>
</g>
</g>
<!-- Node4&#45;&gt;Node7 -->
<g id="edge6" class="edge"><title>Node4&#45;&gt;Node7</title>
<path fill="none" stroke="midnightblue" d="M612.686,-52.3013C629.78,-50.7473 648.082,-49.0834 665.527,-47.4976"/>
<polygon fill="midnightblue" stroke="midnightblue" points="666.041,-50.9653 675.683,-46.5743 665.407,-43.9941 666.041,-50.9653"/>
</g>
<!-- Node6 -->
<g id="node6" class="node"><title>Node6</title>
<g id="a_node6"><a xlink:href="../../de/dc9/classbackend_1_1_pen.html#abfd32c7785accc4f570322aa0b29f650" target="_top" xlink:title="backend.Pen.isDown">
<polygon fill="white" stroke="black" points="858.5,-68.5 858.5,-87.5 973.5,-87.5 973.5,-68.5 858.5,-68.5"/>
<text text-anchor="middle" x="916" y="-75.5" font-family="Helvetica,sans-Serif" font-size="10.00">backend.Pen.isDown</text>
</a>
</g>
</g>
<!-- Node5&#45;&gt;Node6 -->
<g id="edge5" class="edge"><title>Node5&#45;&gt;Node6</title>
<path fill="none" stroke="midnightblue" d="M810.503,-78C822.718,-78 835.628,-78 848.049,-78"/>
<polygon fill="midnightblue" stroke="midnightblue" points="848.343,-81.5001 858.343,-78 848.343,-74.5001 848.343,-81.5001"/>
</g>
<!-- Node9 -->
<g id="node9" class="node"><title>Node9</title>
<g id="a_node9"><a xlink:href="../../dc/d83/classbackend_1_1command_1_1_command.html#ae218516ae55b1b0d4820d55c901793ea" target="_top" xlink:title="backend.command.Command.execute\lParam">
<polygon fill="white" stroke="black" points="436.5,-0 436.5,-30 639.5,-30 639.5,-0 436.5,-0"/>
<text text-anchor="start" x="444.5" y="-18" font-family="Helvetica,sans-Serif" font-size="10.00">backend.command.Command.execute</text>
<text text-anchor="middle" x="538" y="-7" font-family="Helvetica,sans-Serif" font-size="10.00">Param</text>
</a>
</g>
</g>
<!-- Node8&#45;&gt;Node9 -->
<g id="edge8" class="edge"><title>Node8&#45;&gt;Node9</title>
<path fill="none" stroke="midnightblue" d="M400.175,-15C408.615,-15 417.293,-15 425.989,-15"/>
<polygon fill="midnightblue" stroke="midnightblue" points="426.191,-18.5001 436.191,-15 426.191,-11.5001 426.191,-18.5001"/>
</g>
</g>
</svg>
