<?xml version="1.0" encoding="UTF-8" standalone="no"?>
<!DOCTYPE svg PUBLIC "-//W3C//DTD SVG 1.1//EN"
 "http://www.w3.org/Graphics/SVG/1.1/DTD/svg11.dtd">
<!-- Generated by graphviz version 2.36.0 (20140111.2315)
 -->
<!-- Title: backend.command.CommandFactory.getCommand Pages: 1 -->
<svg width="960pt" height="38pt"
 viewBox="0.00 0.00 960.00 38.00" xmlns="http://www.w3.org/2000/svg" xmlns:xlink="http://www.w3.org/1999/xlink">
<g id="graph0" class="graph" transform="scale(1 1) rotate(0) translate(4 34)">
<title>backend.command.CommandFactory.getCommand</title>
<polygon fill="white" stroke="none" points="-4,4 -4,-34 956,-34 956,4 -4,4"/>
<!-- Node1 -->
<g id="node1" class="node"><title>Node1</title>
<polygon fill="#bfbfbf" stroke="black" points="0,-0 0,-30 214,-30 214,-0 0,-0"/>
<text text-anchor="start" x="8" y="-18" font-family="Helvetica,sans-Serif" font-size="10.00">backend.command.CommandFactory.get</text>
<text text-anchor="middle" x="107" y="-7" font-family="Helvetica,sans-Serif" font-size="10.00">Command</text>
</g>
<!-- Node2 -->
<g id="node2" class="node"><title>Node2</title>
<g id="a_node2"><a xlink:href="../../da/d26/classbackend_1_1_s_logo_parser.html#a86664390860bb0e249880e3116024485" target="_top" xlink:title="backend.SLogoParser.parse\lProgram">
<polygon fill="white" stroke="black" points="250.5,-0 250.5,-30 399.5,-30 399.5,-0 250.5,-0"/>
<text text-anchor="start" x="258.5" y="-18" font-family="Helvetica,sans-Serif" font-size="10.00">backend.SLogoParser.parse</text>
<text text-anchor="middle" x="325" y="-7" font-family="Helvetica,sans-Serif" font-size="10.00">Program</text>
</a>
</g>
</g>
<!-- Node1&#45;&gt;Node2 -->
<g id="edge1" class="edge"><title>Node1&#45;&gt;Node2</title>
<path fill="none" stroke="midnightblue" d="M224.161,-15C233.054,-15 241.873,-15 250.374,-15"/>
<polygon fill="midnightblue" stroke="midnightblue" points="224.102,-11.5001 214.102,-15 224.102,-18.5001 224.102,-11.5001"/>
</g>
<!-- Node3 -->
<g id="node3" class="node"><title>Node3</title>
<g id="a_node3"><a xlink:href="../../d3/dac/classbackend_1_1_model.html#adbef0c902e277446afa17a84278c15ba" target="_top" xlink:title="backend.Model.parseProgram">
<polygon fill="white" stroke="black" points="436,-5.5 436,-24.5 596,-24.5 596,-5.5 436,-5.5"/>
<text text-anchor="middle" x="516" y="-12.5" font-family="Helvetica,sans-Serif" font-size="10.00">backend.Model.parseProgram</text>
</a>
</g>
</g>
<!-- Node2&#45;&gt;Node3 -->
<g id="edge2" class="edge"><title>Node2&#45;&gt;Node3</title>
<path fill="none" stroke="midnightblue" d="M409.763,-15C418.473,-15 427.306,-15 435.961,-15"/>
<polygon fill="midnightblue" stroke="midnightblue" points="409.614,-11.5001 399.614,-15 409.613,-18.5001 409.614,-11.5001"/>
</g>
<!-- Node4 -->
<g id="node4" class="node"><title>Node4</title>
<g id="a_node4"><a xlink:href="../../d5/d8a/classgui_1_1_slogo_tab.html#a2a016875b2ea48fa761cd4408a78dd21" target="_top" xlink:title="gui.SlogoTab.setButtonActions">
<polygon fill="white" stroke="black" points="632,-5.5 632,-24.5 794,-24.5 794,-5.5 632,-5.5"/>
<text text-anchor="middle" x="713" y="-12.5" font-family="Helvetica,sans-Serif" font-size="10.00">gui.SlogoTab.setButtonActions</text>
</a>
</g>
</g>
<!-- Node3&#45;&gt;Node4 -->
<g id="edge3" class="edge"><title>Node3&#45;&gt;Node4</title>
<path fill="none" stroke="midnightblue" d="M606.083,-15C614.692,-15 623.389,-15 631.903,-15"/>
<polygon fill="midnightblue" stroke="midnightblue" points="606.033,-11.5001 596.033,-15 606.033,-18.5001 606.033,-11.5001"/>
</g>
<!-- Node5 -->
<g id="node5" class="node"><title>Node5</title>
<g id="a_node5"><a xlink:href="../../d5/d8a/classgui_1_1_slogo_tab.html#adaa134bc95e1dcf4eb30b3a185c75175" target="_top" xlink:title="gui.SlogoTab.SlogoTab">
<polygon fill="white" stroke="black" points="830,-5.5 830,-24.5 952,-24.5 952,-5.5 830,-5.5"/>
<text text-anchor="middle" x="891" y="-12.5" font-family="Helvetica,sans-Serif" font-size="10.00">gui.SlogoTab.SlogoTab</text>
</a>
</g>
</g>
<!-- Node4&#45;&gt;Node5 -->
<g id="edge4" class="edge"><title>Node4&#45;&gt;Node5</title>
<path fill="none" stroke="midnightblue" d="M804.235,-15C812.945,-15 821.626,-15 829.936,-15"/>
<polygon fill="midnightblue" stroke="midnightblue" points="804.018,-11.5001 794.018,-15 804.018,-18.5001 804.018,-11.5001"/>
</g>
</g>
</svg>
