<?xml version="1.0" encoding="UTF-8" standalone="no"?>
<!DOCTYPE svg PUBLIC "-//W3C//DTD SVG 1.1//EN"
 "http://www.w3.org/Graphics/SVG/1.1/DTD/svg11.dtd">
<!-- Generated by graphviz version 2.36.0 (20140111.2315)
 -->
<!-- Title: gui.textAreas.AbstractEditableTextBox Pages: 1 -->
<svg width="488pt" height="192pt"
 viewBox="0.00 0.00 488.00 192.00" xmlns="http://www.w3.org/2000/svg" xmlns:xlink="http://www.w3.org/1999/xlink">
<g id="graph0" class="graph" transform="scale(1 1) rotate(0) translate(4 188)">
<title>gui.textAreas.AbstractEditableTextBox</title>
<polygon fill="white" stroke="none" points="-4,4 -4,-188 484,-188 484,4 -4,4"/>
<!-- Node1 -->
<g id="node1" class="node"><title>Node1</title>
<polygon fill="#bfbfbf" stroke="black" points="84,-83 84,-113 246,-113 246,-83 84,-83"/>
<text text-anchor="start" x="92" y="-101" font-family="Helvetica,sans-Serif" font-size="10.00">gui.textAreas.AbstractEditable</text>
<text text-anchor="middle" x="165" y="-90" font-family="Helvetica,sans-Serif" font-size="10.00">TextBox</text>
</g>
<!-- Node3 -->
<g id="node3" class="node"><title>Node3</title>
<g id="a_node3"><a xlink:href="../../db/dbc/classgui_1_1text_areas_1_1_command_box.html" target="_top" xlink:title="gui.textAreas.CommandBox">
<polygon fill="white" stroke="black" points="305,-164.5 305,-183.5 457,-183.5 457,-164.5 305,-164.5"/>
<text text-anchor="middle" x="381" y="-171.5" font-family="Helvetica,sans-Serif" font-size="10.00">gui.textAreas.CommandBox</text>
</a>
</g>
</g>
<!-- Node1&#45;&gt;Node3 -->
<g id="edge2" class="edge"><title>Node1&#45;&gt;Node3</title>
<path fill="none" stroke="midnightblue" d="M200.71,-118.085C223.236,-130.348 253.584,-145.453 282,-155 293.336,-158.808 305.68,-161.944 317.666,-164.493"/>
<polygon fill="midnightblue" stroke="midnightblue" points="202.316,-114.974 191.871,-113.2 198.931,-121.1 202.316,-114.974"/>
</g>
<!-- Node4 -->
<g id="node4" class="node"><title>Node4</title>
<g id="a_node4"><a xlink:href="../../de/da4/classgui_1_1text_areas_1_1_previous_commands_box.html" target="_top" xlink:title="gui.textAreas.PreviousCommandsBox">
<polygon fill="white" stroke="black" points="282.5,-126.5 282.5,-145.5 479.5,-145.5 479.5,-126.5 282.5,-126.5"/>
<text text-anchor="middle" x="381" y="-133.5" font-family="Helvetica,sans-Serif" font-size="10.00">gui.textAreas.PreviousCommandsBox</text>
</a>
</g>
</g>
<!-- Node1&#45;&gt;Node4 -->
<g id="edge3" class="edge"><title>Node1&#45;&gt;Node4</title>
<path fill="none" stroke="midnightblue" d="M256.398,-114.052C280.167,-118.273 305.055,-122.692 326.218,-126.45"/>
<polygon fill="midnightblue" stroke="midnightblue" points="256.752,-110.56 246.295,-112.258 255.529,-117.452 256.752,-110.56"/>
</g>
<!-- Node5 -->
<g id="node5" class="node"><title>Node5</title>
<g id="a_node5"><a xlink:href="../../db/d0f/classgui_1_1text_areas_1_1_status_box.html" target="_top" xlink:title="gui.textAreas.StatusBox">
<polygon fill="white" stroke="black" points="314.5,-88.5 314.5,-107.5 447.5,-107.5 447.5,-88.5 314.5,-88.5"/>
<text text-anchor="middle" x="381" y="-95.5" font-family="Helvetica,sans-Serif" font-size="10.00">gui.textAreas.StatusBox</text>
</a>
</g>
</g>
<!-- Node1&#45;&gt;Node5 -->
<g id="edge4" class="edge"><title>Node1&#45;&gt;Node5</title>
<path fill="none" stroke="midnightblue" d="M256.373,-98C275.803,-98 295.983,-98 314.265,-98"/>
<polygon fill="midnightblue" stroke="midnightblue" points="256.295,-94.5001 246.295,-98 256.295,-101.5 256.295,-94.5001"/>
</g>
<!-- Node6 -->
<g id="node6" class="node"><title>Node6</title>
<g id="a_node6"><a xlink:href="../../da/dce/classgui_1_1text_areas_1_1_user_functions_and_commands.html" target="_top" xlink:title="gui.textAreas.UserFunctions\lAndCommands">
<polygon fill="white" stroke="black" points="305.5,-39 305.5,-69 456.5,-69 456.5,-39 305.5,-39"/>
<text text-anchor="start" x="313.5" y="-57" font-family="Helvetica,sans-Serif" font-size="10.00">gui.textAreas.UserFunctions</text>
<text text-anchor="middle" x="381" y="-46" font-family="Helvetica,sans-Serif" font-size="10.00">AndCommands</text>
</a>
</g>
</g>
<!-- Node1&#45;&gt;Node6 -->
<g id="edge5" class="edge"><title>Node1&#45;&gt;Node6</title>
<path fill="none" stroke="midnightblue" d="M248.934,-80.9482C268.053,-77.0171 288.253,-72.8638 306.918,-69.0262"/>
<polygon fill="midnightblue" stroke="midnightblue" points="248.138,-77.5384 239.048,-82.9808 249.548,-84.395 248.138,-77.5384"/>
</g>
<!-- Node7 -->
<g id="node7" class="node"><title>Node7</title>
<g id="a_node7"><a xlink:href="../../d3/d45/classgui_1_1text_areas_1_1_user_variables_box.html" target="_top" xlink:title="gui.textAreas.UserVariablesBox">
<polygon fill="white" stroke="black" points="297.5,-0.5 297.5,-19.5 464.5,-19.5 464.5,-0.5 297.5,-0.5"/>
<text text-anchor="middle" x="381" y="-7.5" font-family="Helvetica,sans-Serif" font-size="10.00">gui.textAreas.UserVariablesBox</text>
</a>
</g>
</g>
<!-- Node1&#45;&gt;Node7 -->
<g id="edge6" class="edge"><title>Node1&#45;&gt;Node7</title>
<path fill="none" stroke="midnightblue" d="M194.708,-77.0857C217.352,-61.5656 250.298,-41.0798 282,-29 292.122,-25.1432 303.143,-22.0371 314.02,-19.5451"/>
<polygon fill="midnightblue" stroke="midnightblue" points="192.465,-74.3829 186.263,-82.9725 196.468,-80.1256 192.465,-74.3829"/>
</g>
<!-- Node2 -->
<g id="node2" class="node"><title>Node2</title>
<polygon fill="white" stroke="#bfbfbf" points="0,-88.5 0,-107.5 48,-107.5 48,-88.5 0,-88.5"/>
<text text-anchor="middle" x="24" y="-95.5" font-family="Helvetica,sans-Serif" font-size="10.00">Region</text>
</g>
<!-- Node2&#45;&gt;Node1 -->
<g id="edge1" class="edge"><title>Node2&#45;&gt;Node1</title>
<path fill="none" stroke="midnightblue" d="M58.4012,-98C66.2643,-98 74.9807,-98 83.9367,-98"/>
<polygon fill="midnightblue" stroke="midnightblue" points="58.2655,-94.5001 48.2655,-98 58.2654,-101.5 58.2655,-94.5001"/>
</g>
</g>
</svg>
