<?xml version="1.0" encoding="UTF-8" standalone="no"?>
<!DOCTYPE svg PUBLIC "-//W3C//DTD SVG 1.1//EN"
 "http://www.w3.org/Graphics/SVG/1.1/DTD/svg11.dtd">
<!-- Generated by graphviz version 2.36.0 (20140111.2315)
 -->
<!-- Title: backend.Stamp.Stamp Pages: 1 -->
<svg width="326pt" height="87pt"
 viewBox="0.00 0.00 326.00 87.00" xmlns="http://www.w3.org/2000/svg" xmlns:xlink="http://www.w3.org/1999/xlink">
<g id="graph0" class="graph" transform="scale(1 1) rotate(0) translate(4 83)">
<title>backend.Stamp.Stamp</title>
<polygon fill="white" stroke="none" points="-4,4 -4,-83 322,-83 322,4 -4,4"/>
<!-- Node1 -->
<g id="node1" class="node"><title>Node1</title>
<polygon fill="#bfbfbf" stroke="black" points="0,-29.5 0,-48.5 128,-48.5 128,-29.5 0,-29.5"/>
<text text-anchor="middle" x="64" y="-36.5" font-family="Helvetica,sans-Serif" font-size="10.00">backend.Stamp.Stamp</text>
</g>
<!-- Node2 -->
<g id="node2" class="node"><title>Node2</title>
<g id="a_node2"><a xlink:href="../../d6/d7e/interfacebackend_1_1_drawable_image.html#a7ba03cc87d0135a03b701e31c8653af1" target="_top" xlink:title="backend.DrawableImage.get\lImagePath">
<polygon fill="white" stroke="black" points="164.5,-49 164.5,-79 317.5,-79 317.5,-49 164.5,-49"/>
<text text-anchor="start" x="172.5" y="-67" font-family="Helvetica,sans-Serif" font-size="10.00">backend.DrawableImage.get</text>
<text text-anchor="middle" x="241" y="-56" font-family="Helvetica,sans-Serif" font-size="10.00">ImagePath</text>
</a>
</g>
</g>
<!-- Node1&#45;&gt;Node2 -->
<g id="edge1" class="edge"><title>Node1&#45;&gt;Node2</title>
<path fill="none" stroke="midnightblue" d="M128.179,-48.0256C136.715,-49.245 145.586,-50.5123 154.431,-51.7759"/>
<polygon fill="midnightblue" stroke="midnightblue" points="153.993,-55.2487 164.387,-53.1982 154.983,-48.3191 153.993,-55.2487"/>
</g>
<!-- Node3 -->
<g id="node3" class="node"><title>Node3</title>
<g id="a_node3"><a xlink:href="../../d6/d7e/interfacebackend_1_1_drawable_image.html#a9a9837071500849b1d7a6029da2f706e" target="_top" xlink:title="backend.DrawableImage.get\lLocation">
<polygon fill="white" stroke="black" points="164.5,-0 164.5,-30 317.5,-30 317.5,-0 164.5,-0"/>
<text text-anchor="start" x="172.5" y="-18" font-family="Helvetica,sans-Serif" font-size="10.00">backend.DrawableImage.get</text>
<text text-anchor="middle" x="241" y="-7" font-family="Helvetica,sans-Serif" font-size="10.00">Location</text>
</a>
</g>
</g>
<!-- Node1&#45;&gt;Node3 -->
<g id="edge2" class="edge"><title>Node1&#45;&gt;Node3</title>
<path fill="none" stroke="midnightblue" d="M128.179,-30.3354C136.715,-29.1648 145.586,-27.9482 154.431,-26.7351"/>
<polygon fill="midnightblue" stroke="midnightblue" points="154.956,-30.1961 164.387,-25.3697 154.005,-23.261 154.956,-30.1961"/>
</g>
</g>
</svg>
