<?xml version="1.0" encoding="UTF-8" standalone="no"?>
<!DOCTYPE svg PUBLIC "-//W3C//DTD SVG 1.1//EN"
 "http://www.w3.org/Graphics/SVG/1.1/DTD/svg11.dtd">
<!-- Generated by graphviz version 2.36.0 (20140111.2315)
 -->
<!-- Title: backend.command.ModelCommand Pages: 1 -->
<svg width="1434pt" height="610pt"
 viewBox="0.00 0.00 1434.00 610.00" xmlns="http://www.w3.org/2000/svg" xmlns:xlink="http://www.w3.org/1999/xlink">
<g id="graph0" class="graph" transform="scale(1 1) rotate(0) translate(4 606)">
<title>backend.command.ModelCommand</title>
<polygon fill="white" stroke="none" points="-4,4 -4,-606 1430,-606 1430,4 -4,4"/>
<!-- Node1 -->
<g id="node1" class="node"><title>Node1</title>
<polygon fill="#bfbfbf" stroke="black" points="198.5,-223.5 198.5,-242.5 389.5,-242.5 389.5,-223.5 198.5,-223.5"/>
<text text-anchor="middle" x="294" y="-230.5" font-family="Helvetica,sans-Serif" font-size="10.00">backend.command.ModelCommand</text>
</g>
<!-- Node3 -->
<g id="node3" class="node"><title>Node3</title>
<g id="a_node3"><a xlink:href="../../de/d1a/classbackend_1_1command_1_1_for.html" target="_top" xlink:title="backend.command.For">
<polygon fill="white" stroke="black" points="456.5,-380.5 456.5,-399.5 583.5,-399.5 583.5,-380.5 456.5,-380.5"/>
<text text-anchor="middle" x="520" y="-387.5" font-family="Helvetica,sans-Serif" font-size="10.00">backend.command.For</text>
</a>
</g>
</g>
<!-- Node1&#45;&gt;Node3 -->
<g id="edge2" class="edge"><title>Node1&#45;&gt;Node3</title>
<path fill="none" stroke="midnightblue" d="M309.118,-250.671C331.341,-277.413 377.023,-328.195 426,-358 442.337,-367.942 462.18,-375.309 479.334,-380.452"/>
<polygon fill="midnightblue" stroke="midnightblue" points="311.549,-248.115 302.51,-242.589 306.13,-252.546 311.549,-248.115"/>
</g>
<!-- Node6 -->
<g id="node6" class="node"><title>Node6</title>
<g id="a_node6"><a xlink:href="../../d0/d1f/classbackend_1_1command_1_1_make_user_instruction.html" target="_top" xlink:title="backend.command.MakeUser\lInstruction">
<polygon fill="white" stroke="black" points="440,-319 440,-349 600,-349 600,-319 440,-319"/>
<text text-anchor="start" x="448" y="-337" font-family="Helvetica,sans-Serif" font-size="10.00">backend.command.MakeUser</text>
<text text-anchor="middle" x="520" y="-326" font-family="Helvetica,sans-Serif" font-size="10.00">Instruction</text>
</a>
</g>
</g>
<!-- Node1&#45;&gt;Node6 -->
<g id="edge5" class="edge"><title>Node1&#45;&gt;Node6</title>
<path fill="none" stroke="midnightblue" d="M317.404,-248.465C342.761,-265.37 385.783,-292.273 426,-309 434.953,-312.724 444.624,-316.044 454.226,-318.951"/>
<polygon fill="midnightblue" stroke="midnightblue" points="319.146,-245.419 308.899,-242.727 315.231,-251.221 319.146,-245.419"/>
</g>
<!-- Node7 -->
<g id="node7" class="node"><title>Node7</title>
<g id="a_node7"><a xlink:href="../../d5/d51/classbackend_1_1command_1_1_make_variable.html" target="_top" xlink:title="backend.command.MakeVariable">
<polygon fill="white" stroke="black" points="432,-280.5 432,-299.5 608,-299.5 608,-280.5 432,-280.5"/>
<text text-anchor="middle" x="520" y="-287.5" font-family="Helvetica,sans-Serif" font-size="10.00">backend.command.MakeVariable</text>
</a>
</g>
</g>
<!-- Node1&#45;&gt;Node7 -->
<g id="edge6" class="edge"><title>Node1&#45;&gt;Node7</title>
<path fill="none" stroke="midnightblue" d="M335.054,-245.53C360.875,-253.381 395.25,-263.412 426,-271 439.76,-274.395 454.77,-277.654 468.638,-280.484"/>
<polygon fill="midnightblue" stroke="midnightblue" points="335.839,-242.11 325.253,-242.53 333.79,-248.804 335.839,-242.11"/>
</g>
<!-- Node8 -->
<g id="node8" class="node"><title>Node8</title>
<g id="a_node8"><a xlink:href="../../de/d47/classbackend_1_1command_1_1_set_background.html" target="_top" xlink:title="backend.command.SetBackground">
<polygon fill="white" stroke="black" points="427.5,-242.5 427.5,-261.5 612.5,-261.5 612.5,-242.5 427.5,-242.5"/>
<text text-anchor="middle" x="520" y="-249.5" font-family="Helvetica,sans-Serif" font-size="10.00">backend.command.SetBackground</text>
</a>
</g>
</g>
<!-- Node1&#45;&gt;Node8 -->
<g id="edge7" class="edge"><title>Node1&#45;&gt;Node8</title>
<path fill="none" stroke="midnightblue" d="M399.911,-241.899C409.014,-242.671 418.181,-243.448 427.169,-244.211"/>
<polygon fill="midnightblue" stroke="midnightblue" points="399.932,-238.388 389.671,-241.03 399.34,-245.363 399.932,-238.388"/>
</g>
<!-- Node9 -->
<g id="node9" class="node"><title>Node9</title>
<g id="a_node9"><a xlink:href="../../d6/db5/classbackend_1_1command_1_1_set_palette.html" target="_top" xlink:title="backend.command.SetPalette">
<polygon fill="white" stroke="black" points="439.5,-204.5 439.5,-223.5 600.5,-223.5 600.5,-204.5 439.5,-204.5"/>
<text text-anchor="middle" x="520" y="-211.5" font-family="Helvetica,sans-Serif" font-size="10.00">backend.command.SetPalette</text>
</a>
</g>
</g>
<!-- Node1&#45;&gt;Node9 -->
<g id="edge8" class="edge"><title>Node1&#45;&gt;Node9</title>
<path fill="none" stroke="midnightblue" d="M399.764,-224.114C413.012,-222.99 426.396,-221.855 439.17,-220.771"/>
<polygon fill="midnightblue" stroke="midnightblue" points="399.34,-220.637 389.671,-224.97 399.932,-227.612 399.34,-220.637"/>
</g>
<!-- Node10 -->
<g id="node10" class="node"><title>Node10</title>
<g id="a_node10"><a xlink:href="../../d5/dfc/classbackend_1_1command_1_1_turtle_command.html" target="_top" xlink:title="backend.command.TurtleCommand">
<polygon fill="white" stroke="black" points="426,-166.5 426,-185.5 614,-185.5 614,-166.5 426,-166.5"/>
<text text-anchor="middle" x="520" y="-173.5" font-family="Helvetica,sans-Serif" font-size="10.00">backend.command.TurtleCommand</text>
</a>
</g>
</g>
<!-- Node1&#45;&gt;Node10 -->
<g id="edge9" class="edge"><title>Node1&#45;&gt;Node10</title>
<path fill="none" stroke="midnightblue" d="M335.054,-220.47C360.875,-212.619 395.25,-202.588 426,-195 439.76,-191.605 454.77,-188.346 468.638,-185.516"/>
<polygon fill="midnightblue" stroke="midnightblue" points="333.79,-217.196 325.253,-223.47 335.839,-223.89 333.79,-217.196"/>
</g>
<!-- Node44 -->
<g id="node44" class="node"><title>Node44</title>
<g id="a_node44"><a xlink:href="../../d4/d4b/classbackend_1_1command_1_1_user_instruction_retriever.html" target="_top" xlink:title="backend.command.UserInstruction\lRetriever">
<polygon fill="white" stroke="black" points="427.5,-117 427.5,-147 612.5,-147 612.5,-117 427.5,-117"/>
<text text-anchor="start" x="435.5" y="-135" font-family="Helvetica,sans-Serif" font-size="10.00">backend.command.UserInstruction</text>
<text text-anchor="middle" x="520" y="-124" font-family="Helvetica,sans-Serif" font-size="10.00">Retriever</text>
</a>
</g>
</g>
<!-- Node1&#45;&gt;Node44 -->
<g id="edge43" class="edge"><title>Node1&#45;&gt;Node44</title>
<path fill="none" stroke="midnightblue" d="M317.404,-217.535C342.761,-200.63 385.783,-173.727 426,-157 434.953,-153.276 444.624,-149.956 454.226,-147.049"/>
<polygon fill="midnightblue" stroke="midnightblue" points="315.231,-214.779 308.899,-223.273 319.146,-220.581 315.231,-214.779"/>
</g>
<!-- Node45 -->
<g id="node45" class="node"><title>Node45</title>
<g id="a_node45"><a xlink:href="../../de/dc9/classbackend_1_1command_1_1_variable_retriever.html" target="_top" xlink:title="backend.command.Variable\lRetriever">
<polygon fill="white" stroke="black" points="445,-68 445,-98 595,-98 595,-68 445,-68"/>
<text text-anchor="start" x="453" y="-86" font-family="Helvetica,sans-Serif" font-size="10.00">backend.command.Variable</text>
<text text-anchor="middle" x="520" y="-75" font-family="Helvetica,sans-Serif" font-size="10.00">Retriever</text>
</a>
</g>
</g>
<!-- Node1&#45;&gt;Node45 -->
<g id="edge44" class="edge"><title>Node1&#45;&gt;Node45</title>
<path fill="none" stroke="midnightblue" d="M308.2,-215.458C329.771,-188.059 375.284,-135.319 426,-107 432.115,-103.586 438.726,-100.646 445.507,-98.1163"/>
<polygon fill="midnightblue" stroke="midnightblue" points="305.408,-213.348 302.062,-223.4 310.947,-217.628 305.408,-213.348"/>
</g>
<!-- Node2 -->
<g id="node2" class="node"><title>Node2</title>
<g id="a_node2"><a xlink:href="../../dc/d83/classbackend_1_1command_1_1_command.html" target="_top" xlink:title="backend.command.Command">
<polygon fill="white" stroke="black" points="0,-223.5 0,-242.5 162,-242.5 162,-223.5 0,-223.5"/>
<text text-anchor="middle" x="81" y="-230.5" font-family="Helvetica,sans-Serif" font-size="10.00">backend.command.Command</text>
</a>
</g>
</g>
<!-- Node2&#45;&gt;Node1 -->
<g id="edge1" class="edge"><title>Node2&#45;&gt;Node1</title>
<path fill="none" stroke="midnightblue" d="M172.199,-233C180.894,-233 189.73,-233 198.466,-233"/>
<polygon fill="midnightblue" stroke="midnightblue" points="172.071,-229.5 162.071,-233 172.071,-236.5 172.071,-229.5"/>
</g>
<!-- Node4 -->
<g id="node4" class="node"><title>Node4</title>
<g id="a_node4"><a xlink:href="../../db/d27/classbackend_1_1command_1_1_do_times.html" target="_top" xlink:title="backend.command.DoTimes">
<polygon fill="white" stroke="black" points="660,-418.5 660,-437.5 814,-437.5 814,-418.5 660,-418.5"/>
<text text-anchor="middle" x="737" y="-425.5" font-family="Helvetica,sans-Serif" font-size="10.00">backend.command.DoTimes</text>
</a>
</g>
</g>
<!-- Node3&#45;&gt;Node4 -->
<g id="edge3" class="edge"><title>Node3&#45;&gt;Node4</title>
<path fill="none" stroke="midnightblue" d="M585.2,-401.347C616.047,-406.799 652.606,-413.261 682.002,-418.456"/>
<polygon fill="midnightblue" stroke="midnightblue" points="585.433,-397.834 574.976,-399.54 584.214,-404.727 585.433,-397.834"/>
</g>
<!-- Node5 -->
<g id="node5" class="node"><title>Node5</title>
<g id="a_node5"><a xlink:href="../../d0/dca/classbackend_1_1command_1_1_repeat.html" target="_top" xlink:title="backend.command.Repeat">
<polygon fill="white" stroke="black" points="664.5,-380.5 664.5,-399.5 809.5,-399.5 809.5,-380.5 664.5,-380.5"/>
<text text-anchor="middle" x="737" y="-387.5" font-family="Helvetica,sans-Serif" font-size="10.00">backend.command.Repeat</text>
</a>
</g>
</g>
<!-- Node3&#45;&gt;Node5 -->
<g id="edge4" class="edge"><title>Node3&#45;&gt;Node5</title>
<path fill="none" stroke="midnightblue" d="M594.035,-390C616.777,-390 641.821,-390 664.459,-390"/>
<polygon fill="midnightblue" stroke="midnightblue" points="593.765,-386.5 583.765,-390 593.765,-393.5 593.765,-386.5"/>
</g>
<!-- Node11 -->
<g id="node11" class="node"><title>Node11</title>
<g id="a_node11"><a xlink:href="../../d8/db4/classbackend_1_1command_1_1_active_turtle_command.html" target="_top" xlink:title="backend.command.ActiveTurtle\lCommand">
<polygon fill="white" stroke="black" points="653.5,-331 653.5,-361 820.5,-361 820.5,-331 653.5,-331"/>
<text text-anchor="start" x="661.5" y="-349" font-family="Helvetica,sans-Serif" font-size="10.00">backend.command.ActiveTurtle</text>
<text text-anchor="middle" x="737" y="-338" font-family="Helvetica,sans-Serif" font-size="10.00">Command</text>
</a>
</g>
</g>
<!-- Node10&#45;&gt;Node11 -->
<g id="edge10" class="edge"><title>Node10&#45;&gt;Node11</title>
<path fill="none" stroke="midnightblue" d="M603.094,-189.342C606.877,-191.015 610.535,-192.893 614,-195 670.44,-229.323 711.97,-299.602 728.337,-330.66"/>
<polygon fill="midnightblue" stroke="midnightblue" points="604.065,-185.964 593.476,-185.592 601.522,-192.486 604.065,-185.964"/>
</g>
<!-- Node39 -->
<g id="node39" class="node"><title>Node39</title>
<g id="a_node39"><a xlink:href="../../d9/d32/classbackend_1_1command_1_1_clear_stamps.html" target="_top" xlink:title="backend.command.ClearStamps">
<polygon fill="white" stroke="black" points="650,-166.5 650,-185.5 824,-185.5 824,-166.5 650,-166.5"/>
<text text-anchor="middle" x="737" y="-173.5" font-family="Helvetica,sans-Serif" font-size="10.00">backend.command.ClearStamps</text>
</a>
</g>
</g>
<!-- Node10&#45;&gt;Node39 -->
<g id="edge38" class="edge"><title>Node10&#45;&gt;Node39</title>
<path fill="none" stroke="midnightblue" d="M624.15,-176C632.778,-176 641.444,-176 649.924,-176"/>
<polygon fill="midnightblue" stroke="midnightblue" points="624.052,-172.5 614.052,-176 624.052,-179.5 624.052,-172.5"/>
</g>
<!-- Node40 -->
<g id="node40" class="node"><title>Node40</title>
<g id="a_node40"><a xlink:href="../../d4/d68/classbackend_1_1command_1_1_specified_turtle_command.html" target="_top" xlink:title="backend.command.Specified\lTurtleCommand">
<polygon fill="white" stroke="black" points="659.5,-115 659.5,-145 814.5,-145 814.5,-115 659.5,-115"/>
<text text-anchor="start" x="667.5" y="-133" font-family="Helvetica,sans-Serif" font-size="10.00">backend.command.Specified</text>
<text text-anchor="middle" x="737" y="-122" font-family="Helvetica,sans-Serif" font-size="10.00">TurtleCommand</text>
</a>
</g>
</g>
<!-- Node10&#45;&gt;Node40 -->
<g id="edge39" class="edge"><title>Node10&#45;&gt;Node40</title>
<path fill="none" stroke="midnightblue" d="M575.35,-164.372C602.763,-158.507 636.337,-151.323 665.692,-145.043"/>
<polygon fill="midnightblue" stroke="midnightblue" points="574.595,-160.954 565.548,-166.469 576.059,-167.799 574.595,-160.954"/>
</g>
<!-- Node43 -->
<g id="node43" class="node"><title>Node43</title>
<g id="a_node43"><a xlink:href="../../da/d05/classbackend_1_1command_1_1_turtles.html" target="_top" xlink:title="backend.command.Turtles">
<polygon fill="white" stroke="black" points="665.5,-76.5 665.5,-95.5 808.5,-95.5 808.5,-76.5 665.5,-76.5"/>
<text text-anchor="middle" x="737" y="-83.5" font-family="Helvetica,sans-Serif" font-size="10.00">backend.command.Turtles</text>
</a>
</g>
</g>
<!-- Node10&#45;&gt;Node43 -->
<g id="edge42" class="edge"><title>Node10&#45;&gt;Node43</title>
<path fill="none" stroke="midnightblue" d="M602.106,-162.559C606.26,-160.648 610.256,-158.474 614,-156 637.147,-140.703 626.896,-120.362 650,-105 655.857,-101.106 662.386,-97.9972 669.156,-95.5182"/>
<polygon fill="midnightblue" stroke="midnightblue" points="600.751,-159.331 592.798,-166.332 603.381,-165.818 600.751,-159.331"/>
</g>
<!-- Node12 -->
<g id="node12" class="node"><title>Node12</title>
<g id="a_node12"><a xlink:href="../../d0/d99/classbackend_1_1command_1_1_clear_screen.html" target="_top" xlink:title="backend.command.ClearScreen">
<polygon fill="white" stroke="black" points="864,-582.5 864,-601.5 1034,-601.5 1034,-582.5 864,-582.5"/>
<text text-anchor="middle" x="949" y="-589.5" font-family="Helvetica,sans-Serif" font-size="10.00">backend.command.ClearScreen</text>
</a>
</g>
</g>
<!-- Node11&#45;&gt;Node12 -->
<g id="edge11" class="edge"><title>Node11&#45;&gt;Node12</title>
<path fill="none" stroke="midnightblue" d="M820.276,-367.264C821.577,-368.444 822.82,-369.689 824,-371 884.695,-438.473 797.328,-506.36 860,-572 864.003,-576.193 868.687,-579.591 873.772,-582.338"/>
<polygon fill="midnightblue" stroke="midnightblue" points="822.349,-364.443 812.27,-361.177 818.112,-370.015 822.349,-364.443"/>
</g>
<!-- Node13 -->
<g id="node13" class="node"><title>Node13</title>
<g id="a_node13"><a xlink:href="../../dd/d3e/classbackend_1_1command_1_1_degrees_turtle_command.html" target="_top" xlink:title="backend.command.DegreesTurtle\lCommand">
<polygon fill="white" stroke="black" points="860,-533 860,-563 1038,-563 1038,-533 860,-533"/>
<text text-anchor="start" x="868" y="-551" font-family="Helvetica,sans-Serif" font-size="10.00">backend.command.DegreesTurtle</text>
<text text-anchor="middle" x="949" y="-540" font-family="Helvetica,sans-Serif" font-size="10.00">Command</text>
</a>
</g>
</g>
<!-- Node11&#45;&gt;Node13 -->
<g id="edge12" class="edge"><title>Node11&#45;&gt;Node13</title>
<path fill="none" stroke="midnightblue" d="M820.057,-367.25C821.431,-368.434 822.748,-369.683 824,-371 871.839,-421.311 812.007,-472.836 860,-523 863.623,-526.787 867.775,-530.013 872.258,-532.76"/>
<polygon fill="midnightblue" stroke="midnightblue" points="821.786,-364.181 811.634,-361.151 817.681,-369.851 821.786,-364.181"/>
</g>
<!-- Node17 -->
<g id="node17" class="node"><title>Node17</title>
<g id="a_node17"><a xlink:href="../../df/d00/classbackend_1_1command_1_1_home.html" target="_top" xlink:title="backend.command.Home">
<polygon fill="white" stroke="black" points="878.5,-494.5 878.5,-513.5 1019.5,-513.5 1019.5,-494.5 878.5,-494.5"/>
<text text-anchor="middle" x="949" y="-501.5" font-family="Helvetica,sans-Serif" font-size="10.00">backend.command.Home</text>
</a>
</g>
</g>
<!-- Node11&#45;&gt;Node17 -->
<g id="edge16" class="edge"><title>Node11&#45;&gt;Node17</title>
<path fill="none" stroke="midnightblue" d="M819.404,-366.958C821.005,-368.228 822.54,-369.574 824,-371 862,-408.137 820.719,-449.221 860,-485 865.315,-489.841 871.562,-493.556 878.233,-496.394"/>
<polygon fill="midnightblue" stroke="midnightblue" points="821.161,-363.921 810.915,-361.222 817.241,-369.721 821.161,-363.921"/>
</g>
<!-- Node18 -->
<g id="node18" class="node"><title>Node18</title>
<g id="a_node18"><a xlink:href="../../d7/dae/classbackend_1_1command_1_1_i_d.html" target="_top" xlink:title="backend.command.ID">
<polygon fill="white" stroke="black" points="888,-456.5 888,-475.5 1010,-475.5 1010,-456.5 888,-456.5"/>
<text text-anchor="middle" x="949" y="-463.5" font-family="Helvetica,sans-Serif" font-size="10.00">backend.command.ID</text>
</a>
</g>
</g>
<!-- Node11&#45;&gt;Node18 -->
<g id="edge17" class="edge"><title>Node11&#45;&gt;Node18</title>
<path fill="none" stroke="midnightblue" d="M817.798,-366.3C819.958,-367.759 822.032,-369.324 824,-371 852.45,-395.24 830.717,-423.775 860,-447 868.082,-453.41 877.846,-457.778 887.888,-460.731"/>
<polygon fill="midnightblue" stroke="midnightblue" points="819.487,-363.233 809.094,-361.175 815.935,-369.265 819.487,-363.233"/>
</g>
<!-- Node19 -->
<g id="node19" class="node"><title>Node19</title>
<g id="a_node19"><a xlink:href="../../df/df5/classbackend_1_1command_1_1_pen_down.html" target="_top" xlink:title="backend.command.PenDown">
<polygon fill="white" stroke="black" points="871,-418.5 871,-437.5 1027,-437.5 1027,-418.5 871,-418.5"/>
<text text-anchor="middle" x="949" y="-425.5" font-family="Helvetica,sans-Serif" font-size="10.00">backend.command.PenDown</text>
</a>
</g>
</g>
<!-- Node11&#45;&gt;Node19 -->
<g id="edge18" class="edge"><title>Node11&#45;&gt;Node19</title>
<path fill="none" stroke="midnightblue" d="M813.29,-365.242C816.994,-367.004 820.588,-368.919 824,-371 843.862,-383.114 839.725,-397.591 860,-409 866.947,-412.909 874.619,-416.015 882.45,-418.482"/>
<polygon fill="midnightblue" stroke="midnightblue" points="814.46,-361.935 803.893,-361.173 811.678,-368.359 814.46,-361.935"/>
</g>
<!-- Node20 -->
<g id="node20" class="node"><title>Node20</title>
<g id="a_node20"><a xlink:href="../../d9/d98/classbackend_1_1command_1_1_pen_up.html" target="_top" xlink:title="backend.command.PenUp">
<polygon fill="white" stroke="black" points="877.5,-380.5 877.5,-399.5 1020.5,-399.5 1020.5,-380.5 877.5,-380.5"/>
<text text-anchor="middle" x="949" y="-387.5" font-family="Helvetica,sans-Serif" font-size="10.00">backend.command.PenUp</text>
</a>
</g>
</g>
<!-- Node11&#45;&gt;Node20 -->
<g id="edge19" class="edge"><title>Node11&#45;&gt;Node20</title>
<path fill="none" stroke="midnightblue" d="M819.548,-363.086C847.759,-368.997 878.35,-375.407 902.6,-380.488"/>
<polygon fill="midnightblue" stroke="midnightblue" points="820.188,-359.644 809.683,-361.019 818.752,-366.496 820.188,-359.644"/>
</g>
<!-- Node21 -->
<g id="node21" class="node"><title>Node21</title>
<g id="a_node21"><a xlink:href="../../df/d09/classbackend_1_1command_1_1_pixels_turtle_command.html" target="_top" xlink:title="backend.command.PixelsTurtle\lCommand">
<polygon fill="white" stroke="black" points="867,-331 867,-361 1031,-361 1031,-331 867,-331"/>
<text text-anchor="start" x="875" y="-349" font-family="Helvetica,sans-Serif" font-size="10.00">backend.command.PixelsTurtle</text>
<text text-anchor="middle" x="949" y="-338" font-family="Helvetica,sans-Serif" font-size="10.00">Command</text>
</a>
</g>
</g>
<!-- Node11&#45;&gt;Node21 -->
<g id="edge20" class="edge"><title>Node11&#45;&gt;Node21</title>
<path fill="none" stroke="midnightblue" d="M830.718,-346C842.726,-346 854.952,-346 866.755,-346"/>
<polygon fill="midnightblue" stroke="midnightblue" points="830.696,-342.5 820.696,-346 830.696,-349.5 830.696,-342.5"/>
</g>
<!-- Node25 -->
<g id="node25" class="node"><title>Node25</title>
<g id="a_node25"><a xlink:href="../../d5/dcb/classbackend_1_1command_1_1_point_turtle_command.html" target="_top" xlink:title="backend.command.PointTurtle\lCommand">
<polygon fill="white" stroke="black" points="868.5,-282 868.5,-312 1029.5,-312 1029.5,-282 868.5,-282"/>
<text text-anchor="start" x="876.5" y="-300" font-family="Helvetica,sans-Serif" font-size="10.00">backend.command.PointTurtle</text>
<text text-anchor="middle" x="949" y="-289" font-family="Helvetica,sans-Serif" font-size="10.00">Command</text>
</a>
</g>
</g>
<!-- Node11&#45;&gt;Node25 -->
<g id="edge24" class="edge"><title>Node11&#45;&gt;Node25</title>
<path fill="none" stroke="midnightblue" d="M812.275,-328.669C835.591,-323.229 861.122,-317.271 883.688,-312.006"/>
<polygon fill="midnightblue" stroke="midnightblue" points="811.377,-325.285 802.434,-330.965 812.968,-332.101 811.377,-325.285"/>
</g>
<!-- Node28 -->
<g id="node28" class="node"><title>Node28</title>
<g id="a_node28"><a xlink:href="../../df/df8/classbackend_1_1command_1_1_set_pen_color.html" target="_top" xlink:title="backend.command.SetPenColor">
<polygon fill="white" stroke="black" points="863.5,-243.5 863.5,-262.5 1034.5,-262.5 1034.5,-243.5 863.5,-243.5"/>
<text text-anchor="middle" x="949" y="-250.5" font-family="Helvetica,sans-Serif" font-size="10.00">backend.command.SetPenColor</text>
</a>
</g>
</g>
<!-- Node11&#45;&gt;Node28 -->
<g id="edge27" class="edge"><title>Node11&#45;&gt;Node28</title>
<path fill="none" stroke="midnightblue" d="M766.278,-325.091C790.132,-308.401 825.769,-285.63 860,-272 869.584,-268.184 880.075,-265.073 890.369,-262.556"/>
<polygon fill="midnightblue" stroke="midnightblue" points="764.174,-322.292 758.048,-330.936 768.227,-327.999 764.174,-322.292"/>
</g>
<!-- Node29 -->
<g id="node29" class="node"><title>Node29</title>
<g id="a_node29"><a xlink:href="../../d5/dfe/classbackend_1_1command_1_1_set_shape.html" target="_top" xlink:title="backend.command.SetShape">
<polygon fill="white" stroke="black" points="869.5,-205.5 869.5,-224.5 1028.5,-224.5 1028.5,-205.5 869.5,-205.5"/>
<text text-anchor="middle" x="949" y="-212.5" font-family="Helvetica,sans-Serif" font-size="10.00">backend.command.SetShape</text>
</a>
</g>
</g>
<!-- Node11&#45;&gt;Node29 -->
<g id="edge28" class="edge"><title>Node11&#45;&gt;Node29</title>
<path fill="none" stroke="midnightblue" d="M756.194,-323.192C778.043,-297.42 817.144,-256.184 860,-234 867.495,-230.12 875.744,-227.031 884.095,-224.573"/>
<polygon fill="midnightblue" stroke="midnightblue" points="753.427,-321.045 749.724,-330.972 758.809,-325.521 753.427,-321.045"/>
</g>
<!-- Node30 -->
<g id="node30" class="node"><title>Node30</title>
<g id="a_node30"><a xlink:href="../../d9/d76/classbackend_1_1command_1_1_turtle_query.html" target="_top" xlink:title="backend.command.TurtleQuery">
<polygon fill="white" stroke="black" points="866,-157.5 866,-176.5 1032,-176.5 1032,-157.5 866,-157.5"/>
<text text-anchor="middle" x="949" y="-164.5" font-family="Helvetica,sans-Serif" font-size="10.00">backend.command.TurtleQuery</text>
</a>
</g>
</g>
<!-- Node11&#45;&gt;Node30 -->
<g id="edge29" class="edge"><title>Node11&#45;&gt;Node30</title>
<path fill="none" stroke="midnightblue" d="M751.544,-321.86C771.264,-288.827 810.936,-229.794 860,-196 872.718,-187.24 888.272,-180.972 902.747,-176.559"/>
<polygon fill="midnightblue" stroke="midnightblue" points="748.324,-320.434 746.297,-330.833 754.366,-323.967 748.324,-320.434"/>
</g>
<!-- Node14 -->
<g id="node14" class="node"><title>Node14</title>
<g id="a_node14"><a xlink:href="../../d1/d93/classbackend_1_1command_1_1_left.html" target="_top" xlink:title="backend.command.Left">
<polygon fill="white" stroke="black" points="1095,-576.5 1095,-595.5 1225,-595.5 1225,-576.5 1095,-576.5"/>
<text text-anchor="middle" x="1160" y="-583.5" font-family="Helvetica,sans-Serif" font-size="10.00">backend.command.Left</text>
</a>
</g>
</g>
<!-- Node13&#45;&gt;Node14 -->
<g id="edge13" class="edge"><title>Node13&#45;&gt;Node14</title>
<path fill="none" stroke="midnightblue" d="M1042.64,-564.843C1064.62,-568.839 1087.3,-572.964 1106.74,-576.499"/>
<polygon fill="midnightblue" stroke="midnightblue" points="1043.07,-561.364 1032.6,-563.019 1041.81,-568.251 1043.07,-561.364"/>
</g>
<!-- Node15 -->
<g id="node15" class="node"><title>Node15</title>
<g id="a_node15"><a xlink:href="../../d6/dcb/classbackend_1_1command_1_1_right.html" target="_top" xlink:title="backend.command.Right">
<polygon fill="white" stroke="black" points="1092,-538.5 1092,-557.5 1228,-557.5 1228,-538.5 1092,-538.5"/>
<text text-anchor="middle" x="1160" y="-545.5" font-family="Helvetica,sans-Serif" font-size="10.00">backend.command.Right</text>
</a>
</g>
</g>
<!-- Node13&#45;&gt;Node15 -->
<g id="edge14" class="edge"><title>Node13&#45;&gt;Node15</title>
<path fill="none" stroke="midnightblue" d="M1048.19,-548C1062.92,-548 1077.82,-548 1091.72,-548"/>
<polygon fill="midnightblue" stroke="midnightblue" points="1048.03,-544.5 1038.03,-548 1048.03,-551.5 1048.03,-544.5"/>
</g>
<!-- Node16 -->
<g id="node16" class="node"><title>Node16</title>
<g id="a_node16"><a xlink:href="../../d8/d92/classbackend_1_1command_1_1_set_heading.html" target="_top" xlink:title="backend.command.SetHeading">
<polygon fill="white" stroke="black" points="1076,-500.5 1076,-519.5 1244,-519.5 1244,-500.5 1076,-500.5"/>
<text text-anchor="middle" x="1160" y="-507.5" font-family="Helvetica,sans-Serif" font-size="10.00">backend.command.SetHeading</text>
</a>
</g>
</g>
<!-- Node13&#45;&gt;Node16 -->
<g id="edge15" class="edge"><title>Node13&#45;&gt;Node16</title>
<path fill="none" stroke="midnightblue" d="M1042.64,-531.157C1064.62,-527.161 1087.3,-523.036 1106.74,-519.501"/>
<polygon fill="midnightblue" stroke="midnightblue" points="1041.81,-527.749 1032.6,-532.981 1043.07,-534.636 1041.81,-527.749"/>
</g>
<!-- Node22 -->
<g id="node22" class="node"><title>Node22</title>
<g id="a_node22"><a xlink:href="../../dc/d25/classbackend_1_1command_1_1_backward.html" target="_top" xlink:title="backend.command.Backward">
<polygon fill="white" stroke="black" points="1081,-418.5 1081,-437.5 1239,-437.5 1239,-418.5 1081,-418.5"/>
<text text-anchor="middle" x="1160" y="-425.5" font-family="Helvetica,sans-Serif" font-size="10.00">backend.command.Backward</text>
</a>
</g>
</g>
<!-- Node21&#45;&gt;Node22 -->
<g id="edge21" class="edge"><title>Node21&#45;&gt;Node22</title>
<path fill="none" stroke="midnightblue" d="M1026.71,-365.007C1030.62,-366.832 1034.41,-368.825 1038,-371 1057.9,-383.053 1053.77,-397.518 1074,-409 1080.84,-412.881 1088.41,-415.969 1096.12,-418.426"/>
<polygon fill="midnightblue" stroke="midnightblue" points="1028,-361.749 1017.42,-361.048 1025.25,-368.189 1028,-361.749"/>
</g>
<!-- Node23 -->
<g id="node23" class="node"><title>Node23</title>
<g id="a_node23"><a xlink:href="../../d8/d49/classbackend_1_1command_1_1_forward.html" target="_top" xlink:title="backend.command.Forward">
<polygon fill="white" stroke="black" points="1085.5,-380.5 1085.5,-399.5 1234.5,-399.5 1234.5,-380.5 1085.5,-380.5"/>
<text text-anchor="middle" x="1160" y="-387.5" font-family="Helvetica,sans-Serif" font-size="10.00">backend.command.Forward</text>
</a>
</g>
</g>
<!-- Node21&#45;&gt;Node23 -->
<g id="edge22" class="edge"><title>Node21&#45;&gt;Node23</title>
<path fill="none" stroke="midnightblue" d="M1031.16,-363.086C1059.24,-368.997 1089.68,-375.407 1113.82,-380.488"/>
<polygon fill="midnightblue" stroke="midnightblue" points="1031.85,-359.654 1021.34,-361.019 1030.41,-366.504 1031.85,-359.654"/>
</g>
<!-- Node24 -->
<g id="node24" class="node"><title>Node24</title>
<g id="a_node24"><a xlink:href="../../d8/d3e/classbackend_1_1command_1_1_set_pen_size.html" target="_top" xlink:title="backend.command.SetPenSize">
<polygon fill="white" stroke="black" points="1076.5,-342.5 1076.5,-361.5 1243.5,-361.5 1243.5,-342.5 1076.5,-342.5"/>
<text text-anchor="middle" x="1160" y="-349.5" font-family="Helvetica,sans-Serif" font-size="10.00">backend.command.SetPenSize</text>
</a>
</g>
</g>
<!-- Node21&#45;&gt;Node24 -->
<g id="edge23" class="edge"><title>Node21&#45;&gt;Node24</title>
<path fill="none" stroke="midnightblue" d="M1041.25,-348.62C1052.88,-348.954 1064.73,-349.294 1076.22,-349.623"/>
<polygon fill="midnightblue" stroke="midnightblue" points="1041.2,-345.117 1031.1,-348.328 1041,-352.114 1041.2,-345.117"/>
</g>
<!-- Node26 -->
<g id="node26" class="node"><title>Node26</title>
<g id="a_node26"><a xlink:href="../../d5/db7/classbackend_1_1command_1_1_set_position.html" target="_top" xlink:title="backend.command.SetPosition">
<polygon fill="white" stroke="black" points="1077,-304.5 1077,-323.5 1243,-323.5 1243,-304.5 1077,-304.5"/>
<text text-anchor="middle" x="1160" y="-311.5" font-family="Helvetica,sans-Serif" font-size="10.00">backend.command.SetPosition</text>
</a>
</g>
</g>
<!-- Node25&#45;&gt;Node26 -->
<g id="edge25" class="edge"><title>Node25&#45;&gt;Node26</title>
<path fill="none" stroke="midnightblue" d="M1039.85,-304.308C1052.14,-305.308 1064.7,-306.329 1076.84,-307.317"/>
<polygon fill="midnightblue" stroke="midnightblue" points="1039.86,-300.798 1029.61,-303.475 1039.29,-307.775 1039.86,-300.798"/>
</g>
<!-- Node27 -->
<g id="node27" class="node"><title>Node27</title>
<g id="a_node27"><a xlink:href="../../d7/d1a/classbackend_1_1command_1_1_set_towards.html" target="_top" xlink:title="backend.command.SetTowards">
<polygon fill="white" stroke="black" points="1077,-266.5 1077,-285.5 1243,-285.5 1243,-266.5 1077,-266.5"/>
<text text-anchor="middle" x="1160" y="-273.5" font-family="Helvetica,sans-Serif" font-size="10.00">backend.command.SetTowards</text>
</a>
</g>
</g>
<!-- Node25&#45;&gt;Node27 -->
<g id="edge26" class="edge"><title>Node25&#45;&gt;Node27</title>
<path fill="none" stroke="midnightblue" d="M1039.85,-287.972C1052.14,-286.738 1064.7,-285.475 1076.84,-284.256"/>
<polygon fill="midnightblue" stroke="midnightblue" points="1039.21,-284.519 1029.61,-289.001 1039.91,-291.484 1039.21,-284.519"/>
</g>
<!-- Node31 -->
<g id="node31" class="node"><title>Node31</title>
<g id="a_node31"><a xlink:href="../../d9/d61/classbackend_1_1command_1_1_get_pen_color.html" target="_top" xlink:title="backend.command.GetPenColor">
<polygon fill="white" stroke="black" points="1074,-228.5 1074,-247.5 1246,-247.5 1246,-228.5 1074,-228.5"/>
<text text-anchor="middle" x="1160" y="-235.5" font-family="Helvetica,sans-Serif" font-size="10.00">backend.command.GetPenColor</text>
</a>
</g>
</g>
<!-- Node30&#45;&gt;Node31 -->
<g id="edge30" class="edge"><title>Node30&#45;&gt;Node31</title>
<path fill="none" stroke="midnightblue" d="M995.735,-179.677C1009.59,-184.151 1024.67,-189.669 1038,-196 1055.15,-204.146 1056.47,-211.707 1074,-219 1083.21,-222.833 1093.33,-225.953 1103.26,-228.472"/>
<polygon fill="midnightblue" stroke="midnightblue" points="996.489,-176.246 985.9,-176.607 994.403,-182.928 996.489,-176.246"/>
</g>
<!-- Node32 -->
<g id="node32" class="node"><title>Node32</title>
<g id="a_node32"><a xlink:href="../../df/d1e/classbackend_1_1command_1_1_get_shape.html" target="_top" xlink:title="backend.command.GetShape">
<polygon fill="white" stroke="black" points="1080,-190.5 1080,-209.5 1240,-209.5 1240,-190.5 1080,-190.5"/>
<text text-anchor="middle" x="1160" y="-197.5" font-family="Helvetica,sans-Serif" font-size="10.00">backend.command.GetShape</text>
</a>
</g>
</g>
<!-- Node30&#45;&gt;Node32 -->
<g id="edge31" class="edge"><title>Node30&#45;&gt;Node32</title>
<path fill="none" stroke="midnightblue" d="M1020.12,-178.071C1045.54,-182.085 1074.01,-186.581 1098.53,-190.452"/>
<polygon fill="midnightblue" stroke="midnightblue" points="1020.59,-174.603 1010.17,-176.501 1019.5,-181.518 1020.59,-174.603"/>
</g>
<!-- Node34 -->
<g id="node34" class="node"><title>Node34</title>
<g id="a_node34"><a xlink:href="../../d7/da5/classbackend_1_1command_1_1_heading.html" target="_top" xlink:title="backend.command.Heading">
<polygon fill="white" stroke="black" points="1084,-152.5 1084,-171.5 1236,-171.5 1236,-152.5 1084,-152.5"/>
<text text-anchor="middle" x="1160" y="-159.5" font-family="Helvetica,sans-Serif" font-size="10.00">backend.command.Heading</text>
</a>
</g>
</g>
<!-- Node30&#45;&gt;Node34 -->
<g id="edge33" class="edge"><title>Node30&#45;&gt;Node34</title>
<path fill="none" stroke="midnightblue" d="M1042.07,-164.797C1055.98,-164.465 1070.2,-164.124 1083.7,-163.801"/>
<polygon fill="midnightblue" stroke="midnightblue" points="1041.92,-161.3 1032,-165.038 1042.08,-168.298 1041.92,-161.3"/>
</g>
<!-- Node35 -->
<g id="node35" class="node"><title>Node35</title>
<g id="a_node35"><a xlink:href="../../d8/d32/classbackend_1_1command_1_1_is_pen_down.html" target="_top" xlink:title="backend.command.IsPenDown">
<polygon fill="white" stroke="black" points="1078,-114.5 1078,-133.5 1242,-133.5 1242,-114.5 1078,-114.5"/>
<text text-anchor="middle" x="1160" y="-121.5" font-family="Helvetica,sans-Serif" font-size="10.00">backend.command.IsPenDown</text>
</a>
</g>
</g>
<!-- Node30&#45;&gt;Node35 -->
<g id="edge34" class="edge"><title>Node30&#45;&gt;Node35</title>
<path fill="none" stroke="midnightblue" d="M1006.43,-155.389C1039.74,-148.536 1081.39,-139.968 1112.75,-133.516"/>
<polygon fill="midnightblue" stroke="midnightblue" points="1005.47,-152.013 996.384,-157.457 1006.88,-158.87 1005.47,-152.013"/>
</g>
<!-- Node36 -->
<g id="node36" class="node"><title>Node36</title>
<g id="a_node36"><a xlink:href="../../df/d51/classbackend_1_1command_1_1_is_showing.html" target="_top" xlink:title="backend.command.IsShowing">
<polygon fill="white" stroke="black" points="1080.5,-76.5 1080.5,-95.5 1239.5,-95.5 1239.5,-76.5 1080.5,-76.5"/>
<text text-anchor="middle" x="1160" y="-83.5" font-family="Helvetica,sans-Serif" font-size="10.00">backend.command.IsShowing</text>
</a>
</g>
</g>
<!-- Node30&#45;&gt;Node36 -->
<g id="edge35" class="edge"><title>Node30&#45;&gt;Node36</title>
<path fill="none" stroke="midnightblue" d="M1026.6,-153.826C1030.56,-152.114 1034.39,-150.181 1038,-148 1059.34,-135.117 1052.71,-117.961 1074,-105 1080.33,-101.147 1087.35,-98.0732 1094.56,-95.621"/>
<polygon fill="midnightblue" stroke="midnightblue" points="1025.25,-150.594 1017.16,-157.433 1027.75,-157.132 1025.25,-150.594"/>
</g>
<!-- Node37 -->
<g id="node37" class="node"><title>Node37</title>
<g id="a_node37"><a xlink:href="../../d5/d68/classbackend_1_1command_1_1_x_coordinate.html" target="_top" xlink:title="backend.command.XCoordinate">
<polygon fill="white" stroke="black" points="1075,-38.5 1075,-57.5 1245,-57.5 1245,-38.5 1075,-38.5"/>
<text text-anchor="middle" x="1160" y="-45.5" font-family="Helvetica,sans-Serif" font-size="10.00">backend.command.XCoordinate</text>
</a>
</g>
</g>
<!-- Node30&#45;&gt;Node37 -->
<g id="edge36" class="edge"><title>Node30&#45;&gt;Node37</title>
<path fill="none" stroke="midnightblue" d="M1031.47,-152.639C1033.75,-151.225 1035.93,-149.682 1038,-148 1068.57,-123.149 1043.52,-91.9623 1074,-67 1078.68,-63.1675 1083.97,-60.0688 1089.57,-57.5681"/>
<polygon fill="midnightblue" stroke="midnightblue" points="1029.51,-149.715 1022.3,-157.477 1032.78,-155.907 1029.51,-149.715"/>
</g>
<!-- Node38 -->
<g id="node38" class="node"><title>Node38</title>
<g id="a_node38"><a xlink:href="../../d4/da7/classbackend_1_1command_1_1_y_coordinate.html" target="_top" xlink:title="backend.command.YCoordinate">
<polygon fill="white" stroke="black" points="1075.5,-0.5 1075.5,-19.5 1244.5,-19.5 1244.5,-0.5 1075.5,-0.5"/>
<text text-anchor="middle" x="1160" y="-7.5" font-family="Helvetica,sans-Serif" font-size="10.00">backend.command.YCoordinate</text>
</a>
</g>
</g>
<!-- Node30&#45;&gt;Node38 -->
<g id="edge37" class="edge"><title>Node30&#45;&gt;Node38</title>
<path fill="none" stroke="midnightblue" d="M1032.69,-152.311C1034.54,-150.984 1036.32,-149.549 1038,-148 1078.62,-110.545 1033.51,-66.6028 1074,-29 1078.1,-25.1926 1082.79,-22.0889 1087.81,-19.565"/>
<polygon fill="midnightblue" stroke="midnightblue" points="1030.87,-149.32 1024.1,-157.472 1034.48,-155.32 1030.87,-149.32"/>
</g>
<!-- Node33 -->
<g id="node33" class="node"><title>Node33</title>
<g id="a_node33"><a xlink:href="../../de/d8f/classbackend_1_1command_1_1_stamp.html" target="_top" xlink:title="backend.command.Stamp">
<polygon fill="white" stroke="black" points="1282,-190.5 1282,-209.5 1426,-209.5 1426,-190.5 1282,-190.5"/>
<text text-anchor="middle" x="1354" y="-197.5" font-family="Helvetica,sans-Serif" font-size="10.00">backend.command.Stamp</text>
</a>
</g>
</g>
<!-- Node32&#45;&gt;Node33 -->
<g id="edge32" class="edge"><title>Node32&#45;&gt;Node33</title>
<path fill="none" stroke="midnightblue" d="M1250.33,-200C1260.94,-200 1271.66,-200 1281.97,-200"/>
<polygon fill="midnightblue" stroke="midnightblue" points="1250.2,-196.5 1240.2,-200 1250.2,-203.5 1250.2,-196.5"/>
</g>
<!-- Node41 -->
<g id="node41" class="node"><title>Node41</title>
<g id="a_node41"><a xlink:href="../../d4/d75/classbackend_1_1command_1_1_ask.html" target="_top" xlink:title="backend.command.Ask">
<polygon fill="white" stroke="black" points="884.5,-119.5 884.5,-138.5 1013.5,-138.5 1013.5,-119.5 884.5,-119.5"/>
<text text-anchor="middle" x="949" y="-126.5" font-family="Helvetica,sans-Serif" font-size="10.00">backend.command.Ask</text>
</a>
</g>
</g>
<!-- Node40&#45;&gt;Node41 -->
<g id="edge40" class="edge"><title>Node40&#45;&gt;Node41</title>
<path fill="none" stroke="midnightblue" d="M824.719,-129.587C844.657,-129.492 865.501,-129.393 884.258,-129.304"/>
<polygon fill="midnightblue" stroke="midnightblue" points="824.689,-126.087 814.706,-129.635 824.723,-133.087 824.689,-126.087"/>
</g>
<!-- Node42 -->
<g id="node42" class="node"><title>Node42</title>
<g id="a_node42"><a xlink:href="../../de/dcc/classbackend_1_1command_1_1_tell.html" target="_top" xlink:title="backend.command.Tell">
<polygon fill="white" stroke="black" points="886,-81.5 886,-100.5 1012,-100.5 1012,-81.5 886,-81.5"/>
<text text-anchor="middle" x="949" y="-88.5" font-family="Helvetica,sans-Serif" font-size="10.00">backend.command.Tell</text>
</a>
</g>
</g>
<!-- Node40&#45;&gt;Node42 -->
<g id="edge41" class="edge"><title>Node40&#45;&gt;Node42</title>
<path fill="none" stroke="midnightblue" d="M824.731,-113.893C849.206,-109.347 875.049,-104.548 896.715,-100.524"/>
<polygon fill="midnightblue" stroke="midnightblue" points="823.899,-110.487 814.706,-115.755 825.177,-117.37 823.899,-110.487"/>
</g>
</g>
</svg>
