<?xml version="1.0" encoding="UTF-8" standalone="no"?>
<!DOCTYPE svg PUBLIC "-//W3C//DTD SVG 1.1//EN"
 "http://www.w3.org/Graphics/SVG/1.1/DTD/svg11.dtd">
<!-- Generated by graphviz version 2.36.0 (20140111.2315)
 -->
<!-- Title: backend.command.Turtles.execute Pages: 1 -->
<svg width="842pt" height="66pt"
 viewBox="0.00 0.00 842.00 66.00" xmlns="http://www.w3.org/2000/svg" xmlns:xlink="http://www.w3.org/1999/xlink">
<g id="graph0" class="graph" transform="scale(1 1) rotate(0) translate(4 62)">
<title>backend.command.Turtles.execute</title>
<polygon fill="white" stroke="none" points="-4,4 -4,-62 838,-62 838,4 -4,4"/>
<!-- Node1 -->
<g id="node1" class="node"><title>Node1</title>
<polygon fill="#bfbfbf" stroke="black" points="0,-19.5 0,-38.5 184,-38.5 184,-19.5 0,-19.5"/>
<text text-anchor="middle" x="92" y="-26.5" font-family="Helvetica,sans-Serif" font-size="10.00">backend.command.Turtles.execute</text>
</g>
<!-- Node2 -->
<g id="node2" class="node"><title>Node2</title>
<g id="a_node2"><a xlink:href="../../d5/dfc/classbackend_1_1command_1_1_turtle_command.html#a7f974873733f7c940acf4ffa8d6bd32b" target="_top" xlink:title="backend.command.TurtleCommand.all\lTurtles">
<polygon fill="white" stroke="black" points="220.5,-14 220.5,-44 421.5,-44 421.5,-14 220.5,-14"/>
<text text-anchor="start" x="228.5" y="-32" font-family="Helvetica,sans-Serif" font-size="10.00">backend.command.TurtleCommand.all</text>
<text text-anchor="middle" x="321" y="-21" font-family="Helvetica,sans-Serif" font-size="10.00">Turtles</text>
</a>
</g>
</g>
<!-- Node1&#45;&gt;Node2 -->
<g id="edge1" class="edge"><title>Node1&#45;&gt;Node2</title>
<path fill="none" stroke="midnightblue" d="M184.022,-29C192.621,-29 201.4,-29 210.15,-29"/>
<polygon fill="midnightblue" stroke="midnightblue" points="210.396,-32.5001 220.396,-29 210.396,-25.5001 210.396,-32.5001"/>
</g>
<!-- Node3 -->
<g id="node3" class="node"><title>Node3</title>
<g id="a_node3"><a xlink:href="../../d1/d68/classbackend_1_1_grid.html#ac089ef72a1531ec8e0cf131de056d0b2" target="_top" xlink:title="backend.Grid.getAllTurtles">
<polygon fill="white" stroke="black" points="494,-38.5 494,-57.5 634,-57.5 634,-38.5 494,-38.5"/>
<text text-anchor="middle" x="564" y="-45.5" font-family="Helvetica,sans-Serif" font-size="10.00">backend.Grid.getAllTurtles</text>
</a>
</g>
</g>
<!-- Node2&#45;&gt;Node3 -->
<g id="edge2" class="edge"><title>Node2&#45;&gt;Node3</title>
<path fill="none" stroke="midnightblue" d="M421.764,-36.8652C442.384,-38.4909 463.841,-40.1824 483.618,-41.7416"/>
<polygon fill="midnightblue" stroke="midnightblue" points="483.549,-45.247 493.793,-42.5439 484.099,-38.2687 483.549,-45.247"/>
</g>
<!-- Node4 -->
<g id="node4" class="node"><title>Node4</title>
<g id="a_node4"><a xlink:href="../../dc/d67/classbackend_1_1command_1_1_model_command.html#ab57d058d26b965a9038487f69f40c066" target="_top" xlink:title="backend.command.ModelCommand.grid">
<polygon fill="white" stroke="black" points="458,-0.5 458,-19.5 670,-19.5 670,-0.5 458,-0.5"/>
<text text-anchor="middle" x="564" y="-7.5" font-family="Helvetica,sans-Serif" font-size="10.00">backend.command.ModelCommand.grid</text>
</a>
</g>
</g>
<!-- Node2&#45;&gt;Node4 -->
<g id="edge3" class="edge"><title>Node2&#45;&gt;Node4</title>
<path fill="none" stroke="midnightblue" d="M421.764,-21.1348C430.326,-20.4597 439.033,-19.7733 447.704,-19.0897"/>
<polygon fill="midnightblue" stroke="midnightblue" points="448.161,-22.5646 457.855,-18.2894 447.611,-15.5863 448.161,-22.5646"/>
</g>
<!-- Node5 -->
<g id="node5" class="node"><title>Node5</title>
<g id="a_node5"><a xlink:href="../../d3/dac/classbackend_1_1_model.html#a341c789b1a3e0bf796fb626603928e95" target="_top" xlink:title="backend.Model.getGrid">
<polygon fill="white" stroke="black" points="706.5,-0.5 706.5,-19.5 833.5,-19.5 833.5,-0.5 706.5,-0.5"/>
<text text-anchor="middle" x="770" y="-7.5" font-family="Helvetica,sans-Serif" font-size="10.00">backend.Model.getGrid</text>
</a>
</g>
</g>
<!-- Node4&#45;&gt;Node5 -->
<g id="edge4" class="edge"><title>Node4&#45;&gt;Node5</title>
<path fill="none" stroke="midnightblue" d="M670.287,-10C679.083,-10 687.847,-10 696.316,-10"/>
<polygon fill="midnightblue" stroke="midnightblue" points="696.482,-13.5001 706.482,-10 696.482,-6.5001 696.482,-13.5001"/>
</g>
</g>
</svg>
